<?xml version="1.0" encoding="utf-8"?>
<!-- Generator: Adobe Illustrator 22.1.0, SVG Export Plug-In . SVG Version: 6.00 Build 0)  -->
<svg version="1.1" id="Calque_2" xmlns="http://www.w3.org/2000/svg" xmlns:xlink="http://www.w3.org/1999/xlink" x="0px" y="0px"
	 viewBox="0 0 1400 980" style="enable-background:new 0 0 1400 980;" xml:space="preserve">
<style type="text/css">
	.st0{fill:none;}
	.st1{fill:#FFFFFF;}
	.st2{fill:none;stroke:#000000;stroke-width:0.3;stroke-linecap:square;}
	.st3{stroke:#1D1D1B;stroke-miterlimit:10;}
	.st4{clip-path:url(#SVGID_2_);}
	.st5{fill:#9F5137;}
	.st6{fill:#9E5036;}
	.st7{fill:#91533E;}
	.st8{fill:#9E5037;}
	.st9{fill:#783C2B;}
	.st10{fill:#994E34;}
	.st11{fill:#773B29;}
	.st12{fill:#9D5036;}
	.st13{fill:#974B30;}
	.st14{fill:#9E5137;}
	.st15{fill:#743B2A;}
	.st16{fill:#8D513D;}
	.st17{fill:#9D5137;}
	.st18{fill:#8D523D;}
	.st19{fill:#9D5238;}
	.st20{fill:#9E5339;}
	.st21{fill:#6E3524;}
	.st22{fill:#864A37;}
	.st23{fill:#944A30;}
	.st24{fill:#9C4F35;}
	.st25{fill:#753C2A;}
	.st26{fill:#9F5037;}
	.st27{fill:#6F3726;}
	.st28{fill:#773C29;}
	.st29{fill:#9C5137;}
	.st30{fill:#91523D;}
	.st31{fill:#9A4D34;}
	.st32{fill:#9D4F36;}
	.st33{fill:#9F5036;}
	.st34{fill:#753B29;}
	.st35{fill:#91543F;}
	.st36{fill:#9F5239;}
	.st37{fill:#9C5037;}
	.st38{fill:#773C2A;}
	.st39{fill:#9A4E35;}
	.st40{opacity:0.4;clip-path:url(#SVGID_2_);}
	.st41{fill:url(#Lignes);}
</style>
<pattern  width="72" height="72" patternUnits="userSpaceOnUse" id="Lignes" viewBox="16.8 -73.8 72 72" style="overflow:visible;">
	<g>
		<rect x="16.8" y="-73.8" class="st0" width="72" height="72"/>
		<line class="st1" x1="0.8" y1="-7.8" x2="6.8" y2="-1.8"/>
		<line class="st1" x1="0.8" y1="-1.8" x2="6.8" y2="-7.8"/>
		<line class="st2" x1="15.8" y1="-64.2" x2="38.5" y2="-64.2"/>
		<line class="st2" x1="28.7" y1="-69.9" x2="72.5" y2="-69.9"/>
		<line class="st2" x1="33" y1="-64.2" x2="33" y2="-69.9"/>
		<line class="st2" x1="51.2" y1="-68.2" x2="82.7" y2="-68.2"/>
		<line class="st2" x1="37.2" y1="-66.4" x2="76.7" y2="-66.4"/>
		<line class="st2" x1="65.7" y1="-56.9" x2="86" y2="-56.9"/>
		<line class="st2" x1="79" y1="-56.9" x2="79" y2="-60.4"/>
		<line class="st2" x1="87.5" y1="-59.9" x2="81.2" y2="-59.9"/>
		<line class="st2" x1="23" y1="-59.9" x2="15.8" y2="-59.9"/>
		<line class="st2" x1="21.7" y1="-56.9" x2="46" y2="-56.9"/>
		<line class="st2" x1="55" y1="-64.2" x2="88" y2="-64.2"/>
		<line class="st2" x1="35.7" y1="-59.9" x2="60" y2="-59.9"/>
		<line class="st2" x1="68.2" y1="-51.7" x2="89.8" y2="-51.7"/>
		<line class="st2" x1="68" y1="-50.4" x2="89.8" y2="-50.4"/>
		<line class="st2" x1="24" y1="-51.7" x2="42.7" y2="-51.7"/>
		<line class="st2" x1="23.7" y1="-50.4" x2="36.2" y2="-50.4"/>
		<line class="st2" x1="38.5" y1="-54.7" x2="62.7" y2="-54.7"/>
		<line class="st2" x1="50.2" y1="-48.4" x2="70.5" y2="-48.4"/>
		<line class="st2" x1="63.5" y1="-48.4" x2="63.5" y2="-51.9"/>
		<line class="st2" x1="15.8" y1="-48.4" x2="39.7" y2="-48.4"/>
		<line class="st2" x1="20.7" y1="-48.4" x2="20.7" y2="-51.9"/>
		<line class="st2" x1="74.7" y1="-48.4" x2="87.2" y2="-48.4"/>
		<line class="st2" x1="46.5" y1="-51.7" x2="50.2" y2="-51.7"/>
		<line class="st2" x1="15.8" y1="-39.2" x2="46.5" y2="-39.2"/>
		<line class="st2" x1="36.7" y1="-44.9" x2="80.5" y2="-44.9"/>
		<line class="st2" x1="41" y1="-39.2" x2="41" y2="-44.9"/>
		<line class="st2" x1="59.2" y1="-43.2" x2="89.8" y2="-43.2"/>
		<line class="st2" x1="45.2" y1="-41.4" x2="84.7" y2="-41.4"/>
		<line class="st2" x1="73.7" y1="-31.9" x2="89.8" y2="-31.9"/>
		<line class="st2" x1="87" y1="-31.9" x2="87" y2="-35.4"/>
		<line class="st2" x1="72.7" y1="-34.9" x2="70.7" y2="-34.9"/>
		<line class="st2" x1="31" y1="-34.9" x2="24.7" y2="-34.9"/>
		<line class="st2" x1="29.7" y1="-31.9" x2="54" y2="-31.9"/>
		<line class="st2" x1="63.5" y1="-39.2" x2="89.8" y2="-39.2"/>
		<line class="st2" x1="43.7" y1="-34.9" x2="68" y2="-34.9"/>
		<line class="st2" x1="76.2" y1="-26.7" x2="89.8" y2="-26.7"/>
		<line class="st2" x1="76" y1="-25.4" x2="89.8" y2="-25.4"/>
		<line class="st2" x1="32" y1="-26.7" x2="50.7" y2="-26.7"/>
		<line class="st2" x1="31.7" y1="-25.4" x2="44.2" y2="-25.4"/>
		<line class="st2" x1="46.5" y1="-29.7" x2="70.7" y2="-29.7"/>
		<line class="st2" x1="58.2" y1="-23.4" x2="78.5" y2="-23.4"/>
		<line class="st2" x1="71.5" y1="-23.4" x2="71.5" y2="-26.9"/>
		<line class="st2" x1="15.8" y1="-23.4" x2="47.7" y2="-23.4"/>
		<line class="st2" x1="28.7" y1="-23.4" x2="28.7" y2="-26.9"/>
		<line class="st2" x1="82.7" y1="-23.4" x2="89.8" y2="-23.4"/>
		<line class="st2" x1="54.5" y1="-26.7" x2="58.2" y2="-26.7"/>
		<line class="st2" x1="15.8" y1="-14.7" x2="18.5" y2="-14.7"/>
		<line class="st2" x1="15.8" y1="-20.4" x2="52.5" y2="-20.4"/>
		<line class="st2" x1="31.2" y1="-18.7" x2="62.7" y2="-18.7"/>
		<line class="st2" x1="18.5" y1="-16.9" x2="56.7" y2="-16.9"/>
		<line class="st2" x1="45.7" y1="-7.4" x2="66" y2="-7.4"/>
		<line class="st2" x1="59" y1="-7.4" x2="59" y2="-10.9"/>
		<line class="st2" x1="68.5" y1="-10.4" x2="62.2" y2="-10.4"/>
		<line class="st2" x1="26" y1="-31.9" x2="15.8" y2="-31.9"/>
		<line class="st2" x1="15.8" y1="-7.4" x2="26" y2="-7.4"/>
		<line class="st2" x1="35.5" y1="-14.7" x2="68.5" y2="-14.7"/>
		<line class="st2" x1="15.8" y1="-10.4" x2="40" y2="-10.4"/>
		<line class="st2" x1="75.7" y1="-14.7" x2="89.8" y2="-14.7"/>
		<line class="st2" x1="54.2" y1="-5.2" x2="78.2" y2="-5.2"/>
		<line class="st2" x1="79.2" y1="-10.4" x2="89.8" y2="-10.4"/>
		<line class="st2" x1="18.5" y1="-5.2" x2="42.7" y2="-5.2"/>
		<line class="st2" x1="46.2" y1="-0.2" x2="46.2" y2="-3.7"/>
		<line class="st2" x1="79.2" y1="-18.9" x2="89.8" y2="-18.9"/>
		<line class="st2" x1="82" y1="-5.2" x2="85.7" y2="-5.2"/>
		<line class="st2" x1="33" y1="-72.2" x2="53.2" y2="-72.2"/>
		<line class="st2" x1="46.2" y1="-72.2" x2="46.2" y2="-75.7"/>
		<line class="st2" x1="19.5" y1="-69.7" x2="23.2" y2="-69.7"/>
		<line class="st2" x1="7.3" y1="-59.9" x2="0.1" y2="-59.9"/>
	</g>
</pattern>
<rect y="0" class="st3" width="1400" height="978.3"/>
<g>
	<defs>
		<rect id="SVGID_1_" y="0" width="1400" height="978.3"/>
	</defs>
	<clipPath id="SVGID_2_">
		<use xlink:href="#SVGID_1_"  style="overflow:visible;"/>
	</clipPath>
	<g class="st4">
		<path class="st5" d="M177.2-42.3c0,2.7-2.2,4.9-4.9,4.9H-1.7c-2.7,0-4.9-2.2-4.9-4.9v-53.9c0-2.7,2.2-4.9,4.9-4.9h174.1
			c2.7,0,4.9,2.2,4.9,4.9V-42.3z"/>
		<path class="st5" d="M367.2-42.3c0,2.7-2.2,4.9-4.9,4.9H188.2c-2.7,0-4.9-2.2-4.9-4.9v-53.9c0-2.7,2.2-4.9,4.9-4.9h174.1
			c2.7,0,4.9,2.2,4.9,4.9V-42.3z"/>
		<path class="st6" d="M557.5-42.3c0,2.7-2.2,4.9-4.9,4.9H378.5c-2.7,0-4.9-2.2-4.9-4.9v-53.9c0-2.7,2.2-4.9,4.9-4.9h174.1
			c2.7,0,4.9,2.2,4.9,4.9V-42.3z"/>
		<path class="st7" d="M746.9-42.3c0,2.7-2.2,4.9-4.9,4.9H567.9c-2.7,0-4.9-2.2-4.9-4.9v-53.9c0-2.7,2.2-4.9,4.9-4.9H742
			c2.7,0,4.9,2.2,4.9,4.9V-42.3z"/>
		<path class="st8" d="M936.3-42.3c0,2.7-2.2,4.9-4.9,4.9H757.3c-2.7,0-4.9-2.2-4.9-4.9v-53.9c0-2.7,2.2-4.9,4.9-4.9h174.1
			c2.7,0,4.9,2.2,4.9,4.9V-42.3z"/>
		<path class="st9" d="M1126.4-42.3c0,2.7-2.2,4.9-4.9,4.9H947.4c-2.7,0-4.9-2.2-4.9-4.9v-53.9c0-2.7,2.2-4.9,4.9-4.9h174.1
			c2.7,0,4.9,2.2,4.9,4.9V-42.3z"/>
		<path class="st7" d="M1317.1-42.3c0,2.7-2.2,4.9-4.9,4.9h-174.1c-2.7,0-4.9-2.2-4.9-4.9v-53.9c0-2.7,2.2-4.9,4.9-4.9h174.1
			c2.7,0,4.9,2.2,4.9,4.9V-42.3z"/>
		<path class="st10" d="M82.3,27.7c0,2.7-2.2,4.9-4.9,4.9H-96.7c-2.7,0-4.9-2.2-4.9-4.9v-53.9c0-2.7,2.2-4.9,4.9-4.9H77.4
			c2.7,0,4.9,2.2,4.9,4.9V27.7z"/>
		<path class="st11" d="M272.2,27.7c0,2.7-2.2,4.9-4.9,4.9H93.3c-2.7,0-4.9-2.2-4.9-4.9v-53.9c0-2.7,2.2-4.9,4.9-4.9h174.1
			c2.7,0,4.9,2.2,4.9,4.9V27.7z"/>
		<path class="st8" d="M462.5,27.7c0,2.7-2.2,4.9-4.9,4.9H283.5c-2.7,0-4.9-2.2-4.9-4.9v-53.9c0-2.7,2.2-4.9,4.9-4.9h174.1
			c2.7,0,4.9,2.2,4.9,4.9V27.7z"/>
		<path class="st11" d="M651.9,27.7c0,2.7-2.2,4.9-4.9,4.9H473c-2.7,0-4.9-2.2-4.9-4.9v-53.9c0-2.7,2.2-4.9,4.9-4.9H647
			c2.7,0,4.9,2.2,4.9,4.9V27.7z"/>
		<path class="st5" d="M841.3,27.7c0,2.7-2.2,4.9-4.9,4.9H662.4c-2.7,0-4.9-2.2-4.9-4.9v-53.9c0-2.7,2.2-4.9,4.9-4.9h174.1
			c2.7,0,4.9,2.2,4.9,4.9V27.7z"/>
		<path class="st5" d="M1031.4,27.7c0,2.7-2.2,4.9-4.9,4.9H852.4c-2.7,0-4.9-2.2-4.9-4.9v-53.9c0-2.7,2.2-4.9,4.9-4.9h174.1
			c2.7,0,4.9,2.2,4.9,4.9V27.7z"/>
		<path class="st12" d="M1222.2,27.7c0,2.7-2.2,4.9-4.9,4.9h-174.1c-2.7,0-4.9-2.2-4.9-4.9v-53.9c0-2.7,2.2-4.9,4.9-4.9h174.1
			c2.7,0,4.9,2.2,4.9,4.9V27.7z"/>
		<path class="st5" d="M1411.9,27.7c0,2.7-2.2,4.9-4.9,4.9H1233c-2.7,0-4.9-2.2-4.9-4.9v-53.9c0-2.7,2.2-4.9,4.9-4.9H1407
			c2.7,0,4.9,2.2,4.9,4.9V27.7z"/>
		<path class="st5" d="M177.2,96.9c0,2.7-2.2,4.9-4.9,4.9H-1.7c-2.7,0-4.9-2.2-4.9-4.9V43.1c0-2.7,2.2-4.9,4.9-4.9h174.1
			c2.7,0,4.9,2.2,4.9,4.9V96.9z"/>
		<path class="st7" d="M367.2,96.9c0,2.7-2.2,4.9-4.9,4.9H188.2c-2.7,0-4.9-2.2-4.9-4.9V43.1c0-2.7,2.2-4.9,4.9-4.9h174.1
			c2.7,0,4.9,2.2,4.9,4.9V96.9z"/>
		<path class="st5" d="M557.5,96.9c0,2.7-2.2,4.9-4.9,4.9H378.5c-2.7,0-4.9-2.2-4.9-4.9V43.1c0-2.7,2.2-4.9,4.9-4.9h174.1
			c2.7,0,4.9,2.2,4.9,4.9V96.9z"/>
		<path class="st5" d="M746.9,96.9c0,2.7-2.2,4.9-4.9,4.9H567.9c-2.7,0-4.9-2.2-4.9-4.9V43.1c0-2.7,2.2-4.9,4.9-4.9H742
			c2.7,0,4.9,2.2,4.9,4.9V96.9z"/>
		<path class="st5" d="M936.3,96.9c0,2.7-2.2,4.9-4.9,4.9H757.3c-2.7,0-4.9-2.2-4.9-4.9V43.1c0-2.7,2.2-4.9,4.9-4.9h174.1
			c2.7,0,4.9,2.2,4.9,4.9V96.9z"/>
		<path class="st5" d="M1126.4,96.9c0,2.7-2.2,4.9-4.9,4.9H947.4c-2.7,0-4.9-2.2-4.9-4.9V43.1c0-2.7,2.2-4.9,4.9-4.9h174.1
			c2.7,0,4.9,2.2,4.9,4.9V96.9z"/>
		<path class="st13" d="M1317.1,96.9c0,2.7-2.2,4.9-4.9,4.9h-174.1c-2.7,0-4.9-2.2-4.9-4.9V43.1c0-2.7,2.2-4.9,4.9-4.9h174.1
			c2.7,0,4.9,2.2,4.9,4.9V96.9z"/>
		<path class="st6" d="M1506.9,96.9c0,2.7-2.2,4.9-4.9,4.9h-174.1c-2.7,0-4.9-2.2-4.9-4.9V43.1c0-2.7,2.2-4.9,4.9-4.9H1502
			c2.7,0,4.9,2.2,4.9,4.9V96.9z"/>
		<path class="st11" d="M81.9,167c0,2.7-2.2,4.9-4.9,4.9H-97c-2.7,0-4.9-2.2-4.9-4.9v-53.9c0-2.7,2.2-4.9,4.9-4.9H77
			c2.7,0,4.9,2.2,4.9,4.9V167z"/>
		<path class="st12" d="M271.9,167c0,2.7-2.2,4.9-4.9,4.9H92.9c-2.7,0-4.9-2.2-4.9-4.9v-53.9c0-2.7,2.2-4.9,4.9-4.9H267
			c2.7,0,4.9,2.2,4.9,4.9V167z"/>
		<path class="st14" d="M462.2,167c0,2.7-2.2,4.9-4.9,4.9H283.2c-2.7,0-4.9-2.2-4.9-4.9v-53.9c0-2.7,2.2-4.9,4.9-4.9h174.1
			c2.7,0,4.9,2.2,4.9,4.9V167z"/>
		<path class="st5" d="M651.6,167c0,2.7-2.2,4.9-4.9,4.9H472.6c-2.7,0-4.9-2.2-4.9-4.9v-53.9c0-2.7,2.2-4.9,4.9-4.9h174.1
			c2.7,0,4.9,2.2,4.9,4.9V167z"/>
		<path class="st15" d="M841,167c0,2.7-2.2,4.9-4.9,4.9H662c-2.7,0-4.9-2.2-4.9-4.9v-53.9c0-2.7,2.2-4.9,4.9-4.9h174.1
			c2.7,0,4.9,2.2,4.9,4.9V167z"/>
		<path class="st5" d="M1031.1,167c0,2.7-2.2,4.9-4.9,4.9H852.1c-2.7,0-4.9-2.2-4.9-4.9v-53.9c0-2.7,2.2-4.9,4.9-4.9h174.1
			c2.7,0,4.9,2.2,4.9,4.9V167z"/>
		<path class="st16" d="M1221.8,167c0,2.7-2.2,4.9-4.9,4.9h-174.1c-2.7,0-4.9-2.2-4.9-4.9v-53.9c0-2.7,2.2-4.9,4.9-4.9h174.1
			c2.7,0,4.9,2.2,4.9,4.9V167z"/>
		<path class="st11" d="M1411.6,167c0,2.7-2.2,4.9-4.9,4.9h-174.1c-2.7,0-4.9-2.2-4.9-4.9v-53.9c0-2.7,2.2-4.9,4.9-4.9h174.1
			c2.7,0,4.9,2.2,4.9,4.9V167z"/>
		<path class="st5" d="M177.2,236.6c0,2.7-2.2,4.9-4.9,4.9H-1.7c-2.7,0-4.9-2.2-4.9-4.9v-53.9c0-2.7,2.2-4.9,4.9-4.9h174.1
			c2.7,0,4.9,2.2,4.9,4.9V236.6z"/>
		<path class="st17" d="M367.2,236.6c0,2.7-2.2,4.9-4.9,4.9H188.2c-2.7,0-4.9-2.2-4.9-4.9v-53.9c0-2.7,2.2-4.9,4.9-4.9h174.1
			c2.7,0,4.9,2.2,4.9,4.9V236.6z"/>
		<path class="st5" d="M557.5,236.6c0,2.7-2.2,4.9-4.9,4.9H378.5c-2.7,0-4.9-2.2-4.9-4.9v-53.9c0-2.7,2.2-4.9,4.9-4.9h174.1
			c2.7,0,4.9,2.2,4.9,4.9V236.6z"/>
		<path class="st18" d="M746.9,236.6c0,2.7-2.2,4.9-4.9,4.9H567.9c-2.7,0-4.9-2.2-4.9-4.9v-53.9c0-2.7,2.2-4.9,4.9-4.9H742
			c2.7,0,4.9,2.2,4.9,4.9V236.6z"/>
		<path class="st5" d="M936.3,236.6c0,2.7-2.2,4.9-4.9,4.9H757.3c-2.7,0-4.9-2.2-4.9-4.9v-53.9c0-2.7,2.2-4.9,4.9-4.9h174.1
			c2.7,0,4.9,2.2,4.9,4.9V236.6z"/>
		<path class="st5" d="M1126.4,236.6c0,2.7-2.2,4.9-4.9,4.9H947.4c-2.7,0-4.9-2.2-4.9-4.9v-53.9c0-2.7,2.2-4.9,4.9-4.9h174.1
			c2.7,0,4.9,2.2,4.9,4.9V236.6z"/>
		<path class="st5" d="M1317.1,236.6c0,2.7-2.2,4.9-4.9,4.9h-174.1c-2.7,0-4.9-2.2-4.9-4.9v-53.9c0-2.7,2.2-4.9,4.9-4.9h174.1
			c2.7,0,4.9,2.2,4.9,4.9V236.6z"/>
		<path class="st6" d="M1506.9,236.6c0,2.7-2.2,4.9-4.9,4.9h-174.1c-2.7,0-4.9-2.2-4.9-4.9v-53.9c0-2.7,2.2-4.9,4.9-4.9H1502
			c2.7,0,4.9,2.2,4.9,4.9V236.6z"/>
		<path class="st5" d="M82.4,305.8c0,2.7-2.2,4.9-4.9,4.9H-96.6c-2.7,0-4.9-2.2-4.9-4.9v-53.9c0-2.7,2.2-4.9,4.9-4.9H77.4
			c2.7,0,4.9,2.2,4.9,4.9V305.8z"/>
		<path class="st7" d="M272.3,305.8c0,2.7-2.2,4.9-4.9,4.9H93.3c-2.7,0-4.9-2.2-4.9-4.9v-53.9c0-2.7,2.2-4.9,4.9-4.9h174.1
			c2.7,0,4.9,2.2,4.9,4.9V305.8z"/>
		<path class="st14" d="M462.6,305.8c0,2.7-2.2,4.9-4.9,4.9H283.6c-2.7,0-4.9-2.2-4.9-4.9v-53.9c0-2.7,2.2-4.9,4.9-4.9h174.1
			c2.7,0,4.9,2.2,4.9,4.9V305.8z"/>
		<path class="st5" d="M652,305.8c0,2.7-2.2,4.9-4.9,4.9H473c-2.7,0-4.9-2.2-4.9-4.9v-53.9c0-2.7,2.2-4.9,4.9-4.9h174.1
			c2.7,0,4.9,2.2,4.9,4.9V305.8z"/>
		<path class="st19" d="M841.4,305.8c0,2.7-2.2,4.9-4.9,4.9H662.4c-2.7,0-4.9-2.2-4.9-4.9v-53.9c0-2.7,2.2-4.9,4.9-4.9h174.1
			c2.7,0,4.9,2.2,4.9,4.9V305.8z"/>
		<path class="st11" d="M1031.5,305.8c0,2.7-2.2,4.9-4.9,4.9H852.5c-2.7,0-4.9-2.2-4.9-4.9v-53.9c0-2.7,2.2-4.9,4.9-4.9h174.1
			c2.7,0,4.9,2.2,4.9,4.9V305.8z"/>
		<path class="st5" d="M1222.2,305.8c0,2.7-2.2,4.9-4.9,4.9h-174.1c-2.7,0-4.9-2.2-4.9-4.9v-53.9c0-2.7,2.2-4.9,4.9-4.9h174.1
			c2.7,0,4.9,2.2,4.9,4.9V305.8z"/>
		<path class="st5" d="M1412,305.8c0,2.7-2.2,4.9-4.9,4.9H1233c-2.7,0-4.9-2.2-4.9-4.9v-53.9c0-2.7,2.2-4.9,4.9-4.9h174.1
			c2.7,0,4.9,2.2,4.9,4.9V305.8z"/>
		<path class="st5" d="M177.2,375.4c0,2.7-2.2,4.9-4.9,4.9H-1.7c-2.7,0-4.9-2.2-4.9-4.9v-53.9c0-2.7,2.2-4.9,4.9-4.9h174.1
			c2.7,0,4.9,2.2,4.9,4.9V375.4z"/>
		<path class="st5" d="M367.2,375.4c0,2.7-2.2,4.9-4.9,4.9H188.2c-2.7,0-4.9-2.2-4.9-4.9v-53.9c0-2.7,2.2-4.9,4.9-4.9h174.1
			c2.7,0,4.9,2.2,4.9,4.9V375.4z"/>
		<path class="st5" d="M557.5,375.4c0,2.7-2.2,4.9-4.9,4.9H378.5c-2.7,0-4.9-2.2-4.9-4.9v-53.9c0-2.7,2.2-4.9,4.9-4.9h174.1
			c2.7,0,4.9,2.2,4.9,4.9V375.4z"/>
		<path class="st5" d="M746.9,375.4c0,2.7-2.2,4.9-4.9,4.9H567.9c-2.7,0-4.9-2.2-4.9-4.9v-53.9c0-2.7,2.2-4.9,4.9-4.9H742
			c2.7,0,4.9,2.2,4.9,4.9V375.4z"/>
		<path class="st14" d="M936.3,375.4c0,2.7-2.2,4.9-4.9,4.9H757.3c-2.7,0-4.9-2.2-4.9-4.9v-53.9c0-2.7,2.2-4.9,4.9-4.9h174.1
			c2.7,0,4.9,2.2,4.9,4.9V375.4z"/>
		<path class="st20" d="M1126.4,375.4c0,2.7-2.2,4.9-4.9,4.9H947.4c-2.7,0-4.9-2.2-4.9-4.9v-53.9c0-2.7,2.2-4.9,4.9-4.9h174.1
			c2.7,0,4.9,2.2,4.9,4.9V375.4z"/>
		<path class="st11" d="M1317.1,375.4c0,2.7-2.2,4.9-4.9,4.9h-174.1c-2.7,0-4.9-2.2-4.9-4.9v-53.9c0-2.7,2.2-4.9,4.9-4.9h174.1
			c2.7,0,4.9,2.2,4.9,4.9V375.4z"/>
		<path class="st6" d="M1506.9,375.4c0,2.7-2.2,4.9-4.9,4.9h-174.1c-2.7,0-4.9-2.2-4.9-4.9v-53.9c0-2.7,2.2-4.9,4.9-4.9H1502
			c2.7,0,4.9,2.2,4.9,4.9V375.4z"/>
		<path class="st14" d="M81.5,445c0,2.7-2.2,4.9-4.9,4.9H-97.5c-2.7,0-4.9-2.2-4.9-4.9v-53.9c0-2.7,2.2-4.9,4.9-4.9H76.6
			c2.7,0,4.9,2.2,4.9,4.9V445z"/>
		<path class="st11" d="M271.5,445c0,2.7-2.2,4.9-4.9,4.9H92.5c-2.7,0-4.9-2.2-4.9-4.9v-53.9c0-2.7,2.2-4.9,4.9-4.9h174.1
			c2.7,0,4.9,2.2,4.9,4.9V445z"/>
		<path class="st5" d="M461.8,445c0,2.7-2.2,4.9-4.9,4.9H282.8c-2.7,0-4.9-2.2-4.9-4.9v-53.9c0-2.7,2.2-4.9,4.9-4.9h174.1
			c2.7,0,4.9,2.2,4.9,4.9V445z"/>
		<path class="st21" d="M651.2,445c0,2.7-2.2,4.9-4.9,4.9H472.2c-2.7,0-4.9-2.2-4.9-4.9v-53.9c0-2.7,2.2-4.9,4.9-4.9h174.1
			c2.7,0,4.9,2.2,4.9,4.9V445z"/>
		<path class="st5" d="M840.6,445c0,2.7-2.2,4.9-4.9,4.9H661.6c-2.7,0-4.9-2.2-4.9-4.9v-53.9c0-2.7,2.2-4.9,4.9-4.9h174.1
			c2.7,0,4.9,2.2,4.9,4.9V445z"/>
		<path class="st22" d="M1030.7,445c0,2.7-2.2,4.9-4.9,4.9H851.7c-2.7,0-4.9-2.2-4.9-4.9v-53.9c0-2.7,2.2-4.9,4.9-4.9h174.1
			c2.7,0,4.9,2.2,4.9,4.9V445z"/>
		<path class="st5" d="M1221.4,445c0,2.7-2.2,4.9-4.9,4.9h-174.1c-2.7,0-4.9-2.2-4.9-4.9v-53.9c0-2.7,2.2-4.9,4.9-4.9h174.1
			c2.7,0,4.9,2.2,4.9,4.9V445z"/>
		<path class="st8" d="M1411.2,445c0,2.7-2.2,4.9-4.9,4.9h-174.1c-2.7,0-4.9-2.2-4.9-4.9v-53.9c0-2.7,2.2-4.9,4.9-4.9h174.1
			c2.7,0,4.9,2.2,4.9,4.9V445z"/>
		<path class="st23" d="M177.2,515c0,2.7-2.2,4.9-4.9,4.9H-1.7c-2.7,0-4.9-2.2-4.9-4.9v-53.9c0-2.7,2.2-4.9,4.9-4.9h174.1
			c2.7,0,4.9,2.2,4.9,4.9V515z"/>
		<path class="st5" d="M367.2,515c0,2.7-2.2,4.9-4.9,4.9H188.2c-2.7,0-4.9-2.2-4.9-4.9v-53.9c0-2.7,2.2-4.9,4.9-4.9h174.1
			c2.7,0,4.9,2.2,4.9,4.9V515z"/>
		<path class="st24" d="M557.5,515c0,2.7-2.2,4.9-4.9,4.9H378.5c-2.7,0-4.9-2.2-4.9-4.9v-53.9c0-2.7,2.2-4.9,4.9-4.9h174.1
			c2.7,0,4.9,2.2,4.9,4.9V515z"/>
		<path class="st5" d="M746.9,515c0,2.7-2.2,4.9-4.9,4.9H567.9c-2.7,0-4.9-2.2-4.9-4.9v-53.9c0-2.7,2.2-4.9,4.9-4.9H742
			c2.7,0,4.9,2.2,4.9,4.9V515z"/>
		<path class="st14" d="M936.3,515c0,2.7-2.2,4.9-4.9,4.9H757.3c-2.7,0-4.9-2.2-4.9-4.9v-53.9c0-2.7,2.2-4.9,4.9-4.9h174.1
			c2.7,0,4.9,2.2,4.9,4.9V515z"/>
		<path class="st11" d="M1126.4,515c0,2.7-2.2,4.9-4.9,4.9H947.4c-2.7,0-4.9-2.2-4.9-4.9v-53.9c0-2.7,2.2-4.9,4.9-4.9h174.1
			c2.7,0,4.9,2.2,4.9,4.9V515z"/>
		<path class="st5" d="M1317.1,515c0,2.7-2.2,4.9-4.9,4.9h-174.1c-2.7,0-4.9-2.2-4.9-4.9v-53.9c0-2.7,2.2-4.9,4.9-4.9h174.1
			c2.7,0,4.9,2.2,4.9,4.9V515z"/>
		<path class="st6" d="M1506.9,515c0,2.7-2.2,4.9-4.9,4.9h-174.1c-2.7,0-4.9-2.2-4.9-4.9v-53.9c0-2.7,2.2-4.9,4.9-4.9H1502
			c2.7,0,4.9,2.2,4.9,4.9V515z"/>
		<path class="st11" d="M82.4,584.6c0,2.7-2.2,4.9-4.9,4.9H-96.6c-2.7,0-4.9-2.2-4.9-4.9v-53.9c0-2.7,2.2-4.9,4.9-4.9H77.4
			c2.7,0,4.9,2.2,4.9,4.9V584.6z"/>
		<path class="st5" d="M272.3,584.6c0,2.7-2.2,4.9-4.9,4.9H93.3c-2.7,0-4.9-2.2-4.9-4.9v-53.9c0-2.7,2.2-4.9,4.9-4.9h174.1
			c2.7,0,4.9,2.2,4.9,4.9V584.6z"/>
		<path class="st7" d="M462.6,584.6c0,2.7-2.2,4.9-4.9,4.9H283.6c-2.7,0-4.9-2.2-4.9-4.9v-53.9c0-2.7,2.2-4.9,4.9-4.9h174.1
			c2.7,0,4.9,2.2,4.9,4.9V584.6z"/>
		<path class="st5" d="M652,584.6c0,2.7-2.2,4.9-4.9,4.9H473c-2.7,0-4.9-2.2-4.9-4.9v-53.9c0-2.7,2.2-4.9,4.9-4.9h174.1
			c2.7,0,4.9,2.2,4.9,4.9V584.6z"/>
		<path class="st7" d="M841.4,584.6c0,2.7-2.2,4.9-4.9,4.9H662.4c-2.7,0-4.9-2.2-4.9-4.9v-53.9c0-2.7,2.2-4.9,4.9-4.9h174.1
			c2.7,0,4.9,2.2,4.9,4.9V584.6z"/>
		<path class="st5" d="M1031.5,584.6c0,2.7-2.2,4.9-4.9,4.9H852.5c-2.7,0-4.9-2.2-4.9-4.9v-53.9c0-2.7,2.2-4.9,4.9-4.9h174.1
			c2.7,0,4.9,2.2,4.9,4.9V584.6z"/>
		<path class="st5" d="M1222.2,584.6c0,2.7-2.2,4.9-4.9,4.9h-174.1c-2.7,0-4.9-2.2-4.9-4.9v-53.9c0-2.7,2.2-4.9,4.9-4.9h174.1
			c2.7,0,4.9,2.2,4.9,4.9V584.6z"/>
		<path class="st25" d="M1412,584.6c0,2.7-2.2,4.9-4.9,4.9H1233c-2.7,0-4.9-2.2-4.9-4.9v-53.9c0-2.7,2.2-4.9,4.9-4.9h174.1
			c2.7,0,4.9,2.2,4.9,4.9V584.6z"/>
		<path class="st5" d="M177.2,654.3c0,2.7-2.2,4.9-4.9,4.9H-1.7c-2.7,0-4.9-2.2-4.9-4.9v-53.9c0-2.7,2.2-4.9,4.9-4.9h174.1
			c2.7,0,4.9,2.2,4.9,4.9V654.3z"/>
		<path class="st5" d="M367.2,654.3c0,2.7-2.2,4.9-4.9,4.9H188.2c-2.7,0-4.9-2.2-4.9-4.9v-53.9c0-2.7,2.2-4.9,4.9-4.9h174.1
			c2.7,0,4.9,2.2,4.9,4.9V654.3z"/>
		<path class="st5" d="M557.5,654.3c0,2.7-2.2,4.9-4.9,4.9H378.5c-2.7,0-4.9-2.2-4.9-4.9v-53.9c0-2.7,2.2-4.9,4.9-4.9h174.1
			c2.7,0,4.9,2.2,4.9,4.9V654.3z"/>
		<path class="st5" d="M746.9,654.3c0,2.7-2.2,4.9-4.9,4.9H567.9c-2.7,0-4.9-2.2-4.9-4.9v-53.9c0-2.7,2.2-4.9,4.9-4.9H742
			c2.7,0,4.9,2.2,4.9,4.9V654.3z"/>
		<path class="st5" d="M936.3,654.3c0,2.7-2.2,4.9-4.9,4.9H757.3c-2.7,0-4.9-2.2-4.9-4.9v-53.9c0-2.7,2.2-4.9,4.9-4.9h174.1
			c2.7,0,4.9,2.2,4.9,4.9V654.3z"/>
		<path class="st5" d="M1126.4,654.3c0,2.7-2.2,4.9-4.9,4.9H947.4c-2.7,0-4.9-2.2-4.9-4.9v-53.9c0-2.7,2.2-4.9,4.9-4.9h174.1
			c2.7,0,4.9,2.2,4.9,4.9V654.3z"/>
		<path class="st5" d="M1317.1,654.3c0,2.7-2.2,4.9-4.9,4.9h-174.1c-2.7,0-4.9-2.2-4.9-4.9v-53.9c0-2.7,2.2-4.9,4.9-4.9h174.1
			c2.7,0,4.9,2.2,4.9,4.9V654.3z"/>
		<path class="st6" d="M1506.9,654.3c0,2.7-2.2,4.9-4.9,4.9h-174.1c-2.7,0-4.9-2.2-4.9-4.9v-53.9c0-2.7,2.2-4.9,4.9-4.9H1502
			c2.7,0,4.9,2.2,4.9,4.9V654.3z"/>
		<path class="st26" d="M81.9,724.3c0,2.7-2.2,4.9-4.9,4.9H-97c-2.7,0-4.9-2.2-4.9-4.9v-53.9c0-2.7,2.2-4.9,4.9-4.9H77
			c2.7,0,4.9,2.2,4.9,4.9V724.3z"/>
		<path class="st27" d="M271.9,724.3c0,2.7-2.2,4.9-4.9,4.9H92.9c-2.7,0-4.9-2.2-4.9-4.9v-53.9c0-2.7,2.2-4.9,4.9-4.9H267
			c2.7,0,4.9,2.2,4.9,4.9V724.3z"/>
		<path class="st5" d="M462.2,724.3c0,2.7-2.2,4.9-4.9,4.9H283.2c-2.7,0-4.9-2.2-4.9-4.9v-53.9c0-2.7,2.2-4.9,4.9-4.9h174.1
			c2.7,0,4.9,2.2,4.9,4.9V724.3z"/>
		<path class="st24" d="M651.6,724.3c0,2.7-2.2,4.9-4.9,4.9H472.6c-2.7,0-4.9-2.2-4.9-4.9v-53.9c0-2.7,2.2-4.9,4.9-4.9h174.1
			c2.7,0,4.9,2.2,4.9,4.9V724.3z"/>
		<path class="st28" d="M841,724.3c0,2.7-2.2,4.9-4.9,4.9H662c-2.7,0-4.9-2.2-4.9-4.9v-53.9c0-2.7,2.2-4.9,4.9-4.9h174.1
			c2.7,0,4.9,2.2,4.9,4.9V724.3z"/>
		<path class="st5" d="M1031.1,724.3c0,2.7-2.2,4.9-4.9,4.9H852.1c-2.7,0-4.9-2.2-4.9-4.9v-53.9c0-2.7,2.2-4.9,4.9-4.9h174.1
			c2.7,0,4.9,2.2,4.9,4.9V724.3z"/>
		<path class="st11" d="M1221.8,724.3c0,2.7-2.2,4.9-4.9,4.9h-174.1c-2.7,0-4.9-2.2-4.9-4.9v-53.9c0-2.7,2.2-4.9,4.9-4.9h174.1
			c2.7,0,4.9,2.2,4.9,4.9V724.3z"/>
		<path class="st5" d="M1411.6,724.3c0,2.7-2.2,4.9-4.9,4.9h-174.1c-2.7,0-4.9-2.2-4.9-4.9v-53.9c0-2.7,2.2-4.9,4.9-4.9h174.1
			c2.7,0,4.9,2.2,4.9,4.9V724.3z"/>
		<path class="st29" d="M177.2,793.9c0,2.7-2.2,4.9-4.9,4.9H-1.7c-2.7,0-4.9-2.2-4.9-4.9V740c0-2.7,2.2-4.9,4.9-4.9h174.1
			c2.7,0,4.9,2.2,4.9,4.9V793.9z"/>
		<path class="st6" d="M367.2,793.9c0,2.7-2.2,4.9-4.9,4.9H188.2c-2.7,0-4.9-2.2-4.9-4.9V740c0-2.7,2.2-4.9,4.9-4.9h174.1
			c2.7,0,4.9,2.2,4.9,4.9V793.9z"/>
		<path class="st30" d="M557.5,793.9c0,2.7-2.2,4.9-4.9,4.9H378.5c-2.7,0-4.9-2.2-4.9-4.9V740c0-2.7,2.2-4.9,4.9-4.9h174.1
			c2.7,0,4.9,2.2,4.9,4.9V793.9z"/>
		<path class="st5" d="M746.9,793.9c0,2.7-2.2,4.9-4.9,4.9H567.9c-2.7,0-4.9-2.2-4.9-4.9V740c0-2.7,2.2-4.9,4.9-4.9H742
			c2.7,0,4.9,2.2,4.9,4.9V793.9z"/>
		<path class="st5" d="M936.3,793.9c0,2.7-2.2,4.9-4.9,4.9H757.3c-2.7,0-4.9-2.2-4.9-4.9V740c0-2.7,2.2-4.9,4.9-4.9h174.1
			c2.7,0,4.9,2.2,4.9,4.9V793.9z"/>
		<path class="st31" d="M1126.4,793.9c0,2.7-2.2,4.9-4.9,4.9H947.4c-2.7,0-4.9-2.2-4.9-4.9V740c0-2.7,2.2-4.9,4.9-4.9h174.1
			c2.7,0,4.9,2.2,4.9,4.9V793.9z"/>
		<path class="st32" d="M1317.1,793.9c0,2.7-2.2,4.9-4.9,4.9h-174.1c-2.7,0-4.9-2.2-4.9-4.9V740c0-2.7,2.2-4.9,4.9-4.9h174.1
			c2.7,0,4.9,2.2,4.9,4.9V793.9z"/>
		<path class="st6" d="M1506.9,793.9c0,2.7-2.2,4.9-4.9,4.9h-174.1c-2.7,0-4.9-2.2-4.9-4.9V740c0-2.7,2.2-4.9,4.9-4.9H1502
			c2.7,0,4.9,2.2,4.9,4.9V793.9z"/>
		<path class="st7" d="M82.3,863.1c0,2.7-2.2,4.9-4.9,4.9H-96.6c-2.7,0-4.9-2.2-4.9-4.9v-53.9c0-2.7,2.2-4.9,4.9-4.9H77.4
			c2.7,0,4.9,2.2,4.9,4.9V863.1z"/>
		<path class="st5" d="M272.3,863.1c0,2.7-2.2,4.9-4.9,4.9H93.3c-2.7,0-4.9-2.2-4.9-4.9v-53.9c0-2.7,2.2-4.9,4.9-4.9h174.1
			c2.7,0,4.9,2.2,4.9,4.9V863.1z"/>
		<path class="st5" d="M462.6,863.1c0,2.7-2.2,4.9-4.9,4.9H283.6c-2.7,0-4.9-2.2-4.9-4.9v-53.9c0-2.7,2.2-4.9,4.9-4.9h174.1
			c2.7,0,4.9,2.2,4.9,4.9V863.1z"/>
		<path class="st5" d="M652,863.1c0,2.7-2.2,4.9-4.9,4.9H473c-2.7,0-4.9-2.2-4.9-4.9v-53.9c0-2.7,2.2-4.9,4.9-4.9h174.1
			c2.7,0,4.9,2.2,4.9,4.9V863.1z"/>
		<path class="st33" d="M841.4,863.1c0,2.7-2.2,4.9-4.9,4.9H662.4c-2.7,0-4.9-2.2-4.9-4.9v-53.9c0-2.7,2.2-4.9,4.9-4.9h174.1
			c2.7,0,4.9,2.2,4.9,4.9V863.1z"/>
		<path class="st34" d="M1031.5,863.1c0,2.7-2.2,4.9-4.9,4.9H852.5c-2.7,0-4.9-2.2-4.9-4.9v-53.9c0-2.7,2.2-4.9,4.9-4.9h174.1
			c2.7,0,4.9,2.2,4.9,4.9V863.1z"/>
		<path class="st5" d="M1222.2,863.1c0,2.7-2.2,4.9-4.9,4.9h-174.1c-2.7,0-4.9-2.2-4.9-4.9v-53.9c0-2.7,2.2-4.9,4.9-4.9h174.1
			c2.7,0,4.9,2.2,4.9,4.9V863.1z"/>
		<path class="st35" d="M1412,863.1c0,2.7-2.2,4.9-4.9,4.9H1233c-2.7,0-4.9-2.2-4.9-4.9v-53.9c0-2.7,2.2-4.9,4.9-4.9h174.1
			c2.7,0,4.9,2.2,4.9,4.9V863.1z"/>
		<path class="st5" d="M177.2,933.3c0,2.7-2.2,4.9-4.9,4.9H-1.7c-2.7,0-4.9-2.2-4.9-4.9v-53.9c0-2.7,2.2-4.9,4.9-4.9h174.1
			c2.7,0,4.9,2.2,4.9,4.9V933.3z"/>
		<path class="st7" d="M367.2,933.3c0,2.7-2.2,4.9-4.9,4.9H188.2c-2.7,0-4.9-2.2-4.9-4.9v-53.9c0-2.7,2.2-4.9,4.9-4.9h174.1
			c2.7,0,4.9,2.2,4.9,4.9V933.3z"/>
		<path class="st36" d="M557.5,933.3c0,2.7-2.2,4.9-4.9,4.9H378.5c-2.7,0-4.9-2.2-4.9-4.9v-53.9c0-2.7,2.2-4.9,4.9-4.9h174.1
			c2.7,0,4.9,2.2,4.9,4.9V933.3z"/>
		<path class="st14" d="M746.9,933.3c0,2.7-2.2,4.9-4.9,4.9H567.9c-2.7,0-4.9-2.2-4.9-4.9v-53.9c0-2.7,2.2-4.9,4.9-4.9H742
			c2.7,0,4.9,2.2,4.9,4.9V933.3z"/>
		<path class="st7" d="M936.3,933.3c0,2.7-2.2,4.9-4.9,4.9H757.3c-2.7,0-4.9-2.2-4.9-4.9v-53.9c0-2.7,2.2-4.9,4.9-4.9h174.1
			c2.7,0,4.9,2.2,4.9,4.9V933.3z"/>
		<path class="st5" d="M1126.4,933.3c0,2.7-2.2,4.9-4.9,4.9H947.4c-2.7,0-4.9-2.2-4.9-4.9v-53.9c0-2.7,2.2-4.9,4.9-4.9h174.1
			c2.7,0,4.9,2.2,4.9,4.9V933.3z"/>
		<path class="st37" d="M1317.1,933.3c0,2.7-2.2,4.9-4.9,4.9h-174.1c-2.7,0-4.9-2.2-4.9-4.9v-53.9c0-2.7,2.2-4.9,4.9-4.9h174.1
			c2.7,0,4.9,2.2,4.9,4.9V933.3z"/>
		<path class="st6" d="M1506.9,933.3c0,2.7-2.2,4.9-4.9,4.9h-174.1c-2.7,0-4.9-2.2-4.9-4.9v-53.9c0-2.7,2.2-4.9,4.9-4.9H1502
			c2.7,0,4.9,2.2,4.9,4.9V933.3z"/>
		<path class="st38" d="M82.3,1002.3c0,2.7-2.2,4.9-4.9,4.9H-96.6c-2.7,0-4.9-2.2-4.9-4.9v-53.9c0-2.7,2.2-4.9,4.9-4.9H77.4
			c2.7,0,4.9,2.2,4.9,4.9V1002.3z"/>
		<path class="st39" d="M272.3,1002.3c0,2.7-2.2,4.9-4.9,4.9H93.3c-2.7,0-4.9-2.2-4.9-4.9v-53.9c0-2.7,2.2-4.9,4.9-4.9h174.1
			c2.7,0,4.9,2.2,4.9,4.9V1002.3z"/>
		<path class="st5" d="M462.6,1002.3c0,2.7-2.2,4.9-4.9,4.9H283.6c-2.7,0-4.9-2.2-4.9-4.9v-53.9c0-2.7,2.2-4.9,4.9-4.9h174.1
			c2.7,0,4.9,2.2,4.9,4.9V1002.3z"/>
		<path class="st11" d="M652,1002.3c0,2.7-2.2,4.9-4.9,4.9H473c-2.7,0-4.9-2.2-4.9-4.9v-53.9c0-2.7,2.2-4.9,4.9-4.9h174.1
			c2.7,0,4.9,2.2,4.9,4.9V1002.3z"/>
		<path class="st14" d="M841.4,1002.3c0,2.7-2.2,4.9-4.9,4.9H662.4c-2.7,0-4.9-2.2-4.9-4.9v-53.9c0-2.7,2.2-4.9,4.9-4.9h174.1
			c2.7,0,4.9,2.2,4.9,4.9V1002.3z"/>
		<path class="st5" d="M1031.5,1002.3c0,2.7-2.2,4.9-4.9,4.9H852.5c-2.7,0-4.9-2.2-4.9-4.9v-53.9c0-2.7,2.2-4.9,4.9-4.9h174.1
			c2.7,0,4.9,2.2,4.9,4.9V1002.3z"/>
		<path class="st6" d="M1222.2,1002.3c0,2.7-2.2,4.9-4.9,4.9h-174.1c-2.7,0-4.9-2.2-4.9-4.9v-53.9c0-2.7,2.2-4.9,4.9-4.9h174.1
			c2.7,0,4.9,2.2,4.9,4.9V1002.3z"/>
		<path class="st38" d="M1412,1002.3c0,2.7-2.2,4.9-4.9,4.9H1233c-2.7,0-4.9-2.2-4.9-4.9v-53.9c0-2.7,2.2-4.9,4.9-4.9h174.1
			c2.7,0,4.9,2.2,4.9,4.9V1002.3z"/>
	</g>
	<g class="st40">
		<path class="st41" d="M177.2-42.3c0,2.7-2.2,4.9-4.9,4.9H-1.7c-2.7,0-4.9-2.2-4.9-4.9v-53.9c0-2.7,2.2-4.9,4.9-4.9h174.1
			c2.7,0,4.9,2.2,4.9,4.9V-42.3z"/>
		<path class="st41" d="M367.2-42.3c0,2.7-2.2,4.9-4.9,4.9H188.2c-2.7,0-4.9-2.2-4.9-4.9v-53.9c0-2.7,2.2-4.9,4.9-4.9h174.1
			c2.7,0,4.9,2.2,4.9,4.9V-42.3z"/>
		<path class="st41" d="M557.5-42.3c0,2.7-2.2,4.9-4.9,4.9H378.5c-2.7,0-4.9-2.2-4.9-4.9v-53.9c0-2.7,2.2-4.9,4.9-4.9h174.1
			c2.7,0,4.9,2.2,4.9,4.9V-42.3z"/>
		<path class="st41" d="M746.9-42.3c0,2.7-2.2,4.9-4.9,4.9H567.9c-2.7,0-4.9-2.2-4.9-4.9v-53.9c0-2.7,2.2-4.9,4.9-4.9H742
			c2.7,0,4.9,2.2,4.9,4.9V-42.3z"/>
		<path class="st41" d="M936.3-42.3c0,2.7-2.2,4.9-4.9,4.9H757.3c-2.7,0-4.9-2.2-4.9-4.9v-53.9c0-2.7,2.2-4.9,4.9-4.9h174.1
			c2.7,0,4.9,2.2,4.9,4.9V-42.3z"/>
		<path class="st41" d="M1126.4-42.3c0,2.7-2.2,4.9-4.9,4.9H947.4c-2.7,0-4.9-2.2-4.9-4.9v-53.9c0-2.7,2.2-4.9,4.9-4.9h174.1
			c2.7,0,4.9,2.2,4.9,4.9V-42.3z"/>
		<path class="st41" d="M1317.1-42.3c0,2.7-2.2,4.9-4.9,4.9h-174.1c-2.7,0-4.9-2.2-4.9-4.9v-53.9c0-2.7,2.2-4.9,4.9-4.9h174.1
			c2.7,0,4.9,2.2,4.9,4.9V-42.3z"/>
		<path class="st41" d="M82.3,27.7c0,2.7-2.2,4.9-4.9,4.9H-96.7c-2.7,0-4.9-2.2-4.9-4.9v-53.9c0-2.7,2.2-4.9,4.9-4.9H77.4
			c2.7,0,4.9,2.2,4.9,4.9V27.7z"/>
		<path class="st41" d="M272.2,27.7c0,2.7-2.2,4.9-4.9,4.9H93.3c-2.7,0-4.9-2.2-4.9-4.9v-53.9c0-2.7,2.2-4.9,4.9-4.9h174.1
			c2.7,0,4.9,2.2,4.9,4.9V27.7z"/>
		<path class="st41" d="M462.5,27.7c0,2.7-2.2,4.9-4.9,4.9H283.5c-2.7,0-4.9-2.2-4.9-4.9v-53.9c0-2.7,2.2-4.9,4.9-4.9h174.1
			c2.7,0,4.9,2.2,4.9,4.9V27.7z"/>
		<path class="st41" d="M651.9,27.7c0,2.7-2.2,4.9-4.9,4.9H473c-2.7,0-4.9-2.2-4.9-4.9v-53.9c0-2.7,2.2-4.9,4.9-4.9H647
			c2.7,0,4.9,2.2,4.9,4.9V27.7z"/>
		<path class="st41" d="M841.3,27.7c0,2.7-2.2,4.9-4.9,4.9H662.4c-2.7,0-4.9-2.2-4.9-4.9v-53.9c0-2.7,2.2-4.9,4.9-4.9h174.1
			c2.7,0,4.9,2.2,4.9,4.9V27.7z"/>
		<path class="st41" d="M1031.4,27.7c0,2.7-2.2,4.9-4.9,4.9H852.4c-2.7,0-4.9-2.2-4.9-4.9v-53.9c0-2.7,2.2-4.9,4.9-4.9h174.1
			c2.7,0,4.9,2.2,4.9,4.9V27.7z"/>
		<path class="st41" d="M1222.2,27.7c0,2.7-2.2,4.9-4.9,4.9h-174.1c-2.7,0-4.9-2.2-4.9-4.9v-53.9c0-2.7,2.2-4.9,4.9-4.9h174.1
			c2.7,0,4.9,2.2,4.9,4.9V27.7z"/>
		<path class="st41" d="M1411.9,27.7c0,2.7-2.2,4.9-4.9,4.9H1233c-2.7,0-4.9-2.2-4.9-4.9v-53.9c0-2.7,2.2-4.9,4.9-4.9H1407
			c2.7,0,4.9,2.2,4.9,4.9V27.7z"/>
		<path class="st41" d="M177.2,96.9c0,2.7-2.2,4.9-4.9,4.9H-1.7c-2.7,0-4.9-2.2-4.9-4.9V43.1c0-2.7,2.2-4.9,4.9-4.9h174.1
			c2.7,0,4.9,2.2,4.9,4.9V96.9z"/>
		<path class="st41" d="M367.2,96.9c0,2.7-2.2,4.9-4.9,4.9H188.2c-2.7,0-4.9-2.2-4.9-4.9V43.1c0-2.7,2.2-4.9,4.9-4.9h174.1
			c2.7,0,4.9,2.2,4.9,4.9V96.9z"/>
		<path class="st41" d="M557.5,96.9c0,2.7-2.2,4.9-4.9,4.9H378.5c-2.7,0-4.9-2.2-4.9-4.9V43.1c0-2.7,2.2-4.9,4.9-4.9h174.1
			c2.7,0,4.9,2.2,4.9,4.9V96.9z"/>
		<path class="st41" d="M746.9,96.9c0,2.7-2.2,4.9-4.9,4.9H567.9c-2.7,0-4.9-2.2-4.9-4.9V43.1c0-2.7,2.2-4.9,4.9-4.9H742
			c2.7,0,4.9,2.2,4.9,4.9V96.9z"/>
		<path class="st41" d="M936.3,96.9c0,2.7-2.2,4.9-4.9,4.9H757.3c-2.7,0-4.9-2.2-4.9-4.9V43.1c0-2.7,2.2-4.9,4.9-4.9h174.1
			c2.7,0,4.9,2.2,4.9,4.9V96.9z"/>
		<path class="st41" d="M1126.4,96.9c0,2.7-2.2,4.9-4.9,4.9H947.4c-2.7,0-4.9-2.2-4.9-4.9V43.1c0-2.7,2.2-4.9,4.9-4.9h174.1
			c2.7,0,4.9,2.2,4.9,4.9V96.9z"/>
		<path class="st41" d="M1317.1,96.9c0,2.7-2.2,4.9-4.9,4.9h-174.1c-2.7,0-4.9-2.2-4.9-4.9V43.1c0-2.7,2.2-4.9,4.9-4.9h174.1
			c2.7,0,4.9,2.2,4.9,4.9V96.9z"/>
		<path class="st41" d="M1506.9,96.9c0,2.7-2.2,4.9-4.9,4.9h-174.1c-2.7,0-4.9-2.2-4.9-4.9V43.1c0-2.7,2.2-4.9,4.9-4.9H1502
			c2.7,0,4.9,2.2,4.9,4.9V96.9z"/>
		<path class="st41" d="M81.9,167c0,2.7-2.2,4.9-4.9,4.9H-97c-2.7,0-4.9-2.2-4.9-4.9v-53.9c0-2.7,2.2-4.9,4.9-4.9H77
			c2.7,0,4.9,2.2,4.9,4.9V167z"/>
		<path class="st41" d="M271.9,167c0,2.7-2.2,4.9-4.9,4.9H92.9c-2.7,0-4.9-2.2-4.9-4.9v-53.9c0-2.7,2.2-4.9,4.9-4.9H267
			c2.7,0,4.9,2.2,4.9,4.9V167z"/>
		<path class="st41" d="M462.2,167c0,2.7-2.2,4.9-4.9,4.9H283.2c-2.7,0-4.9-2.2-4.9-4.9v-53.9c0-2.7,2.2-4.9,4.9-4.9h174.1
			c2.7,0,4.9,2.2,4.9,4.9V167z"/>
		<path class="st41" d="M651.6,167c0,2.7-2.2,4.9-4.9,4.9H472.6c-2.7,0-4.9-2.2-4.9-4.9v-53.9c0-2.7,2.2-4.9,4.9-4.9h174.1
			c2.7,0,4.9,2.2,4.9,4.9V167z"/>
		<path class="st41" d="M841,167c0,2.7-2.2,4.9-4.9,4.9H662c-2.7,0-4.9-2.2-4.9-4.9v-53.9c0-2.7,2.2-4.9,4.9-4.9h174.1
			c2.7,0,4.9,2.2,4.9,4.9V167z"/>
		<path class="st41" d="M1031.1,167c0,2.7-2.2,4.9-4.9,4.9H852.1c-2.7,0-4.9-2.2-4.9-4.9v-53.9c0-2.7,2.2-4.9,4.9-4.9h174.1
			c2.7,0,4.9,2.2,4.9,4.9V167z"/>
		<path class="st41" d="M1221.8,167c0,2.7-2.2,4.9-4.9,4.9h-174.1c-2.7,0-4.9-2.2-4.9-4.9v-53.9c0-2.7,2.2-4.9,4.9-4.9h174.1
			c2.7,0,4.9,2.2,4.9,4.9V167z"/>
		<path class="st41" d="M1411.6,167c0,2.7-2.2,4.9-4.9,4.9h-174.1c-2.7,0-4.9-2.2-4.9-4.9v-53.9c0-2.7,2.2-4.9,4.9-4.9h174.1
			c2.7,0,4.9,2.2,4.9,4.9V167z"/>
		<path class="st41" d="M177.2,236.6c0,2.7-2.2,4.9-4.9,4.9H-1.7c-2.7,0-4.9-2.2-4.9-4.9v-53.9c0-2.7,2.2-4.9,4.9-4.9h174.1
			c2.7,0,4.9,2.2,4.9,4.9V236.6z"/>
		<path class="st41" d="M367.2,236.6c0,2.7-2.2,4.9-4.9,4.9H188.2c-2.7,0-4.9-2.2-4.9-4.9v-53.9c0-2.7,2.2-4.9,4.9-4.9h174.1
			c2.7,0,4.9,2.2,4.9,4.9V236.6z"/>
		<path class="st41" d="M557.5,236.6c0,2.7-2.2,4.9-4.9,4.9H378.5c-2.7,0-4.9-2.2-4.9-4.9v-53.9c0-2.7,2.2-4.9,4.9-4.9h174.1
			c2.7,0,4.9,2.2,4.9,4.9V236.6z"/>
		<path class="st41" d="M746.9,236.6c0,2.7-2.2,4.9-4.9,4.9H567.9c-2.7,0-4.9-2.2-4.9-4.9v-53.9c0-2.7,2.2-4.9,4.9-4.9H742
			c2.7,0,4.9,2.2,4.9,4.9V236.6z"/>
		<path class="st41" d="M936.3,236.6c0,2.7-2.2,4.9-4.9,4.9H757.3c-2.7,0-4.9-2.2-4.9-4.9v-53.9c0-2.7,2.2-4.9,4.9-4.9h174.1
			c2.7,0,4.9,2.2,4.9,4.9V236.6z"/>
		<path class="st41" d="M1126.4,236.6c0,2.7-2.2,4.9-4.9,4.9H947.4c-2.7,0-4.9-2.2-4.9-4.9v-53.9c0-2.7,2.2-4.9,4.9-4.9h174.1
			c2.7,0,4.9,2.2,4.9,4.9V236.6z"/>
		<path class="st41" d="M1317.1,236.6c0,2.7-2.2,4.9-4.9,4.9h-174.1c-2.7,0-4.9-2.2-4.9-4.9v-53.9c0-2.7,2.2-4.9,4.9-4.9h174.1
			c2.7,0,4.9,2.2,4.9,4.9V236.6z"/>
		<path class="st41" d="M1506.9,236.6c0,2.7-2.2,4.9-4.9,4.9h-174.1c-2.7,0-4.9-2.2-4.9-4.9v-53.9c0-2.7,2.2-4.9,4.9-4.9H1502
			c2.7,0,4.9,2.2,4.9,4.9V236.6z"/>
		<path class="st41" d="M82.4,305.8c0,2.7-2.2,4.9-4.9,4.9H-96.6c-2.7,0-4.9-2.2-4.9-4.9v-53.9c0-2.7,2.2-4.9,4.9-4.9H77.4
			c2.7,0,4.9,2.2,4.9,4.9V305.8z"/>
		<path class="st41" d="M272.3,305.8c0,2.7-2.2,4.9-4.9,4.9H93.3c-2.7,0-4.9-2.2-4.9-4.9v-53.9c0-2.7,2.2-4.9,4.9-4.9h174.1
			c2.7,0,4.9,2.2,4.9,4.9V305.8z"/>
		<path class="st41" d="M462.6,305.8c0,2.7-2.2,4.9-4.9,4.9H283.6c-2.7,0-4.9-2.2-4.9-4.9v-53.9c0-2.7,2.2-4.9,4.9-4.9h174.1
			c2.7,0,4.9,2.2,4.9,4.9V305.8z"/>
		<path class="st41" d="M652,305.8c0,2.7-2.2,4.9-4.9,4.9H473c-2.7,0-4.9-2.2-4.9-4.9v-53.9c0-2.7,2.2-4.9,4.9-4.9h174.1
			c2.7,0,4.9,2.2,4.9,4.9V305.8z"/>
		<path class="st41" d="M841.4,305.8c0,2.7-2.2,4.9-4.9,4.9H662.4c-2.7,0-4.9-2.2-4.9-4.9v-53.9c0-2.7,2.2-4.9,4.9-4.9h174.1
			c2.7,0,4.9,2.2,4.9,4.9V305.8z"/>
		<path class="st41" d="M1031.5,305.8c0,2.7-2.2,4.9-4.9,4.9H852.5c-2.7,0-4.9-2.2-4.9-4.9v-53.9c0-2.7,2.2-4.9,4.9-4.9h174.1
			c2.7,0,4.9,2.2,4.9,4.9V305.8z"/>
		<path class="st41" d="M1222.2,305.8c0,2.7-2.2,4.9-4.9,4.9h-174.1c-2.7,0-4.9-2.2-4.9-4.9v-53.9c0-2.7,2.2-4.9,4.9-4.9h174.1
			c2.7,0,4.9,2.2,4.9,4.9V305.8z"/>
		<path class="st41" d="M1412,305.8c0,2.7-2.2,4.9-4.9,4.9H1233c-2.7,0-4.9-2.2-4.9-4.9v-53.9c0-2.7,2.2-4.9,4.9-4.9h174.1
			c2.7,0,4.9,2.2,4.9,4.9V305.8z"/>
		<path class="st41" d="M177.2,375.4c0,2.7-2.2,4.9-4.9,4.9H-1.7c-2.7,0-4.9-2.2-4.9-4.9v-53.9c0-2.7,2.2-4.9,4.9-4.9h174.1
			c2.7,0,4.9,2.2,4.9,4.9V375.4z"/>
		<path class="st41" d="M367.2,375.4c0,2.7-2.2,4.9-4.9,4.9H188.2c-2.7,0-4.9-2.2-4.9-4.9v-53.9c0-2.7,2.2-4.9,4.9-4.9h174.1
			c2.7,0,4.9,2.2,4.9,4.9V375.4z"/>
		<path class="st41" d="M557.5,375.4c0,2.7-2.2,4.9-4.9,4.9H378.5c-2.7,0-4.9-2.2-4.9-4.9v-53.9c0-2.7,2.2-4.9,4.9-4.9h174.1
			c2.7,0,4.9,2.2,4.9,4.9V375.4z"/>
		<path class="st41" d="M746.9,375.4c0,2.7-2.2,4.9-4.9,4.9H567.9c-2.7,0-4.9-2.2-4.9-4.9v-53.9c0-2.7,2.2-4.9,4.9-4.9H742
			c2.7,0,4.9,2.2,4.9,4.9V375.4z"/>
		<path class="st41" d="M936.3,375.4c0,2.7-2.2,4.9-4.9,4.9H757.3c-2.7,0-4.9-2.2-4.9-4.9v-53.9c0-2.7,2.2-4.9,4.9-4.9h174.1
			c2.7,0,4.9,2.2,4.9,4.9V375.4z"/>
		<path class="st41" d="M1126.4,375.4c0,2.7-2.2,4.9-4.9,4.9H947.4c-2.7,0-4.9-2.2-4.9-4.9v-53.9c0-2.7,2.2-4.9,4.9-4.9h174.1
			c2.7,0,4.9,2.2,4.9,4.9V375.4z"/>
		<path class="st41" d="M1317.1,375.4c0,2.7-2.2,4.9-4.9,4.9h-174.1c-2.7,0-4.9-2.2-4.9-4.9v-53.9c0-2.7,2.2-4.9,4.9-4.9h174.1
			c2.7,0,4.9,2.2,4.9,4.9V375.4z"/>
		<path class="st41" d="M1506.9,375.4c0,2.7-2.2,4.9-4.9,4.9h-174.1c-2.7,0-4.9-2.2-4.9-4.9v-53.9c0-2.7,2.2-4.9,4.9-4.9H1502
			c2.7,0,4.9,2.2,4.9,4.9V375.4z"/>
		<path class="st41" d="M81.5,445c0,2.7-2.2,4.9-4.9,4.9H-97.5c-2.7,0-4.9-2.2-4.9-4.9v-53.9c0-2.7,2.2-4.9,4.9-4.9H76.6
			c2.7,0,4.9,2.2,4.9,4.9V445z"/>
		<path class="st41" d="M271.5,445c0,2.7-2.2,4.9-4.9,4.9H92.5c-2.7,0-4.9-2.2-4.9-4.9v-53.9c0-2.7,2.2-4.9,4.9-4.9h174.1
			c2.7,0,4.9,2.2,4.9,4.9V445z"/>
		<path class="st41" d="M461.8,445c0,2.7-2.2,4.9-4.9,4.9H282.8c-2.7,0-4.9-2.2-4.9-4.9v-53.9c0-2.7,2.2-4.9,4.9-4.9h174.1
			c2.7,0,4.9,2.2,4.9,4.9V445z"/>
		<path class="st41" d="M651.2,445c0,2.7-2.2,4.9-4.9,4.9H472.2c-2.7,0-4.9-2.2-4.9-4.9v-53.9c0-2.7,2.2-4.9,4.9-4.9h174.1
			c2.7,0,4.9,2.2,4.9,4.9V445z"/>
		<path class="st41" d="M840.6,445c0,2.7-2.2,4.9-4.9,4.9H661.6c-2.7,0-4.9-2.2-4.9-4.9v-53.9c0-2.7,2.2-4.9,4.9-4.9h174.1
			c2.7,0,4.9,2.2,4.9,4.9V445z"/>
		<path class="st41" d="M1030.7,445c0,2.7-2.2,4.9-4.9,4.9H851.7c-2.7,0-4.9-2.2-4.9-4.9v-53.9c0-2.7,2.2-4.9,4.9-4.9h174.1
			c2.7,0,4.9,2.2,4.9,4.9V445z"/>
		<path class="st41" d="M1221.4,445c0,2.7-2.2,4.9-4.9,4.9h-174.1c-2.7,0-4.9-2.2-4.9-4.9v-53.9c0-2.7,2.2-4.9,4.9-4.9h174.1
			c2.7,0,4.9,2.2,4.9,4.9V445z"/>
		<path class="st41" d="M1411.2,445c0,2.7-2.2,4.9-4.9,4.9h-174.1c-2.7,0-4.9-2.2-4.9-4.9v-53.9c0-2.7,2.2-4.9,4.9-4.9h174.1
			c2.7,0,4.9,2.2,4.9,4.9V445z"/>
		<path class="st41" d="M177.2,515c0,2.7-2.2,4.9-4.9,4.9H-1.7c-2.7,0-4.9-2.2-4.9-4.9v-53.9c0-2.7,2.2-4.9,4.9-4.9h174.1
			c2.7,0,4.9,2.2,4.9,4.9V515z"/>
		<path class="st41" d="M367.2,515c0,2.7-2.2,4.9-4.9,4.9H188.2c-2.7,0-4.9-2.2-4.9-4.9v-53.9c0-2.7,2.2-4.9,4.9-4.9h174.1
			c2.7,0,4.9,2.2,4.9,4.9V515z"/>
		<path class="st41" d="M557.5,515c0,2.7-2.2,4.9-4.9,4.9H378.5c-2.7,0-4.9-2.2-4.9-4.9v-53.9c0-2.7,2.2-4.9,4.9-4.9h174.1
			c2.7,0,4.9,2.2,4.9,4.9V515z"/>
		<path class="st41" d="M746.9,515c0,2.7-2.2,4.9-4.9,4.9H567.9c-2.7,0-4.9-2.2-4.9-4.9v-53.9c0-2.7,2.2-4.9,4.9-4.9H742
			c2.7,0,4.9,2.2,4.9,4.9V515z"/>
		<path class="st41" d="M936.3,515c0,2.7-2.2,4.9-4.9,4.9H757.3c-2.7,0-4.9-2.2-4.9-4.9v-53.9c0-2.7,2.2-4.9,4.9-4.9h174.1
			c2.7,0,4.9,2.2,4.9,4.9V515z"/>
		<path class="st41" d="M1126.4,515c0,2.7-2.2,4.9-4.9,4.9H947.4c-2.7,0-4.9-2.2-4.9-4.9v-53.9c0-2.7,2.2-4.9,4.9-4.9h174.1
			c2.7,0,4.9,2.2,4.9,4.9V515z"/>
		<path class="st41" d="M1317.1,515c0,2.7-2.2,4.9-4.9,4.9h-174.1c-2.7,0-4.9-2.2-4.9-4.9v-53.9c0-2.7,2.2-4.9,4.9-4.9h174.1
			c2.7,0,4.9,2.2,4.9,4.9V515z"/>
		<path class="st41" d="M1506.9,515c0,2.7-2.2,4.9-4.9,4.9h-174.1c-2.7,0-4.9-2.2-4.9-4.9v-53.9c0-2.7,2.2-4.9,4.9-4.9H1502
			c2.7,0,4.9,2.2,4.9,4.9V515z"/>
		<path class="st41" d="M82.4,584.6c0,2.7-2.2,4.9-4.9,4.9H-96.6c-2.7,0-4.9-2.2-4.9-4.9v-53.9c0-2.7,2.2-4.9,4.9-4.9H77.4
			c2.7,0,4.9,2.2,4.9,4.9V584.6z"/>
		<path class="st41" d="M272.3,584.6c0,2.7-2.2,4.9-4.9,4.9H93.3c-2.7,0-4.9-2.2-4.9-4.9v-53.9c0-2.7,2.2-4.9,4.9-4.9h174.1
			c2.7,0,4.9,2.2,4.9,4.9V584.6z"/>
		<path class="st41" d="M462.6,584.6c0,2.7-2.2,4.9-4.9,4.9H283.6c-2.7,0-4.9-2.2-4.9-4.9v-53.9c0-2.7,2.2-4.9,4.9-4.9h174.1
			c2.7,0,4.9,2.2,4.9,4.9V584.6z"/>
		<path class="st41" d="M652,584.6c0,2.7-2.2,4.9-4.9,4.9H473c-2.7,0-4.9-2.2-4.9-4.9v-53.9c0-2.7,2.2-4.9,4.9-4.9h174.1
			c2.7,0,4.9,2.2,4.9,4.9V584.6z"/>
		<path class="st41" d="M841.4,584.6c0,2.7-2.2,4.9-4.9,4.9H662.4c-2.7,0-4.9-2.2-4.9-4.9v-53.9c0-2.7,2.2-4.9,4.9-4.9h174.1
			c2.7,0,4.9,2.2,4.9,4.9V584.6z"/>
		<path class="st41" d="M1031.5,584.6c0,2.7-2.2,4.9-4.9,4.9H852.5c-2.7,0-4.9-2.2-4.9-4.9v-53.9c0-2.7,2.2-4.9,4.9-4.9h174.1
			c2.7,0,4.9,2.2,4.9,4.9V584.6z"/>
		<path class="st41" d="M1222.2,584.6c0,2.7-2.2,4.9-4.9,4.9h-174.1c-2.7,0-4.9-2.2-4.9-4.9v-53.9c0-2.7,2.2-4.9,4.9-4.9h174.1
			c2.7,0,4.9,2.2,4.9,4.9V584.6z"/>
		<path class="st41" d="M1412,584.6c0,2.7-2.2,4.9-4.9,4.9H1233c-2.7,0-4.9-2.2-4.9-4.9v-53.9c0-2.7,2.2-4.9,4.9-4.9h174.1
			c2.7,0,4.9,2.2,4.9,4.9V584.6z"/>
		<path class="st41" d="M177.2,654.3c0,2.7-2.2,4.9-4.9,4.9H-1.7c-2.7,0-4.9-2.2-4.9-4.9v-53.9c0-2.7,2.2-4.9,4.9-4.9h174.1
			c2.7,0,4.9,2.2,4.9,4.9V654.3z"/>
		<path class="st41" d="M367.2,654.3c0,2.7-2.2,4.9-4.9,4.9H188.2c-2.7,0-4.9-2.2-4.9-4.9v-53.9c0-2.7,2.2-4.9,4.9-4.9h174.1
			c2.7,0,4.9,2.2,4.9,4.9V654.3z"/>
		<path class="st41" d="M557.5,654.3c0,2.7-2.2,4.9-4.9,4.9H378.5c-2.7,0-4.9-2.2-4.9-4.9v-53.9c0-2.7,2.2-4.9,4.9-4.9h174.1
			c2.7,0,4.9,2.2,4.9,4.9V654.3z"/>
		<path class="st41" d="M746.9,654.3c0,2.7-2.2,4.9-4.9,4.9H567.9c-2.7,0-4.9-2.2-4.9-4.9v-53.9c0-2.7,2.2-4.9,4.9-4.9H742
			c2.7,0,4.9,2.2,4.9,4.9V654.3z"/>
		<path class="st41" d="M936.3,654.3c0,2.7-2.2,4.9-4.9,4.9H757.3c-2.7,0-4.9-2.2-4.9-4.9v-53.9c0-2.7,2.2-4.9,4.9-4.9h174.1
			c2.7,0,4.9,2.2,4.9,4.9V654.3z"/>
		<path class="st41" d="M1126.4,654.3c0,2.7-2.2,4.9-4.9,4.9H947.4c-2.7,0-4.9-2.2-4.9-4.9v-53.9c0-2.7,2.2-4.9,4.9-4.9h174.1
			c2.7,0,4.9,2.2,4.9,4.9V654.3z"/>
		<path class="st41" d="M1317.1,654.3c0,2.7-2.2,4.9-4.9,4.9h-174.1c-2.7,0-4.9-2.2-4.9-4.9v-53.9c0-2.7,2.2-4.9,4.9-4.9h174.1
			c2.7,0,4.9,2.2,4.9,4.9V654.3z"/>
		<path class="st41" d="M1506.9,654.3c0,2.7-2.2,4.9-4.9,4.9h-174.1c-2.7,0-4.9-2.2-4.9-4.9v-53.9c0-2.7,2.2-4.9,4.9-4.9H1502
			c2.7,0,4.9,2.2,4.9,4.9V654.3z"/>
		<path class="st41" d="M81.9,724.3c0,2.7-2.2,4.9-4.9,4.9H-97c-2.7,0-4.9-2.2-4.9-4.9v-53.9c0-2.7,2.2-4.9,4.9-4.9H77
			c2.7,0,4.9,2.2,4.9,4.9V724.3z"/>
		<path class="st41" d="M271.9,724.3c0,2.7-2.2,4.9-4.9,4.9H92.9c-2.7,0-4.9-2.2-4.9-4.9v-53.9c0-2.7,2.2-4.9,4.9-4.9H267
			c2.7,0,4.9,2.2,4.9,4.9V724.3z"/>
		<path class="st41" d="M462.2,724.3c0,2.7-2.2,4.9-4.9,4.9H283.2c-2.7,0-4.9-2.2-4.9-4.9v-53.9c0-2.7,2.2-4.9,4.9-4.9h174.1
			c2.7,0,4.9,2.2,4.9,4.9V724.3z"/>
		<path class="st41" d="M651.6,724.3c0,2.7-2.2,4.9-4.9,4.9H472.6c-2.7,0-4.9-2.2-4.9-4.9v-53.9c0-2.7,2.2-4.9,4.9-4.9h174.1
			c2.7,0,4.9,2.2,4.9,4.9V724.3z"/>
		<path class="st41" d="M841,724.3c0,2.7-2.2,4.9-4.9,4.9H662c-2.7,0-4.9-2.2-4.9-4.9v-53.9c0-2.7,2.2-4.9,4.9-4.9h174.1
			c2.7,0,4.9,2.2,4.9,4.9V724.3z"/>
		<path class="st41" d="M1031.1,724.3c0,2.7-2.2,4.9-4.9,4.9H852.1c-2.7,0-4.9-2.2-4.9-4.9v-53.9c0-2.7,2.2-4.9,4.9-4.9h174.1
			c2.7,0,4.9,2.2,4.9,4.9V724.3z"/>
		<path class="st41" d="M1221.8,724.3c0,2.7-2.2,4.9-4.9,4.9h-174.1c-2.7,0-4.9-2.2-4.9-4.9v-53.9c0-2.7,2.2-4.9,4.9-4.9h174.1
			c2.7,0,4.9,2.2,4.9,4.9V724.3z"/>
		<path class="st41" d="M1411.6,724.3c0,2.7-2.2,4.9-4.9,4.9h-174.1c-2.7,0-4.9-2.2-4.9-4.9v-53.9c0-2.7,2.2-4.9,4.9-4.9h174.1
			c2.7,0,4.9,2.2,4.9,4.9V724.3z"/>
		<path class="st41" d="M177.2,793.9c0,2.7-2.2,4.9-4.9,4.9H-1.7c-2.7,0-4.9-2.2-4.9-4.9V740c0-2.7,2.2-4.9,4.9-4.9h174.1
			c2.7,0,4.9,2.2,4.9,4.9V793.9z"/>
		<path class="st41" d="M367.2,793.9c0,2.7-2.2,4.9-4.9,4.9H188.2c-2.7,0-4.9-2.2-4.9-4.9V740c0-2.7,2.2-4.9,4.9-4.9h174.1
			c2.7,0,4.9,2.2,4.9,4.9V793.9z"/>
		<path class="st41" d="M557.5,793.9c0,2.7-2.2,4.9-4.9,4.9H378.5c-2.7,0-4.9-2.2-4.9-4.9V740c0-2.7,2.2-4.9,4.9-4.9h174.1
			c2.7,0,4.9,2.2,4.9,4.9V793.9z"/>
		<path class="st41" d="M746.9,793.9c0,2.7-2.2,4.9-4.9,4.9H567.9c-2.7,0-4.9-2.2-4.9-4.9V740c0-2.7,2.2-4.9,4.9-4.9H742
			c2.7,0,4.9,2.2,4.9,4.9V793.9z"/>
		<path class="st41" d="M936.3,793.9c0,2.7-2.2,4.9-4.9,4.9H757.3c-2.7,0-4.9-2.2-4.9-4.9V740c0-2.7,2.2-4.9,4.9-4.9h174.1
			c2.7,0,4.9,2.2,4.9,4.9V793.9z"/>
		<path class="st41" d="M1126.4,793.9c0,2.7-2.2,4.9-4.9,4.9H947.4c-2.7,0-4.9-2.2-4.9-4.9V740c0-2.7,2.2-4.9,4.9-4.9h174.1
			c2.7,0,4.9,2.2,4.9,4.9V793.9z"/>
		<path class="st41" d="M1317.1,793.9c0,2.7-2.2,4.9-4.9,4.9h-174.1c-2.7,0-4.9-2.2-4.9-4.9V740c0-2.7,2.2-4.9,4.9-4.9h174.1
			c2.7,0,4.9,2.2,4.9,4.9V793.9z"/>
		<path class="st41" d="M1506.9,793.9c0,2.7-2.2,4.9-4.9,4.9h-174.1c-2.7,0-4.9-2.2-4.9-4.9V740c0-2.7,2.2-4.9,4.9-4.9H1502
			c2.7,0,4.9,2.2,4.9,4.9V793.9z"/>
		<path class="st41" d="M82.3,863.1c0,2.7-2.2,4.9-4.9,4.9H-96.6c-2.7,0-4.9-2.2-4.9-4.9v-53.9c0-2.7,2.2-4.9,4.9-4.9H77.4
			c2.7,0,4.9,2.2,4.9,4.9V863.1z"/>
		<path class="st41" d="M272.3,863.1c0,2.7-2.2,4.9-4.9,4.9H93.3c-2.7,0-4.9-2.2-4.9-4.9v-53.9c0-2.7,2.2-4.9,4.9-4.9h174.1
			c2.7,0,4.9,2.2,4.9,4.9V863.1z"/>
		<path class="st41" d="M462.6,863.1c0,2.7-2.2,4.9-4.9,4.9H283.6c-2.7,0-4.9-2.2-4.9-4.9v-53.9c0-2.7,2.2-4.9,4.9-4.9h174.1
			c2.7,0,4.9,2.2,4.9,4.9V863.1z"/>
		<path class="st41" d="M652,863.1c0,2.7-2.2,4.9-4.9,4.9H473c-2.7,0-4.9-2.2-4.9-4.9v-53.9c0-2.7,2.2-4.9,4.9-4.9h174.1
			c2.7,0,4.9,2.2,4.9,4.9V863.1z"/>
		<path class="st41" d="M841.4,863.1c0,2.7-2.2,4.9-4.9,4.9H662.4c-2.7,0-4.9-2.2-4.9-4.9v-53.9c0-2.7,2.2-4.9,4.9-4.9h174.1
			c2.7,0,4.9,2.2,4.9,4.9V863.1z"/>
		<path class="st41" d="M1031.5,863.1c0,2.7-2.2,4.9-4.9,4.9H852.5c-2.7,0-4.9-2.2-4.9-4.9v-53.9c0-2.7,2.2-4.9,4.9-4.9h174.1
			c2.7,0,4.9,2.2,4.9,4.9V863.1z"/>
		<path class="st41" d="M1222.2,863.1c0,2.7-2.2,4.9-4.9,4.9h-174.1c-2.7,0-4.9-2.2-4.9-4.9v-53.9c0-2.7,2.2-4.9,4.9-4.9h174.1
			c2.7,0,4.9,2.2,4.9,4.9V863.1z"/>
		<path class="st41" d="M1412,863.1c0,2.7-2.2,4.9-4.9,4.9H1233c-2.7,0-4.9-2.2-4.9-4.9v-53.9c0-2.7,2.2-4.9,4.9-4.9h174.1
			c2.7,0,4.9,2.2,4.9,4.9V863.1z"/>
		<path class="st41" d="M177.2,933.3c0,2.7-2.2,4.9-4.9,4.9H-1.7c-2.7,0-4.9-2.2-4.9-4.9v-53.9c0-2.7,2.2-4.9,4.9-4.9h174.1
			c2.7,0,4.9,2.2,4.9,4.9V933.3z"/>
		<path class="st41" d="M367.2,933.3c0,2.7-2.2,4.9-4.9,4.9H188.2c-2.7,0-4.9-2.2-4.9-4.9v-53.9c0-2.7,2.2-4.9,4.9-4.9h174.1
			c2.7,0,4.9,2.2,4.9,4.9V933.3z"/>
		<path class="st41" d="M557.5,933.3c0,2.7-2.2,4.9-4.9,4.9H378.5c-2.7,0-4.9-2.2-4.9-4.9v-53.9c0-2.7,2.2-4.9,4.9-4.9h174.1
			c2.7,0,4.9,2.2,4.9,4.9V933.3z"/>
		<path class="st41" d="M746.9,933.3c0,2.7-2.2,4.9-4.9,4.9H567.9c-2.7,0-4.9-2.2-4.9-4.9v-53.9c0-2.7,2.2-4.9,4.9-4.9H742
			c2.7,0,4.9,2.2,4.9,4.9V933.3z"/>
		<path class="st41" d="M936.3,933.3c0,2.7-2.2,4.9-4.9,4.9H757.3c-2.7,0-4.9-2.2-4.9-4.9v-53.9c0-2.7,2.2-4.9,4.9-4.9h174.1
			c2.7,0,4.9,2.2,4.9,4.9V933.3z"/>
		<path class="st41" d="M1126.4,933.3c0,2.7-2.2,4.9-4.9,4.9H947.4c-2.7,0-4.9-2.2-4.9-4.9v-53.9c0-2.7,2.2-4.9,4.9-4.9h174.1
			c2.7,0,4.9,2.2,4.9,4.9V933.3z"/>
		<path class="st41" d="M1317.1,933.3c0,2.7-2.2,4.9-4.9,4.9h-174.1c-2.7,0-4.9-2.2-4.9-4.9v-53.9c0-2.7,2.2-4.9,4.9-4.9h174.1
			c2.7,0,4.9,2.2,4.9,4.9V933.3z"/>
		<path class="st41" d="M1506.9,933.3c0,2.7-2.2,4.9-4.9,4.9h-174.1c-2.7,0-4.9-2.2-4.9-4.9v-53.9c0-2.7,2.2-4.9,4.9-4.9H1502
			c2.7,0,4.9,2.2,4.9,4.9V933.3z"/>
		<path class="st41" d="M82.3,1002.3c0,2.7-2.2,4.9-4.9,4.9H-96.6c-2.7,0-4.9-2.2-4.9-4.9v-53.9c0-2.7,2.2-4.9,4.9-4.9H77.4
			c2.7,0,4.9,2.2,4.9,4.9V1002.3z"/>
		<path class="st41" d="M272.3,1002.3c0,2.7-2.2,4.9-4.9,4.9H93.3c-2.7,0-4.9-2.2-4.9-4.9v-53.9c0-2.7,2.2-4.9,4.9-4.9h174.1
			c2.7,0,4.9,2.2,4.9,4.9V1002.3z"/>
		<path class="st41" d="M462.6,1002.3c0,2.7-2.2,4.9-4.9,4.9H283.6c-2.7,0-4.9-2.2-4.9-4.9v-53.9c0-2.7,2.2-4.9,4.9-4.9h174.1
			c2.7,0,4.9,2.2,4.9,4.9V1002.3z"/>
		<path class="st41" d="M652,1002.3c0,2.7-2.2,4.9-4.9,4.9H473c-2.7,0-4.9-2.2-4.9-4.9v-53.9c0-2.7,2.2-4.9,4.9-4.9h174.1
			c2.7,0,4.9,2.2,4.9,4.9V1002.3z"/>
		<path class="st41" d="M841.4,1002.3c0,2.7-2.2,4.9-4.9,4.9H662.4c-2.7,0-4.9-2.2-4.9-4.9v-53.9c0-2.7,2.2-4.9,4.9-4.9h174.1
			c2.7,0,4.9,2.2,4.9,4.9V1002.3z"/>
		<path class="st41" d="M1031.5,1002.3c0,2.7-2.2,4.9-4.9,4.9H852.5c-2.7,0-4.9-2.2-4.9-4.9v-53.9c0-2.7,2.2-4.9,4.9-4.9h174.1
			c2.7,0,4.9,2.2,4.9,4.9V1002.3z"/>
		<path class="st41" d="M1222.2,1002.3c0,2.7-2.2,4.9-4.9,4.9h-174.1c-2.7,0-4.9-2.2-4.9-4.9v-53.9c0-2.7,2.2-4.9,4.9-4.9h174.1
			c2.7,0,4.9,2.2,4.9,4.9V1002.3z"/>
		<path class="st41" d="M1412,1002.3c0,2.7-2.2,4.9-4.9,4.9H1233c-2.7,0-4.9-2.2-4.9-4.9v-53.9c0-2.7,2.2-4.9,4.9-4.9h174.1
			c2.7,0,4.9,2.2,4.9,4.9V1002.3z"/>
	</g>
</g>
</svg>
