<svg id="Bar" xmlns="http://www.w3.org/2000/svg" viewBox="0 0 86.07 30.2"><title>bar</title><rect x="0.13" y="0.13" width="85.82" height="4.57" style="fill:#5d4037;stroke:#a1887f;stroke-miterlimit:10;stroke-width:0.25px"/><polygon points="85.94 4.69 0.13 4.69 0.13 30.07 4.02 30.07 4.02 4.69 8.99 4.69 8.99 30.07 4.02 30.07 4.02 4.69 14.23 4.69 14.23 30.07 8.99 30.07 8.99 4.69 19.46 4.69 19.46 30.07 14.23 30.07 14.23 4.69 24.57 4.69 24.57 30.07 19.46 30.07 19.46 4.69 29.81 4.69 29.81 30.07 24.57 30.07 24.57 4.69 35.18 4.69 35.18 30.07 29.81 30.07 29.81 4.69 40.15 4.69 40.15 30.07 35.18 30.07 35.18 4.69 45.52 4.69 45.52 30.07 40.15 30.07 40.15 4.69 50.76 4.69 50.76 30.07 45.52 30.07 45.52 4.69 55.99 4.69 55.99 30.07 50.76 30.07 50.76 4.69 61.1 4.69 61.1 30.07 55.99 30.07 55.99 4.69 66.2 4.69 66.2 30.07 61.1 30.07 61.1 4.69 71.58 4.69 71.58 30.07 66.2 30.07 66.2 4.69 76.81 4.69 76.81 30.07 71.58 30.07 71.58 4.69 81.78 4.69 81.78 30.07 76.81 30.07 76.81 30.07 76.81 4.69 85.94 4.69" style="fill:#6d4c41;stroke:#a1887f;stroke-miterlimit:10;stroke-width:0.25px"/><polygon points="81.78 30.07 81.78 28.46 81.78 4.69 85.94 4.69 85.94 30.07 81.78 30.07" style="fill:#6d4c41;stroke:#a1887f;stroke-miterlimit:10;stroke-width:0.25px"/></svg>