<svg id="Githop" xmlns="http://www.w3.org/2000/svg" viewBox="0 0 449.7 449.7"><title>githop</title><circle id="brand" cx="224.85" cy="224.85" r="224.85" style="fill:#7b7160"/><path d="M292.9,255.35a28.73,28.73,0,0,1,0,15.67,68.7,68.7,0,0,1-4,8.53,67.76,67.76,0,0,1-7.2,10.49,4.31,4.31,0,0,1-3.5-.63A4,4,0,0,1,277,287.8a32.95,32.95,0,0,1-3.08-15.11V264.3a27.24,27.24,0,0,1,9.51-18.46,41.72,41.72,0,0,1,27.42-21.26,56.78,56.78,0,0,1,29.65,6.71,45.65,45.65,0,0,1,19,26,55.59,55.59,0,0,1,0,37.76,114.31,114.31,0,0,1-21.82,31.33c-3.54,2.76-7.41,5.55-11.61,8.33a189.17,189.17,0,0,1-19.72,11.39,115.11,115.11,0,0,0-29.37,34,57.25,57.25,0,0,0-3.78,17.34,57.85,57.85,0,0,0,.7,12.87,57.32,57.32,0,0,0,21.82,22.38,64.15,64.15,0,0,0,32.45,2.79,36.64,36.64,0,0,0,20.14-15.1,35,35,0,0,0,4.48-24.06,32.68,32.68,0,0,0-10.63-21.82,37.35,37.35,0,0,0-23.84-7.77,31.83,31.83,0,0,0-9.87,2,32.38,32.38,0,0,0-11.61,7.48L290.66,384a22.48,22.48,0,0,1,.35-9.23,22.82,22.82,0,0,1,5.8-10.35,33.17,33.17,0,0,1,8.67-8.74,34,34,0,0,1,17.63-5.81,35.83,35.83,0,0,1,23.5,7.11,60.36,60.36,0,0,1,20.14,22,62,62,0,0,1,0,42.8,49.47,49.47,0,0,1-17.21,22.66A86.77,86.77,0,0,1,317,453.9a72.64,72.64,0,0,1-15.52,0,71.79,71.79,0,0,1-18.12-4.41,68,68,0,0,1-26.29-31.33,61.24,61.24,0,0,1-2.8-30.77A70.46,70.46,0,0,1,267.16,357a164.15,164.15,0,0,1,12.94-15.15c4-4.15,7.94-7.79,11.68-11a104.25,104.25,0,0,1,9.09-6.43,107.07,107.07,0,0,1,15.52-8.12L336,297.87a53.83,53.83,0,0,0,5.8-23.57,38.7,38.7,0,0,0-3.15-16.15,38.22,38.22,0,0,0-5.45-8.95,29.21,29.21,0,0,0-8.6-5.95,28.53,28.53,0,0,0-6.49-2,21.71,21.71,0,0,0-12.19,1.62,21.38,21.38,0,0,0-7.13,5.25Z" transform="translate(-95.15 -170.65)" style="fill:#7c201c"/><text transform="translate(171.85 364.35)" style="font-size:36px;font-family:Norwester-Regular, Norwester">GITHOP</text><text transform="translate(163.85 395.35)" style="font-size:18px;font-family:Montserrat-Regular, Montserrat">VENOM ALE</text></svg>