<svg xmlns="http://www.w3.org/2000/svg" viewBox="0 0 449.7 449.7"><title>unicorn</title><g id="Hefe"><circle id="brand" cx="224.85" cy="224.85" r="224.85" style="fill:#fbc333"/><path d="M422.67,482A154.92,154.92,0,0,0,411,453.25c-2.28-4.31-4.64-8.28-7-11.92A64.3,64.3,0,0,0,384.67,428q.46-9.92,1.08-20c.16-2.59.33-5.18.5-7.75a52,52,0,0,0-10.92.91c-3.68.69-7.4,2.75-11,3.11a117.21,117.21,0,0,0,.29-17.19c-.26-5.05,3.31-8.27,5.41-12.58,3.71-7.62,6.78-14.94,9.33-21.83q7-14,14-28,10.95-6.17,21.92-12.42l7-4c4.54-2.77,17.68-11.6,21-27.25a35.23,35.23,0,0,0,.75-8.33c0,.83-5.64,3.54-6.41,4a71.93,71.93,0,0,1-28.67,8.63,1.3,1.3,0,0,1-.83-.11,1.4,1.4,0,0,1-.47-.69c-1.76-4.35-3.53-8.7-5.25-13.07q-6.3-16-11.7-31.4A57.78,57.78,0,0,0,382,217.33,41.51,41.51,0,0,0,326.82,221,64.25,64.25,0,0,0,317,231.75a65.35,65.35,0,0,0-9.67,19.58,43,43,0,0,0-26-8.66,36.41,36.41,0,0,0-28,30,67.79,67.79,0,0,0,18,38l28.42,26.58A99.48,99.48,0,0,1,294.67,384q-8.1,9.35-16.18,18.71a4.2,4.2,0,0,1-1.06,1,3.84,3.84,0,0,1-1.34.34c-10.27,1.36-20.22,3-30.09,6.24-9.35,3.1-19.3,7-27.52,12.53-4.7,3.14-6.84,8.24-8.84,13.3a189.65,189.65,0,0,0-6.78,20.66C202.35,458.66,197.8,482,198,482Z" transform="translate(-95.15 -170.65)" style="fill:#351d02"/><text transform="translate(146.85 364.35)" style="font-size:48px;font-family:Norwester-Regular, Norwester">EL HEFE</text><text transform="translate(163.85 395.35)" style="font-size:21px;font-family:Montserrat-Regular, Montserrat">h<tspan x="13.57" y="0" style="letter-spacing:-0.003999255952380952em">e</tspan><tspan x="26.46" y="0">feweiser</tspan></text></g><g id="fairtytale"><g id="Rainbow"><circle id="brand-2" data-name="brand" cx="224.85" cy="224.85" r="224.85" style="fill:#bd2233"/><circle id="brand-3" data-name="brand" cx="224.85" cy="230.15" r="213.55" style="fill:#f59332"/><ellipse id="brand-4" data-name="brand" cx="225.85" cy="238.17" rx="205.39" ry="200.28" style="fill:#fef035"/><ellipse id="brand-5" data-name="brand" cx="224.85" cy="246.46" rx="196.89" ry="191.99" style="fill:#17a453"/><ellipse id="brand-6" data-name="brand" cx="226.87" cy="251.16" rx="188.41" ry="177.29" style="fill:#1dafec"/><ellipse id="brand-7" data-name="brand" cx="226.27" cy="268.45" rx="183.98" ry="179.39" style="fill:#fff"/></g><path d="M452.25,248.81l-51.89,51.9c.26-.26,15.65,12.65,17,13.76a3.82,3.82,0,0,0,3.73,1.11c6.12-.68,12.25-1.36,18.37-2.08a1.47,1.47,0,0,1,1.78.86c1.67,2.66,4.3,6.64,4.06,9.87-2.09-1.3-3.62-3.3-5.36-5a2.88,2.88,0,0,0-.92-.71,3,3,0,0,0-1.62-.06l-23.17,3.4c1.32-.2,11.11,21,12.1,22.92.69,1.26,7.36-.16,8.75.43a16,16,0,0,1-2.82,6.22c-1,1.47-19.44-6.69-22.26-6.69q17.1,24.54,34.18,49.11a2.08,2.08,0,0,0,2.25,1.17l5.81,0,1.93,5.73a4.25,4.25,0,0,1,.31,1.56,4.4,4.4,0,0,1-.73,1.9c-2.82,5.06-4,11-5.61,16.53a3.37,3.37,0,0,1-.55,1.22c-1.23,1.48-6.82,2.1-8.65,2.6a5.51,5.51,0,0,0-1.81.73c-4.09,2.92-5.16,6.34-11,7.09-6.69.84-13.46.52-20.17.24a3.58,3.58,0,0,1-2.05-.5,3.75,3.75,0,0,1-1.13-2.43,46.85,46.85,0,0,0-17.1-27.48,22.23,22.23,0,0,0-7-3.87c-8.27-2.51-19-1.56-27.69-2.11L358.67,440a398.17,398.17,0,0,0,126.56,96.09c-6.52,6.76-16.21,16.68-28.32,28.6-7.18,7.07-10.83,10.65-13.41,12.81-3.8,3.18-15.27,12.35-42.93,23.58-15.17,6.15-25.84,10.48-41.52,13.65-25.42,5.13-45.3,3-65.78,1.67A108.61,108.61,0,0,1,272.5,613c-7.5-2-12.51-4.18-22.91-8.7-5.59-2.43-15.49-6.72-29.59-12.8q-9.9-6.64-20.22-14.18-9.22-6.78-17.66-13.46a191.93,191.93,0,0,1-18.22-17.34c-4.14-4.43-7.76-8.91-14.83-17.69-17.22-21.39-18.71-24.86-17.45-27.36,1.11-2.19,5.72-3,14.88-4.47a178.88,178.88,0,0,1,18.14-2c.93-1,15.65-16.83,15.89-18.74a2.83,2.83,0,0,0-.07-1.33,3,3,0,0,0-1.18-1.23q-13.32-9.17-26.61-18.36c5.44,3.76,16.45,1,21.44-2.1a26.66,26.66,0,0,0,12.52-21.71,4,4,0,0,0-.22-1.57,3.62,3.62,0,0,0-1.25-1.36,19,19,0,0,0-14.47-3.45c1-.17,6.41-9.22,7.4-10.48,3-3.87,5.95-7.85,7.64-12.52,1.28-3.56,2-7.75-.07-10.95-1.52-2.39-4.25-3.71-6.92-4.68-2.12-.77-14.47-2.09-14.93-3.92-.58-2.27,3.95-1.77,5.48-2,3.57-.49,7.14-1.07,10.65-1.9,7.05-1.68,14-4.4,19.49-9.27,2.12-1.89,4-4.05,6-6.08A68.34,68.34,0,0,1,219,352.6c-.61.37-7.72-11.1-8.23-12a84,84,0,0,1-5.21-10.86,59.08,59.08,0,0,1,7.87-33.27c.36,3.55.71,7.09,1.07,10.64a16.89,16.89,0,0,0,9.51,8.6,132.76,132.76,0,0,0,14.25,2.6c2.91.37,5.71.63,8.38.79a20.72,20.72,0,0,0,16.86-8.26,13,13,0,0,1-3.74-1.92,13.33,13.33,0,0,1-3.85-4.53,22.94,22.94,0,0,0-4.52-4.41,24.81,24.81,0,0,0-10.73-4.31,39.82,39.82,0,0,1,22.12.64,17.74,17.74,0,0,0,5.17,1.24c2.34,0,4.53-1.05,6.72-1.88a34.47,34.47,0,0,1,17.19-1.87c2,.29,7.23,2.93,8.84,2.45,1.76-.51,3-5.41,3.87-7a47.05,47.05,0,0,1,3.51-5.43,6.7,6.7,0,0,1,3.08-2.09,6.62,6.62,0,0,1,3.93-.06,6.37,6.37,0,0,0-1.81,7.13,10.21,10.21,0,0,0,5,1.58,10,10,0,0,0,4.41-.79c.11-5.22.45-10.9,1.13-17s1.58-11.48,2.61-16.52c4.09,3.34,8.34,7,12.67,11.09,4.69,4.39,8.94,8.72,12.78,12.9a81.25,81.25,0,0,1,26.82,2.83,24.59,24.59,0,0,0,5.21-1.36,24,24,0,0,0,4.63-2.38l1.93-4.07a4.64,4.64,0,0,0-2.26-3.62,4.43,4.43,0,0,0-3.4-.23,5.74,5.74,0,0,1,7.92-1.47,4.78,4.78,0,0,1,2.15,2.72,4.73,4.73,0,0,1-.23,3.28Z" transform="translate(-95.15 -170.65)" style="fill:#ff0093"/><text transform="translate(110.17 377.35)" style="font-size:36px;font-family:Norwester-Regular, Norwester"><tspan style="letter-spacing:-0.09998914930555555em">F</tspan><tspan x="14.4" y="0">AI</tspan><tspan x="43.99" y="0" style="letter-spacing:-0.030002170138888888em">R</tspan><tspan x="61.31" y="0">Y </tspan><tspan x="89.96" y="0" style="letter-spacing:-0.08997938368055555em">T</tspan><tspan x="103.28" y="0">A</tspan><tspan x="124.38" y="0" style="letter-spacing:-0.019992404513888888em">L</tspan><tspan x="141.3" y="0">E A</tspan><tspan x="189.36" y="0" style="letter-spacing:-0.019992404513888888em">L</tspan><tspan x="206.28" y="0">E</tspan></text></g></svg>