<?xml version="1.0" encoding="utf-8"?>
<!-- Generator: Adobe Illustrator 22.1.0, SVG Export Plug-In . SVG Version: 6.00 Build 0)  -->
<svg version="1.1" id="OBJECTS" xmlns="http://www.w3.org/2000/svg" xmlns:xlink="http://www.w3.org/1999/xlink" x="0px" y="0px"
	 viewBox="0 0 2862.1 1471.3" style="enable-background:new 0 0 2862.1 1471.3;" xml:space="preserve">
<style type="text/css">
	.st0{opacity:0.1;enable-background:new    ;}
	.st1{fill:url(#SVGID_1_);}
	.st2{fill:url(#SVGID_2_);}
	.st3{fill:url(#SVGID_3_);}
	.st4{fill:url(#SVGID_4_);}
	.st5{fill:#B3B3B3;}
	.st6{fill:url(#SVGID_5_);}
	.st7{fill:url(#SVGID_6_);}
	.st8{fill:#9F2E28;}
	.st9{fill:url(#SVGID_7_);}
	.st10{fill:url(#SVGID_8_);}
	.st11{fill:url(#SVGID_9_);}
	.st12{fill:url(#SVGID_10_);}
	.st13{fill:url(#SVGID_11_);}
	.st14{fill:url(#SVGID_12_);}
	.st15{fill:url(#SVGID_13_);}
	.st16{fill:url(#SVGID_14_);}
	.st17{fill:url(#SVGID_15_);}
	.st18{display:none;}
	.st19{display:inline;}
	.st20{fill:#8C6239;}
	.st21{fill:#1A1A1A;}
	.st22{opacity:0.4;fill:#A67C52;enable-background:new    ;}
	.st23{fill:url(#XMLID_8_);}
	.st24{fill:#3E3D42;}
	.st25{fill:url(#XMLID_9_);}
	.st26{fill:url(#XMLID_10_);}
</style>
<ellipse class="st0" cx="368.9" cy="1388.1" rx="340.6" ry="33.8"/>
<ellipse class="st0" cx="1283.5" cy="1388.1" rx="340.6" ry="33.8"/>
<ellipse class="st0" cx="2346.4" cy="1388.1" rx="340.6" ry="33.8"/>
<g>
	
		<linearGradient id="SVGID_1_" gradientUnits="userSpaceOnUse" x1="96.6" y1="824.4" x2="2771.7002" y2="824.4" gradientTransform="matrix(1 0 0 -1 0 1472)">
		<stop  offset="0" style="stop-color:#B36448"/>
		<stop  offset="1" style="stop-color:#631821"/>
	</linearGradient>
	<rect x="96.6" y="129.8" class="st1" width="2675.1" height="1035.6"/>
	<rect x="96.6" y="245.4" class="st0" width="2675.1" height="584.1"/>
	
		<linearGradient id="SVGID_2_" gradientUnits="userSpaceOnUse" x1="58.3" y1="987" x2="2812.627" y2="987" gradientTransform="matrix(1 0 0 -1 0 1472)">
		<stop  offset="0" style="stop-color:#FECB80"/>
		<stop  offset="0.67" style="stop-color:#A56535"/>
		<stop  offset="1" style="stop-color:#75471F"/>
	</linearGradient>
	<rect x="58.3" y="187.6" class="st2" width="2754.3" height="594.8"/>
	<rect x="58.3" y="187.6" class="st0" width="2754.3" height="104.9"/>
	
		<linearGradient id="SVGID_3_" gradientUnits="userSpaceOnUse" x1="28.3" y1="1284.4" x2="2854.4451" y2="1284.4" gradientTransform="matrix(1 0 0 -1 0 1472)">
		<stop  offset="0" style="stop-color:#B36448"/>
		<stop  offset="1" style="stop-color:#631821"/>
	</linearGradient>
	<rect x="28.3" y="129.8" class="st3" width="2826.1" height="115.6"/>
</g>
<g>
	<g>
		
			<linearGradient id="SVGID_4_" gradientUnits="userSpaceOnUse" x1="2346.5" y1="117.7" x2="2346.5" y2="726" gradientTransform="matrix(1 0 0 -1 0 1472)">
			<stop  offset="0" style="stop-color:#283453"/>
			<stop  offset="1" style="stop-color:#6A7490"/>
		</linearGradient>
		<polygon class="st4" points="2326.7,746 2326.7,1354.3 2366.3,1354.3 2366.3,746 		"/>
		<rect x="2314.3" y="745.9" class="st5" width="64.4" height="117.5"/>
		
			<linearGradient id="SVGID_5_" gradientUnits="userSpaceOnUse" x1="2187.3" y1="110.65" x2="2505.8" y2="110.65" gradientTransform="matrix(1 0 0 -1 0 1472)">
			<stop  offset="0" style="stop-color:#FFFFFF"/>
			<stop  offset="0.3593" style="stop-color:#BAC0CE"/>
			<stop  offset="1" style="stop-color:#42537A"/>
		</linearGradient>
		<path class="st6" d="M2482,1334.5h-270.9c-13.1,0-23.8,10.6-23.8,23.8v29.9h318.5v-29.9C2505.8,1345.1,2495.1,1334.5,2482,1334.5z
			"/>
		
			<linearGradient id="SVGID_6_" gradientUnits="userSpaceOnUse" x1="2187.2998" y1="363.1" x2="2505.7007" y2="363.1" gradientTransform="matrix(1 0 0 -1 0 1472)">
			<stop  offset="0" style="stop-color:#FFFFFF"/>
			<stop  offset="0.3593" style="stop-color:#BAC0CE"/>
			<stop  offset="1" style="stop-color:#42537A"/>
		</linearGradient>
		<path class="st7" d="M2485.9,1089.1h-278.8c-10.9,0-19.8,8.9-19.8,19.8l0,0c0,10.9,8.9,19.8,19.8,19.8h278.8
			c10.9,0,19.8-8.9,19.8-19.8l0,0C2505.8,1097.9,2496.9,1089.1,2485.9,1089.1z"/>
		<path class="st8" d="M2571.8,647.6h-450.6c-19.5,0-35.3,15.8-35.3,35.3v69.2c0,7.6,6.1,13.7,13.7,13.7h493.8
			c7.6,0,13.7-6.1,13.7-13.7v-69.2C2607.1,663.4,2591.3,647.6,2571.8,647.6z"/>
		<path class="st0" d="M2607.1,715.4h-521.2v31.3c0,10.5,8.5,19,19,19h483.2c10.5,0,19-8.5,19-19V715.4z"/>
		
			<linearGradient id="SVGID_7_" gradientUnits="userSpaceOnUse" x1="2085.9001" y1="726" x2="2607.1001" y2="726" gradientTransform="matrix(1 0 0 -1 0 1472)">
			<stop  offset="0" style="stop-color:#FFFFFF"/>
			<stop  offset="0.3593" style="stop-color:#BAC0CE"/>
			<stop  offset="1" style="stop-color:#42537A"/>
		</linearGradient>
		<path class="st9" d="M2607.1,726.2h-521.2v20.6c0,10.5,8.5,19,19,19h483.2c10.5,0,19-8.5,19-19V726.2z"/>
	</g>
</g>
<g>
	<g>
		
			<linearGradient id="SVGID_8_" gradientUnits="userSpaceOnUse" x1="368.9" y1="117.7" x2="368.9" y2="726" gradientTransform="matrix(1 0 0 -1 0 1472)">
			<stop  offset="0" style="stop-color:#283453"/>
			<stop  offset="1" style="stop-color:#6A7490"/>
		</linearGradient>
		<polygon class="st10" points="349.1,746 349.1,1354.3 388.7,1354.3 388.7,746 		"/>
		<rect x="336.7" y="746" class="st5" width="64.4" height="117.5"/>
		
			<linearGradient id="SVGID_9_" gradientUnits="userSpaceOnUse" x1="209.6" y1="110.65" x2="528.1" y2="110.65" gradientTransform="matrix(1 0 0 -1 0 1472)">
			<stop  offset="0" style="stop-color:#FFFFFF"/>
			<stop  offset="0.3593" style="stop-color:#BAC0CE"/>
			<stop  offset="1" style="stop-color:#42537A"/>
		</linearGradient>
		<path class="st11" d="M504.3,1334.5H233.4c-13.1,0-23.8,10.6-23.8,23.8v29.9h318.5v-29.9C528.1,1345.1,517.5,1334.5,504.3,1334.5z
			"/>
		
			<linearGradient id="SVGID_10_" gradientUnits="userSpaceOnUse" x1="209.6" y1="363.1" x2="528.0009" y2="363.1" gradientTransform="matrix(1 0 0 -1 0 1472)">
			<stop  offset="0" style="stop-color:#FFFFFF"/>
			<stop  offset="0.3593" style="stop-color:#BAC0CE"/>
			<stop  offset="1" style="stop-color:#42537A"/>
		</linearGradient>
		<path class="st12" d="M508.3,1089.1H229.4c-10.9,0-19.8,8.9-19.8,19.8l0,0c0,10.9,8.9,19.8,19.8,19.8h278.8
			c10.9,0,19.8-8.9,19.8-19.8l0,0C528.1,1097.9,519.2,1089.1,508.3,1089.1z"/>
		<path class="st8" d="M594.2,647.6H143.6c-19.5,0-35.3,15.8-35.3,35.3v69.2c0,7.6,6.1,13.7,13.7,13.7h493.8
			c7.6,0,13.7-6.1,13.7-13.7v-69.2C629.5,663.4,613.7,647.6,594.2,647.6z"/>
		<path class="st0" d="M629.5,715.4H108.3v31.3c0,10.5,8.5,19,19,19h483.2c10.5,0,19-8.5,19-19V715.4z"/>
		
			<linearGradient id="SVGID_11_" gradientUnits="userSpaceOnUse" x1="108.3" y1="726" x2="629.5" y2="726" gradientTransform="matrix(1 0 0 -1 0 1472)">
			<stop  offset="0" style="stop-color:#FFFFFF"/>
			<stop  offset="0.3593" style="stop-color:#BAC0CE"/>
			<stop  offset="1" style="stop-color:#42537A"/>
		</linearGradient>
		<path class="st13" d="M629.5,726.2H108.3v20.6c0,10.5,8.5,19,19,19h483.2c10.5,0,19-8.5,19-19V726.2z"/>
	</g>
</g>
<g>
	<g>
		
			<linearGradient id="SVGID_12_" gradientUnits="userSpaceOnUse" x1="1283.5" y1="117.7" x2="1283.5" y2="726" gradientTransform="matrix(1 0 0 -1 0 1472)">
			<stop  offset="0" style="stop-color:#283453"/>
			<stop  offset="1" style="stop-color:#6A7490"/>
		</linearGradient>
		<polygon class="st14" points="1263.7,746 1263.7,1354.3 1303.3,1354.3 1303.3,746 		"/>
		<rect x="1251.3" y="745.9" class="st5" width="64.4" height="117.5"/>
		
			<linearGradient id="SVGID_13_" gradientUnits="userSpaceOnUse" x1="1124.2999" y1="110.65" x2="1442.7999" y2="110.65" gradientTransform="matrix(1 0 0 -1 0 1472)">
			<stop  offset="0" style="stop-color:#FFFFFF"/>
			<stop  offset="0.3593" style="stop-color:#BAC0CE"/>
			<stop  offset="1" style="stop-color:#42537A"/>
		</linearGradient>
		<path class="st15" d="M1419,1334.5h-270.9c-13.1,0-23.8,10.6-23.8,23.8v29.9h318.5v-29.9C1442.7,1345.1,1432.1,1334.5,1419,1334.5
			z"/>
		
			<linearGradient id="SVGID_14_" gradientUnits="userSpaceOnUse" x1="1124.3" y1="363.1" x2="1442.7002" y2="363.1" gradientTransform="matrix(1 0 0 -1 0 1472)">
			<stop  offset="0" style="stop-color:#FFFFFF"/>
			<stop  offset="0.3593" style="stop-color:#BAC0CE"/>
			<stop  offset="1" style="stop-color:#42537A"/>
		</linearGradient>
		<path class="st16" d="M1422.9,1089.1h-278.8c-10.9,0-19.8,8.9-19.8,19.8l0,0c0,10.9,8.9,19.8,19.8,19.8h278.8
			c10.9,0,19.8-8.9,19.8-19.8l0,0C1442.7,1097.9,1433.9,1089.1,1422.9,1089.1z"/>
		<path class="st8" d="M1508.8,647.6h-450.6c-19.5,0-35.3,15.8-35.3,35.3v69.2c0,7.6,6.1,13.7,13.7,13.7h493.8
			c7.6,0,13.7-6.1,13.7-13.7v-69.2C1544.1,663.4,1528.3,647.6,1508.8,647.6z"/>
		<path class="st0" d="M1544.1,715.4h-521.2v31.3c0,10.5,8.5,19,19,19h483.2c10.5,0,19-8.5,19-19L1544.1,715.4L1544.1,715.4z"/>
		
			<linearGradient id="SVGID_15_" gradientUnits="userSpaceOnUse" x1="1022.9" y1="726" x2="1544.1" y2="726" gradientTransform="matrix(1 0 0 -1 0 1472)">
			<stop  offset="0" style="stop-color:#FFFFFF"/>
			<stop  offset="0.3593" style="stop-color:#BAC0CE"/>
			<stop  offset="1" style="stop-color:#42537A"/>
		</linearGradient>
		<path class="st17" d="M1544.1,726.2h-521.2v20.6c0,10.5,8.5,19,19,19h483.2c10.5,0,19-8.5,19-19L1544.1,726.2L1544.1,726.2z"/>
	</g>
	<g class="st18">
		<g class="st19">
			<path class="st20" d="M1246.2,1065.2h-103c-1.6,0-2.9-1.3-2.9-2.9v-47.9c0-12.5,5.3-24.4,14.5-32.8l18-16.3
				c12.4-11.3,31.4-11.3,43.8,0l18,16.3c9.2,8.4,14.5,20.3,14.5,32.8v47.9C1249.1,1063.9,1247.8,1065.2,1246.2,1065.2z"/>
			<path class="st21" d="M1236.1,1089.1h-82.8c-7.2,0-13-5.8-13-13v-6.8c0-2.2,1.8-4,4-4h100.8c2.2,0,4,1.8,4,4v6.8
				C1249.1,1083.2,1243.2,1089.1,1236.1,1089.1z"/>
			<path class="st22" d="M1174.2,964.2v101h41v-101C1203.2,954.5,1186.1,954.5,1174.2,964.2z"/>
		</g>
		<g class="st19">
			<path class="st20" d="M1320.8,1065.2h103c1.6,0,2.9-1.3,2.9-2.9v-47.9c0-12.5-5.3-24.4-14.5-32.8l-18-16.3
				c-12.4-11.3-31.4-11.3-43.8,0l-18,16.3c-9.2,8.4-14.5,20.3-14.5,32.8v47.9C1317.9,1063.9,1319.2,1065.2,1320.8,1065.2z"/>
			<path class="st21" d="M1330.9,1089.1h82.8c7.2,0,13-5.8,13-13v-6.8c0-2.2-1.8-4-4-4h-100.8c-2.2,0-4,1.8-4,4v6.8
				C1317.9,1083.2,1323.8,1089.1,1330.9,1089.1z"/>
			<path class="st22" d="M1392.8,964.2v101h-41v-101C1363.8,954.5,1380.9,954.5,1392.8,964.2z"/>
		</g>
	</g>
</g>
<g id="XMLID_1054_">
	<linearGradient id="XMLID_8_" gradientUnits="userSpaceOnUse" x1="404.747" y1="277.408" x2="820.252" y2="277.408">
		<stop  offset="0" style="stop-color:#B36448"/>
		<stop  offset="0.4704" style="stop-color:#B16247"/>
		<stop  offset="0.6398" style="stop-color:#AA5C44"/>
		<stop  offset="0.7605" style="stop-color:#9F513E"/>
		<stop  offset="0.8582" style="stop-color:#8E4036"/>
		<stop  offset="0.9409" style="stop-color:#782C2B"/>
		<stop  offset="1" style="stop-color:#631821"/>
	</linearGradient>
	<path id="XMLID_989_" class="st23" d="M786.5,367.2c18.7,0,33.8-9.6,33.8-21.4V206.3c0-10.4-12.1-18.7-27.1-18.7H431.8
		c-15,0-27.1,8.4-27.1,18.7v139.5c0,11.8,15.1,21.4,33.8,21.4H786.5z"/>
	<path id="XMLID_946_" class="st24" d="M786.3,199.8H438.7c-8.3,0-15,4-15,8.9v138.9c0,4.9,6.7,8.9,15,8.9h347.5c8.3,0,15-4,15-8.9
		V208.7C801.3,203.8,794.5,199.8,786.3,199.8z"/>
</g>
<g id="XMLID_1_">
	<linearGradient id="XMLID_9_" gradientUnits="userSpaceOnUse" x1="1160.5" y1="277.408" x2="1576.005" y2="277.408">
		<stop  offset="0" style="stop-color:#B36448"/>
		<stop  offset="0.4704" style="stop-color:#B16247"/>
		<stop  offset="0.6398" style="stop-color:#AA5C44"/>
		<stop  offset="0.7605" style="stop-color:#9F513E"/>
		<stop  offset="0.8582" style="stop-color:#8E4036"/>
		<stop  offset="0.9409" style="stop-color:#782C2B"/>
		<stop  offset="1" style="stop-color:#631821"/>
	</linearGradient>
	<path id="XMLID_3_" class="st25" d="M1542.2,367.2c18.7,0,33.8-9.6,33.8-21.4V206.3c0-10.4-12.1-18.7-27.1-18.7h-361.3
		c-15,0-27.1,8.4-27.1,18.7v139.5c0,11.8,15.1,21.4,33.8,21.4H1542.2z"/>
	<path id="XMLID_2_" class="st24" d="M1542,199.8h-347.5c-8.3,0-15,4-15,8.9v138.9c0,4.9,6.7,8.9,15,8.9H1542c8.3,0,15-4,15-8.9
		V208.7C1557,203.8,1550.3,199.8,1542,199.8z"/>
</g>
<g id="XMLID_4_">
	<linearGradient id="XMLID_10_" gradientUnits="userSpaceOnUse" x1="1924.8999" y1="278.1461" x2="2340.405" y2="278.1461">
		<stop  offset="0" style="stop-color:#B36448"/>
		<stop  offset="0.4704" style="stop-color:#B16247"/>
		<stop  offset="0.6398" style="stop-color:#AA5C44"/>
		<stop  offset="0.7605" style="stop-color:#9F513E"/>
		<stop  offset="0.8582" style="stop-color:#8E4036"/>
		<stop  offset="0.9409" style="stop-color:#782C2B"/>
		<stop  offset="1" style="stop-color:#631821"/>
	</linearGradient>
	<path id="XMLID_6_" class="st26" d="M2306.6,367.2c18.7,0,33.8-9.5,33.8-21.2V207.7c0-10.3-12.1-18.6-27.1-18.6H1952
		c-15,0-27.1,8.3-27.1,18.6V346c0,11.7,15.1,21.2,33.8,21.2H2306.6z"/>
	<path id="XMLID_5_" class="st24" d="M2306.4,201.2h-347.5c-8.3,0-15,3.9-15,8.8v137.8c0,4.9,6.7,8.8,15,8.8h347.5
		c8.3,0,15-3.9,15-8.8V210C2321.4,205.1,2314.7,201.2,2306.4,201.2z"/>
</g>
</svg>
