<?xml version="1.0" encoding="utf-8"?>
<!-- Generator: Adobe Illustrator 22.1.0, SVG Export Plug-In . SVG Version: 6.00 Build 0)  -->
<svg version="1.1" id="OBJECTS" xmlns="http://www.w3.org/2000/svg" xmlns:xlink="http://www.w3.org/1999/xlink" x="0px" y="0px"
	 viewBox="0 0 2800 1471.3" style="enable-background:new 0 0 2800 1471.3;" xml:space="preserve">
<style type="text/css">
	.st0{opacity:0.1;}
	.st1{fill:url(#SVGID_1_);}
	.st2{fill:url(#SVGID_2_);}
	.st3{fill:url(#SVGID_3_);}
	.st4{fill:url(#SVGID_4_);}
	.st5{fill:#B3B3B3;}
	.st6{fill:url(#SVGID_5_);}
	.st7{fill:url(#SVGID_6_);}
	.st8{fill:#9F2E28;}
	.st9{fill:url(#SVGID_7_);}
	.st10{fill:url(#SVGID_8_);}
	.st11{fill:url(#SVGID_9_);}
	.st12{fill:url(#SVGID_10_);}
	.st13{fill:url(#SVGID_11_);}
	.st14{fill:url(#SVGID_12_);}
	.st15{fill:url(#SVGID_13_);}
	.st16{fill:url(#SVGID_14_);}
	.st17{fill:url(#SVGID_15_);}
	.st18{display:none;}
	.st19{display:inline;}
	.st20{fill:#8C6239;}
	.st21{fill:#1A1A1A;}
	.st22{opacity:0.4;fill:#A67C52;}
</style>
<ellipse class="st0" cx="368.9" cy="1388.1" rx="340.6" ry="33.8"/>
<ellipse class="st0" cx="1283.5" cy="1388.1" rx="340.6" ry="33.8"/>
<ellipse class="st0" cx="2346.4" cy="1388.1" rx="340.6" ry="33.8"/>
<g>
	<linearGradient id="SVGID_1_" gradientUnits="userSpaceOnUse" x1="96.5718" y1="647.5833" x2="2771.7114" y2="647.5833">
		<stop  offset="0" style="stop-color:#B36448"/>
		<stop  offset="1" style="stop-color:#631821"/>
	</linearGradient>
	<rect x="96.6" y="129.8" class="st1" width="2675.1" height="1035.6"/>
	<rect x="96.6" y="245.4" class="st0" width="2675.1" height="584.1"/>
	<linearGradient id="SVGID_2_" gradientUnits="userSpaceOnUse" x1="58.2784" y1="485.0337" x2="2771.7114" y2="485.0337">
		<stop  offset="0" style="stop-color:#FECB80"/>
		<stop  offset="0.67" style="stop-color:#A56535"/>
		<stop  offset="1" style="stop-color:#75471F"/>
	</linearGradient>
	<rect x="58.3" y="187.6" class="st2" width="2713.4" height="594.8"/>
	<rect x="58.3" y="187.6" class="st0" width="2713.4" height="104.9"/>
	<linearGradient id="SVGID_3_" gradientUnits="userSpaceOnUse" x1="28.2885" y1="187.6214" x2="2771.7114" y2="187.6214">
		<stop  offset="0" style="stop-color:#B36448"/>
		<stop  offset="1" style="stop-color:#631821"/>
	</linearGradient>
	<rect x="28.3" y="129.8" class="st3" width="2743.4" height="115.6"/>
</g>
<g>
	<g>
		<linearGradient id="SVGID_4_" gradientUnits="userSpaceOnUse" x1="2346.5295" y1="1354.2969" x2="2346.5295" y2="745.9729">
			<stop  offset="0" style="stop-color:#283453"/>
			<stop  offset="1" style="stop-color:#6A7490"/>
		</linearGradient>
		<polygon class="st4" points="2326.7,746 2326.7,1354.3 2366.3,1354.3 2366.3,746 		"/>
		
			<rect x="2287.8" y="772.5" transform="matrix(6.123234e-17 -1 1 6.123234e-17 1541.826 3151.2329)" class="st5" width="117.5" height="64.4"/>
		<linearGradient id="SVGID_5_" gradientUnits="userSpaceOnUse" x1="2187.2991" y1="1361.2979" x2="2505.76" y2="1361.2979">
			<stop  offset="0" style="stop-color:#FFFFFF"/>
			<stop  offset="0.3593" style="stop-color:#BAC0CE"/>
			<stop  offset="1" style="stop-color:#42537A"/>
		</linearGradient>
		<path class="st6" d="M2482,1334.5h-270.9c-13.1,0-23.8,10.6-23.8,23.8v29.9h318.5v-29.9C2505.8,1345.1,2495.1,1334.5,2482,1334.5z
			"/>
		<linearGradient id="SVGID_6_" gradientUnits="userSpaceOnUse" x1="2187.2991" y1="1108.8654" x2="2505.76" y2="1108.8654">
			<stop  offset="0" style="stop-color:#FFFFFF"/>
			<stop  offset="0.3593" style="stop-color:#BAC0CE"/>
			<stop  offset="1" style="stop-color:#42537A"/>
		</linearGradient>
		<path class="st7" d="M2485.9,1089.1h-278.8c-10.9,0-19.8,8.9-19.8,19.8l0,0c0,10.9,8.9,19.8,19.8,19.8h278.8
			c10.9,0,19.8-8.9,19.8-19.8l0,0C2505.8,1097.9,2496.9,1089.1,2485.9,1089.1z"/>
		<path class="st8" d="M2571.8,647.6h-450.6c-19.5,0-35.3,15.8-35.3,35.3v69.2c0,7.6,6.1,13.7,13.7,13.7h493.8
			c7.6,0,13.7-6.1,13.7-13.7v-69.2C2607.1,663.4,2591.3,647.6,2571.8,647.6z"/>
		<path class="st0" d="M2607.1,715.4h-521.2v31.3c0,10.5,8.5,19,19,19h483.2c10.5,0,19-8.5,19-19V715.4z"/>
		<linearGradient id="SVGID_7_" gradientUnits="userSpaceOnUse" x1="2085.9299" y1="745.9728" x2="2607.1289" y2="745.9728">
			<stop  offset="0" style="stop-color:#FFFFFF"/>
			<stop  offset="0.3593" style="stop-color:#BAC0CE"/>
			<stop  offset="1" style="stop-color:#42537A"/>
		</linearGradient>
		<path class="st9" d="M2607.1,726.2h-521.2v20.6c0,10.5,8.5,19,19,19h483.2c10.5,0,19-8.5,19-19V726.2z"/>
	</g>
</g>
<g>
	<g>
		<linearGradient id="SVGID_8_" gradientUnits="userSpaceOnUse" x1="368.866" y1="1354.2969" x2="368.866" y2="745.9729">
			<stop  offset="0" style="stop-color:#283453"/>
			<stop  offset="1" style="stop-color:#6A7490"/>
		</linearGradient>
		<polygon class="st10" points="349.1,746 349.1,1354.3 388.7,1354.3 388.7,746 		"/>
		
			<rect x="310.1" y="772.5" transform="matrix(6.123234e-17 -1 1 6.123234e-17 -435.8374 1173.5693)" class="st5" width="117.5" height="64.4"/>
		<linearGradient id="SVGID_9_" gradientUnits="userSpaceOnUse" x1="209.6355" y1="1361.2979" x2="528.0964" y2="1361.2979">
			<stop  offset="0" style="stop-color:#FFFFFF"/>
			<stop  offset="0.3593" style="stop-color:#BAC0CE"/>
			<stop  offset="1" style="stop-color:#42537A"/>
		</linearGradient>
		<path class="st11" d="M504.3,1334.5H233.4c-13.1,0-23.8,10.6-23.8,23.8v29.9h318.5v-29.9C528.1,1345.1,517.5,1334.5,504.3,1334.5z
			"/>
		<linearGradient id="SVGID_10_" gradientUnits="userSpaceOnUse" x1="209.6355" y1="1108.8654" x2="528.0964" y2="1108.8654">
			<stop  offset="0" style="stop-color:#FFFFFF"/>
			<stop  offset="0.3593" style="stop-color:#BAC0CE"/>
			<stop  offset="1" style="stop-color:#42537A"/>
		</linearGradient>
		<path class="st12" d="M508.3,1089.1H229.4c-10.9,0-19.8,8.9-19.8,19.8l0,0c0,10.9,8.9,19.8,19.8,19.8h278.8
			c10.9,0,19.8-8.9,19.8-19.8l0,0C528.1,1097.9,519.2,1089.1,508.3,1089.1z"/>
		<path class="st8" d="M594.2,647.6H143.6c-19.5,0-35.3,15.8-35.3,35.3v69.2c0,7.6,6.1,13.7,13.7,13.7h493.8
			c7.6,0,13.7-6.1,13.7-13.7v-69.2C629.5,663.4,613.7,647.6,594.2,647.6z"/>
		<path class="st0" d="M629.5,715.4H108.3v31.3c0,10.5,8.5,19,19,19h483.2c10.5,0,19-8.5,19-19V715.4z"/>
		<linearGradient id="SVGID_11_" gradientUnits="userSpaceOnUse" x1="108.2665" y1="745.9728" x2="629.4655" y2="745.9728">
			<stop  offset="0" style="stop-color:#FFFFFF"/>
			<stop  offset="0.3593" style="stop-color:#BAC0CE"/>
			<stop  offset="1" style="stop-color:#42537A"/>
		</linearGradient>
		<path class="st13" d="M629.5,726.2H108.3v20.6c0,10.5,8.5,19,19,19h483.2c10.5,0,19-8.5,19-19V726.2z"/>
	</g>
</g>
<g>
	<g>
		<linearGradient id="SVGID_12_" gradientUnits="userSpaceOnUse" x1="1283.5059" y1="1354.2969" x2="1283.5059" y2="745.9729">
			<stop  offset="0" style="stop-color:#283453"/>
			<stop  offset="1" style="stop-color:#6A7490"/>
		</linearGradient>
		<polygon class="st14" points="1263.7,746 1263.7,1354.3 1303.3,1354.3 1303.3,746 		"/>
		
			<rect x="1224.8" y="772.5" transform="matrix(6.123234e-17 -1 1 6.123234e-17 478.8025 2088.2092)" class="st5" width="117.5" height="64.4"/>
		<linearGradient id="SVGID_13_" gradientUnits="userSpaceOnUse" x1="1124.2754" y1="1361.2979" x2="1442.7363" y2="1361.2979">
			<stop  offset="0" style="stop-color:#FFFFFF"/>
			<stop  offset="0.3593" style="stop-color:#BAC0CE"/>
			<stop  offset="1" style="stop-color:#42537A"/>
		</linearGradient>
		<path class="st15" d="M1419,1334.5h-270.9c-13.1,0-23.8,10.6-23.8,23.8v29.9h318.5v-29.9C1442.7,1345.1,1432.1,1334.5,1419,1334.5
			z"/>
		<linearGradient id="SVGID_14_" gradientUnits="userSpaceOnUse" x1="1124.2754" y1="1108.8654" x2="1442.7363" y2="1108.8654">
			<stop  offset="0" style="stop-color:#FFFFFF"/>
			<stop  offset="0.3593" style="stop-color:#BAC0CE"/>
			<stop  offset="1" style="stop-color:#42537A"/>
		</linearGradient>
		<path class="st16" d="M1422.9,1089.1h-278.8c-10.9,0-19.8,8.9-19.8,19.8l0,0c0,10.9,8.9,19.8,19.8,19.8h278.8
			c10.9,0,19.8-8.9,19.8-19.8l0,0C1442.7,1097.9,1433.9,1089.1,1422.9,1089.1z"/>
		<path class="st8" d="M1508.8,647.6h-450.6c-19.5,0-35.3,15.8-35.3,35.3v69.2c0,7.6,6.1,13.7,13.7,13.7h493.8
			c7.6,0,13.7-6.1,13.7-13.7v-69.2C1544.1,663.4,1528.3,647.6,1508.8,647.6z"/>
		<path class="st0" d="M1544.1,715.4h-521.2v31.3c0,10.5,8.5,19,19,19h483.2c10.5,0,19-8.5,19-19V715.4z"/>
		<linearGradient id="SVGID_15_" gradientUnits="userSpaceOnUse" x1="1022.9064" y1="745.9728" x2="1544.1053" y2="745.9728">
			<stop  offset="0" style="stop-color:#FFFFFF"/>
			<stop  offset="0.3593" style="stop-color:#BAC0CE"/>
			<stop  offset="1" style="stop-color:#42537A"/>
		</linearGradient>
		<path class="st17" d="M1544.1,726.2h-521.2v20.6c0,10.5,8.5,19,19,19h483.2c10.5,0,19-8.5,19-19V726.2z"/>
	</g>
	<g class="st18">
		<g class="st19">
			<path class="st20" d="M1246.2,1065.2h-103c-1.6,0-2.9-1.3-2.9-2.9v-47.9c0-12.5,5.3-24.4,14.5-32.8l18-16.3
				c12.4-11.3,31.4-11.3,43.8,0l18,16.3c9.2,8.4,14.5,20.3,14.5,32.8v47.9C1249.1,1063.9,1247.8,1065.2,1246.2,1065.2z"/>
			<path class="st21" d="M1236.1,1089.1h-82.8c-7.2,0-13-5.8-13-13v-6.8c0-2.2,1.8-4,4-4h100.8c2.2,0,4,1.8,4,4v6.8
				C1249.1,1083.2,1243.2,1089.1,1236.1,1089.1z"/>
			<path class="st22" d="M1174.2,964.2v101h41v-101C1203.2,954.5,1186.1,954.5,1174.2,964.2z"/>
		</g>
		<g class="st19">
			<path class="st20" d="M1320.8,1065.2h103c1.6,0,2.9-1.3,2.9-2.9v-47.9c0-12.5-5.3-24.4-14.5-32.8l-18-16.3
				c-12.4-11.3-31.4-11.3-43.8,0l-18,16.3c-9.2,8.4-14.5,20.3-14.5,32.8v47.9C1317.9,1063.9,1319.2,1065.2,1320.8,1065.2z"/>
			<path class="st21" d="M1330.9,1089.1h82.8c7.2,0,13-5.8,13-13v-6.8c0-2.2-1.8-4-4-4h-100.8c-2.2,0-4,1.8-4,4v6.8
				C1317.9,1083.2,1323.8,1089.1,1330.9,1089.1z"/>
			<path class="st22" d="M1392.8,964.2v101h-41v-101C1363.8,954.5,1380.9,954.5,1392.8,964.2z"/>
		</g>
	</g>
</g>
</svg>
