<?xml version="1.0" encoding="utf-8"?>
<!-- Generator: Adobe Illustrator 22.1.0, SVG Export Plug-In . SVG Version: 6.00 Build 0)  -->
<svg version="1.1" id="Layer_1" xmlns="http://www.w3.org/2000/svg" xmlns:xlink="http://www.w3.org/1999/xlink" x="0px" y="0px"
	 viewBox="0 0 54 80" style="enable-background:new 0 0 54 80;" xml:space="preserve">
<style type="text/css">
	.st0{fill:url(#SVGID_1_);}
	.st1{fill:#C0BCE2;}
	.st2{fill:#1F1C2C;}
	.st3{display:none;}
	.st4{display:inline;fill:#FBC333;}
	.st5{display:inline;}
	.st6{font-family:'Montserrat-Regular';}
	.st7{font-size:0.5061px;}
	.st8{font-family:'ArialMT';}
	.st9{font-size:1.1569px;}
	.st10{display:inline;fill:#351D02;}
	.st11{display:inline;fill:#E8C89A;}
	.st12{display:inline;fill:#7C201C;}
	.st13{font-size:0.4472px;}
	.st14{font-size:0.8943px;}
	.st15{display:inline;fill:#3D4B50;}
	.st16{font-size:0.5373px;}
	.st17{font-size:1.2282px;}
	.st18{fill:#BD2233;}
	.st19{fill:#F59332;}
	.st20{fill:#FEF035;}
	.st21{fill:#17A453;}
	.st22{fill:#1DAFEC;}
	.st23{fill:#FFFFFF;}
	.st24{display:inline;fill:#FF0093;}
	.st25{font-size:0.9211px;}
	.st26{font-size:0.4606px;}
	.st27{display:inline;fill:#B3703D;}
	.st28{display:inline;fill:#FFFFFF;}
	.st29{display:inline;fill:#683D1F;}
	.st30{display:inline;fill:#FFFFFE;}
	.st31{display:inline;fill:#DC2A26;}
	.st32{display:inline;fill:#E3BF9A;}
	.st33{display:inline;fill:#A8D1D8;}
	.st34{display:inline;fill:#2E2B2C;}
	.st35{fill:#99B755;}
	.st36{fill:#FFCE54;}
	.st37{fill:#F6BB42;}
	.st38{fill:#ED5565;}
	.st39{font-size:0.6141px;}
	.st40{display:inline;fill:#1AA2E1;}
	.st41{display:inline;fill:#E7BB40;}
	.st42{display:inline;fill:#8E131F;}
	.st43{display:inline;fill:#21B744;}
	.st44{display:inline;fill:#BA1C1C;}
	.st45{display:inline;fill:#C41A2F;}
	.st46{fill:#FFCD00;}
	.st47{display:inline;fill:#00DBCD;}
	.st48{display:inline;fill:#C9F249;}
</style>
<g>
	<g>
		
			<linearGradient id="SVGID_1_" gradientUnits="userSpaceOnUse" x1="1.3733" y1="40.0443" x2="52.8313" y2="40.0443" gradientTransform="matrix(1 0 0 -1 0 82)">
			<stop  offset="0" style="stop-color:#1F1C2C"/>
			<stop  offset="1" style="stop-color:#928DAB"/>
		</linearGradient>
		<path class="st0" d="M50.8,69.4c-0.3,0.6-0.8,1.5-1.7,2.2c-1.9,1.4-4.2,1.1-5.4,1c-3.6-0.4-7.3,0.2-10.9,0.1
			c-8-0.4-22,0.3-25.9-0.3c-0.6-0.1-1.3-0.3-2.1-0.7c-1-0.6-1.7-1.5-2.1-2.1c0.9-3.2,0.4-4.8-0.2-5.7c-0.4-0.5-1.1-1.1-1-1.9
			c0.1-0.8,0.8-1.1,1.2-1.6c1.2-1.4,0.2-3.1,0.2-6.5c0-3.6,1.3-7.1,0.2-8c0,0-0.4-0.3-0.7-0.6c-0.6-0.6-1-0.9-0.9-1.4
			c0-0.4,0.3-0.6,0.8-1s0.7-0.5,1-0.7c0.7-0.7,0.3-2.3,0.2-2.7c0,0-0.4-1.3,0.1-11.6c-1-0.9-1-0.9-1-0.9c-0.6-0.7-0.9-1-0.9-1.4
			c0.1-0.5,0.6-0.8,1-0.9c0.4-0.2,0.9-0.4,0.9-0.4s0.1-8.9,0.2-13c15.8,0,31.5-0.1,47.3-0.1c0.3,8.4,0.2,11.8,0,12.6
			c0,0.1-0.3,0.8,0,1.1c0.2,0.2,0.6,0,1,0.1c0.5,0.2,0.8,0.8,0.8,0.9c0.2,0.6,0.2,1.5-0.2,1.8c-0.5,0.4-1.6,0.1-1.6,0.1
			s0.2,3.7,0.3,7.7s-0.1,4.2,0.2,5.1c0.6,1.4,1.4,2.2,1.2,3.6c-0.1,0.9-0.6,1.3-1,2.1c-0.7,1.3-0.5,2-0.5,6.6c0,5.1-0.4,5.7,0.4,6.9
			c0.5,0.7,1.1,1.3,1.1,2.3c-0.1,0.9-0.7,1.4-1.2,2C50.7,64.9,50.1,66.5,50.8,69.4z"/>
		<ellipse class="st1" cx="27.1" cy="18.1" rx="4.8" ry="1.9"/>
		<path class="st2" d="M24,21h6c1.7,0,3-1.3,3-3s-1.3-3-3-3h-6c-1.7,0-3,1.3-3,3S22.3,21,24,21z M24,17h6c0.6,0,1,0.4,1,1
			s-0.4,1-1,1h-6c-0.6,0-1-0.4-1-1S23.4,17,24,17z"/>
		<path class="st2" d="M54,44c0-1.3-0.8-2.4-2-2.8V28.8c1.2-0.4,2-1.5,2-2.8s-0.8-2.4-2-2.8V11c0-0.6-0.4-1-1-1H3c-0.6,0-1,0.4-1,1
			v12.2c-1.2,0.4-2,1.5-2,2.8s0.8,2.4,2,2.8v12.3c-1.2,0.4-2,1.5-2,2.8s0.8,2.4,2,2.8V59c-1.2,0.4-2,1.5-2,2.8s0.8,2.4,2,2.8V69
			c0,2.8,2.2,5,5,5h40c2.8,0,5-2.2,5-5v-4.2c1.2-0.4,2-1.5,2-2.8s-0.8-2.4-2-2.8V46.8C53.2,46.4,54,45.3,54,44z M50,12v11H4V12H50z
			 M3,25h48c0.6,0,1,0.4,1,1s-0.4,1-1,1H3c-0.6,0-1-0.4-1-1S2.4,25,3,25z M50,41H4V29h46V41z M47,72H7c-0.2,0-0.6,0-1.1-0.2
			c-0.1-0.1-0.6-0.2-1.1-0.7C4.1,70.3,4,69.3,4,69v-4h46v4C50,70.7,48.7,72,47,72z M51,63H3c-0.6,0-1-0.4-1-1s0.4-1,1-1h48
			c0.6,0,1,0.4,1,1S51.6,63,51,63z M4,47h46v12H4V47z M51,45H3c-0.6,0-1-0.4-1-1s0.4-1,1-1h48c0.6,0,1,0.4,1,1S51.6,45,51,45z"/>
	</g>
</g>
<g id="labelBeer0" class="st3">
	<circle id="brand-2" class="st4" cx="26.4" cy="35" r="5.4"/>
	<text transform="matrix(1 0 0 1 24.9199 39.108)" class="st5 st6 st7">h</text>
	<text transform="matrix(1 0 0 1 25.2475 39.108)" class="st5 st6 st7">e</text>
	<text transform="matrix(1 0 0 1 25.5576 39.108)" class="st5 st6 st7">feweiser</text>
	<text transform="matrix(1 0 0 1 24.5102 38.3619)" class="st5 st8 st9">EL HEFE</text>
	<path class="st10" d="M28.9,37.1c-0.1-0.2-0.2-0.5-0.3-0.7c-0.1-0.1-0.1-0.2-0.2-0.3S28.3,36,28.2,36c-0.1-0.1-0.2-0.1-0.3-0.2
		c0-0.2,0-0.3,0-0.5c0-0.1,0-0.1,0-0.2c-0.1,0-0.2,0-0.3,0c-0.1,0-0.2,0.1-0.3,0.1c0-0.1,0-0.3,0-0.4c0-0.1,0.1-0.2,0.1-0.3
		c0.1-0.2,0.2-0.3,0.2-0.5c0.1-0.2,0.2-0.4,0.3-0.7l0.5-0.3l0.2-0.1c0.1-0.1,0.4-0.3,0.5-0.7c0-0.1,0-0.1,0-0.2c0,0-0.1,0.1-0.2,0.1
		s-0.1,0.1-0.2,0.1c-0.2,0.1-0.3,0.1-0.5,0.1l0,0l0,0c0-0.1-0.1-0.2-0.1-0.3c-0.1-0.3-0.2-0.5-0.3-0.8c0-0.1-0.1-0.2-0.1-0.3
		c0-0.1-0.1-0.1-0.1-0.2c-0.4-0.3-1-0.3-1.3,0.1c-0.1,0.1-0.2,0.2-0.2,0.3c-0.1,0.1-0.2,0.3-0.2,0.5c-0.1-0.1-0.2-0.1-0.3-0.2
		c-0.1,0-0.2,0-0.3,0c-0.4,0.1-0.6,0.4-0.7,0.7c0,0.3,0.2,0.7,0.4,0.9l0.7,0.6c0,0.3,0,0.5,0,0.8c0,0.1-0.1,0.2-0.1,0.4
		c-0.1,0.1-0.3,0.3-0.4,0.5l0,0l0,0c-0.2,0-0.5,0.1-0.7,0.2c-0.2,0.1-0.5,0.2-0.7,0.3c-0.1,0.1-0.2,0.2-0.2,0.3
		c-0.1,0.2-0.1,0.3-0.2,0.5l-0.1,0.6L28.9,37.1z"/>
</g>
<g id="labelBeer2" class="st3">
	<circle id="brand-3" class="st11" cx="26.7" cy="35.1" r="5.6"/>
	<path class="st12" d="M26.2,31.5c0,0,0,0.1,0,0.2c0,0.1,0,0.2,0,0.2c0,0.1-0.1,0.1-0.1,0.2c-0.1,0.1-0.1,0.2-0.2,0.3
		c0,0-0.1,0-0.1,0c0,0,0,0,0,0c0,0,0-0.1-0.1-0.2c0-0.1,0-0.2,0-0.2c0-0.1,0-0.1,0-0.2c0-0.1,0-0.1,0.1-0.2c0.1-0.1,0.1-0.2,0.2-0.3
		c0-0.1,0.1-0.2,0.3-0.3c0.2-0.1,0.3-0.2,0.4-0.2c0.1,0,0.2,0,0.4,0c0.1,0,0.3,0.1,0.3,0.1c0.1,0.1,0.2,0.2,0.3,0.3
		c0.1,0.1,0.1,0.2,0.1,0.3c0,0.1,0.1,0.3,0.1,0.4c0,0.2,0,0.4-0.1,0.5c-0.1,0.1-0.1,0.3-0.2,0.4c-0.1,0.2-0.2,0.3-0.3,0.4
		c-0.1,0.1-0.2,0.1-0.3,0.2c-0.2,0.1-0.3,0.2-0.5,0.3c-0.1,0.1-0.3,0.2-0.4,0.4c-0.2,0.2-0.3,0.3-0.3,0.5c0,0.1-0.1,0.3-0.1,0.4
		c0,0.1,0,0.2,0,0.3c0.1,0.1,0.1,0.2,0.3,0.3c0.1,0.1,0.2,0.2,0.3,0.2c0.1,0,0.2,0.1,0.4,0.1c0.2,0,0.3,0,0.4,0
		c0.1,0,0.2-0.1,0.3-0.1c0.1-0.1,0.2-0.2,0.2-0.2c0-0.1,0.1-0.2,0.1-0.3c0-0.1,0-0.2,0-0.3c0-0.1,0-0.2-0.1-0.3
		c-0.1-0.1-0.1-0.2-0.2-0.3c-0.1,0-0.1-0.1-0.3-0.1c-0.1-0.1-0.3-0.1-0.3-0.1c-0.1,0-0.2,0-0.2,0.1c-0.1,0.1-0.2,0.1-0.3,0.2
		c-0.1,0.1-0.1,0.1-0.2,0.2c0-0.1,0-0.1,0-0.2c0-0.1,0.1-0.2,0.1-0.3c0-0.1,0.1-0.1,0.2-0.2c0.2-0.1,0.4-0.1,0.4-0.1
		c0.1,0,0.2,0,0.3,0c0.1,0,0.2,0.1,0.3,0.1c0.1,0.1,0.2,0.1,0.3,0.2c0.1,0.1,0.2,0.2,0.2,0.3c0,0.1,0.1,0.3,0.1,0.5
		c0,0.3-0.1,0.5-0.1,0.6c0,0.1-0.1,0.2-0.2,0.3c-0.1,0.1-0.2,0.2-0.3,0.3c-0.1,0-0.2,0.1-0.3,0.1c-0.2,0.1-0.4,0.1-0.5,0.1
		c-0.1,0-0.2,0-0.4,0c-0.2,0-0.3-0.1-0.4-0.1c-0.1-0.1-0.3-0.2-0.4-0.4c-0.1-0.1-0.2-0.3-0.2-0.4c0-0.1-0.1-0.2-0.1-0.4
		c0-0.2,0-0.3,0-0.4c0-0.1,0-0.2,0.1-0.3c0.1-0.2,0.2-0.3,0.2-0.4c0.1-0.1,0.2-0.2,0.3-0.4c0.1-0.1,0.2-0.2,0.3-0.3
		c0.1-0.1,0.1-0.1,0.2-0.2c0.1-0.1,0.3-0.2,0.4-0.2c0.2-0.2,0.3-0.3,0.5-0.5c0-0.1,0.1-0.2,0.1-0.3c0-0.1,0-0.2,0-0.2
		c0-0.1,0-0.2-0.1-0.4c0-0.1-0.1-0.2-0.1-0.2c0,0-0.1-0.1-0.2-0.2c-0.1,0-0.1,0-0.2-0.1c-0.1,0-0.2,0-0.3,0c-0.1,0-0.1,0.1-0.2,0.1
		C26.3,31.4,26.2,31.5,26.2,31.5z"/>
	<text transform="matrix(1 0 0 1 25.2143 39.0605)" class="st5 st6 st13">VENOM ALE</text>
	<text transform="matrix(1 0 0 1 25.4135 38.0878)" class="st5 st8 st14">GITHOP</text>
</g>
<g id="keg">
	<g id="labelBeer0_1_" class="st3">
		<circle id="elipse" class="st15" cx="26.4" cy="35.1" r="6.2"/>
		<circle id="brand-2_1_" class="st4" cx="26.4" cy="35.1" r="5.8"/>
		<text transform="matrix(1 0 0 1 24.9076 39.744)" class="st5 st6 st16">hefeweiser</text>
		<text transform="matrix(1 0 0 1 24.3676 38.8466)" class="st5 st8 st17">EL HEFE</text>
		<path class="st10" d="M29,37.4c-0.1-0.2-0.2-0.5-0.3-0.7c-0.1-0.1-0.1-0.2-0.2-0.3c-0.1-0.1-0.1-0.1-0.2-0.2
			c-0.1-0.1-0.2-0.1-0.3-0.2c0-0.2,0-0.3,0-0.5c0-0.1,0-0.1,0-0.2c-0.1,0-0.2,0-0.3,0c-0.1,0-0.2,0.1-0.3,0.1c0-0.1,0-0.3,0-0.4
			c0-0.1,0.1-0.2,0.1-0.3c0.1-0.2,0.2-0.4,0.2-0.6c0.1-0.2,0.2-0.5,0.4-0.7c0.2-0.1,0.4-0.2,0.6-0.3c0.1,0,0.1-0.1,0.2-0.1
			c0.1-0.1,0.4-0.3,0.5-0.7c0-0.1,0-0.1,0-0.2c0,0-0.1,0.1-0.2,0.1c-0.1,0-0.1,0.1-0.2,0.1c-0.2,0.1-0.3,0.1-0.5,0.1c0,0,0,0,0,0
			s0,0,0,0c0-0.1-0.1-0.2-0.1-0.3c-0.1-0.3-0.2-0.5-0.3-0.8c0-0.1,0-0.2-0.1-0.4c0-0.1-0.1-0.2-0.1-0.2c-0.1-0.1-0.3-0.3-0.7-0.2
			c-0.4,0-0.6,0.3-0.7,0.3c-0.1,0.1-0.2,0.2-0.3,0.3c-0.1,0.2-0.2,0.4-0.3,0.5c-0.1-0.1-0.2-0.1-0.4-0.2c-0.1,0-0.2,0-0.3,0
			c-0.1,0-0.3,0.1-0.5,0.3c-0.1,0.2-0.2,0.4-0.2,0.4c0,0.1,0.1,0.3,0.1,0.5c0.1,0.2,0.2,0.4,0.3,0.5c0.2,0.2,0.5,0.4,0.7,0.7
			c0,0.2,0,0.5,0,0.8c0,0.1-0.1,0.3-0.1,0.4c-0.1,0.2-0.3,0.3-0.4,0.5c0,0,0,0,0,0c0,0,0,0,0,0c-0.3,0-0.5,0.1-0.8,0.2
			c-0.2,0.1-0.5,0.2-0.7,0.3c-0.1,0.1-0.2,0.2-0.2,0.3c-0.1,0.2-0.1,0.3-0.2,0.5c0,0.1-0.1,0.6-0.1,0.6C25.2,37.4,27.1,37.4,29,37.4
			z"/>
	</g>
	<g id="labelBeer1" class="st3">
		<g id="Rainbow" class="st5">
			<circle id="circle-2" class="st18" cx="26.4" cy="35.1" r="5.8"/>
			<circle id="circle-3" class="st19" cx="26.4" cy="35.3" r="5.5"/>
			<ellipse id="circle-4" class="st20" cx="26.4" cy="35.5" rx="5.3" ry="5.1"/>
			<ellipse id="circle-5" class="st21" cx="26.4" cy="35.7" rx="5" ry="4.9"/>
			<ellipse id="circle-6" class="st22" cx="26.4" cy="35.8" rx="4.8" ry="4.5"/>
			<ellipse id="circle-7" class="st23" cx="26.4" cy="36.2" rx="4.7" ry="4.6"/>
		</g>
		<path class="st24" d="M29.9,31.4l-1.3,1.3c0,0,0.4,0.3,0.4,0.4c0,0,0,0,0,0c0,0,0,0,0.1,0c0.2,0,0.3,0,0.5-0.1c0,0,0,0,0,0
			c0,0,0,0,0,0c0,0.1,0.1,0.2,0.1,0.3c-0.1,0-0.1-0.1-0.1-0.1c0,0,0,0,0,0s0,0,0,0c-0.2,0-0.4,0.1-0.6,0.1c0,0,0.3,0.5,0.3,0.6
			c0,0,0.2,0,0.2,0c0,0.1,0,0.1-0.1,0.2c0,0-0.5-0.2-0.6-0.2c0.3,0.4,0.6,0.8,0.9,1.3c0,0,0,0,0,0c0,0,0,0,0,0c0.1,0,0.1,0,0.1,0
			c0,0.1,0,0.1,0.1,0.1c0,0,0,0,0,0s0,0,0,0.1c-0.1,0.1-0.1,0.3-0.1,0.4c0,0,0,0,0,0c0,0-0.2,0.1-0.2,0.1c0,0,0,0,0,0
			c-0.1,0.1-0.1,0.2-0.3,0.2c-0.2,0-0.3,0-0.5,0c0,0,0,0-0.1,0c0,0,0,0,0-0.1c-0.1-0.3-0.2-0.5-0.4-0.7c-0.1,0-0.1-0.1-0.2-0.1
			c-0.2-0.1-0.5,0-0.7-0.1c0.1,0.4,0.1,0.7,0.2,1.1c0.3,0.4,0.8,0.8,1.3,1.2c0.7,0.6,1.4,1,1.9,1.2c-0.2,0.2-0.4,0.4-0.7,0.7
			c-0.2,0.2-0.3,0.3-0.3,0.3c-0.1,0.1-0.4,0.3-1.1,0.6c-0.4,0.2-0.7,0.3-1.1,0.3c-0.6,0.1-1.2,0.1-1.7,0c-0.1,0-0.3,0-0.5-0.1
			c-0.2-0.1-0.3-0.1-0.6-0.2c-0.1-0.1-0.4-0.2-0.8-0.3c-0.2-0.1-0.3-0.2-0.5-0.4c-0.2-0.1-0.3-0.2-0.4-0.3c-0.1,0-0.2-0.2-0.5-0.4
			c-0.1-0.1-0.2-0.2-0.4-0.4c-0.4-0.5-0.5-0.6-0.4-0.7c0-0.1,0.1-0.1,0.4-0.1c0.2,0,0.3,0,0.5-0.1c0,0,0.4-0.4,0.4-0.5c0,0,0,0,0,0
			c0,0,0,0,0,0c-0.2-0.2-0.4-0.3-0.7-0.5c0.1,0.1,0.4,0,0.5-0.1c0.2-0.1,0.3-0.3,0.3-0.6c0,0,0,0,0,0c0,0,0,0,0,0
			c-0.1-0.1-0.2-0.1-0.4-0.1c0,0,0.2-0.2,0.2-0.3c0.1-0.1,0.2-0.2,0.2-0.3c0-0.1,0.1-0.2,0-0.3c0-0.1-0.1-0.1-0.2-0.1
			c-0.1,0-0.4-0.1-0.4-0.1c0-0.1,0.1,0,0.1-0.1c0.1,0,0.2,0,0.3-0.1c0.2,0,0.4-0.1,0.5-0.2c0.1-0.1,0.1-0.1,0.2-0.2
			c0.1-0.1,0.2-0.2,0.3-0.3c0,0-0.2-0.3-0.2-0.3c-0.1-0.1-0.1-0.2-0.1-0.3c0-0.1,0-0.3,0.1-0.5c0-0.1,0.1-0.2,0.1-0.3
			c0,0.1,0,0.2,0,0.3c0,0,0,0.1,0.1,0.1c0.1,0.1,0.1,0.1,0.2,0.1c0.1,0,0.2,0.1,0.4,0.1c0.1,0,0.1,0,0.2,0c0.1,0,0.1,0,0.2-0.1
			c0.1-0.1,0.2-0.1,0.2-0.2c0,0-0.1,0-0.1-0.1c-0.1,0-0.1-0.1-0.1-0.1c0,0-0.1-0.1-0.1-0.1c-0.1-0.1-0.2-0.1-0.3-0.1
			c0.2-0.1,0.4,0,0.6,0c0,0,0.1,0,0.1,0c0.1,0,0.1,0,0.2-0.1c0.1-0.1,0.3-0.1,0.4-0.1c0.1,0,0.2,0.1,0.2,0.1s0.1-0.1,0.1-0.2
			c0-0.1,0.1-0.1,0.1-0.1c0,0,0,0,0.1-0.1c0,0,0.1,0,0.1,0c0,0,0,0-0.1,0.1c0,0,0,0.1,0,0.1c0,0,0.1,0,0.1,0c0.1,0,0.1,0,0.1,0
			c0-0.1,0-0.3,0-0.4c0-0.2,0-0.3,0.1-0.4c0.1,0.1,0.2,0.2,0.3,0.3c0.1,0.1,0.2,0.2,0.3,0.3c0.1,0,0.2,0,0.3,0c0.1,0,0.3,0,0.4,0.1
			c0,0,0.1,0,0.1,0c0.1,0,0.1,0,0.1-0.1c0,0,0-0.1,0.1-0.1c0,0,0-0.1-0.1-0.1c0,0-0.1,0-0.1,0c0,0,0-0.1,0.1-0.1c0.1,0,0.1,0,0.1,0
			c0,0,0,0,0.1,0.1c0,0,0,0.1,0,0.1C28.9,31.9,29.4,31.6,29.9,31.4z"/>
		<text transform="matrix(1 0 0 1 23.5336 39.3876)" class="st5 st8 st25">FAIRY TALE ALE</text>
	</g>
	<g id="labelBeer2_1_" class="st3">
		<circle id="brand-3_1_" class="st11" cx="26.4" cy="35.1" r="5.8"/>
		<path class="st12" d="M25.9,31.5c0,0,0,0.1,0,0.2c0,0.1,0,0.2,0,0.2c0,0.1-0.1,0.1-0.1,0.2c-0.1,0.1-0.1,0.2-0.2,0.3
			c0,0-0.1,0-0.1,0c0,0,0,0,0,0c0,0,0-0.1-0.1-0.2c0-0.1,0-0.2,0-0.2c0-0.1,0-0.1,0-0.2c0-0.1,0-0.1,0.1-0.2
			c0.1-0.1,0.1-0.2,0.2-0.3c0-0.1,0.1-0.2,0.3-0.3c0.2-0.1,0.3-0.2,0.4-0.2c0.1,0,0.2,0,0.4,0c0.1,0,0.3,0.1,0.4,0.1
			c0.1,0.1,0.2,0.2,0.3,0.3c0.1,0.1,0.1,0.2,0.1,0.3c0,0.1,0.1,0.3,0.1,0.4c0,0.2,0,0.4-0.1,0.5c-0.1,0.1-0.1,0.3-0.2,0.4
			c-0.1,0.2-0.2,0.3-0.3,0.4c-0.1,0.1-0.2,0.1-0.3,0.2c-0.2,0.1-0.3,0.2-0.5,0.3c-0.1,0.1-0.3,0.2-0.4,0.4c-0.2,0.2-0.3,0.3-0.3,0.5
			c0,0.1-0.1,0.3-0.1,0.4c0,0.1,0,0.2,0,0.3c0.1,0.1,0.1,0.2,0.3,0.4c0.1,0.1,0.2,0.2,0.3,0.2c0.1,0,0.2,0.1,0.4,0.1
			c0.2,0,0.3,0,0.5,0c0.1,0,0.2-0.1,0.3-0.1c0.1-0.1,0.2-0.2,0.3-0.3c0-0.1,0.1-0.2,0.1-0.3c0-0.1,0-0.3,0-0.3c0-0.1,0-0.2-0.1-0.3
			c-0.1-0.1-0.1-0.2-0.2-0.3c-0.1,0-0.1-0.1-0.3-0.1c-0.1-0.1-0.3-0.1-0.3-0.1c-0.1,0-0.2,0-0.3,0.1c-0.1,0.1-0.2,0.1-0.3,0.2
			c-0.1,0.1-0.1,0.1-0.2,0.2c0-0.1,0-0.1,0-0.2c0-0.1,0.1-0.2,0.1-0.3c0-0.1,0.1-0.1,0.2-0.2c0.2-0.1,0.4-0.1,0.4-0.1
			c0.1,0,0.2,0,0.3,0c0.1,0,0.2,0.1,0.3,0.1c0.1,0.1,0.2,0.1,0.3,0.3c0.1,0.1,0.2,0.2,0.2,0.3c0,0.1,0.1,0.3,0.1,0.5
			c0,0.3-0.1,0.5-0.1,0.6c0,0.1-0.1,0.2-0.2,0.3c-0.1,0.1-0.2,0.2-0.3,0.3c-0.1,0-0.2,0.1-0.3,0.1c-0.2,0.1-0.4,0.1-0.5,0.1
			c-0.1,0-0.2,0-0.4,0c-0.2,0-0.3-0.1-0.5-0.1c-0.1-0.1-0.3-0.2-0.4-0.4c-0.1-0.1-0.2-0.3-0.2-0.4c0-0.1-0.1-0.2-0.1-0.4
			c0-0.2,0-0.3,0-0.4c0-0.1,0-0.2,0.1-0.4c0.1-0.2,0.2-0.3,0.2-0.4c0.1-0.1,0.2-0.3,0.3-0.4c0.1-0.1,0.2-0.2,0.3-0.3
			c0.1-0.1,0.1-0.1,0.2-0.2c0.1-0.1,0.3-0.2,0.4-0.2c0.2-0.2,0.3-0.3,0.5-0.5c0-0.1,0.1-0.2,0.1-0.4c0-0.1,0-0.2,0-0.3
			c0-0.1,0-0.2-0.1-0.4c0-0.1-0.1-0.2-0.1-0.2c0,0-0.1-0.1-0.2-0.2c-0.1,0-0.1,0-0.2-0.1c-0.1,0-0.2,0-0.3,0c-0.1,0-0.1,0.1-0.2,0.1
			C26,31.4,25.9,31.4,25.9,31.5z"/>
		<text transform="matrix(1 0 0 1 24.9076 39.2206)" class="st5 st6 st26">VENOM ALE</text>
		<text transform="matrix(1 0 0 1 25.1117 38.2187)" class="st5 st8 st25">GITHOP</text>
	</g>
	<g id="labelBeer3" class="st3">
		<circle id="brand-4" class="st27" cx="26.4" cy="35.1" r="5.8"/>
		<path class="st28" d="M26.5,29.9c0.3,0,0.6,0,0.9,0.1c0.8,0.2,1.5,0.7,1.8,1.5c0.2,0.5,0.2,1,0.2,1.4c0,0.5,0,1,0,1.5
			c0,0.6,0,1.1,0,1.7c0,0.5,0.1,1.1,0,1.6c0,0.2-0.1,0.6-0.5,1.1c-0.4,0.4-0.8,0.6-1,0.7c-0.3,0.1-0.8,0.3-1.5,0.3
			c-0.7,0-1.2-0.2-1.5-0.3c-0.2-0.1-0.6-0.3-1-0.7c-0.4-0.4-0.5-0.9-0.5-1.1c0-0.3,0-0.6,0-0.9c0-0.3,0-0.7,0-1c0-0.7,0-1.3,0-2
			c0-1.7,0-2,0.2-2.4c0.2-0.4,0.5-0.7,0.7-0.8C25.2,29.9,26.1,29.9,26.5,29.9z"/>
		<path class="st29" d="M26.5,30.1c0.3,0,0.6,0,0.9,0.1c0.8,0.2,1.5,0.7,1.8,1.4c0.2,0.4,0.2,0.9,0.2,1.4c0,0.5,0,1,0,1.5
			c0,0.5,0,1.1,0,1.6c0,0.5,0.1,1.1,0,1.5c0,0.2-0.1,0.6-0.5,1c-0.3,0.4-0.8,0.6-0.9,0.6c-0.3,0.1-0.8,0.3-1.4,0.3
			c-0.6,0-1.1-0.1-1.4-0.3c-0.2-0.1-0.6-0.3-0.9-0.7c-0.3-0.4-0.4-0.9-0.5-1c0-0.3,0-0.6,0-0.9c0-0.3,0-0.6,0-1c0-0.6,0-1.3,0-1.9
			c0-1.6,0-1.9,0.2-2.3c0.2-0.4,0.5-0.6,0.6-0.7C25.3,30.1,26.1,30.1,26.5,30.1z"/>
		<polygon class="st30" points="23.7,35.6 22.4,35.6 22.6,36.3 22.4,37 23.7,37 		"/>
		<polygon class="st30" points="29.3,35.6 30.6,35.6 30.4,36.3 30.6,37 29.3,37 		"/>
		<polygon class="st31" points="29.3,35.8 30.4,35.8 30.2,36.4 30.4,36.9 29.3,36.9 		"/>
		<polygon class="st31" points="23.6,35.8 22.5,35.8 22.7,36.4 22.5,36.9 23.6,36.9 		"/>
		<path class="st32" d="M25.5,31.8c0.1,0.3,0.1,0.6,0.1,0.8c0.4,0,0.8,0.1,1.2,0.1c0.1-0.3,0.1-0.6,0.1-0.8
			C26.4,31.8,25.9,31.8,25.5,31.8z"/>
		<path class="st32" d="M27.1,31.9c0.1,0.3,0.1,0.7,0.2,1l1-0.1l0.2-1C28,31.8,27.6,31.8,27.1,31.9z"/>
		<path class="st31" d="M25.5,30.3c0,0.3-0.1,0.6-0.2,1c-0.1,0.2-0.1,0.4-0.2,0.5c0.7,0.1,1.3,0.1,2,0.2c0.1,0,0.3,0,0.4,0
			c0.2,0,0.4,0,0.5,0c0.1,0,0.3-0.1,0.5-0.2c0.1-0.1,0.2-0.1,0.3-0.2c-0.1-0.1-0.2-0.3-0.3-0.4c-0.1-0.2-0.1-0.3-0.1-0.5
			c-0.1-0.1-0.3-0.2-0.6-0.3c-0.1,0-0.5-0.2-1-0.2c-0.1,0-0.3,0-0.6,0C25.9,30.2,25.7,30.2,25.5,30.3z"/>
		<path class="st33" d="M25.6,32.6v0.7c0,0.1,0,0.2-0.1,0.3c0,0.1-0.1,0.2-0.1,0.2c-0.1,0.1-0.1,0.1-0.2,0.2
			c-0.1,0.1-0.2,0.2-0.2,0.3c0,0.1-0.1,0.2-0.1,0.3c-0.1,0.3-0.2,0.5-0.3,0.7c-0.2,0.5-0.5,1.2-0.5,1.5c0,0.1,0,0.1,0,0.1
			c0,0.1,0,0.3,0,0.3c0,0.1,0,0.2,0.1,0.3c0,0.1,0.1,0.1,0.1,0.2c0,0,0.1,0,0.1,0.1c0.1,0.1,0.1,0.1,0.1,0.1c0.1,0,0.2,0,0.3,0
			c0.1,0,0.1-0.1,0.1-0.1c-0.1-0.1-0.1-0.2-0.1-0.3c-0.1-0.3-0.2-0.4-0.2-0.4c0-0.1,0-0.1,0-0.1c0.3-0.6,0.7-1.2,1-1.8l0.5-0.8
			c0.1-0.1,0.1-0.1,0.2-0.2c0.1-0.1,0.1-0.1,0.2-0.2c0-0.1,0-0.1,0-0.2c0,0,0-0.1,0-0.1c0-0.2,0.1-0.3,0.1-0.4
			c0-0.1,0.1-0.2,0.1-0.4C26.4,32.6,26,32.6,25.6,32.6z"/>
		<path class="st33" d="M28.3,32.8c0,0,0,0.1,0,0.4c0,0,0,0.1,0,0.1c0,0.1,0,0.3,0,0.4c0,0,0,0.1,0,0.1c0,0.1,0.1,0.1,0.1,0.2
			s0,0.1,0.1,0.2c0,0.1,0.1,0.2,0.1,0.2c0,0.1,0,0.1,0,0.2c0,0.1,0,0.2,0,0.3c0,0.2,0,0.3,0,0.5l0.1,1.5c0,0.1,0,0.1,0,0.2
			c0,0,0,0.1,0,0.1c0,0.1,0,0.3,0,0.5c0,0.1,0,0.2-0.1,0.3c0,0,0,0-0.1,0.1c-0.1,0-0.1,0-0.1,0c-0.1,0-0.1,0-0.2,0
			c-0.1,0-0.2,0-0.3,0c0,0,0-0.1,0-0.1c0,0,0,0,0-0.1c0,0,0.1-0.1,0.1-0.1c0.1-0.2,0.1-0.4,0.2-0.6l-0.5-1.9c0-0.1-0.1-0.3-0.1-0.5
			c0-0.2-0.1-0.4-0.1-0.6c0,0-0.1-0.1-0.1-0.2c0-0.1-0.1-0.2-0.1-0.2c0-0.1-0.1-0.2-0.1-0.3c0-0.2-0.1-0.4-0.1-0.6
			C28,32.6,28.2,32.7,28.3,32.8z"/>
		<path class="st34" d="M24.1,36.8c0,0-0.1,0.1-0.1,0.1C24,36.9,24,37,24,37c0,0.1,0.1,0.2,0.1,0.3l0.1,0.8h0.1v-0.6l0.1,0.4
			c0,0,0,0.1,0,0.1c0,0.1,0,0.1,0,0.1c0,0,0.1,0,0.1,0.1c0.2,0.1,0.4,0.1,0.6,0.1c0,0,0,0,0.1,0c0,0,0,0,0,0
			c0.1-0.1,0.1-0.1,0.1-0.2C25.1,38,25,37.9,25,37.8c0,0-0.1,0.1-0.2,0.1c-0.1,0-0.2,0-0.3,0c-0.1-0.1-0.1-0.1-0.2-0.2
			c-0.1-0.1-0.1-0.2-0.1-0.3C24.2,37.2,24.2,37,24.1,36.8z"/>
		<path class="st34" d="M28.8,37.1c0,0,0.1,0.1,0.1,0.1c0,0,0,0.1,0,0.1c0,0.3,0,0.5-0.1,0.8h-0.1v-0.4l-0.1,0.5
			c0,0.1-0.1,0.1-0.1,0.2c-0.1,0-0.2,0-0.3,0c-0.1,0-0.2,0-0.3,0c0,0,0,0,0,0c0,0,0,0,0,0c0-0.1-0.1-0.3-0.1-0.4c0,0,0-0.1,0.1-0.1
			c0,0,0.1,0,0.2,0c0.1,0,0.1,0,0.2,0c0.1,0,0.1,0,0.2,0c0.1-0.1,0.1-0.2,0.1-0.3C28.8,37.3,28.8,37.2,28.8,37.1z"/>
		<rect x="23.2" y="35.3" class="st28" width="6.6" height="1.4"/>
		<rect x="23.3" y="35.4" class="st31" width="6.3" height="1.2"/>
		<text transform="matrix(1 0 0 1 24.4438 36.3769)" class="st28 st8 st25">HOLLABACK</text>
	</g>
	<g id="labelBeer4">
		<circle id="brand-5" class="st35" cx="26.4" cy="35.1" r="5.8"/>
		<path class="st36" d="M25,32.9c-1.1,0-2,0.9-2,2c0,1.1,0.9,2,2,2c1.1,0,2-0.9,2-2C27,33.8,26.1,32.9,25,32.9L25,32.9z M25,36.5
			c-0.9,0-1.7-0.7-1.7-1.7c0-0.9,0.7-1.7,1.7-1.7c0.9,0,1.7,0.7,1.7,1.7l0,0C26.6,35.8,25.9,36.5,25,36.5z"/>
		<path class="st37" d="M27.8,32.9c-0.5,0-1.1,0.2-1.4,0.6c0.1,0.1,0.2,0.2,0.2,0.3c0.6-0.7,1.7-0.7,2.3-0.1
			c0.7,0.6,0.7,1.7,0.1,2.3s-1.7,0.7-2.3,0.1c-0.6-0.5-0.7-1.4-0.3-2c-0.1-0.1-0.1-0.2-0.2-0.3c-0.6,0.9-0.4,2.2,0.5,2.8
			c0.9,0.6,2.2,0.4,2.8-0.5s0.4-2.2-0.5-2.8C28.6,33,28.2,32.9,27.8,32.9L27.8,32.9z"/>
		<path id="SVGCleanerId_0" class="st36" d="M26.2,36c-0.6,0.7-1.7,0.7-2.3,0.1c-0.7-0.6-0.7-1.7-0.1-2.3c0.6-0.7,1.7-0.7,2.3-0.1
			c0.6,0.5,0.7,1.4,0.3,2c0.1,0.1,0.1,0.2,0.2,0.3c0.6-0.9,0.4-2.2-0.5-2.8c-0.9-0.6-2.2-0.4-2.8,0.5c-0.6,0.9-0.4,2.2,0.5,2.8
			c0.8,0.5,1.9,0.4,2.6-0.3C26.3,36.2,26.2,36.1,26.2,36z"/>
		<path id="SVGCleanerId_0-2" class="st36" d="M26.2,36c-0.6,0.7-1.7,0.7-2.3,0.1c-0.7-0.6-0.7-1.7-0.1-2.3c0.6-0.7,1.7-0.7,2.3-0.1
			c0.6,0.5,0.7,1.4,0.3,2c0.1,0.1,0.1,0.2,0.2,0.3c0.6-0.9,0.4-2.2-0.5-2.8c-0.9-0.6-2.2-0.4-2.8,0.5c-0.6,0.9-0.4,2.2,0.5,2.8
			c0.8,0.5,1.9,0.4,2.6-0.3C26.3,36.2,26.2,36.1,26.2,36z"/>
		<path class="st38" d="M27.2,30.9c-0.2-0.2-0.6-0.2-0.8,0l0,0c-0.2-0.2-0.6-0.2-0.8,0s-0.2,0.6,0,0.8l0.8,0.8l0,0c0,0,0.1,0,0.1,0
			c0,0,0.1,0,0.1,0l0,0l0.8-0.8C27.5,31.5,27.5,31.2,27.2,30.9C27.2,30.9,27.2,30.9,27.2,30.9z"/>
		<text transform="matrix(1 0 0 1 24.6977 39.3563)" class="st6 st39">belgian ipa</text>
		<text transform="matrix(1 0 0 1 22.6 38.2821)" class="st8 st25">HOPPILY EVER AFTER</text>
	</g>
	<g id="labelBeer5" class="st3">
		<circle id="bg" class="st40" cx="26.4" cy="35.1" r="5.8"/>
		<path class="st41" d="M29,32.9L29,32.9l-0.6-0.7l-0.9-0.3l-0.9,0.3l-0.6,0.7v0.6H25V33h0c0.2,0,0.3-0.2,0.3-0.3c0,0,0,0,0-0.1
			L25.2,32c0-0.2-0.2-0.3-0.4-0.3c-0.1,0-0.3,0.1-0.3,0.3l-0.1,0.6c0,0.2,0.1,0.4,0.3,0.4c0,0,0,0,0.1,0h0v0.4h-0.7v-0.7
			c0.2-0.1,0.4-0.3,0.4-0.5v-0.7c0-0.3-0.2-0.5-0.5-0.5c-0.3,0-0.5,0.2-0.5,0.5v0.7c0,0.2,0.2,0.4,0.4,0.5v0.7h-0.4v3.7h6.1v-4
			L29,32.9z M26.3,32.9l0.5-0.6l0.8-0.3l0.8,0.3l0.5,0.6v0.6H28v-0.6h-1v0.6h-0.7V32.9z M27.8,33v0.4h-0.2V33H27.8z M27.4,33v0.4
			h-0.2V33H27.4z M24.7,32.8c-0.1,0-0.1-0.1-0.1-0.1l0,0c0,0,0,0,0,0l0.1-0.6c0-0.1,0.1-0.1,0.2-0.1c0.1,0,0.1,0.1,0.1,0.1l0.1,0.6
			c0,0.1,0,0.2-0.1,0.2h0h0v-0.2h-0.2L24.7,32.8L24.7,32.8z M23.6,32.2v-0.7c0-0.2,0.1-0.3,0.3-0.3c0.2,0,0.3,0.1,0.3,0.3
			c0,0,0,0,0,0v0.7c0,0.1-0.1,0.2-0.2,0.3v-0.4h-0.2v0.4C23.7,32.5,23.6,32.4,23.6,32.2L23.6,32.2z M23.6,33.7H25L23.6,35V33.7z
			 M23.6,35.3l1.7-1.7h0.1l-1.8,2.7V35.3z M23.6,36.9v-0.2l2-3.1h0.1l-1.3,3.3L23.6,36.9L23.6,36.9z M24.7,36.9l1.3-3.3h0.1
			l-0.6,3.3H24.7z M26.4,36.9h-0.7l0.6-3.3h0.1L26.4,36.9z M26.6,36.9v-3.3h0.1l0.6,3.3H26.6z M27.5,36.9l-0.6-3.3H27l1.3,3.3H27.5z
			 M29.4,36.9h-0.8l-1.3-3.3h0.1l2,3.1V36.9z M29.4,36.4l-1.8-2.7h0.1l1.7,1.7C29.4,35.4,29.4,36.4,29.4,36.4z M29.4,35L28,33.7h1.4
			V35z M29.4,33.5H29v-0.3l0.4,0.2V33.5z"/>
		<rect x="27.4" y="32.3" class="st41" width="0.2" height="0.2"/>
		<path class="st41" d="M26,31c-0.3,0-0.5,0.2-0.5,0.5s0.2,0.5,0.5,0.5c0.3,0,0.5-0.2,0.5-0.5C26.5,31.2,26.3,31,26,31
			C26,31,26,31,26,31z M26,31.7c-0.1,0-0.3-0.1-0.3-0.3c0-0.1,0.1-0.3,0.3-0.3s0.3,0.1,0.3,0.3l0,0C26.3,31.6,26.2,31.7,26,31.7z"/>
		<text transform="matrix(1 0 0 1 25.3227 39.6395)" class="st5 st6 st39">pilsner</text>
		<text transform="matrix(1 0 0 1 24.268 38.5897)" class="st5 st8 st25">MOWINTIME</text>
	</g>
	<g id="labelBeer6" class="st3">
		<circle id="bg_1_" class="st42" cx="26.4" cy="35.1" r="5.8"/>
		<text id="porter" transform="matrix(1 0 0 1 25.4281 39.744)" class="st5 st6 st39">porter</text>
		<text id="ROW26" transform="matrix(1 0 0 1 25.1039 38.9042)" class="st5 st8 st25">ROW26</text>
		<rect x="22.9" y="33.3" class="st5" width="0.7" height="1.5"/>
		<path class="st5" d="M23.7,34.9h-0.7c-0.1,0-0.1-0.1-0.1-0.1v-1.5c0-0.1,0.1-0.1,0.1-0.1h0.7c0.1,0,0.1,0.1,0.1,0.1v1.5
			C23.8,34.9,23.7,34.9,23.7,34.9z M23.1,34.7h0.5v-1.2h-0.5C23.1,33.4,23.1,34.7,23.1,34.7z"/>
		<rect x="25.8" y="36" class="st5" width="1.2" height="1.2"/>
		<path class="st5" d="M27.2,37.4h-1.5v-1.5h1.5V37.4z M25.9,37.1h1v-1h-1C25.9,36.2,25.9,37.1,25.9,37.1z"/>
		<path class="st5" d="M24.8,32.6c-0.1,0-0.1-0.1-0.1-0.1v-1.4c0-0.1,0.1-0.1,0.1-0.1s0.1,0.1,0.1,0.1v1.4
			C24.9,32.5,24.8,32.6,24.8,32.6z"/>
		<path class="st5" d="M23.2,32.9c0-0.3,0.2-0.5,0.5-0.5h5.4c0.3,0,0.5,0.2,0.5,0.5v2.7c0,0.3-0.2,0.5-0.5,0.5h-5.4
			c-0.3,0-0.5-0.2-0.5-0.5C23.2,35.7,23.2,32.9,23.2,32.9z"/>
		<path class="st5" d="M29.1,36.3h-5.4c-0.3,0-0.6-0.3-0.6-0.6V33c0-0.3,0.3-0.6,0.6-0.6h5.4c0.3,0,0.6,0.3,0.6,0.6v2.7
			C29.8,36,29.5,36.3,29.1,36.3z M23.7,32.6c-0.2,0-0.4,0.2-0.4,0.4v2.7c0,0.2,0.2,0.4,0.4,0.4h5.4c0.2,0,0.4-0.2,0.4-0.4v-2.7
			c0-0.2-0.2-0.4-0.4-0.4H23.7L23.7,32.6z"/>
		<circle class="st5" cx="24.8" cy="31" r="0.3"/>
		<path class="st5" d="M24.8,31.3c-0.2,0-0.4-0.2-0.4-0.4s0.2-0.4,0.4-0.4c0.2,0,0.4,0.2,0.4,0.4S25,31.3,24.8,31.3z M24.8,30.9
			c-0.1,0-0.1,0.1-0.1,0.1c0,0.1,0.1,0.1,0.1,0.1s0.1-0.1,0.1-0.1C24.9,30.9,24.8,30.9,24.8,30.9z"/>
		<circle class="st42" cx="24.7" cy="33.9" r="0.5"/>
		<path class="st5" d="M24.7,34.6c-0.3,0-0.6-0.3-0.6-0.6c0-0.3,0.3-0.6,0.6-0.6c0.3,0,0.6,0.3,0.6,0.6C25.3,34.3,25,34.6,24.7,34.6
			z M24.7,33.6c-0.2,0-0.4,0.2-0.4,0.4c0,0.2,0.2,0.4,0.4,0.4c0.2,0,0.4-0.2,0.4-0.4C25.1,33.7,24.9,33.6,24.7,33.6z"/>
		<circle class="st42" cx="28.1" cy="33.9" r="0.5"/>
		<path class="st5" d="M28.1,34.6c-0.3,0-0.6-0.3-0.6-0.6c0-0.3,0.3-0.6,0.6-0.6c0.3,0,0.6,0.3,0.6,0.6
			C28.8,34.3,28.5,34.6,28.1,34.6z M28.1,33.6c-0.2,0-0.4,0.2-0.4,0.4c0,0.2,0.2,0.4,0.4,0.4c0.2,0,0.4-0.2,0.4-0.4
			C28.5,33.7,28.4,33.6,28.1,33.6z"/>
		<rect x="25.6" y="34.8" class="st42" width="1.7" height="0.9"/>
		<path class="st5" d="M27.3,35.8h-1.7c-0.1,0-0.1-0.1-0.1-0.1v-0.9c0-0.1,0.1-0.1,0.1-0.1h1.7c0.1,0,0.1,0.1,0.1,0.1v0.9
			C27.4,35.7,27.4,35.8,27.3,35.8z M25.7,35.5h1.5v-0.6h-1.5V35.5z"/>
		<path class="st5" d="M26,35.8c-0.1,0-0.1-0.1-0.1-0.1v-0.9c0-0.1,0.1-0.1,0.1-0.1s0.1,0.1,0.1,0.1v0.9
			C26.2,35.7,26.1,35.8,26,35.8z"/>
		<path class="st5" d="M26.4,35.8c-0.1,0-0.1-0.1-0.1-0.1v-0.9c0-0.1,0.1-0.1,0.1-0.1c0.1,0,0.1,0.1,0.1,0.1v0.9
			C26.5,35.7,26.5,35.8,26.4,35.8z"/>
		<path class="st5" d="M26.8,35.8c-0.1,0-0.1-0.1-0.1-0.1v-0.9c0-0.1,0.1-0.1,0.1-0.1c0.1,0,0.1,0.1,0.1,0.1v0.9
			C26.9,35.7,26.9,35.8,26.8,35.8z"/>
	</g>
	<g id="labelBeer7" class="st3">
		<circle id="bg_2_" class="st43" cx="26.4" cy="35.1" r="5.8"/>
		<text transform="matrix(1 0 0 1 24.6947 39.3261)" class="st5 st6 st39">belgian ale</text>
		<text transform="matrix(1 0 0 1 22.9408 38.1718)" class="st5 st8 st25">RUINED CHILDHOOD</text>
		<path class="st28" d="M23.9,35c-0.3,0-0.5,0.2-0.5,0.5v0.5c0,0.3,0.2,0.5,0.5,0.5h4.5c0.3,0,0.5-0.2,0.5-0.5v-0.5
			c0-0.3-0.2-0.5-0.5-0.5H23.9z"/>
		<path class="st28" d="M28.7,30.5c-0.4,0-0.7,0.3-0.7,0.7c0,0.4,0.3,0.7,0.7,0.7s0.7-0.3,0.7-0.7S29.1,30.5,28.7,30.5z"/>
		<path class="st44" d="M28.6,34.6c0-0.7-0.3-1.2-0.6-1.7c-0.1-0.2-0.2-0.3-0.3-0.5c-0.1-0.2-0.1-0.3,0-0.4c0.1-0.1,0.1-0.1,0.2-0.1
			c-0.1-0.2-0.2-0.4-0.2-0.7c0-0.2,0-0.3,0.1-0.4c-0.4,0-1.3,0.1-2.2,0.5c-0.5,0.3-0.9,0.7-1.2,1.2c-0.3,0.6-0.5,1.3-0.5,2.1
			L28.6,34.6L28.6,34.6z"/>
	</g>
	<g id="labelBeer8" class="st3">
		<circle id="bg_3_" class="st45" cx="26.4" cy="35.1" r="5.8"/>
		<text transform="matrix(1 0 0 1 24.8002 39.2206)" class="st5 st6 st39">belgian ale</text>
		<text transform="matrix(1 0 0 1 24.3725 38.0673)" class="st5 st8 st25">SLEIGHRIDE</text>
		<g class="st5">
			<path class="st46" d="M25.7,31.3c-0.1-0.1-0.3-0.2-0.4-0.2c-0.2,0-0.3,0.1-0.4,0.2c-0.1,0.1-0.2,0.3-0.2,0.4
				c0,0.2,0.1,0.3,0.2,0.4c0.1,0.1,0.3,0.2,0.4,0.2c0.2,0,0.3-0.1,0.4-0.2C25.9,31.9,25.9,31.5,25.7,31.3z"/>
		</g>
		<path class="st47" d="M28.6,34.4l-2.1-2.1c-0.1-0.1-0.2-0.1-0.3-0.1c-0.1,0-0.3,0.1-0.3,0.1c-0.2,0.2-0.2,0.5,0,0.7l2.1,2.1
			c0.1,0.1,0.2,0.1,0.3,0.1l0,0c0.1,0,0.3-0.1,0.3-0.1C28.8,34.9,28.8,34.6,28.6,34.4z"/>
		<g class="st5">
			<path class="st46" d="M28.3,36.4L28.3,36.4c-0.3,0-0.5-0.1-0.7-0.3l-3.8-3.8c-0.1-0.1-0.1-0.2,0-0.2c0.1-0.1,0.2-0.1,0.2,0
				l3.8,3.8c0.1,0.1,0.3,0.2,0.5,0.2s0.4-0.1,0.5-0.2c0.1-0.1,0.2-0.1,0.2,0c0.1,0.1,0.1,0.2,0,0.2C28.8,36.3,28.6,36.4,28.3,36.4z"
				/>
		</g>
	</g>
	<g id="labelBeer9" class="st3">
		<circle id="bg_4_" class="st48" cx="26.4" cy="35.1" r="5.8"/>
		<text transform="matrix(1 0 0 1 23.4389 39.5351)" class="st5 st6 st39">california common</text>
		<text transform="matrix(1 0 0 1 24.268 38.3808)" class="st5 st8 st25">STEAMPUNK</text>
		<g class="st5">
			<g>
				<path d="M27.9,33.5c-0.1-0.6-0.6-1.1-1.3-1.3c-0.5-0.1-1.1,0-1.5,0.3c-0.4,0.3-0.6,0.8-0.6,1.3l-0.4,0.7c0,0.1,0,0.1,0,0.2
					c0,0.1,0.1,0.1,0.2,0.1h0.2v0.2c0,0.3,0.3,0.6,0.6,0.6h0.2v1c0,0.1,0.1,0.2,0.2,0.2l1.5-0.4c0.1,0,0.1-0.1,0.1-0.2v-0.9
					C27.7,35,28,34.2,27.9,33.5z M26.4,34.9c-0.3,0-0.6-0.3-0.6-0.6c0-0.1,0.1-0.2,0.2-0.2s0.2,0.1,0.2,0.2c0,0.1,0.1,0.2,0.2,0.2
					c0.1,0,0.2-0.1,0.2-0.2c0-0.1,0.1-0.2,0.2-0.2s0.2,0.1,0.2,0.2C26.9,34.6,26.7,34.9,26.4,34.9z"/>
			</g>
		</g>
		<g class="st5">
			<g>
				<path d="M29.7,33.7l-1.2-0.3l1-0.7c0.1-0.1,0.1-0.1,0.1-0.2c0-0.1-0.1-0.1-0.2-0.1l-1.2,0.2l0.7-1.1c0.1-0.1,0-0.2,0-0.2
					c-0.1-0.1-0.2-0.1-0.2,0L27.5,32l0.2-1.2c0-0.1,0-0.2-0.1-0.2c-0.1,0-0.2,0-0.2,0.1l-0.7,1l-0.3-1.2c0-0.1-0.1-0.2-0.2-0.2
					c-0.1,0-0.2,0.1-0.2,0.2l-0.3,1.2l-0.7-1c-0.1-0.1-0.1-0.1-0.2-0.1s-0.1,0.1-0.1,0.2l0.2,1.2l-1.1-0.7c-0.1-0.1-0.2,0-0.2,0
					c-0.1,0.1-0.1,0.2,0,0.2l0.8,1.2c0.1-0.2,0.3-0.4,0.5-0.6c0.4-0.3,0.8-0.5,1.3-0.5c0.2,0,0.3,0,0.5,0.1c0.8,0.2,1.4,0.8,1.6,1.6
					c0.1,0.6,0,1.3-0.4,1.7l1.5,0.3c0,0,0,0,0,0c0.1,0,0.1,0,0.2-0.1c0-0.1,0-0.2-0.1-0.2l-1-0.7l1.2-0.3c0.1,0,0.2-0.1,0.2-0.2
					C29.8,33.8,29.8,33.8,29.7,33.7z"/>
			</g>
		</g>
	</g>
</g>
</svg>
