<?xml version="1.0" encoding="utf-8"?>
<!-- Generator: Adobe Illustrator 22.1.0, SVG Export Plug-In . SVG Version: 6.00 Build 0)  -->
<svg version="1.1" id="Layer_1" xmlns="http://www.w3.org/2000/svg" xmlns:xlink="http://www.w3.org/1999/xlink" x="0px" y="0px"
	 viewBox="0 0 54 80" style="enable-background:new 0 0 54 80;" xml:space="preserve">
<style type="text/css">
	.st0{fill:url(#SVGID_1_);}
	.st1{fill:#C0BCE2;}
	.st2{fill:#1F1C2C;}
	.st3{fill:#FBC333;}
	.st4{font-family:'Montserrat-Regular';}
	.st5{font-size:0.5061px;}
	.st6{font-family:'ArialMT';}
	.st7{font-size:1.1569px;}
	.st8{fill:#351D02;}
	.st9{fill:#7B7160;}
	.st10{font-size:0.4553px;}
	.st11{font-size:0.9106px;}
	.st12{fill:#7C201C;}
</style>
<g>
	<g>
		<linearGradient id="SVGID_1_" gradientUnits="userSpaceOnUse" x1="1.3733" y1="41.9621" x2="52.8313" y2="41.9621">
			<stop  offset="0" style="stop-color:#1F1C2C"/>
			<stop  offset="1" style="stop-color:#928DAB"/>
		</linearGradient>
		<path class="st0" d="M50.8,69.4c-0.3,0.6-0.8,1.5-1.7,2.2c-1.9,1.4-4.2,1.1-5.4,1c-3.6-0.4-7.3,0.2-10.9,0.1
			c-8-0.4-22,0.3-25.9-0.3c-0.6-0.1-1.3-0.3-2.1-0.7c-1-0.6-1.7-1.5-2.1-2.1c0.9-3.2,0.4-4.8-0.2-5.7c-0.4-0.5-1.1-1.1-1-1.9
			c0.1-0.8,0.8-1.1,1.2-1.6c1.2-1.4,0.2-3.1,0.2-6.5c0-3.6,1.3-7.1,0.2-8c0,0-0.4-0.3-0.7-0.6c-0.6-0.6-1-0.9-0.9-1.4
			c0-0.4,0.3-0.6,0.8-1c0.5-0.4,0.7-0.5,1-0.7c0.7-0.7,0.3-2.3,0.2-2.7c0,0-0.4-1.3,0.1-11.6c-1-0.9-1-0.9-1-0.9
			c-0.6-0.7-0.9-1-0.9-1.4c0.1-0.5,0.6-0.8,1-0.9c0.4-0.2,0.9-0.4,0.9-0.4c0,0,0.1-8.9,0.2-13c15.8,0,31.5-0.1,47.3-0.1
			c0.3,8.4,0.2,11.8,0,12.6c0,0.1-0.3,0.8,0,1.1c0.2,0.2,0.6,0,1,0.1c0.5,0.2,0.8,0.8,0.8,0.9c0.2,0.6,0.2,1.5-0.2,1.8
			c-0.5,0.4-1.6,0.1-1.6,0.1c0,0,0.2,3.7,0.3,7.7c0.1,4-0.1,4.2,0.2,5.1c0.6,1.4,1.4,2.2,1.2,3.6c-0.1,0.9-0.6,1.3-1,2.1
			c-0.7,1.3-0.5,2-0.5,6.6c0,5.1-0.4,5.7,0.4,6.9c0.5,0.7,1.1,1.3,1.1,2.3c-0.1,0.9-0.7,1.4-1.2,2C50.7,64.9,50.1,66.5,50.8,69.4z"
			/>
		<ellipse class="st1" cx="27.1" cy="18.1" rx="4.8" ry="1.9"/>
		<path class="st2" d="M24,21h6c1.7,0,3-1.3,3-3s-1.3-3-3-3h-6c-1.7,0-3,1.3-3,3S22.3,21,24,21z M24,17h6c0.6,0,1,0.4,1,1
			s-0.4,1-1,1h-6c-0.6,0-1-0.4-1-1S23.4,17,24,17z"/>
		<path class="st2" d="M54,44c0-1.3-0.8-2.4-2-2.8V28.8c1.2-0.4,2-1.5,2-2.8s-0.8-2.4-2-2.8V11c0-0.6-0.4-1-1-1H3c-0.6,0-1,0.4-1,1
			v12.2c-1.2,0.4-2,1.5-2,2.8s0.8,2.4,2,2.8v12.3c-1.2,0.4-2,1.5-2,2.8s0.8,2.4,2,2.8v12.3c-1.2,0.4-2,1.5-2,2.8s0.8,2.4,2,2.8V69
			c0,2.8,2.2,5,5,5h40c2.8,0,5-2.2,5-5v-4.2c1.2-0.4,2-1.5,2-2.8s-0.8-2.4-2-2.8V46.8C53.2,46.4,54,45.3,54,44z M50,12v11H4V12H50z
			 M3,25h48c0.6,0,1,0.4,1,1s-0.4,1-1,1H3c-0.6,0-1-0.4-1-1S2.4,25,3,25z M50,41H4V29h46V41z M47,72H7c-0.2,0-0.6,0-1.1-0.2
			c-0.1-0.1-0.6-0.2-1.1-0.7C4.1,70.3,4,69.3,4,69v-4h46v4C50,70.7,48.7,72,47,72z M51,63H3c-0.6,0-1-0.4-1-1s0.4-1,1-1h48
			c0.6,0,1,0.4,1,1S51.6,63,51,63z M4,47h46v12H4V47z M51,45H3c-0.6,0-1-0.4-1-1s0.4-1,1-1h48c0.6,0,1,0.4,1,1S51.6,45,51,45z"/>
	</g>
</g>
<g id="labelBeer0">
	<circle id="brand-2" class="st3" cx="26.4" cy="35" r="5.4"/>
	<text transform="matrix(1 0 0 1 24.9199 39.108)" class="st4 st5">h</text>
	<text transform="matrix(1 0 0 1 25.2475 39.108)" class="st4 st5">e</text>
	<text transform="matrix(1 0 0 1 25.5576 39.108)" class="st4 st5">feweiser</text>
	<text transform="matrix(1 0 0 1 24.5102 38.3619)" class="st6 st7">EL HEFE</text>
	<path class="st8" d="M28.9,37.1c-0.1-0.2-0.2-0.5-0.3-0.7c-0.1-0.1-0.1-0.2-0.2-0.3c-0.1-0.1-0.1-0.1-0.2-0.1
		c-0.1-0.1-0.2-0.1-0.3-0.2c0-0.2,0-0.3,0-0.5c0-0.1,0-0.1,0-0.2c-0.1,0-0.2,0-0.3,0c-0.1,0-0.2,0.1-0.3,0.1c0-0.1,0-0.3,0-0.4
		c0-0.1,0.1-0.2,0.1-0.3c0.1-0.2,0.2-0.3,0.2-0.5c0.1-0.2,0.2-0.4,0.3-0.7l0.5-0.3l0.2-0.1c0.1-0.1,0.4-0.3,0.5-0.7
		c0-0.1,0-0.1,0-0.2c0,0-0.1,0.1-0.2,0.1c-0.1,0-0.1,0.1-0.2,0.1c-0.2,0.1-0.3,0.1-0.5,0.1c0,0,0,0,0,0c0,0,0,0,0,0
		c0-0.1-0.1-0.2-0.1-0.3c-0.1-0.3-0.2-0.5-0.3-0.8c0-0.1-0.1-0.2-0.1-0.3c0-0.1-0.1-0.1-0.1-0.2c-0.4-0.3-1-0.3-1.3,0.1
		c-0.1,0.1-0.2,0.2-0.2,0.3c-0.1,0.1-0.2,0.3-0.2,0.5c-0.1-0.1-0.2-0.1-0.3-0.2c-0.1,0-0.2,0-0.3,0c-0.4,0.1-0.6,0.4-0.7,0.7
		c0,0.3,0.2,0.7,0.4,0.9l0.7,0.6c0,0.3,0,0.5,0,0.8c0,0.1-0.1,0.2-0.1,0.4c-0.1,0.1-0.3,0.3-0.4,0.5c0,0,0,0,0,0c0,0,0,0,0,0
		c-0.2,0-0.5,0.1-0.7,0.2c-0.2,0.1-0.5,0.2-0.7,0.3c-0.1,0.1-0.2,0.2-0.2,0.3c-0.1,0.2-0.1,0.3-0.2,0.5c0,0-0.1,0.6-0.1,0.6
		L28.9,37.1z"/>
</g>
<g id="labelBeer2">
	<circle id="brand-3" class="st9" cx="26.4" cy="35.3" r="5.7"/>
	<text transform="matrix(1 0 0 1 24.8476 39.5806)" class="st4 st10">VENOM ALE</text>
	<text transform="matrix(1 0 0 1 25.0507 38.7964)" class="st6 st11">GITHOP</text>
	<path class="st12" d="M25.7,31.7c0,0.1,0,0.1,0,0.2c0,0.1,0,0.2,0,0.2c-0.1,0.2-0.2,0.3-0.3,0.5c0,0-0.1,0-0.1,0c0,0,0,0,0,0
		c0-0.1,0-0.1-0.1-0.2c0-0.1,0-0.1,0-0.2V32c0-0.1,0-0.1,0.1-0.2c0-0.1,0.1-0.2,0.2-0.3c0.1-0.1,0.2-0.2,0.3-0.3
		c0.1-0.1,0.3-0.2,0.4-0.2c0.3,0,0.5,0,0.7,0.2c0.1,0.1,0.3,0.2,0.3,0.3c0.1,0.1,0.1,0.2,0.1,0.3c0.1,0.3,0.1,0.6,0,1
		c-0.1,0.1-0.1,0.3-0.2,0.4c-0.1,0.1-0.2,0.3-0.3,0.4c-0.1,0.1-0.2,0.1-0.3,0.2c-0.2,0.1-0.3,0.2-0.5,0.3c-0.1,0.1-0.3,0.2-0.4,0.4
		c-0.1,0.1-0.2,0.3-0.3,0.5c-0.1,0.1-0.1,0.3-0.1,0.4c0,0.1,0,0.2,0,0.3c0.1,0.1,0.2,0.2,0.3,0.3c0.1,0.1,0.2,0.2,0.3,0.2
		c0.1,0,0.2,0.1,0.4,0.1c0.2,0,0.3,0,0.5,0c0.1,0,0.2-0.1,0.3-0.1c0.1-0.1,0.2-0.2,0.2-0.3c0.1-0.1,0.1-0.2,0.1-0.3
		c0-0.1,0-0.2,0-0.3c0-0.1,0-0.2-0.1-0.3c0-0.1-0.1-0.2-0.2-0.3c-0.1-0.1-0.2-0.1-0.3-0.1c-0.1,0-0.2-0.1-0.3-0.1
		c-0.1,0-0.2,0-0.2,0c-0.1,0-0.2,0.1-0.3,0.2L25.6,35c0-0.2,0-0.4,0.2-0.5c0.2-0.2,0.4-0.4,0.7-0.4c0.2,0,0.4,0.1,0.6,0.2
		c0.2,0.1,0.4,0.3,0.5,0.6c0.1,0.3,0.1,0.7,0,1.1c0,0.1-0.1,0.2-0.2,0.3c-0.1,0.1-0.2,0.2-0.3,0.3c-0.1,0-0.2,0.1-0.3,0.1
		c-0.2,0.1-0.4,0.1-0.5,0.1c-0.1,0-0.3,0-0.4,0c-0.2,0-0.3-0.1-0.5-0.1c-0.3-0.2-0.5-0.5-0.7-0.8c0-0.1-0.1-0.3-0.1-0.4
		c0-0.1,0-0.3,0-0.4c0-0.1,0.1-0.2,0.1-0.4c0.1-0.1,0.1-0.3,0.2-0.4c0.1-0.1,0.2-0.3,0.3-0.4c0.1-0.1,0.2-0.2,0.3-0.3
		c0.1-0.1,0.2-0.1,0.2-0.2c0.1-0.1,0.3-0.1,0.4-0.2l0.5-0.5c0.1-0.1,0.1-0.2,0.1-0.3c0-0.1,0-0.2,0-0.3c0-0.2-0.1-0.5-0.2-0.6
		c-0.1-0.1-0.1-0.1-0.2-0.1c-0.1,0-0.1,0-0.2-0.1c-0.1,0-0.2,0-0.3,0c-0.1,0-0.1,0.1-0.2,0.1L25.7,31.7z"/>
</g>
</svg>
