<?xml version="1.0" encoding="utf-8"?>
<!-- Generator: Adobe Illustrator 22.1.0, SVG Export Plug-In . SVG Version: 6.00 Build 0)  -->
<svg version="1.1" id="Objects" xmlns="http://www.w3.org/2000/svg" xmlns:xlink="http://www.w3.org/1999/xlink" x="0px" y="0px"
	 viewBox="0 0 252 280.5" style="enable-background:new 0 0 252 280.5;" xml:space="preserve">
<style type="text/css">
	.st0{fill:#F29359;}
	.st1{fill:#3D3A33;}
	.st2{opacity:0.2;fill:#353434;}
	.st3{fill:#FBC333;}
	.st4{font-family:'Montserrat-Regular';}
	.st5{font-size:3.1673px;}
	.st6{font-family:'ArialMT';}
	.st7{font-size:7.2395px;}
	.st8{fill:#351D02;}
</style>
<g>
	<g>
		<g>
			<path class="st0" d="M182.8,24.8h-49.5h-24.6H59.2c-82,119.3,0,233,0,233h123.6C182.8,257.8,264.8,144.1,182.8,24.8z"/>
			<path class="st1" d="M190.7,37.2c-2.5-4.1-5.1-8.3-8-12.4h-48.9h-24.6H59.1c-2.9,4.2-5.5,8.3-8,12.4H190.7z"/>
			<path class="st1" d="M38.5,62.1h165c-1.8-4.1-3.7-8.3-5.8-12.4H44.3C42.2,53.8,40.3,58,38.5,62.1z"/>
			<path class="st1" d="M25.2,107.4h191.5c-0.7-4.1-1.5-8.3-2.5-12.4H27.7C26.7,99.1,25.9,103.3,25.2,107.4z"/>
			<path class="st1" d="M28.7,187.7h184.5c1-4,1.9-8.2,2.6-12.4H26.1C26.9,179.5,27.8,183.7,28.7,187.7z"/>
			<path class="st1" d="M202.6,220.5H39.3c1.8,4.5,3.7,8.7,5.5,12.4h152.3C198.9,229.1,200.8,225,202.6,220.5z"/>
			<path class="st1" d="M190.7,245.4H51.2c3.7,6.7,7,11,8,12.4h123.6C183.8,256.4,187,252.1,190.7,245.4z"/>
			<g>
				<path class="st1" d="M75.7,257.8C39.9,188.4,42.3,129.1,50.1,90.9c4.5-21.6,11.3-38.7,16.2-49.2c5.4-11.4,9-16.7,9.2-16.9h3.9
					c-0.2,0.2-17.6,26.2-26,67c-7.7,37.6-9.6,96.8,25.6,165.3L75.7,257.8z"/>
			</g>
			<g>
				<path class="st1" d="M103.5,257.8C72.8,192.6,74.8,133,81.6,93.9c7.3-42.3,21.6-68.7,21.8-68.9h4c-0.1,0.3-15.2,27.8-22.4,69.6
					c-6.7,38.6-8.2,98,22,162.4L103.5,257.8z"/>
			</g>
			<g>
				<path class="st1" d="M166,257.8c35.7-69.4,33.4-128.7,25.5-166.9c-4.5-21.6-11.3-38.7-16.2-49.2c-5.4-11.4-9-16.7-9.2-16.9
					l-3.4,1c0.2,0.2,17.1,25.2,25.5,66c7.7,37.6,9.6,96.8-25.6,165.3L166,257.8z"/>
			</g>
			<g>
				<path class="st1" d="M138.2,257.8c30.7-65.3,28.7-124.8,21.9-163.9c-7.3-42.3-21.7-68.9-21.9-69.1l-3.4,0.8
					c0.1,0.3,14.7,27.2,22,69c6.7,38.6,8.3,98-22,162.4L138.2,257.8z"/>
			</g>
			<g>
				<rect x="119.3" y="24.8" class="st1" width="3.4" height="233"/>
			</g>
		</g>
		<path class="st2" d="M152.1,34.8h34.6c0,0,51.6,106.4-3.9,220.4h-33.3C149.5,255.1,203.5,142.5,152.1,34.8z"/>
	</g>
</g>
<g id="labelBeer0">
	<circle id="brand-2" class="st3" cx="119.3" cy="141.3" r="33.9"/>
	<text transform="matrix(1 0 0 1 110.076 166.9938)" class="st4 st5">h</text>
	<text transform="matrix(1 0 0 1 112.1238 166.9938)" class="st4 st5">e</text>
	<text transform="matrix(1 0 0 1 114.0652 166.9938)" class="st4 st5">feweiser</text>
	<text transform="matrix(1 0 0 1 107.5105 162.32)" class="st6 st7">EL HEFE</text>
	<path class="st8" d="M134.8,154.3c-0.4-1.5-1-2.9-1.8-4.3c-0.3-0.7-0.7-1.2-1.1-1.8c-0.3-0.3-0.7-0.6-1.1-0.9
		c-0.6-0.4-1.2-0.8-1.8-1.1c0-1,0.1-2,0.2-3c0-0.4,0-0.8,0.1-1.2c-0.6,0-1.1,0-1.7,0.1c-0.6,0.1-1.1,0.4-1.7,0.5
		c0.1-0.9,0.1-1.7,0-2.6c0-0.8,0.5-1.2,0.8-1.9c0.5-1.1,1-2.2,1.4-3.3c0.7-1.4,1.4-2.8,2.1-4.2l3.3-1.8l1.1-0.6
		c0.7-0.4,2.7-1.8,3.2-4.1c0.1-0.4,0.1-0.8,0.1-1.2c0,0.1-0.9,0.5-1,0.6c-0.4,0.2-0.8,0.4-1.2,0.6c-1,0.4-2,0.6-3.1,0.7
		c0,0-0.1,0-0.1,0c0,0-0.1-0.1-0.1-0.1c-0.3-0.7-0.5-1.3-0.8-2c-0.6-1.6-1.2-3.2-1.8-4.7c-0.1-0.7-0.3-1.4-0.6-2.1
		c-0.2-0.5-0.4-0.9-0.7-1.3c-2.5-2-6.1-1.7-8.3,0.6c-0.6,0.5-1.1,1-1.5,1.6c-0.7,0.9-1.1,1.9-1.5,3c-0.6-0.5-1.4-0.9-2.2-1.1
		c-0.6-0.2-1.2-0.2-1.8-0.2c-2.2,0.5-3.9,2.3-4.2,4.5c0.3,2.2,1.2,4.2,2.7,5.7l4.3,4c0.2,1.6,0.2,3.2-0.2,4.8
		c-0.1,0.8-0.4,1.5-0.6,2.2c-0.8,0.9-1.6,1.9-2.4,2.8c0,0.1-0.1,0.1-0.2,0.1c-0.1,0-0.1,0-0.2,0c-1.5,0.2-3.1,0.5-4.5,0.9
		c-1.5,0.4-2.9,1.1-4.1,1.9c-0.6,0.5-1.1,1.2-1.3,2c-0.4,1-0.7,2.1-1,3.1c-0.1,0.3-0.8,3.8-0.7,3.8L134.8,154.3z"/>
</g>
</svg>
