<?xml version="1.0" encoding="utf-8"?>
<!-- Generator: Adobe Illustrator 22.1.0, SVG Export Plug-In . SVG Version: 6.00 Build 0)  -->
<svg version="1.1" xmlns="http://www.w3.org/2000/svg" xmlns:xlink="http://www.w3.org/1999/xlink" x="0px" y="0px"
	 viewBox="0 0 54 80" style="enable-background:new 0 0 54 80;" xml:space="preserve">
<style type="text/css">
	.st0{fill:url(#SVGID_1_);}
	.st1{fill:#C0BCE2;}
	.st2{fill:#1F1C2C;}
	.st3{display:none;}
	.st4{display:inline;fill:#FBC333;}
	.st5{display:inline;}
	.st6{font-family:'Montserrat-Regular';}
	.st7{font-size:0.5061px;}
	.st8{font-family:'ArialMT';}
	.st9{font-size:1.1569px;}
	.st10{display:inline;fill:#351D02;}
	.st11{display:inline;fill:#E8C89A;}
	.st12{display:inline;fill:#7C201C;}
	.st13{font-size:0.4472px;}
	.st14{font-size:0.8943px;}
	.st15{display:inline;fill:#3D4B50;}
	.st16{display:inline;enable-background:new    ;}
	.st17{fill:#BD2233;}
	.st18{fill:#F59332;}
	.st19{fill:#FEF035;}
	.st20{fill:#17A453;}
	.st21{fill:#1DAFEC;}
	.st22{fill:#FFFFFF;}
	.st23{display:inline;fill:#FF0093;}
	.st24{display:inline;fill:#B3703D;}
	.st25{display:inline;fill:#FFFFFF;}
	.st26{display:inline;fill:#683D1F;}
	.st27{display:inline;fill:#FFFFFE;}
	.st28{display:inline;fill:#DC2A26;}
	.st29{display:inline;fill:#E3BF9A;}
	.st30{display:inline;fill:#A8D1D8;}
	.st31{display:inline;fill:#2E2B2C;}
	.st32{display:inline;fill:#99B755;}
	.st33{display:inline;fill:#FFCE54;}
	.st34{display:inline;fill:#F6BB42;}
	.st35{display:inline;fill:#ED5565;}
	.st36{display:inline;fill:#1AA2E1;}
	.st37{display:inline;fill:#E7BB40;}
	.st38{display:inline;fill:#8E131F;}
	.st39{display:inline;fill:#21B744;}
	.st40{display:inline;fill:#BA1C1C;}
	.st41{display:inline;fill:#C41A2F;}
	.st42{fill:#FFCD00;}
	.st43{display:inline;fill:#00DBCD;}
	.st44{fill:#C9F249;}
	.st45{enable-background:new    ;}
</style>
<g id="Layer_1">
	<g>
		<g>
			
				<linearGradient id="SVGID_1_" gradientUnits="userSpaceOnUse" x1="1.3733" y1="40.0443" x2="52.8313" y2="40.0443" gradientTransform="matrix(1 0 0 -1 0 82)">
				<stop  offset="0" style="stop-color:#1F1C2C"/>
				<stop  offset="1" style="stop-color:#928DAB"/>
			</linearGradient>
			<path class="st0" d="M50.8,69.4c-0.3,0.6-0.8,1.5-1.7,2.2c-1.9,1.4-4.2,1.1-5.4,1c-3.6-0.4-7.3,0.2-10.9,0.1
				c-8-0.4-22,0.3-25.9-0.3c-0.6-0.1-1.3-0.3-2.1-0.7c-1-0.6-1.7-1.5-2.1-2.1c0.9-3.2,0.4-4.8-0.2-5.7c-0.4-0.5-1.1-1.1-1-1.9
				c0.1-0.8,0.8-1.1,1.2-1.6c1.2-1.4,0.2-3.1,0.2-6.5c0-3.6,1.3-7.1,0.2-8c0,0-0.4-0.3-0.7-0.6c-0.6-0.6-1-0.9-0.9-1.4
				c0-0.4,0.3-0.6,0.8-1s0.7-0.5,1-0.7c0.7-0.7,0.3-2.3,0.2-2.7c0,0-0.4-1.3,0.1-11.6c-1-0.9-1-0.9-1-0.9c-0.6-0.7-0.9-1-0.9-1.4
				c0.1-0.5,0.6-0.8,1-0.9c0.4-0.2,0.9-0.4,0.9-0.4s0.1-8.9,0.2-13c15.8,0,31.5-0.1,47.3-0.1c0.3,8.4,0.2,11.8,0,12.6
				c0,0.1-0.3,0.8,0,1.1c0.2,0.2,0.6,0,1,0.1c0.5,0.2,0.8,0.8,0.8,0.9c0.2,0.6,0.2,1.5-0.2,1.8c-0.5,0.4-1.6,0.1-1.6,0.1
				s0.2,3.7,0.3,7.7s-0.1,4.2,0.2,5.1c0.6,1.4,1.4,2.2,1.2,3.6c-0.1,0.9-0.6,1.3-1,2.1c-0.7,1.3-0.5,2-0.5,6.6
				c0,5.1-0.4,5.7,0.4,6.9c0.5,0.7,1.1,1.3,1.1,2.3c-0.1,0.9-0.7,1.4-1.2,2C50.7,64.9,50.1,66.5,50.8,69.4z"/>
			<ellipse class="st1" cx="27.1" cy="18.1" rx="4.8" ry="1.9"/>
			<path class="st2" d="M24,21h6c1.7,0,3-1.3,3-3s-1.3-3-3-3h-6c-1.7,0-3,1.3-3,3S22.3,21,24,21z M24,17h6c0.6,0,1,0.4,1,1
				s-0.4,1-1,1h-6c-0.6,0-1-0.4-1-1S23.4,17,24,17z"/>
			<path class="st2" d="M54,44c0-1.3-0.8-2.4-2-2.8V28.8c1.2-0.4,2-1.5,2-2.8s-0.8-2.4-2-2.8V11c0-0.6-0.4-1-1-1H3c-0.6,0-1,0.4-1,1
				v12.2c-1.2,0.4-2,1.5-2,2.8s0.8,2.4,2,2.8v12.3c-1.2,0.4-2,1.5-2,2.8s0.8,2.4,2,2.8V59c-1.2,0.4-2,1.5-2,2.8s0.8,2.4,2,2.8V69
				c0,2.8,2.2,5,5,5h40c2.8,0,5-2.2,5-5v-4.2c1.2-0.4,2-1.5,2-2.8s-0.8-2.4-2-2.8V46.8C53.2,46.4,54,45.3,54,44z M50,12v11H4V12H50z
				 M3,25h48c0.6,0,1,0.4,1,1s-0.4,1-1,1H3c-0.6,0-1-0.4-1-1S2.4,25,3,25z M50,41H4V29h46V41z M47,72H7c-0.2,0-0.6,0-1.1-0.2
				c-0.1-0.1-0.6-0.2-1.1-0.7C4.1,70.3,4,69.3,4,69v-4h46v4C50,70.7,48.7,72,47,72z M51,63H3c-0.6,0-1-0.4-1-1s0.4-1,1-1h48
				c0.6,0,1,0.4,1,1S51.6,63,51,63z M4,47h46v12H4V47z M51,45H3c-0.6,0-1-0.4-1-1s0.4-1,1-1h48c0.6,0,1,0.4,1,1S51.6,45,51,45z"/>
		</g>
	</g>
	<g id="labelBeer0" class="st3">
		<circle id="brand-2" class="st4" cx="26.4" cy="35" r="5.4"/>
		<text transform="matrix(1 0 0 1 24.9199 39.108)" class="st5 st6 st7">h</text>
		<text transform="matrix(1 0 0 1 25.2475 39.108)" class="st5 st6 st7">e</text>
		<text transform="matrix(1 0 0 1 25.5576 39.108)" class="st5 st6 st7">feweiser</text>
		<text transform="matrix(1 0 0 1 24.5102 38.3619)" class="st5 st8 st9">EL HEFE</text>
		<path class="st10" d="M28.9,37.1c-0.1-0.2-0.2-0.5-0.3-0.7c-0.1-0.1-0.1-0.2-0.2-0.3S28.3,36,28.2,36c-0.1-0.1-0.2-0.1-0.3-0.2
			c0-0.2,0-0.3,0-0.5c0-0.1,0-0.1,0-0.2c-0.1,0-0.2,0-0.3,0c-0.1,0-0.2,0.1-0.3,0.1c0-0.1,0-0.3,0-0.4c0-0.1,0.1-0.2,0.1-0.3
			c0.1-0.2,0.2-0.3,0.2-0.5c0.1-0.2,0.2-0.4,0.3-0.7l0.5-0.3l0.2-0.1c0.1-0.1,0.4-0.3,0.5-0.7c0-0.1,0-0.1,0-0.2
			c0,0-0.1,0.1-0.2,0.1s-0.1,0.1-0.2,0.1c-0.2,0.1-0.3,0.1-0.5,0.1l0,0l0,0c0-0.1-0.1-0.2-0.1-0.3c-0.1-0.3-0.2-0.5-0.3-0.8
			c0-0.1-0.1-0.2-0.1-0.3c0-0.1-0.1-0.1-0.1-0.2c-0.4-0.3-1-0.3-1.3,0.1c-0.1,0.1-0.2,0.2-0.2,0.3c-0.1,0.1-0.2,0.3-0.2,0.5
			c-0.1-0.1-0.2-0.1-0.3-0.2c-0.1,0-0.2,0-0.3,0c-0.4,0.1-0.6,0.4-0.7,0.7c0,0.3,0.2,0.7,0.4,0.9l0.7,0.6c0,0.3,0,0.5,0,0.8
			c0,0.1-0.1,0.2-0.1,0.4c-0.1,0.1-0.3,0.3-0.4,0.5l0,0l0,0c-0.2,0-0.5,0.1-0.7,0.2c-0.2,0.1-0.5,0.2-0.7,0.3
			c-0.1,0.1-0.2,0.2-0.2,0.3c-0.1,0.2-0.1,0.3-0.2,0.5l-0.1,0.6L28.9,37.1z"/>
	</g>
	<g id="labelBeer2" class="st3">
		<circle id="brand-3" class="st11" cx="26.7" cy="35.1" r="5.6"/>
		<path class="st12" d="M26.2,31.5c0,0,0,0.1,0,0.2c0,0.1,0,0.2,0,0.2c0,0.1-0.1,0.1-0.1,0.2c-0.1,0.1-0.1,0.2-0.2,0.3
			c0,0-0.1,0-0.1,0c0,0,0,0,0,0c0,0,0-0.1-0.1-0.2c0-0.1,0-0.2,0-0.2c0-0.1,0-0.1,0-0.2c0-0.1,0-0.1,0.1-0.2
			c0.1-0.1,0.1-0.2,0.2-0.3c0-0.1,0.1-0.2,0.3-0.3c0.2-0.1,0.3-0.2,0.4-0.2c0.1,0,0.2,0,0.4,0c0.1,0,0.3,0.1,0.3,0.1
			c0.1,0.1,0.2,0.2,0.3,0.3c0.1,0.1,0.1,0.2,0.1,0.3c0,0.1,0.1,0.3,0.1,0.4c0,0.2,0,0.4-0.1,0.5c-0.1,0.1-0.1,0.3-0.2,0.4
			c-0.1,0.2-0.2,0.3-0.3,0.4c-0.1,0.1-0.2,0.1-0.3,0.2c-0.2,0.1-0.3,0.2-0.5,0.3c-0.1,0.1-0.3,0.2-0.4,0.4c-0.2,0.2-0.3,0.3-0.3,0.5
			c0,0.1-0.1,0.3-0.1,0.4c0,0.1,0,0.2,0,0.3c0.1,0.1,0.1,0.2,0.3,0.3c0.1,0.1,0.2,0.2,0.3,0.2c0.1,0,0.2,0.1,0.4,0.1
			c0.2,0,0.3,0,0.4,0c0.1,0,0.2-0.1,0.3-0.1c0.1-0.1,0.2-0.2,0.2-0.2c0-0.1,0.1-0.2,0.1-0.3c0-0.1,0-0.2,0-0.3c0-0.1,0-0.2-0.1-0.3
			c-0.1-0.1-0.1-0.2-0.2-0.3c-0.1,0-0.1-0.1-0.3-0.1c-0.1-0.1-0.3-0.1-0.3-0.1c-0.1,0-0.2,0-0.2,0.1c-0.1,0.1-0.2,0.1-0.3,0.2
			c-0.1,0.1-0.1,0.1-0.2,0.2c0-0.1,0-0.1,0-0.2c0-0.1,0.1-0.2,0.1-0.3c0-0.1,0.1-0.1,0.2-0.2c0.2-0.1,0.4-0.1,0.4-0.1
			c0.1,0,0.2,0,0.3,0c0.1,0,0.2,0.1,0.3,0.1c0.1,0.1,0.2,0.1,0.3,0.2c0.1,0.1,0.2,0.2,0.2,0.3c0,0.1,0.1,0.3,0.1,0.5
			c0,0.3-0.1,0.5-0.1,0.6c0,0.1-0.1,0.2-0.2,0.3c-0.1,0.1-0.2,0.2-0.3,0.3c-0.1,0-0.2,0.1-0.3,0.1c-0.2,0.1-0.4,0.1-0.5,0.1
			c-0.1,0-0.2,0-0.4,0c-0.2,0-0.3-0.1-0.4-0.1c-0.1-0.1-0.3-0.2-0.4-0.4c-0.1-0.1-0.2-0.3-0.2-0.4c0-0.1-0.1-0.2-0.1-0.4
			c0-0.2,0-0.3,0-0.4c0-0.1,0-0.2,0.1-0.3c0.1-0.2,0.2-0.3,0.2-0.4c0.1-0.1,0.2-0.2,0.3-0.4c0.1-0.1,0.2-0.2,0.3-0.3
			c0.1-0.1,0.1-0.1,0.2-0.2c0.1-0.1,0.3-0.2,0.4-0.2c0.2-0.2,0.3-0.3,0.5-0.5c0-0.1,0.1-0.2,0.1-0.3c0-0.1,0-0.2,0-0.2
			c0-0.1,0-0.2-0.1-0.4c0-0.1-0.1-0.2-0.1-0.2c0,0-0.1-0.1-0.2-0.2c-0.1,0-0.1,0-0.2-0.1c-0.1,0-0.2,0-0.3,0c-0.1,0-0.1,0.1-0.2,0.1
			C26.3,31.4,26.2,31.5,26.2,31.5z"/>
		<text transform="matrix(1 0 0 1 25.2143 39.0605)" class="st5 st6 st13">VENOM ALE</text>
		<text transform="matrix(1 0 0 1 25.4135 38.0878)" class="st5 st8 st14">GITHOP</text>
	</g>
</g>
<g id="Layer_2">
	<g id="keg">
		<g id="labelBeer0_1_" class="st3">
			<circle id="elipse" class="st15" cx="27" cy="35.1" r="5.7"/>
			<circle id="brand-2_1_" class="st4" cx="27" cy="35.1" r="5.3"/>
			<g class="st16">
				<path d="M25.8,39.2v0.1h-0.1V39h0.1V39.2c0-0.1,0-0.1,0-0.1c0,0,0,0,0,0c0,0,0.1,0,0.1,0c0,0,0,0,0,0.1v0.2h-0.1v-0.1
					C25.9,39.2,25.9,39.2,25.8,39.2C25.8,39.2,25.8,39.2,25.8,39.2C25.8,39.2,25.8,39.2,25.8,39.2z"/>
				<path d="M26.3,39.3h-0.2c0,0,0,0,0,0c0,0,0,0,0.1,0C26.2,39.3,26.2,39.3,26.3,39.3L26.3,39.3c0,0.1-0.1,0.1-0.1,0.1
					c0,0-0.1,0-0.1,0c0,0,0-0.1,0-0.1s0-0.1,0-0.1c0,0,0.1,0,0.1,0s0.1,0,0.1,0C26.2,39.2,26.3,39.2,26.3,39.3L26.3,39.3z
					 M26.1,39.2h0.2c0,0,0,0,0,0S26.2,39.2,26.1,39.2C26.1,39.2,26.1,39.2,26.1,39.2C26.1,39.2,26.1,39.2,26.1,39.2z"/>
				<path d="M26.4,39.1L26.4,39.1L26.4,39.1L26.4,39.1L26.4,39.1v0.3h-0.1L26.4,39.1L26.4,39.1L26.4,39.1L26.4,39.1L26.4,39.1
					C26.3,39.1,26.3,39.1,26.4,39.1C26.4,39,26.4,39,26.4,39.1C26.4,39,26.5,39,26.4,39.1L26.4,39.1C26.5,39.1,26.4,39.1,26.4,39.1
					C26.4,39.1,26.4,39.1,26.4,39.1C26.4,39.1,26.4,39.1,26.4,39.1z"/>
				<path d="M26.8,39.3h-0.2c0,0,0,0,0,0c0,0,0,0,0.1,0C26.7,39.3,26.7,39.3,26.8,39.3L26.8,39.3c0,0.1-0.1,0.1-0.1,0.1
					c0,0-0.1,0-0.1,0c0,0,0-0.1,0-0.1s0-0.1,0-0.1c0,0,0.1,0,0.1,0s0.1,0,0.1,0C26.7,39.2,26.8,39.2,26.8,39.3L26.8,39.3z
					 M26.6,39.2h0.2c0,0,0,0,0,0C26.7,39.2,26.7,39.2,26.6,39.2C26.6,39.2,26.6,39.2,26.6,39.2C26.6,39.2,26.6,39.2,26.6,39.2z"/>
				<path d="M26.9,39.4L26.9,39.4l-0.2-0.3h0.1L26.9,39.4l0-0.3H27l0.1,0.2l0.1-0.2h0.1l-0.1,0.3h-0.1L27,39.2L26.9,39.4z"/>
				<path d="M27.5,39.3h-0.2c0,0,0,0,0,0s0,0,0.1,0C27.4,39.3,27.5,39.3,27.5,39.3L27.5,39.3c0,0.1-0.1,0.1-0.1,0.1c0,0-0.1,0-0.1,0
					c0,0,0-0.1,0-0.1s0-0.1,0-0.1c0,0,0.1,0,0.1,0s0.1,0,0.1,0C27.5,39.2,27.5,39.2,27.5,39.3L27.5,39.3z M27.3,39.2h0.2
					c0,0,0,0,0,0C27.4,39.2,27.4,39.2,27.3,39.2C27.4,39.2,27.4,39.2,27.3,39.2C27.3,39.2,27.3,39.2,27.3,39.2z"/>
				<path d="M27.6,39.1C27.6,39.1,27.6,39,27.6,39.1C27.6,39,27.6,39,27.6,39.1C27.6,39,27.6,39,27.6,39.1
					C27.6,39,27.6,39,27.6,39.1C27.6,39,27.6,39,27.6,39.1C27.6,39,27.6,39.1,27.6,39.1C27.6,39.1,27.6,39.1,27.6,39.1
					C27.6,39.1,27.6,39.1,27.6,39.1z M27.6,39.4L27.6,39.4l-0.1-0.3h0.1V39.4z"/>
				<path d="M27.9,39.3C27.9,39.3,27.9,39.4,27.9,39.3C27.8,39.4,27.8,39.4,27.9,39.3c-0.1,0.1-0.1,0.1-0.2,0.1s0,0-0.1,0l0,0
					C27.7,39.3,27.8,39.3,27.9,39.3C27.8,39.3,27.8,39.3,27.9,39.3C27.8,39.3,27.8,39.3,27.9,39.3c-0.1,0-0.1,0-0.1,0c0,0,0,0,0,0
					c-0.1,0-0.1,0-0.1-0.1c0,0,0,0,0-0.1s0,0,0.1,0c0,0,0.1,0,0.1,0l0,0c0,0,0,0-0.1,0c0,0,0,0,0,0c0,0,0,0,0,0c0,0,0,0,0,0
					C27.8,39.2,27.8,39.2,27.9,39.3C27.8,39.2,27.8,39.2,27.9,39.3C27.8,39.2,27.8,39.2,27.9,39.3C27.9,39.2,27.9,39.3,27.9,39.3
					C27.9,39.3,27.9,39.3,27.9,39.3z"/>
				<path d="M28.2,39.3H28c0,0,0,0,0,0c0,0,0,0,0.1,0C28.1,39.3,28.1,39.3,28.2,39.3L28.2,39.3c0,0.1-0.1,0.1-0.1,0.1
					c0,0-0.1,0-0.1,0s0-0.1,0-0.1s0-0.1,0-0.1c0,0,0.1,0,0.1,0c0,0,0.1,0,0.1,0C28.2,39.2,28.2,39.2,28.2,39.3L28.2,39.3L28.2,39.3z
					 M28,39.2h0.2c0,0,0,0,0,0C28.1,39.2,28.1,39.2,28,39.2C28.1,39.2,28,39.2,28,39.2C28,39.2,28,39.2,28,39.2z"/>
				<path d="M28.4,39.2C28.4,39.2,28.4,39.2,28.4,39.2C28.3,39.2,28.3,39.2,28.4,39.2l-0.1,0.2h-0.1v-0.3L28.4,39.2L28.4,39.2
					C28.3,39.2,28.3,39.1,28.4,39.2C28.4,39.1,28.4,39.1,28.4,39.2L28.4,39.2L28.4,39.2z"/>
			</g>
			<g class="st16">
				<path d="M25.7,37.8C25.7,37.8,25.7,37.8,25.7,37.8l-0.3,0V38h0.2c0,0,0,0,0,0v0.1c0,0,0,0,0,0h-0.2v0.2h0.3c0,0,0,0,0,0v0.1
					c0,0,0,0,0,0h-0.4c0,0,0,0,0,0v-0.9c0,0,0,0,0,0h0.4c0,0,0,0,0,0V37.8z"/>
				<path d="M25.9,38.4h0.3c0,0,0,0,0,0v0.1c0,0,0,0,0,0h-0.4c0,0,0,0,0,0v-0.9c0,0,0,0,0,0h0.1c0,0,0,0,0,0V38.4z"/>
				<path d="M26.9,37.7C26.9,37.7,26.9,37.7,26.9,37.7l0.1,0c0,0,0,0,0,0v0.9c0,0,0,0,0,0h-0.1c0,0,0,0,0,0v-0.4h-0.1v0.4
					c0,0,0,0,0,0h-0.1c0,0,0,0,0,0v-0.9c0,0,0,0,0,0h0.1c0,0,0,0,0,0V38h0.1V37.7z"/>
				<path d="M27.6,37.8C27.6,37.8,27.6,37.8,27.6,37.8l-0.3,0V38h0.2c0,0,0,0,0,0v0.1c0,0,0,0,0,0h-0.2v0.2h0.3c0,0,0,0,0,0v0.1
					c0,0,0,0,0,0h-0.4c0,0,0,0,0,0v-0.9c0,0,0,0,0,0h0.4c0,0,0,0,0,0C27.6,37.7,27.6,37.8,27.6,37.8z"/>
				<path d="M28.2,37.8C28.2,37.8,28.2,37.8,28.2,37.8l-0.3,0V38h0.2c0,0,0,0,0,0v0.1c0,0,0,0,0,0h-0.2v0.4c0,0,0,0,0,0h-0.1
					c0,0,0,0,0,0v-0.9c0,0,0,0,0,0h0.4c0,0,0,0,0,0V37.8z"/>
				<path d="M28.8,37.8C28.8,37.8,28.8,37.8,28.8,37.8l-0.3,0V38h0.2c0,0,0,0,0,0v0.1c0,0,0,0,0,0h-0.2v0.2h0.3c0,0,0,0,0,0v0.1
					c0,0,0,0,0,0h-0.4c0,0,0,0,0,0v-0.9c0,0,0,0,0,0h0.4c0,0,0,0,0,0V37.8z"/>
			</g>
			<path class="st10" d="M29.4,37.2c-0.1-0.2-0.1-0.4-0.3-0.7c-0.1-0.1-0.1-0.2-0.2-0.3c0,0-0.1-0.1-0.2-0.1
				c-0.1-0.1-0.2-0.1-0.3-0.2c0-0.2,0-0.3,0-0.5c0-0.1,0-0.1,0-0.2c-0.1,0-0.2,0-0.3,0c-0.1,0-0.2,0.1-0.3,0.1c0-0.1,0-0.3,0-0.4
				c0-0.1,0.1-0.2,0.1-0.3c0.1-0.2,0.2-0.4,0.2-0.5c0.1-0.2,0.2-0.4,0.3-0.7c0.2-0.1,0.3-0.2,0.5-0.3c0.1,0,0.1-0.1,0.2-0.1
				c0.1-0.1,0.4-0.3,0.5-0.6c0-0.1,0-0.1,0-0.2c0,0-0.1,0.1-0.2,0.1c-0.1,0-0.1,0.1-0.2,0.1c-0.2,0.1-0.3,0.1-0.5,0.1c0,0,0,0,0,0
				c0,0,0,0,0,0c0-0.1-0.1-0.2-0.1-0.3c-0.1-0.3-0.2-0.5-0.3-0.7c0-0.1,0-0.2-0.1-0.3c0-0.1-0.1-0.2-0.1-0.2c-0.1,0-0.3-0.2-0.7-0.2
				c-0.4,0-0.6,0.2-0.6,0.3c-0.1,0.1-0.2,0.1-0.2,0.3c-0.1,0.2-0.2,0.3-0.2,0.5c-0.1,0-0.2-0.1-0.3-0.2c-0.1,0-0.2,0-0.3,0
				c-0.1,0-0.3,0.1-0.5,0.3c-0.1,0.2-0.2,0.3-0.2,0.4c0,0.1,0,0.3,0.1,0.4c0.1,0.2,0.2,0.4,0.3,0.5c0.2,0.2,0.4,0.4,0.7,0.6
				c0,0.2,0,0.5,0,0.8c0,0.1-0.1,0.3-0.1,0.3c-0.1,0.1-0.3,0.3-0.4,0.4c0,0,0,0,0,0c0,0,0,0,0,0c-0.2,0-0.5,0.1-0.7,0.1
				c-0.2,0.1-0.5,0.2-0.6,0.3c-0.1,0.1-0.2,0.2-0.2,0.3c-0.1,0.2-0.1,0.3-0.2,0.5c0,0-0.1,0.6-0.1,0.6
				C25.9,37.2,27.7,37.2,29.4,37.2z"/>
		</g>
		<g id="labelBeer1" class="st3">
			<g id="Rainbow" class="st5">
				<circle id="circle-2" class="st17" cx="27" cy="35.1" r="5.3"/>
				<circle id="circle-3" class="st18" cx="27" cy="35.3" r="5"/>
				<ellipse id="circle-4" class="st19" cx="27.1" cy="35.4" rx="4.8" ry="4.7"/>
				<ellipse id="circle-5" class="st20" cx="27" cy="35.6" rx="4.6" ry="4.5"/>
				<ellipse id="circle-6" class="st21" cx="27.1" cy="35.8" rx="4.4" ry="4.2"/>
				<ellipse id="circle-7" class="st22" cx="27.1" cy="36.2" rx="4.3" ry="4.2"/>
			</g>
			<path class="st23" d="M30.2,31.7L29,32.9c0,0,0.4,0.3,0.4,0.3c0,0,0,0,0,0c0,0,0,0,0,0c0.1,0,0.3,0,0.4,0c0,0,0,0,0,0
				c0,0,0,0,0,0c0,0.1,0.1,0.2,0.1,0.2c0,0-0.1-0.1-0.1-0.1c0,0,0,0,0,0c0,0,0,0,0,0c-0.2,0-0.4,0.1-0.5,0.1c0,0,0.3,0.5,0.3,0.5
				c0,0,0.2,0,0.2,0c0,0,0,0.1-0.1,0.1S29.3,34,29.2,34c0.3,0.4,0.5,0.8,0.8,1.2c0,0,0,0,0,0c0,0,0,0,0,0c0,0,0.1,0,0.1,0
				c0,0,0,0.1,0,0.1c0,0,0,0,0,0c0,0,0,0,0,0c-0.1,0.1-0.1,0.3-0.1,0.4c0,0,0,0,0,0c0,0-0.2,0-0.2,0.1c0,0,0,0,0,0
				c-0.1,0.1-0.1,0.2-0.3,0.2c-0.2,0-0.3,0-0.5,0c0,0,0,0,0,0c0,0,0,0,0-0.1c0-0.3-0.2-0.5-0.4-0.6c0,0-0.1-0.1-0.2-0.1
				c-0.2-0.1-0.5,0-0.7,0c0.1,0.3,0.1,0.7,0.2,1c0.3,0.4,0.7,0.8,1.2,1.1c0.6,0.5,1.3,0.9,1.8,1.1c-0.2,0.2-0.4,0.4-0.7,0.7
				c-0.2,0.2-0.3,0.3-0.3,0.3c-0.1,0.1-0.4,0.3-1,0.6c-0.4,0.1-0.6,0.3-1,0.3c-0.6,0.1-1.1,0.1-1.6,0c-0.1,0-0.3,0-0.5-0.1
				c-0.2,0-0.3-0.1-0.5-0.2c-0.1-0.1-0.4-0.2-0.7-0.3c-0.2-0.1-0.3-0.2-0.5-0.3c-0.1-0.1-0.3-0.2-0.4-0.3c0,0-0.2-0.2-0.4-0.4
				c-0.1-0.1-0.2-0.2-0.3-0.4c-0.4-0.5-0.4-0.6-0.4-0.6c0,0,0.1-0.1,0.3-0.1c0.2,0,0.3,0,0.4,0c0,0,0.4-0.4,0.4-0.4c0,0,0,0,0,0
				c0,0,0,0,0,0c-0.2-0.1-0.4-0.3-0.6-0.4c0.1,0.1,0.4,0,0.5,0c0.2-0.1,0.3-0.3,0.3-0.5c0,0,0,0,0,0c0,0,0,0,0,0
				c-0.1-0.1-0.2-0.1-0.3-0.1c0,0,0.2-0.2,0.2-0.3c0.1-0.1,0.1-0.2,0.2-0.3c0-0.1,0-0.2,0-0.3c0-0.1-0.1-0.1-0.2-0.1
				c0,0-0.3,0-0.4-0.1c0-0.1,0.1,0,0.1,0c0.1,0,0.2,0,0.3,0c0.2,0,0.3-0.1,0.5-0.2c0,0,0.1-0.1,0.1-0.1c0.1-0.1,0.2-0.2,0.3-0.3
				c0,0-0.2-0.3-0.2-0.3c0-0.1-0.1-0.2-0.1-0.3c0-0.1,0-0.3,0.1-0.5c0-0.1,0.1-0.2,0.1-0.3c0,0.1,0,0.2,0,0.3c0,0,0,0.1,0.1,0.1
				c0.1,0.1,0.1,0.1,0.1,0.1c0.1,0,0.2,0,0.3,0.1c0.1,0,0.1,0,0.2,0c0,0,0.1,0,0.2,0c0.1,0,0.1-0.1,0.2-0.1c0,0-0.1,0-0.1,0
				c0,0-0.1-0.1-0.1-0.1c0,0-0.1-0.1-0.1-0.1c-0.1-0.1-0.2-0.1-0.3-0.1c0.2,0,0.4,0,0.5,0c0,0,0.1,0,0.1,0c0.1,0,0.1,0,0.2,0
				c0.1,0,0.3-0.1,0.4,0c0,0,0.2,0.1,0.2,0.1c0,0,0.1-0.1,0.1-0.2c0,0,0.1-0.1,0.1-0.1c0,0,0,0,0.1,0c0,0,0.1,0,0.1,0c0,0,0,0,0,0.1
				c0,0,0,0.1,0,0.1c0,0,0.1,0,0.1,0c0,0,0.1,0,0.1,0c0-0.1,0-0.3,0-0.4c0-0.1,0-0.3,0.1-0.4c0.1,0.1,0.2,0.2,0.3,0.3
				c0.1,0.1,0.2,0.2,0.3,0.3c0.1,0,0.2,0,0.3,0c0.1,0,0.2,0,0.3,0.1c0,0,0.1,0,0.1,0c0,0,0.1,0,0.1-0.1c0,0,0-0.1,0-0.1
				c0,0,0-0.1-0.1-0.1c0,0-0.1,0-0.1,0c0,0,0,0,0.1-0.1c0,0,0.1,0,0.1,0s0,0,0,0.1c0,0,0,0.1,0,0.1C29.3,32.1,29.8,31.9,30.2,31.7z"
				/>
			<g class="st16">
				<path d="M24.8,38.5C24.8,38.5,24.8,38.5,24.8,38.5l-0.2,0v0.2h0.2c0,0,0,0,0,0v0.1c0,0,0,0,0,0h-0.2V39c0,0,0,0,0,0h-0.1
					c0,0,0,0,0,0v-0.7c0,0,0,0,0,0h0.3C24.8,38.4,24.8,38.4,24.8,38.5L24.8,38.5z"/>
				<path d="M25.1,39.1C25.1,39.1,25.1,39.1,25.1,39.1l0-0.1h-0.2l0,0.1c0,0,0,0,0,0h-0.1c0,0,0,0,0,0l0.1-0.7c0,0,0,0,0,0h0.1
					c0,0,0,0,0,0l0.1,0.7c0,0,0,0,0,0H25.1z M25,38.5l-0.1,0.3H25L25,38.5z"/>
				<path d="M25.4,38.4C25.4,38.4,25.4,38.4,25.4,38.4l0,0.7c0,0,0,0,0,0h-0.1c0,0,0,0,0,0L25.4,38.4C25.3,38.4,25.3,38.4,25.4,38.4
					L25.4,38.4z"/>
				<path d="M25.8,38.7c0,0.1,0,0.1-0.1,0.1l0.1,0.2c0,0,0,0,0,0h-0.1c0,0,0,0,0,0l-0.1-0.2h-0.1v0.2c0,0,0,0,0,0h-0.1c0,0,0,0,0,0
					v-0.7c0,0,0,0,0,0h0.2c0.1,0,0.1,0,0.1,0.1L25.8,38.7L25.8,38.7z M25.7,38.7C25.7,38.7,25.7,38.7,25.7,38.7l0-0.2c0,0,0,0,0,0
					h-0.1L25.7,38.7L25.7,38.7L25.7,38.7z"/>
				<path d="M26.3,38.4C26.3,38.4,26.3,38.4,26.3,38.4l-0.1,0.4V39c0,0,0,0,0,0H26c0,0,0,0,0,0v-0.3l-0.2-0.4c0,0,0,0,0,0h0.1
					c0,0,0,0,0,0l0.1,0.2l0.1-0.2C26.2,38.4,26.2,38.4,26.3,38.4L26.3,38.4z"/>
				<path d="M26.9,38.4C26.9,38.4,26.9,38.4,26.9,38.4L26.9,38.4c0,0.1,0,0.1,0,0.1h-0.1V39c0,0,0,0,0,0h-0.1c0,0,0,0,0,0v-0.5h-0.1
					c0,0,0,0,0,0v-0.1c0,0,0,0,0,0H26.9z"/>
				<path d="M27.2,39.1C27.2,39.1,27.2,39.1,27.2,39.1l0-0.1H27l0,0.1c0,0,0,0,0,0h-0.1c0,0,0,0,0,0l0.1-0.7c0,0,0,0,0,0h0.1
					c0,0,0,0,0,0l0.1,0.7c0,0,0,0,0,0H27.2z M27.1,38.5L27,38.8h0.1L27.1,38.5z"/>
				<path d="M27.5,38.9h0.2c0,0,0,0,0,0V39c0,0,0,0,0,0h-0.3c0,0,0,0,0,0v-0.7c0,0,0,0,0,0h0.1c0,0,0,0,0,0V38.9z"/>
				<path d="M28.1,38.5C28.1,38.5,28.1,38.5,28.1,38.5l-0.2,0v0.2H28c0,0,0,0,0,0v0.1c0,0,0,0,0,0h-0.2V39h0.2c0,0,0,0,0,0V39
					c0,0,0,0,0,0h-0.3c0,0,0,0,0,0v-0.7c0,0,0,0,0,0L28.1,38.5C28.1,38.4,28.1,38.4,28.1,38.5L28.1,38.5z"/>
				<path d="M28.7,39.1C28.7,39.1,28.7,39.1,28.7,39.1l0-0.1h-0.2l0,0.1c0,0,0,0,0,0h-0.1c0,0,0,0,0,0l0.1-0.7c0,0,0,0,0,0h0.1
					c0,0,0,0,0,0l0.1,0.7c0,0,0,0,0,0H28.7z M28.6,38.5l-0.1,0.3h0.1L28.6,38.5z"/>
				<path d="M29,38.9h0.2c0,0,0,0,0,0V39c0,0,0,0,0,0h-0.3c0,0,0,0,0,0v-0.7c0,0,0,0,0,0H29c0,0,0,0,0,0L29,38.9L29,38.9z"/>
				<path d="M29.6,38.5C29.6,38.5,29.6,38.5,29.6,38.5l-0.2,0v0.2h0.2c0,0,0,0,0,0v0.1c0,0,0,0,0,0h-0.2V39h0.2c0,0,0,0,0,0V39
					c0,0,0,0,0,0h-0.3c0,0,0,0,0,0v-0.7c0,0,0,0,0,0L29.6,38.5C29.6,38.4,29.6,38.4,29.6,38.5L29.6,38.5L29.6,38.5z"/>
			</g>
		</g>
		<g id="labelBeer2_1_" class="st3">
			<circle id="brand-3_1_" class="st11" cx="27" cy="35.1" r="5.3"/>
			<path class="st12" d="M26.6,31.8c0,0,0,0.1,0,0.1c0,0.1,0,0.2,0,0.2c0,0.1-0.1,0.1-0.1,0.2c-0.1,0.1-0.1,0.2-0.2,0.3
				c0,0,0,0-0.1,0c0,0,0,0,0,0c0,0,0-0.1-0.1-0.2c0-0.1,0-0.1,0-0.2c0-0.1,0-0.1,0-0.2c0,0,0-0.1,0-0.2c0-0.1,0.1-0.2,0.2-0.2
				c0-0.1,0.1-0.2,0.3-0.3c0.2-0.1,0.3-0.2,0.4-0.2c0.1,0,0.2,0,0.4,0c0.1,0,0.3,0.1,0.3,0.1c0.1,0.1,0.2,0.2,0.3,0.3
				c0.1,0.1,0.1,0.2,0.1,0.3c0,0.1,0.1,0.2,0.1,0.4c0,0.2,0,0.4-0.1,0.5c-0.1,0.1-0.1,0.2-0.2,0.4c-0.1,0.1-0.2,0.3-0.3,0.4
				c-0.1,0.1-0.2,0.1-0.3,0.2c-0.2,0.1-0.3,0.2-0.5,0.3c-0.1,0.1-0.2,0.2-0.4,0.3c-0.1,0.2-0.3,0.3-0.3,0.5c0,0.1-0.1,0.2-0.1,0.4
				c0,0.1,0,0.2,0,0.3c0,0.1,0.1,0.2,0.2,0.3c0.1,0.1,0.2,0.2,0.3,0.2c0.1,0,0.2,0.1,0.3,0.1c0.2,0,0.3,0,0.4,0
				c0.1,0,0.2-0.1,0.3-0.1c0.1-0.1,0.2-0.2,0.2-0.2c0-0.1,0.1-0.2,0.1-0.3c0-0.1,0-0.2,0-0.3c0-0.1,0-0.2-0.1-0.3
				c-0.1-0.1-0.1-0.2-0.2-0.3c-0.1,0-0.1-0.1-0.2-0.1c-0.1,0-0.3-0.1-0.3,0c-0.1,0-0.1,0-0.2,0c-0.1,0-0.2,0.1-0.3,0.2
				c0,0.1-0.1,0.1-0.1,0.2c0,0,0-0.1,0-0.2c0-0.1,0.1-0.2,0.1-0.2c0-0.1,0.1-0.1,0.2-0.2C27,34,27.2,34,27.3,34c0.1,0,0.2,0,0.3,0
				c0.1,0,0.2,0.1,0.3,0.1c0.1,0,0.2,0.1,0.3,0.2c0.1,0.1,0.2,0.2,0.2,0.3c0,0.1,0.1,0.3,0.1,0.5c0,0.2,0,0.4-0.1,0.6
				c0,0.1-0.1,0.2-0.2,0.3c-0.1,0.1-0.2,0.2-0.2,0.2c-0.1,0-0.2,0.1-0.3,0.1c-0.2,0.1-0.4,0.1-0.5,0.1c-0.1,0-0.2,0-0.4,0
				c-0.2,0-0.3-0.1-0.4-0.1c-0.1-0.1-0.3-0.2-0.4-0.4c-0.1-0.1-0.2-0.3-0.2-0.4c0-0.1-0.1-0.2-0.1-0.4c0-0.1,0-0.3,0-0.3
				c0-0.1,0-0.2,0.1-0.3c0.1-0.2,0.1-0.3,0.2-0.4c0.1-0.1,0.2-0.2,0.3-0.4c0.1-0.1,0.2-0.2,0.3-0.3c0.1,0,0.1-0.1,0.2-0.2
				c0.1-0.1,0.3-0.1,0.4-0.2c0.2-0.1,0.3-0.3,0.5-0.4c0-0.1,0.1-0.2,0.1-0.3c0-0.1,0-0.2,0-0.2c0-0.1,0-0.2-0.1-0.4
				c0-0.1-0.1-0.2-0.1-0.2c0,0-0.1-0.1-0.2-0.1c-0.1,0-0.1,0-0.2,0s-0.2,0-0.3,0c-0.1,0-0.1,0.1-0.2,0.1
				C26.6,31.7,26.6,31.7,26.6,31.8z"/>
			<g class="st16">
				<path d="M25.8,38.9L25.8,38.9l-0.2-0.3h0.1L25.8,38.9l0.1-0.3h0.1L25.8,38.9z"/>
				<path d="M26.2,38.6L26.2,38.6l-0.2,0v0.1h0.1v0H26v0.1h0.2v0H26v-0.3H26.2z"/>
				<path d="M26.5,38.6L26.5,38.6l0,0.3h-0.1l-0.2-0.2v0.2h0v-0.3h0l0.2,0.2V38.6z"/>
				<path d="M26.9,38.9c0,0-0.1,0-0.1,0c0,0-0.1,0-0.1,0c0,0,0-0.1,0-0.1c0,0,0-0.1,0-0.1c0,0,0.1,0,0.1,0c0,0,0.1,0,0.1,0
					c0,0,0,0.1,0,0.1C26.9,38.8,26.9,38.8,26.9,38.9z M26.8,38.7C26.8,38.7,26.8,38.7,26.8,38.7c-0.1,0-0.1,0-0.2,0c0,0,0,0,0,0.1
					c0,0,0,0.1,0,0.1c0,0,0,0,0.1,0c0,0,0.1,0,0.1,0C26.9,38.8,26.9,38.8,26.8,38.7C26.9,38.7,26.9,38.7,26.8,38.7z"/>
				<path d="M27,38.9L27,38.9l0-0.3h0.1l0.1,0.2l0.1-0.2h0.1v0.3h0v-0.2l-0.1,0.2L27,38.9l0-0.2L27,38.9L27,38.9z"/>
				<path d="M27.6,38.8L27.6,38.8L27.6,38.8l0.1-0.2h0.1l0.1,0.3h-0.1l0-0.1H27.6z M27.7,38.8l-0.1-0.1l-0.1,0.1H27.7z"/>
				<path d="M27.8,38.9v-0.3h0L27.8,38.9l0.2,0v0H27.8z"/>
				<path d="M28.3,38.6L28.3,38.6l-0.2,0v0.1h0.1v0h-0.1v0.1h0.2v0h-0.2v-0.3H28.3z"/>
			</g>
			<g class="st16">
				<path d="M25.9,37.4c0-0.1,0-0.1,0.1-0.1h0.1c0.1,0,0.1,0,0.1,0.1v0.1c0,0,0,0,0,0h-0.1c0,0,0,0,0,0v-0.1c0,0,0,0,0,0H26
					c0,0,0,0,0,0v0.4c0,0,0,0,0,0h0.1c0,0,0,0,0,0v-0.1h0c0,0,0,0,0,0v-0.1c0,0,0,0,0,0h0.1c0,0,0,0,0,0v0.2c0,0.1,0,0.1-0.1,0.1H26
					c-0.1,0-0.1,0-0.1-0.1L25.9,37.4L25.9,37.4z"/>
				<path d="M26.4,37.3C26.4,37.3,26.4,37.3,26.4,37.3l0,0.7c0,0,0,0,0,0h-0.1c0,0,0,0,0,0L26.4,37.3C26.3,37.3,26.3,37.3,26.4,37.3
					L26.4,37.3z"/>
				<path d="M26.8,37.3C26.8,37.3,26.8,37.3,26.8,37.3L26.8,37.3c0,0.1,0,0.1,0,0.1h-0.1V38c0,0,0,0,0,0h-0.1c0,0,0,0,0,0v-0.5h-0.1
					c0,0,0,0,0,0v-0.1c0,0,0,0,0,0H26.8z"/>
				<path d="M27.1,37.3C27.1,37.3,27.2,37.3,27.1,37.3L27.1,37.3c0.1,0,0.1,0,0.1,0V38c0,0,0,0,0,0h-0.1c0,0,0,0,0,0v-0.3H27V38
					c0,0,0,0,0,0h-0.1c0,0,0,0,0,0v-0.7c0,0,0,0,0,0H27c0,0,0,0,0,0v0.3h0.1V37.3z"/>
				<path d="M27.3,37.4c0-0.1,0-0.1,0.1-0.1h0.1c0.1,0,0.1,0,0.1,0.1v0.4c0,0.1,0,0.1-0.1,0.1h-0.1c-0.1,0-0.1,0-0.1-0.1
					C27.3,37.9,27.3,37.4,27.3,37.4z M27.5,37.9C27.6,37.9,27.6,37.9,27.5,37.9l0-0.4c0,0,0,0,0,0h0c0,0,0,0,0,0L27.5,37.9
					C27.4,37.9,27.5,37.9,27.5,37.9L27.5,37.9z"/>
				<path d="M27.8,37.3C27.8,37.3,27.8,37.3,27.8,37.3l0.2,0c0.1,0,0.1,0,0.1,0.1v0.2c0,0.1,0,0.1-0.1,0.1h-0.1V38c0,0,0,0,0,0h-0.1
					c0,0,0,0,0,0V37.3z M28,37.6C28,37.6,28,37.6,28,37.6l0-0.2c0,0,0,0,0,0h-0.1L28,37.6L28,37.6L28,37.6z"/>
			</g>
		</g>
		<g id="labelBeer3" class="st3">
			<circle id="brand-4" class="st24" cx="27" cy="35.1" r="5.3"/>
			<path class="st25" d="M27.1,30.3c0.3,0,0.6,0,0.8,0.1c0.7,0.2,1.4,0.7,1.7,1.4c0.2,0.4,0.2,0.9,0.2,1.3c0,0.5,0,0.9,0,1.4
				c0,0.5,0,1,0,1.5c0,0.5,0.1,1,0,1.5c0,0.2-0.1,0.6-0.4,1c-0.3,0.4-0.7,0.6-0.9,0.6c-0.3,0.1-0.8,0.3-1.3,0.3
				c-0.6,0-1.1-0.1-1.4-0.3c-0.2-0.1-0.5-0.2-0.9-0.6c-0.3-0.4-0.4-0.8-0.4-1c0-0.3,0-0.6,0-0.9c0-0.3,0-0.6,0-0.9
				c0-0.6,0-1.2,0-1.8c0-1.5,0-1.8,0.2-2.2c0.2-0.4,0.5-0.6,0.6-0.7C25.9,30.3,26.8,30.3,27.1,30.3z"/>
			<path class="st26" d="M27.1,30.5c0.3,0,0.5,0,0.8,0.1c0.7,0.2,1.3,0.6,1.6,1.3c0.2,0.4,0.2,0.8,0.2,1.3c0,0.5,0,0.9,0,1.4
				c0,0.5,0,1,0,1.5c0,0.5,0.1,1,0,1.4c0,0.2-0.1,0.6-0.4,0.9c-0.3,0.4-0.7,0.5-0.9,0.6c-0.3,0.1-0.7,0.2-1.3,0.3
				c-0.6,0-1-0.1-1.3-0.3c-0.2-0.1-0.5-0.2-0.8-0.6c-0.3-0.4-0.4-0.8-0.4-1c0-0.3,0-0.6,0-0.8c0-0.3,0-0.6,0-0.9c0-0.6,0-1.2,0-1.8
				c0-1.5,0-1.7,0.2-2.1c0.2-0.4,0.5-0.6,0.6-0.7C26,30.5,26.8,30.5,27.1,30.5z"/>
			<polygon class="st27" points="24.5,35.6 23.3,35.6 23.5,36.3 23.3,36.9 24.5,36.9 			"/>
			<polygon class="st27" points="29.7,35.6 30.9,35.6 30.7,36.3 30.9,36.9 29.7,36.9 			"/>
			<polygon class="st28" points="29.7,35.7 30.7,35.7 30.5,36.3 30.7,36.8 29.7,36.8 			"/>
			<polygon class="st28" points="24.5,35.7 23.5,35.7 23.6,36.3 23.5,36.8 24.5,36.8 			"/>
			<path class="st29" d="M26.2,32c0,0.3,0.1,0.5,0.1,0.8c0.4,0,0.7,0.1,1.1,0.1c0-0.3,0.1-0.5,0.1-0.8C27.1,32.1,26.6,32.1,26.2,32z
				"/>
			<path class="st29" d="M27.7,32.2c0,0.3,0.1,0.6,0.2,0.9l0.9-0.1l0.1-1C28.5,32,28.1,32.1,27.7,32.2z"/>
			<path class="st28" d="M26.2,30.6c0,0.3-0.1,0.5-0.2,0.9c-0.1,0.2-0.1,0.3-0.2,0.5c0.6,0,1.2,0.1,1.8,0.1c0.1,0,0.2,0,0.4,0
				c0.2,0,0.4,0,0.5,0c0.1,0,0.3-0.1,0.4-0.2c0.1-0.1,0.2-0.1,0.3-0.2c-0.1-0.1-0.2-0.2-0.2-0.4c0-0.1-0.1-0.3-0.1-0.4
				c-0.1-0.1-0.3-0.2-0.5-0.3c-0.1,0-0.4-0.2-0.9-0.2c-0.1,0-0.3,0-0.6,0C26.6,30.6,26.4,30.6,26.2,30.6z"/>
			<path class="st30" d="M26.3,32.8v0.6c0,0.1,0,0.2,0,0.3c0,0.1-0.1,0.2-0.1,0.2C26.1,34,26,34,26,34.1c-0.1,0.1-0.1,0.2-0.2,0.3
				c0,0.1-0.1,0.2-0.1,0.3c-0.1,0.3-0.2,0.5-0.2,0.7c-0.2,0.5-0.5,1.1-0.5,1.3c0,0.1,0,0.1,0,0.1c0,0.1,0,0.2,0,0.3
				c0,0.1,0,0.2,0.1,0.3c0,0.1,0.1,0.1,0.1,0.2c0,0,0.1,0,0.1,0c0.1,0,0.1,0.1,0.1,0.1c0.1,0,0.2,0,0.2,0c0.1,0,0.1-0.1,0.1-0.1
				c-0.1-0.1-0.1-0.2-0.1-0.3c-0.1-0.3-0.1-0.4-0.2-0.4c0,0,0-0.1,0-0.1c0.3-0.6,0.6-1.1,1-1.7l0.4-0.7c0.1-0.1,0.1-0.1,0.2-0.2
				c0.1-0.1,0.1-0.1,0.1-0.2c0-0.1,0-0.1,0-0.2c0,0,0-0.1,0-0.1c0-0.2,0.1-0.3,0.1-0.4s0-0.2,0.1-0.4C27,32.8,26.6,32.8,26.3,32.8z"
				/>
			<path class="st30" d="M28.8,33c0,0,0,0,0,0.4c0,0,0,0.1,0,0.1c0,0.1,0,0.3,0,0.4c0,0,0,0,0,0.1c0,0.1,0.1,0.1,0.1,0.2
				c0,0.1,0,0.1,0.1,0.2c0,0.1,0.1,0.2,0.1,0.2c0,0.1,0,0.1,0,0.2c0,0.1,0,0.2,0,0.3c0,0.1,0,0.3,0,0.4l0.1,1.4c0,0.1,0,0.1,0,0.2
				c0,0,0,0,0,0.1c0,0.1,0,0.3,0,0.4c0,0.1,0,0.2,0,0.3c0,0,0,0-0.1,0.1c0,0-0.1,0-0.1,0c0,0-0.1,0-0.2,0c-0.1,0-0.2,0-0.2,0
				c0,0,0-0.1,0-0.1c0,0,0,0,0-0.1c0,0,0-0.1,0.1-0.1c0-0.2,0.1-0.3,0.1-0.5l-0.5-1.7c0-0.1-0.1-0.3-0.1-0.4c0-0.2-0.1-0.4-0.1-0.5
				c0,0-0.1-0.1-0.1-0.2c0-0.1-0.1-0.1-0.1-0.2c0-0.1,0-0.2-0.1-0.3c0-0.2-0.1-0.4-0.1-0.5C28.5,32.8,28.7,32.9,28.8,33z"/>
			<path class="st31" d="M24.9,36.6C24.9,36.6,24.9,36.7,24.9,36.6c-0.1,0.2-0.1,0.2-0.1,0.3c0,0.1,0,0.2,0.1,0.3l0.1,0.7h0v-0.6
				l0.1,0.4c0,0,0,0.1,0,0.1c0,0,0,0.1,0,0.1c0,0,0,0,0.1,0c0.2,0.1,0.4,0.1,0.5,0.1c0,0,0,0,0,0c0,0,0,0,0,0c0-0.1,0.1-0.1,0.1-0.2
				c0-0.1-0.1-0.2-0.1-0.3c0,0-0.1,0.1-0.2,0.1c-0.1,0-0.2,0-0.2,0c0,0-0.1-0.1-0.1-0.2c-0.1-0.1-0.1-0.2-0.1-0.3
				C25,37,25,36.8,24.9,36.6z"/>
			<path class="st31" d="M29.2,36.9c0,0,0,0.1,0.1,0.1s0,0.1,0,0.1c0,0.2,0,0.5-0.1,0.7h-0.1v-0.4l0,0.4c0,0.1-0.1,0.1-0.1,0.2
				c-0.1,0-0.2,0-0.3,0c-0.1,0-0.2,0-0.3,0c0,0,0,0,0,0c0,0,0,0,0,0c0-0.1-0.1-0.2-0.1-0.4c0,0,0-0.1,0.1-0.1c0,0,0.1,0,0.2,0
				c0,0,0.1,0,0.2,0c0,0,0.1,0,0.2,0c0-0.1,0.1-0.2,0.1-0.3C29.2,37.1,29.2,37,29.2,36.9z"/>
			<rect x="24" y="35.3" class="st25" width="6.1" height="1.3"/>
			<rect x="24.1" y="35.4" class="st28" width="5.8" height="1.1"/>
			<g class="st16">
				<path class="st22" d="M25.5,35.6C25.5,35.6,25.5,35.6,25.5,35.6L25.5,35.6c0.1,0,0.1,0,0.1,0v0.7c0,0,0,0,0,0h-0.1c0,0,0,0,0,0
					V36h-0.1v0.3c0,0,0,0,0,0h-0.1c0,0,0,0,0,0v-0.7c0,0,0,0,0,0h0.1c0,0,0,0,0,0v0.3h0.1V35.6z"/>
				<path class="st22" d="M25.7,35.7c0-0.1,0-0.1,0.1-0.1h0.1c0.1,0,0.1,0,0.1,0.1v0.4c0,0.1,0,0.1-0.1,0.1h-0.1
					c-0.1,0-0.1,0-0.1-0.1V35.7z M25.9,36.2C25.9,36.2,25.9,36.2,25.9,36.2l0-0.4c0,0,0,0,0,0h0c0,0,0,0,0,0L25.9,36.2
					C25.8,36.2,25.8,36.2,25.9,36.2L25.9,36.2L25.9,36.2z"/>
				<path class="st22" d="M26.2,36.2h0.2c0,0,0,0,0,0v0.1c0,0,0,0,0,0h-0.3c0,0,0,0,0,0v-0.7c0,0,0,0,0,0h0.1c0,0,0,0,0,0V36.2z"/>
				<path class="st22" d="M26.6,36.2h0.2c0,0,0,0,0,0v0.1c0,0,0,0,0,0h-0.3c0,0,0,0,0,0v-0.7c0,0,0,0,0,0h0.1c0,0,0,0,0,0L26.6,36.2
					L26.6,36.2z"/>
				<path class="st22" d="M27.2,36.3C27.2,36.3,27.2,36.3,27.2,36.3l0-0.1h-0.2l0,0.1c0,0,0,0,0,0h-0.1c0,0,0,0,0,0l0.1-0.7
					c0,0,0,0,0,0h0.1c0,0,0,0,0,0l0.1,0.7C27.4,36.3,27.4,36.3,27.2,36.3L27.2,36.3z M27.1,35.8l-0.1,0.3h0.1L27.1,35.8z"/>
				<path class="st22" d="M27.8,35.9C27.8,35.9,27.7,35.9,27.8,35.9L27.8,35.9c0,0.1,0,0.1,0,0.1v0.2c0,0.1,0,0.1-0.1,0.1h-0.2
					c0,0,0,0,0,0v-0.7c0,0,0,0,0,0h0.2c0.1,0,0.1,0,0.1,0.1V35.9z M27.7,35.8C27.7,35.7,27.6,35.7,27.7,35.8l-0.1,0v0.2h0.1
					c0,0,0,0,0,0V35.8z M27.7,36C27.7,36,27.6,36,27.7,36l-0.1,0v0.2h0.1C27.6,36.2,27.7,36.2,27.7,36L27.7,36z"/>
				<path class="st22" d="M28.2,36.3C28.1,36.3,28.1,36.3,28.2,36.3l0-0.1H28l0,0.1c0,0,0,0,0,0h-0.1c0,0,0,0,0,0l0.1-0.7
					c0,0,0,0,0,0h0.1c0,0,0,0,0,0l0.1,0.7c0,0,0,0,0,0H28.2z M28,35.8L28,36.1h0.1L28,35.8z"/>
				<path class="st22" d="M28.7,35.8C28.7,35.8,28.6,35.8,28.7,35.8L28.7,35.8c-0.1,0-0.1,0-0.1,0v-0.1c0,0,0,0,0,0h0c0,0,0,0,0,0
					v0.4c0,0,0,0,0,0h0c0,0,0,0,0,0v-0.1c0,0,0,0,0,0h0.1c0,0,0,0,0,0v0.1c0,0.1,0,0.1-0.1,0.1h-0.1c-0.1,0-0.1,0-0.1-0.1v-0.4
					c0-0.1,0-0.1,0.1-0.1h0.1C28.6,35.6,28.6,35.6,28.7,35.8L28.7,35.8L28.7,35.8z"/>
				<path class="st22" d="M29,36.3C29,36.3,29,36.3,29,36.3L28.9,36l0,0.1v0.2c0,0,0,0,0,0h-0.1c0,0,0,0,0,0v-0.6c0,0,0,0,0,0h0.1
					c0,0,0,0,0,0v0.3l0.1-0.3c0,0,0,0,0,0h0.1c0,0,0,0,0,0L29,35.9l0.2,0.3C29.1,36.3,29.1,36.3,29,36.3L29,36.3L29,36.3z"/>
			</g>
		</g>
		<g id="labelBeer4" class="st3">
			<circle id="brand-5" class="st32" cx="27" cy="35.1" r="5.3"/>
			<path class="st33" d="M25.7,33.1c-1,0-1.9,0.8-1.9,1.9c0,1,0.8,1.9,1.9,1.9c1,0,1.9-0.8,1.9-1.9S26.7,33.1,25.7,33.1L25.7,33.1z
				 M25.7,36.4c-0.8,0-1.5-0.7-1.5-1.5c0-0.8,0.7-1.5,1.5-1.5c0.8,0,1.5,0.7,1.5,1.5l0,0C27.2,35.8,26.5,36.4,25.7,36.4z"/>
			<path class="st34" d="M28.4,33.1c-0.5,0-1,0.2-1.3,0.6c0.1,0.1,0.1,0.2,0.2,0.3c0.6-0.6,1.5-0.7,2.2-0.1c0.6,0.6,0.7,1.5,0.1,2.2
				s-1.5,0.7-2.2,0.1c-0.5-0.5-0.6-1.3-0.3-1.9c-0.1-0.1-0.1-0.2-0.2-0.3c-0.6,0.8-0.4,2,0.5,2.6c0.8,0.6,2,0.4,2.6-0.5
				s0.4-2-0.5-2.6C29.1,33.2,28.7,33.1,28.4,33.1L28.4,33.1z"/>
			<path id="SVGCleanerId_0" class="st33" d="M26.8,36c-0.6,0.6-1.5,0.7-2.1,0.1c-0.6-0.6-0.7-1.5-0.1-2.1c0.6-0.6,1.5-0.7,2.1-0.1
				c0.5,0.5,0.6,1.3,0.3,1.9c0.1,0.1,0.1,0.2,0.2,0.3c0.6-0.8,0.4-2-0.5-2.6c-0.8-0.6-2-0.4-2.6,0.5c-0.6,0.8-0.4,2,0.5,2.6
				c0.7,0.5,1.7,0.4,2.4-0.2C26.9,36.1,26.9,36,26.8,36z"/>
			<path id="SVGCleanerId_0-2" class="st33" d="M26.8,36c-0.6,0.6-1.5,0.7-2.1,0.1c-0.6-0.6-0.7-1.5-0.1-2.1
				c0.6-0.6,1.5-0.7,2.1-0.1c0.5,0.5,0.6,1.3,0.3,1.9c0.1,0.1,0.1,0.2,0.2,0.3c0.6-0.8,0.4-2-0.5-2.6c-0.8-0.6-2-0.4-2.6,0.5
				c-0.6,0.8-0.4,2,0.5,2.6c0.7,0.5,1.7,0.4,2.4-0.2C26.9,36.1,26.9,36,26.8,36z"/>
			<path class="st35" d="M27.8,31.3c-0.2-0.2-0.6-0.2-0.8,0l0,0c-0.2-0.2-0.6-0.2-0.8,0c-0.2,0.2-0.2,0.6,0,0.8l0.7,0.7l0,0
				c0,0,0,0,0.1,0c0,0,0,0,0.1,0l0,0l0.7-0.7C28,31.8,28,31.5,27.8,31.3C27.8,31.3,27.8,31.3,27.8,31.3z"/>
			<g class="st16">
				<path d="M25.7,38.7c0,0,0.1,0,0.1,0c0,0,0,0.1,0,0.1s0,0.1,0,0.1s-0.1,0-0.1,0s-0.1,0-0.1,0v0h-0.1v-0.4h0.1L25.7,38.7
					C25.6,38.7,25.6,38.7,25.7,38.7z M25.6,38.9C25.6,38.9,25.6,38.9,25.6,38.9C25.6,39,25.6,39,25.6,38.9c0.1,0.1,0.1,0.1,0.2,0.1
					c0,0,0,0,0-0.1c0,0,0,0,0-0.1C25.7,38.8,25.7,38.8,25.6,38.9C25.6,38.8,25.6,38.8,25.6,38.9C25.6,38.8,25.6,38.8,25.6,38.9z"/>
				<path d="M26.2,38.9h-0.2c0,0,0,0,0,0s0,0,0.1,0C26.1,39,26.1,39,26.2,38.9L26.2,38.9c0,0.1-0.1,0.1-0.1,0.1c0,0-0.1,0-0.1,0
					s0-0.1,0-0.1s0-0.1,0-0.1c0,0,0.1,0,0.1,0s0.1,0,0.1,0C26.2,38.8,26.2,38.8,26.2,38.9L26.2,38.9L26.2,38.9z M25.9,38.9h0.2
					c0,0,0,0,0-0.1C26.1,38.8,26.1,38.8,25.9,38.9C26,38.8,26,38.8,25.9,38.9C25.9,38.8,25.9,38.8,25.9,38.9z"/>
				<path d="M26.3,39L26.3,39l-0.1-0.4h0.1V39z"/>
				<path d="M26.7,38.7V39c0,0.1,0,0.1,0,0.1c0,0-0.1,0-0.1,0s-0.1,0-0.1,0l0,0c0,0,0.1,0,0.1,0s0.1,0,0.1,0c0,0,0,0,0-0.1v0
					c0,0,0,0,0,0s0,0-0.1,0c0,0-0.1,0-0.1,0c0,0,0-0.1,0-0.1s0-0.1,0-0.1s0.1,0,0.1,0C26.5,38.7,26.6,38.7,26.7,38.7L26.7,38.7
					L26.7,38.7L26.7,38.7z M26.4,38.9C26.4,38.9,26.4,38.9,26.4,38.9C26.5,39,26.5,39,26.4,38.9c0.1,0.1,0.1,0.1,0.1,0.1
					c0,0,0,0,0-0.1c0,0,0,0,0-0.1C26.6,38.8,26.5,38.8,26.4,38.9C26.5,38.8,26.5,38.8,26.4,38.9C26.4,38.8,26.4,38.8,26.4,38.9z"/>
				<path d="M26.8,38.7C26.8,38.7,26.8,38.6,26.8,38.7C26.8,38.6,26.8,38.6,26.8,38.7C26.8,38.6,26.8,38.6,26.8,38.7
					C26.8,38.6,26.8,38.6,26.8,38.7C26.8,38.6,26.8,38.6,26.8,38.7C26.8,38.6,26.8,38.7,26.8,38.7C26.8,38.7,26.8,38.7,26.8,38.7
					C26.8,38.7,26.8,38.7,26.8,38.7z M26.8,39L26.8,39l-0.1-0.3h0.1V39z"/>
				<path d="M27.2,39L27.2,39L27.2,39c-0.1,0-0.1,0-0.2,0c0,0-0.1,0-0.1,0c0,0,0,0,0-0.1c0,0,0,0,0-0.1c0,0,0,0,0.1,0h0.1v0
					c0,0,0-0.1-0.1-0.1c0,0-0.1,0-0.1,0l0,0c0,0,0.1,0,0.1,0c0,0,0.1,0,0.1,0c0,0,0,0,0,0.1C27.2,38.8,27.2,39,27.2,39z M27.1,38.9
					L27.1,38.9L27.1,38.9c-0.1,0-0.1,0-0.1,0c0,0,0,0,0,0C27,39,27,39,27.1,38.9C27.1,39,27.1,39,27.1,38.9
					C27.1,39,27.1,38.9,27.1,38.9z"/>
				<path d="M27.3,38.9V39h-0.1v-0.3h0.1V38.9c0-0.1,0-0.1,0-0.1c0,0,0,0,0.1,0c0,0,0.1,0,0.1,0c0,0,0,0,0,0.1V39h-0.1v-0.2
					C27.5,38.8,27.4,38.8,27.3,38.9C27.4,38.8,27.4,38.8,27.3,38.9C27.3,38.8,27.3,38.8,27.3,38.9z"/>
				<path d="M27.8,38.7C27.8,38.7,27.8,38.6,27.8,38.7C27.8,38.6,27.8,38.6,27.8,38.7C27.8,38.6,27.8,38.6,27.8,38.7
					C27.8,38.6,27.8,38.6,27.8,38.7C27.8,38.6,27.8,38.6,27.8,38.7C27.8,38.6,27.8,38.7,27.8,38.7C27.8,38.7,27.8,38.7,27.8,38.7
					C27.8,38.7,27.8,38.7,27.8,38.7z M27.8,39L27.8,39l-0.1-0.3h0.1V39z"/>
				<path d="M28.1,38.7c0,0,0.1,0,0.1,0c0,0,0,0.1,0,0.1s0,0.1,0,0.1s-0.1,0-0.1,0c0,0-0.1,0-0.1,0v0.2h-0.1v-0.4L28.1,38.7
					L28.1,38.7C28,38.7,28,38.7,28.1,38.7z M28,38.9C28,38.9,28,38.9,28,38.9C28,39,28.1,39,28,38.9c0.1,0.1,0.1,0.1,0.2,0.1
					c0,0,0,0,0-0.1c0,0,0,0,0-0.1C28.1,38.8,28.1,38.8,28,38.9C28.1,38.8,28,38.8,28,38.9C28,38.8,28,38.8,28,38.9z"/>
				<path d="M28.5,39L28.5,39L28.5,39c-0.1,0-0.1,0-0.2,0c0,0-0.1,0-0.1,0c0,0,0,0,0-0.1c0,0,0,0,0-0.1c0,0,0,0,0.1,0h0.1v0
					c0,0,0-0.1-0.1-0.1c0,0-0.1,0-0.1,0l0,0c0,0,0.1,0,0.1,0c0,0,0.1,0,0.1,0c0,0,0,0,0,0.1C28.5,38.8,28.5,39,28.5,39z M28.5,38.9
					L28.5,38.9L28.5,38.9c-0.1,0-0.1,0-0.1,0c0,0,0,0,0,0C28.4,39,28.4,39,28.5,38.9C28.4,39,28.5,39,28.5,38.9
					C28.5,39,28.5,38.9,28.5,38.9z"/>
			</g>
			<g class="st16">
				<path d="M23.8,37.4C23.8,37.4,23.8,37.4,23.8,37.4L23.8,37.4c0.1,0,0.1,0,0.1,0V38c0,0,0,0,0,0h-0.1c0,0,0,0,0,0v-0.3h-0.1V38
					c0,0,0,0,0,0h-0.1c0,0,0,0,0,0v-0.7c0,0,0,0,0,0h0.1c0,0,0,0,0,0v0.3h0.1V37.4z"/>
				<path d="M24,37.5c0-0.1,0-0.1,0.1-0.1h0.1c0.1,0,0.1,0,0.1,0.1v0.4c0,0.1,0,0.1-0.1,0.1h-0.1C24,38,24,38,24,37.9V37.5z
					 M24.2,37.9C24.2,37.9,24.2,37.9,24.2,37.9l0-0.4c0,0,0,0,0,0h0c0,0,0,0,0,0L24.2,37.9C24.1,37.9,24.1,37.9,24.2,37.9L24.2,37.9
					z"/>
				<path d="M24.4,37.4C24.4,37.4,24.4,37.4,24.4,37.4l0.2,0c0.1,0,0.1,0,0.1,0.1v0.2c0,0.1,0,0.1-0.1,0.1h-0.1V38c0,0,0,0,0,0h-0.1
					c0,0,0,0,0,0V37.4z M24.6,37.7C24.6,37.7,24.6,37.7,24.6,37.7l0-0.2c0,0,0,0,0,0h-0.1L24.6,37.7L24.6,37.7L24.6,37.7z"/>
				<path d="M24.8,37.4C24.8,37.4,24.9,37.4,24.8,37.4l0.2,0c0.1,0,0.1,0,0.1,0.1v0.2c0,0.1,0,0.1-0.1,0.1H25V38c0,0,0,0,0,0h-0.1
					c0,0,0,0,0,0V37.4z M25,37.7C25.1,37.7,25.1,37.7,25,37.7l0-0.2c0,0,0,0,0,0H25L25,37.7L25,37.7L25,37.7z"/>
				<path d="M25.4,37.4C25.4,37.4,25.4,37.4,25.4,37.4l0,0.7c0,0,0,0,0,0h-0.1c0,0,0,0,0,0L25.4,37.4C25.3,37.4,25.3,37.4,25.4,37.4
					L25.4,37.4z"/>
				<path d="M25.6,37.9h0.2c0,0,0,0,0,0V38c0,0,0,0,0,0h-0.3c0,0,0,0,0,0v-0.7c0,0,0,0,0,0h0.1c0,0,0,0,0,0L25.6,37.9L25.6,37.9z"/>
				<path d="M26.2,37.4C26.2,37.4,26.2,37.4,26.2,37.4L26,37.8V38c0,0,0,0,0,0h-0.1c0,0,0,0,0,0v-0.3l-0.2-0.4c0,0,0,0,0,0h0.1
					c0,0,0,0,0,0l0.1,0.2l0.1-0.2C26.1,37.4,26.1,37.4,26.2,37.4L26.2,37.4z"/>
				<path d="M26.8,37.5C26.8,37.5,26.8,37.5,26.8,37.5l-0.2,0v0.2h0.2c0,0,0,0,0,0v0.1c0,0,0,0,0,0h-0.2v0.2h0.2c0,0,0,0,0,0V38
					c0,0,0,0,0,0h-0.3c0,0,0,0,0,0v-0.7c0,0,0,0,0,0L26.8,37.5C26.8,37.4,26.8,37.4,26.8,37.5L26.8,37.5z"/>
				<path d="M27.2,37.4C27.2,37.4,27.3,37.4,27.2,37.4L27.1,38c0,0,0,0,0,0H27c0,0,0,0,0,0l-0.1-0.6c0,0,0,0,0,0h0.1c0,0,0,0,0,0
					l0.1,0.5l0.1-0.5C27.1,37.4,27.1,37.4,27.2,37.4L27.2,37.4z"/>
				<path d="M27.7,37.5C27.7,37.5,27.7,37.5,27.7,37.5l-0.2,0v0.2h0.2c0,0,0,0,0,0v0.1c0,0,0,0,0,0h-0.2v0.2h0.2c0,0,0,0,0,0V38
					c0,0,0,0,0,0h-0.3c0,0,0,0,0,0v-0.7c0,0,0,0,0,0L27.7,37.5C27.7,37.4,27.7,37.4,27.7,37.5L27.7,37.5z"/>
				<path d="M28.1,37.7c0,0.1,0,0.1-0.1,0.1l0.1,0.2c0,0,0,0,0,0H28c0,0,0,0,0,0l-0.1-0.2h-0.1V38c0,0,0,0,0,0h-0.1c0,0,0,0,0,0
					v-0.7c0,0,0,0,0,0H28c0.1,0,0.1,0,0.1,0.1L28.1,37.7L28.1,37.7z M27.9,37.7C28,37.7,28,37.7,27.9,37.7l0-0.2c0,0,0,0,0,0h-0.1
					L27.9,37.7L27.9,37.7L27.9,37.7z"/>
				<path d="M28.7,38C28.7,38,28.7,38,28.7,38l0-0.1h-0.2l0,0.1c0,0,0,0,0,0h-0.1c0,0,0,0,0,0l0.1-0.7c0,0,0,0,0,0h0.1c0,0,0,0,0,0
					l0.1,0.7c0,0,0,0,0,0H28.7z M28.6,37.5l-0.1,0.3h0.1L28.6,37.5z"/>
				<path d="M29.2,37.5C29.2,37.5,29.2,37.5,29.2,37.5l-0.2,0v0.2h0.2c0,0,0,0,0,0v0.1c0,0,0,0,0,0H29V38c0,0,0,0,0,0h-0.1
					c0,0,0,0,0,0v-0.7c0,0,0,0,0,0h0.3C29.2,37.4,29.2,37.4,29.2,37.5L29.2,37.5z"/>
				<path d="M29.6,37.4C29.6,37.4,29.6,37.4,29.6,37.4L29.6,37.4c0,0.1,0,0.1,0,0.1h-0.1V38c0,0,0,0,0,0h-0.1c0,0,0,0,0,0v-0.5h-0.1
					c0,0,0,0,0,0v-0.1c0,0,0,0,0,0H29.6z"/>
				<path d="M30,37.5C30,37.5,30,37.5,30,37.5l-0.2,0v0.2H30c0,0,0,0,0,0v0.1c0,0,0,0,0,0h-0.2v0.2H30c0,0,0,0,0,0V38c0,0,0,0,0,0
					h-0.3c0,0,0,0,0,0v-0.7c0,0,0,0,0,0L30,37.5C30,37.4,30,37.4,30,37.5L30,37.5z"/>
				<path d="M30.5,37.7c0,0.1,0,0.1-0.1,0.1l0.1,0.2c0,0,0,0,0,0h-0.1c0,0,0,0,0,0l-0.1-0.2h-0.1V38c0,0,0,0,0,0h-0.1c0,0,0,0,0,0
					v-0.7c0,0,0,0,0,0h0.2c0.1,0,0.1,0,0.1,0.1L30.5,37.7L30.5,37.7z M30.3,37.7C30.3,37.7,30.3,37.7,30.3,37.7l0-0.2c0,0,0,0,0,0
					h-0.1L30.3,37.7L30.3,37.7L30.3,37.7z"/>
			</g>
		</g>
		<g id="labelBeer5" class="st3">
			<circle id="bg" class="st36" cx="27" cy="35.1" r="5.3"/>
			<path class="st37" d="M29.4,33.1L29.4,33.1l-0.5-0.7l-0.8-0.3l-0.8,0.3L26.7,33v0.6h-1v-0.4h0c0.2,0,0.3-0.1,0.3-0.3
				c0,0,0,0,0-0.1l-0.1-0.6c0-0.2-0.2-0.3-0.4-0.3c-0.1,0-0.2,0.1-0.3,0.3l-0.1,0.6c0,0.2,0.1,0.3,0.3,0.4c0,0,0,0,0.1,0h0v0.4h-0.7
				v-0.7c0.2,0,0.4-0.2,0.4-0.5v-0.7c0-0.3-0.2-0.5-0.5-0.5c-0.3,0-0.5,0.2-0.5,0.5v0.7c0,0.2,0.2,0.4,0.4,0.5v0.7h-0.4V37H30v-3.7
				L29.4,33.1z M26.9,33.1l0.4-0.5l0.7-0.3l0.7,0.3l0.4,0.5v0.5h-0.6V33h-0.9v0.6h-0.7L26.9,33.1z M28.3,33.2v0.4h-0.2v-0.4H28.3z
				 M28,33.2v0.4h-0.2v-0.4H28z M25.5,33c-0.1,0-0.1-0.1-0.1-0.1l0,0c0,0,0,0,0,0l0.1-0.6c0-0.1,0.1-0.1,0.2-0.1c0,0,0.1,0,0.1,0.1
				l0.1,0.6c0,0.1,0,0.1-0.1,0.2h0h0v-0.2h-0.2L25.5,33L25.5,33z M24.5,32.5v-0.7c0-0.2,0.1-0.3,0.3-0.3c0.2,0,0.3,0.1,0.3,0.3
				c0,0,0,0,0,0v0.7c0,0.1-0.1,0.2-0.2,0.3v-0.4h-0.2v0.4C24.6,32.7,24.5,32.6,24.5,32.5L24.5,32.5z M24.5,33.8h1.3l-1.3,1.3V33.8z
				 M24.5,35.3l1.6-1.6h0.1l-1.6,2.5V35.3z M24.5,36.8v-0.2l1.8-2.9h0.1l-1.2,3L24.5,36.8L24.5,36.8z M25.5,36.8l1.2-3h0.1l-0.5,3
				H25.5z M27,36.8h-0.6l0.5-3H27L27,36.8z M27.2,36.8v-3h0.1l0.5,3H27.2z M28.1,36.8l-0.5-3h0.1l1.2,3H28.1z M29.8,36.8H29l-1.2-3
				h0.1l1.8,2.9V36.8z M29.8,36.3l-1.6-2.5h0.1l1.6,1.6C29.8,35.3,29.8,36.3,29.8,36.3z M29.8,35.1l-1.3-1.3h1.3V35.1z M29.8,33.6
				h-0.4v-0.3l0.4,0.2V33.6z"/>
			<rect x="28" y="32.6" class="st37" width="0.2" height="0.2"/>
			<path class="st37" d="M26.7,31.3c-0.2,0-0.4,0.2-0.4,0.4s0.2,0.4,0.4,0.4c0.2,0,0.4-0.2,0.4-0.4C27.1,31.5,26.9,31.3,26.7,31.3
				C26.7,31.3,26.7,31.3,26.7,31.3z M26.7,32c-0.1,0-0.2-0.1-0.2-0.2c0-0.1,0.1-0.2,0.2-0.2c0.1,0,0.2,0.1,0.2,0.2l0,0
				C26.9,31.9,26.8,32,26.7,32z"/>
			<g class="st16">
				<path d="M26.2,39c0,0,0.1,0,0.1,0c0,0,0,0.1,0,0.1s0,0.1,0,0.1c0,0-0.1,0-0.1,0s-0.1,0-0.1,0v0.2h-0.1V39L26.2,39L26.2,39
					C26.2,39,26.2,39,26.2,39z M26.1,39.1C26.1,39.2,26.2,39.2,26.1,39.1C26.2,39.2,26.2,39.2,26.1,39.1c0.1,0.1,0.1,0.1,0.2,0.1
					c0,0,0,0,0-0.1c0,0,0,0,0-0.1C26.3,39,26.3,39,26.1,39.1C26.2,39,26.2,39,26.1,39.1C26.2,39.1,26.1,39.1,26.1,39.1z"/>
				<path d="M26.5,38.9C26.5,38.9,26.5,38.9,26.5,38.9C26.5,38.9,26.5,38.9,26.5,38.9C26.5,38.9,26.5,38.9,26.5,38.9
					C26.5,38.9,26.5,38.9,26.5,38.9C26.5,38.9,26.5,38.9,26.5,38.9C26.5,38.9,26.5,38.9,26.5,38.9C26.5,38.9,26.5,38.9,26.5,38.9
					C26.5,38.9,26.5,38.9,26.5,38.9z M26.5,39.3L26.5,39.3L26.5,39h0.1V39.3z"/>
				<path d="M26.7,39.3L26.7,39.3l-0.1-0.4h0.1V39.3z"/>
				<path d="M27,39.2C27,39.2,27,39.2,27,39.2c0,0.1-0.1,0.1-0.1,0.1c0,0,0,0-0.1,0c0,0,0,0-0.1,0l0,0C26.8,39.2,26.9,39.2,27,39.2
					C26.9,39.2,26.9,39.2,27,39.2C26.9,39.2,26.9,39.2,27,39.2c0,0-0.1,0-0.1,0h0c-0.1,0-0.1,0-0.1-0.1c0,0,0,0,0-0.1c0,0,0,0,0.1,0
					c0,0,0.1,0,0.1,0l0,0c0,0,0,0-0.1,0c0,0,0,0,0,0c0,0,0,0,0,0c0,0,0,0,0,0S26.9,39.1,27,39.2C26.9,39.1,26.9,39.1,27,39.2
					C26.9,39.1,26.9,39.1,27,39.2C27,39.1,27,39.1,27,39.2C27,39.2,27,39.2,27,39.2z"/>
				<path d="M27.1,39.1v0.2h-0.1V39h0.1V39.1c0-0.1,0-0.1,0-0.1c0,0,0,0,0.1,0c0,0,0.1,0,0.1,0c0,0,0,0,0,0.1v0.2h-0.1v-0.2
					C27.3,39.1,27.2,39,27.1,39.1C27.2,39,27.2,39,27.1,39.1C27.1,39.1,27.1,39.1,27.1,39.1z"/>
				<path d="M27.7,39.2h-0.2c0,0,0,0,0,0c0,0,0,0,0.1,0C27.6,39.2,27.6,39.2,27.7,39.2L27.7,39.2c0,0.1-0.1,0.1-0.1,0.1
					c0,0-0.1,0-0.1,0c0,0,0-0.1,0-0.1s0-0.1,0-0.1c0,0,0.1,0,0.1,0c0,0,0.1,0,0.1,0S27.7,39.1,27.7,39.2L27.7,39.2L27.7,39.2z
					 M27.5,39.1h0.2c0,0,0,0,0-0.1C27.6,39,27.6,39,27.5,39.1C27.5,39,27.5,39,27.5,39.1C27.5,39.1,27.5,39.1,27.5,39.1z"/>
				<path d="M27.9,39C27.9,39,27.9,39.1,27.9,39c-0.1,0-0.1,0.1-0.1,0.1v0.1h-0.1V39L27.9,39L27.9,39C27.9,39,27.9,39,27.9,39
					C27.9,39,27.9,39,27.9,39L27.9,39L27.9,39z"/>
			</g>
			<g class="st16">
				<path d="M25.6,37.6C25.6,37.6,25.6,37.7,25.6,37.6l0,0.7c0,0,0,0,0,0h-0.1c0,0,0,0,0,0v-0.4h0l-0.1,0.4c0,0,0,0,0,0h0
					c0,0,0,0,0,0l-0.1-0.4h0v0.4c0,0,0,0,0,0h-0.1c0,0,0,0,0,0v-0.6c0,0,0,0,0,0h0.1c0,0,0,0,0,0l0.1,0.4l0.1-0.4c0,0,0,0,0,0H25.6z
					"/>
				<path d="M25.7,37.8c0-0.1,0-0.1,0.1-0.1h0.1c0.1,0,0.1,0,0.1,0.1v0.4c0,0.1,0,0.1-0.1,0.1h-0.1c-0.1,0-0.1,0-0.1-0.1V37.8z
					 M25.9,38.2C25.9,38.2,25.9,38.2,25.9,38.2l0-0.4c0,0,0,0,0,0h0c0,0,0,0,0,0L25.9,38.2C25.8,38.2,25.8,38.2,25.9,38.2L25.9,38.2
					z"/>
				<path d="M26.6,37.6C26.6,37.6,26.6,37.7,26.6,37.6l-0.1,0.7c0,0,0,0,0,0h-0.1c0,0,0,0,0,0l-0.1-0.4l-0.1,0.4c0,0,0,0,0,0h-0.1
					c0,0,0,0,0,0l-0.1-0.6c0,0,0,0,0,0h0.1c0,0,0,0,0,0l0,0.4l0,0l0.1-0.4c0,0,0,0,0,0h0c0,0,0,0,0,0l0.1,0.4l0,0l0-0.4
					C26.5,37.6,26.5,37.6,26.6,37.6L26.6,37.6L26.6,37.6z"/>
				<path d="M26.8,37.6C26.8,37.6,26.8,37.7,26.8,37.6l0,0.7c0,0,0,0,0,0h-0.1c0,0,0,0,0,0L26.8,37.6C26.7,37.6,26.7,37.6,26.8,37.6
					L26.8,37.6z"/>
				<path d="M27.3,37.6C27.3,37.6,27.3,37.7,27.3,37.6l0,0.7c0,0,0,0,0,0h-0.1c0,0,0,0,0,0L27,37.9l0,0v0.4c0,0,0,0,0,0h-0.1
					c0,0,0,0,0,0v-0.7c0,0,0,0,0,0H27c0,0,0,0,0,0l0.1,0.4h0L27.3,37.6C27.2,37.6,27.2,37.6,27.3,37.6L27.3,37.6L27.3,37.6z"/>
				<path d="M27.7,37.6C27.7,37.6,27.7,37.7,27.7,37.6L27.7,37.6c0,0.1,0,0.1,0,0.1h-0.1v0.5c0,0,0,0,0,0h-0.1c0,0,0,0,0,0v-0.5
					h-0.1c0,0,0,0,0,0v-0.1c0,0,0,0,0,0H27.7z"/>
				<path d="M27.9,37.6C27.9,37.6,27.9,37.7,27.9,37.6l0,0.7c0,0,0,0,0,0h-0.1c0,0,0,0,0,0L27.9,37.6C27.8,37.6,27.8,37.6,27.9,37.6
					L27.9,37.6z"/>
				<path d="M28.4,37.6C28.4,37.6,28.4,37.7,28.4,37.6l0,0.7c0,0,0,0,0,0h-0.1c0,0,0,0,0,0v-0.4h0l-0.1,0.4c0,0,0,0,0,0h0
					c0,0,0,0,0,0l-0.1-0.4h0v0.4c0,0,0,0,0,0h-0.1c0,0,0,0,0,0v-0.6c0,0,0,0,0,0h0.1c0,0,0,0,0,0l0.1,0.4l0.1-0.4c0,0,0,0,0,0H28.4z
					"/>
				<path d="M28.9,37.7C28.9,37.8,28.9,37.8,28.9,37.7l-0.2,0v0.2h0.2c0,0,0,0,0,0V38c0,0,0,0,0,0h-0.2v0.2h0.2c0,0,0,0,0,0v0.1
					c0,0,0,0,0,0h-0.3c0,0,0,0,0,0v-0.7c0,0,0,0,0,0L28.9,37.7C28.9,37.7,28.9,37.7,28.9,37.7C28.9,37.7,28.9,37.7,28.9,37.7z"/>
			</g>
		</g>
		<g id="labelBeer6" class="st3">
			<circle id="bg_1_" class="st38" cx="27" cy="35.1" r="5.3"/>
			<g class="st16">
				<path d="M26.3,39.1c0,0,0.1,0,0.1,0c0,0,0,0.1,0,0.1s0,0.1,0,0.1c0,0-0.1,0-0.1,0c0,0-0.1,0-0.1,0v0.2h-0.1v-0.4L26.3,39.1
					L26.3,39.1C26.3,39.1,26.3,39.1,26.3,39.1z M26.2,39.2C26.2,39.3,26.3,39.3,26.2,39.2C26.3,39.3,26.3,39.3,26.2,39.2
					c0.1,0.1,0.1,0.1,0.2,0.1c0,0,0,0,0-0.1s0,0,0-0.1C26.4,39.1,26.4,39.1,26.2,39.2C26.3,39.1,26.3,39.1,26.2,39.2
					C26.3,39.2,26.2,39.2,26.2,39.2z"/>
				<path d="M26.8,39.3c0,0-0.1,0-0.1,0s-0.1,0-0.1,0c0,0,0-0.1,0-0.1c0,0,0-0.1,0-0.1c0,0,0.1,0,0.1,0s0.1,0,0.1,0c0,0,0,0.1,0,0.1
					C26.9,39.3,26.8,39.3,26.8,39.3z M26.6,39.3C26.6,39.3,26.7,39.3,26.6,39.3c0.1,0,0.1,0,0.1,0c0,0,0,0,0-0.1c0,0,0,0,0-0.1
					c0,0,0,0-0.1,0c0,0,0,0-0.1,0C26.6,39.2,26.6,39.2,26.6,39.3C26.6,39.3,26.6,39.3,26.6,39.3z"/>
				<path d="M27.1,39.1C27.1,39.1,27,39.2,27.1,39.1c-0.1,0-0.1,0.1-0.1,0.1v0.1h-0.1v-0.3L27.1,39.1L27.1,39.1
					C27,39.1,27,39.1,27.1,39.1C27.1,39.1,27.1,39.1,27.1,39.1L27.1,39.1C27.1,39.1,27.1,39.1,27.1,39.1z"/>
				<path d="M27.2,39.1v0.2c0,0,0,0,0,0c0,0,0,0,0,0c0,0,0,0,0,0l0,0c0,0,0,0-0.1,0s0,0-0.1,0c0,0,0,0,0-0.1L27.2,39.1h-0.1v0
					L27.2,39.1L27.2,39h0.1V39.1L27.2,39.1L27.2,39.1L27.2,39.1z"/>
				<path d="M27.7,39.3h-0.2c0,0,0,0,0,0s0,0,0.1,0C27.6,39.3,27.6,39.3,27.7,39.3L27.7,39.3c0,0.1-0.1,0.1-0.1,0.1c0,0-0.1,0-0.1,0
					c0,0,0-0.1,0-0.1s0-0.1,0-0.1c0,0,0.1,0,0.1,0c0,0,0.1,0,0.1,0C27.7,39.1,27.7,39.2,27.7,39.3L27.7,39.3L27.7,39.3z M27.4,39.2
					h0.2c0,0,0,0,0-0.1C27.6,39.1,27.5,39.1,27.4,39.2C27.5,39.1,27.5,39.1,27.4,39.2C27.4,39.2,27.4,39.2,27.4,39.2z"/>
				<path d="M27.9,39.1C27.9,39.1,27.8,39.2,27.9,39.1c-0.1,0-0.1,0.1-0.1,0.1v0.1h-0.1v-0.3L27.9,39.1L27.9,39.1
					C27.8,39.1,27.8,39.1,27.9,39.1C27.9,39.1,27.9,39.1,27.9,39.1L27.9,39.1C27.9,39.1,27.9,39.1,27.9,39.1z"/>
			</g>
			<g class="st16">
				<path d="M26.2,38.3c0,0.1,0,0.1-0.1,0.1l0.1,0.2c0,0,0,0,0,0h-0.1c0,0,0,0,0,0l-0.1-0.2H26v0.2c0,0,0,0,0,0h-0.1c0,0,0,0,0,0
					v-0.7c0,0,0,0,0,0h0.2c0.1,0,0.1,0,0.1,0.1L26.2,38.3L26.2,38.3z M26.1,38.3C26.1,38.3,26.1,38.3,26.1,38.3l0-0.2c0,0,0,0,0,0
					H26L26.1,38.3L26.1,38.3L26.1,38.3z"/>
				<path d="M26.3,38.1c0-0.1,0-0.1,0.1-0.1h0.1c0.1,0,0.1,0,0.1,0.1v0.4c0,0.1,0,0.1-0.1,0.1h-0.1c-0.1,0-0.1,0-0.1-0.1V38.1z
					 M26.5,38.5C26.5,38.5,26.5,38.5,26.5,38.5l0-0.4c0,0,0,0,0,0h0c0,0,0,0,0,0L26.5,38.5C26.4,38.5,26.4,38.5,26.5,38.5L26.5,38.5
					z"/>
				<path d="M27.2,37.9C27.3,37.9,27.3,37.9,27.2,37.9l-0.1,0.7c0,0,0,0,0,0h-0.1c0,0,0,0,0,0L27,38.2l-0.1,0.4c0,0,0,0,0,0h-0.1
					c0,0,0,0,0,0l-0.1-0.6c0,0,0,0,0,0h0.1c0,0,0,0,0,0l0,0.4l0,0l0.1-0.4c0,0,0,0,0,0h0c0,0,0,0,0,0l0.1,0.4l0,0L27.2,37.9
					C27.2,37.9,27.2,37.9,27.2,37.9L27.2,37.9L27.2,37.9z"/>
				<path d="M27.5,38.4C27.5,38.4,27.5,38.4,27.5,38.4L27.5,38.4c0,0.1,0,0.1,0,0.1h0.1v0c0,0,0,0,0,0h0.1c0,0,0,0,0,0v0.1
					c0,0,0,0,0,0h-0.3c0,0,0,0,0,0v-0.3c0,0,0,0,0,0l0.2-0.1v-0.1c0,0,0,0,0,0h0c0,0,0,0,0,0v0.1c0,0,0,0,0,0h-0.1c0,0,0,0,0,0v-0.1
					c0-0.1,0-0.1,0.1-0.1h0.1c0.1,0,0.1,0,0.1,0.1v0.2c0,0,0,0,0,0L27.5,38.4z"/>
				<path d="M28,38.2c0.1,0,0.1,0,0.1,0.1v0.2c0,0.1,0,0.1-0.1,0.1h-0.1c-0.1,0-0.1,0-0.1-0.1v-0.2c0,0,0,0,0,0l0.1-0.3c0,0,0,0,0,0
					H28c0,0,0,0,0,0L28,38.2L28,38.2L28,38.2z M28,38.5C28,38.5,28,38.5,28,38.5l0-0.2c0,0,0,0,0,0h0c0,0,0,0,0,0L28,38.5
					C27.9,38.5,27.9,38.5,28,38.5L28,38.5z"/>
			</g>
			<rect x="23.8" y="33.5" class="st5" width="0.7" height="1.4"/>
			<path class="st5" d="M24.5,34.9h-0.7c-0.1,0-0.1,0-0.1-0.1v-1.4c0-0.1,0-0.1,0.1-0.1h0.7c0.1,0,0.1,0,0.1,0.1v1.4
				C24.6,34.9,24.6,34.9,24.5,34.9z M24,34.7h0.5v-1.1H24C24,33.6,24,34.7,24,34.7z"/>
			<rect x="26.5" y="36" class="st5" width="1.1" height="1.1"/>
			<path class="st5" d="M27.7,37.2h-1.4v-1.4h1.4V37.2z M26.6,37h0.9v-0.9h-0.9C26.6,36.1,26.6,37,26.6,37z"/>
			<path class="st5" d="M25.5,32.8c-0.1,0-0.1,0-0.1-0.1v-1.3c0-0.1,0-0.1,0.1-0.1s0.1,0,0.1,0.1v1.3C25.7,32.7,25.6,32.8,25.5,32.8
				z"/>
			<path class="st5" d="M24.1,33.1c0-0.3,0.2-0.5,0.5-0.5h5c0.3,0,0.5,0.2,0.5,0.5v2.5c0,0.3-0.2,0.5-0.5,0.5h-5
				c-0.3,0-0.5-0.2-0.5-0.5C24.1,35.6,24.1,33.1,24.1,33.1z"/>
			<path class="st5" d="M29.5,36.2h-5c-0.3,0-0.6-0.3-0.6-0.6v-2.5c0-0.3,0.3-0.6,0.6-0.6h5c0.3,0,0.6,0.3,0.6,0.6v2.5
				C30.1,35.9,29.9,36.2,29.5,36.2z M24.5,32.8c-0.2,0-0.3,0.2-0.3,0.3v2.5c0,0.2,0.2,0.3,0.3,0.3h5c0.2,0,0.3-0.2,0.3-0.3v-2.5
				c0-0.2-0.2-0.3-0.3-0.3H24.5L24.5,32.8z"/>
			<circle class="st5" cx="25.5" cy="31.3" r="0.2"/>
			<path class="st5" d="M25.5,31.7c-0.2,0-0.3-0.2-0.3-0.3c0-0.2,0.2-0.3,0.3-0.3s0.3,0.2,0.3,0.3C25.9,31.5,25.7,31.7,25.5,31.7z
				 M25.5,31.2c-0.1,0-0.1,0-0.1,0.1c0,0.1,0,0.1,0.1,0.1s0.1,0,0.1-0.1C25.7,31.2,25.6,31.2,25.5,31.2z"/>
			<circle class="st38" cx="25.5" cy="34" r="0.5"/>
			<path class="st5" d="M25.5,34.6c-0.3,0-0.6-0.3-0.6-0.6c0-0.3,0.3-0.6,0.6-0.6c0.3,0,0.6,0.3,0.6,0.6
				C26,34.4,25.8,34.6,25.5,34.6z M25.5,33.7c-0.2,0-0.3,0.2-0.3,0.3s0.2,0.3,0.3,0.3c0.2,0,0.3-0.2,0.3-0.3S25.6,33.7,25.5,33.7z"
				/>
			<circle class="st38" cx="28.6" cy="34" r="0.5"/>
			<path class="st5" d="M28.6,34.6c-0.3,0-0.6-0.3-0.6-0.6c0-0.3,0.3-0.6,0.6-0.6s0.6,0.3,0.6,0.6C29.2,34.4,29,34.6,28.6,34.6z
				 M28.6,33.7c-0.2,0-0.3,0.2-0.3,0.3s0.2,0.3,0.3,0.3S29,34.2,29,34S28.8,33.7,28.6,33.7z"/>
			<rect x="26.3" y="34.8" class="st38" width="1.6" height="0.8"/>
			<path class="st5" d="M27.8,35.7h-1.6c-0.1,0-0.1,0-0.1-0.1v-0.8c0-0.1,0-0.1,0.1-0.1h1.6c0.1,0,0.1,0,0.1,0.1v0.8
				C28,35.7,27.9,35.7,27.8,35.7z M26.4,35.5h1.4v-0.6h-1.4V35.5z"/>
			<path class="st5" d="M26.7,35.7c-0.1,0-0.1,0-0.1-0.1v-0.8c0-0.1,0-0.1,0.1-0.1s0.1,0,0.1,0.1v0.8C26.8,35.7,26.8,35.7,26.7,35.7
				z"/>
			<path class="st5" d="M27.1,35.7c-0.1,0-0.1,0-0.1-0.1v-0.8c0-0.1,0-0.1,0.1-0.1s0.1,0,0.1,0.1v0.8C27.2,35.7,27.1,35.7,27.1,35.7
				z"/>
			<path class="st5" d="M27.4,35.7c-0.1,0-0.1,0-0.1-0.1v-0.8c0-0.1,0-0.1,0.1-0.1s0.1,0,0.1,0.1v0.8C27.5,35.7,27.4,35.7,27.4,35.7
				z"/>
		</g>
		<g id="labelBeer7" class="st3">
			<circle id="bg_2_" class="st39" cx="27" cy="35.1" r="5.3"/>
			<g class="st16">
				<path d="M25.7,38.7c0,0,0.1,0,0.1,0c0,0,0,0.1,0,0.1s0,0.1,0,0.1c0,0-0.1,0-0.1,0s-0.1,0-0.1,0v0h-0.1v-0.4h0.1L25.7,38.7
					C25.6,38.7,25.6,38.7,25.7,38.7z M25.6,38.8C25.6,38.9,25.6,38.9,25.6,38.8C25.6,38.9,25.6,38.9,25.6,38.8
					c0.1,0.1,0.1,0.1,0.2,0.1c0,0,0,0,0-0.1c0,0,0,0,0-0.1C25.7,38.8,25.7,38.7,25.6,38.8C25.6,38.7,25.6,38.8,25.6,38.8
					C25.6,38.8,25.6,38.8,25.6,38.8z"/>
				<path d="M26.2,38.9h-0.2c0,0,0,0,0,0s0,0,0.1,0C26.1,38.9,26.1,38.9,26.2,38.9L26.2,38.9c0,0.1-0.1,0.1-0.1,0.1c0,0-0.1,0-0.1,0
					s0-0.1,0-0.1s0-0.1,0-0.1c0,0,0.1,0,0.1,0s0.1,0,0.1,0C26.2,38.7,26.2,38.8,26.2,38.9L26.2,38.9L26.2,38.9z M25.9,38.8h0.2
					c0,0,0,0,0-0.1C26.1,38.8,26,38.7,25.9,38.8C26,38.7,26,38.8,25.9,38.8C25.9,38.8,25.9,38.8,25.9,38.8z"/>
				<path d="M26.3,39L26.3,39l-0.1-0.4h0.1V39z"/>
				<path d="M26.7,38.7V39c0,0.1,0,0.1,0,0.1c0,0-0.1,0-0.1,0s-0.1,0-0.1,0l0,0c0,0,0.1,0,0.1,0s0.1,0,0.1,0c0,0,0,0,0-0.1v0
					c0,0,0,0,0,0c0,0,0,0-0.1,0c0,0-0.1,0-0.1,0c0,0,0-0.1,0-0.1s0-0.1,0-0.1c0,0,0.1,0,0.1,0S26.6,38.7,26.7,38.7L26.7,38.7
					L26.7,38.7L26.7,38.7z M26.4,38.8C26.4,38.9,26.4,38.9,26.4,38.8C26.5,38.9,26.5,38.9,26.4,38.8c0.1,0.1,0.1,0.1,0.1,0.1
					c0,0,0,0,0-0.1c0,0,0,0,0-0.1C26.6,38.7,26.5,38.7,26.4,38.8C26.5,38.7,26.5,38.7,26.4,38.8C26.4,38.8,26.4,38.8,26.4,38.8z"/>
				<path d="M26.8,38.6C26.8,38.6,26.8,38.6,26.8,38.6C26.8,38.6,26.8,38.6,26.8,38.6C26.8,38.6,26.8,38.6,26.8,38.6
					C26.8,38.6,26.8,38.6,26.8,38.6C26.8,38.6,26.8,38.6,26.8,38.6C26.8,38.6,26.8,38.6,26.8,38.6C26.8,38.7,26.8,38.7,26.8,38.6
					C26.8,38.7,26.8,38.6,26.8,38.6z M26.8,39L26.8,39l-0.1-0.3h0.1V39z"/>
				<path d="M27.2,39L27.2,39L27.2,39c-0.1,0-0.1,0-0.2,0c0,0-0.1,0-0.1,0c0,0,0,0,0-0.1s0,0,0-0.1c0,0,0,0,0.1,0h0.1v0
					c0,0,0-0.1-0.1-0.1c0,0-0.1,0-0.1,0l0,0c0,0,0.1,0,0.1,0c0,0,0.1,0,0.1,0c0,0,0,0,0,0.1L27.2,39L27.2,39z M27.1,38.9L27.1,38.9
					L27.1,38.9c-0.1,0-0.1,0-0.1,0c0,0,0,0,0,0C27,38.9,27,38.9,27.1,38.9C27,38.9,27.1,38.9,27.1,38.9
					C27.1,38.9,27.1,38.9,27.1,38.9z"/>
				<path d="M27.3,38.8V39h-0.1v-0.3h0.1V38.8c0-0.1,0-0.1,0-0.1c0,0,0,0,0.1,0c0,0,0.1,0,0.1,0c0,0,0,0,0,0.1V39h-0.1v-0.2
					C27.5,38.8,27.4,38.7,27.3,38.8C27.4,38.7,27.4,38.8,27.3,38.8C27.3,38.8,27.3,38.8,27.3,38.8z"/>
				<path d="M28,39L28,39L28,39c-0.1,0-0.1,0-0.2,0c0,0-0.1,0-0.1,0c0,0,0,0,0-0.1s0,0,0-0.1c0,0,0,0,0.1,0h0.1v0c0,0,0-0.1-0.1-0.1
					c0,0-0.1,0-0.1,0l0,0c0,0,0.1,0,0.1,0c0,0,0.1,0,0.1,0c0,0,0,0,0,0.1C28,38.8,28,39,28,39z M27.9,38.9L27.9,38.9L27.9,38.9
					c-0.1,0-0.1,0-0.1,0c0,0,0,0,0,0C27.8,38.9,27.9,38.9,27.9,38.9C27.9,38.9,27.9,38.9,27.9,38.9C27.9,38.9,27.9,38.9,27.9,38.9z"
					/>
				<path d="M28.2,39L28.2,39l-0.1-0.4h0.1V39z"/>
				<path d="M28.5,38.9h-0.2c0,0,0,0,0,0c0,0,0,0,0.1,0C28.4,38.9,28.5,38.9,28.5,38.9L28.5,38.9c0,0.1-0.1,0.1-0.1,0.1
					c0,0-0.1,0-0.1,0s0-0.1,0-0.1s0-0.1,0-0.1c0,0,0.1,0,0.1,0c0,0,0.1,0,0.1,0C28.5,38.7,28.5,38.8,28.5,38.9L28.5,38.9L28.5,38.9z
					 M28.3,38.8h0.2c0,0,0,0,0-0.1C28.4,38.8,28.4,38.7,28.3,38.8C28.4,38.7,28.3,38.8,28.3,38.8C28.3,38.8,28.3,38.8,28.3,38.8z"/>
			</g>
			<g class="st16">
				<path d="M24.2,37.6c0,0.1,0,0.1-0.1,0.1l0.1,0.2c0,0,0,0,0,0h-0.1c0,0,0,0,0,0l-0.1-0.2H24v0.2c0,0,0,0,0,0h-0.1c0,0,0,0,0,0
					v-0.7c0,0,0,0,0,0h0.2c0.1,0,0.1,0,0.1,0.1L24.2,37.6L24.2,37.6z M24.1,37.6C24.1,37.6,24.1,37.6,24.1,37.6l0-0.2c0,0,0,0,0,0
					H24L24.1,37.6L24.1,37.6L24.1,37.6z"/>
				<path d="M24.6,37.3C24.7,37.3,24.7,37.3,24.6,37.3l0,0.6c0,0.1,0,0.1-0.1,0.1h-0.1c-0.1,0-0.1,0-0.1-0.1v-0.5c0,0,0,0,0,0h0.1
					c0,0,0,0,0,0v0.5c0,0,0,0,0,0h0c0,0,0,0,0,0L24.6,37.3C24.6,37.3,24.6,37.3,24.6,37.3L24.6,37.3z"/>
				<path d="M24.8,37.3C24.9,37.3,24.9,37.3,24.8,37.3l0,0.7c0,0,0,0,0,0h-0.1c0,0,0,0,0,0L24.8,37.3C24.8,37.3,24.8,37.3,24.8,37.3
					L24.8,37.3z"/>
				<path d="M25.3,37.3C25.3,37.3,25.3,37.3,25.3,37.3l0,0.7c0,0,0,0,0,0h-0.1c0,0,0,0,0,0l-0.1-0.4l0,0v0.4c0,0,0,0,0,0H25
					c0,0,0,0,0,0v-0.7c0,0,0,0,0,0h0.1c0,0,0,0,0,0l0.1,0.4h0L25.3,37.3C25.2,37.2,25.2,37.2,25.3,37.3L25.3,37.3L25.3,37.3z"/>
				<path d="M25.7,37.4C25.7,37.4,25.7,37.4,25.7,37.4l-0.2,0v0.2h0.2c0,0,0,0,0,0v0.1c0,0,0,0,0,0h-0.2v0.2h0.2c0,0,0,0,0,0v0.1
					c0,0,0,0,0,0h-0.3c0,0,0,0,0,0v-0.7c0,0,0,0,0,0L25.7,37.4C25.7,37.3,25.7,37.3,25.7,37.4L25.7,37.4z"/>
				<path d="M25.8,37.3C25.8,37.3,25.8,37.3,25.8,37.3l0.2,0c0.1,0,0.1,0,0.1,0.1v0.4c0,0.1,0,0.1-0.1,0.1h-0.2c0,0,0,0,0,0V37.3z
					 M26,37.8C26,37.8,26,37.8,26,37.8l0-0.4c0,0,0,0,0,0h-0.1L26,37.8L26,37.8L26,37.8z"/>
				<path d="M26.8,37.5C26.8,37.5,26.8,37.5,26.8,37.5L26.8,37.5c-0.1,0-0.1,0-0.1,0v-0.1c0,0,0,0,0,0h0c0,0,0,0,0,0v0.4
					c0,0,0,0,0,0h0c0,0,0,0,0,0v-0.1c0,0,0,0,0,0h0.1c0,0,0,0,0,0v0.1c0,0.1,0,0.1-0.1,0.1h-0.1c-0.1,0-0.1,0-0.1-0.1v-0.4
					c0-0.1,0-0.1,0.1-0.1h0.1C26.7,37.3,26.8,37.3,26.8,37.5L26.8,37.5z"/>
				<path d="M27.1,37.3C27.1,37.3,27.1,37.3,27.1,37.3L27.1,37.3c0.1,0,0.1,0,0.1,0v0.7c0,0,0,0,0,0h-0.1c0,0,0,0,0,0v-0.3H27v0.3
					c0,0,0,0,0,0h-0.1c0,0,0,0,0,0v-0.7c0,0,0,0,0,0H27c0,0,0,0,0,0v0.3h0.1V37.3z"/>
				<path d="M27.4,37.3C27.4,37.3,27.4,37.3,27.4,37.3l0,0.7c0,0,0,0,0,0h-0.1c0,0,0,0,0,0L27.4,37.3C27.3,37.3,27.3,37.3,27.4,37.3
					L27.4,37.3z"/>
				<path d="M27.6,37.8h0.2c0,0,0,0,0,0v0.1c0,0,0,0,0,0h-0.3c0,0,0,0,0,0v-0.7c0,0,0,0,0,0h0.1c0,0,0,0,0,0L27.6,37.8L27.6,37.8z"
					/>
				<path d="M27.9,37.3C27.9,37.3,27.9,37.3,27.9,37.3l0.2,0c0.1,0,0.1,0,0.1,0.1v0.4c0,0.1,0,0.1-0.1,0.1h-0.2c0,0,0,0,0,0V37.3z
					 M28.1,37.8C28.1,37.8,28.1,37.8,28.1,37.8l0-0.4c0,0,0,0,0,0H28L28.1,37.8L28.1,37.8L28.1,37.8z"/>
				<path d="M28.6,37.3C28.6,37.3,28.6,37.3,28.6,37.3L28.6,37.3c0.1,0,0.1,0,0.1,0v0.7c0,0,0,0,0,0h-0.1c0,0,0,0,0,0v-0.3h-0.1v0.3
					c0,0,0,0,0,0h-0.1c0,0,0,0,0,0v-0.7c0,0,0,0,0,0h0.1c0,0,0,0,0,0v0.3h0.1L28.6,37.3L28.6,37.3z"/>
				<path d="M28.8,37.4c0-0.1,0-0.1,0.1-0.1H29c0.1,0,0.1,0,0.1,0.1v0.4c0,0.1,0,0.1-0.1,0.1h-0.1c-0.1,0-0.1,0-0.1-0.1V37.4z
					 M29,37.8C29,37.8,29,37.8,29,37.8l0-0.4c0,0,0,0,0,0h0c0,0,0,0,0,0L29,37.8C28.9,37.8,28.9,37.8,29,37.8L29,37.8z"/>
				<path d="M29.2,37.4c0-0.1,0-0.1,0.1-0.1h0.1c0.1,0,0.1,0,0.1,0.1v0.4c0,0.1,0,0.1-0.1,0.1h-0.1c-0.1,0-0.1,0-0.1-0.1V37.4z
					 M29.4,37.8C29.4,37.8,29.4,37.8,29.4,37.8l0-0.4c0,0,0,0,0,0h0c0,0,0,0,0,0L29.4,37.8C29.3,37.8,29.3,37.8,29.4,37.8L29.4,37.8
					z"/>
				<path d="M29.6,37.3C29.6,37.3,29.6,37.3,29.6,37.3l0.2,0c0.1,0,0.1,0,0.1,0.1v0.4c0,0.1,0,0.1-0.1,0.1h-0.2c0,0,0,0,0,0V37.3z
					 M29.8,37.8C29.8,37.8,29.8,37.8,29.8,37.8l0-0.4c0,0,0,0,0,0h-0.1L29.8,37.8L29.8,37.8L29.8,37.8z"/>
			</g>
			<path class="st25" d="M24.7,35c-0.3,0-0.5,0.2-0.5,0.5V36c0,0.3,0.2,0.5,0.5,0.5h4.2c0.3,0,0.5-0.2,0.5-0.5v-0.5
				c0-0.3-0.2-0.5-0.5-0.5H24.7z"/>
			<path class="st25" d="M29.1,30.9c-0.4,0-0.7,0.3-0.7,0.7c0,0.4,0.3,0.7,0.7,0.7c0.4,0,0.7-0.3,0.7-0.7
				C29.8,31.2,29.5,30.9,29.1,30.9z"/>
			<path class="st40" d="M29,34.7c0-0.7-0.3-1.1-0.6-1.5c-0.1-0.2-0.2-0.3-0.3-0.5c-0.1-0.2-0.1-0.3,0-0.4c0-0.1,0.1-0.1,0.1-0.1
				c-0.1-0.2-0.2-0.4-0.2-0.6c0-0.1,0-0.3,0.1-0.4c-0.3,0-1.2,0-2,0.5c-0.5,0.3-0.8,0.6-1.1,1.1c-0.3,0.5-0.5,1.2-0.5,2L29,34.7
				L29,34.7z"/>
		</g>
		<g id="labelBeer8" class="st3">
			<circle id="bg_3_" class="st41" cx="27" cy="35.1" r="5.3"/>
			<g class="st16">
				<path d="M25.8,38.6c0,0,0.1,0,0.1,0c0,0,0,0.1,0,0.1c0,0,0,0.1,0,0.1c0,0-0.1,0-0.1,0c0,0-0.1,0-0.1,0v0h-0.1v-0.4h0.1
					L25.8,38.6C25.7,38.6,25.7,38.6,25.8,38.6z M25.7,38.7C25.7,38.8,25.7,38.8,25.7,38.7C25.7,38.8,25.7,38.8,25.7,38.7
					c0.1,0.1,0.1,0.1,0.2,0.1c0,0,0,0,0-0.1c0,0,0,0,0-0.1C25.8,38.7,25.8,38.7,25.7,38.7C25.7,38.7,25.7,38.7,25.7,38.7
					C25.7,38.7,25.7,38.7,25.7,38.7z"/>
				<path d="M26.3,38.8H26c0,0,0,0,0,0c0,0,0,0,0.1,0C26.2,38.8,26.2,38.8,26.3,38.8L26.3,38.8c0,0.1-0.1,0.1-0.1,0.1
					c0,0-0.1,0-0.1,0c0,0,0-0.1,0-0.1s0-0.1,0-0.1c0,0,0.1,0,0.1,0s0.1,0,0.1,0S26.3,38.7,26.3,38.8L26.3,38.8L26.3,38.8z M26,38.7
					h0.2c0,0,0,0,0-0.1C26.2,38.7,26.1,38.7,26,38.7C26.1,38.7,26.1,38.7,26,38.7C26,38.7,26,38.7,26,38.7z"/>
				<path d="M26.4,38.9L26.4,38.9l-0.1-0.4h0.1V38.9z"/>
				<path d="M26.8,38.6v0.3c0,0.1,0,0.1,0,0.1c0,0-0.1,0-0.1,0s-0.1,0-0.1,0l0,0c0,0,0.1,0,0.1,0c0,0,0.1,0,0.1,0c0,0,0,0,0-0.1v0
					c0,0,0,0,0,0s0,0-0.1,0c0,0-0.1,0-0.1,0c0,0,0-0.1,0-0.1c0,0,0-0.1,0-0.1c0,0,0.1,0,0.1,0C26.6,38.6,26.7,38.6,26.8,38.6
					L26.8,38.6L26.8,38.6L26.8,38.6z M26.5,38.7C26.5,38.8,26.5,38.8,26.5,38.7C26.6,38.8,26.6,38.8,26.5,38.7
					c0.1,0.1,0.1,0.1,0.1,0.1c0,0,0,0,0-0.1c0,0,0,0,0-0.1C26.6,38.7,26.6,38.6,26.5,38.7C26.6,38.6,26.6,38.7,26.5,38.7
					C26.5,38.7,26.5,38.7,26.5,38.7z"/>
				<path d="M26.9,38.5C26.9,38.5,26.9,38.5,26.9,38.5C26.9,38.5,26.9,38.5,26.9,38.5C26.9,38.5,26.9,38.5,26.9,38.5
					C26.9,38.5,26.9,38.5,26.9,38.5C26.9,38.5,26.9,38.5,26.9,38.5C26.9,38.5,26.9,38.5,26.9,38.5C26.9,38.6,26.9,38.6,26.9,38.5
					C26.9,38.6,26.9,38.5,26.9,38.5z M26.9,38.9L26.9,38.9l-0.1-0.3h0.1V38.9z"/>
				<path d="M27.3,38.9L27.3,38.9L27.3,38.9c-0.1,0-0.1,0-0.2,0c0,0-0.1,0-0.1,0c0,0,0,0,0-0.1c0,0,0,0,0-0.1c0,0,0,0,0.1,0h0.1v0
					c0,0,0-0.1-0.1-0.1c0,0-0.1,0-0.1,0l0,0c0,0,0.1,0,0.1,0c0,0,0.1,0,0.1,0c0,0,0,0,0,0.1L27.3,38.9L27.3,38.9z M27.2,38.8
					L27.2,38.8L27.2,38.8c-0.1,0-0.1,0-0.1,0c0,0,0,0,0,0C27.1,38.8,27.1,38.8,27.2,38.8C27.1,38.8,27.2,38.8,27.2,38.8
					C27.2,38.8,27.2,38.8,27.2,38.8z"/>
				<path d="M27.4,38.7v0.2h-0.1v-0.3h0.1V38.7c0-0.1,0-0.1,0-0.1c0,0,0,0,0.1,0c0,0,0.1,0,0.1,0c0,0,0,0,0,0.1v0.2h-0.1v-0.2
					C27.6,38.7,27.5,38.7,27.4,38.7C27.5,38.7,27.4,38.7,27.4,38.7C27.4,38.7,27.4,38.7,27.4,38.7z"/>
				<path d="M28.1,38.9L28.1,38.9L28.1,38.9c-0.1,0-0.1,0-0.2,0c0,0-0.1,0-0.1,0c0,0,0,0,0-0.1c0,0,0,0,0-0.1c0,0,0,0,0.1,0H28v0
					c0,0,0-0.1-0.1-0.1c0,0-0.1,0-0.1,0l0,0c0,0,0.1,0,0.1,0c0,0,0.1,0,0.1,0c0,0,0,0,0,0.1C28.1,38.7,28.1,38.9,28.1,38.9z
					 M28,38.8L28,38.8L28,38.8c-0.1,0-0.1,0-0.1,0c0,0,0,0,0,0C27.9,38.8,28,38.8,28,38.8C28,38.8,28,38.8,28,38.8
					C28,38.8,28,38.8,28,38.8z"/>
				<path d="M28.3,38.9L28.3,38.9l-0.1-0.4h0.1V38.9z"/>
				<path d="M28.6,38.8h-0.2c0,0,0,0,0,0s0,0,0.1,0C28.5,38.8,28.6,38.8,28.6,38.8L28.6,38.8c0,0.1-0.1,0.1-0.1,0.1c0,0-0.1,0-0.1,0
					c0,0,0-0.1,0-0.1s0-0.1,0-0.1c0,0,0.1,0,0.1,0s0.1,0,0.1,0C28.6,38.7,28.6,38.7,28.6,38.8L28.6,38.8L28.6,38.8z M28.4,38.7h0.2
					c0,0,0,0,0-0.1C28.5,38.7,28.5,38.7,28.4,38.7C28.5,38.7,28.4,38.7,28.4,38.7C28.4,38.7,28.4,38.7,28.4,38.7z"/>
			</g>
			<g class="st16">
				<path d="M25.4,37.2c0.1,0,0.1,0,0.1,0.1v0.1c0,0,0,0,0,0h-0.1c0,0,0,0,0,0v-0.1c0,0,0,0,0,0h0c0,0,0,0,0,0v0.1l0.2,0.1
					c0,0,0,0,0,0v0.2c0,0.1,0,0.1-0.1,0.1h-0.1c-0.1,0-0.1,0-0.1-0.1v-0.1c0,0,0,0,0,0h0.1c0,0,0,0,0,0v0.1c0,0,0,0,0,0h0
					c0,0,0,0,0,0v-0.1l-0.2-0.1c0,0,0,0,0,0v-0.2c0-0.1,0-0.1,0.1-0.1L25.4,37.2L25.4,37.2z"/>
				<path d="M25.7,37.7h0.2c0,0,0,0,0,0v0.1c0,0,0,0,0,0h-0.3c0,0,0,0,0,0v-0.7c0,0,0,0,0,0h0.1c0,0,0,0,0,0L25.7,37.7L25.7,37.7z"
					/>
				<path d="M26.4,37.3C26.4,37.3,26.4,37.3,26.4,37.3l-0.2,0v0.2h0.2c0,0,0,0,0,0v0.1c0,0,0,0,0,0h-0.2v0.2h0.2c0,0,0,0,0,0v0.1
					c0,0,0,0,0,0h-0.3c0,0,0,0,0,0v-0.7c0,0,0,0,0,0L26.4,37.3C26.4,37.2,26.4,37.2,26.4,37.3L26.4,37.3z"/>
				<path d="M26.6,37.2C26.6,37.2,26.6,37.2,26.6,37.2l0,0.7c0,0,0,0,0,0h-0.1c0,0,0,0,0,0L26.6,37.2C26.5,37.2,26.5,37.2,26.6,37.2
					L26.6,37.2z"/>
				<path d="M26.6,37.3c0-0.1,0-0.1,0.1-0.1h0.1c0.1,0,0.1,0,0.1,0.1v0.1c0,0,0,0,0,0h-0.1c0,0,0,0,0,0v-0.1c0,0,0,0,0,0h-0.1
					c0,0,0,0,0,0v0.4c0,0,0,0,0,0h0.1c0,0,0,0,0,0v-0.1h0c0,0,0,0,0,0v-0.1c0,0,0,0,0,0H27c0,0,0,0,0,0v0.2c0,0.1,0,0.1-0.1,0.1
					h-0.1c-0.1,0-0.1,0-0.1-0.1L26.6,37.3L26.6,37.3z"/>
				<path d="M27.3,37.2C27.3,37.2,27.3,37.2,27.3,37.2L27.3,37.2c0.1,0,0.1,0,0.1,0v0.7c0,0,0,0,0,0h-0.1c0,0,0,0,0,0v-0.3h-0.1v0.3
					c0,0,0,0,0,0h-0.1c0,0,0,0,0,0v-0.7c0,0,0,0,0,0h0.1c0,0,0,0,0,0v0.3h0.1V37.2z"/>
				<path d="M27.9,37.5c0,0.1,0,0.1-0.1,0.1l0.1,0.2c0,0,0,0,0,0h-0.1c0,0,0,0,0,0l-0.1-0.2h-0.1v0.2c0,0,0,0,0,0h-0.1c0,0,0,0,0,0
					v-0.7c0,0,0,0,0,0h0.2c0.1,0,0.1,0,0.1,0.1L27.9,37.5L27.9,37.5z M27.7,37.5C27.7,37.5,27.8,37.5,27.7,37.5l0-0.2c0,0,0,0,0,0
					h-0.1L27.7,37.5L27.7,37.5L27.7,37.5z"/>
				<path d="M28.1,37.2C28.1,37.2,28.1,37.2,28.1,37.2l0,0.7c0,0,0,0,0,0H28c0,0,0,0,0,0v-0.7C27.9,37.2,27.9,37.2,28.1,37.2
					L28.1,37.2z"/>
				<path d="M28.2,37.2C28.2,37.2,28.2,37.2,28.2,37.2l0.2,0c0.1,0,0.1,0,0.1,0.1v0.4c0,0.1,0,0.1-0.1,0.1h-0.2c0,0,0,0,0,0V37.2z
					 M28.3,37.7C28.4,37.7,28.4,37.7,28.3,37.7l0-0.4c0,0,0,0,0,0h-0.1L28.3,37.7L28.3,37.7L28.3,37.7z"/>
				<path d="M28.9,37.3C28.9,37.3,28.9,37.3,28.9,37.3l-0.2,0v0.2h0.2c0,0,0,0,0,0v0.1c0,0,0,0,0,0h-0.2v0.2h0.2c0,0,0,0,0,0v0.1
					c0,0,0,0,0,0h-0.3c0,0,0,0,0,0v-0.7c0,0,0,0,0,0L28.9,37.3C28.9,37.2,28.9,37.2,28.9,37.3L28.9,37.3z"/>
			</g>
			<g class="st5">
				<path class="st42" d="M26.4,31.6c-0.1-0.1-0.2-0.2-0.4-0.2c-0.1,0-0.3,0.1-0.4,0.2c-0.1,0.1-0.2,0.2-0.2,0.4s0.1,0.3,0.2,0.4
					c0.1,0.1,0.2,0.2,0.4,0.2c0.1,0,0.3-0.1,0.4-0.2C26.6,32.2,26.6,31.8,26.4,31.6z"/>
			</g>
			<path class="st43" d="M29.1,34.5l-1.9-1.9c-0.1-0.1-0.2-0.1-0.3-0.1s-0.2,0-0.3,0.1c-0.2,0.2-0.2,0.5,0,0.6l1.9,1.9
				c0.1,0.1,0.2,0.1,0.3,0.1l0,0c0.1,0,0.2,0,0.3-0.1C29.2,35,29.2,34.7,29.1,34.5z"/>
			<g class="st5">
				<path class="st42" d="M28.8,36.4L28.8,36.4c-0.3,0-0.5-0.1-0.7-0.3l-3.5-3.5c-0.1-0.1-0.1-0.2,0-0.2c0.1-0.1,0.2-0.1,0.2,0
					l3.5,3.5c0.1,0.1,0.3,0.2,0.5,0.2s0.3-0.1,0.5-0.2c0.1-0.1,0.2-0.1,0.2,0c0.1,0.1,0.1,0.2,0,0.2C29.3,36.3,29,36.4,28.8,36.4z"
					/>
			</g>
		</g>
		<g id="labelBeer9">
			<circle id="bg_4_" class="st44" cx="27" cy="35.1" r="5.3"/>
			<g class="st45">
				<path d="M24.5,39.2c0,0-0.1,0-0.1,0c0,0,0-0.1,0-0.1s0-0.1,0-0.1c0,0,0.1,0,0.1,0s0.1,0,0.1,0l0,0c0,0,0,0-0.1,0c0,0,0,0-0.1,0
					c0,0,0,0,0,0.1C24.4,39.1,24.4,39.1,24.5,39.2C24.4,39.1,24.5,39.1,24.5,39.2C24.5,39.1,24.5,39.1,24.5,39.2l0.1-0.1
					C24.6,39.2,24.5,39.2,24.5,39.2z"/>
				<path d="M24.9,39.2L24.9,39.2L24.9,39.2c-0.1,0-0.1,0-0.2,0c0,0-0.1,0-0.1,0c0,0,0,0,0-0.1c0,0,0,0,0-0.1c0,0,0,0,0.1,0h0.1v0
					c0,0,0-0.1-0.1-0.1c0,0-0.1,0-0.1,0l0,0c0,0,0.1,0,0.1,0c0,0,0.1,0,0.1,0c0,0,0,0,0,0.1C24.9,39,24.9,39.2,24.9,39.2z
					 M24.9,39.1L24.9,39.1L24.9,39.1c-0.1,0-0.1,0-0.1,0c0,0,0,0,0,0C24.7,39.1,24.8,39.1,24.9,39.1C24.8,39.1,24.8,39.1,24.9,39.1
					C24.8,39.1,24.9,39.1,24.9,39.1z"/>
				<path d="M25.1,39.2L25.1,39.2L25,38.8h0.1V39.2z"/>
				<path d="M25.2,38.8C25.2,38.8,25.2,38.8,25.2,38.8C25.2,38.8,25.2,38.8,25.2,38.8C25.2,38.8,25.2,38.8,25.2,38.8
					C25.2,38.8,25.2,38.8,25.2,38.8C25.2,38.8,25.2,38.8,25.2,38.8C25.2,38.8,25.2,38.8,25.2,38.8C25.2,38.8,25.2,38.8,25.2,38.8
					C25.2,38.8,25.2,38.8,25.2,38.8z M25.2,39.2L25.2,39.2l-0.1-0.3h0.1V39.2z"/>
				<path d="M25.4,38.9L25.4,38.9L25.4,38.9L25.4,38.9L25.4,38.9v0.3h-0.1L25.4,38.9l-0.1,0.1v0L25.4,38.9L25.4,38.9
					C25.3,38.8,25.3,38.8,25.4,38.9C25.4,38.8,25.4,38.8,25.4,38.9c0.1-0.1,0.1-0.1,0.1-0.1L25.4,38.9
					C25.5,38.8,25.4,38.8,25.4,38.9C25.4,38.8,25.4,38.8,25.4,38.9C25.4,38.8,25.4,38.9,25.4,38.9z"/>
				<path d="M25.8,39.2c0,0-0.1,0-0.1,0s-0.1,0-0.1,0c0,0,0-0.1,0-0.1c0,0,0-0.1,0-0.1c0,0,0.1,0,0.1,0s0.1,0,0.1,0c0,0,0,0.1,0,0.1
					C25.8,39.1,25.8,39.1,25.8,39.2z M25.6,39.1C25.6,39.1,25.6,39.1,25.6,39.1c0.1,0,0.1,0,0.1,0c0,0,0,0,0-0.1c0,0,0,0,0-0.1
					c0,0,0,0-0.1,0c0,0,0,0-0.1,0C25.6,39,25.6,39,25.6,39.1C25.6,39.1,25.6,39.1,25.6,39.1z"/>
				<path d="M26.1,39C26,39,26,39,26.1,39C26,39,26,39,26,39.1v0.1h-0.1v-0.3L26.1,39L26.1,39C26,38.9,26,38.9,26.1,39
					C26,38.9,26,38.9,26.1,39L26.1,39L26.1,39z"/>
				<path d="M26.2,39v0.2h-0.1v-0.3h0.1V39c0-0.1,0-0.1,0-0.1c0,0,0,0,0.1,0c0,0,0.1,0,0.1,0c0,0,0,0,0,0.1v0.2h-0.1V39
					C26.3,39,26.3,38.9,26.2,39C26.2,38.9,26.2,39,26.2,39C26.2,39,26.2,39,26.2,39z"/>
				<path d="M26.5,38.8C26.5,38.8,26.5,38.8,26.5,38.8C26.5,38.8,26.5,38.8,26.5,38.8C26.5,38.8,26.5,38.8,26.5,38.8
					C26.5,38.8,26.5,38.8,26.5,38.8C26.6,38.8,26.6,38.8,26.5,38.8C26.6,38.8,26.6,38.8,26.5,38.8C26.5,38.8,26.5,38.8,26.5,38.8
					C26.5,38.8,26.5,38.8,26.5,38.8z M26.5,39.2L26.5,39.2l-0.1-0.3h0.1V39.2z"/>
				<path d="M26.9,39.2L26.9,39.2L26.9,39.2c-0.1,0-0.1,0-0.2,0c0,0-0.1,0-0.1,0c0,0,0,0,0-0.1c0,0,0,0,0-0.1c0,0,0,0,0.1,0h0.1v0
					c0,0,0-0.1-0.1-0.1c0,0-0.1,0-0.1,0l0,0c0,0,0.1,0,0.1,0c0,0,0.1,0,0.1,0c0,0,0,0,0,0.1C26.9,39,26.9,39.2,26.9,39.2z
					 M26.8,39.1L26.8,39.1L26.8,39.1c-0.1,0-0.1,0-0.1,0c0,0,0,0,0,0C26.7,39.1,26.7,39.1,26.8,39.1C26.8,39.1,26.8,39.1,26.8,39.1
					C26.8,39.1,26.8,39.1,26.8,39.1z"/>
				<path d="M27.3,39.2c0,0-0.1,0-0.1,0c0,0,0-0.1,0-0.1s0-0.1,0-0.1c0,0,0.1,0,0.1,0s0.1,0,0.1,0l0,0c0,0,0,0-0.1,0c0,0,0,0-0.1,0
					c0,0,0,0,0,0.1C27.2,39.1,27.2,39.1,27.3,39.2C27.2,39.1,27.2,39.1,27.3,39.2C27.3,39.1,27.3,39.1,27.3,39.2l0.1-0.1
					C27.4,39.2,27.3,39.2,27.3,39.2z"/>
				<path d="M27.7,39.2c0,0-0.1,0-0.1,0c0,0-0.1,0-0.1,0c0,0,0-0.1,0-0.1c0,0,0-0.1,0-0.1c0,0,0.1,0,0.1,0c0,0,0.1,0,0.1,0
					c0,0,0,0.1,0,0.1C27.7,39.1,27.7,39.1,27.7,39.2z M27.5,39.1C27.5,39.1,27.6,39.1,27.5,39.1c0.1,0,0.1,0,0.1,0c0,0,0,0,0-0.1
					c0,0,0,0,0-0.1c0,0,0,0-0.1,0s0,0-0.1,0C27.5,39,27.5,39,27.5,39.1C27.5,39.1,27.5,39.1,27.5,39.1z"/>
				<path d="M27.9,39v0.2h-0.1v-0.3h0.1V39c0-0.1,0-0.1,0-0.1c0,0,0,0,0.1,0c0,0,0.1,0,0.1,0.1c0,0,0.1-0.1,0.1-0.1c0,0,0.1,0,0.1,0
					c0,0,0,0,0,0.1v0.2h-0.1V39c0-0.1,0-0.1-0.1-0.1c0,0,0,0-0.1,0s0,0,0,0.1v0.2H28V39c0,0,0,0,0-0.1C28,39,28,38.9,27.9,39
					C27.9,38.9,27.9,39,27.9,39C27.9,39,27.9,39,27.9,39z"/>
				<path d="M28.5,39v0.2h-0.1v-0.3h0.1V39c0-0.1,0-0.1,0-0.1c0,0,0,0,0.1,0c0,0,0.1,0,0.1,0.1c0,0,0.1-0.1,0.1-0.1c0,0,0.1,0,0.1,0
					c0,0,0,0,0,0.1v0.2h-0.1V39c0-0.1,0-0.1-0.1-0.1c0,0,0,0-0.1,0s0,0,0,0.1v0.2h-0.1V39c0,0,0,0,0-0.1C28.6,39,28.5,38.9,28.5,39
					C28.5,38.9,28.5,39,28.5,39C28.5,39,28.5,39,28.5,39z"/>
				<path d="M29.2,39.2c0,0-0.1,0-0.1,0c0,0-0.1,0-0.1,0c0,0,0-0.1,0-0.1c0,0,0-0.1,0-0.1c0,0,0.1,0,0.1,0c0,0,0.1,0,0.1,0
					c0,0,0,0.1,0,0.1C29.3,39.1,29.2,39.1,29.2,39.2z M29,39.1C29,39.1,29.1,39.1,29,39.1c0.1,0,0.1,0,0.1,0c0,0,0,0,0-0.1
					c0,0,0,0,0-0.1c0,0,0,0-0.1,0c0,0,0,0-0.1,0C29,39,29,39,29,39.1C29,39.1,29,39.1,29,39.1z"/>
				<path d="M29.4,39v0.2h-0.1v-0.3h0.1V39c0-0.1,0-0.1,0-0.1c0,0,0,0,0.1,0c0,0,0.1,0,0.1,0c0,0,0,0,0,0.1v0.2h-0.1V39
					C29.5,39,29.5,38.9,29.4,39C29.5,38.9,29.4,39,29.4,39C29.4,39,29.4,39,29.4,39z"/>
			</g>
			<g class="st45">
				<path d="M25.3,37.4c0.1,0,0.1,0,0.1,0.1v0.1c0,0,0,0,0,0h-0.1c0,0,0,0,0,0v-0.1c0,0,0,0,0,0h0c0,0,0,0,0,0v0.1l0.2,0.1
					c0,0,0,0,0,0V38c0,0.1,0,0.1-0.1,0.1h-0.1c-0.1,0-0.1,0-0.1-0.1v-0.1c0,0,0,0,0,0h0.1c0,0,0,0,0,0V38c0,0,0,0,0,0h0c0,0,0,0,0,0
					v-0.1l-0.2-0.1c0,0,0,0,0,0v-0.2c0-0.1,0-0.1,0.1-0.1H25.3L25.3,37.4z"/>
				<path d="M25.8,37.4C25.8,37.4,25.8,37.5,25.8,37.4L25.8,37.4c0,0.1,0,0.1,0,0.1h-0.1v0.5c0,0,0,0,0,0h-0.1c0,0,0,0,0,0v-0.5
					h-0.1c0,0,0,0,0,0v-0.1c0,0,0,0,0,0H25.8z"/>
				<path d="M26.2,37.6C26.2,37.6,26.2,37.6,26.2,37.6l-0.2,0v0.2h0.2c0,0,0,0,0,0v0.1c0,0,0,0,0,0H26V38h0.2c0,0,0,0,0,0v0.1
					c0,0,0,0,0,0h-0.3c0,0,0,0,0,0v-0.7c0,0,0,0,0,0L26.2,37.6C26.2,37.5,26.2,37.5,26.2,37.6L26.2,37.6z"/>
				<path d="M26.6,38.1C26.6,38.1,26.6,38.1,26.6,38.1l0-0.1h-0.2l0,0.1c0,0,0,0,0,0h-0.1c0,0,0,0,0,0l0.1-0.7c0,0,0,0,0,0h0.1
					c0,0,0,0,0,0l0.1,0.7c0,0,0,0,0,0H26.6z M26.5,37.6l-0.1,0.3h0.1L26.5,37.6z"/>
				<path d="M27.2,37.4C27.2,37.4,27.3,37.5,27.2,37.4l0,0.7c0,0,0,0,0,0h-0.1c0,0,0,0,0,0v-0.4h0L27,38.1c0,0,0,0,0,0h0
					c0,0,0,0,0,0l-0.1-0.4h0v0.4c0,0,0,0,0,0h-0.1c0,0,0,0,0,0v-0.6c0,0,0,0,0,0h0.1c0,0,0,0,0,0l0.1,0.4l0.1-0.4c0,0,0,0,0,0H27.2z
					"/>
				<path d="M27.3,37.5C27.3,37.5,27.4,37.5,27.3,37.5l0.2,0c0.1,0,0.1,0,0.1,0.1v0.2c0,0.1,0,0.1-0.1,0.1h-0.1v0.2c0,0,0,0,0,0
					h-0.1c0,0,0,0,0,0V37.5z M27.5,37.8C27.6,37.8,27.6,37.8,27.5,37.8l0-0.2c0,0,0,0,0,0h-0.1L27.5,37.8L27.5,37.8L27.5,37.8z"/>
				<path d="M28.1,37.4C28.1,37.4,28.1,37.5,28.1,37.4l0,0.6c0,0.1,0,0.1-0.1,0.1h-0.1c-0.1,0-0.1,0-0.1-0.1v-0.5c0,0,0,0,0,0h0.1
					c0,0,0,0,0,0V38c0,0,0,0,0,0h0c0,0,0,0,0,0L28.1,37.4C28,37.5,28,37.4,28.1,37.4L28.1,37.4z"/>
				<path d="M28.5,37.4C28.5,37.4,28.5,37.5,28.5,37.4l0,0.7c0,0,0,0,0,0h-0.1c0,0,0,0,0,0l-0.1-0.4l0,0v0.4c0,0,0,0,0,0h-0.1
					c0,0,0,0,0,0v-0.7c0,0,0,0,0,0h0.1c0,0,0,0,0,0l0.1,0.4l0,0L28.5,37.4C28.4,37.4,28.4,37.4,28.5,37.4L28.5,37.4L28.5,37.4z"/>
				<path d="M28.9,38.1C28.9,38.1,28.9,38.1,28.9,38.1l-0.1-0.3l0,0.1v0.2c0,0,0,0,0,0h-0.1c0,0,0,0,0,0v-0.6c0,0,0,0,0,0h0.1
					c0,0,0,0,0,0v0.3l0.1-0.3c0,0,0,0,0,0H29c0,0,0,0,0,0l-0.1,0.3l0.2,0.3C29,38.1,29,38.1,28.9,38.1L28.9,38.1L28.9,38.1z"/>
			</g>
			<g>
				<g>
					<path d="M28.4,33.7c-0.1-0.6-0.6-1-1.2-1.2c-0.5-0.1-1,0-1.4,0.3c-0.4,0.3-0.6,0.7-0.6,1.2l-0.3,0.7c0,0.1,0,0.1,0,0.2
						c0,0,0.1,0.1,0.2,0.1h0.2v0.2c0,0.3,0.2,0.5,0.5,0.5h0.2v0.9c0,0.1,0.1,0.2,0.2,0.2l1.4-0.3c0.1,0,0.1-0.1,0.1-0.2v-0.8
						C28.3,35,28.5,34.3,28.4,33.7z M27,34.9c-0.3,0-0.5-0.2-0.5-0.5c0-0.1,0.1-0.2,0.2-0.2c0.1,0,0.2,0.1,0.2,0.2s0.1,0.2,0.2,0.2
						s0.2-0.1,0.2-0.2s0.1-0.2,0.2-0.2c0.1,0,0.2,0.1,0.2,0.2C27.5,34.7,27.3,34.9,27,34.9z"/>
				</g>
			</g>
			<g>
				<g>
					<path d="M30,33.9l-1.1-0.2l1-0.7c0.1,0,0.1-0.1,0.1-0.2c0-0.1-0.1-0.1-0.2-0.1l-1.1,0.2l0.6-1c0-0.1,0-0.2,0-0.2
						c-0.1-0.1-0.2-0.1-0.2,0l-1,0.6l0.2-1.1c0-0.1,0-0.2-0.1-0.2c-0.1,0-0.2,0-0.2,0.1l-0.7,1L27,30.8c0-0.1-0.1-0.1-0.2-0.1
						s-0.2,0.1-0.2,0.1L26.4,32l-0.7-1c0-0.1-0.1-0.1-0.2-0.1c-0.1,0-0.1,0.1-0.1,0.2l0.2,1.1l-1-0.6c-0.1,0-0.2,0-0.2,0
						c-0.1,0.1-0.1,0.2,0,0.2l0.7,1.1c0.1-0.2,0.3-0.4,0.5-0.5c0.3-0.3,0.8-0.4,1.2-0.4c0.2,0,0.3,0,0.5,0c0.7,0.2,1.3,0.7,1.4,1.4
						c0.1,0.6,0,1.2-0.3,1.6l1.3,0.3c0,0,0,0,0,0c0.1,0,0.1,0,0.2-0.1c0-0.1,0-0.2-0.1-0.2l-1-0.7l1.1-0.2c0.1,0,0.1-0.1,0.1-0.2
						C30.2,34,30.1,33.9,30,33.9z"/>
				</g>
			</g>
		</g>
	</g>
</g>
</svg>
