<?xml version="1.0" encoding="utf-8"?>
<!-- Generator: Adobe Illustrator 22.1.0, SVG Export Plug-In . SVG Version: 6.00 Build 0)  -->
<svg version="1.1" id="Layer_1" xmlns="http://www.w3.org/2000/svg" xmlns:xlink="http://www.w3.org/1999/xlink" x="0px" y="0px"
	 viewBox="0 0 54 80" style="enable-background:new 0 0 54 80;" xml:space="preserve">
<style type="text/css">
	.st0{fill:url(#SVGID_1_);}
	.st1{fill:#C0BCE2;}
	.st2{fill:#1F1C2C;}
	.st3{display:none;}
	.st4{display:inline;fill:#FBC333;}
	.st5{display:inline;}
	.st6{font-family:'Montserrat-Regular';}
	.st7{font-size:0.5061px;}
	.st8{font-family:'ArialMT';}
	.st9{font-size:1.1569px;}
	.st10{display:inline;fill:#351D02;}
	.st11{display:inline;fill:#7B7160;}
	.st12{font-size:0.4553px;}
	.st13{font-size:0.9106px;}
	.st14{display:inline;fill:#7C201C;}
	.st15{fill:#BD2233;}
	.st16{fill:#F59332;}
	.st17{fill:#FEF035;}
	.st18{fill:#17A453;}
	.st19{fill:#1DAFEC;}
	.st20{fill:#FFFFFF;}
	.st21{display:inline;fill:#FF0093;}
	.st22{font-size:0.8693px;}
	.st23{fill:#B3703D;}
	.st24{fill:#683D1F;}
	.st25{fill:#FFFFFE;}
	.st26{fill:#DC2A26;}
	.st27{fill:#E3BF9A;}
	.st28{fill:#A8D1D8;}
	.st29{fill:#2E2B2C;}
	.st30{font-size:0.8721px;}
</style>
<g>
	<g>
		<linearGradient id="SVGID_1_" gradientUnits="userSpaceOnUse" x1="1.3733" y1="41.9621" x2="52.8313" y2="41.9621">
			<stop  offset="0" style="stop-color:#1F1C2C"/>
			<stop  offset="1" style="stop-color:#928DAB"/>
		</linearGradient>
		<path class="st0" d="M50.8,69.4c-0.3,0.6-0.8,1.5-1.7,2.2c-1.9,1.4-4.2,1.1-5.4,1c-3.6-0.4-7.3,0.2-10.9,0.1
			c-8-0.4-22,0.3-25.9-0.3c-0.6-0.1-1.3-0.3-2.1-0.7c-1-0.6-1.7-1.5-2.1-2.1c0.9-3.2,0.4-4.8-0.2-5.7c-0.4-0.5-1.1-1.1-1-1.9
			c0.1-0.8,0.8-1.1,1.2-1.6c1.2-1.4,0.2-3.1,0.2-6.5c0-3.6,1.3-7.1,0.2-8c0,0-0.4-0.3-0.7-0.6c-0.6-0.6-1-0.9-0.9-1.4
			c0-0.4,0.3-0.6,0.8-1c0.5-0.4,0.7-0.5,1-0.7c0.7-0.7,0.3-2.3,0.2-2.7c0,0-0.4-1.3,0.1-11.6c-1-0.9-1-0.9-1-0.9
			c-0.6-0.7-0.9-1-0.9-1.4c0.1-0.5,0.6-0.8,1-0.9c0.4-0.2,0.9-0.4,0.9-0.4c0,0,0.1-8.9,0.2-13c15.8,0,31.5-0.1,47.3-0.1
			c0.3,8.4,0.2,11.8,0,12.6c0,0.1-0.3,0.8,0,1.1c0.2,0.2,0.6,0,1,0.1c0.5,0.2,0.8,0.8,0.8,0.9c0.2,0.6,0.2,1.5-0.2,1.8
			c-0.5,0.4-1.6,0.1-1.6,0.1c0,0,0.2,3.7,0.3,7.7c0.1,4-0.1,4.2,0.2,5.1c0.6,1.4,1.4,2.2,1.2,3.6c-0.1,0.9-0.6,1.3-1,2.1
			c-0.7,1.3-0.5,2-0.5,6.6c0,5.1-0.4,5.7,0.4,6.9c0.5,0.7,1.1,1.3,1.1,2.3c-0.1,0.9-0.7,1.4-1.2,2C50.7,64.9,50.1,66.5,50.8,69.4z"
			/>
		<ellipse class="st1" cx="27.1" cy="18.1" rx="4.8" ry="1.9"/>
		<path class="st2" d="M24,21h6c1.7,0,3-1.3,3-3s-1.3-3-3-3h-6c-1.7,0-3,1.3-3,3S22.3,21,24,21z M24,17h6c0.6,0,1,0.4,1,1
			s-0.4,1-1,1h-6c-0.6,0-1-0.4-1-1S23.4,17,24,17z"/>
		<path class="st2" d="M54,44c0-1.3-0.8-2.4-2-2.8V28.8c1.2-0.4,2-1.5,2-2.8s-0.8-2.4-2-2.8V11c0-0.6-0.4-1-1-1H3c-0.6,0-1,0.4-1,1
			v12.2c-1.2,0.4-2,1.5-2,2.8s0.8,2.4,2,2.8v12.3c-1.2,0.4-2,1.5-2,2.8s0.8,2.4,2,2.8v12.3c-1.2,0.4-2,1.5-2,2.8s0.8,2.4,2,2.8V69
			c0,2.8,2.2,5,5,5h40c2.8,0,5-2.2,5-5v-4.2c1.2-0.4,2-1.5,2-2.8s-0.8-2.4-2-2.8V46.8C53.2,46.4,54,45.3,54,44z M50,12v11H4V12H50z
			 M3,25h48c0.6,0,1,0.4,1,1s-0.4,1-1,1H3c-0.6,0-1-0.4-1-1S2.4,25,3,25z M50,41H4V29h46V41z M47,72H7c-0.2,0-0.6,0-1.1-0.2
			c-0.1-0.1-0.6-0.2-1.1-0.7C4.1,70.3,4,69.3,4,69v-4h46v4C50,70.7,48.7,72,47,72z M51,63H3c-0.6,0-1-0.4-1-1s0.4-1,1-1h48
			c0.6,0,1,0.4,1,1S51.6,63,51,63z M4,47h46v12H4V47z M51,45H3c-0.6,0-1-0.4-1-1s0.4-1,1-1h48c0.6,0,1,0.4,1,1S51.6,45,51,45z"/>
	</g>
</g>
<g id="labelBeer0" class="st3">
	<circle id="brand-2" class="st4" cx="26.4" cy="35" r="5.4"/>
	<text transform="matrix(1 0 0 1 24.9199 39.108)" class="st5 st6 st7">h</text>
	<text transform="matrix(1 0 0 1 25.2475 39.108)" class="st5 st6 st7">e</text>
	<text transform="matrix(1 0 0 1 25.5576 39.108)" class="st5 st6 st7">feweiser</text>
	<text transform="matrix(1 0 0 1 24.5102 38.3619)" class="st5 st8 st9">EL HEFE</text>
	<path class="st10" d="M28.9,37.1c-0.1-0.2-0.2-0.5-0.3-0.7c-0.1-0.1-0.1-0.2-0.2-0.3c-0.1-0.1-0.1-0.1-0.2-0.1
		c-0.1-0.1-0.2-0.1-0.3-0.2c0-0.2,0-0.3,0-0.5c0-0.1,0-0.1,0-0.2c-0.1,0-0.2,0-0.3,0c-0.1,0-0.2,0.1-0.3,0.1c0-0.1,0-0.3,0-0.4
		c0-0.1,0.1-0.2,0.1-0.3c0.1-0.2,0.2-0.3,0.2-0.5c0.1-0.2,0.2-0.4,0.3-0.7l0.5-0.3l0.2-0.1c0.1-0.1,0.4-0.3,0.5-0.7
		c0-0.1,0-0.1,0-0.2c0,0-0.1,0.1-0.2,0.1c-0.1,0-0.1,0.1-0.2,0.1c-0.2,0.1-0.3,0.1-0.5,0.1c0,0,0,0,0,0c0,0,0,0,0,0
		c0-0.1-0.1-0.2-0.1-0.3c-0.1-0.3-0.2-0.5-0.3-0.8c0-0.1-0.1-0.2-0.1-0.3c0-0.1-0.1-0.1-0.1-0.2c-0.4-0.3-1-0.3-1.3,0.1
		c-0.1,0.1-0.2,0.2-0.2,0.3c-0.1,0.1-0.2,0.3-0.2,0.5c-0.1-0.1-0.2-0.1-0.3-0.2c-0.1,0-0.2,0-0.3,0c-0.4,0.1-0.6,0.4-0.7,0.7
		c0,0.3,0.2,0.7,0.4,0.9l0.7,0.6c0,0.3,0,0.5,0,0.8c0,0.1-0.1,0.2-0.1,0.4c-0.1,0.1-0.3,0.3-0.4,0.5c0,0,0,0,0,0c0,0,0,0,0,0
		c-0.2,0-0.5,0.1-0.7,0.2c-0.2,0.1-0.5,0.2-0.7,0.3c-0.1,0.1-0.2,0.2-0.2,0.3c-0.1,0.2-0.1,0.3-0.2,0.5c0,0-0.1,0.6-0.1,0.6
		L28.9,37.1z"/>
</g>
<g id="labelBeer2" class="st3">
	<circle id="brand-3" class="st11" cx="26.4" cy="35.3" r="5.7"/>
	<text transform="matrix(1 0 0 1 24.8476 39.5806)" class="st5 st6 st12">VENOM ALE</text>
	<text transform="matrix(1 0 0 1 25.0507 38.7964)" class="st5 st8 st13">GITHOP</text>
	<path class="st14" d="M25.7,31.7c0,0.1,0,0.1,0,0.2c0,0.1,0,0.2,0,0.2c-0.1,0.2-0.2,0.3-0.3,0.5c0,0-0.1,0-0.1,0c0,0,0,0,0,0
		c0-0.1,0-0.1-0.1-0.2c0-0.1,0-0.1,0-0.2V32c0-0.1,0-0.1,0.1-0.2c0-0.1,0.1-0.2,0.2-0.3c0.1-0.1,0.2-0.2,0.3-0.3
		c0.1-0.1,0.3-0.2,0.4-0.2c0.3,0,0.5,0,0.7,0.2c0.1,0.1,0.3,0.2,0.3,0.3c0.1,0.1,0.1,0.2,0.1,0.3c0.1,0.3,0.1,0.6,0,1
		c-0.1,0.1-0.1,0.3-0.2,0.4c-0.1,0.1-0.2,0.3-0.3,0.4c-0.1,0.1-0.2,0.1-0.3,0.2c-0.2,0.1-0.3,0.2-0.5,0.3c-0.1,0.1-0.3,0.2-0.4,0.4
		c-0.1,0.1-0.2,0.3-0.3,0.5c-0.1,0.1-0.1,0.3-0.1,0.4c0,0.1,0,0.2,0,0.3c0.1,0.1,0.2,0.2,0.3,0.3c0.1,0.1,0.2,0.2,0.3,0.2
		c0.1,0,0.2,0.1,0.4,0.1c0.2,0,0.3,0,0.5,0c0.1,0,0.2-0.1,0.3-0.1c0.1-0.1,0.2-0.2,0.2-0.3c0.1-0.1,0.1-0.2,0.1-0.3
		c0-0.1,0-0.2,0-0.3c0-0.1,0-0.2-0.1-0.3c0-0.1-0.1-0.2-0.2-0.3c-0.1-0.1-0.2-0.1-0.3-0.1c-0.1,0-0.2-0.1-0.3-0.1
		c-0.1,0-0.2,0-0.2,0c-0.1,0-0.2,0.1-0.3,0.2L25.6,35c0-0.2,0-0.4,0.2-0.5c0.2-0.2,0.4-0.4,0.7-0.4c0.2,0,0.4,0.1,0.6,0.2
		c0.2,0.1,0.4,0.3,0.5,0.6c0.1,0.3,0.1,0.7,0,1.1c0,0.1-0.1,0.2-0.2,0.3c-0.1,0.1-0.2,0.2-0.3,0.3c-0.1,0-0.2,0.1-0.3,0.1
		c-0.2,0.1-0.4,0.1-0.5,0.1c-0.1,0-0.3,0-0.4,0c-0.2,0-0.3-0.1-0.5-0.1c-0.3-0.2-0.5-0.5-0.7-0.8c0-0.1-0.1-0.3-0.1-0.4
		c0-0.1,0-0.3,0-0.4c0-0.1,0.1-0.2,0.1-0.4c0.1-0.1,0.1-0.3,0.2-0.4c0.1-0.1,0.2-0.3,0.3-0.4c0.1-0.1,0.2-0.2,0.3-0.3
		c0.1-0.1,0.2-0.1,0.2-0.2c0.1-0.1,0.3-0.1,0.4-0.2l0.5-0.5c0.1-0.1,0.1-0.2,0.1-0.3c0-0.1,0-0.2,0-0.3c0-0.2-0.1-0.5-0.2-0.6
		c-0.1-0.1-0.1-0.1-0.2-0.1c-0.1,0-0.1,0-0.2-0.1c-0.1,0-0.2,0-0.3,0c-0.1,0-0.1,0.1-0.2,0.1L25.7,31.7z"/>
</g>
<g id="labelBeer1" class="st3">
	<g id="Rainbow" class="st5">
		<circle id="circle-2" class="st15" cx="26.4" cy="35" r="5.4"/>
		<circle id="circle-3" class="st16" cx="26.4" cy="35.1" r="5.2"/>
		<ellipse id="circle-4" class="st17" cx="26.4" cy="35.3" rx="5" ry="4.8"/>
		<ellipse id="circle-5" class="st18" cx="26.4" cy="35.5" rx="4.8" ry="4.6"/>
		<ellipse id="circle-6" class="st19" cx="26.4" cy="35.6" rx="4.5" ry="4.3"/>
		<ellipse id="circle-7" class="st20" cx="26.4" cy="36.1" rx="4.4" ry="4.3"/>
	</g>
	<path class="st21" d="M29.6,31.5l-1.3,1.3c0,0,0.4,0.3,0.4,0.3c0,0,0,0,0,0c0,0,0,0,0,0c0.1,0,0.3,0,0.4-0.1c0,0,0,0,0,0
		c0,0,0,0,0,0c0.1,0.1,0.1,0.2,0.1,0.2c0,0-0.1-0.1-0.1-0.1c0,0,0,0,0,0c0,0,0,0,0,0l-0.6,0.1c0,0,0.3,0.5,0.3,0.6c0,0,0.2,0,0.2,0
		c0,0.1,0,0.1-0.1,0.2c0,0-0.5-0.2-0.5-0.2c0.3,0.4,0.6,0.8,0.8,1.2c0,0,0,0,0,0c0,0,0,0,0,0h0.1l0,0.1c0,0,0,0,0,0c0,0,0,0,0,0
		c-0.1,0.1-0.1,0.3-0.1,0.4c0,0,0,0,0,0c0,0-0.2,0.1-0.2,0.1c0,0,0,0,0,0c-0.1,0.1-0.1,0.2-0.3,0.2c-0.2,0-0.3,0-0.5,0c0,0,0,0,0,0
		c0,0,0,0,0-0.1c-0.1-0.3-0.2-0.5-0.4-0.7c0,0-0.1-0.1-0.2-0.1c-0.2-0.1-0.5,0-0.7-0.1c0.1,0.4,0.1,0.7,0.2,1.1
		c0.9,1,1.9,1.8,3.1,2.3c-0.2,0.2-0.4,0.4-0.7,0.7c-0.2,0.2-0.3,0.3-0.3,0.3c-0.1,0.1-0.4,0.3-1,0.6c-0.3,0.1-0.7,0.3-1,0.3
		c-0.6,0.1-1.1,0.1-1.6,0c-0.2,0-0.3,0-0.5-0.1c-0.2-0.1-0.4-0.1-0.6-0.2L24,39.7c-0.2-0.1-0.3-0.2-0.5-0.3
		c-0.1-0.1-0.3-0.2-0.4-0.3c-0.2-0.1-0.3-0.3-0.4-0.4c-0.1-0.1-0.2-0.2-0.4-0.4c-0.4-0.5-0.5-0.6-0.4-0.7s0.1-0.1,0.4-0.1
		c0.1,0,0.3,0,0.4,0c0,0,0.4-0.4,0.4-0.5c0,0,0,0,0,0c0,0,0,0,0,0l-0.6-0.4c0.1,0.1,0.4,0,0.5-0.1c0.2-0.1,0.3-0.3,0.3-0.5
		c0,0,0,0,0,0c0,0,0,0,0,0c-0.1-0.1-0.2-0.1-0.3-0.1c0.1-0.1,0.1-0.2,0.2-0.3c0.1-0.1,0.1-0.2,0.2-0.3c0-0.1,0-0.2,0-0.3
		c0-0.1-0.1-0.1-0.2-0.1c-0.1,0-0.3-0.1-0.4-0.1c0,0,0.1,0,0.1,0c0.1,0,0.2,0,0.3,0c0.2,0,0.3-0.1,0.5-0.2c0.1,0,0.1-0.1,0.1-0.1
		c0.1-0.1,0.2-0.2,0.3-0.3c-0.1-0.1-0.1-0.2-0.2-0.3c0-0.1-0.1-0.2-0.1-0.3c0-0.2,0-0.3,0.1-0.5c0-0.1,0.1-0.2,0.1-0.3l0,0.3
		c0,0,0,0.1,0.1,0.1c0,0,0.1,0.1,0.2,0.1c0.1,0,0.2,0,0.3,0.1c0.1,0,0.1,0,0.2,0c0.2,0,0.3-0.1,0.4-0.2c0,0-0.1,0-0.1,0
		c0,0-0.1-0.1-0.1-0.1c0,0-0.1-0.1-0.1-0.1c-0.1-0.1-0.2-0.1-0.3-0.1c0.2,0,0.4,0,0.5,0c0,0,0.1,0,0.1,0c0.1,0,0.1,0,0.2,0
		c0.1-0.1,0.3-0.1,0.4,0c0,0,0.2,0.1,0.2,0.1c0,0,0.1-0.1,0.1-0.2c0,0,0.1-0.1,0.1-0.1c0,0,0,0,0.1-0.1c0,0,0.1,0,0.1,0
		c0,0,0,0,0,0.1c0,0,0,0.1,0,0.1c0,0,0.1,0,0.1,0c0,0,0.1,0,0.1,0c0-0.1,0-0.3,0-0.4s0-0.3,0.1-0.4c0.1,0.1,0.2,0.2,0.3,0.3
		c0.1,0.1,0.2,0.2,0.3,0.3c0.2,0,0.4,0,0.6,0.1c0,0,0.1,0,0.1,0c0,0,0.1,0,0.1-0.1l0-0.1c0,0,0-0.1-0.1-0.1c0,0-0.1,0-0.1,0
		c0,0,0.1-0.1,0.1-0.1c0,0,0.1,0,0.1,0c0,0,0,0,0.1,0.1c0,0,0,0.1,0,0.1L29.6,31.5z"/>
	<text transform="matrix(1 0 0 1 23.6104 38.6826)" class="st5 st8 st22">F</text>
	<text transform="matrix(1 0 0 1 23.958 38.6826)" class="st5 st8 st22">AI</text>
	<text transform="matrix(1 0 0 1 24.6729 38.6826)" class="st5 st8 st22">R</text>
	<text transform="matrix(1 0 0 1 25.0918 38.6826)" class="st5 st8 st22">Y </text>
	<text transform="matrix(1 0 0 1 25.7842 38.6826)" class="st5 st8 st22">T</text>
	<text transform="matrix(1 0 0 1 26.1045 38.6826)" class="st5 st8 st22">A</text>
	<text transform="matrix(1 0 0 1 26.6143 38.6826)" class="st5 st8 st22">L</text>
	<text transform="matrix(1 0 0 1 27.0225 38.6826)" class="st5 st8 st22">E A</text>
	<text transform="matrix(1 0 0 1 28.1836 38.6826)" class="st5 st8 st22">L</text>
	<text transform="matrix(1 0 0 1 28.5928 38.6826)" class="st5 st8 st22">E</text>
</g>
<g id="labelBeer3">
	<circle id="brand-4" class="st23" cx="26.4" cy="35" r="5.4"/>
	<path class="st20" d="M26.5,30.1c0.3,0,0.6,0,0.9,0.1c0.8,0.2,1.5,0.7,1.7,1.4c0.2,0.4,0.2,0.9,0.2,1.4c0,0.5,0,1,0,1.5V36
		c0,0.5,0.1,1,0,1.5c-0.1,0.8-0.7,1.4-1.4,1.6c-0.9,0.4-1.9,0.4-2.8,0c-0.7-0.3-1.2-0.9-1.3-1.7c0-0.3,0-0.6,0-0.9v-1
		c0-0.6,0-1.3,0-1.9c0-1.6,0-1.9,0.2-2.3c0.2-0.3,0.4-0.5,0.6-0.7C25.3,30.1,26.2,30.1,26.5,30.1z"/>
	<path class="st24" d="M26.5,30.3c0.3,0,0.5,0,0.8,0.1c0.7,0.2,1.4,0.6,1.7,1.3c0.2,0.4,0.2,0.9,0.2,1.3c0,0.5,0,0.9,0,1.4v1.5
		c0,0.5,0.1,1,0,1.5c-0.1,0.7-0.6,1.3-1.3,1.6c-0.9,0.3-1.8,0.3-2.7,0c-0.7-0.3-1.2-0.9-1.3-1.6c0-0.3,0-0.6,0-0.8v-0.9
		c0-0.6,0-1.2,0-1.8c0-1.5,0-1.8,0.2-2.2c0.1-0.3,0.4-0.5,0.6-0.7C25.4,30.3,26.2,30.3,26.5,30.3z"/>
	<polygon class="st25" points="23.9,35.5 22.7,35.5 22.8,36.2 22.7,36.9 23.9,36.9 	"/>
	<polygon class="st25" points="29.2,35.5 30.4,35.5 30.2,36.2 30.4,36.9 29.2,36.9 	"/>
	<polygon class="st26" points="29.2,35.6 30.2,35.6 30.1,36.2 30.2,36.7 29.2,36.7 	"/>
	<polygon class="st26" points="23.8,35.6 22.8,35.6 23,36.2 22.8,36.7 23.8,36.7 	"/>
	<path class="st27" d="M25.6,31.8l0.1,0.8l1.1,0.1L27,32L25.6,31.8z"/>
	<path class="st27" d="M27.1,32l0.2,0.9l0.9-0.1l0.1-1L27.1,32z"/>
	<path class="st26" d="M25.6,30.4c0,0.3-0.1,0.6-0.2,0.9c-0.1,0.2-0.1,0.3-0.2,0.5l1.9,0.1c0.3,0,0.6,0,0.9,0c0.2,0,0.3-0.1,0.4-0.2
		c0.1,0,0.2-0.1,0.3-0.2l-0.2-0.4l-0.1-0.4c-0.2-0.1-0.3-0.2-0.5-0.3c-0.3-0.1-0.6-0.2-0.9-0.2c-0.2,0-0.4,0-0.6,0
		C26,30.3,25.8,30.4,25.6,30.4z"/>
	<path class="st28" d="M25.7,32.6v0.7c0,0.2-0.1,0.3-0.1,0.5c-0.1,0.1-0.1,0.1-0.2,0.2c-0.1,0.1-0.1,0.2-0.2,0.3
		c0,0.1-0.1,0.2-0.1,0.3c-0.1,0.3-0.2,0.5-0.2,0.7c-0.2,0.5-0.5,1.1-0.5,1.4c0,0.1,0,0.1,0,0.1c0,0.1,0,0.2,0,0.3
		c0,0.1,0,0.2,0.1,0.3c0,0.1,0.1,0.1,0.1,0.2c0,0,0.1,0,0.1,0.1c0.1,0,0.1,0.1,0.1,0.1c0.1,0,0.2,0,0.2,0c0.1,0,0.1-0.1,0.1-0.1
		c-0.1-0.1-0.1-0.2-0.1-0.3c-0.1-0.1-0.1-0.3-0.2-0.4c0,0,0-0.1,0-0.1l1-1.7l0.4-0.8c0.1-0.1,0.1-0.1,0.2-0.2
		c0.1-0.1,0.1-0.1,0.1-0.2l0-0.2c0,0,0-0.1,0-0.1c0-0.2,0.1-0.3,0.1-0.4c0-0.1,0.1-0.3,0.1-0.4L25.7,32.6z"/>
	<path class="st28" d="M28.3,32.8c0,0,0,0.1,0,0.4c0,0,0,0.1,0,0.1c0,0.1,0,0.3,0,0.4c0,0,0,0,0,0.1c0,0.1,0.1,0.1,0.1,0.2
		c0,0.1,0,0.1,0.1,0.2l0.1,0.2c0,0.1,0,0.1,0,0.2c0,0.1,0,0.2,0,0.3v0.4l0.1,1.4l0,0.2l0,0.1c0,0.1,0,0.3,0,0.4c0,0.1,0,0.2,0,0.3
		c0,0,0,0-0.1,0.1c0,0-0.1,0-0.1,0c-0.1,0-0.3,0-0.4,0c0,0,0-0.1,0-0.1c0,0,0,0,0-0.1c0,0,0-0.1,0.1-0.1l0.2-0.5l-0.5-1.8
		c0-0.1-0.1-0.3-0.1-0.4c0-0.2-0.1-0.4-0.1-0.5c0-0.1-0.1-0.1-0.1-0.2c0-0.1-0.1-0.1-0.1-0.2c0-0.1,0-0.2-0.1-0.3
		c0-0.2-0.1-0.4-0.1-0.5C28,32.7,28.2,32.7,28.3,32.8z"/>
	<path class="st29" d="M24.3,36.6C24.3,36.6,24.3,36.6,24.3,36.6c-0.1,0.2-0.1,0.2-0.1,0.3l0.1,0.3l0.1,0.8h0v-0.6l0.1,0.4
		c0,0,0,0.1,0,0.1c0,0,0,0.1,0,0.1c0,0,0,0,0.1,0c0.2,0.1,0.4,0.1,0.6,0.1c0,0,0,0,0.1,0c0,0,0,0,0,0c0-0.1,0.1-0.1,0.1-0.2
		l-0.1-0.3c-0.1,0.1-0.3,0.1-0.4,0.1c-0.1-0.1-0.1-0.1-0.1-0.2c-0.1-0.1-0.1-0.2-0.1-0.3L24.3,36.6z"/>
	<path class="st29" d="M28.7,36.9c0,0,0.1,0.1,0.1,0.1c0,0,0,0.1,0,0.1l-0.1,0.8h-0.1v-0.4l0,0.4l-0.1,0.2c-0.1,0-0.2,0-0.3,0
		c-0.1,0-0.2,0-0.3,0c0,0,0,0,0,0c0,0,0,0,0,0c0-0.1-0.1-0.2-0.1-0.4c0,0,0-0.1,0.1-0.1s0.1,0,0.2,0c0.1,0,0.1,0,0.2,0l0.2,0
		C28.7,37.4,28.7,37.1,28.7,36.9L28.7,36.9z"/>
	<rect x="23.4" y="35.2" class="st20" width="6.3" height="1.4"/>
	<rect x="23.5" y="35.3" class="st26" width="6" height="1.2"/>
	<text transform="matrix(1 0 0 1 24.6216 36.2212)" class="st20 st8 st30">HO</text>
	<text transform="matrix(1 0 0 1 25.4937 36.2212)" class="st20 st8 st30">L</text>
	<text transform="matrix(1 0 0 1 25.9106 36.2212)" class="st20 st8 st30">L</text>
	<text transform="matrix(1 0 0 1 26.3218 36.2212)" class="st20 st8 st30">A</text>
	<text transform="matrix(1 0 0 1 26.8335 36.2212)" class="st20 st8 st30">BA</text>
	<text transform="matrix(1 0 0 1 27.7456 36.2212)" class="st20 st8 st30">CK</text>
</g>
</svg>
