<svg id="glassofbeer" xmlns="http://www.w3.org/2000/svg" viewBox="0 0 452.61 510.31">
<title>beer</title>
<path id="holder" d="M360.32,459.11c-8.53,1.07-18.13,2.13-27.73,1.07-12.8-1.07-22.4-11.73-21.33-24.53s11.73-22.4,24.53-21.34c22.4,2.14,44.8-8.53,64-29.86C420.06,361,432.86,329,436.06,292.71s-4.27-70.4-21.34-96c-14.93-24.53-35.2-38.4-57.6-40.53-12.8-1.07-22.4-11.73-21.33-24.53s11.73-22.4,24.53-21.34c37.34,3.2,70.4,24.54,92.8,61.87,21.34,34.13,30.94,78.93,27.74,123.73-3.2,45.87-20.27,87.47-46.94,118.4C413.66,438.85,388.06,454.85,360.32,459.11Z" transform="translate(-28.85 0)" style="fill:#f8b64c"/>
<path id="stroke" d="M72.32,510.31H345.39c12.8,0,23.47-11.73,21.33-24.53-13.86-135.47-3.2-270.93-4.26-407.47-86.4-12.8-219.74-12.8-306.14,0-1.06,136.54,9.6,272-5.33,408.54A21.3,21.3,0,0,0,72.32,510.31Z" transform="translate(-28.85 0)" style="fill:#ffd15c"/>
<path id="liquid" d="M89.39,466.58a536.31,536.31,0,0,0,240,0c-7.47-84.27-6.4-174.93-4.27-260.27,1.07-30.93,1.07-64,1.07-96-34.13-3.2-74.67-5.33-116.27-5.33s-82.13,2.13-116.26,5.33c0,32,1.06,64,1.06,96C95.79,291.64,96.86,381.24,89.39,466.58Z" transform="translate(-28.85 0)" style="fill:#f8b64c"/>
<g id="foam"><path d="M365.66,166.85c1.06-2.14,3.2-7.47,3.2-11.74a52.77,52.77,0,0,1,8.53-21.33c8.53-13.87,19.2-50.13,4.27-76.8-21.34-38.4-62.94-20.27-62.94-20.27-44.8,18.13-80,4.27-80,4.27-17.06-17.07-44.8-30.93-44.8-30.93C112.86-26.22,83,47.38,83,47.38c-72.53,16-56.53,62.93-40.53,73.6,2.13,2.13,9.6,1.06,11.73,0,7.47-4.27,11.73-16,32-5.34,11.73,6.4,22.4,4.27,28.8,2.14,10.67-4.27,21.33-5.34,32-1.07,3.2,1.07,5.33,3.2,8.53,4.27,14.94,11.73,57.6,11.73,57.6,11.73s39.47-1.07,38.4,29.87,14.94,8.53,14.94,8.53,7.46-9.6,17.06-13.87,20.27,3.2,21.34,13.87c2.13,17.07,7.46,50.13,21.33,34.13a64,64,0,0,0,5.33-29.86c-1.06-11.74,14.94-18.14,22.4-8.54h0C355,166.85,360.32,174.31,365.66,166.85Z" transform="translate(-28.85 0)" style="fill:#f2f2f2"/></g>
<g id="shadow" style="opacity:0.10000000149011612"><path d="M93.66,58s29.86-73.6,110.93-38.4c0,0,28.8,14.94,45.87,30.94,0,0,35.2,13.86,80-4.27,0,0,26.66-11.73,49.06,3.2-22.4-29.87-59.73-12.8-59.73-12.8-44.8,18.13-80,4.27-80,4.27C221.66,23.91,193.92,10,193.92,10,112.86-26.22,83,47.38,83,47.38c-72.53,16-56.53,62.93-40.53,73.6A3.32,3.32,0,0,1,44.59,122C33.92,103.91,36.06,70.85,93.66,58Z" transform="translate(-28.85 0)" style="fill:#231f20"/><path d="M315.52,181.78a17.37,17.37,0,0,0-11.73-13.87c0,1.07,1.07,2.13,1.07,3.2,1.06,14.93,5.33,40.53,16,38.4C318.72,201,316.59,189.24,315.52,181.78Z" transform="translate(-28.85 0)" style="fill:#231f20"/>
<path d="M262.19,173.24c0-12.8-6.4-19.2-13.87-23.46q3.21,4.8,3.2,12.8c0,20.27,6.4,18.13,10.67,13.87Z" transform="translate(-28.85 0)" style="fill:#231f20"/></g></svg>