<?xml version="1.0" encoding="utf-8"?>
<!-- Generator: Adobe Illustrator 22.1.0, SVG Export Plug-In . SVG Version: 6.00 Build 0)  -->
<svg version="1.1" xmlns="http://www.w3.org/2000/svg" xmlns:xlink="http://www.w3.org/1999/xlink" x="0px" y="0px"
	 viewBox="0 0 452.6 510.3" style="enable-background:new 0 0 452.6 510.3;" xml:space="preserve">
<style type="text/css">
	.st0{fill:#F8B64C;}
	.st1{fill:#FFD15C;}
	.st2{fill:#F2F2F2;}
	.st3{opacity:0.1;}
	.st4{fill:#231F20;}
	.st5{opacity:0.8;fill:#FFFFFF;}
</style>
<g id="glassofbeer">
	<title>beer</title>
	<path id="holder" class="st0" d="M331.5,459.1c-8.5,1.1-18.1,2.1-27.7,1.1c-12.8-1.1-22.4-11.7-21.3-24.5s11.7-22.4,24.5-21.3
		c22.4,2.1,44.8-8.5,64-29.9c20.3-23.5,33.1-55.5,36.3-91.7s-4.3-70.4-21.3-96c-14.9-24.5-35.2-38.4-57.6-40.5
		c-12.8-1.1-22.4-11.7-21.3-24.5s11.7-22.4,24.5-21.3c37.3,3.2,70.4,24.5,92.8,61.9c21.3,34.1,30.9,78.9,27.7,123.7
		c-3.2,45.9-20.3,87.5-46.9,118.4C384.8,438.9,359.2,454.9,331.5,459.1z"/>
	<path id="stroke" class="st1" d="M43.5,510.3h273.1c12.8,0,23.5-11.7,21.3-24.5c-13.9-135.5-3.2-270.9-4.3-407.5
		c-86.4-12.8-219.7-12.8-306.1,0c-1.1,136.5,9.6,272-5.3,408.5c-1.2,11.7,7.3,22.2,19,23.4C41.9,510.3,42.7,510.3,43.5,510.3z"/>
	<path id="liquid" class="st0" d="M60.5,466.6c79,18.1,161,18.1,240,0c-7.5-84.3-6.4-174.9-4.3-260.3c1.1-30.9,1.1-64,1.1-96
		c-34.1-3.2-74.7-5.3-116.3-5.3s-82.1,2.1-116.3,5.3c0,32,1.1,64,1.1,96C66.9,291.6,68,381.2,60.5,466.6z"/>
	<g id="foam">
		<path class="st2" d="M336.8,166.9c1.1-2.1,3.2-7.5,3.2-11.7c1.2-7.7,4.2-14.9,8.5-21.3c8.5-13.9,19.2-50.1,4.3-76.8
			c-21.3-38.4-62.9-20.3-62.9-20.3c-44.8,18.1-80,4.3-80,4.3C192.8,23.9,165.1,10,165.1,10C84-26.2,54.2,47.4,54.2,47.4
			c-72.5,16-56.5,62.9-40.5,73.6c2.1,2.1,9.6,1.1,11.7,0c7.5-4.3,11.7-16,32-5.3c11.7,6.4,22.4,4.3,28.8,2.1
			c10.7-4.3,21.3-5.3,32-1.1c3.2,1.1,5.3,3.2,8.5,4.3c14.9,11.7,57.6,11.7,57.6,11.7s39.5-1.1,38.4,29.9s14.9,8.5,14.9,8.5
			s7.5-9.6,17.1-13.9s20.3,3.2,21.3,13.9c2.1,17.1,7.5,50.1,21.3,34.1c4.1-9.4,6-19.6,5.3-29.9c-1.1-11.7,14.9-18.1,22.4-8.5l0,0
			C326.1,166.9,331.5,174.3,336.8,166.9z"/>
	</g>
	<g id="shadow" class="st3">
		<path class="st4" d="M64.8,58c0,0,29.9-73.6,110.9-38.4c0,0,28.8,14.9,45.9,30.9c0,0,35.2,13.9,80-4.3c0,0,26.7-11.7,49.1,3.2
			c-22.4-29.9-59.7-12.8-59.7-12.8c-44.8,18.1-80,4.3-80,4.3c-18.1-17-45.9-30.9-45.9-30.9C84-26.2,54.2,47.4,54.2,47.4
			c-72.5,16-56.5,62.9-40.5,73.6c0.8,0.1,1.6,0.4,2.1,1C5.1,103.9,7.2,70.8,64.8,58z"/>
		<path class="st4" d="M286.7,181.8c-1-6.5-5.5-11.8-11.7-13.9c0,1.1,1.1,2.1,1.1,3.2c1.1,14.9,5.3,40.5,16,38.4
			C289.9,201,287.7,189.2,286.7,181.8z"/>
		<path class="st4" d="M233.3,173.2c0-12.8-6.4-19.2-13.9-23.5c2.1,3.2,3.2,7.5,3.2,12.8c0,20.3,6.4,18.1,10.7,13.9V173.2z"/>
	</g>
</g>
<g id="circles">
	<circle id="c8" class="st5" cx="209.5" cy="388.8" r="16.8"/>
	<circle id="c7" class="st5" cx="169.1" cy="417.1" r="6.2"/>
	<circle id="c6" class="st5" cx="93" cy="397.4" r="6.2"/>
	<circle id="c5" class="st5" cx="192.9" cy="449.2" r="12.4"/>
	<circle id="c4" class="st5" cx="144.4" cy="397.4" r="12.4"/>
	<circle id="c3" class="st5" cx="258" cy="429.5" r="12.4"/>
	<circle id="c2" class="st5" cx="105.4" cy="446.9" r="17.4"/>
	<circle id="c1" class="st5" cx="270.4" cy="391.2" r="6.2"/>
</g>
</svg>
