<svg id="Capa_1" data-name="Capa 1" xmlns="http://www.w3.org/2000/svg" viewBox="0 0 317 492"><title>dollar</title><path d="M370.5,254q-22-17-66-28l-23-5V124a2.87,2.87,0,0,0,2,1,.88.88,0,0,1,1,1q29,14,31,48h77q-2-60-45-92-28-21-66-28V0h-71V52q-50,6-79,32-38,34-38,86,0,56,39,83,21,15,78,28V385q-21-6-32-19-12-14-15-38h-76q0,59,43,93,31,24,80,31v40h71V453q52-7,83-33,40-35,40-88Q404.5,281,370.5,254Zm-160-50q-17-5-24-9-19-10-19-31,0-23,19-35a100.22,100.22,0,0,1,24-10Zm83,179a52.76,52.76,0,0,1-12,3V297q19,6,29,12,17,11,17,30Q327.5,371,293.5,383Z" transform="translate(-87.5)" style="fill:#59d854"/></svg>