<svg xmlns="http://www.w3.org/2000/svg" viewBox="0 0 449.7 449.7"><title>elhefe</title><g id="githop"><circle id="brand" cx="224.85" cy="224.85" r="224.85" style="fill:#7b7160"/><path d="M292.9,255.35a28.73,28.73,0,0,1,0,15.67,68.7,68.7,0,0,1-4,8.53,67.76,67.76,0,0,1-7.2,10.49,4.31,4.31,0,0,1-3.5-.63A4,4,0,0,1,277,287.8a32.95,32.95,0,0,1-3.08-15.11V264.3a27.24,27.24,0,0,1,9.51-18.46,41.72,41.72,0,0,1,27.42-21.26,56.78,56.78,0,0,1,29.65,6.71,45.65,45.65,0,0,1,19,26,55.59,55.59,0,0,1,0,37.76,114.31,114.31,0,0,1-21.82,31.33c-3.54,2.76-7.41,5.55-11.61,8.33a189.17,189.17,0,0,1-19.72,11.39,115.11,115.11,0,0,0-29.37,34,57.25,57.25,0,0,0-3.78,17.34,57.85,57.85,0,0,0,.7,12.87,57.32,57.32,0,0,0,21.82,22.38,64.15,64.15,0,0,0,32.45,2.79,36.64,36.64,0,0,0,20.14-15.1,35,35,0,0,0,4.48-24.06,32.68,32.68,0,0,0-10.63-21.82,37.35,37.35,0,0,0-23.84-7.77,31.83,31.83,0,0,0-9.87,2,32.38,32.38,0,0,0-11.61,7.48L290.66,384a22.48,22.48,0,0,1,.35-9.23,22.82,22.82,0,0,1,5.8-10.35,33.17,33.17,0,0,1,8.67-8.74,34,34,0,0,1,17.63-5.81,35.83,35.83,0,0,1,23.5,7.11,60.36,60.36,0,0,1,20.14,22,62,62,0,0,1,0,42.8,49.47,49.47,0,0,1-17.21,22.66A86.77,86.77,0,0,1,317,453.9a72.64,72.64,0,0,1-15.52,0,71.79,71.79,0,0,1-18.12-4.41,68,68,0,0,1-26.29-31.33,61.24,61.24,0,0,1-2.8-30.77A70.46,70.46,0,0,1,267.16,357a164.15,164.15,0,0,1,12.94-15.15c4-4.15,7.94-7.79,11.68-11a104.25,104.25,0,0,1,9.09-6.43,107.07,107.07,0,0,1,15.52-8.12L336,297.87a53.83,53.83,0,0,0,5.8-23.57,38.7,38.7,0,0,0-3.15-16.15,38.22,38.22,0,0,0-5.45-8.95,29.21,29.21,0,0,0-8.6-5.95,28.53,28.53,0,0,0-6.49-2,21.71,21.71,0,0,0-12.19,1.62,21.38,21.38,0,0,0-7.13,5.25Z" transform="translate(-95.15 -170.65)" style="fill:#7c201c"/><text transform="translate(171.85 364.35)" style="font-size:36px;font-family:Norwester-Regular, Norwester">GITHOP</text><text transform="translate(163.85 395.35)" style="font-size:18px;font-family:Montserrat-Regular, Montserrat">VENOM ALE</text></g><g id="hollaback"><circle id="brand-2" data-name="brand" cx="224.85" cy="224.85" r="224.85" style="fill:#b3703d"/><path d="M324.41,194a160.56,160.56,0,0,1,35.41,4.28c31.08,7.44,60.09,28.06,72,57.73,7.19,17.93,7.73,37.55,7,56.6-.81,20.07-.37,40.18-.37,60.31v64.88c0,20.27,3.05,43.21,0,63.21a85.45,85.45,0,0,1-57,68,158.37,158.37,0,0,1-116,0,89.53,89.53,0,0,1-56-70c-1.8-11.54,0-24.84,0-36.54V422.59c0-26,.09-52,0-78.07-.24-65.32-1.27-77.38,8.33-95.19A98.88,98.88,0,0,1,243.4,219C274.28,194,310.35,193.85,324.41,194Z" transform="translate(-95.15 -170.65)" style="fill:#fff"/><path d="M324.4,203a152.66,152.66,0,0,1,33.76,4.08c29.63,7.1,57.28,26.75,68.62,55,6.85,17.09,7.37,35.79,6.64,53.95-.77,19.13-.36,38.31-.36,57.5v61.85c0,19.32,2.92,41.19,0,60.25a81.46,81.46,0,0,1-54.34,64.83,150.91,150.91,0,0,1-110.58,0,85.35,85.35,0,0,1-53.38-66.73c-1.72-11,0-23.68,0-34.84v-38c0-24.81.09-49.62,0-74.42-.23-62.28-1.21-73.77,7.94-90.75a94.7,94.7,0,0,1,24.47-28.92C276.61,203,311,202.86,324.4,203Z" transform="translate(-95.15 -170.65)" style="fill:#683d1f"/><polygon points="118.84 247.35 68.58 247.35 76.58 274.68 68.58 302.01 119.12 302.01 118.84 247.35" style="fill:#fffffe"/><polygon points="338.86 247.35 389.12 247.35 381.12 274.68 389.12 302.01 338.58 302.01 338.86 247.35" style="fill:#fffffe"/><polygon points="339.56 252.35 381.25 252.35 374.61 275.01 381.25 297.68 339.33 297.68 339.56 252.35" style="fill:#dc2a26"/><polygon points="117.02 252.35 75.33 252.35 81.97 275.01 75.33 297.68 117.25 297.68 117.02 252.35" style="fill:#dc2a26"/><path d="M284.65,265.87q2.87,16.63,5.75,33.25l44.87,4.35q2.94-16.25,5.89-32.5Z" transform="translate(-95.15 -170.65)" style="fill:#e3bf9a"/><path d="M349.23,271.74l6.67,38.76,39-5.5,6-40.75Z" transform="translate(-95.15 -170.65)" style="fill:#e3bf9a"/><path d="M285.57,207.44a186.22,186.22,0,0,1-8.17,37.06,184.53,184.53,0,0,1-8.34,20.83l76.67,6a145.66,145.66,0,0,0,16.17,1.17,147.81,147.81,0,0,0,21.16-1.17,84.13,84.13,0,0,0,28.67-14l-10-15.33q-2.88-8.92-5.75-17.83a126.13,126.13,0,0,0-21.58-11.5,135,135,0,0,0-37.34-9.17,146.77,146.77,0,0,0-24.66-.33A151.37,151.37,0,0,0,285.57,207.44Z" transform="translate(-95.15 -170.65)" style="fill:#dc2a26"/><path d="M290.4,298v27.5a58.5,58.5,0,0,1-6,20,96.08,96.08,0,0,0-8.34,8.33,98.72,98.72,0,0,0-8.33,10.84c-1.81,3.83-3.6,7.83-5.33,12-5.33,12.75-6.91,19.09-10,27.83-7.56,21.31-20.1,45.38-19.71,56.83.08,2.38.28,4.91.28,4.91a118.22,118.22,0,0,0,1.76,13.26,40.08,40.08,0,0,0,3.17,13.33,39.08,39.08,0,0,0,4,7.17c1,.46,2.55,1.17,4.33,2.17,3.55,2,3.6,2.53,5.29,3.2,4.42,1.78,8.92-.07,9.63-.37a13.68,13.68,0,0,0,5.25-4c-2.5-4.21-4.39-7.91-5.75-10.75-5-10.44-6.13-16.15-6.42-17.75-.38-2.06-.57-3.8-.67-5Q274,431.76,294.4,396l18-31.5a93.85,93.85,0,0,0,8.34-8.74,95.07,95.07,0,0,0,6.16-8.26l1.16-8.83c.25-1.19.62-2.94,1.09-5.05,1.72-7.75,2.87-11.71,3.75-15.45A110.5,110.5,0,0,0,335.4,302Z" transform="translate(-95.15 -170.65)" style="fill:#a8d1d8"/><path d="M394.89,305c.68,1.19,0,2.24,0,15.25a38.94,38.94,0,0,0,0,5.4c.83,5.59,0,11.41,1.52,17a23.66,23.66,0,0,0,1,2.83c.94,2.25,2.26,4.07,2.8,6.46a58.91,58.91,0,0,0,2.41,7.19l3.46,9.54A61.2,61.2,0,0,1,408.73,387v18l4.67,58q.77,4.14,1.5,8.37c.17,1,.33,2,.5,3a121.86,121.86,0,0,1-1,18c-.53,4-1.22,7.74-2,11.17a8.29,8.29,0,0,1-2.5,2.33,8.42,8.42,0,0,1-4.75,1.17,56,56,0,0,1-17.42,0,6.27,6.27,0,0,1-1.5-4.69,5.85,5.85,0,0,1,1-2.25c.78-1.27,1.87-3.13,3.14-5.56l6.33-21.83-20.33-74c-1.61-5.63-3.13-11.63-4.5-18-1.67-7.75-2.92-15.11-3.84-22a44.5,44.5,0,0,1-6.66-15.34c-1-3.38-1.88-7-2.67-10.83a147.12,147.12,0,0,1-2.83-22C385.56,300.74,393.23,302.11,394.89,305Z" transform="translate(-95.15 -170.65)" style="fill:#a8d1d8"/><path d="M232.69,461.33a15.29,15.29,0,0,0-6,11.34q1.5,6.4,3,12.83l3,31.5h2V492.5l2.25,15.18c.26,1.8.77,3.55,1,5.36.22,2,.14,4.15,1.6,5.66a9.74,9.74,0,0,0,2.92,1.92c7.34,3.49,15.42,4,23.38,3A6.34,6.34,0,0,0,268,523a5.55,5.55,0,0,0,1.66-1.51,13.26,13.26,0,0,0,2.79-8.73l-6-11.75a15.87,15.87,0,0,1-6.5,3.25,16.21,16.21,0,0,1-10.38-1.15,55.79,55.79,0,0,1-11.87-17.85Q235.16,473.29,232.69,461.33Z" transform="translate(-95.15 -170.65)" style="fill:#2e2b2c"/><path d="M415.4,474.33a26.16,26.16,0,0,1,4.5,8.67l-2.25,31.25H415.4v-15.5l-2,18.25-3.75,7.79a60.06,60.06,0,0,1-11,1,75.33,75.33,0,0,1-10.91-1.06,3,3,0,0,1-1.37-.44,2.58,2.58,0,0,1-.88-1.48c-1.32-5.18-4.53-9.88-2.72-16.52.49-1.8.92-3.31,2.25-4,1.8-.94,3.76.39,6.88,1.25a22.4,22.4,0,0,0,9.12.5l6.38-1.75a51.43,51.43,0,0,0,8-27.92Z" transform="translate(-95.15 -170.65)" style="fill:#2e2b2c"/><rect x="99.25" y="234.33" width="258" height="56.35" style="fill:#fff"/><rect x="103.91" y="238.01" width="248" height="48.67" style="fill:#dc2a26"/><text transform="translate(149.85 276.01)" style="font-size:36px;fill:#fff;font-family:Norwester-Regular, Norwester">HO<tspan x="36" y="0" style="letter-spacing:-0.009982638888888888em">L</tspan><tspan x="53.28" y="0" style="letter-spacing:-0.019992404513888888em">L</tspan><tspan x="70.2" y="0">A</tspan><tspan x="91.3" y="0" style="letter-spacing:-0.019992404513888888em">BA</tspan><tspan x="128.99" y="0">CK</tspan></text></g><g id="hoppily"><circle id="brand-3" data-name="brand" cx="224.85" cy="224.85" r="224.85" style="fill:#99b755"/><path d="M267.75,299.3a78.75,78.75,0,1,0,78.75,78.75A78.75,78.75,0,0,0,267.75,299.3Zm0,143.44a64.69,64.69,0,1,1,64.69-64.69A64.69,64.69,0,0,1,267.75,442.74Z" transform="translate(-95.15 -170.65)" style="fill:#ffce54"/><path d="M380.25,299.3A78.53,78.53,0,0,0,324,322.94a79.37,79.37,0,0,1,9,11,64.59,64.59,0,1,1-9,12.19,65,65,0,0,0-9-12.19,78.75,78.75,0,1,0,65.22-34.61Z" transform="translate(-95.15 -170.65)" style="fill:#f6bb42"/><path id="SVGCleanerId_0" data-name="SVGCleanerId 0" d="M315,422.19A64.59,64.59,0,1,1,324,410a64.88,64.88,0,0,0,9,12.19,78.9,78.9,0,1,0-9,11A80.1,80.1,0,0,1,315,422.19Z" transform="translate(-95.15 -170.65)" style="fill:#ffce54"/><path id="SVGCleanerId_0-2" data-name="SVGCleanerId 0" d="M315,422.19A64.59,64.59,0,1,1,324,410a64.88,64.88,0,0,0,9,12.19,78.9,78.9,0,1,0-9,11A80.1,80.1,0,0,1,315,422.19Z" transform="translate(-95.15 -170.65)" style="fill:#ffce54"/><path d="M356.62,223.92a23.08,23.08,0,0,0-32.62,0,23.07,23.07,0,0,0-32.62,32.63L321,286.16h0a4.22,4.22,0,0,0,6,0h0l29.64-29.63A23.07,23.07,0,0,0,356.62,223.92Z" transform="translate(-95.15 -170.65)" style="fill:#ed5565"/><text transform="translate(81.85 346.35)" style="font-size:36px;font-family:Norwester-Regular, Norwester">HOPPI<tspan x="80.5" y="0" style="letter-spacing:-0.1399875217013889em">L</tspan><tspan x="93.1" y="0" style="letter-spacing:0.000013563368055555555em">Y EV</tspan><tspan x="159.26" y="0" style="letter-spacing:-0.009982638888888888em">E</tspan><tspan x="176.87" y="0" style="letter-spacing:-0.00002712673611111111em">R AF</tspan><tspan x="243.36" y="0" style="letter-spacing:-0.010009765625em">TE</tspan><tspan x="277.16" y="0">R</tspan></text><text transform="translate(163.85 388.35)" style="font-size:24px;font-family:Montserrat-Regular, Montserrat">belgian ipa</text></g></svg>