<svg id="Layer_1" data-name="Layer 1" xmlns="http://www.w3.org/2000/svg" viewBox="0 0 201.06 201.88"><title>jonas</title><g id="Layer_1-2" data-name="Layer 1"><path d="M30,157.84c-8.3,5.07-24.22,11.1-28.29,20.33-2.61,5.93-1.51,16.3-1.51,23,0,1,1.21.67,1.57.67H199.7a.67.67,0,0,0,.67-.67v-1.33c.15-1.24,1.48-33.08,0-38h0l-.94-1.87a.62.62,0,0,0-.17-.22l-6.77-5.6a.61.61,0,0,0-.22-.13L148.55,139.9a.66.66,0,0,1-.31-.21l-7.12-8.79a.63.63,0,0,1-.14-.44L142.36,83a.63.63,0,0,1,.11-.35l10.37-15.59a.73.73,0,0,0,.09-.54L140.65,20.14a.65.65,0,0,0-.36-.43L103.56,1.94a.58.58,0,0,0-.41-.06L64.57,9.13a.78.78,0,0,0-.35.18l-8.63,8.58a.7.7,0,0,0-.19.55l11,99.35v19.64a.68.68,0,0,1-.37.6L45.37,148.72" transform="translate(0 -0.01)" style="fill:#080808"/><path d="M135.58,31.84l2-8c0-.39-20.64-19.26-39.39-21.64-29.47-3.75-11.82-2-18,.24-4,1.52-12,4.21-16,5.73-.51.19-6.7,9.15-8,8l-4.3,12c-3.36,31.61.48,40.69,4.39,35.1,2-2.79,4.79-9.46,5-18.34,0-.53.93-2.61,1.29-4.41,1.51-7.65,2.5-24.28,1.77-22.13a.9.9,0,0,0,.21.9h0a.88.88,0,0,0,1.24,0l.18-.18a.89.89,0,0,0,.25-.48l.82-4.92a1,1,0,0,1,.94-.8h1.33l6.76,1.69A.86.86,0,0,0,77.19,14a.78.78,0,0,0,0-.3h0c0-.48,1.7,2.41,2.19,2.41,3.81,0,5.77-3.31,9.25-5,.33-.17.39,4.64.66,4.91L90,11.58a.85.85,0,0,1,.26.62v.47a1,1,0,0,0,1,.95h.1l3.39-.68a.86.86,0,0,1,.79.24l.41.41a.85.85,0,0,1,.26.62v.89A1,1,0,0,0,97,16l2.08.52a1,1,0,0,0,1.17-.79.68.68,0,0,0,0-.14V14.44a1,1,0,0,1,.54-.87c7-3.32,13.25.5,18.06,5.82a1.32,1.32,0,0,0,1,.45h.06a1.34,1.34,0,0,0,1.34-1.34v-.21a1.32,1.32,0,0,0-.27-.81l-2.23-3a1,1,0,0,1,.09-1.26l.41-.38" transform="translate(0 -0.01)" style="fill:#3c3c3c"/><path d="M100.23,15.84c14.71-3.46,10.35,12.27,10,22a15.39,15.39,0,0,1,7,3l-1,2-4,1,1,1c6.63,0,15.48-3.17,18,5h-2c-7.19-1.9-23.91-3.69-22,8l1-1c9.22-7.8,15.41-.41,25-1l1,1v8h-2l-19-2v-2h2l11,2v-2l6,1v-2l-9-5-1,1v2l-1,1h-5v-2c1.3-.65,1-.15,1-2h-2c-8.28,4.72-2.16,24.54,2.56,30.9,2,2.69,4.78,4.15,6.44,7.1h2c3.13-1.9,3.88-4.59,5-8h2c.65,1.3.15,1,2,1v-4h-2l-1,1-1-1,1-1h5v2l1,1,1-1,1-5h3l1-1v-2h-4v-2a163.52,163.52,0,0,0-1.42-29c-.63-4.68-.2-9.07-5.58-10v-3c-4.37-5.79-5.85-12.4-12.4-15.94l-2.6-1.06,3,5-1,1C116.1,15.71,103.44,6.16,100.23,15.84Z" transform="translate(0 -0.01)" style="fill:#fcedcc"/><path d="M67.23,12.84v3a15.41,15.41,0,0,1-5,4v2c0,4.46,1.93,9.55,1.34,13.83C62.23,45.59,57.31,52,58.4,62.84c1,10,8.21,18.57,8.83,28h3c8.59,10.11,14.24-.76,15-10h2l1,1a38.46,38.46,0,0,0-3,10h2l7-1v2l-2,1,1,1h6v-2c.26-2.77.63-3.55,3-5v-2c-3.48-3.2-6.63-1.84-11-2l1-2,8-1v-3c3.42-8.14.63-20.61-1-29l1,1c6.39-.89,14.18-3,17-8l-1-2a9.7,9.7,0,0,0-6-2v-2c.65-4.11,2.68-15.91,0-19.26s-8.54-.94-12-.62C87.43,17,77.89,14.22,67.23,12.84Z" transform="translate(0 -0.01)" style="fill:#fdf6e4"/><path d="M100.23,48.84l-1,1v2l1,5h2c3.32,5.61,6.84,10.31,7,17h-5v-2c.79-3.4,0-5.7-1-9h-2l-1,1,1,1c.23,11.07,8.54,8.87,11,17h-2c-5.5-2.65-13.64-1.82-19,1l1,1,1,1c5.66-1.46,10.94.24,16,3l1-1v-2c3.55.58,4.76,1.63,6,5h3l3,2,1-1c-5.56-6.46-20.63-31.67-6-36v2c-1.3.65-1,.15-1,2h6v-3l1-1c3.56,2.51,6.75,4.88,11,6v-2c0-1.8,0-1.52-1-3l-1,1c-6.85-3.74-19.48-8-24,1l-1-1c.51-11.82,16.58-7.38,24-7v-2C123.48,35.56,107.23,53.38,100.23,48.84Z" transform="translate(0 -0.01)"/><path d="M147.23,44.84v3c-2.79,3.85-4.68,7.2-5,12h2c7.9-.28,8.09,7.62,2,11v2c-.27,3.57-.83,5.26-4,7v2a7.89,7.89,0,0,0,4,2v-2c12-11.38,4.15-23.67,4-37Z" transform="translate(0 -0.01)" style="fill:#f8d484"/><path d="M64.23,56.84h2c7.53-4.21,15.14-3.14,23-6l1,1v2h2v-2C86.36,45.84,66.82,48.27,64.23,56.84Z" transform="translate(0 -0.01)"/><path d="M46.23,55.84v10l1-1v-8h2l3,3,1-1C51,56.54,49.43,56.07,46.23,55.84Z" transform="translate(0 -0.01)" style="fill:#414141"/><path d="M66.23,63.84l1,1h2l8-4v2l1,1,1-1h3v-3l1-1h2c-.26,5.73-5.39,6.92-10,9l1,1h2c8.15-1.68,11.26-3.57,13-12C81.23,56.05,73.73,55.84,66.23,63.84Z" transform="translate(0 -0.01)" style="fill:#020202"/><path d="M101.23,56.84v2c.75,5.5,3.57,9.17,3,15h5v-2c-.32-5.87-3.72-9.78-6-15Z" transform="translate(0 -0.01)" style="fill:#f8d484"/><path d="M113.23,60.84v2c6.71,2,14.07,1.18,21,2v-4h-2c-2.48.35-4.31.18-6,2h-2Z" transform="translate(0 -0.01)" style="fill:#454545"/><path d="M101.23,70.84c-.08,3.94-.37,7-3,10l1,1h2c3.56-2.58,7-.68,11,0v-2C109.58,75.7,104.23,75.37,101.23,70.84Z" transform="translate(0 -0.01)" style="fill:#f8d484"/><path d="M140.23,77.84l-1,6h-2v-2a14.81,14.81,0,0,0-6-1v2h2l2-1v2l-3,7h2l3,16,2-1C142.61,99.48,143,84.46,140.23,77.84Z" transform="translate(0 -0.01)" style="fill:#f8d484"/><path d="M85.23,80.84c-1.22,8.88-5.85,13.87-3,23l1-1c8.76-7.23,27-6.92,37-3v-2a8.09,8.09,0,0,0,2-5h-2c-10.92,4.63-24.45,1.81-36,4l-1-1,1-1c1.48-1,1.2-1,3-1-1.41-4.8-.25-8.3,1-13Z" transform="translate(0 -0.01)" style="fill:#0f0f0f"/><path d="M104.1,117.5l2.85-4.13-8.74,1-1,1.47v2l-1,1c-2.78-1.49-4-3-7.14-3l-.86-1v-6h-2l1,1v2h-2L83,110.65" transform="translate(0 -0.01)" style="fill:#f8d484"/><path d="M82.23,109.84l-3-1.31v-1.69c1.64-.54,1.45.33,2-1.3l1,1.3h3v-6l-1,1-1,2-1-1-2-8c-3,.85-4.28.47-7-1-1.3.65-1,.15-1,2h-2l-1-1,2-3-1-1h-2l-1-1a12.75,12.75,0,0,0-3-8v2c2.46,6.43,1.29,12.33,2.19,19,1.23,9.12,4.23,17.32,2.66,27-1.2,7.37-10.3,7.5-7.85,16l1-1-1-1c1-3.09,2.85-4.65,5-7l1,1v2h3v-26l1,1c1.22-2.36.85-3.46,0-6l1-1,2,1c5.63,7.75,7.88,12,18,12l.83.16c3.17,1.32,9.61-1.16,9.07.78l1.1-3.94" transform="translate(0 -0.01)" style="fill:#f8d484"/><path d="M52.23,82.84v2l3,4,1-1Z" transform="translate(0 -0.01)" style="fill:#5e5e5e"/><path d="M110.23,84.84v2l-1,1c-3.48-2.63-6.18-1.37-10,0l1,1h2v2c-3.56,4-7,3.92-12,3v-2h3l1-1h-2l-6,1,1,1-4,2v2h2c12-.94,25.47-.4,37-4v2l-2,5h-2c-5.1-5.21-15.19-2-22-2l1,1h10v3l-2,5,1,1h2l1,1c.08,4.9.83,8.51-4,11l.7-.39.38.39,1.74.4c3.17-2,3.93-1.73,4.18-5.4h2c12.61,4.42,16-14.89,15-23l-2,1h-3v-2l-1-1v2l-7-2v-3A9.7,9.7,0,0,0,110.23,84.84Z" transform="translate(0 -0.01)" style="fill:#f8d484"/><path d="M89.94,117.3c1.9-.12,4.69,2.27,6.34,2.2,1.23,0,1.62-3.14,6-2.1l2-1,2,.19,1.06.29-2.11,3h2c3.45-3.48,2.09-7.41,2-12h-2a22,22,0,0,1-8-3l1-1,1-1,6-1v-2l.66-1.34c-8.66,0-22.52-3.07-22.66,8.34h-2l-1-2-2,1-2,2" transform="translate(0 -0.01)" style="fill:#f8d484"/><path d="M137.23,110.84v2c-8.25,6.15-4.25,11.54-4,20h3l1,1-1,1c.46,7.19,2.93,12.59,2,20h2c2.62-3.85,7.27-8.31,7.84-13.09.8-6.67-5.15-7-7.24-12s-.6-13.39-.6-18.91Z" transform="translate(0 -0.01)" style="fill:#fcedcc"/><path d="M130.23,117.84v3c-3.46,4.56-2.1,11,0,16h-2c-2.86,4.46-11.68,17.44-4,20,1.56-8.09,8.46-13.55,9-22h2l1,1,1-1v-2h-3l-1-1c-.14-4.61-2.22-8.46-1-13C131.58,117.54,132.08,117.84,130.23,117.84Z" transform="translate(0 -0.01)" style="fill:#323232"/><path d="M75.23,118.84v2c4.29,6.55,12.92,16,15,23h2l5,1v2h-2a62.81,62.81,0,0,0-2,13h2c3.2-4.24,5.32-3.71,10-2v2a9.08,9.08,0,0,1-6,3l1,1c5.88,1.09,9.3,1,14-3l1,1v2l1,2h-2c-4.79,2.31-8.88,1.95-14,1v2a30.35,30.35,0,0,1-9,1l1,1c18.92,0,34.3.36,48-15-.65-1.3-.15-1-2-1,1.39-7.51-.09-13-3-20h-2c-1,8.24-8.1,13.74-9,22h-2c-3.68-9.12,7.21-16.58,3-27h-2a15.62,15.62,0,0,0-3,9h-2l-11-1v-2c-6.92-3.35-15-1.69-21.66-5.76C81.42,127.53,79.23,121.94,75.23,118.84Z" transform="translate(0 -0.01)" style="fill:#f8d484"/><path d="M96.23,138.84v2a11.27,11.27,0,0,0,4,4v2l-3,2v2h2c5.89-.07,8.14-2.43,13-5v-6h-2c-3.09.21-5.38.7-8-1h-2C98.45,139.84,98.15,139.68,96.23,138.84Z" transform="translate(0 -0.01)" style="fill:#fcedcc"/><path d="M70.23,113.84v26h-2c-1-1.48-1-1.2-1-3l-2,1c-6.49,4.89-1.78,12,2.44,17.13,8.67,10.64,19.22,14.87,32.56,14.87v-2l-3-2v-2c4.33-.86,7-1.38,8-6h-2c-3.39-3.42-6-2-8,2h-2v-2c.83-3.78,1.4-8.17,4-11v-2a9.32,9.32,0,0,0-7-1v-3C83.08,132.92,78.5,120.06,70.23,113.84Z" transform="translate(0 -0.01)" style="fill:#fdf6e4"/><path d="M47.23,56.84v2c0,10.34,2.6,32.56,16,33v-2c-1.06-6.7-3.8-14.5-6-21l-1,1c-1.3,3.11-.94,5.81,0,9l-1,1C49.9,71.51,60.07,60.46,47.23,56.84Z" transform="translate(0 -0.01)" style="fill:#fcedcc"/></g></svg>