<?xml version="1.0" encoding="utf-8"?>
<!-- Generator: Adobe Illustrator 22.1.0, SVG Export Plug-In . SVG Version: 6.00 Build 0)  -->
<svg version="1.1" xmlns="http://www.w3.org/2000/svg" xmlns:xlink="http://www.w3.org/1999/xlink" x="0px" y="0px"
	 viewBox="0 0 209.2 208.6" style="enable-background:new 0 0 209.2 208.6;" xml:space="preserve">
<style type="text/css">
	.st0{fill:#080808;}
	.st1{fill:#3C3C3C;}
	.st2{fill:#FDC786;}
	.st3{fill:#FEE1B9;}
	.st4{fill:#414141;}
	.st5{fill:#020202;}
	.st6{fill:#454545;}
	.st7{fill:#0F0F0F;}
	.st8{fill:#F8D484;}
	.st9{fill:#5E5E5E;}
	.st10{fill:#323232;}
	.st11{fill:#FCEDCC;}
	.st12{display:none;}
	.st13{display:inline;fill:#0D0E10;}
	.st14{display:inline;fill:#FDC786;}
	.st15{display:inline;fill:#2B2321;}
	.st16{display:inline;fill:#010101;}
	.st17{display:inline;fill:#FEE1B9;}
	.st18{display:inline;fill:#080605;}
	.st19{display:inline;fill:#0C0807;}
	.st20{display:inline;fill:#2F3766;}
	.st21{display:inline;fill:#FCEDCC;}
	.st22{display:inline;fill:#281D1C;}
	.st23{display:inline;fill:#1A1312;}
	.st24{display:inline;fill:#533A36;}
	.st25{display:inline;fill:#080504;}
	.st26{display:inline;fill:#1E1614;}
	.st27{display:inline;fill:#020101;}
	.st28{display:inline;}
	.st29{display:inline;fill:#1A0F0F;}
	.st30{display:inline;fill:#17110F;}
	.st31{display:inline;fill:#030303;}
	.st32{display:inline;fill:#120D0B;}
	.st33{display:inline;fill:#364177;}
	.st34{display:inline;fill:#0A0706;}
	.st35{display:inline;fill:#010000;}
	.st36{display:inline;fill:#392C2A;}
	.st37{display:inline;fill:#060508;}
	.st38{display:inline;fill:#6C5148;}
	.st39{display:inline;fill:#3C302E;}
	.st40{display:inline;fill:#D5D5D5;}
	.st41{display:inline;fill:#54474D;}
	.st42{display:inline;fill:#1B1513;}
	.st43{display:inline;fill:#C3B3AB;}
	.st44{display:inline;fill:#0A0A0A;}
	.st45{display:inline;fill:#797C96;}
	.st46{display:inline;fill:#4F545A;}
	.st47{display:inline;fill:#6D6B6F;}
	.st48{display:inline;fill:#654C44;}
	.st49{display:inline;fill:#191513;}
	.st50{display:inline;fill:#563C36;}
	.st51{display:inline;fill:#6D5048;}
	.st52{display:inline;fill:#0A0606;}
	.st53{display:inline;fill:#070504;}
	.st54{display:inline;fill:#BA8F82;}
	.st55{display:inline;fill:#CE9689;}
	.st56{display:inline;fill:#110D0A;}
	.st57{display:inline;fill:#23110A;}
	.st58{display:inline;fill:#A19388;}
	.st59{display:inline;fill:#514B47;}
	.st60{display:inline;fill:#897F79;}
	.st61{display:inline;fill:#0A0908;}
	.st62{display:inline;fill:#171514;}
	.st63{display:inline;fill:#595351;}
	.st64{display:inline;fill:#181716;}
	.st65{display:inline;fill:#060505;}
	.st66{display:inline;fill:#716C68;}
	.st67{display:inline;fill:#332B26;}
	.st68{display:inline;fill:#040403;}
	.st69{display:inline;fill:#040303;}
	.st70{display:inline;fill:#141211;}
	.st71{display:inline;fill:#211C1A;}
	.st72{display:inline;fill:#7E7670;}
</style>
<g id="Layer_1">
	<g id="Layer_1_1_" xmlns:rdf="http://www.w3.org/1999/02/22-rdf-syntax-ns#" xmlns:svg="http://www.w3.org/2000/svg">
		<path class="st0" d="M29.8,164.9C21.5,170,5.6,176,1.5,185.2c-2.6,5.9-1.5,16.3-1.5,23c0,1,1.2,0.7,1.6,0.7h1.3h196.6
			c0.4,0,9.7-0.2,9.7-0.2s-1.4-31.8-9-39.9l0,0c0,0-0.7-0.7-1.8-1.8c-2.3-2.2-6.2-5.8-8.9-7.1c-2.1-1-13.9-5.1-16-5.7l-25.2-7.2
			c-0.1,0-0.2-0.1-0.3-0.2l-7.1-8.8c-0.1-0.1-0.2-0.3-0.1-0.4l1.4-47.4c0-0.1,0-0.2,0.1-0.4l10.4-15.6c0.1-0.2,0.1-0.4,0.1-0.5
			l-12.3-46.4c0-0.2-0.2-0.3-0.4-0.4L103.3,9c-0.1-0.1-0.2-0.1-0.4-0.1l-38.6,7.3c-0.1,0-0.3,0.1-0.3,0.2L55.4,25
			c-0.1,0.1-0.2,0.3-0.2,0.5l11,99.4c0,0,0,0,0,0.1v19.6c0,0.2-0.1,0.5-0.4,0.6l-20.6,10.7"/>
		<path class="st1" d="M135.4,38.9l2-8c0-0.4-20.6-19.3-39.4-21.6C68.5,5.5,86.2,7.2,80,9.5c-4.1,1.5-12,4.2-16,5.7
			c-0.5,0.2-6.7,9.2-8,7.9l-4.3,12c-3.4,31.6,0.5,40.7,4.4,35.1c1.9-2.8,4.8-9.5,5-18.3c0-0.5,0.9-2.6,1.3-4.4
			c1.5-7.6,2.5-24.3,1.8-22.1c-0.1,0.3,0,0.7,0.2,0.9l0,0c0.3,0.3,0.9,0.3,1.2,0l0.2-0.2c0.1-0.1,0.2-0.3,0.2-0.5l0.8-4.9
			c0.1-0.5,0.5-0.8,0.9-0.8h1c0.1,0,0.2,0,0.3,0l6.8,1.7c0.6,0.1,1.1-0.3,1.1-0.8l0,0c0-0.5,1.7,2.4,2.2,2.4c3.8,0,5.8-3.3,9.3-5
			c0.3-0.2,0.4,4.6,0.7,4.9l0.6-4.5c0.2,0.2,0.3,0.4,0.3,0.6v0.5c0,0.6,0.6,1.1,1.1,0.9l3.4-0.7c0.3-0.1,0.6,0,0.8,0.2l0.4,0.4
			c0.2,0.2,0.3,0.4,0.3,0.6V22c0,0.4,0.3,0.8,0.7,0.9l2.1,0.5c0.6,0.2,1.2-0.3,1.2-0.9v-1.2c0-0.4,0.2-0.7,0.5-0.9
			c7-3.3,13.3,0.5,18.1,5.8c0.3,0.3,0.6,0.4,1,0.4h0.1c0.7,0,1.3-0.6,1.3-1.3v-0.2c0-0.3-0.1-0.6-0.3-0.8l-2.2-3
			c-0.3-0.4-0.2-0.9,0.1-1.3l0.4-0.1"/>
		<path class="st2" d="M100,22.9c14.7-3.5,10.3,12.3,10,22c2.9,0.4,4.6,1.4,7,3l-1,2l-4,1l1,1c6.6,0,15.5-3.2,18,5h-2
			c-7.2-1.9-23.9-3.7-22,8l1-1c9.2-7.8,15.4-0.4,25-1l1,1v8h-2l-19-2v-2h2l11,2v-2l6,1v-2l-9-5l-1,1v2l-1,1h-5v-2c1.3-0.6,1-0.1,1-2
			h-2c-8.3,4.7-2.2,24.5,2.6,30.9c2,2.7,4.8,4.2,6.4,7.1h2c3.1-1.9,3.9-4.6,5-8h2c0.6,1.3,0.1,1,2,1v-2v-2h-2l-1,1l-1-1l1-1l4.2,1
			l0.8,2l0.9,1l1.9-1l0.2-6h3l1-1v-2h-4v-2c0.4-9.8-0.1-19.2-1.4-29c-0.6-4.7-0.2-9.1-5.6-10v-3c-4.4-5.8-5.8-12.4-12.4-15.9
			l-2.6-1.1l3,5l-1,1C115.9,22.8,103.2,13.2,100,22.9z"/>
		<path class="st3" d="M67,19.9v3c-1.6,1.8-2.9,2.9-5,4v2c0,4.5,1.9,9.6,1.3,13.8C62,52.6,57.1,59,58.2,69.9c1,10,8.2,18.6,8.8,28h3
			c8.6,10.1,14.2-0.8,15-10h2l1,1c-1.6,3.2-2.3,6.5-3,10h2l7-1v2l-2,1l1,1h6v-2c0.3-2.8,0.6-3.5,3-5v-2c-3.5-3.2-6.3-2.2-10.7-2.4
			l1-1.2l7.7-1.4v-3c3.4-8.1,0.6-20.6-1-29l1,1c6.4-0.9,14.2-3,17-8l-1-2c-2.1-1.5-3.4-1.8-6-2v-2c0.7-4.1,2.7-15.9,0-19.3
			c-2.7-3.3-8.5-0.9-12-0.6C87.2,24,77.7,21.3,67,19.9z"/>
		<path d="M100,55.9l-1,1v2l1,5h2c3.3,5.6,5.1,4.1,5.3,10.8l-1.2,0.5l-2.1,5.7v-2c0.8-3.4,0-5.7-1-9h-2l0.9,1.2l-0.5,0.8
			c0.2,11.1,8.2,8.9,10.6,17h-2c-5.5-2.6-14.8-1.5-20.2,1.3l1.2,1.6l1.9-0.2c5.7-1.5,10.9-3,15.9-0.3l0.9,1l0.3-0.4
			c3.6,0.6,4.8,1.6,6,5h3l3,2l1-1c-5.6-6.5-20.6-31.7-6-36v2c-1.3,0.6-1,0.1-1,2h2h4v-3l1-1c3.6,2.5,6.8,4.9,11,6v-2
			c0-1.8,0-1.5-1-3l-1,1c-6.9-3.7-19.5-8-24,1l-1-1c0.5-11.8,16.6-7.4,24-7v-2C123.3,42.6,107,60.4,100,55.9z"/>
		<path class="st2" d="M147,51.9v3c-2.8,3.9-4.7,7.2-5,12h2c7.9-0.3,8.1,7.6,2,11v2c-0.3,3.6-0.8,5.3-4,7v2c1.5,1.3,2,1.5,4,2v-2
			c11.9-11.4,4.1-23.7,4-37H147z"/>
		<path d="M64,63.9h2c7.5-4.2,15.1-3.1,23-6l1,1v2h2v-2C86.1,52.9,66.6,55.3,64,63.9z"/>
		<path class="st4" d="M46,62.9v2v8l1-1v-8h2l3,3l1-1C50.8,63.6,49.2,63.1,46,62.9z"/>
		<path class="st5" d="M66,70.9l1,1h2l8-4v2l1,1l1-1h3v-3l1-1h2c-0.3,5.7-5.4,6.9-10,9l1,1h2c8.1-1.7,11.3-3.6,13-12
			C81,63.1,73.5,62.9,66,70.9z"/>
		<path class="st6" d="M113,67.9v2c6.7,2,14.1,1.2,21,2v-2v-2h-2c-2.5,0.4-4.3,0.2-6,2h-2L113,67.9z"/>
		<path class="st3" d="M101.4,71.3c-0.1,3.9-0.5,13.4-3.2,16.4l0.8,1.2h2c3.6-2.6,7-0.7,11,0v-2C108.8,83.6,104.4,76,101.4,71.3z"/>
		<path class="st2" d="M140,84.9l-1,6h-2v-2c-2.1-0.9-3.7-1-6-1v2h2l2-1v2l-3,7h2l3,16l2-1C142.4,106.5,142.8,91.5,140,84.9z"/>
		<path class="st7" d="M85,87.9c-1.2,8.9-5.8,13.9-3,23l1-1c8.8-7.2,27-6.9,37-3v-2c1.4-1.8,1.7-2.7,2-5h-2c-10.9,4.6-24.5,1.8-36,4
			l-1-1l1-1c1.5-1,1.2-1,3-1c-1.4-4.8-0.2-8.3,1-13H85z"/>
		<path class="st8" d="M103.9,124.6l2.8-4.1l-8.7,1l-1,1.5v2l-1,1c-2.8-1.5-4-3-7.1-3l-0.9-1v-6h-2l1,1v2h-2l-2.2-1.2"/>
		<path class="st3" d="M82,116.9l-3-1.3v-1.7c1.6-0.5,1.5,0.3,2-1.3l1,1.3h3v-2v-4l-1,1l-1,2l-1-1l-2-8c-3,0.8-3.8-0.5-6.5-2
			c-1.3,0.6-1.5-1.9-1.5,0l0.4-1l-2.4-1l1,1l-1-1h-2l-1-1c-0.2-3.3-0.9-5.4-3-8v2c2.5,6.4,1.3,12.3,2.2,19c1.2,9.1,4.2,17.3,2.7,27
			c-1.2,7.4-10.3,7.5-7.9,16l1-1l-1-1c1-3.1,2.8-4.6,5-7l1,1v2h3v-2v-24l1,1c1.2-2.4,0.9-3.5,0-6l1-1l2,1c5.6,7.7,7.9,12,18,12
			l0.8,0.2c3.2,1.3,8.7-2.7,8.2-0.8l2-2.4"/>
		<path class="st9" d="M52,89.9v2l3,4l1-1L52,89.9z"/>
		<path class="st3" d="M111.3,91.8l-0.3,0.1l-0.8,1.3c-3.5-2.6-7-4.2-11.2,1.8l1,1h2h-2c-3.6,4-1,2.9-6,2l-4,1h3l1-1h-2l-6,1l1,1
			l-4,2v2h2c12.1-0.9,25.5-0.4,37-4v2l-2,5h-2c-5.1-5.2-15.2-2-22-2l1,1h10v3l-2,5l1,1h2l1,1c0.1,4.9,0.8,8.5-4,11l0.7-0.4l0.4,0.4
			l1.7,0.4c3.2-2,3.9-1.7,4.2-5.4h2c12.6,4.4,16-14.9,15-23l-2,1h-3v-2l-1-1v2l-7-2v-3C113.9,92.4,113.9,92,111.3,91.8z"/>
		<path class="st3" d="M89.7,124.4c1.9-0.1,4.7,2.3,6.3,2.2c1.2,0,1.6-3.1,6-2.1l2-1l2,0.2l1.1,0.3l-2.1,3h2c3.5-3.5,2.1-7.4,2-12
			h-2c-3.1-0.4-5.3-1.5-8-3l1-1l1-1l6-1v-2l0.7-1.3c-8.6,0-22.5-3.1-22.7,8.3h-2l-1-2l-2,1l-2,2"/>
		<path class="st2" d="M137,117.9v2c-8.3,6.2-4.2,11.5-4,20h3l1,1l-1,1c0.5,7.2,2.9,12.6,2,20h2c2.6-3.9,7.3-8.3,7.8-13.1
			c0.8-6.7-5.2-7-7.2-12c-2.1-5.1-0.6-13.4-0.6-18.9C140,117.9,137,117.9,137,117.9z"/>
		<path class="st10" d="M130,124.9v3c-3.5,4.6-2.1,11,0,16h-2c-2.9,4.5-11.7,17.4-4,20c1.6-8.1,8.5-13.5,9-22h2l1,1l1-1v-2h-3l-1-1
			c-0.1-4.6-2.2-8.5-1-13C131.4,124.6,131.9,124.9,130,124.9z"/>
		<path class="st3" d="M75,125.9v2c4.3,6.6,12.9,16,15,23h2l5,1v2h-2c-1,4.2-1.9,8.7-2,13h2c3.2-4.2,5.3-3.7,10-2v2
			c-2.1,2-3.2,2.6-6,3l1,1c5.9,1.1,9.3,1,14-3l1,1v2l1,2h-2c-4.8,2.3-8.9,2-14,1v2c-3,0.9-5.8,1-9,1l1,1c18.9,0,34.3,0.4,48-15
			c-0.6-1.3-0.1-1-2-1c1.4-7.5-0.1-13-3-20h-2c-1,8.2-8.1,13.7-9,22h-2c-3.7-9.1,7.2-16.6,3-27h-2c-2,3.1-2.9,5.3-3,9h-2l-11-1v-2
			c-6.9-3.4-15-1.7-21.7-5.8C81.2,134.6,79,129,75,125.9z"/>
		<path class="st11" d="M96,145.9v2c1.2,1.8,2.1,2.9,4,4v2l-3,2v2h2c5.9-0.1,8.1-2.4,13-5v-2v-4h-2c-3.1,0.2-5.4,0.7-8-1h-2
			C98.2,146.9,97.9,146.7,96,145.9z"/>
		<path class="st3" d="M47,63.9v2c0,10.3,2.6,32.6,16,33v-2c-1.1-6.7-3.8-14.5-6-21l-1,1c-1.3,3.1-0.9,5.8,0,9l-1,1
			C49.7,78.6,59.8,67.5,47,63.9z"/>
	</g>
	<g id="light_colour">
		<path class="st3" d="M70,120.9v26h-2c-1-1.5-1-1.2-1-3l-2,1c-6.5,4.9-1.8,12,2.4,17.1c8.7,10.7,19.3,14.9,32.6,14.9v-2l-3-2v-2
			c4.3-0.9,9-2.8,10-7.5l-4,0.5c-3.4-3.4-6-1-8,3h-2v-2c0.8-3.8,1.4-8.2,4-11v-2c-2.6-1.3-4.1-1.5-7-1v-3
			C82.9,140,78.3,127.1,70,120.9z"/>
	</g>
	<path class="st0" d="M209.2,196.9l7.6-25.5L209.2,196.9z"/>
</g>
<g id="Layer_2" class="st12">
	<path class="st13" d="M72.8,50.3l-10.1,4.2C57.3,61,46,60.8,46.8,97.3c0.3,11.2,15.9,54.9,15.9,66.1c3.3-1.1-7.3,7.9-0.8,6.9
		c9-1.4,13.5-0.8,24.9-2.3c14.1-1.9,15.6-4.3,16.4-5.1c4-4.7-1.4-13.4-2.8-18.3c-2-6.6-0.7-13.6-3-20.1c-3.3-9.3-12-19-10.6-29.1
		c0.1-0.5,0.5-0.8,1-0.7h0.7c0.3,0,0.5,0.1,0.7,0.2l0.4,0.4c0.2,0.1,0.3,0.4,0.3,0.6v1c0,0.2-0.1,0.4-0.3,0.6
		c-0.3,0.3-0.4,0.7-0.1,1.1c0,0,0.1,0.1,0.1,0.1l0.3,0.2c1.3-0.5,1-0.1,1-1.7l0.6,0.6c0.2,0.2,0.3,0.4,0.3,0.7
		c-0.1,1.3-0.7,2.6-1.7,3.5c-0.1,0.1-0.2,0.3-0.2,0.5v1.2c0,0.2,0.1,0.3,0.1,0.4c2.9,4,4,8.3,5.6,12.8c0.2,0.4,0.5,0.6,1,0.6h0.3
		c0.5,0,1-0.4,1-0.9c0,0,0,0,0,0v-0.7c0-0.1,0-0.1,0-0.2c-1.6-5.5-2-15.6,0.2-20.9c1.2-3,6.5-8.3,4.1-10.9c-0.1-0.1-0.2-0.3-0.2-0.5
		v-0.8c0-0.4,0.3-0.7,0.7-0.8l4.6-1.2c0.4-0.1,0.7-0.4,0.7-0.8v-0.4c0-0.4-0.3-0.8-0.8-0.8l-2.5-0.5c-0.4-0.1-0.7-0.4-0.8-0.8v-5.3
		c0-0.5,0.5-0.9,1-0.9c0,0,0,0,0,0l0,0c0.5,0,1,0.3,1,0.9c0,0,0,0,0,0v2.5c0,0.5,0.5,0.9,1,0.9c0,0,0,0,0,0h0.2c0.4,0,0.8-0.2,1-0.6
		c1.2-4.5-1.3-7.9-0.9-12.2c0.7-6.9,12.9-8.7,18.7-6.6c1-0.4,1-0.3,1-0.8c0-0.5,0.5-0.9,1-0.9c0,0,0,0,0,0h9l-0.7-0.6
		c-0.2-0.2,3.4-1.2,3.1-1.2C117.1,42,78.1,44.1,72.8,50.3z"/>
	<path class="st14" d="M91.1,54.1c-3,0.2-6-0.6-8.1,1.8l-1.8-1.8c-5.5,0.7-14.6,0.9-16,7.9c-0.9,4.4,2.2,9.1,1,14.1h-1.8v-4.4h-1.8
		v7.1h2.6l0.9,0.9v1.8c-2.8,0.4-3.9,1-5.3,3.5h1.8c-4.7,10.9-8.3,15.5-4.8,27.6l-1.7-11.8l-2.4-2.6L51,97.1l1.1,7.3v-5.3
		c-1.1,0.6-0.9,0.1-0.9,1.8h-1.8v-1.8c1.1-0.6,0.9-0.1,0.9-1.8l-0.9-0.9h-1.8l-0.9,0.9c0.9,11.3,7.1,20.5,10.2,31
		c2,6.8,0.9,14.2,2.6,21c2.2,8.7,7,17.2-1.4,23.8v1.8H60l-0.2,3.8l-0.6-0.2h-1.8l-1,0.1c-0.3,1.3-1.4,2.2-2.6,2.5l1,1.9l1.8,2.6
		l0.9-0.9v-1.8l1.8,0.9l0.9,2.6l0.9-0.9h1.8v1.8c2,2.1,3.3,4.2,6.2,3.5l1.6-5.2l-2.1-1c-0.3-2.1-0.7-1.8,0.5-3.5l-3.5-8.8l1.8,1.8
		c1.1-0.6,0-0.1,0-1.8h1.8v1.8c3.7,2.9,8.6,4.3,13.2,5.3c0.2,1.7-0.3,3.5,0.3,4.5s2.4,1.1,4.1,1.7v-1.8c-1.6-2.4-1.8-3.4-0.9-6.2
		l-0.9-0.9H83c-14.1,0.4-15.8-15.7-20.3-25.6l0.9-0.9l0.9,0.9c1.3,5.2,5.6,9.7,6.2,15h1.8c2.5,2,5.5,2.2,8.7,2.4
		c-1.5-5.4-6.5-10.3-2.5-15.6l-0.9-0.9l-0.9-0.9l-1.8,1.8h-1.8c0-1.6,0.3-1.2-0.9-1.8c0.7-3.9,0.1-6.2-1.8-9.7l-0.9,0.9H68l-0.4-0.9
		c-1.3-6.1-3.1-11.3-3.1-17.6l1.3,0.7l1.3,2.9h1.8v-1.8l0.7-5.3l-1.5-0.4l-4.5,2.2v-1.8c1.9-1.4,3-2,3.3-4.4h-2.5l-0.9,1.8l0,0
		c-0.9-4.4-2.6-7.7-2.6-12.3l3.1,1.3l1.3-0.5v-1.8c-2.4-2.7-1-9.4-5.3-7.9v-1.8c3.2-0.2,3,2,6.1,2.6l2.7,0.9l-2.3,8.8h2.3l0.9-0.9
		l-0.9-0.9l0.9-0.9l0.9-0.9c2.1-0.1,3.1-0.2,4.4-1.8h1.8c3.1,0.7,6-0.3,8.8-1.8l-0.9-0.9c-3.3-0.1-6.5,0.2-9.7,0.9v-2.6
		c-3.4-8.4-2.8-15.8-4.4-23.8h2.6C76,69,78,65.6,78.6,60.3l-0.9,0.9c-1.1,0.6-0.9,0.1-0.9,1.8h-1.8c-1.9-0.6-3.3-0.3-5.3,0l0.9-1.8
		c2.5-0.8,3.9-1.3,5.3-3.5l1.7,0.3c3.6,0.9,7.8,4.5,10.4,0.9c3.1,0.9,4.4-1.1,7.3-2.1v1.8c2.8,1.5,4.3,2.2,5.3,5.3h1.8
		c2-0.2,1.9-0.2,3.5,0.9c1.1-0.6,0.9-0.1,0.9-1.8h5.3l-0.9-0.9h-1.8v-1.8l-10.1-2.6c-6.4-0.8-1.4-0.2-6.6-1.8l-0.5-1.4L91.1,54.1z"
		/>
	<path class="st14" d="M128,66.4l0.9,0.9c4.6,3.6,4.4,7.8,4.4,13.2h1.8c0.7,2.8,0.1,4.4-0.9,7.1h-1.8c0-1.6,0.9-1.4-0.2-2
		c0.6-2.6-0.1-4.2-0.7-6.8h-1.8c-0.8,6.6,2.7,13.8-2.6,18.5v1.8l0.9,1.8l1,0.2l1.7-1.1v3.1l7.9,1.8v0.4c-0.5,3-1.8,3.9-3.7,6.3
		l-0.7-0.1v-1.8c1.2-8.3-18.5-3.2-22-0.9l-0.4,2.4l0.9,0.9l2.1-0.6c1.8-0.2,6.3,0.9,11,1.6c5.8,1,9.4,5.3,12.6,3.9
		c1.5,3.4-1.1,9.9,0.1,13.9l-1.6-0.1l-0.9,0.9H135v-1.8h-2.6v1.8c0.2,4.3-1,8.1-5.3,9.7v3.5l2.3,0.9h2.1v1.8l-4.6,0.3
		c-1.1,1.4,0.5,1.2,0,2.9l-1.5-0.4c-4.2-2.4-9.3-4.3-11.5,1.6l5.1-5.9l-3.4,1.5l2.8-5.3c-0.6-5.1-14.1-1.8-18.5-0.9
		c0.7,1.7,1,3.5,0.9,5.3l-0.3,0.9l1.2,3.5l-0.9-0.9v-1.8l-0.9-0.9l-0.9,0.9c-1.4,1.9-3.2,3.4-5.3,4.4v-1.8c-2.1-2.9-3.4-4.4-7.1-3.5
		v1.8l0.9-0.9c1.4,3.3,0.7,5.4,0,8.8h-1.8l-0.9-1.8l-0.9,0.9v1.8l2.6,1.8l0.9-0.9l0.9,0.9v1.8l0.9-0.9v-6.2l0.9-0.9
		c7.1,2.5,15.4,0.3,23,0.5l0.8,2.4l0.9-0.3v-1.8h1.8v1.8c1.3,2,1.8,2.4,0.9,4.4v1.8c2.7,5-8.5,9.5-9.7,0.9l1.7,0.5l1,0.3l0.9-0.9
		v-1.8c-3.8-0.9-7.5-0.9-11.5-0.9v1.8c0.4,2.8-0.4,6,1.8,7.9v1.8c-0.2,1.8,0.2,2.6,0.9,4.4h1.8v-1.8l0.9-5.3l0.9,0.9l0.9,5.3
		l1.8-0.9l0.9-4.4l0.9,0.9v1.8h1.8l1.8-3.5h1.8l1.8,3.5l1.8-0.9c1.9-1.1,4.1-1.4,6.2-0.9v1.8c-2.6,1.5-5,6.7-6.3,9.5l0.9,0.9
		c16.5-11.7,20-31.1,20.2-49.6l0.2-0.4v3.5h1.8c0.1-5.4-2.5-14.5,2.6-17.6c2.4-15.2,1.9-27.7-5.2-39.7
		C136.2,71.8,138.2,67.5,128,66.4z"/>
	<path class="st15" d="M92.7,55.7L90,58.5l0.9,0.9l0.9-0.9c5.6,0.4,10.1,4,15.9,4.4l-0.9,0.9v1.8h1.8l0.9,0.9h-5.3v1.8
		c8.3-0.4,24.2-2.9,30,5.5c2.2,3.2,1.5,7.8,3.2,11.3c2.1,4.4,3.8,7.4,3.9,12.3l0.9-0.9v-6.2h1.8l2.6,8.8l0.9-0.9
		c0-6.2,1-11-1.8-16.8l0.9-0.9v1.8h1.8v-1.8l-0.9-6.2h-1.8c-0.1-4.8-1-9.6-2.6-14.1h-1.8l-1.8,0.9v-2.6c-4.1-2.9-17.4-4.2-22.3-4.2
		L92.7,55.7z"/>
	<path class="st16" d="M136.2,51.2l-13.9,2.9c0.9,1.3,17.2-3.6,17.2-2l-2.4,0.9l-12.2,0.9l15.7,8.4c0.1,3.8,0.8,2,3.7,4.5l0.7,2.6
		c-0.4,2.2-1.5-1.4-0.9,0.7l1.9,4.7l0,0l-1.4-0.4l0.2,2c3.2,4.5-1.2,1.7-1.2,7l1.4,5.4c-1-2.7,1.9,2.9,1.8,0h-1.8
		c-3.4,8-0.5,22.3-1.1,31.6c0,0.1,0-0.5,0-0.4l-1.5,1.5c-0.8,5.9-2.1,6.1-2.1,11.7l-0.5,5.9v-4.4l-0.9,0.9
		c-1.5,6.1-0.5,11.8-1.5,17.6c-2,12-7.3,20.1-15.6,28.5l-1.6-0.3l4.6-6.1v-1.8l-0.9-0.9h-4.4v1.8h1.8c-1.5,2.7-2.6,4.7-5.3,6.2v1.8
		c0,1.6,0,1.3,0.9,2.6l-0.9,0.9l-0.9-0.9l-0.9-4.4l-0.9,0.9c-1.3,2.2-1.3,3.7-0.9,6.2h-1.8l-4.4,1.8v-2.6l-0.9-0.9l-0.9,0.9v2.6
		h-1.8c-2-0.6-4.2-0.6-6.2,0l-0.9-0.9l0.9-0.9l-0.9-0.9c-1.4,0.5-1.3,0.3-1.8,1.8l-0.9-0.9l0.9-0.9V185l-6.2-0.9
		c1.3-3.1,1.2-5.5,0.9-8.8l-1.7-0.9c-3.6,3.3-7.2,2.1-11.6,1.8v-1.8l-3.5-1.8l1.8-0.9c-0.9-2.2-1.3-2.8-3.5-3.5v-1.8
		c-0.9-4.7-4.7-9.9-7.1-14.1l-0.9,0.9l0.9,0.9c1.9,12.3,7.4,26.4,22,24.7v1.8c-6.6,9.4,14.4,11.7,19.4,11.9
		c10.2,0.4,23-10.5,27.3-18.9h1.8c0.6,1.1,0.1,0.9,1.8,0.9v-1.8c0.2-7.2,3.8-13.4,5.3-20.3c3.1-14.3,5.1-28.8,7.2-43.2
		c1.3-8.4,4.2-15.9,4.2-24.7C151.9,76.2,146.8,52,136.2,51.2z"/>
	<path class="st17" d="M87.4,57.6v1.8c-4.1,0.4-7.5-1.1-11.5-1.8l-1.1,1.5l-4.2,2.1l-0.9,1.8h7.1l0.4-1.5l0.5-0.2l0.7,0.4l-0.4,1.8
		c-2.2,4.2-2.9,7.9-7.4,10.2v1.8c1.1,9,1.2,16.2,4.4,24.7h1.8c4.5-1.5,15.5-0.5,19,2.8c3.6,3.3,4.8,9.8,8.3,12.2v1.8
		c-2.2,5.3,1.1,9.8,0.5,15c-0.3,2.3-2.4,4-3.1,6.2h-1.8l-0.9-0.9v-3.5h-1.8c-1.5,2.1-1.7,3.6-1.8,6.2h1.8l0.9,0.9l-0.9,0.9h-1.8
		c-3-4.2-1.5-6.8-0.9-11.5h1.8v1.8H98l4.4-0.9l0.5-3.6c-1.4-5.9-5.7-5.5-7.5-10.5H98c0.3-1.5,1.2-3.6,1-4.8c-0.1-0.3-0.9,0.8-1,0.4
		h-1.8c-1.1,0.7-2.3,1-3.5,0.9l-0.6,0.8l0.6,1c-8.9,2.2-13.3,3.9-21.2-0.9v-1.8h1.8c6.9,2.1,25.6,2.4,22-7.9h-1.8
		c-6.2,0.1-12.3,1.1-18.5,0v1.8l-7.9,0.9v-1.8c1.5-2.9,1.6-5.6,1.8-8.8h-2.6c-2-2.1-3.3-2.3-6.2-1.8v1.8h1.8c1.1,2.6,1.3,6,3.5,7.9
		v1.8h-1.8c-1.3-0.9-1.1-0.9-2.6-0.9v1.8c0,4.3,1.9,7.4,2.6,11.5l0.9-0.9v-1.8h1.8v1.8l-2.6,2.6v1.8h1.8l1.8-1.8h1.8v1.8
		c-0.7,1.8-0.5,2.5,0,4.4l-0.9,0.9l-0.9-0.9c-0.9-1.3-0.9-1.1-0.9-2.6h-1.8v1.8c0,6.1,0.8,11.2,3.5,16.8h1.8
		c6.6-0.1,12,17.2,13.2,22.9l2.9,0.8l0.7-0.8l-0.9-1.8l0.9-5.3h-1.8c-1.1-3.8,0.7-12.7,6.2-9.7h1.8v-1.8l3.5,0.9v-1.8
		c1.4-0.6,3-0.6,4.4,0l0.9-0.9v-1.8l-1.8-0.9l0.9-0.9h1.8c2.6,3.5,9.1,3.1,9.9-2c0.4-2.9,0.3-5.8-0.2-8.7c-1.6-8.2-5.3-26,5.4-29.3
		c3-0.9,7.3,0.3,10.5,0.3V100l-0.9-2.6l0.9-0.9c5.5-1.8,1.6-12.5,1.8-17.6h1.8l0.9,8.8h1.8c1.2-2.2,1.8-4.6,1.8-7.1h-1.8
		c-1.1-3.5-0.1-8.1-2.4-11.2c-5.6-7.7-22.8-7.3-31.1-5.5v-2.6c-1.8-1.4-3-1.6-5.3-1.8v-1.8l-0.9-0.9C91.9,57.7,90.2,58.1,87.4,57.6z
		"/>
	<path class="st18" d="M75.1,101.7v1.8l-6.2,0.9v1.8l0.9,0.9h1.8c1.4-0.5,2.6-1.5,3.5-2.6h1.8c5.5,2.3,12.7,0,18.5,0v1.8
		c3.7,8.8-19.1,6.8-23.8,6.2v1.8c5.2,4.6,16.7,6.1,21.2-0.9h1.8l3.5-0.9l0.9,0.9c-0.6,1.6-1.9,2.9-3.5,3.5v1.8l0.9,0.9
		c7.2-4,6-14.8-1.9-18C79.8,96.9,76.6,101,75.1,101.7z"/>
	<path class="st19" d="M109.4,149.3h1.8c0.9,1.3,0.9,1.1,0.9,2.6h1.8c1.8-8.7,3-18.4,0.9-27.3l-0.4,0.3c0-2.3-1.1-1.9-0.5-1.2V122
		c-2.2-3.4-2.2-5.7-1.8-9.7h1.8c4.1,4.1,10.4,2.6,13.2,7.9h1.8l5.3-0.9l1-2.3l0.7-1.2v-1.8h-1.8c-7.8,0-14.3-3.2-22-2.6v-1.8
		c5.8-4.1,22.2-8.4,22,2.6l1.8-0.9c2.4-2.5,2.6-4.5,2.6-7.9h-2.6l-5.3-3.5c-4.3,1.3-11.9-0.4-15.2,2.2c-11.8,9.2-3.5,24.9-3.5,36.5
		C111.9,142.5,109,145,109.4,149.3z"/>
	<path class="st20" d="M199.9,193.4c-2.3-5.5-5-9.4-10.6-11.5c-3.5-1.3-6.1-3.1-10.5-4c-18.9-3.9-43.1-6.2-42.9-5.7l-0.7-0.9
		c-0.6-1.1,0.1,0-1.5,0l-3.1,2.6l1.8,1.8c1.1-0.6,0.9-0.1,0.9-1.8l-0.4,2c-0.3,6.3-3.7,10.4-3.8,16.4l2.4-0.8l1.8-0.4l-1.8-1.3
		c9.1-1.2,30.1,14.7,30.8,9.2l3.3-18c1.8,6.3,1.6-4.7,1.1,1.8l0.9,0.9c8.9,3.1,14,19,22,24.7l14,0.4
		C203.7,208.9,203.7,202.6,199.9,193.4z"/>
	<path class="st20" d="M150,125.5l-0.9-0.9"/>
	<path class="st20" d="M152.7,135.2l0.9-0.9"/>
	<path class="st20" d="M137.7,174.9"/>
	<path class="st20" d="M178.8,183.7"/>
	<path class="st20" d="M188.8,184.6"/>
	<path class="st20" d="M189.3,183.7"/>
	<path class="st21" d="M101.1,110.5c-0.3,4.2-1.6,6.2-4.9,8.8v1.8c5.5,0.9,5.3,5,6.2,9.7l-6.2,0.9v-1.8h-1.8v1.8l1.8,2.6l0.9-0.9
		h1.8v4.4h2.6c6.7-6.8,2.4-14.1,2.6-22.9l-1-0.9l0.1-2.6L101.1,110.5z"/>
	<path class="st17" d="M112.1,112.3l-0.1,1.2c-1.3,3.3,0.4,7.2,1.9,10.2l0,0l0.2,0.9l0.6,0.9c0.5,3.5,1.1,7.6,0.8,11.1
		c-0.4,5.3-3.7,6.3-0.8,11.8h1.8l10.6,2.6v-2.6l4.4-0.9v-1.8l-4.4-0.9v-3.5h2.6c2.4-3.3,3.4-7.4,2.6-11.5h1.8
		c0.9,1.3,0.9,1.1,0.9,2.6l1.8-0.9l1.8-0.9v-1.8c-1.2-4,1.6-8.6,0.3-12.1c-1.5-3.9-4.3,0.5-4.7,2.4l-7.1,0.9v-2.6
		c-4.3-2.1-9-1.6-12.3-5.3H112.1z"/>
	<path class="st22" d="M85.6,119.4v1.8h1.8l4.4-1.8v-1.8H90L85.6,119.4z"/>
	<path class="st23" d="M122.7,117.6l-0.9,1.8v1.8h1.8l1.8-3.5H122.7z"/>
	<path class="st24" d="M94.5,122.9l-0.9,0.9l-0.9,4.4h1.8c1-1.6,1.6-3.4,1.8-5.3H94.5z"/>
	<path class="st25" d="M98,141.4v-1.8h-2.6v-1.8l0.9-4.4l-0.9-0.9C91.6,136.3,92.7,140.5,98,141.4z"/>
	<path class="st26" d="M70.6,141.4v1.8c2.2,3.2,1.9,6,2.6,9.7h1.8l2.6-1.8v-1.8c-1.9-2.4-3.4-5-4.4-7.9H70.6z"/>
	<path class="st27" d="M96.2,147.6h-1.8l-1.8-0.9l-0.9,1.8v1.8h1.8v2.6h1.8c1.8-1.5,3.3-3.3,4.4-5.3l0.9,0.9v1.8l0.9,0.9
		c0.6-3.1,0-4.5-1.8-7.1C97.6,144.9,97,145.4,96.2,147.6z"/>
	<path class="st28" d="M87.4,148.5l-1.8,0.9c-1.5,2.9-1.6,4.7-0.9,7.9h1.8l0.9-0.9v-1.8C89.1,152.3,89,150.8,87.4,148.5z"/>
	<path class="st14" d="M77.2,152.4l-0.7,2.6c-0.2,5.7,1.5,8.3,4.2,13.2l-1,0.6l-1.8-0.1l-3.7-0.5l-2,1.1l-0.8,0.1l1.3,1.8l-0.3,1.3
		l3.3,3.3c4.3,0.5,8,3.4,11-0.8l0.7,1c0.1,3.2,0.2,5.4-0.6,8.5l3.7,0.4l2.5,0.4l-1.1,2l1.6,1.5l1.8-1.5l0,0l0.8,0.7l-0.9,0.9
		l0.9,0.9l5.6,0.2l2.6,0l1.8-2.6l-0.2,2.5l1.9-0.7l1.1-0.6h2l3.7-1.8l-0.5-1.8l1.4,1.3l1.4-1l0.3-0.6h1.8v-1.8l0.2-2.6l0.8-1.1
		c1.8-2,5.5-4.7,6.5-7.7l-4-1.1c-1.5,1-1.2,0.6-2.7,1.7l-0.7-0.2c-1.5-0.5-1.6,0.4-1.8-1.6l-3.1-1.2l-1,1.6l-0.5,1.3l-1,1.3v-1.3
		l-0.9-0.9l-1.4-0.5l-0.9,4.4l-0.5,0.1l-1-0.5l-1.2-4.1l-0.9-0.9c-0.3,2.4-0.6,3.5-0.9,5.3l-0.8,1.8l-0.8-4.8l-0.9-0.9l-1.7-4
		c0.6,3.2-2.8,4.4-4,6.7l-0.7,0.4l0.8-8.5h-1.8l-0.9,0.9v1.8l0.9,1.8l-0.9,0.9h-2.8v-1.8l-2.7-0.9v-1.8l0.9-7.2l-2.5-0.3
		c-0.3,1-0.5,2-0.7,3.1l-0.3,0.8h-0.9l-1-0.3l-0.2-0.3c-1.4-3.3-3.4-5.4-3.8-9L77.2,152.4z"/>
	<path class="st29" d="M95.3,153.8v1.8c5.2,1.9,12.9,0.9,18.5,0.9v-1.8C108.9,152.2,100.9,153.8,95.3,153.8z"/>
	<path class="st30" d="M89.2,154.6v1.8l3.5-0.9v-1.8h-1.8L89.2,154.6z"/>
	<path class="st31" d="M70.6,157.3l0.9,0.9l2.6-0.9v-1.8l-0.9-0.9L70.6,157.3z"/>
	<path class="st17" d="M114.7,154.6v1.8c-12.5,0-26.8-5.5-27.3,11.5l1.1,0.6c0.9,1.3,1.5,0.5,1.5,2.1l1,0.7l2.4-0.3l1-0.9l-0.6-3.1
		c-0.9-1.3,0,0.6,0-1l0.7-0.8c0.7,3.2,0.1,6.4,0,9.7l0.9-0.9l4.4-2.6c0.3-3.7,0.7-6.9,0-10.6h1.8l9.7,0.9v1.8l-0.9,0.9
		c-1.3-0.9-1.1-0.9-2.6-0.9v1.8c2.3,7.3,13.8,1.2,9.7-2.6v-1.8c2-2,0.3-3.9-0.9-6.2H114.7z"/>
	<path class="st32" d="M101.5,167.9h1.8c1.1-1.2,1.7-2.8,1.8-4.4C102.5,164.5,102,165.2,101.5,167.9z"/>
	<path class="st33" d="M62.7,167l-1.8,0.9c-7.9,7.4-25.6,7-36.2,9.5c-3.1,0.7-8.4,0.7-10.9,2.8c-0.5,0.5-8,5.5-11.5,13.2
		C-2,202.7,0,207.8,0,208.9l17.7-0.5l0,0v-2.6c3.7-4.3,6.4-9.6,10.4-13.7c3.1-3.1,7.7-2.5,8.5-7.1l0.7,0.1l0.7,0.5l0.9-0.9l0.9-0.9
		c1.1-6.6,5.7,13.8,11.4,13.7c9.9,0,16.1-14,25.7-10.8c5,1.7,10.4,0.8,15,3.2l0.9-0.9v-6.2h-1.8c-12.6-0.3-26.8,14.1-35.9,5.6
		c-4.9-4.6,0.5-11.6,5.9-11.7v-1.8h-2.6v-1.8c2.3-1.1,4.2-3,5.3-5.3L62.7,167z"/>
	<path class="st34" d="M65.4,172.3v1.8c2.1,6.3,6.5,11.7,12.3,15l0.9-0.9C74.6,182.9,70.2,176.9,65.4,172.3z"/>
	<path class="st17" d="M67.1,172.3v1.8c6.6,10.6,14.6,18.6,27.3,20.3l-0.9,0.9l-1.1,0.3c-10.2-2.4-15.3-8.6-23.6-14.4l-1.8,0.9v1.8
		l2.6,1.8v1.8l-0.9,3.5h-1.8c-1.8-1.5-3.3-3.3-4.4-5.3h-1.8l-0.9,0.9v-1.8l-1.8-1.8h-0.9l-0.9,2.6c5.6,12.1,25.8-4.4,37.9-4.4
		l-0.4,18.6c12.3-6.9,32,1,37.8-16.9c0.9-2.7,0.5-6,0.5-8.8h-1.8c-6.3,6.3-13.2,13.1-22,15.6C97,192.8,83,185.7,74,177
		c-1.7-1.6-3.9-3.1-5.1-4.7H67.1z"/>
	<path class="st28" d="M132.6,174l-0.9,1.8c0,8.1-5.9,13.4-7.1,21.2l-1.8-0.3c-4.3-0.3-13.7-1.4-16.8,2.1h-1.8
		c-3.4-3.9-9.8-22.4-10.6-17.6H92c-14.1-0.3-31.7,13.2-37.9,0h1.8l0.9-2.6h1.8l0.9,0.9l0.9-0.9v-1.8h-2.6
		c-7.3,1.8-6.3,10.9-1.3,14.2c11.1,7.4,21.8-8.1,35.7-8.1v7.1c-5.1-2.7-11.3-1.8-16.8-3.9c-6.4-2.4-12.3,12.5-18.5,10.6
		c-8.2-2.5-16.9-19.5-18.5-11.2l-0.9-1.8h-1.8v2.6c-8,4.7-17.2,12-18.5,22h1.8c2.6-4.8,5.5-10.2,9.7-13.9c3.3-2.9,7.6-4,10.6-7.3
		C21.5,207,65.7,206.9,51.5,182l1.8-0.9c-29,32.3,40.7,19.9,14.1,4c8.8,5.1,19,7.1,29.1,5.7v1.8l-0.9,3.5h-1.8v-2.6l-0.9-0.9
		l-0.9,0.9c-0.9,5.3-10.3,12.8-15,15h3.5c1.2-0.1,4.9,0.4,6,0c7.2-2.9,9.3-13.6,18.7-14.1c6.9-0.4,15.2-0.8,21.9,1.3
		c3.1,1,7,3.9,4.9,7.5c-4.4,7.3-25.5,4.5-32.9,4.5l0.9,0.9h35.3v-1.8l4.6-25.1l-3.1-0.8c-2.8-3.4-8,15.9-7.7,11.1
		C129.5,185.6,135.4,180.8,132.6,174z"/>
	<path class="st35" d="M74.2,176.7v1.8c2.8,2.3,5.3,4.3,8.8,5.3l-0.9-4.4l-2.5-0.5C77.9,177.2,76.5,177.2,74.2,176.7z"/>
	<path class="st36" d="M129.7,180.2l-0.9,0.9c-4.9,3.6-10.4,7.5-14.1,12.3l0.9,0.9l0.9-0.9c6.3-1.5,11.2-6.7,14.1-12.3L129.7,180.2z
		"/>
	<path class="st37" d="M165,183.7v2.6c-2.4,4.6-0.9,9.1-0.9,14.1c-7.7-4.4-23.8-12.5-32.6-10.6l-5.1,6.1c9.5,1.3,39.6-17.9,40.4-7
		c8.1,1.7,16.4,13.1,21.2,19.4h1.8v-1.8c-4.2-7.4-15.1-21-22.9-23.8v-1.8c1.7-5.7,0.9,8.6,0.9,2.6H165z"/>
	<path class="st38" d="M78.1,187.6l-0.9,0.9l0.9,0.9c4.4,3.5,11.8,7.3,17.5,5.8l-2.5-1.4C88,192.2,82.9,190.1,78.1,187.6z"/>
	<path class="st39" d="M127.1,189l-0.9,0.9c-8.6,6.4-15.2,6.2-25.6,6.2l1,1.4c1.8,0.4,1.3,0.2,2.7,1.3h2.4c4.5-3.4,13-1.8,18.5-1.8
		v-2.6C127,192.4,127.9,191.5,127.1,189z"/>
	<path class="st17" d="M139.4,182v1.8c-0.9,7.9-4.2,16.3-4.2,24.7h2.4v-2.6h1.8c3,1.1,5.5,2.3,8.8,2.6v-1.8
		c0.1-4.7,0.7-9.5,1.8-14.1h1.8l0.9,0.9v1.8l-1.8,4.4h1.8l3.5-0.9l0.9,0.9l-0.9,0.9l-4.4,1.8v1.8c3.6,4,5.8,4.1,10.6,1.8V204
		l-4.4-1.8v-1.8h1.8v-1.8l-0.9-0.9c-6.5-5.1-8.3-11.2-17.6-12.3v-1.8c5.8-0.5,10.3,4.2,15.9,5.3v1.8c0.8,5.6,5.8,9.3,7.1,15h1.8
		c4.6-0.9,9.6-2,12.3,2.6h4.4v-1.8c-2.8-3.2-5-6.3-8.4-8.8l0.3-0.5c4.5,3.5,7.9,9.5,13.3,11.1c-3.5-6.7-12.3-19.5-20.2-20.4l-1-0.8
		c0.5-8.6-18.4,8.8-24.7,6.5c-2.6-1-5.8-3.1-8.8-2.5C124.7,193.1,135.4,181,139.4,182z"/>
	<path class="st40" d="M51.9,182l-0.9-0.9l-0.7,20.3c-3.7-5.7-7.4-19-9.9-15.9c-3.2,4.1-7.4,5.2-11.3,8.3c-4.3,3.5-7.1,9-9.7,13.8
		l0.9,0.9h38.8c5.9,0,13.4,1.2,19.1-0.4c6.4-1.9,14.3-9.8,14.4-16.3h-1.8c-8.1,0-16-2.8-22.9-7.1c-3-1.9-7.2,15.3-10.6,14.5
		C54.7,198.3,54.2,180.1,51.9,182z"/>
	<path class="st41" d="M102.4,190.8h1.8c7.7,0,15.2,2.3,15.9-7.1l-0.9-0.9C110.9,182.9,102.5,180.4,102.4,190.8z"/>
	<path class="st42" d="M141.2,182.9v2.6c3.6,0.7,6.9,2.3,9.7,4.6c3.4,2.8,4.8,6.4,8.8,8.6v1.8H158v1.8l2.1,0.8l2.3,2.7h-1.8l-6,0.9
		l1.3,1.8h22.3v-1.8c-4.2-2.9-9.4-1.5-14.1-0.9v-2.6c-2.4-4.8-6.7-8.6-7.1-14.1C157.1,189,146.1,183.5,141.2,182.9z"/>
	<path class="st43" d="M119.1,189"/>
	<path class="st43" d="M117.4,183.7"/>
	<path class="st44" d="M54.8,187.3v1.8l2.6,1.8l0.9-0.9l-1.8-2.6H54.8z"/>
	<path class="st45" d="M82.1,190.8l0.9,0.9h9.7l-0.9-0.9H82.1z"/>
	<path class="st46" d="M92.2,191.2l0.5,2.2l0.9-0.3l0.3,2.9h2.4l0.9-5.3h-1.8L92.2,191.2z"/>
	<path class="st47" d="M60.9,192.6v1.8c6.2,3.9,11.2,10.9,18.5,12.3v-1.8C72.5,202,67.9,195.5,60.9,192.6z"/>
	<path class="st48" d="M150,192.6l-0.9,0.9l-0.3,6.9l2.1,0.2l2.1-6.8l-1.3-1.2H150z"/>
	<path class="st17" d="M95.3,204.9h-1.8v-4.4h-1.8c-2.6,1.9-4.7,4.3-6.2,7.1l0.9,0.9c14.7-0.1,35.8-0.7,32.7-0.5
		c3.8-0.1,16.1-2.5,14.4-8.2c-2.3-7.6-29.3-7.8-34.4-3.8C96.7,197.8,96.2,202.1,95.3,204.9z"/>
	<path class="st49" d="M173.8,197l0.9,1.8c2.9,3,5.6,6.2,7.9,9.7h5.3l-3.5-1.8C181.5,202.5,178.7,198.7,173.8,197z"/>
	<path class="st50" d="M91.8,199.6c0.6,1.1,0.1,0.9,1.8,0.9v4.4h1.8c1-2.2,1.6-4.6,1.8-7.1L91.8,199.6z"/>
	<path class="st51" d="M150.4,199.6l0.9,0.9c1.6,1.2,3.4,1.4,6.2-0.6l-1.3-1.2L150.4,199.6z"/>
	<path class="st52" d="M149.1,199.6l-0.9,1.8v7.1h7.9l-0.9-0.9c-1.6-2.4-2.2-3.4-1.8-6.2l-0.9-0.9h-1.8
		C150.3,199.3,150.8,199.6,149.1,199.6z"/>
	<path class="st53" d="M137.7,205.8v2.6c2.3,1,8.1,0,10.6,0l-1.6-1C144.6,206.3,140.1,205.9,137.7,205.8z"/>
	<path class="st54" d="M167.7,206.7v1.8h8.8l-0.9-0.9L167.7,206.7z"/>
	<path class="st55" d="M101.7,125.1"/>
</g>
<g id="Layer_3" class="st12">
	<path class="st56" d="M53.4,14l-5.6,2.2c-11.2,10.8-12.6,34.4-8,48.5c2.4,7.2,9.3,21.6,3.8,28.9v1.7h1.7c0.7,3.6,1,7.3,0.8,10.9
		h-1.7l-5-6.7l-3.8-17L34.5,83c-0.2,0.3-0.2,0.6-0.1,0.9l3.9,17.8c2,2.7,6.1,5,6.9,7.9c1.8,7-3.4,18.3-3.4,26h-1.7
		c-6.6,0.5-11,4.2-17,6.2c-2.9,1-7,0-9.1,2.8c-1.9,2.4-0.8,7.5-0.8,10.3v27.8h52.2c-5.5-13.4-7.9-28.1-11.5-42.1
		c-2.1-8.2-6.5-16.8-6.9-25.2c-0.9-18.9,3.2-37.7,3.3-56.4L48.6,60l-1.7,9.3h-1.7v-1.7c-5.9-9.5-8.9-33.2,0.8-41.2v-1.7l-0.8-2.5
		h1.7l4.7-6.8l4-1.2L53.4,14z"/>
	<path class="st57" d="M47,22.1h-1.7l-0.8,0.8l0.8,0.8v2.5h-1.7c-7.7,12.6-4,30.2,0.8,42.9l2.7,0.9l5-7.9l-2.7-2.3v5.9l0.8-0.8
		c0.3-1.8,2.8-8.4,3.4-13.6c0.4-3.4,0.8-7.7-0.8-6.6l-0.1-2.2c-0.9-1.4,0.7,0.2-0.8-0.6l2.9-1.2L54.2,37l-2.1-0.6l-0.8,0.8l2.1-0.9
		l1.8-1.6c1.3-0.4-1.2-1.1-0.8-2.4l-2.3-0.1L51.3,33v-1.4c6.5-1.2,8.8,0.5,15.2-1.9l-0.8,1.7L63.1,33l0.8,0.8
		c2.9-1.3,5.3-2.3,8.7-1.8l2.2-5l-3-1.2l-2.1-2.1l-1.7,0.8l-1.3-0.8l-0.3-0.9l-1.7-0.8l-0.4-1.7h2.9l-0.8-2.5l-0.8-1.7l0.8-0.8h5
		l-0.8-0.8C62.3,14.5,48.2,11,47,22.1z"/>
	<path class="st17" d="M39.3,72.5h-3.2c-1.3,2.3,1.6,24.4,1.6,24.4l6.7,9.3c3.1-7.7-2.4-4.5,1.1-4.5l0.6-9.4l-0.5-7.1l0.5-1.7v-3.3
		l-2.2-3.7l-1.3-4.1c0-0.2-0.2-0.2-0.3-0.1L39.3,72.5C39.3,72.5,39.3,72.5,39.3,72.5z"/>
	<path class="st14" d="M66.4,16.2v1.7c0.8,1.3,0.8,1,0.8,2.5h-2.5l-0.8,0.8l0.8,0.8l2.5,2.5h1.7l0.8-0.1v0.9l3.8,1.1l0.4,1.4
		l-0.8,3.4h-4.2c0.5,1.1,0.1,0.8,1.7,0.8l-0.8,1.7l-3.4,0.8L66,44.2l5.7-4.8c2.9-0.5,1.4-4,4-2.1h1.7c10,0.4,13.9-2.1,20.2-6
		l2.2,1.2c2.5,5.8,8.3,1.2,9.5-2.7l2.2,1.3v-1.3c14-1.1,18.1-1.3,18.8,14.3h1.7c1.6,0,1.2,0.3,1.7-0.8l0.8,0.8v1.7
		c0.8,6.7,7.7,19.8-2.5,21.9v1.7l0.8,0.8c-1.6,0-1.5-1.4-2-0.3c-1.9-1-2-0.3-3-2.2h-1.7c-5.6,0.1-10.5-0.3-16,0.7l-0.9-0.7l2.8-0.5
		l-0.3-2.9h-1.7c-1.3,0.8-1,0.8-2.5,0.8l-1.3,1.8l-1.2,2.4v1.7c3.2,4.5,1.7,9.8,1.7,15.1l0.8-0.8c0.1-9.2,6.1-11,13.5-14.3l0.8,0.8
		l-0.8,0.8c-0.8,0.3-1.7,0.6-2.5,0.9c-4.5,1.8-8.8,4.5-7.6,10l0.8-0.8c1.3-1.5,3.1-2.4,5-2.5l-0.8-0.8v-1.7l0.8-0.8h2.5v2.5
		c4,1.9,6.8,1.3,7.6-3.4h1.7l0.8,3.4l1.1,2.4l2.3-1.5v1.7l1.6,0.7l2.1-0.4l-0.7,1.1c1.3,1.9,1.2,0.1,1.9,2.3
		c1.6,5.3,2.2,11,3.5,16.6h-1.7c-0.7,1.7-1.9,3.1-3.4,4.2v1.7l0.8,1.7h-1.7c0.4,7.2-4.5,18.3-8.4,24.4l0.8,0.8
		c1.1-0.5,0.8-0.1,0.8-1.7h1.7l0.8,0.8l-1.6,3.9l3.6-2.1c2.6-2.8-0.3-2.2,3.5-2.7l1.2,0.8c5-6.1,0.9-11,2.4-17.7
		c1.7-8,5.1-14.4,6-22.7c1.4-14.9-1-30.4,0.2-45.4h2.5c1-3.4,0.8-6.6,0.8-10.1h2.5l0.8-0.8v-1.7c-3.7-1.9-8.3-10-11.4-13.3
		c-1.2-1.4-2.7-0.1-2.9-0.2l-0.4,2.6c2,2.9,3.9,4.9,4.6,8.3h-1.7c-5.4-11.4-15.6-8-25.2-8.5c-4.7-0.3-10.5-1.8-15.3-1.1
		c-5.3,0.8-7.7,3.7-13.4,2l-0.8,0.8l1.7,0.8l-0.8,0.8h-1.7c-0.4-2.6,0.2-5.3,1.7-7.6l-1.7-2.5l0.8-0.8h1.7l3.4-1.7l-0.8-0.8
		C82.7,14.5,74.2,13.7,66.4,16.2z"/>
	<path class="st57" d="M81.5,6.8L66.6,9.7L53.4,14l10.5,4.1c-1.6,2.3,21.4,7.1,21.9,9.8h1.7l0.8-0.8l-1.7-0.8l0.8-0.8
		c6.1,2.8,8.4-1.5,14.1-1.8c4.8-0.3,9.8,1.1,14.6,1.2c10.5,0.2,17.8-2.1,25.2,8.2h1.7v-1.7c-1-2.7-1.8-5.1-4.2-6.7v-1.7l0.8-0.8h1.7
		c3.2,3.9,6,8.2,8.4,12.6l1.6-0.4c0.9-2.9,0.7-5.9,0.9-8.9h-1.7c-1-2.9-1.7-5.7-3.4-8.4l4.2-0.8l-2.5,0.8v-1.7h1.7l0.8,0.8l0.8-0.8
		l-0.8-0.8C130.4,8.1,102.9-1.5,81.5,6.8z"/>
	<path class="st28" d="M131.2,133.9l-0.8,0.8c-5.8,5.3-7.7,13-13.5,18.3c-3.2,2.9-9.5,0.5-10.9,4.5c-5.6-2.3-15.9-2.1-21.9-2.5v-2.5
		l-1.7-2.5h-1.7l-1.7,0.8v-1.7h-3.4v-2.5l-0.8-0.8l-0.8,0.8l-0.8,2.5h-1.7c-4.4-5.6-11-8.6-15.1-14.3h-1.7v1.7
		c8.8,10.3,19.6,19.5,32,25.5c6.3,3,17.6,3.3,21,9.8h-1.7c-1.8,3.2-4.4,5.8-7.6,7.6v1.7h1.7l6.7-0.8l-0.8,0.8l-1.7,0.8l0.8,0.8h76.5
		V181c0-5.3,2.4-18.7-0.8-23c-4.5-5.8-17.4-5.9-23.3-9.8c-2.8-1.9-2.8-5.6-4-8.4c-2.5-6.3-9.7-11.9-10.9-18.5
		c-1.5-7.9,4.1-14.6,5.6-21.9c1.2-5.9,6.3-28.2-0.2-30.3c7.3-11.9,8.2-23.6,6.9-37c-0.7-6.6-1.3-12.5-7.7-16v1.7
		c1.5,2.3,2.3,4.9,2.5,7.6h1.7c0.8,3.4-0.5,6.6-0.8,10.1h1.7l-0.1,0.8v0.7l-2.4,0.9v0.9c0,4,0.4,7.1-3.4,9.3
		c-1.9,14.4,0.6,28.6,0,42.9c-0.4,9.3-4.5,16.4-6.2,25.2c-0.6,3.1-1,6.3-1.3,9.4c-1.6,3-3.8,5.6-6.5,7.7"/>
	<path class="st28" d="M135.9,133.3l-3.3,1.6"/>
	<path class="st58" d="M84.9,33v1.7l0.8-0.8h10.1l0.8-1.7l0.8-3.4h1.7l0.8,0.8v-1.7l1.7-0.8l-0.8-0.8h-1.7L84.9,33z"/>
	<path class="st17" d="M108.4,27.9l0.8,0.8l-5,1.7l0.8,0.8c3.7,2.6,8.3,2.7,12.6,1.7l0.8,0.8c1.4,1.9,2.8,2.2,5,2.5V38h-5.9v5H116
		l-3.4-0.8v1.7h2.5v1.7c-3.2,3.8-2.5,6.1,0,10.1h1.7V54l-1.7-0.8l0.8-0.8h1.7c2.6,6.2-0.3,9.9-6.7,10.9l0.8,0.8v1.7l-0.8,0.8h-1.7
		v1.7l0.8,0.8h1.7c4.9-1.4,10.9-1.6,16-1.7V70c1.7,0.4,3.4,0.4,5,0l-0.8-0.8v-1.7c10.4-1.2,3.6-17.7,2.5-24.4l-1.7,0.8h-2.5v-1.7
		C129.1,26.6,122.2,26.9,108.4,27.9z"/>
	<path class="st17" d="M118.5,49.2l5.6,2.5l4.5,0.9l-10.1-5.7l4.1-1l-5-2.8l0.8-1.7l-0.8-3.4h5.9v-1.7c-2.3-0.5-4.3-1.7-5.9-3.4H116
		c-6.6,1.7-12.4-2.5-18.5-4.2l-0.8,0.8l-0.8,4.2h-1.7c-5.7-1.2-13.2,1-18.5,3.4v-1.7c-9.7,0.1-11.1,5.8-8.4,14.3l-0.8,0.8h-5V49
		c2-2.1,2.4-3.9,2.5-6.7h-1.7l-0.8-0.8l0.8-0.8v-1.7h-3.4v1.7c0.2,7,0.4,17.7,2.9,24.3c1.8,4.6,7.7,3.3,8.9-0.8h1.7l0.8,0.8
		l-2.5,3.4l0.8,0.8h1.7c6.1-4.6,13.6-1.3,20.2,0.8v1.7c-0.7,3.7,0.8,5,4.2,5.9v1.7L95,82.6h-1.7v-1.7c-0.7-3.9-3.1-5-6.7-5.9v1.7
		h-1.7l-0.8-0.8v-1.7h-1.7l-0.8,0.8v1.7c-4,1.7-6.7,1.9-8.4-2.5h-1.7c-4.3,4.1-10.2,5.9-16,5.9v1.7c0,4.6-0.3,8,5,8.4L59.7,91h-3.4
		v2.5c-1.5,2.7-1.1,4.4,0.8,6.7l0.8-0.8v-1.7l0.8-0.8l0.8,0.8v2.5l0.8-0.8l2.5-2.5l0.8,0.8v1.7h1.7v-4.2h1.7c-0.5,3.5-1.9,5.8-5,7.6
		v1.7c1.2,1.5,2.1,3.2,2.5,5l0.8-0.8V107h1.7l4.2,0.8v-2.5c1.8-0.9,3.3-2.4,4.2-4.2l0.8,0.8l4.2-0.8v-1.7H79v-1.7h1.7
		c2.4,2.3,4.3,2.5,7.6,2.5v1.7l-0.4,7.6l3.4,3.5c5,1.8,12.2-0.8,16.4,1c1.1-0.6-1.7-4-1.7-5.6c5.7-0.9,4.2-5.7,5.1-10.7l-1.2-0.8
		c-3.1-9.3-0.2-19.4-4.7-27.8h1.7l0.8-4.2h2.5c4-2.3,22.3-8.5,11.7-11.7"/>
	<path class="st17" d="M60.5,91l-0.8-0.8c-4.9-1.5-4.2-5.7-4.2-10.1h4.2l-0.8-0.8h-1.7v-1.7h1.7c4,0.7,6.1-1.1,9.3-3.4v-1.7
		l-0.8-0.8h-1.7L63,74.2l-0.8-0.8C65,69,62.1,67,61.3,62.4c-1.4-7.8-2.3-15.6-2.5-23.6h3.4v1.7c-1.1,0.5-0.8,0.1-0.8,1.7H63
		c0.6,3-1.3,5.8-2.7,8.6l1.8-0.2l4.8,0.4l0.3-2.9c-1.9-4.6-0.3-8.7-0.8-13.5h2.5l1.7-1.7l-0.8-0.8h-1.7l-3.4,1.7L63.9,33l0.8-0.8
		l2.5-1.7l-0.8-0.8c-5.9,2.3-10.9,0.3-16.8,1.7V33h1.7c1.6,0,1.2,0.3,1.7-0.8l0.8,0.8l-2.5,3.4l0.8,0.8l0.8-0.8V38
		c-2,1.2-2.6,2-3.4,4.2h1.7c0.4,2,0.5,2.1,2.5,2.5v1.7c0,10.6-4.8,19.9-5.8,30.3c-1.4,15.1-2.5,29.3-0.4,43.3
		c1.8,11.8,6.4,23.6,9.9,35.7c1.9,6.4,2.9,21,7.9,25.6c2.4,2.3,7.3,1.3,10.3,1.3c9.3,0,22.6,2.4,31.1-1.7l-0.8-0.8h-1.7l-5.9,0.8
		v-1.7c4.1-1.6,6.1-4.7,9.3-7.6v-1.7c-5.2-5-14.6-5.4-21-8.6c-12.5-6.2-23-15.4-32-25.9l0.8-0.8l0.8,0.8c3.7,5,10.9,11.3,16.8,13.5
		l0.8-0.8v-2.5h1.7v2.5l0.8,0.8h1.7l0.8,1.7h1.7l1.7-0.8v1.7l1.7,3.4c6.1,0.8,15.3,2.9,21,5l0.8-0.8v-1.7
		c12.5-1.3,18.8-13,24.4-23.6l-0.8-0.8c-1.1,0.5-0.8,0.1-0.8,1.7H127v-1.7c4.5-3.5,9.3-18,8.4-23.6h1.7l-0.8-3.4h1.7l3.4-4.2v-1.7
		c-2-8.8,3.9-14.5-5-21l-0.8,0.8v1.7h-2.5v-1.7l-3.4-0.8v-2.5l-0.8-0.8H127c-1.4,4.8-5.2,5.3-7.6,0.8h-1.7l-1.7,0.8v1.7l0.8,0.8
		c-11.2,1.5-5.9,8.5,1.7,10.1l-0.8,0.8l-1.3-1.3c-1.2-1.9-2.6-1.7-4.5-3l-1.9,0.4l0.9,1.7c0.3,1.8-0.4,2.3,1.1,3.2l0.3,1
		c-1.6,5,5.7,10.1,8.3,14c4.3,6.8,6.4,13.4,4,21h-0.8v-3.4l0.2-1.9c-4.7,4.1-5.3,11.6-7.4,15.2c-2.9,3.7-5.5,1.3-5.4-2.4l-0.3-1.5
		c-0.3-3-0.8-2.5,2-3.6v-1.7c-2.4-3.8-7-2.3-10.9-2.2c19.4-14.9-6.1-9.2-15.9-7.6c-2.9-0.5-7.9,3-10.2,5.5H74V123
		c8.5-4.6,22.5,0.9,32-0.8v-1.7l-2.5-2.5l-1.7,0.8l-4.2,1.7v-1.7c1.3-0.8,1-0.8,2.5-0.8l1.7-9.3H88.3V107h5l-0.8-0.8h-4.2v-5.9h-1.7
		c-2-0.1-3.8-1-5-2.5h-1.7L79,98.6c0.5,1.1,0.1,0.8,1.7,0.8v1.7l-5.5-4.2"/>
	<path class="st17" d="M58,97.8"/>
	<path class="st17" d="M63.9,99.4"/>
	<path class="st17" d="M69.8,107.9l-4.2-0.8v1.7l-0.8,0.8V107l-2.5-3.4l0.8-0.8h1.7c1.4-2.3,2.3-4.9,2.5-7.6"/>
	<path class="st59" d="M100.9,54l-0.8,1.7l-0.8,16h1.7l2.5,5.9l0.8-0.8v-1.7C101.6,68.3,103.6,60.5,100.9,54z"/>
	<path class="st60" d="M70.6,64.1v2.5c-2.2,0.6-4.5,0.9-6.7,0.8v1.7l-1.7,4.2l0.8,0.8c5.5-2.4,13.4-2.5,19.3-2.5V70l-4.2-0.8v-1.7
		l0.8-0.8l-1.7-0.8l-6.7,3.4l2.5-4.2l-0.8-0.8H70.6z"/>
	<path class="st61" d="M78.2,67.5v1.7h2.5c0.5,1.1-1.6,0,0,0L79,70.3l0,0c-8.7,0.1-13.7,7.7-21.9,7.2v1.7c5,0.9,11.2-0.7,14.3-5h1.7
		v2.5c4,2.8,7.7,1.4,8.4-3.4h1.7l3.4,0.8l0.8-0.8l-0.8-0.8v-1.7h1.7l4.2,0.8l0.8-0.8L92.5,70C88.3,67.7,82.9,66.2,78.2,67.5z"/>
	<path class="st58" d="M109.2,77.4v1.7l0.8-0.8h10.1l0.8-1.7l0.8-3.4h1.7l0.8,0.8v-1.7l1.7-0.8l-0.8-0.8h-1.7L109.2,77.4z"/>
	<circle class="st28" cx="122.3" cy="75.1" r="3.4"/>
	<path class="st62" d="M34.4,70.8v12.6h1.4l0.3-10.9l2.1-0.6h4.2l0.2-1.1l-4.1-0.8L34.4,70.8z"/>
	<path class="st63" d="M86.6,70.8v1.7l0.8,0.8l-0.8,0.8l-0.8-0.8h-4.2l0.8,0.8l2.5,2.5h1.7v-1.7h1.7c3,2.3,4.7,3.6,5,7.6H95
		c1.2-1.5,2-3.2,2.5-5l-1.7-0.8c-2.3-1.3-2.6-2.4-2.5-5l-1.7-0.8H86.6z"/>
	<path class="st28" d="M107.6,93.6h1.7v-9.3l0.8,1.7h1.7v-1.7c-2.5-7,4.5-9.8,10.1-11.8l13.1-1.2l-14-1.7
		C107,72.9,107.6,80.8,107.6,93.6z"/>
	<path class="st64" d="M63,82.6v1.7l0.8,0.8l0.8-0.8c8.2,0.2,15.2,0.6,22.7-3.4v-1.7C78.8,81.4,72.1,82.6,63,82.6z"/>
	<path class="st65" d="M37.8,82.6v1.7c0.3,3.9,1.2,6.4,5,7.6v-1.7L42,86.8h-1.7l-0.8,0.8v-5H37.8z"/>
	<path class="st14" d="M109.3,84.3l-0.8,13.5h1.7l0.8,0.8l-0.8,0.8c-0.2,5.4-3.1,5.6-5.9,9.3l-1.7-1.7h-1.7l-0.8,0.8
		c0.6,1.1,0.1,0.8,1.7,0.8L100,118h-1.7l-0.8,0.8v1.7h1.7c1.6-0.8,1,0.2,2.2-1.2l1.2,1.4c0.6,1.1-0.4,0.9,1.2,0.9l2.2-0.3l-0.8,0.8
		h-1.7l0.8,0.8c1.3,0.2,2.4,0.8,3.4,1.7h11.8v1.7l-9.3,0.3l1.7,1.2l0.8,2.7h-2.5c-1.5,2.3-1.5,2.3,0.2,5l0.6,1.7
		c1.1,2.9,3.4,3.7,5.4,1.4c1.9-2.3,1.9-6.2,2.9-9c1-2.6,3.7-4.4,4.5-7c1.3-4.4-0.7-15-1.9-19.3l-2.5,2.1v2.8
		c-5.1,3.8-9.8,4.3-16,3.3l-0.8-1.3l0.8-0.8c2.8-0.3,11.8-0.9,12.2-4.3c0.4-3.4-3.8-4.9-2.1-8.3l-0.8-1.7l0.8-4.2h-1.7l-0.8-3.4
		l0.8-0.8c1.7,1.7,3.7,3.1,5.9,4.2l0.8-0.8l-0.8-0.8c-2.5-1.9-4.4-3.3-7.6-3.4C110.1,84.4,110.4,84.8,109.3,84.3z"/>
	<path class="st66" d="M89.1,91.9v1.7h1.7l2.5-1.7v-1.7L89.1,91.9z"/>
	<path class="st67" d="M111.8,96.9v1.7c5.1,8.8,0.2,10.1-9.3,10.9v1.7c3.5,2.4,16.6,2.4,17.2-3.4c0.4-3.6-3.8-7.8-5.5-10.9H111.8z"
		/>
	<path class="st68" d="M69.8,121.3h1.7c0.5-9.7,10-12.4,15.1-19.3l-0.8-0.8C76.9,105,69.8,111.4,69.8,121.3z"/>
	<path class="st28" d="M89.1,107l-0.8,0.8l0.8,0.8c3.8,0.9,8.1,0.3,11.8-0.8L100,107C96.2,106.1,93,106.9,89.1,107z"/>
	<path class="st69" d="M121.9,111.2v1.7c1.8,5.6,1.8,10.3,1.7,16l0.8-0.8C127.5,122.9,125.8,115.5,121.9,111.2z"/>
	<path class="st70" d="M74,123.8l0.8,0.8c6.5-3.4,17.4,1.2,24.4,2.1c6.3,0.8,13.7-0.4,20.2-0.4v-1.7c-4,0-7.8-0.8-11.8,0V123
		c-7.8,0-15.7-0.5-23.6-0.8C80.2,122,76.6,120.3,74,123.8z"/>
	<path class="st71" d="M91.6,130.6v1.7c3.7,2.4,9.9,0.8,14.3,0.8v-1.7L91.6,130.6z"/>
	<path class="st64" d="M114.1,85.7l0.4,1.6l1,0.6l0.6-1c7.9-1.8,15-3,21.3-8.7l-0.4-1.6C129.1,80.7,122.8,83.5,114.1,85.7z"/>
	<path class="st72" d="M121.5,74.2v1.7h1.7v-1.7H121.5z"/>
	<circle class="st28" cx="76.5" cy="75.1" r="3.4"/>
	<path class="st72" d="M75.7,74.3v1.6h1.7v-1.6H75.7z"/>
	<polyline class="st28" points="114.3,76.1 115.9,75.1 119,74.2 119.5,73 	"/>
	<path class="st62" d="M35.7,83.5"/>
	<path class="st57" d="M54,50.8"/>
	<path class="st28" d="M127,143.1"/>
</g>
</svg>
