<svg xmlns="http://www.w3.org/2000/svg" viewBox="0 0 201.06 201.9"><title>jonas</title><g id="Layer_1" data-name="Layer 1"><path d="M29.8,157c-8.3,5.07-24.22,11.1-28.29,20.33-2.61,5.93-1.51,16.3-1.51,23,0,1,1.21.67,1.57.67h197.9a.67.67,0,0,0,.67-.67V199c.15-1.24,1.48-33.08,0-38h0l-.94-1.87a.62.62,0,0,0-.17-.22l-6.77-5.6a.61.61,0,0,0-.22-.13l-43.72-14.12a.66.66,0,0,1-.31-.21l-7.12-8.79a.63.63,0,0,1-.14-.44l1.38-47.43a.63.63,0,0,1,.11-.35l10.37-15.59a.73.73,0,0,0,.09-.54L140.42,19.3a.67.67,0,0,0-.36-.43L103.33,1.1a.58.58,0,0,0-.41-.06L64.34,8.29a.73.73,0,0,0-.35.18l-8.63,8.58a.69.69,0,0,0-.19.55l11,99.35s0,0,0,.07v19.57a.68.68,0,0,1-.37.6L45.14,147.88" transform="translate(0.23 0.84)" style="fill:#080808"/><path d="M135.35,31l2-8c0-.39-20.64-19.26-39.39-21.64-29.47-3.75-11.82-2-18,.24C75.91,3.12,68,5.81,64,7.33c-.51.19-6.7,9.15-8,8l-4.3,12c-3.36,31.61.48,40.69,4.39,35.1,1.95-2.79,4.79-9.46,5-18.34,0-.53.93-2.61,1.29-4.41,1.51-7.65,2.5-24.28,1.77-22.13a.9.9,0,0,0,.21.9h0a.88.88,0,0,0,1.24,0l.18-.18a.89.89,0,0,0,.25-.48l.82-4.92a1,1,0,0,1,.94-.8h1a1.24,1.24,0,0,1,.33,0l6.76,1.69A.87.87,0,0,0,77,12.88h0c0-.48,1.7,2.41,2.19,2.41,3.81,0,5.77-3.31,9.25-5,.33-.17.39,4.64.66,4.91l.64-4.46a.87.87,0,0,1,.26.62v.47a1,1,0,0,0,1.15.94l3.39-.68a.86.86,0,0,1,.79.24l.41.41a.87.87,0,0,1,.26.62v.89a1,1,0,0,0,.73.93l2.08.52a1,1,0,0,0,1.19-.93V13.6a1,1,0,0,1,.54-.87c7-3.32,13.25.5,18.06,5.82a1.34,1.34,0,0,0,1,.45h.06A1.34,1.34,0,0,0,121,17.66v-.21a1.32,1.32,0,0,0-.27-.81l-2.23-3a1,1,0,0,1,.09-1.26L119,12" transform="translate(0.23 0.84)" style="fill:#3c3c3c"/><path d="M100,15c14.71-3.46,10.35,12.27,10,22a15.36,15.36,0,0,1,7,3l-1,2-4,1,1,1c6.63,0,15.48-3.17,18,5h-2c-7.19-1.9-23.91-3.69-22,8l1-1c9.22-7.8,15.41-.41,25-1l1,1v8h-2l-19-2V60h2l11,2V60l6,1V59l-9-5-1,1v2l-1,1h-5V56c1.3-.65,1-.15,1-2h-2c-8.28,4.72-2.16,24.54,2.56,30.9,2,2.69,4.78,4.15,6.44,7.1h2c3.13-1.9,3.88-4.59,5-8h2c.65,1.3.15,1,2,1V81h-2l-1,1-1-1,1-1h5v2l1,1,1-1,1-5h3l1-1V74h-4V72a163.89,163.89,0,0,0-1.42-29c-.63-4.68-.2-9.07-5.58-10V30c-4.37-5.79-5.85-12.4-12.4-15.94L118,13l3,5-1,1C115.87,14.87,103.21,5.32,100,15Z" transform="translate(0.23 0.84)" style="fill:#fcedcc"/><path d="M67,12v3a15.49,15.49,0,0,1-5,4v2c0,4.46,1.93,9.55,1.34,13.83C62,44.75,57.08,51.12,58.17,62c1,10,8.21,18.57,8.83,28h3c8.59,10.11,14.24-.76,15-10h2l1,1a38.49,38.49,0,0,0-3,10h2l7-1v2l-2,1,1,1h6V92c.26-2.77.63-3.55,3-5V85c-3.48-3.2-6.63-1.84-11-2l1-2,8-1V77c3.42-8.14.63-20.61-1-29l1,1c6.39-.89,14.18-3,17-8l-1-2a9.74,9.74,0,0,0-6-2V35c.65-4.11,2.68-15.91,0-19.26s-8.54-.94-12-.62C87.2,16.14,77.66,13.38,67,12Z" transform="translate(0.23 0.84)" style="fill:#fdf6e4"/><path d="M100,48l-1,1v2l1,5h2c3.32,5.61,6.84,10.31,7,17h-5V71c.79-3.4,0-5.7-1-9h-2l-1,1,1,1c.23,11.07,8.54,8.87,11,17h-2c-5.5-2.65-13.64-1.82-19,1l1,1,1,1c5.66-1.46,10.94.24,16,3l1-1V84c3.55.58,4.76,1.63,6,5h3l3,2,1-1c-5.56-6.46-20.63-31.67-6-36v2c-1.3.65-1,.15-1,2h6V55l1-1c3.56,2.51,6.75,4.88,11,6V58c0-1.8,0-1.52-1-3l-1,1c-6.85-3.74-19.48-8-24,1l-1-1c.51-11.82,16.58-7.38,24-7V47C123.25,34.72,107,52.54,100,48Z" transform="translate(0.23 0.84)"/><path d="M147,44v3c-2.79,3.85-4.68,7.2-5,12h2c7.9-.28,8.09,7.62,2,11v2c-.27,3.57-.83,5.26-4,7v2a7.89,7.89,0,0,0,4,2V81c11.95-11.38,4.15-23.67,4-37Z" transform="translate(0.23 0.84)" style="fill:#f8d484"/><path d="M64,56h2c7.53-4.21,15.14-3.14,23-6l1,1v2h2V51C86.13,45,66.59,47.43,64,56Z" transform="translate(0.23 0.84)"/><path d="M46,55V65l1-1V56h2l3,3,1-1C50.77,55.7,49.2,55.23,46,55Z" transform="translate(0.23 0.84)" style="fill:#414141"/><path d="M66,63l1,1h2l8-4v2l1,1,1-1h3V59l1-1h2c-.26,5.73-5.39,6.92-10,9l1,1h2c8.15-1.68,11.26-3.57,13-12C81,55.21,73.5,55,66,63Z" transform="translate(0.23 0.84)" style="fill:#020202"/><path d="M101,56v2c.75,5.5,3.57,9.17,3,15h5V71c-.32-5.87-3.72-9.78-6-15Z" transform="translate(0.23 0.84)" style="fill:#f8d484"/><path d="M113,60v2c6.71,2,14.07,1.18,21,2V60h-2c-2.48.35-4.31.18-6,2h-2Z" transform="translate(0.23 0.84)" style="fill:#454545"/><path d="M101,70c-.08,3.94-.37,7-3,10l1,1h2c3.56-2.58,7-.68,11,0V79C109.35,74.86,104,74.53,101,70Z" transform="translate(0.23 0.84)" style="fill:#f8d484"/><path d="M140,77l-1,6h-2V81a14.81,14.81,0,0,0-6-1v2h2l2-1v2l-3,7h2l3,16,2-1C142.38,98.64,142.78,83.62,140,77Z" transform="translate(0.23 0.84)" style="fill:#f8d484"/><path d="M85,80c-1.22,8.88-5.85,13.87-3,23l1-1c8.76-7.23,27-6.92,37-3V97a8.12,8.12,0,0,0,2-5h-2c-10.92,4.63-24.45,1.81-36,4l-1-1,1-1c1.48-1,1.2-1,3-1-1.41-4.8-.25-8.3,1-13Z" transform="translate(0.23 0.84)" style="fill:#0f0f0f"/><path d="M103.87,116.66l2.85-4.13-8.74,1L97,115v2l-1,1c-2.78-1.49-4-3-7.14-3L88,114v-6H86l1,1v2H85l-2.19-1.19" transform="translate(0.23 0.84)" style="fill:#f8d484"/><path d="M82,109l-3-1.31L79,106c1.64-.54,1.45.33,2-1.3l1,1.3h3v-6l-1,1-1,2-1-1-2-8c-3,.85-4.28.47-7-1-1.3.65-1,.15-1,2H70l-1-1,2-3-1-1H68l-1-1a12.77,12.77,0,0,0-3-8v2c2.46,6.43,1.29,12.33,2.19,19,1.23,9.12,4.23,17.32,2.66,27-1.2,7.37-10.3,7.5-7.85,16l1-1-1-1c1-3.09,2.85-4.65,5-7l1,1v2h3V113l1,1c1.22-2.36.85-3.46,0-6l1-1,2,1c5.63,7.75,7.88,12,18,12l.83.16c3.17,1.32,9.61-1.16,9.07.78L103,117" transform="translate(0.23 0.84)" style="fill:#f8d484"/><path d="M52,82v2l3,4,1-1Z" transform="translate(0.23 0.84)" style="fill:#5e5e5e"/><path d="M110,84v2l-1,1c-3.48-2.63-6.18-1.37-10,0l1,1h2v2c-3.56,4-7,3.92-12,3V91h3l1-1H92l-6,1,1,1-4,2v2h2c12-.94,25.47-.4,37-4v2l-2,5h-2c-5.1-5.21-15.19-2-22-2l1,1h10v3l-2,5,1,1h2l1,1c.08,4.9.83,8.51-4,11l.7-.39.38.39,1.74.4c3.17-2,3.93-1.73,4.18-5.4h2c12.61,4.42,16-14.89,15-23l-2,1h-3V90l-1-1v2l-7-2V86A9.74,9.74,0,0,0,110,84Z" transform="translate(0.23 0.84)" style="fill:#f8d484"/><path d="M89.71,116.46c1.9-.12,4.69,2.27,6.34,2.2,1.23,0,1.62-3.14,6-2.1l2-1,2,.19,1.06.29L105,119h2c3.45-3.48,2.09-7.41,2-12h-2a22,22,0,0,1-8-3l1-1,1-1,6-1V99l.66-1.34C99,97.66,85.14,94.59,85,106H83l-1-2-2,1-2,2" transform="translate(0.23 0.84)" style="fill:#f8d484"/><path d="M137,110v2c-8.25,6.15-4.25,11.54-4,20h3l1,1-1,1c.46,7.19,2.93,12.59,2,20h2c2.62-3.85,7.27-8.31,7.84-13.09.8-6.67-5.15-7-7.24-12S140,115.52,140,110Z" transform="translate(0.23 0.84)" style="fill:#fcedcc"/><path d="M130,117v3c-3.46,4.56-2.1,11,0,16h-2c-2.86,4.46-11.68,17.44-4,20,1.56-8.09,8.46-13.55,9-22h2l1,1,1-1v-2h-3l-1-1c-.14-4.61-2.22-8.46-1-13C131.35,116.7,131.85,117,130,117Z" transform="translate(0.23 0.84)" style="fill:#323232"/><path d="M75,118v2c4.29,6.55,12.92,16,15,23h2l5,1v2H95a62.7,62.7,0,0,0-2,13h2c3.2-4.24,5.32-3.71,10-2v2a9.1,9.1,0,0,1-6,3l1,1c5.88,1.09,9.3,1,14-3l1,1v2l1,2h-2c-4.79,2.31-8.88,1.95-14,1v2a30.58,30.58,0,0,1-9,1l1,1c18.92,0,34.3.36,48-15-.65-1.3-.15-1-2-1,1.39-7.51-.09-13-3-20h-2c-1,8.24-8.1,13.74-9,22h-2c-3.68-9.12,7.21-16.58,3-27h-2c-2,3.11-2.88,5.31-3,9h-2l-11-1v-2c-6.92-3.35-15-1.69-21.66-5.76C81.19,126.69,79,121.1,75,118Z" transform="translate(0.23 0.84)" style="fill:#f8d484"/><path d="M96,138v2a11.35,11.35,0,0,0,4,4v2l-3,2v2h2c5.89-.07,8.14-2.43,13-5v-6h-2c-3.09.21-5.38.7-8-1h-2C98.22,139,97.92,138.84,96,138Z" transform="translate(0.23 0.84)" style="fill:#fcedcc"/><path d="M47,56v2c0,10.34,2.6,32.56,16,33V89c-1.06-6.7-3.8-14.5-6-21l-1,1c-1.3,3.11-.94,5.81,0,9l-1,1C49.67,70.67,59.84,59.62,47,56Z" transform="translate(0.23 0.84)" style="fill:#fcedcc"/></g><g id="light_colour" data-name="light colour"><path d="M70,113v26H68c-1-1.48-1-1.2-1-3l-2,1c-6.49,4.89-1.78,12,2.44,17.13C76.11,164.77,86.66,169,100,169v-2l-3-2v-2c4.33-.86,7-1.38,8-6h-2c-3.39-3.42-6-2-8,2H93v-2c.83-3.78,1.4-8.17,4-11v-2a9.32,9.32,0,0,0-7-1v-3C82.85,132.08,78.27,119.22,70,113Z" transform="translate(0.23 0.84)" style="fill:#fdf6e4"/></g></svg>