<svg id="Layer_1" data-name="Layer 1" xmlns="http://www.w3.org/2000/svg" viewBox="0 0 201.56 213.85"><title>martin</title><path d="M47.5-.6,40.9,2c-13.3,12.8-15,40.9-9.5,57.7,2.8,8.6,11,25.7,4.5,34.3v2h2a56.59,56.59,0,0,1,1,13h-2l-6-8L26.4,80.8l-1.3.7a1.38,1.38,0,0,0-.1,1.1l4.6,21.2c2.4,3.2,7.3,5.9,8.2,9.4,2.1,8.3-4,21.8-4,30.9h-2c-7.9.6-13.1,5-20.2,7.4-3.4,1.2-8.3,0-10.8,3.3-2.2,2.9-1,8.9-1,12.3v33h62c-6.5-15.9-9.4-33.4-13.7-50-2.5-9.7-7.7-20-8.2-30-1.1-22.5,3.8-44.8,3.9-67l-2,1-2,11h-2v-2c-7-11.3-10.6-39.5,1-49v-2l-1-3h2L45.4,1,50.1-.4Z" transform="translate(0.53 13)" style="fill:#110d0a"/><path d="M40,9H38l-1,1,1,1v3H36c-9.2,15-4.8,35.9,1,51l3.2,1.1,6-9.4L43,54v7l1-1c.3-2.1,3.3-10,4-16.2.5-4,1-9.1-1-7.8l-.1-2.6c-1.1-1.7.8.2-.9-.7l3.4-1.4-.9-4.6L46,26l-1,1,2.5-1.1L49.6,24c1.6-.5-1.4-1.3-.9-2.9L46,21l-1,1V20.3c7.7-1.4,10.5.6,18.1-2.3l-1,2-3,2,1,1c3.4-1.6,6.3-2.7,10.4-2.1l2.6-6-3.6-1.4L67,11l-2,1-1.6-.9L63,10,61,9l-.5-2H64L63,4,62,2l1-1h6L68,0C58.1,0,41.4-4.2,40,9Z" transform="translate(0.53 13)" style="fill:#23110a"/><path d="M30.8,69H27c-1.6,2.7,1.9,29,1.9,29l8,11c3.7-9.2-2.8-5.4,1.3-5.4l.7-11.2L38.3,84l.6-2V78.1l-2.6-4.4-1.6-4.9c0-.2-.2-.2-.3-.1l-3.6.3h0Z" transform="translate(0.53 13)" style="fill:#fee1b9"/><path d="M63,2V4c1,1.5,1,1.2,1,3H61L60,8l1,1,3,3h2l1-.1V13l4.5,1.3L72,16l-1,4H66c.6,1.3.1,1,2,1l-1,2-4,1-.44,11.27,6.74-5.73C72.8,28.94,71,24.8,74,27h2c11.94.51,16.48-2.46,24-7.16l2.65,1.41c3,6.94,9.85,1.42,11.35-3.25l2.67,1.57,0-1.57c16.6-1.3,21.57-1.5,22.37,17h2c1.9,0,1.4.3,2-1l1,1v2c.9,8,9.2,23.5-3,26v2l1,1c-1.9,0-1.82-1.7-2.42-.4-2.2-1.2-2.38-.4-3.58-2.6h-2c-6.6.1-12.51-.36-19,.84L114,63l3.34-.56L117,59h-2c-1.5,1-1.2,1-3,1l-1.53,2.09L109,65v2c3.8,5.4,2,11.7,2,18l1-1c.1-10.9,7.2-13.1,16-17l1,1-1,1c-1,.3-2,.7-3,1.1-5.4,2.1-10.5,5.3-9,11.9l1-1a8.34,8.34,0,0,1,6-3l-1-1V75l1-1h3v3c4.8,2.3,8.1,1.6,9-4h2l1,4,1.31,2.8L142,78v2l1.9.82,2.46-.53-.78,1.34c1.5,2.3,1.42.09,2.22,2.69,1.9,6.3,2.6,13.08,4.2,19.68h-2a11.59,11.59,0,0,1-4,5v2l1,2h-2c.5,8.6-5.4,21.8-10,29l1,1c1.3-.6,1-.1,1-2h2l1,1-1.9,4.6,4.3-2.5c3.1-3.3-.4-2.6,4.2-3.2l1.4,1c5.9-7.3,1.1-13.1,2.8-21,2-9.5,6.1-17.1,7.1-27,1.7-17.7-1.2-36.1.2-54h3c1.2-4,1-7.9,1-12h3l1-1v-2c-4.4-2.29-9.9-11.85-13.5-15.79-1.48-1.62-3.19-.16-3.5-.21L148.6,12c2.4,3.4,4.6,5.79,5.5,9.89h-2c-6.4-13.5-18.5-9.5-29.9-10.1-5.6-.3-12.5-2.1-18.2-1.3-6.3,1-9.1,4.4-15.9,2.4l-1,1,2,1-1,1h-2a13,13,0,0,1,2-9l-2-3,1-1h2l4-2-1-1C82.4,0,72.3-.9,63,2Z" transform="translate(0.53 13)" style="fill:#fdc786"/><path d="M81-9.2,63.3-5.7,47.5-.6,60,4.3C58.1,7,85.4,12.8,86,16h2l1-1-2-1,1-1c7.3,3.3,10-1.8,16.8-2.1,5.7-.3,11.7,1.3,17.3,1.4,12.5.2,21.2-2.5,29.9,9.7h2V20c-1.2-3.2-2.1-6.1-5-8V10l1-1h2a100.36,100.36,0,0,1,10,15l1.91-.44c1.1-3.4.89-7.06,1.09-10.56h-2c-1.2-3.5-2-6.8-4-10l5-1-3,1V1h2l1,1,1-1-1-1C139.1-7.6,106.4-19,81-9.2Z" transform="translate(0.53 13)" style="fill:#23110a"/><path d="M140,142l-1,1c-6.9,6.3-9.2,15.5-16,21.7-3.8,3.5-11.3.6-13,5.3-6.6-2.7-18.9-2.5-26-3v-3l-2-3H80l-2,1v-2H74v-3l-1-1-1,1-1,3H69c-5.2-6.6-13.1-10.2-18-17H49v2c10.5,12.3,23.3,23.2,38,30.3,7.5,3.6,20.9,3.9,25,11.7h-2a22.91,22.91,0,0,1-9,9v2h2l8-1-1,1-2,1,1,1h91v-2c0-6.3,2.9-22.2-1-27.3-5.4-6.9-20.7-7-27.7-11.7-3.3-2.2-3.3-6.6-4.7-10-3-7.5-11.5-14.1-13-22-1.8-9.4,4.9-17.3,6.7-26,1.4-7,7.5-33.5-.2-36,8.7-14.2,9.8-28,8.2-44-.8-7.8-1.5-14.9-9.2-19V4a19.27,19.27,0,0,1,3,9h2c.9,4.1-.6,7.8-1,12h2l-.1,1v.83l-2.9,1.08V29c0,4.7.5,8.5-4,11-2.2,17.1.7,34,0,51-.5,11-5.4,19.5-7.4,30a88.33,88.33,0,0,0-1.5,11.2,30.62,30.62,0,0,1-7.7,9.1" transform="translate(0.53 13)"/><path d="M145.6,141.3l-3.9,1.9" transform="translate(0.53 13)"/><path d="M85,22v2l1-1H98l1-2,1-4h2l1,1V16l2-1-1-1h-2Z" transform="translate(0.53 13)" style="fill:#a19388"/><path d="M113,16l1,1-6,2,1,1c4.4,3.1,9.9,3.2,15,2l1,1c1.7,2.2,3.3,2.6,6,3v2h-7v6h-2l-4-1v2h3v2c-3.8,4.5-3,7.2,0,12h2V47l-2-1,1-1h2c3.1,7.4-.3,11.8-8,13l1,1v2l-1,1h-2v2l1,1h2c5.8-1.7,12.9-1.9,19-2v3a12.19,12.19,0,0,0,6,0l-1-1V63c12.4-1.4,4.3-21.1,3-29l-2,1h-3V33C137.5,14.4,129.4,14.7,113,16Z" transform="translate(0.53 13)" style="fill:#fee1b9"/><path d="M125,41.27l6.61,3L137,45.31,125,38.5l4.92-1.21L124,34l1-2-1-4h7V26a13.35,13.35,0,0,1-7-4h-2c-7.8,2-14.7-3-22-5l-1,1-1,5H96c-6.8-1.4-15.7,1.2-22,4V25c-11.5.1-13.2,6.9-10,17l-1,1H57V41c2.4-2.5,2.8-4.6,3-8H58l-1-1,1-1V29H54v2c.2,8.3.5,21.1,3.4,28.9,2.1,5.5,9.1,3.9,10.6-.9h2l1,1-3,4,1,1h2c7.2-5.5,16.2-1.5,24,1v2c-.8,4.4.9,5.9,5,7v2l-3,4H95V79c-.8-4.6-3.7-5.9-8-7v2H85l-1-1V71H82l-1,1v2c-4.7,2-8,2.3-10-3H69c-5.1,4.9-12.1,7-19,7v2c0,5.5-.4,9.5,6,10l-1,1H51v3c-1.8,3.2-1.3,5.2,1,8l1-1V99l1-1,1,1v3l1-1,3-3,1,1v2h2V96h2c-.6,4.2-2.2,6.9-6,9v2a14.18,14.18,0,0,1,3,6l1-1v-2h2l5,1v-3a11,11,0,0,0,5-5l1,1,5-1v-2H78V99h2c2.9,2.7,5.1,3,9,3v2l-.5,9,4,4.14c5.93,2.09,14.46-1,19.5,1.21,1.3-.7-2.07-4.7-2.07-6.6,6.8-1.1,5-6.75,6.07-12.75l-1.42-1c-3.7-11-.18-23.1-5.58-33h2l1-5h3c4.7-2.7,26.47-10.08,13.87-13.88" transform="translate(0.53 13)" style="fill:#fee1b9"/><path d="M56,91l-1-1c-5.8-1.8-5-6.8-5-12h5l-1-1H52V75h2c4.7.8,7.3-1.3,11-4V69l-1-1H62l-3,3-1-1c3.3-5.2-.1-7.6-1-13a187.29,187.29,0,0,1-3-28h4v2c-1.3.6-1,.1-1,2h2c.7,3.6-1.58,6.9-3.18,10.2L58,43l5.7.49L64,40c-2.3-5.5-.4-10.3-1-16h3l2-2-1-1H65l-4,2-1-1,1-1,3-2-1-1c-7,2.7-12.9.3-20,2v2h2c1.9,0,1.4.3,2-1l1,1-3,4,1,1,1-1v2c-2.4,1.4-3.1,2.4-4,5h2c.5,2.4.6,2.5,3,3v2c0,12.6-5.7,23.6-6.9,36-1.68,17.92-3,34.78-.52,51.5,2.12,14.08,7.61,28.06,11.72,42.5,2.2,7.6,3.5,25,9.4,30.4,2.9,2.7,8.7,1.6,12.3,1.6,11.1,0,26.9,2.9,37-2l-1-1h-2l-7,1v-2c4.9-1.9,7.2-5.6,11-9v-2c-6.2-6-17.3-6.4-25-10.2-14.9-7.4-27.4-18.3-38-30.8l1-1,1,1c4.4,6,12.9,13.4,20,16l1-1v-3h2v3l1,1h2l1,2h2l2-1v2l2,4c7.2,1,18.2,3.4,25,6l1-1v-2c14.9-1.6,22.4-15.5,29-28l-1-1c-1.3.6-1,.1-1,2h-2v-2c5.4-4.2,11.1-21.4,10-28h2l-1-4h2l4-5v-2c-2.4-10.5,4.6-17.2-6-25l-1,1v2h-3V78l-4-1V74l-1-1h-2c-1.7,5.7-6.2,6.3-9,1h-2l-2,1v2l1,1c-13.29,1.74-7,10.16,2,12l-1,1-1.6-1.49c-1.4-2.3-3.1-2-5.4-3.51l-2.28.48,1.07,2c.4,2.1-.45,2.77,1.35,3.77l.34,1.14c-1.9,6,6.82,12,9.82,16.65,5.1,8.1,7.6,15.9,4.7,25h-1v-4l.2-2.3c-5.6,4.9-6.32,13.74-8.8,18.1-3.4,4.4-6.5,1.5-6.4-2.8l-.41-1.75c-.3-3.6-1-2.95,2.41-4.25v-2c-2.9-4.5-8.3-2.7-13-2.6,23.06-17.74-7.29-10.92-18.86-9C82.64,123.83,76.7,128,74,131H72v-2c10.1-5.5,26.7,1.1,38-1v-2l-3-3-2,1-5,2v-2c1.5-1,1.2-1,3-1l2-11H89v-2h6l-1-1H89v-7H87a8.34,8.34,0,0,1-6-3H79l-1,1c.6,1.3.1,1,2,1v2l-6.5-5" transform="translate(0.53 13)" style="fill:#fee1b9"/><path d="M53,99" transform="translate(0.53 13)" style="fill:#fee1b9"/><path d="M60,101" transform="translate(0.53 13)" style="fill:#fee1b9"/><path d="M67,111l-5-1v2l-1,1v-3l-3-4,1-1h2a20.9,20.9,0,0,0,3-9" transform="translate(0.53 13)" style="fill:#fee1b9"/><path d="M104,47l-1,2-1,19h2l3,7,1-1V72C104.8,64,107.2,54.7,104,47Z" transform="translate(0.53 13)" style="fill:#514b47"/><path d="M68,59v3a27,27,0,0,1-8,1v2l-2,5,1,1c6.5-2.8,15.9-3,23-3V66l-5-1V63l1-1-2-1-8,4,3-5-1-1Z" transform="translate(0.53 13)" style="fill:#897f79"/><path d="M77,63v2h3c.6,1.3-1.9,0,0,0l-2,1.4h0c-10.4.1-16.3,9.1-26,8.6v2c6,1.1,13.3-.8,17-6h2v3c4.7,3.3,9.1,1.7,10-4h2l4,1,1-1-1-1V67h2l5,1,1-1-1-1C89,63.2,82.6,61.5,77,63Z" transform="translate(0.53 13)" style="fill:#0a0908"/><path d="M113.9,74.8v2l1-1h12l1-2,1-4h2l1,1v-2l2-1-1-1h-2Z" transform="translate(0.53 13)" style="fill:#a19388"/><circle cx="130.03" cy="85" r="4"/><path d="M25,67V82h1.7L27,69l2.5-.7h5l.2-1.3-4.9-.9Z" transform="translate(0.53 13)" style="fill:#171514"/><path d="M87,67v2l1,1-1,1-1-1H81l1,1,3,3h2V72h2c3.6,2.7,5.6,4.3,6,9h2a16.94,16.94,0,0,0,3-6l-2-1c-2.7-1.6-3.1-2.8-3-6l-2-1Z" transform="translate(0.53 13)" style="fill:#595351"/><path d="M112,94h2V83l1,2h2V83c-3-8.3,5.3-11.7,12-14l15.6-1.4-16.7-2C111.3,69.4,112,78.8,112,94Z" transform="translate(0.53 13)"/><path d="M59,81v2l1,1,1-1c9.7.2,18.1.7,27-4V77C77.7,79.6,69.8,81,59,81Z" transform="translate(0.53 13)" style="fill:#181716"/><path d="M29,81v2c.3,4.6,1.4,7.6,6,9V90l-1-4H32l-1,1V81Z" transform="translate(0.53 13)" style="fill:#060505"/><path d="M114,83l-1,16h2l1,1-1,1c-.2,6.4-3.7,6.6-7,11l-2-2h-2l-1,1c.7,1.3.1,1,2,1l-2,11h-2l-1,1v2h2c1.9-.9,1.2.2,2.6-1.4l1.4,1.67c.7,1.3-.53,1.08,1.37,1.08L110,127l-1,1h-2l1,1a7.27,7.27,0,0,1,4,2h14v2l-11,.31,2,1.46,1,3.23h-3c-1.8,2.7-1.8,2.7.29,6l.71,2c1.31,3.49,4.1,4.4,6.4,1.7s2.2-7.4,3.5-10.7c1.2-3.1,4.4-5.2,5.3-8.3,1.5-5.2-.8-17.85-2.2-22.95l-3,2.51v3.36c-6.1,4.5-11.65,5.09-19,3.89L106,114l1-1c3.3-.3,14-1.1,14.5-5.1S117,102.1,119,98l-1-2,1-5h-2l-1-4,1-1a28.84,28.84,0,0,0,7,5l1-1-1-1c-3-2.3-5.2-3.9-9-4C115,83.1,115.3,83.6,114,83Z" transform="translate(0.53 13)" style="fill:#fdc786"/><path d="M90,92v2h2l3-2V90Z" transform="translate(0.53 13)" style="fill:#716c68"/><path d="M117,98v2c6.1,10.5.2,12-11,13v2c4.2,2.8,19.7,2.8,20.5-4.1.5-4.3-4.5-9.3-6.5-12.9Z" transform="translate(0.53 13)" style="fill:#332b26"/><path d="M67,127h2c.6-11.5,11.9-14.7,18-23l-1-1C75.5,107.6,67,115.2,67,127Z" transform="translate(0.53 13)" style="fill:#040403"/><path d="M90,110l-1,1,1,1c4.5,1.1,9.6.3,14-1l-1-1C98.4,108.9,94.6,109.9,90,110Z" transform="translate(0.53 13)"/><path d="M129,115v2c2.1,6.6,2.1,12.2,2,19l1-1C135.6,128.9,133.6,120.1,129,115Z" transform="translate(0.53 13)" style="fill:#040303"/><path d="M72,130l1,1c7.7-4.1,20.7,1.4,29,2.5,7.5,1,16.3-.5,24-.5v-2c-4.8,0-9.3-1-14,0v-2c-9.3,0-18.7-.6-28-1C79.4,127.8,75.1,125.8,72,130Z" transform="translate(0.53 13)" style="fill:#141211"/><path d="M93,138v2c4.4,2.9,11.8,1,17,1v-2Z" transform="translate(0.53 13)" style="fill:#211c1a"/><path d="M119.7,84.6l.5,1.9,1.2.7.7-1.2c9.4-2.1,17.8-3.6,25.3-10.3l-.5-1.9C137.5,78.7,130.1,82,119.7,84.6Z" transform="translate(0.53 13)" style="fill:#181716"/><path d="M128.5,71v2h2V71Z" transform="translate(0.53 13)" style="fill:#7e7670"/><circle cx="75.53" cy="85" r="4"/><path d="M74.1,71.1V73h2V71.1Z" transform="translate(0.53 13)" style="fill:#7e7670"/><polyline points="120.53 86.3 122.43 85 126.03 84 126.63 82.59"/><path d="M26.5,82" transform="translate(0.53 13)" style="fill:#171514"/><path d="M48.3,43.2" transform="translate(0.53 13)" style="fill:#23110a"/><path d="M135,152.9" transform="translate(0.53 13)"/></svg>