<?xml version="1.0" encoding="utf-8"?>
<!-- Generator: Adobe Illustrator 22.1.0, SVG Export Plug-In . SVG Version: 6.00 Build 0)  -->
<svg version="1.1" id="Layer_1" xmlns="http://www.w3.org/2000/svg" xmlns:xlink="http://www.w3.org/1999/xlink" x="0px" y="0px"
	 viewBox="0 0 1200 822.5" style="enable-background:new 0 0 1200 822.5;" xml:space="preserve">
<style type="text/css">
	.st0{fill:#F0F0F0;}
	.st1{fill:#444B5A;}
	.st2{fill:#BBBABA;}
	.st3{fill:#EAD959;}
	.st4{fill:#FBC333;}
</style>
<g>
	<path class="st0" d="M50,752.3c0,22.3,18.1,40.4,40.4,40.4h1019.2c22.3,0,40.4-18.1,40.4-40.4V72.8c0-22.3-18.1-40.4-40.4-40.4
		H90.4C68.1,32.4,50,50.5,50,72.8V752.3z"/>
	<path class="st1" d="M50,693.5V72.8c0-22.3,18.1-40.4,40.4-40.4h1019.2c22.3,0,40.4,18.1,40.4,40.4v620.7H50z"/>
	<g>
		<rect x="580.8" y="723.1" class="st1" width="42.2" height="36.9"/>
		<rect x="537.1" y="738.4" class="st2" width="16.3" height="16.3"/>
		<rect x="506.7" y="738.4" class="st2" width="16.3" height="16.3"/>
		<rect x="476.4" y="738.4" class="st3" width="16.3" height="16.3"/>
	</g>
	<rect x="85.9" y="70.8" class="st4" width="1028.2" height="583.8"/>
</g>
</svg>
