<svg xmlns="http://www.w3.org/2000/svg" viewBox="0 0 118.34 311.87"><title>parentkeg</title><g id="keg"><rect id="top" x="40.17" y="137.55" width="38" height="16.67" style="fill:#f4f7dc"/><path id="long-tap" d="M72.82,296.88H41.73c.39-5.89.62-12.18.6-18.83,0-6-.24-11.77-.6-17.17H72.82c-.39,5.72-.62,11.83-.61,18.29C72.21,285.42,72.44,291.33,72.82,296.88Z" transform="translate(0 0)" style="fill:#f4f7dc"/><circle id="circle" cx="59.17" cy="206.71" r="59.17" style="fill:#3d4b50"/><circle id="brand" cx="59.33" cy="206.55" r="55" style="fill:#bcb8b1"/><g id="label"><circle id="brand-2" cx="59.33" cy="206.55" r="55" style="fill:#fbc333"/><g style="isolation:isolate"><text transform="translate(44.41 248.25)" style="isolation:isolate;font-size:5.136769771575928px;font-family:Montserrat-Regular, Montserrat">h</text><text transform="translate(47.73 248.25)" style="isolation:isolate;font-size:5.136769771575928px;font-family:Montserrat-Regular, Montserrat;letter-spacing:-0.0030417948817679542em">e</text><text transform="translate(50.88 248.25)" style="isolation:isolate;font-size:5.136769771575928px;font-family:Montserrat-Regular, Montserrat;letter-spacing:-0.0099808894558011em">f<tspan x="1.71" y="0" style="letter-spacing:-0.0199617789116022em">ew</tspan><tspan x="9.11" y="0" style="letter-spacing:-0.00009505609005524857em">eiser</tspan></text></g><text transform="translate(40.25 240.67)" style="isolation:isolate;font-size:11.741189956665039px;font-family:ArialMT, Arial">E<tspan x="7.83" y="0" style="letter-spacing:-0.03709563311789842em">L</tspan><tspan x="13.93" y="0" xml:space="preserve"> HEFE</tspan></text><path d="M84.44,227.71a37.65,37.65,0,0,0-2.85-7c-.56-1.06-1.14-2-1.71-2.92a15.18,15.18,0,0,0-1.72-1.49,15.87,15.87,0,0,0-3-1.77c.07-1.62.16-3.25.26-4.89,0-.64.08-1.27.13-1.9a14.12,14.12,0,0,0-2.68.22c-.9.17-1.81.68-2.69.76a29.45,29.45,0,0,0,.07-4.2c-.07-1.23.81-2,1.32-3.08a57.1,57.1,0,0,0,2.28-5.34c1.14-2.28,2.29-4.56,3.43-6.85l5.36-3,1.71-1c1.11-.68,4.33-2.84,5.14-6.67a8.42,8.42,0,0,0,.18-2c0,.21-1.38.87-1.57,1a16.22,16.22,0,0,1-2,1,17.58,17.58,0,0,1-5,1.16.34.34,0,0,1-.2,0,.3.3,0,0,1-.12-.17c-.43-1.06-.86-2.13-1.28-3.2q-1.55-3.9-2.86-7.68a15,15,0,0,0-2.16-5.54,10.15,10.15,0,0,0-13.5.9,15.37,15.37,0,0,0-2.4,2.63,15.65,15.65,0,0,0-2.37,4.79,10.44,10.44,0,0,0-3.5-1.74,10.22,10.22,0,0,0-2.86-.38A8.91,8.91,0,0,0,43,176.68a16.62,16.62,0,0,0,4.41,9.3l7,6.5a24.79,24.79,0,0,1-.25,7.83,23.85,23.85,0,0,1-1,3.61q-2,2.28-4,4.57a1.2,1.2,0,0,1-.26.24.94.94,0,0,1-.33.08,40.1,40.1,0,0,0-7.36,1.53,28.2,28.2,0,0,0-6.73,3.06,6.36,6.36,0,0,0-2.16,3.26,45.17,45.17,0,0,0-1.66,5.05c-.13.47-1.24,6.18-1.19,6.18Z" transform="translate(0 0)" style="fill:#351d02"/></g><g id="label-2"><g id="Rainbow"><circle id="circle-2" cx="59.33" cy="206.55" r="55" style="fill:#bd2233"/><circle id="circle-3" cx="59.33" cy="207.84" r="52.24" style="fill:#f59332"/><ellipse id="circle-4" cx="59.58" cy="209.81" rx="50.24" ry="48.99" style="fill:#fef035"/><ellipse id="circle-5" cx="59.33" cy="211.83" rx="48.16" ry="46.96" style="fill:#17a453"/><ellipse id="circle-6" cx="59.83" cy="212.98" rx="46.09" ry="43.37" style="fill:#1dafec"/><ellipse id="circle-7" cx="59.68" cy="217.21" rx="45" ry="43.88" style="fill:#fff"/></g><path d="M91.68,170.67,79,183.36c.06-.06,3.83,3.1,4.16,3.37a1.06,1.06,0,0,0,.43.26,1.29,1.29,0,0,0,.48,0c1.5-.17,3-.33,4.49-.51a.36.36,0,0,1,.25,0,.44.44,0,0,1,.19.19,4.81,4.81,0,0,1,1,2.42,8,8,0,0,1-1.31-1.23,1,1,0,0,0-.22-.18.9.9,0,0,0-.4,0l-5.67.83c.33,0,2.72,5.15,3,5.61.17.3,1.8,0,2.14.1a3.75,3.75,0,0,1-.69,1.52c-.25.36-4.75-1.63-5.44-1.63l8.36,12a.76.76,0,0,0,.23.24.7.7,0,0,0,.32.05h1.42l.47,1.4a1.23,1.23,0,0,1,.08.38,1.28,1.28,0,0,1-.18.47,19.48,19.48,0,0,0-1.37,4,1,1,0,0,1-.14.3c-.3.36-1.67.51-2.11.63a1.77,1.77,0,0,0-.45.18c-1,.72-1.26,1.55-2.69,1.74a31.33,31.33,0,0,1-4.94.06.87.87,0,0,1-.5-.13,1,1,0,0,1-.28-.59,11.42,11.42,0,0,0-4.18-6.72,5.38,5.38,0,0,0-1.7-1c-2-.61-4.65-.38-6.77-.52q.93,5.37,1.87,10.73a97.39,97.39,0,0,0,31,23.5c-1.6,1.65-4,4.08-6.93,7-1.76,1.73-2.65,2.6-3.28,3.13-.93.78-3.74,3-10.5,5.77A53.25,53.25,0,0,1,69,260.12c-6.22,1.25-11.08.73-16.09.4a24.94,24.94,0,0,1-5.08-.83,35.08,35.08,0,0,1-5.6-2.13L35,254.43c-1.61-1.08-3.27-2.23-5-3.47q-2.25-1.65-4.32-3.29a44.59,44.59,0,0,1-4.45-4.24c-1-1.08-1.9-2.18-3.63-4.33-4.21-5.23-4.58-6.08-4.27-6.69s1.4-.73,3.64-1.09a41.28,41.28,0,0,1,4.44-.49c.23-.25,3.83-4.12,3.88-4.59a.58.58,0,0,0,0-.32.7.7,0,0,0-.29-.3l-6.51-4.49c1.33.91,4,.23,5.24-.52a6.52,6.52,0,0,0,3.07-5.31.82.82,0,0,0-.06-.38,1.08,1.08,0,0,0-.3-.34,4.71,4.71,0,0,0-3.54-.84,21.88,21.88,0,0,0,1.81-2.56,11.49,11.49,0,0,0,1.87-3.07,3.12,3.12,0,0,0,0-2.67,3.2,3.2,0,0,0-1.69-1.15c-.52-.19-3.54-.51-3.66-1s1-.43,1.34-.48c.88-.13,1.75-.27,2.61-.47a10.83,10.83,0,0,0,4.77-2.27c.52-.46,1-1,1.46-1.48A16.17,16.17,0,0,1,34.68,196a20.86,20.86,0,0,1-2-2.94,20.13,20.13,0,0,1-1.27-2.65,14.33,14.33,0,0,1,.58-5,14.18,14.18,0,0,1,1.34-3.1l.26,2.6a4.51,4.51,0,0,0,.8,1.14,4.23,4.23,0,0,0,1.53,1,31.77,31.77,0,0,0,3.48.64c.72.09,1.4.15,2.05.2a5.06,5.06,0,0,0,4.13-2,2.86,2.86,0,0,1-.92-.47,3.21,3.21,0,0,1-.94-1.1,5.36,5.36,0,0,0-1.1-1.08A6.12,6.12,0,0,0,40,182.14a9.76,9.76,0,0,1,5.41.16,4.61,4.61,0,0,0,1.27.3,4.47,4.47,0,0,0,1.64-.46,8.35,8.35,0,0,1,4.2-.45c.48.07,1.77.71,2.17.6s.73-1.33.94-1.72a13.14,13.14,0,0,1,.86-1.33,1.68,1.68,0,0,1,.75-.51,1.7,1.7,0,0,1,1,0,1.53,1.53,0,0,0-.5.81,1.67,1.67,0,0,0,0,.94,2.66,2.66,0,0,0,1.22.39,2.36,2.36,0,0,0,1.08-.2,36.91,36.91,0,0,1,.28-4.15c.17-1.48.38-2.81.63-4,1,.82,2.05,1.72,3.1,2.71s2.19,2.14,3.13,3.16a19.63,19.63,0,0,1,6.56.69,5.66,5.66,0,0,0,1.27-.33,6.79,6.79,0,0,0,1.14-.58l.47-1a1.13,1.13,0,0,0-.55-.89,1,1,0,0,0-.83-.05,1.38,1.38,0,0,1,1.91-.36,1.16,1.16,0,0,1,.53.66,1.11,1.11,0,0,1-.06.8Z" transform="translate(0 0)" style="fill:#ff0093"/><g style="isolation:isolate"><text transform="translate(31.28 243.85)" style="isolation:isolate;font-size:8.805890083312988px;font-family:ArialMT, Arial;letter-spacing:-0.0989771644892131em">F</text><text transform="translate(34.8 243.85)" style="isolation:isolate;font-size:8.805890083312988px;font-family:ArialMT, Arial">AI</text><text transform="translate(42.04 243.85)" style="isolation:isolate;font-size:8.805890083312988px;font-family:ArialMT, Arial;letter-spacing:-0.029000031948380082em">R</text><text transform="translate(46.28 243.85)" style="isolation:isolate;font-size:8.805890083312988px;font-family:ArialMT, Arial"><tspan style="letter-spacing:-0.018076501749850683em">Y</tspan><tspan x="5.71" y="0"> </tspan></text><text transform="translate(53.29 243.85)" style="isolation:isolate;font-size:8.805890083312988px;font-family:ArialMT, Arial;letter-spacing:-0.1070727757023364em">T</text><text transform="translate(56.54 243.85)" style="isolation:isolate;font-size:8.805890083312988px;font-family:ArialMT, Arial;letter-spacing:-0.055172144911354075em">A</text><text transform="translate(61.7 243.85)" style="isolation:isolate;font-size:8.805890083312988px;font-family:ArialMT, Arial;letter-spacing:-0.05711287362682884em">L</text><text transform="translate(65.84 243.85)" style="isolation:isolate;font-size:8.805890083312988px;font-family:ArialMT, Arial">E<tspan x="5.87" y="0" xml:space="preserve" style="letter-spacing:-0.05522759430322478em"> A</tspan></text><text transform="translate(77.6 243.85)" style="isolation:isolate;font-size:8.805890083312988px;font-family:ArialMT, Arial;letter-spacing:-0.05611478457315611em">L</text><text transform="translate(81.74 243.85)" style="isolation:isolate;font-size:8.805890083312988px;font-family:ArialMT, Arial">E</text></g></g><g id="label-3"><circle id="brand-3" cx="59.33" cy="206.55" r="55" style="fill:#7b7160"/><text transform="translate(44.41 248.25)" style="isolation:isolate;font-size:4.402949810028076px;font-family:Montserrat-Regular, Montserrat">VENOM ALE</text><text transform="translate(46.37 240.67)" style="isolation:isolate;font-size:8.805890083312988px;font-family:ArialMT, Arial">GITHO<tspan x="27.88" y="0" style="letter-spacing:-0.018076501749850683em">P</tspan></text><path d="M52.7,172.27a6.93,6.93,0,0,1,.26,1.5,7.32,7.32,0,0,1-.26,2.33A16.52,16.52,0,0,1,50,180.75a1,1,0,0,1-.85-.15,1.07,1.07,0,0,1-.31-.39,7.55,7.55,0,0,1-.56-1.66,7.94,7.94,0,0,1-.19-2v-2a6.59,6.59,0,0,1,.49-2,6.87,6.87,0,0,1,1.83-2.5,10.26,10.26,0,0,1,6.69-5.2,14,14,0,0,1,7.25,1.64,11.42,11.42,0,0,1,3.3,3.34,11.12,11.12,0,0,1,1.36,3,13.67,13.67,0,0,1,0,9.23,28.25,28.25,0,0,1-2.28,4,28.59,28.59,0,0,1-3.06,3.71c-.87.67-1.82,1.36-2.84,2A44.52,44.52,0,0,1,56,194.56a28.41,28.41,0,0,0-7.18,8.32,13.76,13.76,0,0,0-.92,4.24,13.31,13.31,0,0,0,.17,3.15,14.46,14.46,0,0,0,2.55,3.37,14.2,14.2,0,0,0,2.78,2.1,15.76,15.76,0,0,0,3.58.82,16.33,16.33,0,0,0,4.36-.13,9,9,0,0,0,4.93-3.7,8.61,8.61,0,0,0,1.08-2.84,8.4,8.4,0,0,0,0-3,7.67,7.67,0,0,0-.68-2.71,8,8,0,0,0-1.92-2.63,8.77,8.77,0,0,0-2.49-1.37,9.24,9.24,0,0,0-3.34-.53,7.65,7.65,0,0,0-2.41.48A7.84,7.84,0,0,0,53.63,202l-1.51,1.91a5.53,5.53,0,0,1,1.51-4.79,8.12,8.12,0,0,1,6.43-3.55,8.74,8.74,0,0,1,5.75,1.74,14.75,14.75,0,0,1,4.92,5.37,15,15,0,0,1,0,10.47A12.17,12.17,0,0,1,69,216.19a12,12,0,0,1-2.51,2.46,22.63,22.63,0,0,1-2.72,1.19A21.3,21.3,0,0,1,58.57,221a17.67,17.67,0,0,1-8.23-1.07,16.56,16.56,0,0,1-6.43-7.67,14.85,14.85,0,0,1-.68-7.52,17.16,17.16,0,0,1,.92-3.39,17.38,17.38,0,0,1,2.22-4,40,40,0,0,1,3.17-3.71c.91-.94,1.86-1.84,2.86-2.69a24.67,24.67,0,0,1,2.22-1.57,26,26,0,0,1,3.8-2l4.79-4.52a12.93,12.93,0,0,0,1.16-3.35,13.17,13.17,0,0,0,.26-2.42,9.29,9.29,0,0,0-2.11-6.14,7,7,0,0,0-2.1-1.45,6.83,6.83,0,0,0-1.59-.5,5.32,5.32,0,0,0-3,.4,5,5,0,0,0-1.74,1.28Z" transform="translate(0 0)" style="fill:#7c201c"/></g><g id="label-4"><circle id="brand-4" cx="59.33" cy="206.55" r="55" style="fill:#b3703d"/><path d="M60.41,157.26a38.28,38.28,0,0,1,8.66,1.05c7.6,1.82,14.7,6.86,17.61,14.12,1.76,4.38,1.89,9.18,1.7,13.84-.19,4.91-.09,9.83-.09,14.76v15.86c0,5,.75,10.57,0,15.47a20.94,20.94,0,0,1-14,16.63A38.74,38.74,0,0,1,46,249a21.9,21.9,0,0,1-13.62-17.12c-.44-2.83,0-6.08,0-8.94V194.08c-.06-16-.31-18.93,2-23.28a24.25,24.25,0,0,1,6.28-7.42C48.15,157.26,57,157.22,60.41,157.26Z" transform="translate(0 0)" style="fill:#fff"/><path d="M60.41,159.46a37.54,37.54,0,0,1,8.25,1c7.25,1.74,14,6.55,16.79,13.46,1.67,4.18,1.8,8.76,1.62,13.2-.18,4.68-.08,9.37-.08,14.07v15.12c0,4.73.71,10.08,0,14.74a19.89,19.89,0,0,1-13.3,15.86,36.84,36.84,0,0,1-27,0,20.91,20.91,0,0,1-13-16.36c-.42-2.69,0-5.8,0-8.52v-27.5c-.06-15.24-.3-18,1.94-22.2a23.49,23.49,0,0,1,6-7.08C48.72,159.46,57.13,159.43,60.41,159.46Z" transform="translate(0 0)" style="fill:#683d1f"/><polygon points="33.4 212.05 21.11 212.05 23.07 218.74 21.11 225.42 33.47 225.42 33.4 212.05" style="fill:#fffffe"/><polygon points="87.22 212.05 99.52 212.05 97.56 218.74 99.52 225.42 87.15 225.42 87.22 212.05" style="fill:#fffffe"/><polygon points="87.39 213.27 97.59 213.27 95.97 218.82 97.59 224.36 87.34 224.36 87.39 213.27" style="fill:#dc2a26"/><polygon points="32.96 213.27 22.76 213.27 24.38 218.82 22.76 224.36 33.01 224.36 32.96 213.27" style="fill:#dc2a26"/><path d="M50.68,174.84,52.09,183l11,1.06,1.45-7.95Z" transform="translate(0 0)" style="fill:#e3bf9a"/><path d="M66.48,176.28l1.63,9.48,9.54-1.35,1.47-10Z" transform="translate(0 0)" style="fill:#e3bf9a"/><path d="M50.91,160.55a46,46,0,0,1-2,9.06,46.48,46.48,0,0,1-2,5.1l18.75,1.47a36.78,36.78,0,0,0,9.14,0,20.78,20.78,0,0,0,4.36-1.74,19.82,19.82,0,0,0,2.65-1.69L79.33,169l-1.41-4.36a30.29,30.29,0,0,0-5.27-2.81,33.08,33.08,0,0,0-9.14-2.25,37.55,37.55,0,0,0-6-.08A36.74,36.74,0,0,0,50.91,160.55Z" transform="translate(0 0)" style="fill:#dc2a26"/><path d="M52.09,182.7v6.73a14.21,14.21,0,0,1-1.47,4.89,23.59,23.59,0,0,0-2,2,25.9,25.9,0,0,0-2,2.65c-.44.94-.88,1.92-1.3,2.93-1.3,3.12-1.69,4.67-2.45,6.81-1.84,5.21-4.91,11.1-4.82,13.9,0,.58.07,1.2.07,1.2a29.49,29.49,0,0,0,.43,3.25,9.66,9.66,0,0,0,.78,3.26,9.2,9.2,0,0,0,1,1.75c.25.11.62.29,1.06.53.86.48.88.62,1.29.79a3.18,3.18,0,0,0,2.35-.1,3.34,3.34,0,0,0,1.29-1c-.61-1-1.07-1.94-1.41-2.63a17.68,17.68,0,0,1-1.57-4.35,9.93,9.93,0,0,1-.16-1.22l10-17.49,4.4-7.7a23.78,23.78,0,0,0,2-2.14,24.36,24.36,0,0,0,1.51-2l.28-2.16c.06-.29.15-.72.27-1.24.42-1.89.7-2.86.91-3.78a27.74,27.74,0,0,0,.62-4Z" transform="translate(0 0)" style="fill:#a8d1d8"/><path d="M77.65,184.41c.17.29,0,.55,0,3.73a9.69,9.69,0,0,0,0,1.32,32.3,32.3,0,0,0,.37,4.16,4,4,0,0,0,.24.69A10.19,10.19,0,0,1,79,195.9a13.29,13.29,0,0,0,.58,1.75l.85,2.34a15.58,15.58,0,0,1,.45,1.91,14.76,14.76,0,0,1,.2,2.57v4.4l1.15,14.19.36,2.05.12.72a29.57,29.57,0,0,1-.24,4.41c-.13,1-.3,1.89-.49,2.73a2.08,2.08,0,0,1-.61.57,2,2,0,0,1-1.16.28,13.24,13.24,0,0,1-4.26,0,1.53,1.53,0,0,1-.37-1.14,1.38,1.38,0,0,1,.25-.55c.19-.32.46-.77.77-1.36l1.55-5.34-5-18.11c-.39-1.37-.76-2.84-1.1-4.4-.4-1.89-.71-3.69-.93-5.38a11,11,0,0,1-.94-1.67,10.8,10.8,0,0,1-.69-2.08c-.24-.83-.46-1.71-.66-2.65a37.34,37.34,0,0,1-.69-5.38C75.33,183.37,77.24,183.71,77.65,184.41Z" transform="translate(0 0)" style="fill:#a8d1d8"/><path d="M38,222.65a3.81,3.81,0,0,0-.92,1,3.92,3.92,0,0,0-.56,1.76l.74,3.13.74,7.71h.48v-6L39,234c.07.44.19.87.24,1.31a2.23,2.23,0,0,0,.39,1.39,2.83,2.83,0,0,0,.71.47,9.93,9.93,0,0,0,5.72.72,2,2,0,0,0,.54-.14,1.45,1.45,0,0,0,.4-.38,3.23,3.23,0,0,0,.69-2.13l-1.47-2.87a3.86,3.86,0,0,1-4.13.51,14.32,14.32,0,0,1-1.5-1.8,13,13,0,0,1-1.4-2.57Z" transform="translate(0 0)" style="fill:#2e2b2c"/><path d="M82.66,225.83a6.36,6.36,0,0,1,1.11,2.11l-.56,7.65h-.55V231.8l-.48,4.46-.92,1.9a13.53,13.53,0,0,1-2.69.24,18.29,18.29,0,0,1-2.67-.26.8.8,0,0,1-.34-.11.63.63,0,0,1-.21-.36c-.32-1.27-1.11-2.42-.67-4a1.51,1.51,0,0,1,.55-1c.32-.19.92.1,1.69.31a5.6,5.6,0,0,0,2.23.12l1.56-.43a12.67,12.67,0,0,0,2-6.83Z" transform="translate(0 0)" style="fill:#2e2b2c"/><rect x="28.61" y="208.87" width="63.11" height="13.78" style="fill:#fff"/><rect x="29.75" y="209.77" width="60.66" height="11.9" style="fill:#dc2a26"/><g style="isolation:isolate"><text transform="translate(40.99 219.06)" style="isolation:isolate;font-size:8.805890083312988px;fill:#fff;font-family:ArialMT, Arial">HO</text><text transform="translate(49.8 219.06)" style="isolation:isolate;font-size:8.805890083312988px;fill:#fff;font-family:ArialMT, Arial;letter-spacing:-0.04613389403642874em">L</text><text transform="translate(54.02 219.06)" style="isolation:isolate;font-size:8.805890083312988px;fill:#fff;font-family:ArialMT, Arial;letter-spacing:-0.05711287362682884em">L</text><text transform="translate(58.16 219.06)" style="isolation:isolate;font-size:8.805890083312988px;fill:#fff;font-family:ArialMT, Arial;letter-spacing:-0.055172144911354075em">A</text><text transform="translate(63.32 219.06)" style="isolation:isolate;font-size:8.805890083312988px;fill:#fff;font-family:ArialMT, Arial;letter-spacing:-0.02001723046532545em">B<tspan x="5.7" y="0" style="letter-spacing:-0.07518937537667952em">A</tspan></text><text transform="translate(72.54 219.06)" style="isolation:isolate;font-size:8.805890083312988px;fill:#fff;font-family:ArialMT, Arial">CK</text></g></g><g id="label-5"><circle id="brand-5" cx="59.33" cy="206.55" r="55" style="fill:#99b755"/><path d="M46.55,183a19.26,19.26,0,1,0,19.26,19.26A19.26,19.26,0,0,0,46.55,183Zm0,35.08a15.82,15.82,0,1,1,15.78-15.86v0A15.82,15.82,0,0,1,46.55,218.1Z" transform="translate(0 0)" style="fill:#ffce54"/><path d="M74.07,183a19.2,19.2,0,0,0-13.74,5.78,19.49,19.49,0,0,1,2.19,2.69,15.85,15.85,0,1,1-2.19,3,16.18,16.18,0,0,0-2.2-3,19.26,19.26,0,1,0,16-8.46Z" transform="translate(0 0)" style="fill:#f6bb42"/><path id="SVGCleanerId_0" data-name="SVGCleanerId 0" d="M58.12,213.08a15.8,15.8,0,1,1,2.19-3,15.69,15.69,0,0,0,2.19,3,19.25,19.25,0,1,0-2.19,2.68A18.83,18.83,0,0,1,58.12,213.08Z" transform="translate(0 0)" style="fill:#ffce54"/><path id="SVGCleanerId_0-2" data-name="SVGCleanerId 0-2" d="M58.12,213.08a15.8,15.8,0,1,1,2.19-3,15.69,15.69,0,0,0,2.19,3,19.25,19.25,0,1,0-2.19,2.68A18.83,18.83,0,0,1,58.12,213.08Z" transform="translate(0 0)" style="fill:#ffce54"/><path d="M68.33,164.55a5.65,5.65,0,0,0-8,0h0a5.66,5.66,0,0,0-8,8l7.24,7.24h0a1,1,0,0,0,.73.31,1.06,1.06,0,0,0,.73-.3h0l7.3-7.25a5.65,5.65,0,0,0,0-8Z" transform="translate(0 0)" style="fill:#ed5565"/><g style="isolation:isolate"><text transform="translate(24.35 236.27)" style="isolation:isolate;font-size:8.805890083312988px;font-family:ArialMT, Arial">HOPPI</text><text transform="translate(44.04 236.27)" style="isolation:isolate;font-size:8.805890083312988px;font-family:ArialMT, Arial;letter-spacing:-0.17710535763504012em">L</text><text transform="translate(47.12 236.27)" style="isolation:isolate;font-size:8.805890083312988px;font-family:ArialMT, Arial"><tspan style="letter-spacing:-0.018076501749850683em">Y</tspan><tspan x="5.71" y="0" xml:space="preserve"> EV</tspan></text><text transform="translate(63.31 236.27)" style="isolation:isolate;font-size:8.805890083312988px;font-family:ArialMT, Arial;letter-spacing:-0.008982801483054633em">E</text><text transform="translate(67.61 236.27)" style="isolation:isolate;font-size:8.805890083312988px;font-family:ArialMT, Arial">R<tspan x="6.36" y="0" style="letter-spacing:-0.05522759430322478em"> </tspan><tspan x="8.32" y="0">AF</tspan></text><text transform="translate(83.88 236.27)" style="isolation:isolate;font-size:8.805890083312988px;font-family:ArialMT, Arial;letter-spacing:-0.008982801483054633em">TE</text><text transform="translate(92.15 236.27)" style="isolation:isolate;font-size:8.805890083312988px;font-family:ArialMT, Arial">R</text></g><text transform="translate(44.41 246.54)" style="isolation:isolate;font-size:5.870599746704102px;font-family:Montserrat-Regular, Montserrat">belgian ipa</text></g><g id="label-6"><circle id="bg" cx="59.33" cy="206.55" r="55" style="fill:#1aa2e1"/><path d="M83.79,185.11v-.73L78.51,178l-8.42-3.15L61.68,178l-5.29,6.34v6.23H45.63V186.7h.13a3.34,3.34,0,0,0,3.32-3.34,3.79,3.79,0,0,0,0-.58l-1.11-6.07a3.33,3.33,0,0,0-6.54,0l-1.1,6.07A3.33,3.33,0,0,0,43,186.64a2.86,2.86,0,0,0,.58.06h.12v3.91H36.83v-7a4.9,4.9,0,0,0,3.91-4.79V172A4.89,4.89,0,1,0,31,172v6.85a4.89,4.89,0,0,0,3.91,4.79v7H31v35.22h58.7V188.05Zm-25.44,0,4.5-5.4L70.09,177l7.24,2.71,4.5,5.4v5.52H75v-5.87H65.2v5.87H58.33ZM73,186.72v3.91H71v-3.91Zm-3.92,0v3.91h-2v-3.91Zm-25.56-2a1.36,1.36,0,0,1-1.36-1.36v0a.89.89,0,0,1,0-.23l1.1-6.07A1.37,1.37,0,0,1,46,177l1.1,6.07A1.38,1.38,0,0,1,46,184.7h-.36v-2h-2v2Zm-10.64-5.87V172a2.94,2.94,0,1,1,5.87-.34,1.93,1.93,0,0,1,0,.34v6.85a2.91,2.91,0,0,1-2,2.75v-3.73h-2v3.73a2.93,2.93,0,0,1-1.92-2.73Zm0,13.7h13.3l-13.3,13.29Zm0,16.06L49,192.55h.74l-16.8,26Zm0,15.25v-1.67L52,192.55h1L41,223.86Zm10.23,0,12-31.31h1.1l-5.53,31.31Zm16.19,0H52.67l5.52-31.31h1.14Zm2,0V192.55h1.13L68,223.86Zm8.65,0-5.57-31.31h1.1l12,31.31Zm17.76,0H79.61l-12-31.31h1l19.12,29.64Zm0-5.28L71,192.58h.73l16.06,16.06Zm0-12.74L74.41,192.55H87.7Zm0-15.25H83.83v-3.31l3.91,2Z" transform="translate(0 0)" style="fill:#e7bb40"/><rect x="69.16" y="179.84" width="1.96" height="1.96" style="fill:#e7bb40"/><path d="M56,167.13a4.4,4.4,0,1,0,4.38,4.42A4.4,4.4,0,0,0,56,167.13ZM56,174a2.45,2.45,0,1,1,2.44-2.46h0A2.45,2.45,0,0,1,56,174Z" transform="translate(0 0)" style="fill:#e7bb40"/><g style="isolation:isolate"><text transform="translate(40.3 239.22)" style="isolation:isolate;font-size:8.805890083312988px;font-family:ArialMT, Arial">M</text><text transform="translate(46.2 239.22)" style="isolation:isolate;font-size:8.805890083312988px;font-family:ArialMT, Arial;letter-spacing:-0.02001723046532545em">OW</text><text transform="translate(56.95 239.22)" style="isolation:isolate;font-size:8.805890083312988px;font-family:ArialMT, Arial">INTIME</text></g><text transform="translate(50.38 248.25)" style="isolation:isolate;font-size:5.870599746704102px;font-family:Montserrat-Regular, Montserrat">pilsner</text></g><circle id="label-7" cx="59.33" cy="206.55" r="55" style="fill:#25871f"/><circle id="label-8" cx="59.33" cy="206.55" r="55" style="fill:#c42754"/><circle id="label-9" cx="59.33" cy="206.55" r="55" style="fill:#e8dd18"/><circle id="label-10" cx="59.33" cy="206.55" r="55" style="fill:#1abae5"/><rect id="short" x="54.5" y="121.55" width="9.33" height="16" style="fill:#93a4ae"/><path id="tap" d="M79.61,311.87H34.94a50.58,50.58,0,0,1,1.51-13.2c.2-.77.41-1.52.63-2.24a109.94,109.94,0,0,1,39.87.12c.31.72.61,1.46.88,2.25A34.13,34.13,0,0,1,79.61,311.87Z" transform="translate(0 0)" style="fill:#3d4b50"/></g><g id="hand"><path id="handle" d="M35.8,2.82,49.48,129.55l18.57-.29L78.75.6A154.68,154.68,0,0,0,35.8,2.82Z" transform="translate(0 0)" style="fill:#232b2e"/></g></svg>