<svg id="keg" xmlns="http://www.w3.org/2000/svg" viewBox="0 0 118.33 311.87"><title>parentkeg</title><rect id="top" x="40.17" y="137.55" width="38" height="16.67" style="fill:#f4f7dc"/><path id="long-tap" d="M309.49,559.33H278.4c.39-5.89.62-12.18.6-18.83,0-6-.24-11.77-.6-17.17h31.09c-.39,5.72-.62,11.83-.61,18.29C308.88,547.87,309.11,553.78,309.49,559.33Z" transform="translate(-236.67 -262.45)" style="fill:#f4f7dc"/><circle id="circle" cx="59.17" cy="206.71" r="59.17" style="fill:#3d4b50"/><circle id="brand" cx="59.33" cy="206.55" r="55" style="fill:#bcb8b1"/><g id="label"><circle id="brand-2" data-name="brand" cx="59.33" cy="206.55" r="55" style="fill:#fbc333"/><text transform="translate(44.41 248.25)" style="font-size:5.136769771575928px;font-family:Montserrat-Regular, Montserrat">h<tspan x="3.32" y="0" style="letter-spacing:-0.003992395760496066em">e</tspan><tspan x="6.47" y="0">feweiser</tspan></text><text transform="translate(40.25 240.67)" style="font-size:11.741189956665039px;font-family:Norwester-Regular, Norwester">EL HEFE</text><path d="M321.11,490.16a37.32,37.32,0,0,0-2.85-7c-.56-1.06-1.14-2-1.71-2.92a15.91,15.91,0,0,0-1.72-1.49,15.53,15.53,0,0,0-3-1.77c.07-1.62.16-3.25.26-4.89,0-.64.08-1.27.13-1.9a13.66,13.66,0,0,0-2.68.22c-.9.17-1.81.68-2.69.76a29.38,29.38,0,0,0,.07-4.2c-.07-1.23.81-2,1.32-3.08a56.17,56.17,0,0,0,2.28-5.34c1.14-2.28,2.29-4.56,3.43-6.85l5.36-3,1.71-1c1.11-.68,4.33-2.84,5.14-6.67a8.68,8.68,0,0,0,.18-2c0,.21-1.38.87-1.57,1a16.38,16.38,0,0,1-2,1,17.71,17.71,0,0,1-5,1.16.34.34,0,0,1-.2,0,.35.35,0,0,1-.12-.17c-.43-1.06-.86-2.13-1.28-3.2q-1.54-3.9-2.86-7.68a14.52,14.52,0,0,0-1-3.36,14.93,14.93,0,0,0-1.16-2.18,10.15,10.15,0,0,0-13.5.9,15.48,15.48,0,0,0-2.4,2.63,15.78,15.78,0,0,0-2.37,4.79,10.46,10.46,0,0,0-3.5-1.74,10.27,10.27,0,0,0-2.86-.38,8.9,8.9,0,0,0-6.85,7.33,16.63,16.63,0,0,0,4.41,9.3l6.95,6.5a24.67,24.67,0,0,1-.25,7.83,23.87,23.87,0,0,1-1,3.61q-2,2.28-3.95,4.57a1.18,1.18,0,0,1-.26.24.94.94,0,0,1-.33.08,40.1,40.1,0,0,0-7.36,1.53,28.42,28.42,0,0,0-6.73,3.06,6.38,6.38,0,0,0-2.16,3.26,45.17,45.17,0,0,0-1.66,5.05c-.13.47-1.24,6.18-1.19,6.18Z" transform="translate(-236.67 -262.45)" style="fill:#351d02"/></g><g id="label-2" data-name="label"><g id="Rainbow"><circle id="circle-2" data-name="circle" cx="59.33" cy="206.55" r="55" style="fill:#bd2233"/><circle id="circle-3" data-name="circle" cx="59.33" cy="207.84" r="52.24" style="fill:#f59332"/><ellipse id="circle-4" data-name="circle" cx="59.58" cy="209.81" rx="50.24" ry="48.99" style="fill:#fef035"/><ellipse id="circle-5" data-name="circle" cx="59.33" cy="211.83" rx="48.16" ry="46.96" style="fill:#17a453"/><ellipse id="circle-6" data-name="circle" cx="59.83" cy="212.98" rx="46.09" ry="43.37" style="fill:#1dafec"/><ellipse id="circle-7" data-name="circle" cx="59.68" cy="217.21" rx="45" ry="43.88" style="fill:#fff"/></g><path d="M328.35,433.12l-12.69,12.69c.06-.06,3.83,3.1,4.16,3.37a1.06,1.06,0,0,0,.43.26,1.11,1.11,0,0,0,.48,0c1.5-.17,3-.33,4.49-.51a.42.42,0,0,1,.25,0,.44.44,0,0,1,.19.19,4.76,4.76,0,0,1,1,2.42,8.45,8.45,0,0,1-1.31-1.23.92.92,0,0,0-.22-.18.78.78,0,0,0-.4,0l-5.67.83c.33-.05,2.72,5.15,3,5.61.17.3,1.8,0,2.14.1a3.81,3.81,0,0,1-.69,1.52c-.25.36-4.75-1.63-5.44-1.63q4.19,6,8.36,12a.75.75,0,0,0,.23.24.68.68,0,0,0,.32.05h1.42l.47,1.4a1.23,1.23,0,0,1,.08.38,1.18,1.18,0,0,1-.18.47,19.23,19.23,0,0,0-1.37,4,1.17,1.17,0,0,1-.14.3c-.3.36-1.67.51-2.11.63a1.63,1.63,0,0,0-.45.18c-1,.72-1.26,1.55-2.69,1.74a31.34,31.34,0,0,1-4.94.06.87.87,0,0,1-.5-.13.94.94,0,0,1-.28-.59,11.45,11.45,0,0,0-4.18-6.72,5.49,5.49,0,0,0-1.7-.95c-2-.61-4.65-.38-6.77-.52q.93,5.37,1.87,10.73a97.31,97.31,0,0,0,31,23.5c-1.6,1.65-4,4.08-6.93,7-1.76,1.73-2.65,2.6-3.28,3.13-.93.78-3.74,3-10.5,5.77a52.75,52.75,0,0,1-10.16,3.34c-6.22,1.25-11.08.73-16.09.4a25.53,25.53,0,0,1-5.08-.83,35.19,35.19,0,0,1-5.6-2.13l-7.24-3.13c-1.61-1.08-3.27-2.23-5-3.47q-2.25-1.65-4.32-3.29a45,45,0,0,1-4.45-4.24c-1-1.08-1.9-2.18-3.63-4.33-4.21-5.23-4.58-6.08-4.27-6.69s1.4-.73,3.64-1.09a40.8,40.8,0,0,1,4.44-.49c.23-.25,3.83-4.12,3.88-4.59a.58.58,0,0,0,0-.32.7.7,0,0,0-.29-.3l-6.51-4.49c1.33.91,4,.23,5.24-.52a6.52,6.52,0,0,0,3.07-5.31.82.82,0,0,0-.06-.38,1,1,0,0,0-.3-.34,4.7,4.7,0,0,0-3.54-.84,22.15,22.15,0,0,0,1.81-2.56,11.49,11.49,0,0,0,1.87-3.07,3.12,3.12,0,0,0,0-2.67,3.2,3.2,0,0,0-1.69-1.15c-.52-.19-3.54-.51-3.66-1s1-.43,1.34-.48c.88-.13,1.75-.27,2.61-.47a10.78,10.78,0,0,0,4.77-2.27c.52-.46,1-1,1.46-1.48a16.17,16.17,0,0,1,3.31-2.63,21.15,21.15,0,0,1-2-2.94,20.14,20.14,0,0,1-1.27-2.65,14.34,14.34,0,0,1,.58-5,14.56,14.56,0,0,1,1.34-3.1l.26,2.6a4.44,4.44,0,0,0,.8,1.14,4.23,4.23,0,0,0,1.53,1,30.59,30.59,0,0,0,3.48.64c.72.09,1.4.15,2.05.2a5.07,5.07,0,0,0,4.13-2,2.76,2.76,0,0,1-.92-.47,3.16,3.16,0,0,1-.94-1.1,5.38,5.38,0,0,0-1.1-1.08,6.12,6.12,0,0,0-2.63-1.06,9.76,9.76,0,0,1,5.41.16,4.35,4.35,0,0,0,1.27.3,4.44,4.44,0,0,0,1.64-.46,8.35,8.35,0,0,1,4.2-.45c.48.07,1.77.71,2.17.6s.73-1.33.94-1.72a12.34,12.34,0,0,1,.86-1.33,1.62,1.62,0,0,1,.75-.51,1.65,1.65,0,0,1,1,0,1.54,1.54,0,0,0-.5.81,1.61,1.61,0,0,0,0,.94,2.61,2.61,0,0,0,1.22.39,2.45,2.45,0,0,0,1.08-.2c0-1.28.11-2.67.28-4.15s.38-2.81.63-4c1,.82,2.05,1.72,3.1,2.71s2.19,2.14,3.13,3.16a19.67,19.67,0,0,1,6.56.69,6.13,6.13,0,0,0,1.27-.33,6.64,6.64,0,0,0,1.14-.58l.47-1a1.12,1.12,0,0,0-.55-.89,1,1,0,0,0-.83-.05,1.39,1.39,0,0,1,.91-.58,1.36,1.36,0,0,1,1,.22,1.14,1.14,0,0,1,.53.66,1.11,1.11,0,0,1-.06.8Z" transform="translate(-236.67 -262.45)" style="fill:#ff0093"/><text transform="translate(31.28 243.85)" style="font-size:8.805890083312988px;font-family:Norwester-Regular, Norwester"><tspan style="letter-spacing:-0.09997625466314222em">F</tspan><tspan x="3.52" y="0">AI</tspan><tspan x="10.76" y="0" style="letter-spacing:-0.029998421393654988em">R</tspan><tspan x="15" y="0">Y </tspan><tspan x="22.01" y="0" style="letter-spacing:-0.08999526418096496em">T</tspan><tspan x="25.26" y="0">A</tspan><tspan x="30.42" y="0" style="letter-spacing:-0.020017430911477726em">L</tspan><tspan x="34.56" y="0" style="letter-spacing:0.000055449947123206994em">E A</tspan><tspan x="46.32" y="0" style="letter-spacing:-0.01996198096435452em">L</tspan><tspan x="50.46" y="0" style="letter-spacing:0.00011089989424641399em">E</tspan></text></g><g id="label-3" data-name="label"><circle id="brand-3" data-name="brand" cx="59.33" cy="206.55" r="55" style="fill:#7b7160"/><text transform="translate(44.41 248.25)" style="font-size:4.402949810028076px;font-family:Montserrat-Regular, Montserrat">VENOM ALE</text><text transform="translate(46.37 240.67)" style="font-size:8.805890083312988px;font-family:Norwester-Regular, Norwester">GITHOP</text><path d="M289.37,434.72a7,7,0,0,1,.26,1.5,7.11,7.11,0,0,1-.26,2.33,16.55,16.55,0,0,1-2.74,4.65,1,1,0,0,1-.85-.15,1,1,0,0,1-.31-.39,7.82,7.82,0,0,1-.56-1.66,8,8,0,0,1-.19-2v-2a6.49,6.49,0,0,1,.49-2,6.93,6.93,0,0,1,1.83-2.5,10.39,10.39,0,0,1,2.69-3.25,10.27,10.27,0,0,1,4-1.95,13.91,13.91,0,0,1,7.25,1.64,11.37,11.37,0,0,1,3.3,3.34,11.23,11.23,0,0,1,1.36,3,13.66,13.66,0,0,1,0,9.23,28.41,28.41,0,0,1-2.28,4,28,28,0,0,1-3.06,3.71c-.87.67-1.82,1.36-2.84,2a45,45,0,0,1-4.83,2.79,28.36,28.36,0,0,0-3.84,3.63,27.77,27.77,0,0,0-3.34,4.69,13.93,13.93,0,0,0-.92,4.24,13.21,13.21,0,0,0,.17,3.15,14.14,14.14,0,0,0,2.55,3.37,14.33,14.33,0,0,0,2.78,2.1,15.46,15.46,0,0,0,3.58.82,16.14,16.14,0,0,0,4.36-.13,9.39,9.39,0,0,0,2.57-1.25,9.14,9.14,0,0,0,2.36-2.45,8.62,8.62,0,0,0,1.08-2.84,8.47,8.47,0,0,0,0-3,7.75,7.75,0,0,0-.68-2.71,8,8,0,0,0-1.92-2.63,9,9,0,0,0-2.49-1.37,9.18,9.18,0,0,0-3.34-.53,7.76,7.76,0,0,0-2.41.48,7.9,7.9,0,0,0-2.84,1.83l-1.51,1.91a5.55,5.55,0,0,1,1.51-4.79,8.12,8.12,0,0,1,6.43-3.55,8.72,8.72,0,0,1,5.75,1.74,14.71,14.71,0,0,1,4.92,5.37,15,15,0,0,1,0,10.47,12,12,0,0,1-1.69,3.08,11.8,11.8,0,0,1-2.51,2.46,22.77,22.77,0,0,1-2.72,1.19,21.34,21.34,0,0,1-5.24,1.12,17.11,17.11,0,0,1-3.8,0,17.62,17.62,0,0,1-4.43-1.07,16.61,16.61,0,0,1-6.43-7.67,15.2,15.2,0,0,1-.84-3.88,15,15,0,0,1,.16-3.64,16.9,16.9,0,0,1,.92-3.39,17.33,17.33,0,0,1,2.22-4,39.19,39.19,0,0,1,3.17-3.71,38.39,38.39,0,0,1,2.86-2.69,25.71,25.71,0,0,1,2.22-1.57,25,25,0,0,1,3.8-2l4.79-4.52a13.2,13.2,0,0,0,1.16-3.35,13.43,13.43,0,0,0,.26-2.42,9.3,9.3,0,0,0-2.11-6.14,7.06,7.06,0,0,0-2.1-1.45,6.63,6.63,0,0,0-1.59-.5,5.26,5.26,0,0,0-3,.4,5.05,5.05,0,0,0-1.74,1.28Z" transform="translate(-236.67 -262.45)" style="fill:#7c201c"/></g><g id="label-4" data-name="label"><circle id="brand-4" data-name="brand" cx="59.33" cy="206.55" r="55" style="fill:#b3703d"/><path d="M297.08,419.71a38.67,38.67,0,0,1,8.66,1.05c7.6,1.82,14.7,6.86,17.61,14.12,1.76,4.38,1.89,9.18,1.7,13.84-.19,4.91-.09,9.83-.09,14.76v15.86c0,5,.75,10.57,0,15.47A20.92,20.92,0,0,1,311,511.44a38.76,38.76,0,0,1-28.38,0A21.9,21.9,0,0,1,269,494.32c-.44-2.83,0-6.08,0-8.94v-9.75c0-6.37,0-12.73,0-19.1-.06-16-.31-18.93,2-23.28a24.28,24.28,0,0,1,6.28-7.42C284.82,419.71,293.64,419.67,297.08,419.71Z" transform="translate(-236.67 -262.45)" style="fill:#fff"/><path d="M297.08,421.91a37.42,37.42,0,0,1,8.25,1c7.25,1.74,14,6.55,16.79,13.46,1.67,4.18,1.8,8.76,1.62,13.2-.18,4.68-.08,9.37-.08,14.07v15.12c0,4.73.71,10.08,0,14.74a19.9,19.9,0,0,1-13.3,15.86,36.86,36.86,0,0,1-27.05,0A20.9,20.9,0,0,1,270.26,493c-.42-2.69,0-5.8,0-8.52v-9.3c0-6.07,0-12.14,0-18.2-.06-15.24-.3-18,1.94-22.2a23.37,23.37,0,0,1,6-7.08C285.39,421.91,293.8,421.88,297.08,421.91Z" transform="translate(-236.67 -262.45)" style="fill:#683d1f"/><polygon points="33.4 212.05 21.11 212.05 23.07 218.74 21.11 225.42 33.47 225.42 33.4 212.05" style="fill:#fffffe"/><polygon points="87.22 212.05 99.52 212.05 97.56 218.74 99.52 225.42 87.15 225.42 87.22 212.05" style="fill:#fffffe"/><polygon points="87.39 213.27 97.59 213.27 95.97 218.82 97.59 224.36 87.34 224.36 87.39 213.27" style="fill:#dc2a26"/><polygon points="32.96 213.27 22.76 213.27 24.38 218.82 22.76 224.36 33.01 224.36 32.96 213.27" style="fill:#dc2a26"/><path d="M287.35,437.29l1.41,8.14,11,1.06,1.45-7.95Z" transform="translate(-236.67 -262.45)" style="fill:#e3bf9a"/><path d="M303.15,438.73l1.63,9.48,9.54-1.35,1.47-10Z" transform="translate(-236.67 -262.45)" style="fill:#e3bf9a"/><path d="M287.58,423a45.47,45.47,0,0,1-2,9.06,46.64,46.64,0,0,1-2,5.1l18.75,1.47a36.78,36.78,0,0,0,9.14,0,20.6,20.6,0,0,0,4.36-1.74,20,20,0,0,0,2.65-1.69L316,431.45l-1.41-4.36a30.44,30.44,0,0,0-5.27-2.81,33.12,33.12,0,0,0-9.14-2.25,37.52,37.52,0,0,0-6-.08A36.61,36.61,0,0,0,287.58,423Z" transform="translate(-236.67 -262.45)" style="fill:#dc2a26"/><path d="M288.76,445.15v6.73a14.14,14.14,0,0,1-1.47,4.89,23,23,0,0,0-2,2,25.33,25.33,0,0,0-2,2.65c-.44.94-.88,1.92-1.3,2.93-1.3,3.12-1.69,4.67-2.45,6.81-1.84,5.21-4.91,11.1-4.82,13.9,0,.58.07,1.2.07,1.2a30,30,0,0,0,.43,3.25,9.79,9.79,0,0,0,.78,3.26,9.33,9.33,0,0,0,1,1.75c.25.11.62.29,1.06.53.86.48.88.62,1.29.79a3.21,3.21,0,0,0,2.35-.1,3.36,3.36,0,0,0,1.29-1c-.61-1-1.07-1.94-1.41-2.63a17.39,17.39,0,0,1-1.57-4.35,11.45,11.45,0,0,1-.16-1.22l10-17.49,4.4-7.7a23.75,23.75,0,0,0,2-2.14,22.46,22.46,0,0,0,1.51-2l.28-2.16c.06-.29.15-.72.27-1.24.42-1.89.7-2.86.91-3.78a26.81,26.81,0,0,0,.62-3.95Z" transform="translate(-236.67 -262.45)" style="fill:#a8d1d8"/><path d="M314.32,446.86c.17.29,0,.55,0,3.73a9.69,9.69,0,0,0,0,1.32,32.3,32.3,0,0,0,.37,4.16,5.1,5.1,0,0,0,.24.69,10.19,10.19,0,0,1,.69,1.59,13.79,13.79,0,0,0,.58,1.75l.85,2.34a15.43,15.43,0,0,1,.45,1.91,14.49,14.49,0,0,1,.2,2.57v4.4l1.15,14.19.36,2.05.12.72a29.14,29.14,0,0,1-.24,4.41c-.13,1-.3,1.89-.49,2.73a2.13,2.13,0,0,1-.61.57,2.07,2.07,0,0,1-1.16.28,13.22,13.22,0,0,1-4.26,0,1.53,1.53,0,0,1-.37-1.14,1.44,1.44,0,0,1,.25-.55c.19-.32.46-.77.77-1.36l1.55-5.34-5-18.11c-.39-1.37-.76-2.84-1.1-4.4-.4-1.89-.71-3.69-.93-5.38a10.93,10.93,0,0,1-.94-1.67,10.69,10.69,0,0,1-.69-2.08c-.24-.83-.46-1.71-.66-2.65a37.06,37.06,0,0,1-.69-5.38C312,445.82,313.91,446.16,314.32,446.86Z" transform="translate(-236.67 -262.45)" style="fill:#a8d1d8"/><path d="M274.64,485.1a3.8,3.8,0,0,0-.92,1,3.91,3.91,0,0,0-.56,1.76l.74,3.13.74,7.71h.48v-6l.55,3.71c.07.44.19.87.24,1.31a2.18,2.18,0,0,0,.39,1.39,2.66,2.66,0,0,0,.71.47,10,10,0,0,0,5.72.72,2,2,0,0,0,.54-.14,1.32,1.32,0,0,0,.4-.38,3.23,3.23,0,0,0,.69-2.13l-1.47-2.87a3.85,3.85,0,0,1-4.13.51,14.11,14.11,0,0,1-1.5-1.8,13.13,13.13,0,0,1-1.4-2.57Z" transform="translate(-236.67 -262.45)" style="fill:#2e2b2c"/><path d="M319.33,488.28a6.69,6.69,0,0,1,.71,1.11,7.23,7.23,0,0,1,.4,1l-.56,7.65h-.55v-3.79l-.48,4.46-.92,1.9a13.76,13.76,0,0,1-2.69.24,18.43,18.43,0,0,1-2.67-.26.8.8,0,0,1-.34-.11.63.63,0,0,1-.21-.36c-.32-1.27-1.11-2.42-.67-4,.12-.44.23-.81.55-1s.92.1,1.69.31a5.6,5.6,0,0,0,2.23.12l1.56-.43a12.67,12.67,0,0,0,1.95-6.83Z" transform="translate(-236.67 -262.45)" style="fill:#2e2b2c"/><rect x="28.61" y="208.87" width="63.11" height="13.78" style="fill:#fff"/><rect x="29.75" y="209.77" width="60.66" height="11.9" style="fill:#dc2a26"/><text transform="translate(40.99 219.06)" style="font-size:8.805890083312988px;fill:#fff;font-family:Norwester-Regular, Norwester">HO<tspan x="8.81" y="0" style="letter-spacing:-0.00998099048217726em">L</tspan><tspan x="13.03" y="0" style="letter-spacing:-0.020017430911477726em">L</tspan><tspan x="17.17" y="0">A</tspan><tspan x="22.33" y="0" style="letter-spacing:-0.020017430911477726em">BA</tspan><tspan x="31.55" y="0">CK</tspan></text></g><g id="label-5" data-name="label"><circle id="brand-5" data-name="brand" cx="59.33" cy="206.55" r="55" style="fill:#99b755"/><path d="M283.22,445.47a19.26,19.26,0,1,0,19.26,19.26A19.26,19.26,0,0,0,283.22,445.47Zm0,35.08A15.82,15.82,0,1,1,299,464.73,15.82,15.82,0,0,1,283.22,480.55Z" transform="translate(-236.67 -262.45)" style="fill:#ffce54"/><path d="M310.74,445.47A19.19,19.19,0,0,0,297,451.25a19.49,19.49,0,0,1,2.19,2.69,15.85,15.85,0,1,1-2.19,3,16.11,16.11,0,0,0-2.2-3,19.27,19.27,0,1,0,16-8.46Z" transform="translate(-236.67 -262.45)" style="fill:#f6bb42"/><path id="SVGCleanerId_0" data-name="SVGCleanerId 0" d="M294.79,475.53a15.8,15.8,0,1,1,2.19-3,15.67,15.67,0,0,0,2.19,3,19.25,19.25,0,1,0-2.19,2.68A18.83,18.83,0,0,1,294.79,475.53Z" transform="translate(-236.67 -262.45)" style="fill:#ffce54"/><path id="SVGCleanerId_0-2" data-name="SVGCleanerId 0" d="M294.79,475.53a15.8,15.8,0,1,1,2.19-3,15.67,15.67,0,0,0,2.19,3,19.25,19.25,0,1,0-2.19,2.68A18.83,18.83,0,0,1,294.79,475.53Z" transform="translate(-236.67 -262.45)" style="fill:#ffce54"/><path d="M305,427a5.65,5.65,0,0,0-8,0,5.64,5.64,0,0,0-8,8l7.24,7.24h0a1,1,0,0,0,.73.31,1.07,1.07,0,0,0,.73-.3h0L305,435A5.65,5.65,0,0,0,305,427Z" transform="translate(-236.67 -262.45)" style="fill:#ed5565"/><text transform="translate(24.35 236.27)" style="font-size:8.805890083312988px;font-family:Norwester-Regular, Norwester">HOPPI<tspan x="19.69" y="0" style="letter-spacing:-0.14001111648609765em">L</tspan><tspan x="22.77" y="0">Y EV</tspan><tspan x="38.96" y="0" style="letter-spacing:-0.00998099048217726em">E</tspan><tspan x="43.26" y="0">R AF</tspan><tspan x="59.53" y="0" style="letter-spacing:-0.00998099048217726em">TE</tspan><tspan x="67.8" y="0">R</tspan></text><text transform="translate(44.41 246.54)" style="font-size:5.870599746704102px;font-family:Montserrat-Regular, Montserrat">belgian ipa</text></g><g id="label-6" data-name="label"><circle id="bg" cx="59.33" cy="206.55" r="55" style="fill:#1aa2e1"/><path d="M320.46,447.56v-.73l-5.28-6.34-8.42-3.15-8.41,3.15-5.29,6.34v6.23H282.3v-3.91h.13a3.34,3.34,0,0,0,3.32-3.34,3.79,3.79,0,0,0-.05-.58l-1.11-6.07a3.33,3.33,0,0,0-6.54,0l-1.1,6.07a3.33,3.33,0,0,0,2.69,3.86,2.78,2.78,0,0,0,.58.06h.12v3.91H273.5v-6.95a4.9,4.9,0,0,0,3.91-4.79v-6.85a4.89,4.89,0,0,0-9.78,0v6.85a4.89,4.89,0,0,0,3.91,4.79v6.95h-3.91v35.22h58.7V450.5Zm-25.44,0,4.5-5.4,7.24-2.71,7.24,2.71,4.5,5.4v5.52h-6.85v-5.87h-9.78v5.87H295Zm14.68,1.61v3.91h-2v-3.91Zm-3.92,0v3.91h-1.95v-3.91Zm-25.56-2a1.36,1.36,0,0,1-1.36-1.38.9.9,0,0,1,0-.23l1.1-6.07a1.37,1.37,0,0,1,2.69,0l1.1,6.07a1.38,1.38,0,0,1-1.11,1.59l-.23,0h-.13v-2h-2v2Zm-10.64-5.87v-6.85a2.94,2.94,0,1,1,5.87,0v6.85a2.92,2.92,0,0,1-1.95,2.75v-3.73h-2v3.73A2.93,2.93,0,0,1,269.58,441.32Zm0,13.7h13.3l-13.3,13.29Zm0,16.06L285.64,455h.74l-16.8,26Zm0,15.25v-1.67L288.71,455h1l-12,31.31Zm10.23,0,12-31.31h1.1l-5.53,31.31Zm16.19,0h-6.66L294.86,455H296Zm2,0V455h1.13l5.53,31.31Zm8.65,0L301.08,455h1.1l12,31.31Zm17.76,0h-8.13l-12-31.31h1l19.12,29.64Zm0-5.28-16.79-26h.73l16.06,16.06Zm0-12.74L311.08,455h13.29Zm0-15.25h-3.91v-3.31l3.91,2Z" transform="translate(-236.67 -262.45)" style="fill:#e7bb40"/><rect x="69.16" y="179.84" width="1.96" height="1.96" style="fill:#e7bb40"/><path d="M292.62,429.58A4.4,4.4,0,1,0,297,434,4.4,4.4,0,0,0,292.62,429.58Zm0,6.85a2.45,2.45,0,1,1,2.44-2.45A2.45,2.45,0,0,1,292.62,436.43Z" transform="translate(-236.67 -262.45)" style="fill:#e7bb40"/><text transform="translate(40.3 239.22)" style="font-size:8.805890083312988px;font-family:Norwester-Regular, Norwester">M<tspan x="5.9" y="0" style="letter-spacing:-0.02007288085860093em">OW</tspan><tspan x="16.65" y="0">INTIME</tspan></text><text transform="translate(50.38 248.25)" style="font-size:5.870599746704102px;font-family:Montserrat-Regular, Montserrat">pilsner</text></g><circle id="label-7" data-name="label" cx="59.33" cy="206.55" r="55" style="fill:#25871f"/><circle id="label-8" data-name="label" cx="59.33" cy="206.55" r="55" style="fill:#c42754"/><circle id="label-9" data-name="label" cx="59.33" cy="206.55" r="55" style="fill:#e8dd18"/><circle id="label-10" data-name="label" cx="59.33" cy="206.55" r="55" style="fill:#1abae5"/><rect id="short" x="54.5" y="121.55" width="9.33" height="16" style="fill:#93a4ae"/><path id="handle" d="M272.47,265.27,286.15,392l18.57-.29,10.7-128.66a154.65,154.65,0,0,0-42.95,2.22Z" transform="translate(-236.67 -262.45)" style="fill:#232b2e"/><path id="tap" d="M316.28,574.32H271.61a50.81,50.81,0,0,1,1.51-13.2c.2-.77.41-1.52.63-2.24a110.11,110.11,0,0,1,39.87.12c.31.72.61,1.46.88,2.25A34.2,34.2,0,0,1,316.28,574.32Z" transform="translate(-236.67 -262.45)" style="fill:#3d4b50"/></svg>