<?xml version="1.0" encoding="utf-8"?>
<!-- Generator: Adobe Illustrator 22.1.0, SVG Export Plug-In . SVG Version: 6.00 Build 0)  -->
<svg version="1.1" id="Layer_1" xmlns="http://www.w3.org/2000/svg" xmlns:xlink="http://www.w3.org/1999/xlink" x="0px" y="0px"
	 viewBox="0 0 118.3 311.9" style="enable-background:new 0 0 118.3 311.9;" xml:space="preserve">
<style type="text/css">
	.st0{fill:#F4F7DC;}
	.st1{fill:#3D4B50;}
	.st2{fill:#93A4AE;}
	.st3{fill:#BCB8B1;}
	.st4{fill:#232B2E;}
	.st5{fill:#FBC333;}
	.st6{font-family:'Montserrat-Regular';}
	.st7{font-size:5.1368px;}
	.st8{font-family:'Norwester-Regular';}
	.st9{font-size:11.7412px;}
	.st10{fill:#351D02;}
	.st11{fill:#BD2233;}
	.st12{fill:#F59332;}
	.st13{fill:#FEF035;}
	.st14{fill:#17A453;}
	.st15{fill:#1DAFEC;}
	.st16{fill:#FFFFFF;}
	.st17{fill:#FF0093;}
	.st18{font-size:8.8059px;}
	.st19{fill:#E8C89A;}
	.st20{fill:#7C201C;}
	.st21{font-size:4.4029px;}
	.st22{fill:#B3703D;}
	.st23{fill:#683D1F;}
	.st24{fill:#FFFFFE;}
	.st25{fill:#DC2A26;}
	.st26{fill:#E3BF9A;}
	.st27{fill:#A8D1D8;}
	.st28{fill:#2E2B2C;}
	.st29{fill:#99B755;}
	.st30{fill:#FFCE54;}
	.st31{fill:#F6BB42;}
	.st32{fill:#ED5565;}
	.st33{font-size:5.8706px;}
	.st34{fill:#1AA2E1;}
	.st35{fill:#E7BB40;}
	.st36{fill:#8E131F;}
	.st37{fill:#21B744;}
	.st38{fill:#BA1C1C;}
	.st39{fill:#C41A2F;}
	.st40{fill:#FFCD00;}
	.st41{fill:#00DBCD;}
	.st42{fill:#C9F249;}
</style>
<g id="hand">
	<rect id="top" x="40.2" y="137.6" class="st0" width="38" height="16.7"/>
	<path id="long-tap" class="st0" d="M72.8,296.9H41.7c0.4-5.9,0.6-12.2,0.6-18.8c0-6-0.2-11.8-0.6-17.2h31.1
		c-0.4,5.7-0.6,11.8-0.6,18.3C72.2,285.4,72.4,291.3,72.8,296.9z"/>
	<circle id="circle" class="st1" cx="59.2" cy="206.7" r="59.2"/>
	<rect id="short" x="54.5" y="121.6" class="st2" width="9.3" height="16"/>
	<path id="tap" class="st2" d="M79.6,311.9H34.9c-0.1-4.4,0.4-8.9,1.5-13.2c0.2-0.8,0.4-1.5,0.6-2.2c13.2-2.4,26.7-2.3,39.9,0.1
		c0.3,0.7,0.6,1.5,0.9,2.2C79.3,303,79.9,307.4,79.6,311.9z"/>
	<circle id="brand" class="st3" cx="59.3" cy="206.6" r="55"/>
	<path id="handle" class="st4" d="M35.8,2.8l13.7,126.7l18.6-0.3L78.8,0.6C64.4-0.7,49.9,0.1,35.8,2.8z"/>
</g>
<g id="keg">
	<g id="labelBeer0">
		<circle id="elipse" class="st1" cx="59.3" cy="206.2" r="59.2"/>
		<circle id="brand-2" class="st5" cx="59.3" cy="206.6" r="55"/>
		<text transform="matrix(1 0 0 1 45.0793 250.7063)" class="st6 st7">hefeweiser</text>
		<text transform="matrix(1 0 0 1 39.9206 242.1223)" class="st8 st9">EL HEFE</text>
		<path class="st10" d="M84.1,228.2c-0.6-2.1-1.5-4.5-2.9-7c-0.6-1.1-1.1-2-1.7-2.9c-0.5-0.5-1-1-1.7-1.5c-1.1-0.8-2.1-1.4-3-1.8
			c0.1-1.6,0.2-3.2,0.3-4.9c0-0.6,0.1-1.3,0.1-1.9c-0.7,0-1.6,0-2.7,0.2c-0.9,0.2-1.8,0.7-2.7,0.8c0.1-1.4,0.1-2.7,0.1-4.2
			c-0.1-1.2,0.8-2,1.3-3.1c0.9-1.9,1.7-3.7,2.3-5.3c1.1-2.3,2.3-4.6,3.4-6.8c1.8-1,3.6-2,5.4-3c0.6-0.3,1.1-0.7,1.7-1
			c1.1-0.7,4.3-2.8,5.1-6.7c0.2-0.7,0.2-1.4,0.2-2c0,0.2-1.4,0.9-1.6,1c-0.7,0.4-1.3,0.7-2,1c-1.6,0.6-3.3,1-5,1.2
			c-0.1,0-0.1,0-0.2,0c-0.1,0-0.1-0.1-0.1-0.2c-0.4-1.1-0.9-2.1-1.3-3.2c-1-2.6-2-5.2-2.9-7.7c-0.1-0.9-0.4-2.1-1-3.4
			c-0.4-0.9-0.8-1.6-1.2-2.2c-0.6-0.5-3.2-2.4-7-2.1c-3.7,0.3-5.9,2.5-6.5,3c-0.7,0.6-1.6,1.5-2.4,2.6c-1.3,1.8-2,3.5-2.4,4.8
			c-0.7-0.5-1.9-1.3-3.5-1.7c-1.1-0.3-2.1-0.4-2.9-0.4c-0.8,0.2-3.1,0.8-4.9,3c-1.4,1.7-1.8,3.5-1.9,4.3c0.1,1.2,0.5,2.7,1.2,4.4
			c1,2.3,2.3,3.9,3.2,4.9c2.3,2.2,4.6,4.3,7,6.5c0.3,2,0.4,4.7-0.2,7.8c-0.3,1.3-0.6,2.6-1,3.6c-1.3,1.5-2.6,3-4,4.6
			c-0.1,0.1-0.2,0.2-0.3,0.2c-0.1,0.1-0.2,0.1-0.3,0.1c-2.5,0.3-4.9,0.7-7.4,1.5c-2.3,0.8-4.7,1.7-6.7,3.1c-1.1,0.8-1.7,2-2.2,3.3
			c-0.6,1.7-1.2,3.3-1.7,5.1c-0.1,0.5-1.2,6.2-1.2,6.2C47.5,228.2,65.8,228.2,84.1,228.2z"/>
	</g>
	<g id="labelBeer1">
		<g id="Rainbow">
			<circle id="circle-2" class="st11" cx="59.3" cy="206.6" r="55"/>
			<circle id="circle-3" class="st12" cx="59.3" cy="207.8" r="52.2"/>
			<ellipse id="circle-4" class="st13" cx="59.6" cy="209.8" rx="50.2" ry="49"/>
			<ellipse id="circle-5" class="st14" cx="59.3" cy="211.8" rx="48.2" ry="47"/>
			<ellipse id="circle-6" class="st15" cx="59.8" cy="213" rx="46.1" ry="43.4"/>
			<ellipse id="circle-7" class="st16" cx="59.7" cy="217.2" rx="45" ry="43.9"/>
		</g>
		<path class="st17" d="M92.4,171.1c0,0-12.7,12.7-12.7,12.7c0.1-0.1,3.8,3.1,4.2,3.4c0.1,0.1,0.3,0.2,0.4,0.3c0.2,0,0.3,0,0.5,0
			c1.5-0.2,3-0.3,4.5-0.5c0.1,0,0.2,0,0.2,0c0.1,0,0.1,0.1,0.2,0.2c0.4,0.6,1.1,1.6,1,2.4c-0.5-0.3-0.9-0.8-1.3-1.2
			c-0.1-0.1-0.1-0.1-0.2-0.2c-0.1-0.1-0.3,0-0.4,0c-1.9,0.3-3.8,0.6-5.7,0.8c0.3,0,2.7,5.1,3,5.6c0.2,0.3,1.8,0,2.1,0.1
			c-0.1,0.5-0.4,1.1-0.7,1.5c-0.3,0.4-4.8-1.6-5.4-1.6c2.8,4,5.6,8,8.4,12c0.1,0.1,0.1,0.2,0.2,0.2c0.1,0.1,0.2,0.1,0.3,0.1
			c0.5,0,0.9,0,1.4,0c0.2,0.5,0.3,0.9,0.5,1.4c0,0.1,0.1,0.2,0.1,0.4c0,0.2-0.1,0.3-0.2,0.5c-0.7,1.2-1,2.7-1.4,4
			c0,0.1-0.1,0.2-0.1,0.3c-0.3,0.4-1.7,0.5-2.1,0.6c-0.2,0-0.3,0.1-0.4,0.2c-1,0.7-1.3,1.6-2.7,1.7c-1.6,0.2-3.3,0.1-4.9,0.1
			c-0.2,0-0.4,0-0.5-0.1c-0.2-0.1-0.2-0.4-0.3-0.6c-0.5-2.6-2.1-5.1-4.2-6.7c-0.5-0.4-1.1-0.8-1.7-0.9c-2-0.6-4.7-0.4-6.8-0.5
			c0.6,3.6,1.2,7.1,1.9,10.7c3.2,3.7,7.3,7.8,12.4,11.9c6.7,5.3,13.2,9.1,18.5,11.6c-1.6,1.7-4,4.1-6.9,7c-1.8,1.7-2.6,2.6-3.3,3.1
			c-0.9,0.8-3.7,3-10.5,5.8c-3.7,1.5-6.3,2.6-10.2,3.3c-6.2,1.3-11.1,0.7-16.1,0.4c-1.2-0.1-3-0.3-5.1-0.8c-1.8-0.5-3.1-1-5.6-2.1
			c-1.4-0.6-3.8-1.6-7.2-3.1c-1.6-1.1-3.3-2.2-4.9-3.5c-1.5-1.1-2.9-2.2-4.3-3.3c-0.5-0.4-2.3-2-4.5-4.2c-1-1.1-1.9-2.2-3.6-4.3
			c-4.2-5.2-4.6-6.1-4.3-6.7c0.3-0.5,1.4-0.7,3.6-1.1c1.8-0.3,3.3-0.4,4.4-0.5c0.2-0.2,3.8-4.1,3.9-4.6c0-0.1,0-0.2,0-0.3
			c-0.1-0.1-0.2-0.2-0.3-0.3c-2.2-1.5-4.3-3-6.5-4.5c1.3,0.9,4,0.2,5.2-0.5c1.8-1.1,3-3.2,3.1-5.3c0-0.1,0-0.3-0.1-0.4
			c-0.1-0.1-0.2-0.2-0.3-0.3c-1-0.7-2.3-1.1-3.5-0.8c0.2,0,1.6-2.3,1.8-2.6c0.7-0.9,1.5-1.9,1.9-3.1c0.3-0.9,0.5-1.9,0-2.7
			c-0.4-0.6-1-0.9-1.7-1.1c-0.5-0.2-3.5-0.5-3.7-1c-0.1-0.6,1-0.4,1.3-0.5c0.9-0.1,1.7-0.3,2.6-0.5c1.7-0.4,3.4-1.1,4.8-2.3
			c0.5-0.5,1-1,1.5-1.5c1-1,2.1-1.9,3.3-2.6c-0.1,0.1-1.9-2.7-2-2.9c-0.5-1-1-1.9-1.3-2.7c-0.1-1.2,0-3,0.6-5
			c0.4-1.3,0.9-2.3,1.3-3.1c0.1,0.9,0.2,1.7,0.3,2.6c0.1,0.3,0.4,0.7,0.8,1.1c0.6,0.6,1.2,0.8,1.5,1c1.1,0.3,2.2,0.5,3.5,0.6
			c0.7,0.1,1.4,0.2,2,0.2c0.5,0,1.3,0,2.3-0.5c1-0.5,1.5-1.1,1.8-1.5c-0.2-0.1-0.6-0.2-0.9-0.5c-0.5-0.4-0.8-0.8-0.9-1.1
			c-0.3-0.3-0.6-0.7-1.1-1.1c-0.8-0.6-1.7-0.9-2.6-1.1c1.8-0.5,3.7-0.4,5.4,0.2c0.4,0.1,0.8,0.3,1.3,0.3c0.6,0,1.1-0.3,1.6-0.5
			c1.3-0.5,2.8-0.7,4.2-0.5c0.5,0.1,1.8,0.7,2.2,0.6c0.4-0.1,0.7-1.3,0.9-1.7c0.3-0.5,0.6-1,0.9-1.3c0.1-0.1,0.3-0.4,0.8-0.5
			c0.4-0.1,0.8-0.1,1,0c-0.1,0.1-0.4,0.4-0.5,0.8c-0.1,0.4,0,0.8,0.1,0.9c0.2,0.1,0.6,0.4,1.2,0.4c0.5,0,0.9-0.1,1.1-0.2
			c0-1.3,0.1-2.7,0.3-4.2c0.2-1.5,0.4-2.8,0.6-4c1,0.8,2,1.7,3.1,2.7c1.1,1.1,2.2,2.1,3.1,3.2c0.9-0.1,2-0.1,3.1,0.1
			c1.3,0.1,2.5,0.4,3.4,0.6c0.3-0.1,0.8-0.1,1.3-0.3c0.5-0.2,0.8-0.4,1.1-0.6c0.2-0.3,0.3-0.7,0.5-1c0,0,0-0.6-0.6-0.9
			c-0.4-0.2-0.8-0.1-0.8-0.1c0.1-0.1,0.3-0.5,0.9-0.6c0.5-0.1,0.9,0.2,1,0.2c0.1,0,0.4,0.2,0.5,0.7c0.1,0.4,0,0.7-0.1,0.8
			C82.9,175.5,87.6,173.3,92.4,171.1z"/>
		<text transform="matrix(1 0 0 1 31.9487 247.3047)" class="st8 st18">FAIRY TALE ALE</text>
	</g>
	<g id="labelBeer2">
		<circle id="brand-3" class="st19" cx="59.3" cy="206.6" r="55"/>
		<path class="st20" d="M54.4,171.7c0.1,0.4,0.2,0.9,0.3,1.5c0.1,1-0.1,1.8-0.3,2.3c-0.2,0.6-0.6,1.3-1,2.1c-0.6,1-1.2,1.9-1.8,2.6
			c-0.1,0-0.5,0.1-0.9-0.2c-0.2-0.1-0.3-0.3-0.3-0.4c-0.2-0.4-0.4-1-0.6-1.7c-0.2-0.8-0.2-1.5-0.2-2c0-0.7,0-1.4,0-2.1
			c0-0.5,0.2-1.2,0.5-2c0.5-1.3,1.3-2.1,1.8-2.5c0.4-0.8,1.2-2.1,2.7-3.3c1.6-1.3,3.1-1.7,4-2c1,0,2.3,0,3.9,0.4
			c1.4,0.3,2.6,0.8,3.4,1.3c0.9,0.6,2.2,1.6,3.3,3.3c0.7,1.1,1.1,2.2,1.4,3c0.4,1,0.8,2.5,0.8,4.3c0,2.1-0.4,3.9-0.8,4.9
			c-0.6,1.2-1.3,2.5-2.3,4c-1,1.5-2.1,2.7-3.1,3.7c-0.9,0.7-1.8,1.4-2.8,2c-1.7,1.1-3.3,2-4.8,2.8c-1.2,0.9-2.5,2.1-3.8,3.6
			c-1.5,1.7-2.6,3.3-3.3,4.7c-0.4,1-0.8,2.5-0.9,4.2c-0.1,1.2,0,2.3,0.2,3.1c0.5,0.9,1.3,2.2,2.5,3.4c1,1,2,1.6,2.8,2.1
			c0.9,0.3,2.1,0.7,3.6,0.8c1.8,0.2,3.3,0.1,4.4-0.1c0.7-0.2,1.6-0.6,2.6-1.2c1.2-0.8,1.9-1.8,2.4-2.4c0.4-0.6,0.8-1.6,1.1-2.8
			c0.2-1.3,0.1-2.4,0-3c0-0.6-0.2-1.6-0.7-2.7c-0.6-1.3-1.4-2.2-1.9-2.6c-0.6-0.4-1.4-1-2.5-1.4c-1.4-0.5-2.6-0.6-3.3-0.5
			c-0.6,0-1.5,0.1-2.4,0.5c-1.4,0.5-2.3,1.3-2.8,1.8c-0.5,0.6-1,1.3-1.5,1.9c-0.1-0.5-0.2-1.3,0.1-2.3c0.3-1.3,1.1-2.2,1.4-2.5
			c0.4-0.6,1.1-1.4,2.1-2.1c1.7-1.2,3.5-1.4,4.3-1.4c0.7,0,1.8,0,3.1,0.4c1.2,0.4,2.1,0.9,2.6,1.3c0.8,0.5,1.8,1.3,2.8,2.4
			c1,1.1,1.7,2.1,2.1,3c0.4,1.1,0.9,2.7,0.9,4.7c0.1,2.5-0.5,4.6-0.9,5.8c-0.3,0.8-0.8,1.9-1.7,3.1c-0.9,1.2-1.8,2-2.5,2.5
			c-0.8,0.4-1.7,0.8-2.7,1.2c-2,0.7-3.8,1-5.2,1.1c-1,0.1-2.3,0.2-3.8,0c-1.8-0.2-3.3-0.7-4.4-1.1c-1.1-0.7-2.7-1.9-4.1-3.7
			c-1.1-1.4-1.8-2.8-2.3-3.9c-0.3-1-0.7-2.3-0.8-3.9c-0.1-1.5,0-2.7,0.2-3.6c0.2-1,0.4-2.1,0.9-3.4c0.7-1.7,1.5-3.1,2.2-4
			c0.9-1.2,1.9-2.4,3.2-3.7c1-1,1.9-1.9,2.9-2.7c0.7-0.5,1.4-1.1,2.2-1.6c1.4-0.9,2.6-1.5,3.8-2c1.6-1.5,3.2-3,4.8-4.5
			c0.4-0.8,0.9-2,1.2-3.4c0.2-0.9,0.2-1.7,0.3-2.4c0-0.9-0.1-2.3-0.8-4c-0.4-0.9-0.9-1.7-1.3-2.2c-0.4-0.4-1.1-1-2.1-1.5
			c-0.6-0.3-1.1-0.4-1.6-0.5c-0.5-0.1-1.7-0.2-3,0.4c-0.9,0.4-1.4,0.9-1.7,1.3C55.3,170.5,54.8,171.1,54.4,171.7z"/>
		<text transform="matrix(1 0 0 1 45.0786 245.7061)" class="st6 st21">VENOM ALE</text>
		<text transform="matrix(1 0 0 1 47.0356 236.123)" class="st8 st18">GITHOP</text>
	</g>
	<g id="labelBeer3">
		<circle id="brand-4" class="st22" cx="59.3" cy="206.6" r="55"/>
		<path class="st16" d="M60.1,156.7c3,0,5.9,0.4,8.7,1c7.6,1.8,14.7,6.9,17.6,14.1c1.8,4.4,1.9,9.2,1.7,13.8
			c-0.2,4.9-0.1,9.8-0.1,14.8c0,5.3,0,10.6,0,15.9c0,5,0.7,10.6,0,15.5c-0.3,1.8-1.2,6.2-4.6,10.3c-3.4,4.1-7.5,5.8-9.3,6.4
			c-2.9,1.2-7.8,2.7-13.9,2.7c-6.4,0-11.4-1.5-14.4-2.7c-1.8-0.7-5.7-2.5-9.1-6.6c-3.4-4.2-4.4-8.6-4.6-10.5c-0.4-2.8,0-6.1,0-8.9
			c0-3.3,0-6.5,0-9.8c0-6.4,0-12.7,0-19.1c-0.1-16-0.3-18.9,2-23.3c2.2-4.1,5.1-6.4,6.3-7.4C47.8,156.7,56.6,156.7,60.1,156.7z"/>
		<path class="st23" d="M60.1,158.9c2.9,0,5.7,0.4,8.3,1c7.2,1.7,14,6.5,16.8,13.5c1.7,4.2,1.8,8.8,1.6,13.2
			c-0.2,4.7-0.1,9.4-0.1,14.1c0,5,0,10.1,0,15.1c0,4.7,0.7,10.1,0,14.7c-0.3,1.8-1.1,5.9-4.4,9.8c-3.3,3.9-7.2,5.5-8.9,6.1
			c-2.8,1.1-7.4,2.5-13.3,2.6c-6.1,0-10.9-1.4-13.8-2.6c-1.7-0.7-5.5-2.4-8.6-6.3c-3.3-4-4.1-8.2-4.4-10c-0.4-2.7,0-5.8,0-8.5
			c0-3.1,0-6.2,0-9.3c0-6.1,0-12.1,0-18.2c-0.1-15.2-0.3-18,1.9-22.2c2.1-3.9,4.8-6.1,6-7.1C48.4,158.9,56.8,158.9,60.1,158.9z"/>
		<polygon class="st24" points="33.1,211.5 20.8,211.5 22.7,218.2 20.8,224.9 33.1,224.9 		"/>
		<polygon class="st24" points="86.9,211.5 99.2,211.5 97.2,218.2 99.2,224.9 86.8,224.9 		"/>
		<polygon class="st25" points="87.1,212.7 97.3,212.7 95.6,218.3 97.3,223.8 87,223.8 		"/>
		<polygon class="st25" points="32.6,212.7 22.4,212.7 24,218.3 22.4,223.8 32.7,223.8 		"/>
		<path class="st26" d="M50.4,174.3c0.5,2.7,0.9,5.4,1.4,8.1c3.7,0.4,7.3,0.7,11,1.1c0.5-2.6,1-5.3,1.4-7.9
			C59.6,175.1,55,174.7,50.4,174.3z"/>
		<path class="st26" d="M66.2,175.7c0.5,3.2,1.1,6.3,1.6,9.5l9.5-1.3l1.5-10C74.6,174.5,70.4,175.1,66.2,175.7z"/>
		<path class="st25" d="M50.6,160c-0.3,2.6-0.9,5.7-2,9.1c-0.6,1.9-1.3,3.6-2,5.1c6.3,0.5,12.5,1,18.8,1.5c1.2,0.2,2.5,0.3,4,0.3
			c1.9,0,3.7-0.1,5.2-0.3c1.2-0.3,2.8-0.9,4.4-1.7c1-0.6,1.9-1.1,2.6-1.7c-0.8-1.3-1.6-2.5-2.4-3.8c-0.5-1.5-0.9-2.9-1.4-4.4
			c-1.4-0.9-3.1-1.9-5.3-2.8c-1-0.4-4.4-1.8-9.1-2.2c-0.8-0.1-3.1-0.3-6-0.1C54.5,159.1,52.3,159.6,50.6,160z"/>
		<path class="st27" d="M51.8,182.2v6.7c-0.1,0.7-0.2,1.6-0.5,2.6c-0.3,0.9-0.6,1.7-0.9,2.3c-0.6,0.6-1.3,1.2-2,2
			c-0.8,0.9-1.5,1.8-2,2.6c-0.4,0.9-0.9,1.9-1.3,2.9c-1.3,3.1-1.7,4.7-2.4,6.8c-1.8,5.2-4.9,11.1-4.8,13.9c0,0.6,0.1,1.2,0.1,1.2
			c0.1,1.3,0.3,2.4,0.4,3.2c0.1,0.8,0.2,2,0.8,3.3c0.3,0.7,0.7,1.3,1,1.8c0.3,0.1,0.6,0.3,1.1,0.5c0.9,0.5,0.9,0.6,1.3,0.8
			c1.1,0.4,2.2,0,2.4-0.1c0.7-0.3,1.1-0.7,1.3-1c-0.6-1-1.1-1.9-1.4-2.6c-1.2-2.6-1.5-3.9-1.6-4.3c-0.1-0.5-0.1-0.9-0.2-1.2
			c3.3-5.8,6.7-11.7,10-17.5l4.4-7.7c0.6-0.6,1.3-1.3,2-2.1c0.6-0.7,1.1-1.4,1.5-2c0.1-0.7,0.2-1.4,0.3-2.2c0.1-0.3,0.2-0.7,0.3-1.2
			c0.4-1.9,0.7-2.9,0.9-3.8c0.2-0.9,0.5-2.3,0.6-4C59.1,182.8,55.4,182.5,51.8,182.2z"/>
		<path class="st27" d="M77.3,183.9c0.2,0.3,0,0.5,0,3.7c0,0.4-0.1,0.9,0,1.3c0.2,1.4,0,2.8,0.4,4.2c0.1,0.2,0.1,0.5,0.2,0.7
			c0.2,0.6,0.6,1,0.7,1.6c0.1,0.6,0.4,1.2,0.6,1.8c0.3,0.8,0.6,1.6,0.8,2.3c0.2,0.6,0.3,1.2,0.4,1.9c0.2,1,0.2,1.8,0.2,2.6
			c0,1.5,0,2.9,0,4.4l1.1,14.2c0.1,0.7,0.2,1.4,0.4,2c0,0.2,0.1,0.5,0.1,0.7c0,1.3,0,2.8-0.2,4.4c-0.1,1-0.3,1.9-0.5,2.7
			c-0.1,0.2-0.3,0.4-0.6,0.6c-0.5,0.3-1,0.3-1.2,0.3c-0.5,0.1-1.2,0.1-1.9,0.2c-0.9,0-1.7-0.1-2.4-0.2c-0.2-0.2-0.4-0.7-0.4-1.1
			c0-0.2,0.1-0.4,0.3-0.6c0.2-0.3,0.5-0.8,0.8-1.4c0.5-1.8,1-3.6,1.5-5.3l-5-18.1c-0.4-1.4-0.8-2.8-1.1-4.4
			c-0.4-1.9-0.7-3.7-0.9-5.4c-0.3-0.4-0.6-1-0.9-1.7c-0.3-0.8-0.6-1.5-0.7-2.1c-0.2-0.8-0.5-1.7-0.7-2.6c-0.4-2-0.6-3.8-0.7-5.4
			C75,182.8,76.9,183.2,77.3,183.9z"/>
		<path class="st28" d="M37.6,222.1c-0.3,0.2-0.6,0.5-0.9,1c-0.4,0.7-0.5,1.4-0.6,1.8c0.2,1,0.5,2.1,0.7,3.1l0.7,7.7h0.5v-6
			c0,0,0.6,3.7,0.6,3.7c0.1,0.4,0.2,0.9,0.2,1.3c0.1,0.5,0,1,0.4,1.4c0.2,0.2,0.5,0.3,0.7,0.5c1.8,0.9,3.8,1,5.7,0.7
			c0.2,0,0.4-0.1,0.5-0.1c0.2-0.1,0.3-0.2,0.4-0.4c0.5-0.6,0.7-1.4,0.7-2.1c-0.5-1-1-1.9-1.5-2.9c-0.3,0.2-0.8,0.6-1.6,0.8
			c-1.2,0.3-2.2-0.1-2.5-0.3c-0.5-0.5-1-1.1-1.5-1.8c-0.7-0.9-1.1-1.8-1.4-2.6C38.5,226,38,224.1,37.6,222.1z"/>
		<path class="st28" d="M82.3,225.3c0.2,0.3,0.5,0.7,0.7,1.1c0.2,0.4,0.3,0.7,0.4,1c-0.2,2.5-0.4,5.1-0.6,7.6h-0.6v-3.8l-0.5,4.5
			c-0.3,0.6-0.6,1.3-0.9,1.9c-0.7,0.1-1.7,0.2-2.7,0.2c-0.9,0-1.8-0.1-2.7-0.3c-0.1,0-0.2,0-0.3-0.1c-0.2-0.1-0.2-0.3-0.2-0.4
			c-0.3-1.3-1.1-2.4-0.7-4c0.1-0.4,0.2-0.8,0.6-1c0.4-0.2,0.9,0.1,1.7,0.3c0.5,0.1,1.3,0.3,2.2,0.1c0.5-0.1,1-0.3,1.6-0.4
			c0.5-0.7,1-1.8,1.4-3.1C82.2,227.5,82.3,226.2,82.3,225.3z"/>
		<rect x="28.3" y="208.3" class="st16" width="63.1" height="13.8"/>
		<rect x="29.4" y="209.2" class="st25" width="60.7" height="11.9"/>
		<text transform="matrix(1 0 0 1 40.6543 218.5156)" class="st16 st8 st18">HOLLABACK</text>
	</g>
	<g id="labelBeer4">
		<circle id="brand-5" class="st29" cx="59.3" cy="206.6" r="55"/>
		<path class="st30" d="M45.6,185c-10.6,0-19.3,8.6-19.3,19.3c0,10.6,8.6,19.3,19.3,19.3c10.6,0,19.3-8.6,19.3-19.3
			S56.2,185,45.6,185L45.6,185z M45.6,220.1c-8.7,0-15.8-7-15.9-15.8c0-8.7,7-15.8,15.8-15.9c8.7,0,15.8,7,15.9,15.8l0,0
			C61.3,213,54.3,220.1,45.6,220.1z"/>
		<path class="st31" d="M73.1,185c-5.2,0-10.1,2.1-13.7,5.8c0.8,0.8,1.5,1.7,2.2,2.7c6-6.4,16-6.8,22.4-0.8s6.8,16,0.8,22.4
			s-16,6.8-22.4,0.8c-5.4-5-6.6-13-3-19.4c-0.6-1.1-1.4-2.1-2.2-3c-6,8.8-3.7,20.8,5.1,26.8s20.8,3.7,26.8-5.1s3.7-20.8-5.1-26.8
			C80.7,186.2,77,185,73.1,185L73.1,185z"/>
		<path id="SVGCleanerId_0" class="st30" d="M57.1,215.1c-5.9,6.4-15.9,6.8-22.3,0.8S28,200,34,193.6c5.9-6.4,15.9-6.8,22.3-0.8
			c5.4,5,6.6,13,3,19.3c0.6,1.1,1.3,2.1,2.2,3c6-8.8,3.7-20.8-5.1-26.7c-8.8-6-20.8-3.7-26.7,5.1c-6,8.8-3.7,20.8,5.1,26.7
			c7.7,5.2,18,4.2,24.5-2.5C58.5,216.9,57.8,216,57.1,215.1z"/>
		<path id="SVGCleanerId_0-2" class="st30" d="M57.1,215.1c-5.9,6.4-15.9,6.8-22.3,0.8S28,200,34,193.6c5.9-6.4,15.9-6.8,22.3-0.8
			c5.4,5,6.6,13,3,19.3c0.6,1.1,1.3,2.1,2.2,3c6-8.8,3.7-20.8-5.1-26.7c-8.8-6-20.8-3.7-26.7,5.1c-6,8.8-3.7,20.8,5.1,26.7
			c7.7,5.2,18,4.2,24.5-2.5C58.5,216.9,57.8,216,57.1,215.1z"/>
		<path class="st32" d="M67.3,166.5c-2.2-2.2-5.8-2.2-8,0l0,0c-2.2-2.2-5.8-2.2-8,0s-2.2,5.8,0,8l7.2,7.2l0,0
			c0.2,0.2,0.5,0.3,0.7,0.3c0.3,0,0.5-0.1,0.7-0.3l0,0l7.3-7.2C69.5,172.3,69.5,168.8,67.3,166.5C67.3,166.6,67.3,166.6,67.3,166.5z
			"/>
		<text transform="matrix(1 0 0 1 43.0791 246.9932)" class="st6 st33">belgian ipa</text>
		<text transform="matrix(1 0 0 1 23.021 236.7197)" class="st8 st18">HOPPILY EVER AFTER</text>
	</g>
	<g id="labelBeer5">
		<circle id="bg" class="st34" cx="59.3" cy="206.6" r="55"/>
		<path class="st35" d="M83.8,185.1v-0.7l-5.3-6.3l-8.4-3.1l-8.4,3.1l-5.3,6.3v6.2H45.6v-3.9h0.1c1.8,0,3.3-1.5,3.3-3.3
			c0-0.2,0-0.4,0-0.6l-1.1-6.1c-0.3-1.8-2.1-3-3.9-2.6c-1.3,0.3-2.4,1.3-2.6,2.6l-1.1,6.1c-0.3,1.8,0.9,3.5,2.7,3.9
			c0.2,0,0.4,0.1,0.6,0.1h0.1v3.9h-6.8v-7c2.3-0.5,3.9-2.5,3.9-4.8V172c0-2.7-2.2-4.9-4.9-4.9S31,169.3,31,172v6.9
			c0,2.3,1.6,4.3,3.9,4.8v7H31v35.2h58.7V188L83.8,185.1z M58.3,185.1l4.5-5.4L70,177l7.2,2.7l4.5,5.4v5.5H75v-5.9h-9.8v5.9h-6.9
			L58.3,185.1z M73,186.7v3.9h-2v-3.9H73z M69.1,186.7v3.9h-2v-3.9H69.1z M43.5,184.7c-0.8,0-1.4-0.6-1.4-1.4l0,0c0-0.1,0-0.2,0-0.2
			l1.1-6.1c0.1-0.7,0.9-1.2,1.6-1.1c0.5,0.1,1,0.5,1.1,1.1l1.1,6.1c0.1,0.7-0.4,1.5-1.1,1.6h-0.2h-0.1v-2h-2L43.5,184.7L43.5,184.7z
			 M32.9,178.8V172c-0.1-1.6,1.1-3,2.8-3.1c1.6-0.1,3,1.1,3.1,2.8c0,0.1,0,0.2,0,0.3v6.9c0,1.2-0.8,2.3-2,2.8V178h-2v3.7
			C33.7,181.2,32.9,180.1,32.9,178.8L32.9,178.8z M32.9,192.5h13.3l-13.3,13.3V192.5z M32.9,208.6L49,192.5h0.7l-16.8,26V208.6z
			 M32.9,223.9v-1.7L52,192.5h1l-12,31.3L32.9,223.9L32.9,223.9z M43.1,223.9l12-31.3h1.1l-5.5,31.3H43.1z M59.3,223.9h-6.7
			l5.5-31.3h1.1L59.3,223.9z M61.3,223.9v-31.3h1.1l5.5,31.3H61.3z M70,223.9l-5.6-31.3h1.1l12,31.3H70z M87.7,223.9h-8.1l-12-31.3
			h1l19.1,29.6V223.9z M87.7,218.6l-16.8-26h0.7l16.1,16.1C87.7,208.7,87.7,218.6,87.7,218.6z M87.7,205.8l-13.3-13.3h13.3V205.8z
			 M87.7,190.6h-3.9v-3.3l3.9,2V190.6z"/>
		<rect x="69.2" y="179.8" class="st35" width="2" height="2"/>
		<path class="st35" d="M55.9,167.1c-2.4,0-4.4,1.9-4.4,4.4s1.9,4.4,4.4,4.4c2.4,0,4.4-1.9,4.4-4.4
			C60.3,169.1,58.4,167.1,55.9,167.1C56,167.1,56,167.1,55.9,167.1z M55.9,174c-1.4,0-2.5-1.1-2.5-2.4c0-1.4,1.1-2.5,2.4-2.5
			s2.5,1.1,2.5,2.4l0,0C58.4,172.9,57.3,174,55.9,174z"/>
		<text transform="matrix(1 0 0 1 49.0498 249.7051)" class="st6 st33">pilsner</text>
		<text transform="matrix(1 0 0 1 38.9624 239.6738)" class="st8 st18">MOWINTIME</text>
	</g>
	<g id="labelBeer6">
		<circle id="bg_1_" class="st36" cx="59.3" cy="206.6" r="55"/>
		<text id="porter" transform="matrix(1 0 0 1 50.0498 250.7051)" class="st6 st33">porter</text>
		<text id="ROW26" transform="matrix(1 0 0 1 46.9624 242.6738)" class="st8 st18">ROW26</text>
		<rect x="26.2" y="189.3" width="7.1" height="14.1"/>
		<path d="M33.3,204.6h-7.1c-0.7,0-1.2-0.5-1.2-1.2v-14.1c0-0.7,0.5-1.2,1.2-1.2h7.1c0.7,0,1.2,0.5,1.2,1.2v14.1
			C34.4,204.1,33.9,204.6,33.3,204.6z M27.4,202.2h4.7v-11.8h-4.7V202.2z"/>
		<rect x="53.7" y="215.2" width="11.8" height="11.8"/>
		<path d="M66.6,228.2H52.5V214h14.1V228.2z M54.8,225.8h9.4v-9.4h-9.4V225.8z"/>
		<path d="M43.9,182.2c-0.7,0-1.2-0.5-1.2-1.2v-13c0-0.7,0.5-1.2,1.2-1.2c0.7,0,1.2,0.5,1.2,1.2v13
			C45.1,181.7,44.5,182.2,43.9,182.2z"/>
		<path d="M28.9,185.7c0-2.6,2.1-4.7,4.7-4.7h51.9c2.6,0,4.7,2.1,4.7,4.7v25.9c0,2.6-2.1,4.7-4.7,4.7H33.6c-2.6,0-4.7-2.1-4.7-4.7
			C28.9,211.7,28.9,185.7,28.9,185.7z"/>
		<path d="M85.5,217.6H33.6c-3.2,0-5.9-2.6-5.9-5.9v-25.9c0-3.2,2.6-5.9,5.9-5.9h51.9c3.2,0,5.9,2.6,5.9,5.9v25.9
			C91.4,214.9,88.7,217.6,85.5,217.6z M33.6,182.2c-1.9,0-3.5,1.6-3.5,3.5v25.9c0,1.9,1.6,3.5,3.5,3.5h51.9c1.9,0,3.5-1.6,3.5-3.5
			v-25.9c0-1.9-1.6-3.5-3.5-3.5L33.6,182.2L33.6,182.2z"/>
		<circle cx="43.9" cy="166.9" r="2.4"/>
		<path d="M43.9,170.4c-1.9,0-3.5-1.6-3.5-3.5s1.6-3.5,3.5-3.5c1.9,0,3.5,1.6,3.5,3.5S45.8,170.4,43.9,170.4z M43.9,165.7
			c-0.7,0-1.2,0.5-1.2,1.2s0.5,1.2,1.2,1.2c0.7,0,1.2-0.5,1.2-1.2C45.1,166.2,44.5,165.7,43.9,165.7z"/>
		<circle class="st36" cx="43.1" cy="195.2" r="4.7"/>
		<path d="M43.1,201.1c-3.2,0-5.9-2.6-5.9-5.9s2.6-5.9,5.9-5.9c3.2,0,5.9,2.6,5.9,5.9S46.3,201.1,43.1,201.1z M43.1,191.6
			c-1.9,0-3.5,1.6-3.5,3.5s1.6,3.5,3.5,3.5c1.9,0,3.5-1.6,3.5-3.5S45,191.6,43.1,191.6z"/>
		<circle class="st36" cx="76" cy="195.2" r="4.7"/>
		<path d="M76,201.1c-3.2,0-5.9-2.6-5.9-5.9s2.6-5.9,5.9-5.9s5.9,2.6,5.9,5.9S79.3,201.1,76,201.1z M76,191.6
			c-1.9,0-3.5,1.6-3.5,3.5s1.6,3.5,3.5,3.5c1.9,0,3.5-1.6,3.5-3.5S78,191.6,76,191.6z"/>
		<rect x="51.3" y="203.4" class="st36" width="16.5" height="8.2"/>
		<path d="M67.8,212.8H51.3c-0.7,0-1.2-0.5-1.2-1.2v-8.2c0-0.7,0.5-1.2,1.2-1.2h16.5c0.7,0,1.2,0.5,1.2,1.2v8.2
			C69,212.3,68.5,212.8,67.8,212.8z M52.5,210.5h14.1v-5.9H52.5V210.5z"/>
		<path d="M56,212.8c-0.7,0-1.2-0.5-1.2-1.2v-8.2c0-0.7,0.5-1.2,1.2-1.2s1.2,0.5,1.2,1.2v8.2C57.2,212.3,56.7,212.8,56,212.8z"/>
		<path d="M59.6,212.8c-0.7,0-1.2-0.5-1.2-1.2v-8.2c0-0.7,0.5-1.2,1.2-1.2s1.2,0.5,1.2,1.2v8.2C60.7,212.3,60.2,212.8,59.6,212.8z"
			/>
		<path d="M63.1,212.8c-0.7,0-1.2-0.5-1.2-1.2v-8.2c0-0.7,0.5-1.2,1.2-1.2s1.2,0.5,1.2,1.2v8.2C64.3,212.3,63.7,212.8,63.1,212.8z"
			/>
	</g>
	<g id="labelBeer7">
		<circle id="bg_2_" class="st37" cx="59.3" cy="206.6" r="55"/>
		<text transform="matrix(1 0 0 1 43.0498 246.7051)" class="st6 st33">belgian ale</text>
		<text transform="matrix(1 0 0 1 26.2762 235.6738)" class="st8 st18">RUINED CHILDHOOD</text>
		<path class="st16" d="M35.1,205.6c-2.8,0-5.1,2.3-5.1,5.1v5c0,2.8,2.3,5.1,5.1,5.1h43.2c2.8,0,5.1-2.3,5.1-5.1v-5
			c0-2.8-2.3-5.1-5.1-5.1H35.1z"/>
		<path class="st16" d="M81,162.2c-3.9,0-7.1,3.2-7.1,7.1c0,3.9,3.2,7.1,7.1,7.1c3.9,0,7.1-3.2,7.1-7.1
			C88.1,165.4,84.9,162.2,81,162.2z"/>
		<path class="st38" d="M80,202c0-7-3.3-11.7-6.2-15.9c-1.1-1.6-2.2-3.2-3-4.7c-0.8-1.6-0.8-3,0.1-4.2c0.5-0.7,1.1-1.1,1.5-1.4
			c-1.4-1.8-2.2-4-2.2-6.5c0-1.5,0.3-2.8,0.8-4.1c-3.4,0-12.6,0.5-20.9,5.2c-4.9,2.8-8.8,6.5-11.5,11.1c-3.3,5.6-5,12.4-5,20.4H80z"
			/>
	</g>
	<g id="labelBeer8">
		<circle id="bg_3_" class="st39" cx="59.3" cy="206.6" r="55"/>
		<text transform="matrix(1 0 0 1 44.0498 245.7051)" class="st6 st33">belgian ale</text>
		<text transform="matrix(1 0 0 1 39.9624 234.6738)" class="st8 st18">SLEIGHRIDE</text>
		<g>
			<path class="st40" d="M52.7,170c-1-1-2.4-1.6-3.9-1.6c-1.5,0-2.8,0.6-3.9,1.6c-1,1-1.6,2.4-1.6,3.9c0,1.5,0.6,2.8,1.6,3.9
				c1,1,2.4,1.6,3.9,1.6s2.8-0.6,3.9-1.6C54.9,175.6,54.9,172.2,52.7,170z"/>
		</g>
		<path class="st41" d="M80.4,200l-19.6-19.6c-0.9-0.9-2-1.3-3.2-1.3c-1.2,0-2.4,0.5-3.2,1.3c-1.8,1.8-1.8,4.7,0,6.4L74,206.4
			c0.9,0.9,2,1.3,3.2,1.3c0,0,0,0,0,0c1.2,0,2.4-0.5,3.2-1.3C82.2,204.7,82.2,201.8,80.4,200z"/>
		<g>
			<path class="st40" d="M77.5,219.2C77.5,219.2,77.5,219.2,77.5,219.2c-2.6,0-5-1-6.8-2.8L34,179.8c-0.6-0.6-0.6-1.6,0-2.2
				c0.6-0.6,1.6-0.6,2.2,0l36.6,36.6c1.2,1.2,2.9,1.9,4.7,1.9c1.8,0,3.4-0.7,4.7-1.9c0.6-0.6,1.6-0.6,2.2,0c0.6,0.6,0.6,1.6,0,2.2
				C82.5,218.2,80,219.2,77.5,219.2z"/>
		</g>
	</g>
	<g id="labelBeer9">
		<circle id="bg_4_" class="st42" cx="59.3" cy="206.6" r="55"/>
		<text transform="matrix(1 0 0 1 31.0498 248.7051)" class="st6 st33">california common</text>
		<text transform="matrix(1 0 0 1 38.9624 237.6738)" class="st8 st18">STEAMPUNK</text>
		<g>
			<g>
				<path d="M73.3,191.2c-1.4-6.1-6.2-10.9-12.3-12.3c-5.1-1.1-10.2,0-14.2,3.2c-3.9,3.1-6.1,7.6-6.2,12.5l-3.5,7
					c-0.3,0.6-0.3,1.2,0.1,1.8c0.3,0.5,0.9,0.9,1.6,0.9h1.8v1.8c0,3,2.5,5.5,5.5,5.5h1.8v9.2c0,1.2,1.2,2.1,2.3,1.8L65,219
					c0.8-0.2,1.4-0.9,1.4-1.8v-8.3C72.1,205.1,74.9,198.1,73.3,191.2z M59,204.3c-3,0-5.5-2.5-5.5-5.5c0-1,0.8-1.8,1.8-1.8
					c1,0,1.8,0.8,1.8,1.8c0,1,0.8,1.8,1.8,1.8c1,0,1.8-0.8,1.8-1.8c0-1,0.8-1.8,1.8-1.8c1,0,1.8,0.8,1.8,1.8
					C64.5,201.9,62,204.3,59,204.3z"/>
			</g>
		</g>
		<g>
			<g>
				<path d="M90.7,193.3l-11.8-2.5l9.9-6.8c0.7-0.5,1-1.4,0.7-2.2c-0.3-0.8-1.2-1.3-2-1.1l-11.9,2.2l6.6-10.1
					c0.5-0.7,0.4-1.7-0.2-2.3c-0.6-0.6-1.6-0.7-2.3-0.2l-10.1,6.6l2.2-11.9c0.2-0.9-0.3-1.7-1.1-2c-0.8-0.3-1.7-0.1-2.2,0.7
					l-6.8,9.9l-2.5-11.8c-0.2-0.8-0.9-1.5-1.8-1.5c-0.9,0-1.6,0.6-1.8,1.5l-2.5,11.8l-6.8-9.9c-0.5-0.7-1.4-1-2.2-0.7
					c-0.8,0.3-1.3,1.2-1.1,2l2.2,11.9l-10.1-6.6c-0.7-0.5-1.7-0.4-2.3,0.2c-0.6,0.6-0.7,1.6-0.2,2.3l7.7,11.9c1.2-2,2.8-3.8,4.7-5.3
					c3.6-2.8,8.1-4.4,12.7-4.4c1.6,0,3.1,0.2,4.7,0.5c7.4,1.7,13.3,7.6,15,15c1.4,6,0,12-3.4,16.6l13.9,2.6c0.1,0,0.2,0,0.3,0
					c0.7,0,1.4-0.4,1.7-1.1c0.3-0.8,0.1-1.7-0.7-2.2l-9.9-6.8l11.8-2.5c0.8-0.2,1.5-0.9,1.5-1.8C92.2,194.3,91.6,193.5,90.7,193.3z"
					/>
			</g>
		</g>
	</g>
</g>
</svg>
