<?xml version="1.0" encoding="utf-8"?>
<!-- Generator: Adobe Illustrator 22.1.0, SVG Export Plug-In . SVG Version: 6.00 Build 0)  -->
<svg version="1.1" id="Layer_1" xmlns="http://www.w3.org/2000/svg" xmlns:xlink="http://www.w3.org/1999/xlink" x="0px" y="0px"
	 viewBox="0 0 118.3 311.9" style="enable-background:new 0 0 118.3 311.9;" xml:space="preserve">
<style type="text/css">
	.st0{fill:#F4F7DC;}
	.st1{fill:#3D4B50;}
	.st2{fill:#93A4AE;}
	.st3{fill:#BCB8B1;}
	.st4{fill:#232B2E;}
	.st5{fill:#FBC333;}
	.st6{enable-background:new    ;}
	.st7{fill:#351D02;}
	.st8{fill:#BD2233;}
	.st9{fill:#F59332;}
	.st10{fill:#FEF035;}
	.st11{fill:#17A453;}
	.st12{fill:#1DAFEC;}
	.st13{fill:#FFFFFF;}
	.st14{fill:#FF0093;}
	.st15{fill:#E8C89A;}
	.st16{fill:#7C201C;}
	.st17{fill:#B3703D;}
	.st18{fill:#683D1F;}
	.st19{fill:#FFFFFE;}
	.st20{fill:#DC2A26;}
	.st21{fill:#E3BF9A;}
	.st22{fill:#A8D1D8;}
	.st23{fill:#2E2B2C;}
	.st24{fill:#99B755;}
	.st25{fill:#FFCE54;}
	.st26{fill:#F6BB42;}
	.st27{fill:#ED5565;}
	.st28{fill:#1AA2E1;}
	.st29{fill:#E7BB40;}
	.st30{fill:#8E131F;}
	.st31{fill:#21B744;}
	.st32{fill:#BA1C1C;}
	.st33{fill:#C41A2F;}
	.st34{fill:#FFCD00;}
	.st35{fill:#00DBCD;}
	.st36{fill:#C9F249;}
</style>
<g id="hand">
	<rect id="top" x="40.2" y="137.6" class="st0" width="38" height="16.7"/>
	<path id="long-tap" class="st0" d="M72.8,296.9H41.7c0.4-5.9,0.6-12.2,0.6-18.8c0-6-0.2-11.8-0.6-17.2h31.1
		c-0.4,5.7-0.6,11.8-0.6,18.3C72.2,285.4,72.4,291.3,72.8,296.9z"/>
	<circle id="circle" class="st1" cx="59.2" cy="206.7" r="59.2"/>
	<rect id="short" x="54.5" y="121.6" class="st2" width="9.3" height="16"/>
	<path id="tap" class="st2" d="M79.6,311.9H34.9c-0.1-4.4,0.4-8.9,1.5-13.2c0.2-0.8,0.4-1.5,0.6-2.2c13.2-2.4,26.7-2.3,39.9,0.1
		c0.3,0.7,0.6,1.5,0.9,2.2C79.3,303,79.9,307.4,79.6,311.9z"/>
	<circle id="brand" class="st3" cx="59.3" cy="206.6" r="55"/>
	<path id="handle" class="st4" d="M35.8,2.8l13.7,126.7l18.6-0.3L78.8,0.6C64.4-0.7,49.9,0.1,35.8,2.8z"/>
</g>
<g id="keg">
	<g id="labelBeer0">
		<circle id="elipse" class="st1" cx="59.3" cy="206.2" r="59.2"/>
		<circle id="brand-2" class="st5" cx="59.3" cy="206.6" r="55"/>
		<g class="st6">
			<path d="M46.1,249.2v1.5h-0.6v-3.8h0.6v1.6c0.1-0.2,0.2-0.3,0.4-0.4s0.3-0.1,0.5-0.1c0.3,0,0.6,0.1,0.7,0.3s0.3,0.5,0.3,0.8v1.7
				h-0.6v-1.5c0-0.5-0.2-0.8-0.6-0.8c-0.2,0-0.4,0.1-0.5,0.2C46.1,248.8,46.1,249,46.1,249.2z"/>
			<path d="M51.4,249.6h-2.1c0,0.2,0.1,0.4,0.3,0.5c0.2,0.1,0.4,0.2,0.6,0.2c0.3,0,0.6-0.1,0.8-0.3l0.3,0.4
				c-0.3,0.3-0.7,0.5-1.2,0.5c-0.4,0-0.7-0.1-1-0.4c-0.3-0.3-0.4-0.6-0.4-1s0.1-0.8,0.4-1c0.3-0.3,0.6-0.4,1-0.4s0.7,0.1,0.9,0.3
				s0.4,0.5,0.4,0.9V249.6z M49.2,249.1h1.6c0-0.2-0.1-0.4-0.2-0.5c-0.1-0.1-0.3-0.2-0.5-0.2c-0.2,0-0.4,0.1-0.6,0.2
				C49.3,248.7,49.2,248.9,49.2,249.1z"/>
			<path d="M52.7,247.7v0.2h0.7v0.5h-0.7v2.3h-0.6v-2.3h-0.3V248h0.3v-0.2c0-0.3,0.1-0.5,0.3-0.7c0.2-0.2,0.4-0.3,0.6-0.3
				c0.2,0,0.5,0.1,0.7,0.3l-0.2,0.4c-0.1-0.1-0.2-0.2-0.4-0.2c-0.1,0-0.2,0-0.3,0.1C52.7,247.5,52.7,247.6,52.7,247.7z"/>
			<path d="M56.5,249.6h-2.1c0,0.2,0.1,0.4,0.3,0.5c0.2,0.1,0.4,0.2,0.6,0.2c0.3,0,0.6-0.1,0.8-0.3l0.3,0.4
				c-0.3,0.3-0.7,0.5-1.2,0.5c-0.4,0-0.7-0.1-1-0.4c-0.3-0.3-0.4-0.6-0.4-1s0.1-0.8,0.4-1c0.3-0.3,0.6-0.4,1-0.4s0.7,0.1,0.9,0.3
				s0.4,0.5,0.4,0.9V249.6z M54.4,249.1h1.6c0-0.2-0.1-0.4-0.2-0.5c-0.1-0.1-0.3-0.2-0.5-0.2c-0.2,0-0.4,0.1-0.6,0.2
				C54.4,248.7,54.4,248.9,54.4,249.1z"/>
			<path d="M58.4,250.7h-0.7l-0.9-2.7h0.6l0.7,2.1l0.7-2.1h0.6L60,250l0.7-2.1h0.6l-0.9,2.7h-0.7l-0.6-1.9L58.4,250.7z"/>
			<path d="M64.4,249.6h-2.1c0,0.2,0.1,0.4,0.3,0.5c0.2,0.1,0.4,0.2,0.6,0.2c0.3,0,0.6-0.1,0.8-0.3l0.3,0.4
				c-0.3,0.3-0.7,0.5-1.2,0.5c-0.4,0-0.7-0.1-1-0.4c-0.3-0.3-0.4-0.6-0.4-1s0.1-0.8,0.4-1c0.3-0.3,0.6-0.4,1-0.4
				c0.4,0,0.7,0.1,0.9,0.3c0.3,0.2,0.4,0.5,0.4,0.9V249.6z M62.2,249.1h1.6c0-0.2-0.1-0.4-0.2-0.5s-0.3-0.2-0.5-0.2
				c-0.2,0-0.4,0.1-0.6,0.2C62.3,248.7,62.2,248.9,62.2,249.1z"/>
			<path d="M65,247.4c-0.1-0.1-0.1-0.2-0.1-0.3s0-0.2,0.1-0.3c0.1-0.1,0.2-0.1,0.3-0.1c0.1,0,0.2,0,0.3,0.1c0.1,0.1,0.1,0.2,0.1,0.3
				s0,0.2-0.1,0.3c-0.1,0.1-0.2,0.1-0.3,0.1C65.2,247.5,65.1,247.5,65,247.4z M65.6,250.7H65V248h0.6V250.7z"/>
			<path d="M68.3,249.9c0,0.3-0.1,0.5-0.3,0.6c-0.2,0.2-0.4,0.2-0.7,0.2c-0.2,0-0.4,0-0.6-0.1c-0.2-0.1-0.4-0.2-0.6-0.3l0.3-0.4
				c0.3,0.2,0.6,0.4,0.9,0.4c0.1,0,0.2,0,0.3-0.1c0.1-0.1,0.1-0.1,0.1-0.2c0-0.1-0.2-0.3-0.5-0.4c0,0,0,0-0.1,0
				c-0.6-0.2-0.9-0.4-0.9-0.8c0-0.3,0.1-0.5,0.3-0.6s0.5-0.2,0.8-0.2c0.3,0,0.6,0.1,0.9,0.3l-0.2,0.4c-0.2-0.1-0.5-0.2-0.7-0.2
				c-0.1,0-0.2,0-0.3,0.1c-0.1,0-0.1,0.1-0.1,0.2c0,0.1,0,0.2,0.1,0.2c0.1,0,0.1,0.1,0.3,0.1c0.1,0,0.2,0.1,0.3,0.1
				c0.1,0,0.2,0.1,0.2,0.1c0.1,0,0.2,0.1,0.3,0.1C68.2,249.4,68.3,249.6,68.3,249.9z"/>
			<path d="M71.5,249.6h-2.1c0,0.2,0.1,0.4,0.3,0.5c0.2,0.1,0.4,0.2,0.6,0.2c0.3,0,0.6-0.1,0.8-0.3l0.3,0.4
				c-0.3,0.3-0.7,0.5-1.2,0.5c-0.4,0-0.7-0.1-1-0.4s-0.4-0.6-0.4-1s0.1-0.8,0.4-1c0.3-0.3,0.6-0.4,1-0.4c0.4,0,0.7,0.1,0.9,0.3
				c0.3,0.2,0.4,0.5,0.4,0.9V249.6z M69.4,249.1H71c0-0.2-0.1-0.4-0.2-0.5c-0.1-0.1-0.3-0.2-0.5-0.2s-0.4,0.1-0.6,0.2
				C69.5,248.7,69.4,248.9,69.4,249.1z"/>
			<path d="M73.6,248.5c-0.3,0-0.5,0.1-0.6,0.3c-0.1,0.2-0.2,0.4-0.2,0.7v1.2h-0.6V248h0.6v0.5c0.1-0.2,0.2-0.3,0.4-0.4
				s0.3-0.2,0.5-0.2L73.6,248.5C73.6,248.5,73.6,248.5,73.6,248.5z"/>
		</g>
		<g class="st6">
			<path d="M45.2,234.1c0,0.1,0,0.2-0.2,0.2h-2.9v2.3h2.2c0.1,0,0.2,0.1,0.2,0.2v1.2c0,0.1-0.1,0.2-0.2,0.2h-2.2v2.4H45
				c0.1,0,0.2,0.1,0.2,0.2v1.2c0,0.1,0,0.2-0.2,0.2h-4.3c-0.1,0-0.2-0.1-0.2-0.2v-9c0-0.1,0.1-0.2,0.2-0.2H45c0.1,0,0.2,0.1,0.2,0.2
				V234.1z"/>
			<path d="M48,240.6h2.8c0.1,0,0.2,0.1,0.2,0.2v1.2c0,0.1-0.1,0.2-0.2,0.2h-4.2c-0.1,0-0.2-0.1-0.2-0.2v-9c0-0.1,0.1-0.2,0.2-0.2
				h1.2c0.1,0,0.2,0.1,0.2,0.2V240.6z"/>
			<path d="M58.2,232.9c0-0.1,0.1-0.2,0.2-0.2h1.2c0.1,0,0.2,0.1,0.2,0.2v9c0,0.1-0.1,0.2-0.2,0.2h-1.2c-0.1,0-0.2-0.1-0.2-0.2v-3.7
				h-1.5v3.7c0,0.1-0.1,0.2-0.2,0.2h-1.2c-0.1,0-0.2-0.1-0.2-0.2v-9c0-0.1,0.1-0.2,0.2-0.2h1.2c0.1,0,0.2,0.1,0.2,0.2v3.7h1.5V232.9
				z"/>
			<path d="M65.6,234.1c0,0.1,0,0.2-0.2,0.2h-2.9v2.3h2.2c0.1,0,0.2,0.1,0.2,0.2v1.2c0,0.1-0.1,0.2-0.2,0.2h-2.2v2.4h2.9
				c0.1,0,0.2,0.1,0.2,0.2v1.2c0,0.1,0,0.2-0.2,0.2h-4.3c-0.1,0-0.2-0.1-0.2-0.2v-9c0-0.1,0.1-0.2,0.2-0.2h4.3
				c0.1,0,0.2,0.1,0.2,0.2V234.1z"/>
			<path d="M71.5,234.1c0,0.1-0.1,0.2-0.2,0.2h-2.9v2.4h2.2c0.1,0,0.2,0.1,0.2,0.2v1.2c0,0.1-0.1,0.2-0.2,0.2h-2.2v3.7
				c0,0.1-0.1,0.2-0.2,0.2H67c-0.1,0-0.2-0.1-0.2-0.2v-9c0-0.1,0.1-0.2,0.2-0.2h4.3c0.1,0,0.2,0.1,0.2,0.2V234.1z"/>
			<path d="M77.3,234.1c0,0.1,0,0.2-0.2,0.2h-2.9v2.3h2.2c0.1,0,0.2,0.1,0.2,0.2v1.2c0,0.1-0.1,0.2-0.2,0.2h-2.2v2.4h2.9
				c0.1,0,0.2,0.1,0.2,0.2v1.2c0,0.1,0,0.2-0.2,0.2h-4.3c-0.1,0-0.2-0.1-0.2-0.2v-9c0-0.1,0.1-0.2,0.2-0.2h4.3
				c0.1,0,0.2,0.1,0.2,0.2V234.1z"/>
		</g>
		<path class="st7" d="M84.1,228.2c-0.6-2.1-1.5-4.5-2.9-7c-0.6-1.1-1.1-2-1.7-2.9c-0.5-0.5-1-1-1.7-1.5c-1.1-0.8-2.1-1.4-3-1.8
			c0.1-1.6,0.2-3.2,0.3-4.9c0-0.6,0.1-1.3,0.1-1.9c-0.7,0-1.6,0-2.7,0.2c-0.9,0.2-1.8,0.7-2.7,0.8c0.1-1.4,0.1-2.7,0.1-4.2
			c-0.1-1.2,0.8-2,1.3-3.1c0.9-1.9,1.7-3.7,2.3-5.3c1.1-2.3,2.3-4.6,3.4-6.8c1.8-1,3.6-2,5.4-3c0.6-0.3,1.1-0.7,1.7-1
			c1.1-0.7,4.3-2.8,5.1-6.7c0.2-0.7,0.2-1.4,0.2-2c0,0.2-1.4,0.9-1.6,1c-0.7,0.4-1.3,0.7-2,1c-1.6,0.6-3.3,1-5,1.2
			c-0.1,0-0.1,0-0.2,0s-0.1-0.1-0.1-0.2c-0.4-1.1-0.9-2.1-1.3-3.2c-1-2.6-2-5.2-2.9-7.7c-0.1-0.9-0.4-2.1-1-3.4
			c-0.4-0.9-0.8-1.6-1.2-2.2c-0.6-0.5-3.2-2.4-7-2.1c-3.7,0.3-5.9,2.5-6.5,3c-0.7,0.6-1.6,1.5-2.4,2.6c-1.3,1.8-2,3.5-2.4,4.8
			c-0.7-0.5-1.9-1.3-3.5-1.7c-1.1-0.3-2.1-0.4-2.9-0.4c-0.8,0.2-3.1,0.8-4.9,3c-1.4,1.7-1.8,3.5-1.9,4.3c0.1,1.2,0.5,2.7,1.2,4.4
			c1,2.3,2.3,3.9,3.2,4.9c2.3,2.2,4.6,4.3,7,6.5c0.3,2,0.4,4.7-0.2,7.8c-0.3,1.3-0.6,2.6-1,3.6c-1.3,1.5-2.6,3-4,4.6
			c-0.1,0.1-0.2,0.2-0.3,0.2c-0.1,0.1-0.2,0.1-0.3,0.1c-2.5,0.3-4.9,0.7-7.4,1.5c-2.3,0.8-4.7,1.7-6.7,3.1c-1.1,0.8-1.7,2-2.2,3.3
			c-0.6,1.7-1.2,3.3-1.7,5.1c-0.1,0.5-1.2,6.2-1.2,6.2C47.5,228.2,65.8,228.2,84.1,228.2z"/>
	</g>
	<g id="labelBeer1">
		<g id="Rainbow">
			<circle id="circle-2" class="st8" cx="59.3" cy="206.6" r="55"/>
			<circle id="circle-3" class="st9" cx="59.3" cy="207.8" r="52.2"/>
			<ellipse id="circle-4" class="st10" cx="59.6" cy="209.8" rx="50.2" ry="49"/>
			<ellipse id="circle-5" class="st11" cx="59.3" cy="211.8" rx="48.2" ry="47"/>
			<ellipse id="circle-6" class="st12" cx="59.8" cy="213" rx="46.1" ry="43.4"/>
			<ellipse id="circle-7" class="st13" cx="59.7" cy="217.2" rx="45" ry="43.9"/>
		</g>
		<path class="st14" d="M92.4,171.1l-12.7,12.7c0.1-0.1,3.8,3.1,4.2,3.4c0.1,0.1,0.3,0.2,0.4,0.3c0.2,0,0.3,0,0.5,0
			c1.5-0.2,3-0.3,4.5-0.5c0.1,0,0.2,0,0.2,0c0.1,0,0.1,0.1,0.2,0.2c0.4,0.6,1.1,1.6,1,2.4c-0.5-0.3-0.9-0.8-1.3-1.2
			c-0.1-0.1-0.1-0.1-0.2-0.2c-0.1-0.1-0.3,0-0.4,0c-1.9,0.3-3.8,0.6-5.7,0.8c0.3,0,2.7,5.1,3,5.6c0.2,0.3,1.8,0,2.1,0.1
			c-0.1,0.5-0.4,1.1-0.7,1.5c-0.3,0.4-4.8-1.6-5.4-1.6c2.8,4,5.6,8,8.4,12c0.1,0.1,0.1,0.2,0.2,0.2c0.1,0.1,0.2,0.1,0.3,0.1
			c0.5,0,0.9,0,1.4,0c0.2,0.5,0.3,0.9,0.5,1.4c0,0.1,0.1,0.2,0.1,0.4s-0.1,0.3-0.2,0.5c-0.7,1.2-1,2.7-1.4,4c0,0.1-0.1,0.2-0.1,0.3
			c-0.3,0.4-1.7,0.5-2.1,0.6c-0.2,0-0.3,0.1-0.4,0.2c-1,0.7-1.3,1.6-2.7,1.7c-1.6,0.2-3.3,0.1-4.9,0.1c-0.2,0-0.4,0-0.5-0.1
			c-0.2-0.1-0.2-0.4-0.3-0.6c-0.5-2.6-2.1-5.1-4.2-6.7c-0.5-0.4-1.1-0.8-1.7-0.9c-2-0.6-4.7-0.4-6.8-0.5c0.6,3.6,1.2,7.1,1.9,10.7
			c3.2,3.7,7.3,7.8,12.4,11.9c6.7,5.3,13.2,9.1,18.5,11.6c-1.6,1.7-4,4.1-6.9,7c-1.8,1.7-2.6,2.6-3.3,3.1c-0.9,0.8-3.7,3-10.5,5.8
			c-3.7,1.5-6.3,2.6-10.2,3.3c-6.2,1.3-11.1,0.7-16.1,0.4c-1.2-0.1-3-0.3-5.1-0.8c-1.8-0.5-3.1-1-5.6-2.1c-1.4-0.6-3.8-1.6-7.2-3.1
			c-1.6-1.1-3.3-2.2-4.9-3.5c-1.5-1.1-2.9-2.2-4.3-3.3c-0.5-0.4-2.3-2-4.5-4.2c-1-1.1-1.9-2.2-3.6-4.3c-4.2-5.2-4.6-6.1-4.3-6.7
			c0.3-0.5,1.4-0.7,3.6-1.1c1.8-0.3,3.3-0.4,4.4-0.5c0.2-0.2,3.8-4.1,3.9-4.6c0-0.1,0-0.2,0-0.3c-0.1-0.1-0.2-0.2-0.3-0.3
			c-2.2-1.5-4.3-3-6.5-4.5c1.3,0.9,4,0.2,5.2-0.5c1.8-1.1,3-3.2,3.1-5.3c0-0.1,0-0.3-0.1-0.4c-0.1-0.1-0.2-0.2-0.3-0.3
			c-1-0.7-2.3-1.1-3.5-0.8c0.2,0,1.6-2.3,1.8-2.6c0.7-0.9,1.5-1.9,1.9-3.1c0.3-0.9,0.5-1.9,0-2.7c-0.4-0.6-1-0.9-1.7-1.1
			c-0.5-0.2-3.5-0.5-3.7-1c-0.1-0.6,1-0.4,1.3-0.5c0.9-0.1,1.7-0.3,2.6-0.5c1.7-0.4,3.4-1.1,4.8-2.3c0.5-0.5,1-1,1.5-1.5
			c1-1,2.1-1.9,3.3-2.6c-0.1,0.1-1.9-2.7-2-2.9c-0.5-1-1-1.9-1.3-2.7c-0.1-1.2,0-3,0.6-5c0.4-1.3,0.9-2.3,1.3-3.1
			c0.1,0.9,0.2,1.7,0.3,2.6c0.1,0.3,0.4,0.7,0.8,1.1c0.6,0.6,1.2,0.8,1.5,1c1.1,0.3,2.2,0.5,3.5,0.6c0.7,0.1,1.4,0.2,2,0.2
			c0.5,0,1.3,0,2.3-0.5s1.5-1.1,1.8-1.5c-0.2-0.1-0.6-0.2-0.9-0.5c-0.5-0.4-0.8-0.8-0.9-1.1c-0.3-0.3-0.6-0.7-1.1-1.1
			c-0.8-0.6-1.7-0.9-2.6-1.1c1.8-0.5,3.7-0.4,5.4,0.2c0.4,0.1,0.8,0.3,1.3,0.3c0.6,0,1.1-0.3,1.6-0.5c1.3-0.5,2.8-0.7,4.2-0.5
			c0.5,0.1,1.8,0.7,2.2,0.6c0.4-0.1,0.7-1.3,0.9-1.7c0.3-0.5,0.6-1,0.9-1.3c0.1-0.1,0.3-0.4,0.8-0.5c0.4-0.1,0.8-0.1,1,0
			c-0.1,0.1-0.4,0.4-0.5,0.8c-0.1,0.4,0,0.8,0.1,0.9c0.2,0.1,0.6,0.4,1.2,0.4c0.5,0,0.9-0.1,1.1-0.2c0-1.3,0.1-2.7,0.3-4.2
			s0.4-2.8,0.6-4c1,0.8,2,1.7,3.1,2.7c1.1,1.1,2.2,2.1,3.1,3.2c0.9-0.1,2-0.1,3.1,0.1c1.3,0.1,2.5,0.4,3.4,0.6
			c0.3-0.1,0.8-0.1,1.3-0.3s0.8-0.4,1.1-0.6c0.2-0.3,0.3-0.7,0.5-1c0,0,0-0.6-0.6-0.9c-0.4-0.2-0.8-0.1-0.8-0.1
			c0.1-0.1,0.3-0.5,0.9-0.6c0.5-0.1,0.9,0.2,1,0.2s0.4,0.2,0.5,0.7c0.1,0.4,0,0.7-0.1,0.8C82.9,175.5,87.6,173.3,92.4,171.1z"/>
		<g class="st6">
			<path d="M35.9,241.3c0,0.1-0.1,0.1-0.1,0.1h-2.2v1.8h1.7c0.1,0,0.1,0.1,0.1,0.1v0.9c0,0.1-0.1,0.1-0.1,0.1h-1.7v2.8
				c0,0.1-0.1,0.1-0.1,0.1h-0.9c-0.1,0-0.1-0.1-0.1-0.1v-6.8c0-0.1,0-0.1,0.1-0.1h3.2c0.1,0,0.1,0.1,0.1,0.1V241.3z"/>
			<path d="M39.2,247.3c-0.1,0-0.1,0-0.1-0.1l-0.2-1.3h-1.6l-0.2,1.3c0,0.1-0.1,0.1-0.1,0.1h-0.9c-0.1,0-0.1-0.1-0.1-0.1l1.5-6.8
				c0-0.1,0.1-0.1,0.1-0.1h1.2c0.1,0,0.1,0,0.1,0.1l1.5,6.8c0,0.1,0,0.1-0.1,0.1H39.2z M38.1,241.8l-0.6,3.1h1.1L38.1,241.8z"/>
			<path d="M42.1,240.3c0.1,0,0.1,0.1,0.1,0.1v6.8c0,0.1-0.1,0.1-0.1,0.1h-0.9c-0.1,0-0.1-0.1-0.1-0.1v-6.8c0-0.1,0-0.1,0.1-0.1
				H42.1z"/>
			<path d="M46.8,243.7c0,0.6-0.2,1-0.6,1.2l0.6,2.3c0,0.1,0,0.2-0.1,0.2h-0.9c-0.1,0-0.1,0-0.1-0.1l-0.6-2.2h-0.6v2.2
				c0,0.1-0.1,0.1-0.1,0.1h-0.9c-0.1,0-0.1-0.1-0.1-0.1v-6.8c0-0.1,0.1-0.1,0.1-0.1h2.2c0.8,0,1.3,0.4,1.3,1.3V243.7z M45.2,243.8
				c0.2,0,0.4-0.1,0.4-0.4v-1.7c0-0.2-0.1-0.4-0.4-0.4h-0.9v2.4H45.2z"/>
			<path d="M51.4,240.3c0.1,0,0.2,0.1,0.1,0.2l-1.6,3.9v2.7c0,0.1-0.1,0.2-0.2,0.2h-0.8c-0.1,0-0.2-0.1-0.2-0.2v-2.7l-1.6-3.9
				c-0.1-0.1,0-0.2,0.1-0.2h0.9c0.1,0,0.2,0,0.2,0.1l1,2.5l1-2.5c0-0.1,0.1-0.1,0.2-0.1H51.4z"/>
			<path d="M57.6,240.3c0.1,0,0.1,0.1,0.1,0.1v0.9c0,0.1,0,0.1-0.1,0.1h-1v5.7c0,0.1,0,0.1-0.1,0.1h-0.9c-0.1,0-0.1,0-0.1-0.1v-5.7
				h-1c-0.1,0-0.1-0.1-0.1-0.1v-0.9c0-0.1,0.1-0.1,0.1-0.1H57.6z"/>
			<path d="M61,247.3c-0.1,0-0.1,0-0.1-0.1l-0.2-1.3H59l-0.2,1.3c0,0.1-0.1,0.1-0.1,0.1h-0.9c-0.1,0-0.1-0.1-0.1-0.1l1.5-6.8
				c0-0.1,0.1-0.1,0.2-0.1h1.2c0.1,0,0.1,0,0.1,0.1l1.5,6.8c0,0.1,0,0.1-0.1,0.1H61z M59.8,241.8l-0.6,3.1h1.1L59.8,241.8z"/>
			<path d="M64,246.1h2.1c0.1,0,0.1,0.1,0.1,0.1v0.9c0,0.1,0,0.1-0.1,0.1H63c-0.1,0-0.1,0-0.1-0.1v-6.8c0-0.1,0.1-0.1,0.1-0.1h0.9
				c0.1,0,0.1,0.1,0.1,0.1V246.1z"/>
			<path d="M70.5,241.3c0,0.1,0,0.2-0.1,0.2h-2.2v1.8h1.7c0.1,0,0.1,0.1,0.1,0.1v0.9c0,0.1-0.1,0.1-0.1,0.1h-1.7v1.8h2.2
				c0.1,0,0.1,0,0.1,0.1v0.9c0,0.1,0,0.1-0.1,0.1h-3.2c-0.1,0-0.1-0.1-0.1-0.1v-6.8c0-0.1,0.1-0.1,0.1-0.1h3.2
				c0.1,0,0.1,0.1,0.1,0.1V241.3z"/>
			<path d="M76.9,247.3c-0.1,0-0.1,0-0.1-0.1l-0.2-1.3h-1.6l-0.2,1.3c0,0.1-0.1,0.1-0.1,0.1h-0.9c-0.1,0-0.1-0.1-0.1-0.1l1.5-6.8
				c0-0.1,0.1-0.1,0.2-0.1h1.2c0.1,0,0.1,0,0.1,0.1l1.5,6.8c0,0.1,0,0.1-0.1,0.1H76.9z M75.7,241.8l-0.6,3.1h1.1L75.7,241.8z"/>
			<path d="M79.9,246.1H82c0.1,0,0.1,0.1,0.1,0.1v0.9c0,0.1,0,0.1-0.1,0.1h-3.2c-0.1,0-0.1,0-0.1-0.1v-6.8c0-0.1,0.1-0.1,0.1-0.1
				h0.9c0.1,0,0.1,0.1,0.1,0.1V246.1z"/>
			<path d="M86.4,241.3c0,0.1,0,0.2-0.1,0.2H84v1.8h1.7c0.1,0,0.1,0.1,0.1,0.1v0.9c0,0.1-0.1,0.1-0.1,0.1H84v1.8h2.2
				c0.1,0,0.1,0,0.1,0.1v0.9c0,0.1,0,0.1-0.1,0.1H83c-0.1,0-0.1-0.1-0.1-0.1v-6.8c0-0.1,0.1-0.1,0.1-0.1h3.2c0.1,0,0.1,0.1,0.1,0.1
				V241.3z"/>
		</g>
	</g>
	<g id="labelBeer2">
		<circle id="brand-3" class="st15" cx="59.3" cy="206.6" r="55"/>
		<path class="st16" d="M54.4,171.7c0.1,0.4,0.2,0.9,0.3,1.5c0.1,1-0.1,1.8-0.3,2.3c-0.2,0.6-0.6,1.3-1,2.1c-0.6,1-1.2,1.9-1.8,2.6
			c-0.1,0-0.5,0.1-0.9-0.2c-0.2-0.1-0.3-0.3-0.3-0.4c-0.2-0.4-0.4-1-0.6-1.7c-0.2-0.8-0.2-1.5-0.2-2c0-0.7,0-1.4,0-2.1
			c0-0.5,0.2-1.2,0.5-2c0.5-1.3,1.3-2.1,1.8-2.5c0.4-0.8,1.2-2.1,2.7-3.3c1.6-1.3,3.1-1.7,4-2c1,0,2.3,0,3.9,0.4
			c1.4,0.3,2.6,0.8,3.4,1.3c0.9,0.6,2.2,1.6,3.3,3.3c0.7,1.1,1.1,2.2,1.4,3c0.4,1,0.8,2.5,0.8,4.3c0,2.1-0.4,3.9-0.8,4.9
			c-0.6,1.2-1.3,2.5-2.3,4s-2.1,2.7-3.1,3.7c-0.9,0.7-1.8,1.4-2.8,2c-1.7,1.1-3.3,2-4.8,2.8c-1.2,0.9-2.5,2.1-3.8,3.6
			c-1.5,1.7-2.6,3.3-3.3,4.7c-0.4,1-0.8,2.5-0.9,4.2c-0.1,1.2,0,2.3,0.2,3.1c0.5,0.9,1.3,2.2,2.5,3.4c1,1,2,1.6,2.8,2.1
			c0.9,0.3,2.1,0.7,3.6,0.8c1.8,0.2,3.3,0.1,4.4-0.1c0.7-0.2,1.6-0.6,2.6-1.2c1.2-0.8,1.9-1.8,2.4-2.4c0.4-0.6,0.8-1.6,1.1-2.8
			c0.2-1.3,0.1-2.4,0-3c0-0.6-0.2-1.6-0.7-2.7c-0.6-1.3-1.4-2.2-1.9-2.6c-0.6-0.4-1.4-1-2.5-1.4c-1.4-0.5-2.6-0.6-3.3-0.5
			c-0.6,0-1.5,0.1-2.4,0.5c-1.4,0.5-2.3,1.3-2.8,1.8c-0.5,0.6-1,1.3-1.5,1.9c-0.1-0.5-0.2-1.3,0.1-2.3c0.3-1.3,1.1-2.2,1.4-2.5
			c0.4-0.6,1.1-1.4,2.1-2.1c1.7-1.2,3.5-1.4,4.3-1.4c0.7,0,1.8,0,3.1,0.4c1.2,0.4,2.1,0.9,2.6,1.3c0.8,0.5,1.8,1.3,2.8,2.4
			c1,1.1,1.7,2.1,2.1,3c0.4,1.1,0.9,2.7,0.9,4.7c0.1,2.5-0.5,4.6-0.9,5.8c-0.3,0.8-0.8,1.9-1.7,3.1c-0.9,1.2-1.8,2-2.5,2.5
			c-0.8,0.4-1.7,0.8-2.7,1.2c-2,0.7-3.8,1-5.2,1.1c-1,0.1-2.3,0.2-3.8,0c-1.8-0.2-3.3-0.7-4.4-1.1c-1.1-0.7-2.7-1.9-4.1-3.7
			c-1.1-1.4-1.8-2.8-2.3-3.9c-0.3-1-0.7-2.3-0.8-3.9c-0.1-1.5,0-2.7,0.2-3.6c0.2-1,0.4-2.1,0.9-3.4c0.7-1.7,1.5-3.1,2.2-4
			c0.9-1.2,1.9-2.4,3.2-3.7c1-1,1.9-1.9,2.9-2.7c0.7-0.5,1.4-1.1,2.2-1.6c1.4-0.9,2.6-1.5,3.8-2c1.6-1.5,3.2-3,4.8-4.5
			c0.4-0.8,0.9-2,1.2-3.4c0.2-0.9,0.2-1.7,0.3-2.4c0-0.9-0.1-2.3-0.8-4c-0.4-0.9-0.9-1.7-1.3-2.2c-0.4-0.4-1.1-1-2.1-1.5
			c-0.6-0.3-1.1-0.4-1.6-0.5s-1.7-0.2-3,0.4c-0.9,0.4-1.4,0.9-1.7,1.3C55.3,170.5,54.8,171.1,54.4,171.7z"/>
		<g class="st6">
			<path d="M46.9,245.7h-0.6l-1.2-3.1h0.6l0.9,2.3l0.9-2.3h0.6L46.9,245.7z"/>
			<path d="M50.7,242.6v0.5h-1.6v0.8h1.5v0.5h-1.5v0.8h1.7v0.5h-2.2v-3.1H50.7z"/>
			<path d="M53.8,242.6h0.5v3.1h-0.6l-1.7-2.2v2.2h-0.5v-3.1H52l1.8,2.3V242.6z"/>
			<path d="M57.7,245.3c-0.3,0.3-0.7,0.5-1.2,0.5s-0.8-0.2-1.2-0.5c-0.3-0.3-0.5-0.7-0.5-1.1c0-0.5,0.2-0.8,0.5-1.1
				c0.3-0.3,0.7-0.5,1.2-0.5s0.8,0.2,1.2,0.5c0.3,0.3,0.5,0.7,0.5,1.1C58.2,244.6,58,245,57.7,245.3z M57.3,243.4
				c-0.2-0.2-0.5-0.3-0.8-0.3s-0.6,0.1-0.8,0.3c-0.2,0.2-0.3,0.5-0.3,0.8s0.1,0.6,0.3,0.8c0.2,0.2,0.5,0.3,0.8,0.3s0.6-0.1,0.8-0.3
				c0.2-0.2,0.3-0.5,0.3-0.8S57.6,243.6,57.3,243.4z"/>
			<path d="M59.4,245.7h-0.5v-3.1h0.8l0.9,1.9l0.9-1.9h0.8v3.1h-0.5v-2.4l-1.1,2.1h-0.3l-1.1-2.1V245.7z"/>
			<path d="M64.8,245l-0.3,0.7H64l1.4-3.1h0.6l1.4,3.1h-0.6l-0.3-0.7H64.8z M66.1,244.5l-0.6-1.3l-0.6,1.3H66.1z"/>
			<path d="M67.6,245.7v-3.1h0.5v2.6h1.4v0.5H67.6z"/>
			<path d="M72.3,242.6v0.5h-1.6v0.8h1.5v0.5h-1.5v0.8h1.7v0.5h-2.2v-3.1H72.3z"/>
		</g>
		<g class="st6">
			<path d="M47.5,230.3c0-0.8,0.4-1.3,1.3-1.3h1.2c0.8,0,1.3,0.4,1.3,1.3v0.9c0,0.1-0.1,0.1-0.1,0.1h-0.9c-0.1,0-0.1-0.1-0.1-0.1
				v-0.7c0-0.2-0.1-0.4-0.4-0.4H49c-0.2,0-0.4,0.1-0.4,0.4v4c0,0.2,0.1,0.4,0.4,0.4h0.6c0.2,0,0.4-0.1,0.4-0.4v-1.2h-0.5
				c-0.1,0-0.1-0.1-0.1-0.1v-0.9c0-0.1,0-0.1,0.1-0.1H51c0.1,0,0.1,0,0.1,0.1v2.4c0,0.8-0.4,1.3-1.3,1.3h-1.2
				c-0.8,0-1.3-0.4-1.3-1.3V230.3z"/>
			<path d="M53.1,229.1c0.1,0,0.1,0.1,0.1,0.1v6.8c0,0.1-0.1,0.1-0.1,0.1h-0.9c-0.1,0-0.1-0.1-0.1-0.1v-6.8c0-0.1,0-0.1,0.1-0.1
				H53.1z"/>
			<path d="M57.3,229.1c0.1,0,0.1,0.1,0.1,0.1v0.9c0,0.1,0,0.1-0.1,0.1h-1v5.7c0,0.1,0,0.1-0.1,0.1h-0.9c-0.1,0-0.1,0-0.1-0.1v-5.7
				h-1c-0.1,0-0.1-0.1-0.1-0.1v-0.9c0-0.1,0.1-0.1,0.1-0.1H57.3z"/>
			<path d="M60.5,229.2c0-0.1,0.1-0.1,0.1-0.1h0.9c0.1,0,0.1,0.1,0.1,0.1v6.8c0,0.1,0,0.1-0.1,0.1h-0.9c-0.1,0-0.1-0.1-0.1-0.1v-2.8
				h-1.1v2.8c0,0.1-0.1,0.1-0.1,0.1h-0.9c-0.1,0-0.1-0.1-0.1-0.1v-6.8c0-0.1,0-0.1,0.1-0.1h0.9c0.1,0,0.1,0.1,0.1,0.1v2.8h1.1V229.2
				z"/>
			<path d="M62.6,230.3c0-0.8,0.4-1.3,1.3-1.3h1c0.8,0,1.3,0.4,1.3,1.3v4.5c0,0.8-0.4,1.3-1.3,1.3h-1c-0.8,0-1.3-0.4-1.3-1.3V230.3z
				 M64.6,235c0.2,0,0.4-0.1,0.4-0.4v-4.1c0-0.2-0.1-0.4-0.4-0.4h-0.5c-0.2,0-0.4,0.1-0.4,0.4v4.1c0,0.2,0.1,0.4,0.4,0.4H64.6z"/>
			<path d="M67,229.2c0-0.1,0.1-0.1,0.1-0.1h2.1c0.8,0,1.3,0.4,1.3,1.3v2.1c0,0.8-0.4,1.3-1.3,1.3h-1.1v2.2c0,0.1,0,0.1-0.1,0.1
				h-0.9c-0.1,0-0.1-0.1-0.1-0.1V229.2z M69,232.6c0.2,0,0.4-0.1,0.4-0.4v-1.7c0-0.2-0.1-0.4-0.4-0.4h-0.8v2.4H69z"/>
		</g>
	</g>
	<g id="labelBeer3">
		<circle id="brand-4" class="st17" cx="59.3" cy="206.6" r="55"/>
		<path class="st13" d="M60.1,156.7c3,0,5.9,0.4,8.7,1c7.6,1.8,14.7,6.9,17.6,14.1c1.8,4.4,1.9,9.2,1.7,13.8
			c-0.2,4.9-0.1,9.8-0.1,14.8c0,5.3,0,10.6,0,15.9c0,5,0.7,10.6,0,15.5c-0.3,1.8-1.2,6.2-4.6,10.3s-7.5,5.8-9.3,6.4
			c-2.9,1.2-7.8,2.7-13.9,2.7c-6.4,0-11.4-1.5-14.4-2.7c-1.8-0.7-5.7-2.5-9.1-6.6c-3.4-4.2-4.4-8.6-4.6-10.5c-0.4-2.8,0-6.1,0-8.9
			c0-3.3,0-6.5,0-9.8c0-6.4,0-12.7,0-19.1c-0.1-16-0.3-18.9,2-23.3c2.2-4.1,5.1-6.4,6.3-7.4C47.8,156.7,56.6,156.7,60.1,156.7z"/>
		<path class="st18" d="M60.1,158.9c2.9,0,5.7,0.4,8.3,1c7.2,1.7,14,6.5,16.8,13.5c1.7,4.2,1.8,8.8,1.6,13.2
			c-0.2,4.7-0.1,9.4-0.1,14.1c0,5,0,10.1,0,15.1c0,4.7,0.7,10.1,0,14.7c-0.3,1.8-1.1,5.9-4.4,9.8c-3.3,3.9-7.2,5.5-8.9,6.1
			c-2.8,1.1-7.4,2.5-13.3,2.6c-6.1,0-10.9-1.4-13.8-2.6c-1.7-0.7-5.5-2.4-8.6-6.3c-3.3-4-4.1-8.2-4.4-10c-0.4-2.7,0-5.8,0-8.5
			c0-3.1,0-6.2,0-9.3c0-6.1,0-12.1,0-18.2c-0.1-15.2-0.3-18,1.9-22.2c2.1-3.9,4.8-6.1,6-7.1C48.4,158.9,56.8,158.9,60.1,158.9z"/>
		<polygon class="st19" points="33.1,211.5 20.8,211.5 22.7,218.2 20.8,224.9 33.1,224.9 		"/>
		<polygon class="st19" points="86.9,211.5 99.2,211.5 97.2,218.2 99.2,224.9 86.8,224.9 		"/>
		<polygon class="st20" points="87.1,212.7 97.3,212.7 95.6,218.3 97.3,223.8 87,223.8 		"/>
		<polygon class="st20" points="32.6,212.7 22.4,212.7 24,218.3 22.4,223.8 32.7,223.8 		"/>
		<path class="st21" d="M50.4,174.3c0.5,2.7,0.9,5.4,1.4,8.1c3.7,0.4,7.3,0.7,11,1.1c0.5-2.6,1-5.3,1.4-7.9
			C59.6,175.1,55,174.7,50.4,174.3z"/>
		<path class="st21" d="M66.2,175.7c0.5,3.2,1.1,6.3,1.6,9.5l9.5-1.3l1.5-10C74.6,174.5,70.4,175.1,66.2,175.7z"/>
		<path class="st20" d="M50.6,160c-0.3,2.6-0.9,5.7-2,9.1c-0.6,1.9-1.3,3.6-2,5.1c6.3,0.5,12.5,1,18.8,1.5c1.2,0.2,2.5,0.3,4,0.3
			c1.9,0,3.7-0.1,5.2-0.3c1.2-0.3,2.8-0.9,4.4-1.7c1-0.6,1.9-1.1,2.6-1.7c-0.8-1.3-1.6-2.5-2.4-3.8c-0.5-1.5-0.9-2.9-1.4-4.4
			c-1.4-0.9-3.1-1.9-5.3-2.8c-1-0.4-4.4-1.8-9.1-2.2c-0.8-0.1-3.1-0.3-6-0.1C54.5,159.1,52.3,159.6,50.6,160z"/>
		<path class="st22" d="M51.8,182.2v6.7c-0.1,0.7-0.2,1.6-0.5,2.6c-0.3,0.9-0.6,1.7-0.9,2.3c-0.6,0.6-1.3,1.2-2,2
			c-0.8,0.9-1.5,1.8-2,2.6c-0.4,0.9-0.9,1.9-1.3,2.9c-1.3,3.1-1.7,4.7-2.4,6.8c-1.8,5.2-4.9,11.1-4.8,13.9c0,0.6,0.1,1.2,0.1,1.2
			c0.1,1.3,0.3,2.4,0.4,3.2c0.1,0.8,0.2,2,0.8,3.3c0.3,0.7,0.7,1.3,1,1.8c0.3,0.1,0.6,0.3,1.1,0.5c0.9,0.5,0.9,0.6,1.3,0.8
			c1.1,0.4,2.2,0,2.4-0.1c0.7-0.3,1.1-0.7,1.3-1c-0.6-1-1.1-1.9-1.4-2.6c-1.2-2.6-1.5-3.9-1.6-4.3c-0.1-0.5-0.1-0.9-0.2-1.2
			c3.3-5.8,6.7-11.7,10-17.5l4.4-7.7c0.6-0.6,1.3-1.3,2-2.1c0.6-0.7,1.1-1.4,1.5-2c0.1-0.7,0.2-1.4,0.3-2.2c0.1-0.3,0.2-0.7,0.3-1.2
			c0.4-1.9,0.7-2.9,0.9-3.8c0.2-0.9,0.5-2.3,0.6-4C59.1,182.8,55.4,182.5,51.8,182.2z"/>
		<path class="st22" d="M77.3,183.9c0.2,0.3,0,0.5,0,3.7c0,0.4-0.1,0.9,0,1.3c0.2,1.4,0,2.8,0.4,4.2c0.1,0.2,0.1,0.5,0.2,0.7
			c0.2,0.6,0.6,1,0.7,1.6s0.4,1.2,0.6,1.8c0.3,0.8,0.6,1.6,0.8,2.3c0.2,0.6,0.3,1.2,0.4,1.9c0.2,1,0.2,1.8,0.2,2.6
			c0,1.5,0,2.9,0,4.4l1.1,14.2c0.1,0.7,0.2,1.4,0.4,2c0,0.2,0.1,0.5,0.1,0.7c0,1.3,0,2.8-0.2,4.4c-0.1,1-0.3,1.9-0.5,2.7
			c-0.1,0.2-0.3,0.4-0.6,0.6c-0.5,0.3-1,0.3-1.2,0.3c-0.5,0.1-1.2,0.1-1.9,0.2c-0.9,0-1.7-0.1-2.4-0.2c-0.2-0.2-0.4-0.7-0.4-1.1
			c0-0.2,0.1-0.4,0.3-0.6c0.2-0.3,0.5-0.8,0.8-1.4c0.5-1.8,1-3.6,1.5-5.3l-5-18.1c-0.4-1.4-0.8-2.8-1.1-4.4
			c-0.4-1.9-0.7-3.7-0.9-5.4c-0.3-0.4-0.6-1-0.9-1.7c-0.3-0.8-0.6-1.5-0.7-2.1c-0.2-0.8-0.5-1.7-0.7-2.6c-0.4-2-0.6-3.8-0.7-5.4
			C75,182.8,76.9,183.2,77.3,183.9z"/>
		<path class="st23" d="M37.6,222.1c-0.3,0.2-0.6,0.5-0.9,1c-0.4,0.7-0.5,1.4-0.6,1.8c0.2,1,0.5,2.1,0.7,3.1l0.7,7.7H38v-6l0.6,3.7
			c0.1,0.4,0.2,0.9,0.2,1.3c0.1,0.5,0,1,0.4,1.4c0.2,0.2,0.5,0.3,0.7,0.5c1.8,0.9,3.8,1,5.7,0.7c0.2,0,0.4-0.1,0.5-0.1
			c0.2-0.1,0.3-0.2,0.4-0.4c0.5-0.6,0.7-1.4,0.7-2.1c-0.5-1-1-1.9-1.5-2.9c-0.3,0.2-0.8,0.6-1.6,0.8c-1.2,0.3-2.2-0.1-2.5-0.3
			c-0.5-0.5-1-1.1-1.5-1.8c-0.7-0.9-1.1-1.8-1.4-2.6C38.5,226,38,224.1,37.6,222.1z"/>
		<path class="st23" d="M82.3,225.3c0.2,0.3,0.5,0.7,0.7,1.1c0.2,0.4,0.3,0.7,0.4,1c-0.2,2.5-0.4,5.1-0.6,7.6h-0.6v-3.8l-0.5,4.5
			c-0.3,0.6-0.6,1.3-0.9,1.9c-0.7,0.1-1.7,0.2-2.7,0.2c-0.9,0-1.8-0.1-2.7-0.3c-0.1,0-0.2,0-0.3-0.1c-0.2-0.1-0.2-0.3-0.2-0.4
			c-0.3-1.3-1.1-2.4-0.7-4c0.1-0.4,0.2-0.8,0.6-1s0.9,0.1,1.7,0.3c0.5,0.1,1.3,0.3,2.2,0.1c0.5-0.1,1-0.3,1.6-0.4
			c0.5-0.7,1-1.8,1.4-3.1C82.2,227.5,82.3,226.2,82.3,225.3z"/>
		<rect x="28.3" y="208.3" class="st13" width="63.1" height="13.8"/>
		<rect x="29.4" y="209.2" class="st20" width="60.7" height="11.9"/>
		<g class="st6">
			<path class="st13" d="M43.4,211.6c0-0.1,0.1-0.1,0.1-0.1h0.9c0.1,0,0.1,0.1,0.1,0.1v6.8c0,0.1,0,0.1-0.1,0.1h-0.9
				c-0.1,0-0.1-0.1-0.1-0.1v-2.8h-1.1v2.8c0,0.1-0.1,0.1-0.1,0.1h-0.9c-0.1,0-0.1-0.1-0.1-0.1v-6.8c0-0.1,0-0.1,0.1-0.1h0.9
				c0.1,0,0.1,0.1,0.1,0.1v2.8h1.1V211.6z"/>
			<path class="st13" d="M45.5,212.7c0-0.8,0.4-1.3,1.3-1.3h1c0.8,0,1.3,0.4,1.3,1.3v4.5c0,0.8-0.4,1.3-1.3,1.3h-1
				c-0.8,0-1.3-0.4-1.3-1.3V212.7z M47.5,217.4c0.2,0,0.4-0.1,0.4-0.4V213c0-0.2-0.1-0.4-0.4-0.4H47c-0.2,0-0.4,0.1-0.4,0.4v4.1
				c0,0.2,0.1,0.4,0.4,0.4H47.5z"/>
			<path class="st13" d="M51.1,217.4h2.1c0.1,0,0.1,0.1,0.1,0.1v0.9c0,0.1,0,0.1-0.1,0.1H50c-0.1,0-0.1,0-0.1-0.1v-6.8
				c0-0.1,0.1-0.1,0.1-0.1H51c0.1,0,0.1,0.1,0.1,0.1V217.4z"/>
			<path class="st13" d="M55.3,217.4h2.1c0.1,0,0.1,0.1,0.1,0.1v0.9c0,0.1,0,0.1-0.1,0.1h-3.2c-0.1,0-0.1,0-0.1-0.1v-6.8
				c0-0.1,0.1-0.1,0.1-0.1h0.9c0.1,0,0.1,0.1,0.1,0.1V217.4z"/>
			<path class="st13" d="M61.6,218.5c-0.1,0-0.1,0-0.1-0.1l-0.2-1.3h-1.6l-0.2,1.3c0,0.1-0.1,0.1-0.1,0.1h-0.9
				c-0.1,0-0.1-0.1-0.1-0.1l1.5-6.8c0-0.1,0.1-0.1,0.1-0.1H61c0.1,0,0.1,0,0.2,0.1l1.5,6.8c0,0.1,0,0.1-0.1,0.1H61.6z M60.4,213
				l-0.6,3.1H61L60.4,213z"/>
			<path class="st13" d="M67,214.4c0,0.3-0.2,0.6-0.6,0.6v0c0.3,0.1,0.6,0.3,0.6,0.6v1.6c0,0.8-0.4,1.3-1.3,1.3h-2.1
				c-0.1,0-0.1-0.1-0.1-0.1v-6.8c0-0.1,0.1-0.1,0.1-0.1h2.1c0.8,0,1.3,0.4,1.3,1.3V214.4z M65.8,213c0-0.2-0.1-0.4-0.4-0.4h-0.8v1.8
				h0.8c0.2,0,0.4-0.1,0.4-0.3V213z M65.8,215.9c0-0.2-0.1-0.4-0.4-0.4h-0.8v1.8h0.8c0.2,0,0.4-0.1,0.4-0.4V215.9z"/>
			<path class="st13" d="M71,218.5c-0.1,0-0.1,0-0.1-0.1l-0.2-1.3H69l-0.2,1.3c0,0.1-0.1,0.1-0.1,0.1h-0.9c-0.1,0-0.1-0.1-0.1-0.1
				l1.5-6.8c0-0.1,0.1-0.1,0.2-0.1h1.2c0.1,0,0.1,0,0.1,0.1l1.5,6.8c0,0.1,0,0.1-0.1,0.1H71z M69.8,213l-0.6,3.1h1.1L69.8,213z"/>
			<path class="st13" d="M76.2,213.7c0,0.1-0.1,0.1-0.1,0.1h-0.9c-0.1,0-0.1-0.1-0.1-0.1V213c0-0.2-0.1-0.4-0.4-0.4h-0.5
				c-0.2,0-0.4,0.1-0.4,0.4v4c0,0.2,0.1,0.4,0.4,0.4h0.5c0.2,0,0.4-0.1,0.4-0.4v-0.7c0-0.1,0-0.1,0.1-0.1H76c0.1,0,0.1,0.1,0.1,0.1
				v1c0,0.8-0.4,1.3-1.3,1.3h-1c-0.8,0-1.3-0.4-1.3-1.3v-4.5c0-0.8,0.4-1.3,1.3-1.3h1c0.8,0,1.3,0.4,1.3,1.3V213.7z"/>
			<path class="st13" d="M79.9,218.5c-0.1,0-0.2,0-0.2-0.1l-1.1-2.6l-0.3,0.6v1.9c0,0.1-0.1,0.2-0.2,0.2h-0.8
				c-0.1,0-0.2-0.1-0.2-0.2v-6.7c0-0.1,0.1-0.2,0.2-0.2h0.8c0.1,0,0.2,0.1,0.2,0.2v2.7l1.4-2.8c0-0.1,0.1-0.1,0.2-0.1h0.9
				c0.1,0,0.2,0.1,0.1,0.2l-1.5,3.1l1.6,3.6c0.1,0.1,0,0.2-0.1,0.2H79.9z"/>
		</g>
	</g>
	<g id="labelBeer4">
		<circle id="brand-5" class="st24" cx="59.3" cy="206.6" r="55"/>
		<path class="st25" d="M45.6,185c-10.6,0-19.3,8.6-19.3,19.3c0,10.6,8.6,19.3,19.3,19.3c10.6,0,19.3-8.6,19.3-19.3
			S56.2,185,45.6,185L45.6,185z M45.6,220.1c-8.7,0-15.8-7-15.9-15.8c0-8.7,7-15.8,15.8-15.9c8.7,0,15.8,7,15.9,15.8l0,0
			C61.3,213,54.3,220.1,45.6,220.1z"/>
		<path class="st26" d="M73.1,185c-5.2,0-10.1,2.1-13.7,5.8c0.8,0.8,1.5,1.7,2.2,2.7c6-6.4,16-6.8,22.4-0.8s6.8,16,0.8,22.4
			s-16,6.8-22.4,0.8c-5.4-5-6.6-13-3-19.4c-0.6-1.1-1.4-2.1-2.2-3c-6,8.8-3.7,20.8,5.1,26.8s20.8,3.7,26.8-5.1s3.7-20.8-5.1-26.8
			C80.7,186.2,77,185,73.1,185L73.1,185z"/>
		<path id="SVGCleanerId_0" class="st25" d="M57.1,215.1c-5.9,6.4-15.9,6.8-22.3,0.8S28,200,34,193.6c5.9-6.4,15.9-6.8,22.3-0.8
			c5.4,5,6.6,13,3,19.3c0.6,1.1,1.3,2.1,2.2,3c6-8.8,3.7-20.8-5.1-26.7c-8.8-6-20.8-3.7-26.7,5.1c-6,8.8-3.7,20.8,5.1,26.7
			c7.7,5.2,18,4.2,24.5-2.5C58.5,216.9,57.8,216,57.1,215.1z"/>
		<path id="SVGCleanerId_0-2" class="st25" d="M57.1,215.1c-5.9,6.4-15.9,6.8-22.3,0.8S28,200,34,193.6c5.9-6.4,15.9-6.8,22.3-0.8
			c5.4,5,6.6,13,3,19.3c0.6,1.1,1.3,2.1,2.2,3c6-8.8,3.7-20.8-5.1-26.7c-8.8-6-20.8-3.7-26.7,5.1c-6,8.8-3.7,20.8,5.1,26.7
			c7.7,5.2,18,4.2,24.5-2.5C58.5,216.9,57.8,216,57.1,215.1z"/>
		<path class="st27" d="M67.3,166.5c-2.2-2.2-5.8-2.2-8,0l0,0c-2.2-2.2-5.8-2.2-8,0s-2.2,5.8,0,8l7.2,7.2l0,0
			c0.2,0.2,0.5,0.3,0.7,0.3c0.3,0,0.5-0.1,0.7-0.3l0,0l7.3-7.2C69.5,172.3,69.5,168.8,67.3,166.5C67.3,166.6,67.3,166.6,67.3,166.5z
			"/>
		<g class="st6">
			<path d="M45.2,243.8c0.4,0,0.8,0.1,1.1,0.4c0.3,0.3,0.4,0.7,0.4,1.2s-0.1,0.9-0.4,1.2c-0.3,0.3-0.6,0.5-1,0.5
				c-0.4,0-0.7-0.2-1.1-0.5v0.5h-0.7v-4.4h0.7v1.8C44.5,244,44.8,243.8,45.2,243.8z M44.2,245.4c0,0.3,0.1,0.5,0.3,0.7
				c0.2,0.2,0.4,0.3,0.7,0.3s0.5-0.1,0.7-0.3c0.2-0.2,0.3-0.4,0.3-0.7s-0.1-0.5-0.3-0.7c-0.2-0.2-0.4-0.3-0.7-0.3s-0.5,0.1-0.7,0.3
				C44.3,244.9,44.2,245.1,44.2,245.4z"/>
			<path d="M50.4,245.7H48c0,0.2,0.1,0.4,0.3,0.5c0.2,0.1,0.4,0.2,0.7,0.2c0.4,0,0.7-0.1,0.9-0.4l0.4,0.4c-0.3,0.3-0.8,0.5-1.3,0.5
				c-0.4,0-0.8-0.1-1.1-0.4c-0.3-0.3-0.5-0.7-0.5-1.2s0.2-0.9,0.5-1.2c0.3-0.3,0.7-0.4,1.1-0.4s0.8,0.1,1.1,0.4
				c0.3,0.3,0.4,0.6,0.4,1.1V245.7z M48,245.2h1.8c0-0.3-0.1-0.5-0.2-0.6c-0.2-0.1-0.4-0.2-0.6-0.2s-0.5,0.1-0.6,0.2
				C48.1,244.8,48,245,48,245.2z"/>
			<path d="M51.8,247h-0.7v-4.4h0.7V247z"/>
			<path d="M55.6,243.9v2.7c0,0.6-0.1,1-0.4,1.2c-0.3,0.3-0.7,0.4-1.2,0.4s-0.9-0.1-1.3-0.4l0.3-0.5c0.3,0.2,0.6,0.3,0.9,0.3
				s0.6-0.1,0.7-0.2c0.2-0.2,0.3-0.4,0.3-0.8v-0.4c-0.1,0.2-0.2,0.3-0.4,0.4c-0.2,0.1-0.4,0.2-0.6,0.2c-0.4,0-0.8-0.1-1-0.4
				c-0.3-0.3-0.4-0.6-0.4-1.1s0.1-0.8,0.4-1.1c0.3-0.3,0.6-0.4,1-0.4c0.4,0,0.7,0.2,1,0.5v-0.5H55.6z M53.2,245.3
				c0,0.3,0.1,0.5,0.2,0.7c0.2,0.2,0.4,0.3,0.6,0.3s0.5-0.1,0.7-0.3c0.2-0.2,0.2-0.4,0.2-0.7c0-0.3-0.1-0.5-0.3-0.7
				c-0.2-0.2-0.4-0.3-0.7-0.3s-0.5,0.1-0.6,0.3C53.3,244.8,53.2,245.1,53.2,245.3z"/>
			<path d="M56.6,243.2c-0.1-0.1-0.1-0.2-0.1-0.3s0-0.2,0.1-0.3c0.1-0.1,0.2-0.1,0.3-0.1c0.1,0,0.2,0,0.3,0.1
				c0.1,0.1,0.1,0.2,0.1,0.3s0,0.2-0.1,0.3c-0.1,0.1-0.2,0.1-0.3,0.1C56.8,243.4,56.7,243.3,56.6,243.2z M57.2,247h-0.7v-3.1h0.7
				V247z"/>
			<path d="M60.7,247h-0.6v-0.4c-0.3,0.3-0.6,0.5-1,0.5c-0.3,0-0.6-0.1-0.8-0.3c-0.2-0.2-0.3-0.4-0.3-0.7c0-0.3,0.1-0.5,0.3-0.7
				c0.2-0.2,0.5-0.2,0.9-0.2h0.9V245c0-0.4-0.2-0.6-0.7-0.6c-0.3,0-0.6,0.1-0.9,0.3l-0.3-0.4c0.4-0.3,0.8-0.5,1.3-0.5
				c0.4,0,0.7,0.1,0.9,0.3c0.2,0.2,0.3,0.5,0.3,0.9V247z M60.1,245.8v-0.3h-0.7c-0.5,0-0.7,0.1-0.7,0.4c0,0.2,0.1,0.3,0.2,0.3
				c0.1,0.1,0.3,0.1,0.5,0.1c0.2,0,0.4-0.1,0.5-0.2C60,246.2,60.1,246,60.1,245.8z"/>
			<path d="M62.3,245.3v1.7h-0.7v-3.1h0.7v0.6c0.1-0.2,0.3-0.3,0.4-0.5s0.4-0.2,0.6-0.2c0.4,0,0.6,0.1,0.9,0.3
				c0.2,0.2,0.3,0.5,0.3,0.9v1.9h-0.7v-1.7c0-0.6-0.2-0.9-0.7-0.9c-0.2,0-0.4,0.1-0.6,0.2C62.4,244.8,62.3,245,62.3,245.3z"/>
			<path d="M67.1,243.2c-0.1-0.1-0.1-0.2-0.1-0.3s0-0.2,0.1-0.3c0.1-0.1,0.2-0.1,0.3-0.1s0.2,0,0.3,0.1c0.1,0.1,0.1,0.2,0.1,0.3
				s0,0.2-0.1,0.3c-0.1,0.1-0.2,0.1-0.3,0.1S67.2,243.3,67.1,243.2z M67.7,247H67v-3.1h0.7V247z"/>
			<path d="M70.3,243.8c0.4,0,0.8,0.1,1.1,0.4c0.3,0.3,0.4,0.7,0.4,1.2s-0.1,0.9-0.4,1.2c-0.3,0.3-0.6,0.5-1,0.5s-0.7-0.2-1.1-0.5
				v1.6h-0.7v-4.3h0.7v0.5C69.6,244,69.9,243.8,70.3,243.8z M69.3,245.4c0,0.3,0.1,0.5,0.3,0.7c0.2,0.2,0.4,0.3,0.7,0.3
				c0.3,0,0.5-0.1,0.7-0.3c0.2-0.2,0.3-0.4,0.3-0.7s-0.1-0.5-0.3-0.7c-0.2-0.2-0.4-0.3-0.7-0.3c-0.3,0-0.5,0.1-0.7,0.3
				C69.4,244.9,69.3,245.1,69.3,245.4z"/>
			<path d="M75.1,247h-0.6v-0.4c-0.3,0.3-0.6,0.5-1,0.5c-0.3,0-0.6-0.1-0.8-0.3c-0.2-0.2-0.3-0.4-0.3-0.7c0-0.3,0.1-0.5,0.3-0.7
				c0.2-0.2,0.5-0.2,0.9-0.2h0.9V245c0-0.4-0.2-0.6-0.7-0.6c-0.3,0-0.6,0.1-0.9,0.3l-0.3-0.4c0.4-0.3,0.8-0.5,1.3-0.5
				c0.4,0,0.7,0.1,0.9,0.3c0.2,0.2,0.3,0.5,0.3,0.9V247z M74.5,245.8v-0.3h-0.7c-0.5,0-0.7,0.1-0.7,0.4c0,0.2,0.1,0.3,0.2,0.3
				s0.3,0.1,0.5,0.1c0.2,0,0.4-0.1,0.5-0.2C74.4,246.2,74.5,246,74.5,245.8z"/>
		</g>
		<g class="st6">
			<path d="M25.8,229.8c0-0.1,0.1-0.1,0.1-0.1h0.9c0.1,0,0.1,0.1,0.1,0.1v6.8c0,0.1,0,0.1-0.1,0.1h-0.9c-0.1,0-0.1-0.1-0.1-0.1v-2.8
				h-1.1v2.8c0,0.1-0.1,0.1-0.1,0.1h-0.9c-0.1,0-0.1-0.1-0.1-0.1v-6.8c0-0.1,0-0.1,0.1-0.1h0.9c0.1,0,0.1,0.1,0.1,0.1v2.8h1.1V229.8
				z"/>
			<path d="M27.9,230.9c0-0.8,0.4-1.3,1.3-1.3h1c0.8,0,1.3,0.4,1.3,1.3v4.5c0,0.8-0.4,1.3-1.3,1.3h-1c-0.8,0-1.3-0.4-1.3-1.3V230.9z
				 M29.9,235.6c0.2,0,0.4-0.1,0.4-0.4v-4.1c0-0.2-0.1-0.4-0.4-0.4h-0.5c-0.2,0-0.4,0.1-0.4,0.4v4.1c0,0.2,0.1,0.4,0.4,0.4H29.9z"/>
			<path d="M32.3,229.8c0-0.1,0.1-0.1,0.1-0.1h2.1c0.8,0,1.3,0.4,1.3,1.3v2.1c0,0.8-0.4,1.3-1.3,1.3h-1.1v2.2c0,0.1,0,0.1-0.1,0.1
				h-0.9c-0.1,0-0.1-0.1-0.1-0.1V229.8z M34.2,233.2c0.2,0,0.4-0.1,0.4-0.4v-1.7c0-0.2-0.1-0.4-0.4-0.4h-0.8v2.4H34.2z"/>
			<path d="M36.7,229.8c0-0.1,0.1-0.1,0.1-0.1h2.1c0.8,0,1.3,0.4,1.3,1.3v2.1c0,0.8-0.4,1.3-1.3,1.3h-1.1v2.2c0,0.1,0,0.1-0.1,0.1
				h-0.9c-0.1,0-0.1-0.1-0.1-0.1V229.8z M38.6,233.2c0.2,0,0.4-0.1,0.4-0.4v-1.7c0-0.2-0.1-0.4-0.4-0.4h-0.8v2.4H38.6z"/>
			<path d="M42.1,229.7c0.1,0,0.1,0.1,0.1,0.1v6.8c0,0.1-0.1,0.1-0.1,0.1h-0.9c-0.1,0-0.1-0.1-0.1-0.1v-6.8c0-0.1,0-0.1,0.1-0.1
				H42.1z"/>
			<path d="M44.3,235.6h2.1c0.1,0,0.1,0.1,0.1,0.1v0.9c0,0.1,0,0.1-0.1,0.1h-3.2c-0.1,0-0.1,0-0.1-0.1v-6.8c0-0.1,0.1-0.1,0.1-0.1
				h0.9c0.1,0,0.1,0.1,0.1,0.1V235.6z"/>
			<path d="M50.3,229.7c0.1,0,0.2,0.1,0.1,0.2l-1.6,3.9v2.7c0,0.1-0.1,0.2-0.2,0.2h-0.8c-0.1,0-0.2-0.1-0.2-0.2v-2.7l-1.6-3.9
				c-0.1-0.1,0-0.2,0.1-0.2H47c0.1,0,0.2,0,0.2,0.1l1,2.5l1-2.5c0-0.1,0.1-0.1,0.2-0.1H50.3z"/>
			<path d="M56.8,230.7c0,0.1,0,0.2-0.1,0.2h-2.2v1.8h1.7c0.1,0,0.1,0.1,0.1,0.1v0.9c0,0.1-0.1,0.1-0.1,0.1h-1.7v1.8h2.2
				c0.1,0,0.1,0,0.1,0.1v0.9c0,0.1,0,0.1-0.1,0.1h-3.2c-0.1,0-0.1-0.1-0.1-0.1v-6.8c0-0.1,0.1-0.1,0.1-0.1h3.2
				c0.1,0,0.1,0.1,0.1,0.1V230.7z"/>
			<path d="M61.5,229.7c0.1,0,0.2,0.1,0.2,0.2l-1.5,6.7c0,0.1-0.1,0.2-0.2,0.2h-0.9c-0.1,0-0.2-0.1-0.2-0.2l-1.5-6.7
				c0-0.1,0-0.2,0.2-0.2h0.8c0.1,0,0.2,0.1,0.2,0.2l0.9,4.7l0.9-4.7c0-0.1,0.1-0.2,0.2-0.2H61.5z"/>
			<path d="M65.9,230.7c0,0.1,0,0.2-0.1,0.2h-2.2v1.8h1.7c0.1,0,0.1,0.1,0.1,0.1v0.9c0,0.1-0.1,0.1-0.1,0.1h-1.7v1.8h2.2
				c0.1,0,0.1,0,0.1,0.1v0.9c0,0.1,0,0.1-0.1,0.1h-3.2c-0.1,0-0.1-0.1-0.1-0.1v-6.8c0-0.1,0.1-0.1,0.1-0.1h3.2
				c0.1,0,0.1,0.1,0.1,0.1V230.7z"/>
			<path d="M70.3,233.1c0,0.6-0.2,1-0.6,1.2l0.6,2.3c0,0.1,0,0.2-0.1,0.2h-0.9c-0.1,0-0.1,0-0.2-0.1l-0.6-2.2h-0.6v2.2
				c0,0.1-0.1,0.1-0.1,0.1h-0.9c-0.1,0-0.1-0.1-0.1-0.1v-6.8c0-0.1,0.1-0.1,0.1-0.1h2.2c0.8,0,1.3,0.4,1.3,1.3V233.1z M68.8,233.2
				c0.2,0,0.4-0.1,0.4-0.4v-1.7c0-0.2-0.1-0.4-0.4-0.4h-0.9v2.4H68.8z"/>
			<path d="M76.7,236.7c-0.1,0-0.1,0-0.1-0.1l-0.2-1.3h-1.6l-0.2,1.3c0,0.1-0.1,0.1-0.1,0.1h-0.9c-0.1,0-0.1-0.1-0.1-0.1l1.5-6.8
				c0-0.1,0.1-0.1,0.1-0.1h1.2c0.1,0,0.1,0,0.2,0.1l1.5,6.8c0,0.1,0,0.1-0.1,0.1H76.7z M75.6,231.2l-0.6,3.1h1.1L75.6,231.2z"/>
			<path d="M82.1,230.7c0,0.1-0.1,0.1-0.1,0.1h-2.2v1.8h1.7c0.1,0,0.1,0.1,0.1,0.1v0.9c0,0.1-0.1,0.1-0.1,0.1h-1.7v2.8
				c0,0.1-0.1,0.1-0.1,0.1h-0.9c-0.1,0-0.1-0.1-0.1-0.1v-6.8c0-0.1,0-0.1,0.1-0.1H82c0.1,0,0.1,0.1,0.1,0.1V230.7z"/>
			<path d="M86.2,229.7c0.1,0,0.1,0.1,0.1,0.1v0.9c0,0.1,0,0.1-0.1,0.1h-1v5.7c0,0.1,0,0.1-0.1,0.1h-0.9c-0.1,0-0.1,0-0.1-0.1v-5.7
				h-1c-0.1,0-0.1-0.1-0.1-0.1v-0.9c0-0.1,0.1-0.1,0.1-0.1H86.2z"/>
			<path d="M90.5,230.7c0,0.1,0,0.2-0.1,0.2h-2.2v1.8h1.7c0.1,0,0.1,0.1,0.1,0.1v0.9c0,0.1-0.1,0.1-0.1,0.1h-1.7v1.8h2.2
				c0.1,0,0.1,0,0.1,0.1v0.9c0,0.1,0,0.1-0.1,0.1h-3.2c-0.1,0-0.1-0.1-0.1-0.1v-6.8c0-0.1,0.1-0.1,0.1-0.1h3.2
				c0.1,0,0.1,0.1,0.1,0.1V230.7z"/>
			<path d="M94.9,233.1c0,0.6-0.2,1-0.6,1.2l0.6,2.3c0,0.1,0,0.2-0.1,0.2h-0.9c-0.1,0-0.1,0-0.1-0.1l-0.6-2.2h-0.6v2.2
				c0,0.1-0.1,0.1-0.1,0.1h-0.9c-0.1,0-0.1-0.1-0.1-0.1v-6.8c0-0.1,0.1-0.1,0.1-0.1h2.2c0.8,0,1.3,0.4,1.3,1.3V233.1z M93.3,233.2
				c0.2,0,0.4-0.1,0.4-0.4v-1.7c0-0.2-0.1-0.4-0.4-0.4h-0.9v2.4H93.3z"/>
		</g>
	</g>
	<g id="labelBeer5">
		<circle id="bg" class="st28" cx="59.3" cy="206.6" r="55"/>
		<path class="st29" d="M83.8,185.1v-0.7l-5.3-6.3l-8.4-3.1l-8.4,3.1l-5.3,6.3v6.2H45.6v-3.9h0.1c1.8,0,3.3-1.5,3.3-3.3
			c0-0.2,0-0.4,0-0.6l-1.1-6.1c-0.3-1.8-2.1-3-3.9-2.6c-1.3,0.3-2.4,1.3-2.6,2.6l-1.1,6.1c-0.3,1.8,0.9,3.5,2.7,3.9
			c0.2,0,0.4,0.1,0.6,0.1h0.1v3.9h-6.8v-7c2.3-0.5,3.9-2.5,3.9-4.8V172c0-2.7-2.2-4.9-4.9-4.9S31,169.3,31,172v6.9
			c0,2.3,1.6,4.3,3.9,4.8v7H31v35.2h58.7V188L83.8,185.1z M58.3,185.1l4.5-5.4L70,177l7.2,2.7l4.5,5.4v5.5H75v-5.9h-9.8v5.9h-6.9
			L58.3,185.1z M73,186.7v3.9h-2v-3.9H73z M69.1,186.7v3.9h-2v-3.9H69.1z M43.5,184.7c-0.8,0-1.4-0.6-1.4-1.4l0,0c0-0.1,0-0.2,0-0.2
			l1.1-6.1c0.1-0.7,0.9-1.2,1.6-1.1c0.5,0.1,1,0.5,1.1,1.1l1.1,6.1c0.1,0.7-0.4,1.5-1.1,1.6h-0.2h-0.1v-2h-2L43.5,184.7L43.5,184.7z
			 M32.9,178.8V172c-0.1-1.6,1.1-3,2.8-3.1c1.6-0.1,3,1.1,3.1,2.8c0,0.1,0,0.2,0,0.3v6.9c0,1.2-0.8,2.3-2,2.8V178h-2v3.7
			C33.7,181.2,32.9,180.1,32.9,178.8L32.9,178.8z M32.9,192.5h13.3l-13.3,13.3V192.5z M32.9,208.6L49,192.5h0.7l-16.8,26V208.6z
			 M32.9,223.9v-1.7L52,192.5h1l-12,31.3L32.9,223.9L32.9,223.9z M43.1,223.9l12-31.3h1.1l-5.5,31.3H43.1z M59.3,223.9h-6.7
			l5.5-31.3h1.1L59.3,223.9z M61.3,223.9v-31.3h1.1l5.5,31.3H61.3z M70,223.9l-5.6-31.3h1.1l12,31.3H70z M87.7,223.9h-8.1l-12-31.3
			h1l19.1,29.6V223.9z M87.7,218.6l-16.8-26h0.7l16.1,16.1C87.7,208.7,87.7,218.6,87.7,218.6z M87.7,205.8l-13.3-13.3h13.3V205.8z
			 M87.7,190.6h-3.9v-3.3l3.9,2V190.6z"/>
		<rect x="69.2" y="179.8" class="st29" width="2" height="2"/>
		<path class="st29" d="M55.9,167.1c-2.4,0-4.4,1.9-4.4,4.4s1.9,4.4,4.4,4.4c2.4,0,4.4-1.9,4.4-4.4
			C60.3,169.1,58.4,167.1,55.9,167.1C56,167.1,56,167.1,55.9,167.1z M55.9,174c-1.4,0-2.5-1.1-2.5-2.4c0-1.4,1.1-2.5,2.4-2.5
			s2.5,1.1,2.5,2.4l0,0C58.4,172.9,57.3,174,55.9,174z"/>
		<g class="st6">
			<path d="M51.2,246.5c0.4,0,0.8,0.1,1.1,0.4c0.3,0.3,0.4,0.7,0.4,1.2s-0.1,0.9-0.4,1.2c-0.3,0.3-0.6,0.5-1,0.5
				c-0.4,0-0.7-0.2-1.1-0.5v1.6h-0.7v-4.3h0.7v0.5C50.4,246.7,50.8,246.5,51.2,246.5z M50.2,248.1c0,0.3,0.1,0.5,0.3,0.7
				c0.2,0.2,0.4,0.3,0.7,0.3s0.5-0.1,0.7-0.3c0.2-0.2,0.3-0.4,0.3-0.7s-0.1-0.5-0.3-0.7c-0.2-0.2-0.4-0.3-0.7-0.3s-0.5,0.1-0.7,0.3
				C50.3,247.6,50.2,247.9,50.2,248.1z"/>
			<path d="M53.5,246c-0.1-0.1-0.1-0.2-0.1-0.3s0-0.2,0.1-0.3c0.1-0.1,0.2-0.1,0.3-0.1c0.1,0,0.2,0,0.3,0.1c0.1,0.1,0.1,0.2,0.1,0.3
				s0,0.2-0.1,0.3c-0.1,0.1-0.2,0.1-0.3,0.1C53.7,246.1,53.6,246,53.5,246z M54.1,249.7h-0.7v-3.1h0.7V249.7z"/>
			<path d="M55.7,249.7h-0.7v-4.4h0.7V249.7z"/>
			<path d="M58.9,248.8c0,0.3-0.1,0.5-0.3,0.7c-0.2,0.2-0.5,0.3-0.8,0.3c-0.2,0-0.5,0-0.7-0.1s-0.5-0.2-0.6-0.3l0.3-0.5
				c0.4,0.3,0.7,0.4,1.1,0.4c0.1,0,0.3,0,0.4-0.1c0.1-0.1,0.1-0.2,0.1-0.3c0-0.2-0.2-0.3-0.6-0.4c0,0-0.1,0-0.1,0
				c-0.6-0.2-1-0.5-1-0.9c0-0.3,0.1-0.5,0.3-0.7c0.2-0.2,0.5-0.3,0.9-0.3c0.4,0,0.7,0.1,1,0.3l-0.2,0.5c-0.3-0.2-0.5-0.3-0.8-0.3
				c-0.2,0-0.3,0-0.4,0.1c-0.1,0.1-0.1,0.1-0.1,0.3c0,0.1,0.1,0.2,0.2,0.2c0.1,0,0.2,0.1,0.3,0.1c0.1,0,0.2,0.1,0.3,0.1
				s0.2,0.1,0.3,0.1s0.2,0.1,0.3,0.2C58.8,248.3,58.9,248.5,58.9,248.8z"/>
			<path d="M60.3,248v1.7h-0.7v-3.1h0.7v0.6c0.1-0.2,0.3-0.3,0.4-0.5c0.2-0.1,0.4-0.2,0.6-0.2c0.4,0,0.6,0.1,0.9,0.3
				c0.2,0.2,0.3,0.5,0.3,0.9v1.9h-0.7V248c0-0.6-0.2-0.9-0.7-0.9c-0.2,0-0.4,0.1-0.6,0.2C60.4,247.5,60.3,247.7,60.3,248z"/>
			<path d="M66.4,248.4h-2.4c0,0.2,0.1,0.4,0.3,0.5c0.2,0.1,0.4,0.2,0.7,0.2c0.4,0,0.7-0.1,0.9-0.4l0.4,0.4
				c-0.3,0.3-0.8,0.5-1.3,0.5c-0.4,0-0.8-0.1-1.1-0.4c-0.3-0.3-0.5-0.7-0.5-1.2s0.2-0.9,0.5-1.2c0.3-0.3,0.7-0.4,1.1-0.4
				s0.8,0.1,1.1,0.4c0.3,0.3,0.4,0.6,0.4,1.1V248.4z M63.9,247.9h1.8c0-0.3-0.1-0.5-0.2-0.6c-0.2-0.1-0.4-0.2-0.6-0.2
				c-0.2,0-0.5,0.1-0.6,0.2C64,247.5,63.9,247.7,63.9,247.9z"/>
			<path d="M68.7,247.2c-0.3,0-0.6,0.1-0.7,0.3c-0.2,0.2-0.2,0.5-0.2,0.9v1.3h-0.7v-3.1h0.7v0.6c0.1-0.2,0.2-0.4,0.4-0.5
				c0.2-0.1,0.4-0.2,0.6-0.2L68.7,247.2C68.7,247.2,68.7,247.2,68.7,247.2z"/>
		</g>
		<g class="st6">
			<path d="M44.2,232.6c0.1,0,0.2,0.1,0.2,0.2v6.7c0,0.1-0.1,0.2-0.2,0.2h-0.8c-0.1,0-0.2-0.1-0.2-0.2v-4h-0.1l-0.9,4
				c0,0.1-0.1,0.2-0.2,0.2h-0.4c-0.1,0-0.2-0.1-0.2-0.2l-0.9-4h-0.1v4c0,0.1-0.1,0.2-0.2,0.2h-0.8c-0.1,0-0.2-0.1-0.2-0.2v-6.7
				c0-0.1,0.1-0.2,0.2-0.2h1.2c0.1,0,0.2,0.1,0.2,0.2l1,4.4l1-4.4c0-0.1,0.1-0.2,0.2-0.2H44.2z"/>
			<path d="M45.3,233.9c0-0.8,0.4-1.3,1.3-1.3h1c0.8,0,1.3,0.4,1.3,1.3v4.5c0,0.8-0.4,1.3-1.3,1.3h-1c-0.8,0-1.3-0.4-1.3-1.3V233.9z
				 M47.3,238.5c0.2,0,0.4-0.1,0.4-0.4v-4.1c0-0.2-0.1-0.4-0.4-0.4h-0.5c-0.2,0-0.4,0.1-0.4,0.4v4.1c0,0.2,0.1,0.4,0.4,0.4H47.3z"/>
			<path d="M55.2,232.6c0.1,0,0.2,0.1,0.2,0.2l-0.8,6.7c0,0.1-0.1,0.2-0.2,0.2h-0.9c-0.1,0-0.2-0.1-0.2-0.2l-0.9-4l-0.9,4
				c0,0.1-0.1,0.1-0.2,0.1h-0.9c-0.1,0-0.2-0.1-0.2-0.2l-0.7-6.7c0-0.1,0.1-0.2,0.2-0.2h0.8c0.1,0,0.2,0.1,0.2,0.2l0.3,4.1h0
				l0.9-4.1c0-0.1,0.1-0.2,0.2-0.2h0.5c0.1,0,0.2,0.1,0.2,0.2l0.9,4.1h0l0.4-4.1c0-0.1,0.1-0.2,0.2-0.2H55.2z"/>
			<path d="M57.1,232.6c0.1,0,0.1,0.1,0.1,0.1v6.8c0,0.1-0.1,0.1-0.1,0.1h-0.9c-0.1,0-0.1-0.1-0.1-0.1v-6.8c0-0.1,0-0.1,0.1-0.1
				H57.1z"/>
			<path d="M61.8,232.6c0.1,0,0.1,0.1,0.1,0.1v6.8c0,0.1-0.1,0.1-0.1,0.1h-0.9c-0.1,0-0.1,0-0.2-0.1l-1.3-3.8h0v3.7
				c0,0.1,0,0.1-0.1,0.1h-0.9c-0.1,0-0.1-0.1-0.1-0.1v-6.8c0-0.1,0.1-0.1,0.1-0.1h0.9c0.1,0,0.1,0,0.2,0.1l1.3,3.7h0.1v-3.7
				c0-0.1,0-0.1,0.1-0.1H61.8z"/>
			<path d="M66,232.6c0.1,0,0.1,0.1,0.1,0.1v0.9c0,0.1,0,0.1-0.1,0.1h-1v5.7c0,0.1,0,0.1-0.1,0.1h-0.9c-0.1,0-0.1,0-0.1-0.1v-5.7h-1
				c-0.1,0-0.1-0.1-0.1-0.1v-0.9c0-0.1,0.1-0.1,0.1-0.1H66z"/>
			<path d="M67.9,232.6c0.1,0,0.1,0.1,0.1,0.1v6.8c0,0.1-0.1,0.1-0.1,0.1H67c-0.1,0-0.1-0.1-0.1-0.1v-6.8c0-0.1,0-0.1,0.1-0.1H67.9z
				"/>
			<path d="M73.7,232.6c0.1,0,0.2,0.1,0.2,0.2v6.7c0,0.1-0.1,0.2-0.2,0.2h-0.8c-0.1,0-0.2-0.1-0.2-0.2v-4h-0.1l-0.9,4
				c0,0.1-0.1,0.2-0.2,0.2h-0.4c-0.1,0-0.2-0.1-0.2-0.2l-0.9-4h-0.1v4c0,0.1-0.1,0.2-0.2,0.2h-0.8c-0.1,0-0.2-0.1-0.2-0.2v-6.7
				c0-0.1,0.1-0.2,0.2-0.2h1.2c0.1,0,0.2,0.1,0.2,0.2l1,4.4l1-4.4c0-0.1,0.1-0.2,0.2-0.2H73.7z"/>
			<path d="M78.3,233.7c0,0.1,0,0.2-0.1,0.2H76v1.8h1.7c0.1,0,0.1,0.1,0.1,0.1v0.9c0,0.1-0.1,0.1-0.1,0.1H76v1.8h2.2
				c0.1,0,0.1,0,0.1,0.1v0.9c0,0.1,0,0.1-0.1,0.1h-3.2c-0.1,0-0.1-0.1-0.1-0.1v-6.8c0-0.1,0.1-0.1,0.1-0.1h3.2
				c0.1,0,0.1,0.1,0.1,0.1V233.7z"/>
		</g>
	</g>
	<g id="labelBeer6">
		<circle id="bg_1_" class="st30" cx="59.3" cy="206.6" r="55"/>
		<g class="st6">
			<path d="M52.2,247.5c0.4,0,0.8,0.1,1.1,0.4c0.3,0.3,0.4,0.7,0.4,1.2s-0.1,0.9-0.4,1.2c-0.3,0.3-0.6,0.5-1,0.5
				c-0.4,0-0.7-0.2-1.1-0.5v1.6h-0.7v-4.3h0.7v0.5C51.4,247.7,51.8,247.5,52.2,247.5z M51.2,249.1c0,0.3,0.1,0.5,0.3,0.7
				c0.2,0.2,0.4,0.3,0.7,0.3s0.5-0.1,0.7-0.3c0.2-0.2,0.3-0.4,0.3-0.7s-0.1-0.5-0.3-0.7c-0.2-0.2-0.4-0.3-0.7-0.3s-0.5,0.1-0.7,0.3
				C51.3,248.6,51.2,248.9,51.2,249.1z"/>
			<path d="M57.1,250.3c-0.3,0.3-0.7,0.5-1.2,0.5c-0.5,0-0.9-0.2-1.2-0.5c-0.3-0.3-0.5-0.7-0.5-1.1s0.2-0.8,0.5-1.1
				c0.3-0.3,0.7-0.5,1.2-0.5c0.5,0,0.9,0.2,1.2,0.5c0.3,0.3,0.5,0.7,0.5,1.1S57.4,250,57.1,250.3z M55.2,249.9
				c0.2,0.2,0.4,0.3,0.7,0.3s0.5-0.1,0.7-0.3c0.2-0.2,0.3-0.4,0.3-0.7s-0.1-0.5-0.3-0.7c-0.2-0.2-0.4-0.3-0.7-0.3s-0.5,0.1-0.7,0.3
				c-0.2,0.2-0.3,0.4-0.3,0.7S55,249.7,55.2,249.9z"/>
			<path d="M59.9,248.2c-0.3,0-0.6,0.1-0.7,0.3c-0.2,0.2-0.2,0.5-0.2,0.9v1.3h-0.7v-3.1H59v0.6c0.1-0.2,0.2-0.4,0.4-0.5
				c0.2-0.1,0.4-0.2,0.6-0.2L59.9,248.2C60,248.2,59.9,248.2,59.9,248.2z"/>
			<path d="M61.4,248.1v1.6c0,0.1,0,0.3,0.1,0.4s0.2,0.1,0.3,0.1c0.1,0,0.3-0.1,0.4-0.2l0.3,0.5c-0.2,0.2-0.5,0.3-0.8,0.3
				c-0.3,0-0.5-0.1-0.7-0.3c-0.2-0.2-0.3-0.5-0.3-0.8v-1.6h-0.4v-0.5h0.4v-1h0.7v1h0.8v0.5H61.4z"/>
			<path d="M66,249.4h-2.4c0,0.2,0.1,0.4,0.3,0.5c0.2,0.1,0.4,0.2,0.7,0.2c0.4,0,0.7-0.1,0.9-0.4l0.4,0.4c-0.3,0.3-0.8,0.5-1.3,0.5
				c-0.4,0-0.8-0.1-1.1-0.4c-0.3-0.3-0.5-0.7-0.5-1.2s0.2-0.9,0.5-1.2c0.3-0.3,0.7-0.4,1.1-0.4s0.8,0.1,1.1,0.4
				c0.3,0.3,0.4,0.6,0.4,1.1V249.4z M63.5,248.9h1.8c0-0.3-0.1-0.5-0.2-0.6c-0.2-0.1-0.4-0.2-0.6-0.2c-0.2,0-0.5,0.1-0.6,0.2
				C63.6,248.5,63.5,248.7,63.5,248.9z"/>
			<path d="M68.3,248.2c-0.3,0-0.6,0.1-0.7,0.3c-0.2,0.2-0.2,0.5-0.2,0.9v1.3h-0.7v-3.1h0.7v0.6c0.1-0.2,0.2-0.4,0.4-0.5
				c0.2-0.1,0.4-0.2,0.6-0.2L68.3,248.2C68.4,248.2,68.4,248.2,68.3,248.2z"/>
		</g>
		<g class="st6">
			<path d="M51,239c0,0.6-0.2,1-0.6,1.2l0.6,2.3c0,0.1,0,0.2-0.1,0.2h-0.9c-0.1,0-0.1,0-0.1-0.1l-0.6-2.2h-0.6v2.2
				c0,0.1-0.1,0.1-0.1,0.1h-0.9c-0.1,0-0.1-0.1-0.1-0.1v-6.8c0-0.1,0.1-0.1,0.1-0.1h2.2c0.8,0,1.3,0.4,1.3,1.3V239z M49.5,239.2
				c0.2,0,0.4-0.1,0.4-0.4v-1.7c0-0.2-0.1-0.4-0.4-0.4h-0.9v2.4H49.5z"/>
			<path d="M51.7,236.9c0-0.8,0.4-1.3,1.3-1.3h1c0.8,0,1.3,0.4,1.3,1.3v4.5c0,0.8-0.4,1.3-1.3,1.3h-1c-0.8,0-1.3-0.4-1.3-1.3V236.9z
				 M53.8,241.5c0.2,0,0.4-0.1,0.4-0.4v-4.1c0-0.2-0.1-0.4-0.4-0.4h-0.5c-0.2,0-0.4,0.1-0.4,0.4v4.1c0,0.2,0.1,0.4,0.4,0.4H53.8z"/>
			<path d="M61.6,235.6c0.1,0,0.2,0.1,0.2,0.2l-0.8,6.7c0,0.1-0.1,0.2-0.2,0.2H60c-0.1,0-0.2-0.1-0.2-0.2l-0.9-4l-0.9,4
				c0,0.1-0.1,0.1-0.2,0.1h-0.9c-0.1,0-0.2-0.1-0.2-0.2l-0.7-6.7c0-0.1,0.1-0.2,0.2-0.2H57c0.1,0,0.2,0.1,0.2,0.2l0.3,4.1h0l0.9-4.1
				c0-0.1,0.1-0.2,0.2-0.2h0.5c0.1,0,0.2,0.1,0.2,0.2l0.9,4.1h0l0.4-4.1c0-0.1,0.1-0.2,0.2-0.2H61.6z"/>
			<path d="M64,240.4c-0.1,0.1-0.1,0.1-0.1,0.2v0.8c0,0.1,0.1,0.2,0.2,0.2h1v-0.4c0-0.1,0.1-0.2,0.2-0.2H66c0.1,0,0.2,0.1,0.2,0.2
				v1.3c0,0.1-0.1,0.2-0.2,0.2h-3.2c-0.1,0-0.2-0.1-0.2-0.2v-2.6c0-0.2,0.1-0.2,0.2-0.3l2.1-1.1v-1.3c0-0.2-0.1-0.4-0.4-0.4h-0.4
				c-0.2,0-0.4,0.1-0.4,0.4v0.7c0,0.1-0.1,0.1-0.1,0.1h-0.9c-0.1,0-0.1-0.1-0.1-0.1v-0.9c0-0.8,0.4-1.3,1.3-1.3h1
				c0.8,0,1.3,0.4,1.3,1.3v2.1c0,0.2-0.1,0.2-0.2,0.3L64,240.4z"/>
			<path d="M69.3,238.4c0.8,0,1.2,0.4,1.2,1.2v1.9c0,0.8-0.4,1.2-1.2,1.2h-1.1c-0.8,0-1.2-0.4-1.2-1.2v-2.3c0-0.2,0-0.3,0.1-0.4
				l1.2-3c0-0.1,0.1-0.1,0.2-0.1h0.9c0.1,0,0.2,0.1,0.1,0.2l-1.1,2.5H69.3z M69.1,241.5c0.2,0,0.4-0.1,0.4-0.4v-1.3
				c0-0.2-0.1-0.4-0.4-0.4h-0.5c-0.2,0-0.4,0.1-0.4,0.4v1.3c0,0.2,0.1,0.4,0.4,0.4H69.1z"/>
		</g>
		<rect x="26.2" y="189.3" width="7.1" height="14.1"/>
		<path d="M33.3,204.6h-7.1c-0.7,0-1.2-0.5-1.2-1.2v-14.1c0-0.7,0.5-1.2,1.2-1.2h7.1c0.7,0,1.2,0.5,1.2,1.2v14.1
			C34.4,204.1,33.9,204.6,33.3,204.6z M27.4,202.2h4.7v-11.8h-4.7C27.4,190.4,27.4,202.2,27.4,202.2z"/>
		<rect x="53.7" y="215.2" width="11.8" height="11.8"/>
		<path d="M66.6,228.2H52.5V214h14.1V228.2z M54.8,225.8h9.4v-9.4h-9.4C54.8,216.4,54.8,225.8,54.8,225.8z"/>
		<path d="M43.9,182.2c-0.7,0-1.2-0.5-1.2-1.2v-13c0-0.7,0.5-1.2,1.2-1.2s1.2,0.5,1.2,1.2v13C45.1,181.7,44.5,182.2,43.9,182.2z"/>
		<path d="M28.9,185.7c0-2.6,2.1-4.7,4.7-4.7h51.9c2.6,0,4.7,2.1,4.7,4.7v25.9c0,2.6-2.1,4.7-4.7,4.7H33.6c-2.6,0-4.7-2.1-4.7-4.7
			C28.9,211.7,28.9,185.7,28.9,185.7z"/>
		<path d="M85.5,217.6H33.6c-3.2,0-5.9-2.6-5.9-5.9v-25.9c0-3.2,2.6-5.9,5.9-5.9h51.9c3.2,0,5.9,2.6,5.9,5.9v25.9
			C91.4,214.9,88.7,217.6,85.5,217.6z M33.6,182.2c-1.9,0-3.5,1.6-3.5,3.5v25.9c0,1.9,1.6,3.5,3.5,3.5h51.9c1.9,0,3.5-1.6,3.5-3.5
			v-25.9c0-1.9-1.6-3.5-3.5-3.5H33.6L33.6,182.2z"/>
		<circle cx="43.9" cy="166.9" r="2.4"/>
		<path d="M43.9,170.4c-1.9,0-3.5-1.6-3.5-3.5s1.6-3.5,3.5-3.5s3.5,1.6,3.5,3.5S45.8,170.4,43.9,170.4z M43.9,165.7
			c-0.7,0-1.2,0.5-1.2,1.2s0.5,1.2,1.2,1.2s1.2-0.5,1.2-1.2C45.1,166.2,44.5,165.7,43.9,165.7z"/>
		<circle class="st30" cx="43.1" cy="195.2" r="4.7"/>
		<path d="M43.1,201.1c-3.2,0-5.9-2.6-5.9-5.9s2.6-5.9,5.9-5.9c3.2,0,5.9,2.6,5.9,5.9S46.3,201.1,43.1,201.1z M43.1,191.6
			c-1.9,0-3.5,1.6-3.5,3.5s1.6,3.5,3.5,3.5s3.5-1.6,3.5-3.5S45,191.6,43.1,191.6z"/>
		<circle class="st30" cx="76" cy="195.2" r="4.7"/>
		<path d="M76,201.1c-3.2,0-5.9-2.6-5.9-5.9s2.6-5.9,5.9-5.9s5.9,2.6,5.9,5.9S79.3,201.1,76,201.1z M76,191.6
			c-1.9,0-3.5,1.6-3.5,3.5s1.6,3.5,3.5,3.5s3.5-1.6,3.5-3.5S78,191.6,76,191.6z"/>
		<rect x="51.3" y="203.4" class="st30" width="16.5" height="8.2"/>
		<path d="M67.8,212.8H51.3c-0.7,0-1.2-0.5-1.2-1.2v-8.2c0-0.7,0.5-1.2,1.2-1.2h16.5c0.7,0,1.2,0.5,1.2,1.2v8.2
			C69,212.3,68.5,212.8,67.8,212.8z M52.5,210.5h14.1v-5.9H52.5V210.5z"/>
		<path d="M56,212.8c-0.7,0-1.2-0.5-1.2-1.2v-8.2c0-0.7,0.5-1.2,1.2-1.2s1.2,0.5,1.2,1.2v8.2C57.2,212.3,56.7,212.8,56,212.8z"/>
		<path d="M59.6,212.8c-0.7,0-1.2-0.5-1.2-1.2v-8.2c0-0.7,0.5-1.2,1.2-1.2s1.2,0.5,1.2,1.2v8.2C60.7,212.3,60.2,212.8,59.6,212.8z"
			/>
		<path d="M63.1,212.8c-0.7,0-1.2-0.5-1.2-1.2v-8.2c0-0.7,0.5-1.2,1.2-1.2s1.2,0.5,1.2,1.2v8.2C64.3,212.3,63.7,212.8,63.1,212.8z"
			/>
	</g>
	<g id="labelBeer7">
		<circle id="bg_2_" class="st31" cx="59.3" cy="206.6" r="55"/>
		<g class="st6">
			<path d="M45.2,243.5c0.4,0,0.8,0.1,1.1,0.4c0.3,0.3,0.4,0.7,0.4,1.2s-0.1,0.9-0.4,1.2c-0.3,0.3-0.6,0.5-1,0.5
				c-0.4,0-0.7-0.2-1.1-0.5v0.5h-0.7v-4.4h0.7v1.8C44.4,243.7,44.8,243.5,45.2,243.5z M44.2,245.1c0,0.3,0.1,0.5,0.3,0.7
				c0.2,0.2,0.4,0.3,0.7,0.3s0.5-0.1,0.7-0.3c0.2-0.2,0.3-0.4,0.3-0.7s-0.1-0.5-0.3-0.7c-0.2-0.2-0.4-0.3-0.7-0.3s-0.5,0.1-0.7,0.3
				C44.3,244.6,44.2,244.9,44.2,245.1z"/>
			<path d="M50.4,245.4h-2.4c0,0.2,0.1,0.4,0.3,0.5c0.2,0.1,0.4,0.2,0.7,0.2c0.4,0,0.7-0.1,0.9-0.4l0.4,0.4
				c-0.3,0.3-0.8,0.5-1.3,0.5c-0.4,0-0.8-0.1-1.1-0.4c-0.3-0.3-0.5-0.7-0.5-1.2s0.2-0.9,0.5-1.2c0.3-0.3,0.7-0.4,1.1-0.4
				s0.8,0.1,1.1,0.4c0.3,0.3,0.4,0.6,0.4,1.1V245.4z M47.9,244.9h1.8c0-0.3-0.1-0.5-0.2-0.6c-0.2-0.1-0.4-0.2-0.6-0.2
				s-0.5,0.1-0.6,0.2C48,244.5,47.9,244.7,47.9,244.9z"/>
			<path d="M51.8,246.7h-0.7v-4.4h0.7V246.7z"/>
			<path d="M55.6,243.6v2.7c0,0.6-0.1,1-0.4,1.2c-0.3,0.3-0.7,0.4-1.2,0.4s-0.9-0.1-1.3-0.4L53,247c0.3,0.2,0.6,0.3,0.9,0.3
				s0.6-0.1,0.7-0.2c0.2-0.2,0.3-0.4,0.3-0.8V246c-0.1,0.2-0.2,0.3-0.4,0.4c-0.2,0.1-0.4,0.2-0.6,0.2c-0.4,0-0.8-0.1-1-0.4
				c-0.3-0.3-0.4-0.6-0.4-1.1s0.1-0.8,0.4-1.1c0.3-0.3,0.6-0.4,1-0.4c0.4,0,0.7,0.2,1,0.5v-0.5H55.6z M53.2,245
				c0,0.3,0.1,0.5,0.2,0.7c0.2,0.2,0.4,0.3,0.6,0.3s0.5-0.1,0.7-0.3c0.2-0.2,0.2-0.4,0.2-0.7c0-0.3-0.1-0.5-0.3-0.7
				c-0.2-0.2-0.4-0.3-0.7-0.3s-0.5,0.1-0.6,0.3C53.2,244.5,53.2,244.8,53.2,245z"/>
			<path d="M56.6,243c-0.1-0.1-0.1-0.2-0.1-0.3s0-0.2,0.1-0.3c0.1-0.1,0.2-0.1,0.3-0.1c0.1,0,0.2,0,0.3,0.1c0.1,0.1,0.1,0.2,0.1,0.3
				s0,0.2-0.1,0.3c-0.1,0.1-0.2,0.1-0.3,0.1C56.8,243.1,56.7,243,56.6,243z M57.2,246.7h-0.7v-3.1h0.7V246.7z"/>
			<path d="M60.7,246.7h-0.6v-0.4c-0.3,0.3-0.6,0.5-1,0.5c-0.3,0-0.6-0.1-0.8-0.3c-0.2-0.2-0.3-0.4-0.3-0.7c0-0.3,0.1-0.5,0.3-0.7
				c0.2-0.2,0.5-0.2,0.9-0.2H60v-0.1c0-0.4-0.2-0.6-0.7-0.6c-0.3,0-0.6,0.1-0.9,0.3l-0.3-0.4c0.4-0.3,0.8-0.5,1.3-0.5
				c0.4,0,0.7,0.1,0.9,0.3c0.2,0.2,0.3,0.5,0.3,0.9V246.7z M60,245.5v-0.3h-0.7c-0.5,0-0.7,0.1-0.7,0.4c0,0.2,0.1,0.3,0.2,0.3
				c0.1,0.1,0.3,0.1,0.5,0.1c0.2,0,0.4-0.1,0.5-0.2C59.9,245.9,60,245.7,60,245.5z"/>
			<path d="M62.3,245v1.7h-0.7v-3.1h0.7v0.6c0.1-0.2,0.3-0.3,0.4-0.5c0.2-0.1,0.4-0.2,0.6-0.2c0.4,0,0.6,0.1,0.9,0.3
				c0.2,0.2,0.3,0.5,0.3,0.9v1.9h-0.7V245c0-0.6-0.2-0.9-0.7-0.9c-0.2,0-0.4,0.1-0.6,0.2C62.3,244.5,62.3,244.7,62.3,245z"/>
			<path d="M69.5,246.7h-0.6v-0.4c-0.3,0.3-0.6,0.5-1,0.5c-0.3,0-0.6-0.1-0.8-0.3c-0.2-0.2-0.3-0.4-0.3-0.7c0-0.3,0.1-0.5,0.3-0.7
				c0.2-0.2,0.5-0.2,0.9-0.2h0.9v-0.1c0-0.4-0.2-0.6-0.7-0.6c-0.3,0-0.6,0.1-0.9,0.3L67,244c0.4-0.3,0.8-0.5,1.3-0.5
				c0.4,0,0.7,0.1,0.9,0.3c0.2,0.2,0.3,0.5,0.3,0.9V246.7z M68.9,245.5v-0.3h-0.7c-0.5,0-0.7,0.1-0.7,0.4c0,0.2,0.1,0.3,0.2,0.3
				c0.1,0.1,0.3,0.1,0.5,0.1c0.2,0,0.4-0.1,0.5-0.2C68.8,245.9,68.9,245.7,68.9,245.5z"/>
			<path d="M71.1,246.7h-0.7v-4.4h0.7V246.7z"/>
			<path d="M75,245.4h-2.4c0,0.2,0.1,0.4,0.3,0.5c0.2,0.1,0.4,0.2,0.7,0.2c0.4,0,0.7-0.1,0.9-0.4l0.4,0.4c-0.3,0.3-0.8,0.5-1.3,0.5
				c-0.4,0-0.8-0.1-1.1-0.4c-0.3-0.3-0.5-0.7-0.5-1.2s0.2-0.9,0.5-1.2c0.3-0.3,0.7-0.4,1.1-0.4s0.8,0.1,1.1,0.4
				c0.3,0.3,0.4,0.6,0.4,1.1V245.4z M72.5,244.9h1.8c0-0.3-0.1-0.5-0.2-0.6c-0.2-0.1-0.4-0.2-0.6-0.2c-0.2,0-0.5,0.1-0.6,0.2
				C72.6,244.5,72.5,244.7,72.5,244.9z"/>
		</g>
		<g class="st6">
			<path d="M30.3,232c0,0.6-0.2,1-0.6,1.2l0.6,2.3c0,0.1,0,0.2-0.1,0.2h-0.9c-0.1,0-0.1,0-0.1-0.1l-0.6-2.2h-0.6v2.2
				c0,0.1-0.1,0.1-0.1,0.1h-0.9c-0.1,0-0.1-0.1-0.1-0.1v-6.8c0-0.1,0.1-0.1,0.1-0.1h2.2c0.8,0,1.3,0.4,1.3,1.3V232z M28.8,232.2
				c0.2,0,0.4-0.1,0.4-0.4v-1.7c0-0.2-0.1-0.4-0.4-0.4h-0.9v2.4H28.8z"/>
			<path d="M34.6,228.6c0.1,0,0.2,0.1,0.2,0.2v5.6c0,0.8-0.4,1.3-1.3,1.3h-1c-0.8,0-1.3-0.4-1.3-1.3v-5.6c0-0.1,0.1-0.2,0.2-0.2h0.8
				c0.1,0,0.2,0.1,0.2,0.2v5.4c0,0.2,0.1,0.4,0.4,0.4h0.5c0.2,0,0.4-0.1,0.4-0.4v-5.4c0-0.1,0.1-0.2,0.2-0.2H34.6z"/>
			<path d="M36.7,228.6c0.1,0,0.1,0.1,0.1,0.1v6.8c0,0.1-0.1,0.1-0.1,0.1h-0.9c-0.1,0-0.1-0.1-0.1-0.1v-6.8c0-0.1,0-0.1,0.1-0.1
				H36.7z"/>
			<path d="M41.3,228.6c0.1,0,0.1,0.1,0.1,0.1v6.8c0,0.1-0.1,0.1-0.1,0.1h-0.9c-0.1,0-0.1,0-0.2-0.1l-1.3-3.8h0v3.7
				c0,0.1,0,0.1-0.1,0.1h-0.9c-0.1,0-0.1-0.1-0.1-0.1v-6.8c0-0.1,0.1-0.1,0.1-0.1h0.9c0.1,0,0.1,0,0.2,0.1l1.3,3.7h0.1v-3.7
				c0-0.1,0-0.1,0.1-0.1H41.3z"/>
			<path d="M45.9,229.7c0,0.1,0,0.2-0.1,0.2h-2.2v1.8h1.7c0.1,0,0.1,0.1,0.1,0.1v0.9c0,0.1-0.1,0.1-0.1,0.1h-1.7v1.8h2.2
				c0.1,0,0.1,0,0.1,0.1v0.9c0,0.1,0,0.1-0.1,0.1h-3.2c-0.1,0-0.1-0.1-0.1-0.1v-6.8c0-0.1,0.1-0.1,0.1-0.1h3.2
				c0.1,0,0.1,0.1,0.1,0.1V229.7z"/>
			<path d="M46.6,228.8c0-0.1,0-0.1,0.1-0.1h2.1c0.8,0,1.3,0.4,1.3,1.3v4.5c0,0.8-0.4,1.3-1.3,1.3h-2.1c-0.1,0-0.1,0-0.1-0.1V228.8z
				 M48.7,234.5c0.2,0,0.4-0.1,0.4-0.4v-4c0-0.2-0.1-0.4-0.4-0.4h-0.8v4.7H48.7z"/>
			<path d="M56.8,230.8c0,0.1-0.1,0.1-0.1,0.1h-0.9c-0.1,0-0.1-0.1-0.1-0.1v-0.7c0-0.2-0.1-0.4-0.4-0.4h-0.5c-0.2,0-0.4,0.1-0.4,0.4
				v4c0,0.2,0.1,0.4,0.4,0.4h0.5c0.2,0,0.4-0.1,0.4-0.4v-0.7c0-0.1,0-0.1,0.1-0.1h0.9c0.1,0,0.1,0.1,0.1,0.1v1
				c0,0.8-0.4,1.3-1.3,1.3h-1c-0.8,0-1.3-0.4-1.3-1.3v-4.5c0-0.8,0.4-1.3,1.3-1.3h1c0.8,0,1.3,0.4,1.3,1.3V230.8z"/>
			<path d="M60,228.8c0-0.1,0.1-0.1,0.1-0.1H61c0.1,0,0.1,0.1,0.1,0.1v6.8c0,0.1,0,0.1-0.1,0.1h-0.9c-0.1,0-0.1-0.1-0.1-0.1v-2.8
				h-1.1v2.8c0,0.1-0.1,0.1-0.1,0.1h-0.9c-0.1,0-0.1-0.1-0.1-0.1v-6.8c0-0.1,0-0.1,0.1-0.1h0.9c0.1,0,0.1,0.1,0.1,0.1v2.8H60V228.8z
				"/>
			<path d="M63.1,228.6c0.1,0,0.1,0.1,0.1,0.1v6.8c0,0.1-0.1,0.1-0.1,0.1h-0.9c-0.1,0-0.1-0.1-0.1-0.1v-6.8c0-0.1,0-0.1,0.1-0.1
				H63.1z"/>
			<path d="M65.3,234.5h2.1c0.1,0,0.1,0.1,0.1,0.1v0.9c0,0.1,0,0.1-0.1,0.1h-3.2c-0.1,0-0.1,0-0.1-0.1v-6.8c0-0.1,0.1-0.1,0.1-0.1
				h0.9c0.1,0,0.1,0.1,0.1,0.1V234.5z"/>
			<path d="M68.5,228.8c0-0.1,0-0.1,0.1-0.1h2.1c0.8,0,1.3,0.4,1.3,1.3v4.5c0,0.8-0.4,1.3-1.3,1.3h-2.1c-0.1,0-0.1,0-0.1-0.1V228.8z
				 M70.5,234.5c0.2,0,0.4-0.1,0.4-0.4v-4c0-0.2-0.1-0.4-0.4-0.4h-0.8v4.7H70.5z"/>
			<path d="M75.2,228.8c0-0.1,0.1-0.1,0.1-0.1h0.9c0.1,0,0.1,0.1,0.1,0.1v6.8c0,0.1,0,0.1-0.1,0.1h-0.9c-0.1,0-0.1-0.1-0.1-0.1v-2.8
				h-1.1v2.8c0,0.1-0.1,0.1-0.1,0.1H73c-0.1,0-0.1-0.1-0.1-0.1v-6.8c0-0.1,0-0.1,0.1-0.1h0.9c0.1,0,0.1,0.1,0.1,0.1v2.8h1.1V228.8z"
				/>
			<path d="M77.3,229.9c0-0.8,0.4-1.3,1.3-1.3h1c0.8,0,1.3,0.4,1.3,1.3v4.5c0,0.8-0.4,1.3-1.3,1.3h-1c-0.8,0-1.3-0.4-1.3-1.3V229.9z
				 M79.3,234.5c0.2,0,0.4-0.1,0.4-0.4v-4.1c0-0.2-0.1-0.4-0.4-0.4h-0.5c-0.2,0-0.4,0.1-0.4,0.4v4.1c0,0.2,0.1,0.4,0.4,0.4H79.3z"/>
			<path d="M81.7,229.9c0-0.8,0.4-1.3,1.3-1.3h1c0.8,0,1.3,0.4,1.3,1.3v4.5c0,0.8-0.4,1.3-1.3,1.3h-1c-0.8,0-1.3-0.4-1.3-1.3V229.9z
				 M83.7,234.5c0.2,0,0.4-0.1,0.4-0.4v-4.1c0-0.2-0.1-0.4-0.4-0.4h-0.5c-0.2,0-0.4,0.1-0.4,0.4v4.1c0,0.2,0.1,0.4,0.4,0.4H83.7z"/>
			<path d="M86.1,228.8c0-0.1,0-0.1,0.1-0.1h2.1c0.8,0,1.3,0.4,1.3,1.3v4.5c0,0.8-0.4,1.3-1.3,1.3h-2.1c-0.1,0-0.1,0-0.1-0.1V228.8z
				 M88.1,234.5c0.2,0,0.4-0.1,0.4-0.4v-4c0-0.2-0.1-0.4-0.4-0.4h-0.8v4.7H88.1z"/>
		</g>
		<path class="st13" d="M35.1,205.6c-2.8,0-5.1,2.3-5.1,5.1v5c0,2.8,2.3,5.1,5.1,5.1h43.2c2.8,0,5.1-2.3,5.1-5.1v-5
			c0-2.8-2.3-5.1-5.1-5.1H35.1z"/>
		<path class="st13" d="M81,162.2c-3.9,0-7.1,3.2-7.1,7.1c0,3.9,3.2,7.1,7.1,7.1s7.1-3.2,7.1-7.1S84.9,162.2,81,162.2z"/>
		<path class="st32" d="M80,202c0-7-3.3-11.7-6.2-15.9c-1.1-1.6-2.2-3.2-3-4.7c-0.8-1.6-0.8-3,0.1-4.2c0.5-0.7,1.1-1.1,1.5-1.4
			c-1.4-1.8-2.2-4-2.2-6.5c0-1.5,0.3-2.8,0.8-4.1c-3.4,0-12.6,0.5-20.9,5.2c-4.9,2.8-8.8,6.5-11.5,11.1c-3.3,5.6-5,12.4-5,20.4
			L80,202L80,202z"/>
	</g>
	<g id="labelBeer8">
		<circle id="bg_3_" class="st33" cx="59.3" cy="206.6" r="55"/>
		<g class="st6">
			<path d="M46.2,242.5c0.4,0,0.8,0.1,1.1,0.4c0.3,0.3,0.4,0.7,0.4,1.2s-0.1,0.9-0.4,1.2c-0.3,0.3-0.6,0.5-1,0.5
				c-0.4,0-0.7-0.2-1.1-0.5v0.5h-0.7v-4.4h0.7v1.8C45.4,242.7,45.8,242.5,46.2,242.5z M45.2,244.1c0,0.3,0.1,0.5,0.3,0.7
				c0.2,0.2,0.4,0.3,0.7,0.3s0.5-0.1,0.7-0.3c0.2-0.2,0.3-0.4,0.3-0.7s-0.1-0.5-0.3-0.7c-0.2-0.2-0.4-0.3-0.7-0.3s-0.5,0.1-0.7,0.3
				C45.3,243.6,45.2,243.9,45.2,244.1z"/>
			<path d="M51.4,244.4h-2.4c0,0.2,0.1,0.4,0.3,0.5c0.2,0.1,0.4,0.2,0.7,0.2c0.4,0,0.7-0.1,0.9-0.4l0.4,0.4
				c-0.3,0.3-0.8,0.5-1.3,0.5c-0.4,0-0.8-0.1-1.1-0.4c-0.3-0.3-0.5-0.7-0.5-1.2s0.2-0.9,0.5-1.2c0.3-0.3,0.7-0.4,1.1-0.4
				s0.8,0.1,1.1,0.4c0.3,0.3,0.4,0.6,0.4,1.1V244.4z M48.9,243.9h1.8c0-0.3-0.1-0.5-0.2-0.6c-0.2-0.1-0.4-0.2-0.6-0.2
				s-0.5,0.1-0.6,0.2C49,243.5,48.9,243.7,48.9,243.9z"/>
			<path d="M52.8,245.7h-0.7v-4.4h0.7V245.7z"/>
			<path d="M56.6,242.6v2.7c0,0.6-0.1,1-0.4,1.2c-0.3,0.3-0.7,0.4-1.2,0.4s-0.9-0.1-1.3-0.4L54,246c0.3,0.2,0.6,0.3,0.9,0.3
				s0.6-0.1,0.7-0.2c0.2-0.2,0.3-0.4,0.3-0.8V245c-0.1,0.2-0.2,0.3-0.4,0.4c-0.2,0.1-0.4,0.2-0.6,0.2c-0.4,0-0.8-0.1-1-0.4
				c-0.3-0.3-0.4-0.6-0.4-1.1s0.1-0.8,0.4-1.1c0.3-0.3,0.6-0.4,1-0.4c0.4,0,0.7,0.2,1,0.5v-0.5H56.6z M54.2,244
				c0,0.3,0.1,0.5,0.2,0.7c0.2,0.2,0.4,0.3,0.6,0.3s0.5-0.1,0.7-0.3c0.2-0.2,0.2-0.4,0.2-0.7c0-0.3-0.1-0.5-0.3-0.7
				c-0.2-0.2-0.4-0.3-0.7-0.3s-0.5,0.1-0.6,0.3C54.2,243.5,54.2,243.8,54.2,244z"/>
			<path d="M57.6,242c-0.1-0.1-0.1-0.2-0.1-0.3s0-0.2,0.1-0.3c0.1-0.1,0.2-0.1,0.3-0.1c0.1,0,0.2,0,0.3,0.1c0.1,0.1,0.1,0.2,0.1,0.3
				s0,0.2-0.1,0.3c-0.1,0.1-0.2,0.1-0.3,0.1C57.8,242.1,57.7,242,57.6,242z M58.2,245.7h-0.7v-3.1h0.7V245.7z"/>
			<path d="M61.7,245.7h-0.6v-0.4c-0.3,0.3-0.6,0.5-1,0.5c-0.3,0-0.6-0.1-0.8-0.3c-0.2-0.2-0.3-0.4-0.3-0.7c0-0.3,0.1-0.5,0.3-0.7
				c0.2-0.2,0.5-0.2,0.9-0.2H61v-0.1c0-0.4-0.2-0.6-0.7-0.6c-0.3,0-0.6,0.1-0.9,0.3l-0.3-0.4c0.4-0.3,0.8-0.5,1.3-0.5
				c0.4,0,0.7,0.1,0.9,0.3c0.2,0.2,0.3,0.5,0.3,0.9V245.7z M61,244.5v-0.3h-0.7c-0.5,0-0.7,0.1-0.7,0.4c0,0.2,0.1,0.3,0.2,0.3
				c0.1,0.1,0.3,0.1,0.5,0.1c0.2,0,0.4-0.1,0.5-0.2C60.9,244.9,61,244.7,61,244.5z"/>
			<path d="M63.3,244v1.7h-0.7v-3.1h0.7v0.6c0.1-0.2,0.3-0.3,0.4-0.5c0.2-0.1,0.4-0.2,0.6-0.2c0.4,0,0.6,0.1,0.9,0.3
				c0.2,0.2,0.3,0.5,0.3,0.9v1.9h-0.7V244c0-0.6-0.2-0.9-0.7-0.9c-0.2,0-0.4,0.1-0.6,0.2C63.3,243.5,63.3,243.7,63.3,244z"/>
			<path d="M70.5,245.7h-0.6v-0.4c-0.3,0.3-0.6,0.5-1,0.5c-0.3,0-0.6-0.1-0.8-0.3c-0.2-0.2-0.3-0.4-0.3-0.7c0-0.3,0.1-0.5,0.3-0.7
				c0.2-0.2,0.5-0.2,0.9-0.2h0.9v-0.1c0-0.4-0.2-0.6-0.7-0.6c-0.3,0-0.6,0.1-0.9,0.3L68,243c0.4-0.3,0.8-0.5,1.3-0.5
				c0.4,0,0.7,0.1,0.9,0.3c0.2,0.2,0.3,0.5,0.3,0.9V245.7z M69.9,244.5v-0.3h-0.7c-0.5,0-0.7,0.1-0.7,0.4c0,0.2,0.1,0.3,0.2,0.3
				c0.1,0.1,0.3,0.1,0.5,0.1c0.2,0,0.4-0.1,0.5-0.2C69.8,244.9,69.9,244.7,69.9,244.5z"/>
			<path d="M72.1,245.7h-0.7v-4.4h0.7V245.7z"/>
			<path d="M76,244.4h-2.4c0,0.2,0.1,0.4,0.3,0.5c0.2,0.1,0.4,0.2,0.7,0.2c0.4,0,0.7-0.1,0.9-0.4l0.4,0.4c-0.3,0.3-0.8,0.5-1.3,0.5
				c-0.4,0-0.8-0.1-1.1-0.4c-0.3-0.3-0.5-0.7-0.5-1.2s0.2-0.9,0.5-1.2c0.3-0.3,0.7-0.4,1.1-0.4s0.8,0.1,1.1,0.4
				c0.3,0.3,0.4,0.6,0.4,1.1V244.4z M73.5,243.9h1.8c0-0.3-0.1-0.5-0.2-0.6c-0.2-0.1-0.4-0.2-0.6-0.2c-0.2,0-0.5,0.1-0.6,0.2
				C73.6,243.5,73.5,243.7,73.5,243.9z"/>
		</g>
		<g class="st6">
			<path d="M42.7,227.6c0.8,0,1.3,0.4,1.3,1.3v0.9c0,0.1,0,0.1-0.1,0.1h-0.9c-0.1,0-0.1-0.1-0.1-0.1v-0.7c0-0.2-0.1-0.4-0.4-0.4H42
				c-0.2,0-0.4,0.1-0.4,0.4v1.2l2.1,0.7c0.1,0.1,0.2,0.2,0.2,0.3v2c0,0.8-0.4,1.3-1.3,1.3h-1c-0.8,0-1.3-0.4-1.3-1.3v-0.9
				c0-0.1,0.1-0.1,0.1-0.1h0.9c0.1,0,0.1,0,0.1,0.1v0.7c0,0.2,0.1,0.4,0.4,0.4h0.4c0.2,0,0.4-0.1,0.4-0.4V232l-2.1-0.7
				c-0.2-0.1-0.2-0.2-0.2-0.3v-2.1c0-0.8,0.4-1.3,1.3-1.3H42.7z"/>
			<path d="M46,233.5h2.1c0.1,0,0.1,0.1,0.1,0.1v0.9c0,0.1,0,0.1-0.1,0.1h-3.2c-0.1,0-0.1,0-0.1-0.1v-6.8c0-0.1,0.1-0.1,0.1-0.1h0.9
				c0.1,0,0.1,0.1,0.1,0.1V233.5z"/>
			<path d="M52.5,228.7c0,0.1,0,0.2-0.1,0.2h-2.2v1.8h1.7c0.1,0,0.1,0.1,0.1,0.1v0.9c0,0.1-0.1,0.1-0.1,0.1h-1.7v1.8h2.2
				c0.1,0,0.1,0,0.1,0.1v0.9c0,0.1,0,0.1-0.1,0.1h-3.2c-0.1,0-0.1-0.1-0.1-0.1v-6.8c0-0.1,0.1-0.1,0.1-0.1h3.2
				c0.1,0,0.1,0.1,0.1,0.1V228.7z"/>
			<path d="M54.4,227.6c0.1,0,0.1,0.1,0.1,0.1v6.8c0,0.1-0.1,0.1-0.1,0.1h-0.9c-0.1,0-0.1-0.1-0.1-0.1v-6.8c0-0.1,0-0.1,0.1-0.1
				H54.4z"/>
			<path d="M55.4,228.9c0-0.8,0.4-1.3,1.3-1.3h1.2c0.8,0,1.3,0.4,1.3,1.3v0.9c0,0.1-0.1,0.1-0.1,0.1h-0.9c-0.1,0-0.1-0.1-0.1-0.1
				v-0.7c0-0.2-0.1-0.4-0.4-0.4H57c-0.2,0-0.4,0.1-0.4,0.4v4c0,0.2,0.1,0.4,0.4,0.4h0.6c0.2,0,0.4-0.1,0.4-0.4V232h-0.5
				c-0.1,0-0.1-0.1-0.1-0.1V231c0-0.1,0-0.1,0.1-0.1H59c0.1,0,0.1,0,0.1,0.1v2.4c0,0.8-0.4,1.3-1.3,1.3h-1.2c-0.8,0-1.3-0.4-1.3-1.3
				V228.9z"/>
			<path d="M62.3,227.8c0-0.1,0.1-0.1,0.1-0.1h0.9c0.1,0,0.1,0.1,0.1,0.1v6.8c0,0.1,0,0.1-0.1,0.1h-0.9c-0.1,0-0.1-0.1-0.1-0.1v-2.8
				h-1.1v2.8c0,0.1-0.1,0.1-0.1,0.1h-0.9c-0.1,0-0.1-0.1-0.1-0.1v-6.8c0-0.1,0-0.1,0.1-0.1h0.9c0.1,0,0.1,0.1,0.1,0.1v2.8h1.1V227.8
				z"/>
			<path d="M68,231c0,0.6-0.2,1-0.6,1.2l0.6,2.3c0,0.1,0,0.2-0.1,0.2h-0.9c-0.1,0-0.1,0-0.1-0.1l-0.6-2.2h-0.6v2.2
				c0,0.1-0.1,0.1-0.1,0.1h-0.9c-0.1,0-0.1-0.1-0.1-0.1v-6.8c0-0.1,0.1-0.1,0.1-0.1h2.2c0.8,0,1.3,0.4,1.3,1.3V231z M66.5,231.2
				c0.2,0,0.4-0.1,0.4-0.4v-1.7c0-0.2-0.1-0.4-0.4-0.4h-0.9v2.4H66.5z"/>
			<path d="M70,227.6c0.1,0,0.1,0.1,0.1,0.1v6.8c0,0.1-0.1,0.1-0.1,0.1H69c-0.1,0-0.1-0.1-0.1-0.1v-6.8c0-0.1,0-0.1,0.1-0.1H70z"/>
			<path d="M71,227.8c0-0.1,0-0.1,0.1-0.1h2.1c0.8,0,1.3,0.4,1.3,1.3v4.5c0,0.8-0.4,1.3-1.3,1.3h-2.1c-0.1,0-0.1,0-0.1-0.1V227.8z
				 M73,233.5c0.2,0,0.4-0.1,0.4-0.4v-4c0-0.2-0.1-0.4-0.4-0.4h-0.8v4.7H73z"/>
			<path d="M78.9,228.7c0,0.1,0,0.2-0.1,0.2h-2.2v1.8h1.7c0.1,0,0.1,0.1,0.1,0.1v0.9c0,0.1-0.1,0.1-0.1,0.1h-1.7v1.8h2.2
				c0.1,0,0.1,0,0.1,0.1v0.9c0,0.1,0,0.1-0.1,0.1h-3.2c-0.1,0-0.1-0.1-0.1-0.1v-6.8c0-0.1,0.1-0.1,0.1-0.1h3.2
				c0.1,0,0.1,0.1,0.1,0.1V228.7z"/>
		</g>
		<g>
			<path class="st34" d="M52.7,170c-1-1-2.4-1.6-3.9-1.6S46,169,44.9,170c-1,1-1.6,2.4-1.6,3.9s0.6,2.8,1.6,3.9c1,1,2.4,1.6,3.9,1.6
				s2.8-0.6,3.9-1.6C54.9,175.6,54.9,172.2,52.7,170z"/>
		</g>
		<path class="st35" d="M80.4,200l-19.6-19.6c-0.9-0.9-2-1.3-3.2-1.3s-2.4,0.5-3.2,1.3c-1.8,1.8-1.8,4.7,0,6.4L74,206.4
			c0.9,0.9,2,1.3,3.2,1.3l0,0c1.2,0,2.4-0.5,3.2-1.3C82.2,204.7,82.2,201.8,80.4,200z"/>
		<g>
			<path class="st34" d="M77.5,219.2L77.5,219.2c-2.6,0-5-1-6.8-2.8L34,179.8c-0.6-0.6-0.6-1.6,0-2.2c0.6-0.6,1.6-0.6,2.2,0
				l36.6,36.6c1.2,1.2,2.9,1.9,4.7,1.9c1.8,0,3.4-0.7,4.7-1.9c0.6-0.6,1.6-0.6,2.2,0s0.6,1.6,0,2.2C82.5,218.2,80,219.2,77.5,219.2z
				"/>
		</g>
	</g>
	<g id="labelBeer9">
		<circle id="bg_4_" class="st36" cx="59.3" cy="206.6" r="55"/>
		<g class="st6">
			<path d="M32.9,248.8c-0.4,0-0.8-0.1-1.1-0.4c-0.3-0.3-0.5-0.7-0.5-1.2s0.2-0.9,0.5-1.2c0.3-0.3,0.7-0.4,1.2-0.4
				c0.5,0,0.9,0.2,1.2,0.5l-0.4,0.5c-0.3-0.2-0.5-0.4-0.8-0.4c-0.3,0-0.5,0.1-0.7,0.3c-0.2,0.2-0.3,0.4-0.3,0.7
				c0,0.3,0.1,0.5,0.3,0.7c0.2,0.2,0.4,0.3,0.7,0.3c0.3,0,0.6-0.1,0.8-0.4l0.4,0.4C33.8,248.6,33.4,248.8,32.9,248.8z"/>
			<path d="M37.4,248.7h-0.6v-0.4c-0.3,0.3-0.6,0.5-1,0.5c-0.3,0-0.6-0.1-0.8-0.3c-0.2-0.2-0.3-0.4-0.3-0.7c0-0.3,0.1-0.5,0.3-0.7
				c0.2-0.2,0.5-0.2,0.9-0.2h0.9v-0.1c0-0.4-0.2-0.6-0.7-0.6c-0.3,0-0.6,0.1-0.9,0.3l-0.3-0.4c0.4-0.3,0.8-0.5,1.3-0.5
				c0.4,0,0.7,0.1,0.9,0.3c0.2,0.2,0.3,0.5,0.3,0.9V248.7z M36.8,247.5v-0.3H36c-0.5,0-0.7,0.1-0.7,0.4c0,0.2,0.1,0.3,0.2,0.3
				c0.1,0.1,0.3,0.1,0.5,0.1s0.4-0.1,0.5-0.2C36.7,247.9,36.8,247.7,36.8,247.5z"/>
			<path d="M39,248.7h-0.7v-4.4H39V248.7z"/>
			<path d="M40,245c-0.1-0.1-0.1-0.2-0.1-0.3s0-0.2,0.1-0.3c0.1-0.1,0.2-0.1,0.3-0.1c0.1,0,0.2,0,0.3,0.1c0.1,0.1,0.1,0.2,0.1,0.3
				s0,0.2-0.1,0.3c-0.1,0.1-0.2,0.1-0.3,0.1C40.2,245.1,40.1,245,40,245z M40.6,248.7h-0.7v-3.1h0.7V248.7z"/>
			<path d="M42.4,245.3v0.3h0.8v0.5h-0.8v2.6h-0.7v-2.6h-0.4v-0.5h0.4v-0.2c0-0.3,0.1-0.6,0.3-0.8c0.2-0.2,0.4-0.3,0.7-0.3
				s0.5,0.1,0.8,0.3l-0.3,0.5c-0.1-0.1-0.3-0.2-0.4-0.2c-0.1,0-0.3,0-0.3,0.1C42.4,245.1,42.4,245.2,42.4,245.3z"/>
			<path d="M46.3,248.3c-0.3,0.3-0.7,0.5-1.2,0.5c-0.5,0-0.9-0.2-1.2-0.5c-0.3-0.3-0.5-0.7-0.5-1.1s0.2-0.8,0.5-1.1
				c0.3-0.3,0.7-0.5,1.2-0.5c0.5,0,0.9,0.2,1.2,0.5c0.3,0.3,0.5,0.7,0.5,1.1S46.7,248,46.3,248.3z M44.5,247.9
				c0.2,0.2,0.4,0.3,0.7,0.3s0.5-0.1,0.7-0.3c0.2-0.2,0.3-0.4,0.3-0.7s-0.1-0.5-0.3-0.7c-0.2-0.2-0.4-0.3-0.7-0.3s-0.5,0.1-0.7,0.3
				c-0.2,0.2-0.3,0.4-0.3,0.7S44.3,247.7,44.5,247.9z"/>
			<path d="M49.2,246.2c-0.3,0-0.6,0.1-0.7,0.3c-0.2,0.2-0.2,0.5-0.2,0.9v1.3h-0.7v-3.1h0.7v0.6c0.1-0.2,0.2-0.4,0.4-0.5
				s0.4-0.2,0.6-0.2L49.2,246.2C49.2,246.2,49.2,246.2,49.2,246.2z"/>
			<path d="M50.6,247v1.7h-0.7v-3.1h0.7v0.6c0.1-0.2,0.3-0.3,0.4-0.5s0.4-0.2,0.6-0.2c0.4,0,0.6,0.1,0.9,0.3
				c0.2,0.2,0.3,0.5,0.3,0.9v1.9h-0.7V247c0-0.6-0.2-0.9-0.7-0.9c-0.2,0-0.4,0.1-0.6,0.2C50.6,246.5,50.6,246.7,50.6,247z"/>
			<path d="M53.7,245c-0.1-0.1-0.1-0.2-0.1-0.3s0-0.2,0.1-0.3c0.1-0.1,0.2-0.1,0.3-0.1c0.1,0,0.2,0,0.3,0.1c0.1,0.1,0.1,0.2,0.1,0.3
				s0,0.2-0.1,0.3c-0.1,0.1-0.2,0.1-0.3,0.1C53.9,245.1,53.8,245,53.7,245z M54.3,248.7h-0.7v-3.1h0.7V248.7z"/>
			<path d="M57.8,248.7h-0.6v-0.4c-0.3,0.3-0.6,0.5-1,0.5c-0.3,0-0.6-0.1-0.8-0.3c-0.2-0.2-0.3-0.4-0.3-0.7c0-0.3,0.1-0.5,0.3-0.7
				c0.2-0.2,0.5-0.2,0.9-0.2h0.9v-0.1c0-0.4-0.2-0.6-0.7-0.6c-0.3,0-0.6,0.1-0.9,0.3l-0.3-0.4c0.4-0.3,0.8-0.5,1.3-0.5
				c0.4,0,0.7,0.1,0.9,0.3c0.2,0.2,0.3,0.5,0.3,0.9V248.7z M57.2,247.5v-0.3h-0.7c-0.5,0-0.7,0.1-0.7,0.4c0,0.2,0.1,0.3,0.2,0.3
				c0.1,0.1,0.3,0.1,0.5,0.1s0.4-0.1,0.5-0.2C57.1,247.9,57.2,247.7,57.2,247.5z"/>
			<path d="M61.7,248.8c-0.4,0-0.8-0.1-1.1-0.4c-0.3-0.3-0.5-0.7-0.5-1.2s0.2-0.9,0.5-1.2c0.3-0.3,0.7-0.4,1.2-0.4
				c0.5,0,0.9,0.2,1.2,0.5l-0.4,0.5c-0.3-0.2-0.5-0.4-0.8-0.4c-0.3,0-0.5,0.1-0.7,0.3c-0.2,0.2-0.3,0.4-0.3,0.7
				c0,0.3,0.1,0.5,0.3,0.7c0.2,0.2,0.4,0.3,0.7,0.3c0.3,0,0.6-0.1,0.8-0.4l0.4,0.4C62.7,248.6,62.2,248.8,61.7,248.8z"/>
			<path d="M66.3,248.3c-0.3,0.3-0.7,0.5-1.2,0.5s-0.9-0.2-1.2-0.5c-0.3-0.3-0.5-0.7-0.5-1.1s0.2-0.8,0.5-1.1
				c0.3-0.3,0.7-0.5,1.2-0.5s0.9,0.2,1.2,0.5c0.3,0.3,0.5,0.7,0.5,1.1S66.6,248,66.3,248.3z M64.4,247.9c0.2,0.2,0.4,0.3,0.7,0.3
				c0.3,0,0.5-0.1,0.7-0.3c0.2-0.2,0.3-0.4,0.3-0.7s-0.1-0.5-0.3-0.7c-0.2-0.2-0.4-0.3-0.7-0.3c-0.3,0-0.5,0.1-0.7,0.3
				c-0.2,0.2-0.3,0.4-0.3,0.7S64.2,247.7,64.4,247.9z"/>
			<path d="M68.2,247v1.7h-0.7v-3.1h0.7v0.6c0.1-0.2,0.2-0.3,0.4-0.5c0.2-0.1,0.4-0.2,0.6-0.2c0.5,0,0.8,0.2,1,0.6
				c0.3-0.4,0.7-0.6,1.2-0.6c0.4,0,0.6,0.1,0.9,0.3c0.2,0.2,0.3,0.5,0.3,0.9v1.9h-0.7V247c0-0.6-0.2-0.9-0.7-0.9
				c-0.2,0-0.4,0.1-0.6,0.2c-0.2,0.1-0.3,0.4-0.3,0.6v1.7h-0.7V247c0-0.3-0.1-0.5-0.2-0.7c-0.1-0.1-0.3-0.2-0.5-0.2
				c-0.2,0-0.4,0.1-0.6,0.2C68.2,246.5,68.2,246.7,68.2,247z"/>
			<path d="M74.1,247v1.7h-0.7v-3.1h0.7v0.6c0.1-0.2,0.2-0.3,0.4-0.5c0.2-0.1,0.4-0.2,0.6-0.2c0.5,0,0.8,0.2,1,0.6
				c0.3-0.4,0.7-0.6,1.2-0.6c0.4,0,0.6,0.1,0.9,0.3c0.2,0.2,0.3,0.5,0.3,0.9v1.9h-0.7V247c0-0.6-0.2-0.9-0.7-0.9
				c-0.2,0-0.4,0.1-0.6,0.2c-0.2,0.1-0.3,0.4-0.3,0.6v1.7h-0.7V247c0-0.3-0.1-0.5-0.2-0.7c-0.1-0.1-0.3-0.2-0.5-0.2
				c-0.2,0-0.4,0.1-0.6,0.2C74.2,246.5,74.1,246.7,74.1,247z"/>
			<path d="M82,248.3c-0.3,0.3-0.7,0.5-1.2,0.5c-0.5,0-0.9-0.2-1.2-0.5c-0.3-0.3-0.5-0.7-0.5-1.1s0.2-0.8,0.5-1.1
				c0.3-0.3,0.7-0.5,1.2-0.5c0.5,0,0.9,0.2,1.2,0.5c0.3,0.3,0.5,0.7,0.5,1.1S82.3,248,82,248.3z M80.1,247.9
				c0.2,0.2,0.4,0.3,0.7,0.3c0.3,0,0.5-0.1,0.7-0.3c0.2-0.2,0.3-0.4,0.3-0.7s-0.1-0.5-0.3-0.7c-0.2-0.2-0.4-0.3-0.7-0.3
				c-0.3,0-0.5,0.1-0.7,0.3c-0.2,0.2-0.3,0.4-0.3,0.7S79.9,247.7,80.1,247.9z"/>
			<path d="M83.9,247v1.7h-0.7v-3.1h0.7v0.6c0.1-0.2,0.3-0.3,0.4-0.5c0.2-0.1,0.4-0.2,0.6-0.2c0.4,0,0.6,0.1,0.9,0.3
				c0.2,0.2,0.3,0.5,0.3,0.9v1.9h-0.7V247c0-0.6-0.2-0.9-0.7-0.9c-0.2,0-0.4,0.1-0.6,0.2C84,246.5,83.9,246.7,83.9,247z"/>
		</g>
		<g class="st6">
			<path d="M41.7,230.6c0.8,0,1.3,0.4,1.3,1.3v0.9c0,0.1,0,0.1-0.1,0.1h-0.9c-0.1,0-0.1-0.1-0.1-0.1v-0.7c0-0.2-0.1-0.4-0.4-0.4H41
				c-0.2,0-0.4,0.1-0.4,0.4v1.2l2.1,0.7c0.1,0.1,0.2,0.2,0.2,0.3v2c0,0.8-0.4,1.3-1.3,1.3h-1c-0.8,0-1.3-0.4-1.3-1.3v-0.9
				c0-0.1,0.1-0.1,0.1-0.1h0.9c0.1,0,0.1,0,0.1,0.1v0.7c0,0.2,0.1,0.4,0.4,0.4h0.4c0.2,0,0.4-0.1,0.4-0.4V235l-2.1-0.7
				c-0.2-0.1-0.2-0.2-0.2-0.3v-2.1c0-0.8,0.4-1.3,1.3-1.3H41.7z"/>
			<path d="M46.8,230.6c0.1,0,0.1,0.1,0.1,0.1v0.9c0,0.1,0,0.1-0.1,0.1h-1v5.7c0,0.1,0,0.1-0.1,0.1h-0.9c-0.1,0-0.1,0-0.1-0.1v-5.7
				h-1c-0.1,0-0.1-0.1-0.1-0.1v-0.9c0-0.1,0.1-0.1,0.1-0.1H46.8z"/>
			<path d="M51.1,231.7c0,0.1,0,0.2-0.1,0.2h-2.2v1.8h1.7c0.1,0,0.1,0.1,0.1,0.1v0.9c0,0.1-0.1,0.1-0.1,0.1h-1.7v1.8H51
				c0.1,0,0.1,0,0.1,0.1v0.9c0,0.1,0,0.1-0.1,0.1h-3.2c-0.1,0-0.1-0.1-0.1-0.1v-6.8c0-0.1,0.1-0.1,0.1-0.1H51c0.1,0,0.1,0.1,0.1,0.1
				V231.7z"/>
			<path d="M55,237.7c-0.1,0-0.1,0-0.1-0.1l-0.2-1.3h-1.6l-0.2,1.3c0,0.1-0.1,0.1-0.1,0.1h-0.9c-0.1,0-0.1-0.1-0.1-0.1l1.5-6.8
				c0-0.1,0.1-0.1,0.1-0.1h1.2c0.1,0,0.1,0,0.1,0.1l1.5,6.8c0,0.1,0,0.1-0.1,0.1H55z M53.9,232.2l-0.6,3.1h1.1L53.9,232.2z"/>
			<path d="M61.5,230.6c0.1,0,0.2,0.1,0.2,0.2v6.7c0,0.1-0.1,0.2-0.2,0.2h-0.8c-0.1,0-0.2-0.1-0.2-0.2v-4h-0.1l-0.9,4
				c0,0.1-0.1,0.2-0.2,0.2H59c-0.1,0-0.2-0.1-0.2-0.2l-0.9-4h-0.1v4c0,0.1-0.1,0.2-0.2,0.2h-0.8c-0.1,0-0.2-0.1-0.2-0.2v-6.7
				c0-0.1,0.1-0.2,0.2-0.2H58c0.1,0,0.2,0.1,0.2,0.2l1,4.4l1-4.4c0-0.1,0.1-0.2,0.2-0.2H61.5z"/>
			<path d="M62.6,230.8c0-0.1,0.1-0.1,0.1-0.1h2.1c0.8,0,1.3,0.4,1.3,1.3v2.1c0,0.8-0.4,1.3-1.3,1.3h-1.1v2.2c0,0.1,0,0.1-0.1,0.1
				h-0.9c-0.1,0-0.1-0.1-0.1-0.1V230.8z M64.6,234.2c0.2,0,0.4-0.1,0.4-0.4v-1.7c0-0.2-0.1-0.4-0.4-0.4h-0.8v2.4H64.6z"/>
			<path d="M70.4,230.6c0.1,0,0.2,0.1,0.2,0.2v5.6c0,0.8-0.4,1.3-1.3,1.3h-1c-0.8,0-1.3-0.4-1.3-1.3v-5.6c0-0.1,0.1-0.2,0.2-0.2H68
				c0.1,0,0.2,0.1,0.2,0.2v5.4c0,0.2,0.1,0.4,0.4,0.4H69c0.2,0,0.4-0.1,0.4-0.4v-5.4c0-0.1,0.1-0.2,0.2-0.2H70.4z"/>
			<path d="M75,230.6c0.1,0,0.1,0.1,0.1,0.1v6.8c0,0.1-0.1,0.1-0.1,0.1h-0.9c-0.1,0-0.1,0-0.2-0.1l-1.3-3.8h0v3.7
				c0,0.1,0,0.1-0.1,0.1h-0.9c-0.1,0-0.1-0.1-0.1-0.1v-6.8c0-0.1,0.1-0.1,0.1-0.1h0.9c0.1,0,0.1,0,0.2,0.1l1.3,3.7H74v-3.7
				c0-0.1,0-0.1,0.1-0.1H75z"/>
			<path d="M78.9,237.7c-0.1,0-0.2,0-0.2-0.1l-1.1-2.6l-0.3,0.6v1.9c0,0.1-0.1,0.2-0.2,0.2h-0.8c-0.1,0-0.2-0.1-0.2-0.2v-6.7
				c0-0.1,0.1-0.2,0.2-0.2h0.8c0.1,0,0.2,0.1,0.2,0.2v2.7l1.4-2.8c0-0.1,0.1-0.1,0.2-0.1h0.9c0.1,0,0.2,0.1,0.1,0.2l-1.5,3.1
				l1.6,3.6c0.1,0.1,0,0.2-0.1,0.2H78.9z"/>
		</g>
		<g>
			<g>
				<path d="M73.3,191.2c-1.4-6.1-6.2-10.9-12.3-12.3c-5.1-1.1-10.2,0-14.2,3.2c-3.9,3.1-6.1,7.6-6.2,12.5l-3.5,7
					c-0.3,0.6-0.3,1.2,0.1,1.8c0.3,0.5,0.9,0.9,1.6,0.9h1.8v1.8c0,3,2.5,5.5,5.5,5.5h1.8v9.2c0,1.2,1.2,2.1,2.3,1.8L65,219
					c0.8-0.2,1.4-0.9,1.4-1.8v-8.3C72.1,205.1,74.9,198.1,73.3,191.2z M59,204.3c-3,0-5.5-2.5-5.5-5.5c0-1,0.8-1.8,1.8-1.8
					s1.8,0.8,1.8,1.8s0.8,1.8,1.8,1.8s1.8-0.8,1.8-1.8s0.8-1.8,1.8-1.8s1.8,0.8,1.8,1.8C64.5,201.9,62,204.3,59,204.3z"/>
			</g>
		</g>
		<g>
			<g>
				<path d="M90.7,193.3l-11.8-2.5l9.9-6.8c0.7-0.5,1-1.4,0.7-2.2s-1.2-1.3-2-1.1l-11.9,2.2l6.6-10.1c0.5-0.7,0.4-1.7-0.2-2.3
					s-1.6-0.7-2.3-0.2l-10.1,6.6l2.2-11.9c0.2-0.9-0.3-1.7-1.1-2c-0.8-0.3-1.7-0.1-2.2,0.7l-6.8,9.9l-2.5-11.8
					c-0.2-0.8-0.9-1.5-1.8-1.5c-0.9,0-1.6,0.6-1.8,1.5l-2.5,11.8l-6.8-9.9c-0.5-0.7-1.4-1-2.2-0.7s-1.3,1.2-1.1,2l2.2,11.9
					l-10.1-6.6c-0.7-0.5-1.7-0.4-2.3,0.2c-0.6,0.6-0.7,1.6-0.2,2.3l7.7,11.9c1.2-2,2.8-3.8,4.7-5.3c3.6-2.8,8.1-4.4,12.7-4.4
					c1.6,0,3.1,0.2,4.7,0.5c7.4,1.7,13.3,7.6,15,15c1.4,6,0,12-3.4,16.6l13.9,2.6c0.1,0,0.2,0,0.3,0c0.7,0,1.4-0.4,1.7-1.1
					c0.3-0.8,0.1-1.7-0.7-2.2l-9.9-6.8l11.8-2.5c0.8-0.2,1.5-0.9,1.5-1.8C92.2,194.3,91.6,193.5,90.7,193.3z"/>
			</g>
		</g>
	</g>
</g>
</svg>
