<?xml version="1.0" encoding="utf-8"?>
<!-- Generator: Adobe Illustrator 22.1.0, SVG Export Plug-In . SVG Version: 6.00 Build 0)  -->
<svg version="1.1" xmlns="http://www.w3.org/2000/svg" xmlns:xlink="http://www.w3.org/1999/xlink" x="0px" y="0px"
	 viewBox="0 0 118.3 311.9" style="enable-background:new 0 0 118.3 311.9;" xml:space="preserve">
<style type="text/css">
	.st0{fill:#FBC333;}
	.st1{font-family:'Montserrat-Regular';}
	.st2{font-size:5.1368px;}
	.st3{font-family:'ArialMT';}
	.st4{font-size:11.7412px;}
	.st5{fill:#351D02;}
	.st6{fill:#BD2233;}
	.st7{fill:#F59332;}
	.st8{fill:#FEF035;}
	.st9{fill:#17A453;}
	.st10{fill:#1DAFEC;}
	.st11{fill:#FFFFFF;}
	.st12{fill:#FF0093;}
	.st13{font-size:8.8059px;}
	.st14{fill:#7B7160;}
	.st15{font-size:4.4029px;}
	.st16{fill:#7C201C;}
	.st17{fill:#B3703D;}
	.st18{fill:#683D1F;}
	.st19{fill:#FFFFFE;}
	.st20{fill:#DC2A26;}
	.st21{fill:#E3BF9A;}
	.st22{fill:#A8D1D8;}
	.st23{fill:#2E2B2C;}
	.st24{fill:#99B755;}
	.st25{fill:#FFCE54;}
	.st26{fill:#F6BB42;}
	.st27{fill:#ED5565;}
	.st28{letter-spacing:-1;}
	.st29{font-size:5.8706px;}
	.st30{fill:#1AA2E1;}
	.st31{fill:#E7BB40;}
	.st32{fill:#25871F;}
	.st33{fill:#C42754;}
	.st34{fill:#E8DD18;}
	.st35{fill:#1ABAE5;}
	.st36{fill:#F4F7DC;}
	.st37{fill:#3D4B50;}
	.st38{fill:#93A4AE;}
	.st39{fill:#BCB8B1;}
	.st40{fill:#232B2E;}
</style>
<g id="keg">
	<g id="labelBeer1">
		<circle id="brand-2" class="st0" cx="59.3" cy="206.6" r="55"/>
		<text transform="matrix(1 0 0 1 44.41 248.25)" class="st1 st2">h</text>
		<text transform="matrix(1 0 0 1 47.73 248.25)" class="st1 st2">e</text>
		<text transform="matrix(1 0 0 1 50.88 248.25)" class="st1 st2">feweiser</text>
		<text transform="matrix(1 0 0 1 40.25 240.67)" class="st3 st4">EL HEFE</text>
		<path class="st5" d="M84.4,227.7c-0.7-2.4-1.7-4.8-2.9-7c-0.6-1.1-1.1-2-1.7-2.9c-0.5-0.5-1.1-1-1.7-1.5c-0.9-0.7-1.9-1.3-3-1.8
			c0.1-1.6,0.2-3.2,0.3-4.9c0-0.6,0.1-1.3,0.1-1.9c-0.9,0-1.8,0.1-2.7,0.2c-0.9,0.2-1.8,0.7-2.7,0.8c0.1-1.4,0.1-2.8,0.1-4.2
			c-0.1-1.2,0.8-2,1.3-3.1c0.9-1.7,1.6-3.5,2.3-5.3c1.1-2.3,2.3-4.6,3.4-6.9l5.4-3l1.7-1c1.1-0.7,4.3-2.8,5.1-6.7
			c0.1-0.7,0.2-1.3,0.2-2c0,0.2-1.4,0.9-1.6,1c-0.6,0.4-1.3,0.7-2,1c-1.6,0.6-3.3,1-5,1.2c-0.1,0-0.1,0-0.2,0
			c-0.1,0-0.1-0.1-0.1-0.2c-0.4-1.1-0.9-2.1-1.3-3.2c-1-2.6-2-5.2-2.9-7.7c-0.2-1.2-0.5-2.3-1-3.4c-0.3-0.8-0.7-1.5-1.2-2.2
			c-4.1-3.2-9.9-2.8-13.5,0.9c-0.9,0.8-1.7,1.7-2.4,2.6c-1.1,1.5-1.9,3.1-2.4,4.8c-1-0.8-2.2-1.4-3.5-1.7c-0.9-0.3-1.9-0.4-2.9-0.4
			c-3.6,0.8-6.3,3.7-6.9,7.3c0.4,3.5,2,6.7,4.4,9.3l7,6.5c0.3,2.6,0.2,5.2-0.2,7.8c-0.2,1.2-0.6,2.4-1,3.6c-1.3,1.5-2.6,3-4,4.6
			c-0.1,0.1-0.2,0.2-0.3,0.2c-0.1,0-0.2,0.1-0.3,0.1c-2.5,0.3-5,0.8-7.4,1.5c-2.4,0.7-4.6,1.8-6.7,3.1c-1,0.8-1.8,2-2.2,3.3
			c-0.7,1.6-1.2,3.3-1.7,5c-0.1,0.5-1.2,6.2-1.2,6.2L84.4,227.7z"/>
	</g>
	<g id="labelBeer2">
		<g id="Rainbow">
			<circle id="circle-2" class="st6" cx="59.3" cy="206.6" r="55"/>
			<circle id="circle-3" class="st7" cx="59.3" cy="207.8" r="52.2"/>
			<ellipse id="circle-4" class="st8" cx="59.6" cy="209.8" rx="50.2" ry="49"/>
			<ellipse id="circle-5" class="st9" cx="59.3" cy="211.8" rx="48.2" ry="47"/>
			<ellipse id="circle-6" class="st10" cx="59.8" cy="213" rx="46.1" ry="43.4"/>
			<ellipse id="circle-7" class="st11" cx="59.7" cy="217.2" rx="45" ry="43.9"/>
		</g>
		<path class="st12" d="M91.7,170.7L79,183.4c0.1-0.1,3.8,3.1,4.2,3.4c0.1,0.1,0.3,0.2,0.4,0.3c0.2,0,0.3,0,0.5,0
			c1.5-0.2,3-0.3,4.5-0.5c0.1,0,0.2,0,0.2,0c0.1,0,0.1,0.1,0.2,0.2c0.6,0.7,0.9,1.5,1,2.4c-0.5-0.4-0.9-0.8-1.3-1.2
			c-0.1-0.1-0.1-0.1-0.2-0.2c-0.1,0-0.3,0-0.4,0l-5.7,0.8c0.3,0,2.7,5.1,3,5.6c0.2,0.3,1.8,0,2.1,0.1c-0.1,0.6-0.4,1.1-0.7,1.5
			c-0.2,0.4-4.8-1.6-5.4-1.6c2.8,4,5.6,8,8.4,12c0.1,0.1,0.1,0.2,0.2,0.2c0.1,0,0.2,0.1,0.3,0h1.4l0.5,1.4c0,0.1,0.1,0.2,0.1,0.4
			c0,0.2-0.1,0.3-0.2,0.5c-0.6,1.3-1.1,2.6-1.4,4c0,0.1-0.1,0.2-0.1,0.3c-0.3,0.4-1.7,0.5-2.1,0.6c-0.2,0-0.3,0.1-0.5,0.2
			c-1,0.7-1.3,1.5-2.7,1.7c-1.6,0.1-3.3,0.2-4.9,0.1c-0.2,0-0.4,0-0.5-0.1c-0.2-0.2-0.3-0.4-0.3-0.6c-0.6-2.7-2-5-4.2-6.7
			c-0.5-0.4-1.1-0.7-1.7-1c-2-0.6-4.6-0.4-6.8-0.5c0.6,3.6,1.2,7.2,1.9,10.7c8.6,9.8,19.2,17.8,31,23.5c-1.6,1.6-4,4.1-6.9,7
			c-1.8,1.7-2.6,2.6-3.3,3.1c-0.9,0.8-3.7,3-10.5,5.8c-3.3,1.5-6.7,2.6-10.2,3.3c-6.2,1.2-11.1,0.7-16.1,0.4
			c-1.7-0.1-3.4-0.4-5.1-0.8c-1.9-0.5-3.8-1.3-5.6-2.1l-7.2-3.1c-1.6-1.1-3.3-2.2-5-3.5c-1.5-1.1-2.9-2.2-4.3-3.3
			c-1.6-1.3-3.1-2.7-4.5-4.2c-1-1.1-1.9-2.2-3.6-4.3c-4.2-5.2-4.6-6.1-4.3-6.7s1.4-0.7,3.6-1.1c1.5-0.2,3-0.4,4.4-0.5
			c0.2-0.2,3.8-4.1,3.9-4.6c0-0.1,0-0.2,0-0.3c-0.1-0.1-0.2-0.2-0.3-0.3l-6.5-4.5c1.3,0.9,4,0.2,5.2-0.5c1.8-1.1,3-3.1,3.1-5.3
			c0-0.1,0-0.3-0.1-0.4c-0.1-0.1-0.2-0.3-0.3-0.3c-1-0.7-2.3-1-3.5-0.8c0.7-0.8,1.3-1.7,1.8-2.6c0.8-0.9,1.4-2,1.9-3.1
			c0.4-0.8,0.4-1.8,0-2.7c-0.4-0.6-1-1-1.7-1.1c-0.5-0.2-3.5-0.5-3.7-1s1-0.4,1.3-0.5c0.9-0.1,1.8-0.3,2.6-0.5
			c1.8-0.3,3.4-1.1,4.8-2.3c0.5-0.5,1-1,1.5-1.5c1-1,2.1-1.9,3.3-2.6c-0.7-0.9-1.4-1.9-2-2.9c-0.5-0.9-0.9-1.7-1.3-2.6
			c-0.1-1.7,0.1-3.4,0.6-5c0.3-1.1,0.8-2.1,1.3-3.1l0.3,2.6c0.2,0.4,0.5,0.8,0.8,1.1c0.4,0.4,1,0.8,1.5,1c1.1,0.3,2.3,0.5,3.5,0.6
			c0.7,0.1,1.4,0.1,2,0.2c1.6,0,3.2-0.7,4.1-2c-0.3-0.1-0.6-0.3-0.9-0.5c-0.4-0.3-0.7-0.7-0.9-1.1c-0.3-0.4-0.7-0.8-1.1-1.1
			c-0.8-0.6-1.7-0.9-2.6-1.1c1.8-0.5,3.7-0.4,5.4,0.2c0.4,0.2,0.8,0.3,1.3,0.3c0.6,0,1.1-0.2,1.6-0.5c1.3-0.5,2.8-0.7,4.2-0.5
			c0.5,0.1,1.8,0.7,2.2,0.6s0.7-1.3,0.9-1.7c0.3-0.5,0.5-0.9,0.9-1.3c0.2-0.2,0.5-0.4,0.8-0.5c0.3-0.1,0.7-0.1,1,0
			c-0.2,0.2-0.4,0.5-0.5,0.8c-0.1,0.3-0.1,0.6,0,0.9c0.4,0.2,0.8,0.4,1.2,0.4c0.4,0,0.7-0.1,1.1-0.2c0-1.3,0.1-2.7,0.3-4.1
			s0.4-2.8,0.6-4c1,0.8,2,1.7,3.1,2.7s2.2,2.1,3.1,3.2c2.2-0.1,4.4,0.1,6.6,0.7c0.4-0.1,0.9-0.2,1.3-0.3c0.4-0.2,0.8-0.4,1.1-0.6
			l0.5-1c0-0.4-0.2-0.7-0.5-0.9c-0.3-0.1-0.6-0.2-0.8,0c0.2-0.3,0.5-0.5,0.9-0.6c0.3-0.1,0.7,0,1,0.2c0.3,0.1,0.4,0.4,0.5,0.7
			c0.1,0.3,0.1,0.6-0.1,0.8L91.7,170.7z"/>
		<text transform="matrix(1 0 0 1 31.28 243.85)" class="st3 st13">F</text>
		<text transform="matrix(1 0 0 1 34.8 243.85)" class="st3 st13">AI</text>
		<text transform="matrix(1 0 0 1 42.04 243.85)" class="st3 st13">R</text>
		<text transform="matrix(1 0 0 1 46.28 243.85)" class="st3 st13">Y </text>
		<text transform="matrix(1 0 0 1 53.29 243.85)" class="st3 st13">T</text>
		<text transform="matrix(1 0 0 1 56.54 243.85)" class="st3 st13">A</text>
		<text transform="matrix(1 0 0 1 61.7 243.85)" class="st3 st13">L</text>
		<text transform="matrix(1 0 0 1 65.84 243.85)" class="st3 st13">E A</text>
		<text transform="matrix(1 0 0 1 77.6 243.85)" class="st3 st13">L</text>
		<text transform="matrix(1 0 0 1 81.74 243.85)" class="st3 st13">E</text>
	</g>
	<g id="labelBeer3">
		<circle id="brand-3" class="st14" cx="59.3" cy="206.6" r="55"/>
		<text transform="matrix(1 0 0 1 44.41 248.25)" class="st1 st15">VENOM ALE</text>
		<text transform="matrix(1 0 0 1 46.37 240.67)" class="st3 st13">GITHOP</text>
		<path class="st16" d="M52.7,172.3c0.1,0.5,0.2,1,0.3,1.5c0,0.8,0,1.6-0.3,2.3c-0.7,1.7-1.6,3.3-2.7,4.6c-0.3,0.1-0.6,0-0.9-0.1
			c-0.1-0.1-0.2-0.2-0.3-0.4c-0.2-0.5-0.4-1.1-0.6-1.7c-0.1-0.7-0.2-1.3-0.2-2v-2c0.1-0.7,0.2-1.4,0.5-2c0.4-1,1-1.8,1.8-2.5
			c0.7-1.3,1.6-2.4,2.7-3.2c1.2-0.9,2.5-1.6,4-2c2.5-0.1,5,0.4,7.2,1.6c1.3,0.9,2.4,2,3.3,3.3c0.6,0.9,1.1,1.9,1.4,3
			c1.1,3,1.1,6.2,0,9.2c-0.7,1.4-1.4,2.7-2.3,4c-0.9,1.3-1.9,2.6-3.1,3.7c-0.9,0.7-1.8,1.4-2.8,2c-1.6,1-3.2,2-4.8,2.8
			c-1.4,1.1-2.7,2.3-3.8,3.6c-1.3,1.4-2.4,3-3.3,4.7c-0.5,1.4-0.8,2.8-0.9,4.2c-0.1,1.1,0,2.1,0.2,3.1c0.7,1.2,1.5,2.4,2.5,3.4
			c0.8,0.8,1.8,1.5,2.8,2.1c1.2,0.4,2.4,0.7,3.6,0.8c1.5,0.2,2.9,0.1,4.4-0.1c0.9-0.3,1.8-0.7,2.6-1.2c0.9-0.7,1.7-1.5,2.4-2.5
			c0.5-0.9,0.9-1.8,1.1-2.8c0.2-1,0.2-2,0-3c-0.1-0.9-0.3-1.9-0.7-2.7c-0.5-1-1.1-1.9-1.9-2.6c-0.8-0.6-1.6-1-2.5-1.4
			c-1.1-0.4-2.2-0.6-3.3-0.5c-0.8,0-1.6,0.2-2.4,0.5c-1.1,0.4-2,1-2.8,1.8l-1.5,1.9c-0.3-1.7,0.3-3.5,1.5-4.8
			c1.5-2.1,3.8-3.5,6.4-3.5c2.1-0.1,4.1,0.5,5.8,1.7c2.1,1.3,3.8,3.2,4.9,5.4c1.3,3.4,1.3,7.1,0,10.5c-0.4,1.1-1,2.1-1.7,3.1
			c-0.7,0.9-1.6,1.8-2.5,2.5c-0.9,0.5-1.8,0.9-2.7,1.2c-1.7,0.6-3.5,1-5.2,1.1c-1.3,0.1-2.5,0.1-3.8,0c-1.5-0.2-3-0.5-4.4-1.1
			c-2.9-1.8-5.1-4.5-6.4-7.7c-0.4-1.3-0.7-2.6-0.8-3.9c-0.1-1.2,0-2.4,0.2-3.6c0.2-1.2,0.5-2.3,0.9-3.4c0.6-1.4,1.3-2.8,2.2-4
			c1-1.3,2-2.5,3.2-3.7c0.9-0.9,1.9-1.8,2.9-2.7c0.7-0.6,1.5-1.1,2.2-1.6c1.2-0.8,2.5-1.4,3.8-2l4.8-4.5c0.5-1.1,0.9-2.2,1.2-3.4
			c0.2-0.8,0.2-1.6,0.3-2.4c0.1-2.2-0.7-4.4-2.1-6.1c-0.6-0.6-1.3-1.1-2.1-1.5c-0.5-0.2-1-0.4-1.6-0.5c-1-0.2-2.1,0-3,0.4
			c-0.7,0.3-1.3,0.7-1.7,1.3L52.7,172.3z"/>
	</g>
	<g id="labelBeer4">
		<circle id="brand-4" class="st17" cx="59.3" cy="206.6" r="55"/>
		<path class="st11" d="M60.4,157.3c2.9,0,5.8,0.4,8.7,1c7.6,1.8,14.7,6.9,17.6,14.1c1.8,4.4,1.9,9.2,1.7,13.8
			c-0.2,4.9-0.1,9.8-0.1,14.8v15.9c0,5,0.8,10.6,0,15.5c-1.2,7.7-6.6,14.1-14,16.6c-9.1,3.6-19.3,3.6-28.4,0
			c-7.3-2.9-12.5-9.4-13.6-17.1c-0.4-2.8,0-6.1,0-8.9v-9.8c0-6.4,0-12.7,0-19.1c-0.1-16-0.3-18.9,2-23.3c1.6-2.9,3.7-5.4,6.3-7.4
			C48.2,157.3,57,157.2,60.4,157.3z"/>
		<path class="st18" d="M60.4,159.5c2.8,0,5.5,0.4,8.2,1c7.2,1.7,14,6.5,16.8,13.5c1.7,4.2,1.8,8.8,1.6,13.2
			c-0.2,4.7-0.1,9.4-0.1,14.1v15.1c0,4.7,0.7,10.1,0,14.7c-1.1,7.4-6.2,13.5-13.3,15.9c-8.7,3.4-18.4,3.4-27,0
			c-7-2.7-11.9-9-13.1-16.4c-0.4-2.7,0-5.8,0-8.5v-9.3c0-6.1,0-12.1,0-18.2c-0.1-15.2-0.3-18,1.9-22.2c1.5-2.7,3.5-5.1,6-7.1
			C48.7,159.5,57.1,159.4,60.4,159.5z"/>
		<polygon class="st19" points="33.4,212.1 21.1,212.1 23.1,218.7 21.1,225.4 33.5,225.4 		"/>
		<polygon class="st19" points="87.2,212.1 99.5,212.1 97.6,218.7 99.5,225.4 87.2,225.4 		"/>
		<polygon class="st20" points="87.4,213.3 97.6,213.3 96,218.8 97.6,224.4 87.3,224.4 		"/>
		<polygon class="st20" points="33,213.3 22.8,213.3 24.4,218.8 22.8,224.4 33,224.4 		"/>
		<path class="st21" d="M50.7,174.8l1.4,8.1l11,1.1l1.5-8L50.7,174.8z"/>
		<path class="st21" d="M66.5,176.3l1.6,9.5l9.5-1.4l1.5-10L66.5,176.3z"/>
		<path class="st20" d="M50.9,160.5c-0.4,3.1-1,6.1-2,9.1c-0.6,1.7-1.2,3.4-2,5.1l18.8,1.5c3,0.4,6.1,0.4,9.1,0c1.5-0.4,3-1,4.4-1.7
			c0.9-0.5,1.8-1.1,2.6-1.7l-2.5-3.8l-1.4-4.4c-1.7-1.1-3.4-2-5.3-2.8c-2.9-1.2-6-1.9-9.1-2.2c-2-0.2-4-0.2-6-0.1
			C55.3,159.6,53.1,160,50.9,160.5z"/>
		<path class="st22" d="M52.1,182.7v6.7c-0.2,1.7-0.7,3.4-1.5,4.9c-0.7,0.6-1.4,1.3-2,2c-0.7,0.8-1.4,1.7-2,2.6
			c-0.4,0.9-0.9,1.9-1.3,2.9c-1.3,3.1-1.7,4.7-2.5,6.8c-1.8,5.2-4.9,11.1-4.8,13.9c0,0.6,0.1,1.2,0.1,1.2c0.1,1.1,0.2,2.2,0.4,3.2
			c0.1,1.1,0.3,2.2,0.8,3.3c0.3,0.6,0.6,1.2,1,1.8c0.2,0.1,0.6,0.3,1.1,0.5c0.9,0.5,0.9,0.6,1.3,0.8c0.8,0.3,1.6,0.2,2.4-0.1
			c0.5-0.2,0.9-0.6,1.3-1c-0.6-1-1.1-1.9-1.4-2.6c-0.7-1.4-1.2-2.8-1.6-4.4c-0.1-0.4-0.1-0.8-0.2-1.2l10-17.5l4.4-7.7
			c0.7-0.7,1.4-1.4,2-2.1c0.5-0.6,1-1.3,1.5-2l0.3-2.2c0.1-0.3,0.1-0.7,0.3-1.2c0.4-1.9,0.7-2.9,0.9-3.8c0.3-1.3,0.5-2.6,0.6-4
			L52.1,182.7z"/>
		<path class="st22" d="M77.7,184.4c0.2,0.3,0,0.5,0,3.7c0,0.4,0,0.9,0,1.3c0,1.4,0.2,2.8,0.4,4.2c0.1,0.2,0.1,0.5,0.2,0.7
			c0.3,0.5,0.5,1,0.7,1.6c0.2,0.6,0.3,1.2,0.6,1.8l0.9,2.3c0.2,0.6,0.3,1.3,0.5,1.9c0.1,0.8,0.2,1.7,0.2,2.6v4.4l1.1,14.2l0.4,2
			l0.1,0.7c0,1.5,0,2.9-0.2,4.4c-0.1,1-0.3,1.9-0.5,2.7c-0.2,0.2-0.4,0.4-0.6,0.6c-0.4,0.2-0.8,0.3-1.2,0.3c-1.4,0.2-2.8,0.2-4.3,0
			c-0.3-0.3-0.4-0.7-0.4-1.1c0-0.2,0.1-0.4,0.2-0.5c0.2-0.3,0.5-0.8,0.8-1.4l1.5-5.3l-5-18.1c-0.4-1.4-0.8-2.8-1.1-4.4
			c-0.4-1.9-0.7-3.7-0.9-5.4c-0.4-0.5-0.7-1.1-0.9-1.7c-0.3-0.7-0.5-1.4-0.7-2.1c-0.2-0.8-0.5-1.7-0.7-2.6c-0.4-1.8-0.6-3.6-0.7-5.4
			C75.3,183.4,77.2,183.7,77.7,184.4z"/>
		<path class="st23" d="M38,222.6c-0.4,0.3-0.7,0.6-0.9,1c-0.3,0.5-0.5,1.1-0.6,1.8l0.7,3.1l0.7,7.7h0.5v-6L39,234
			c0.1,0.4,0.2,0.9,0.2,1.3c0,0.5,0.1,1,0.4,1.4c0.2,0.2,0.4,0.4,0.7,0.5c1.8,0.8,3.8,1,5.7,0.7c0.2,0,0.4-0.1,0.5-0.1
			c0.2-0.1,0.3-0.2,0.4-0.4c0.5-0.6,0.7-1.4,0.7-2.1l-1.5-2.9c-1.2,1-2.8,1.2-4.1,0.5c-0.5-0.6-1.1-1.2-1.5-1.8
			c-0.6-0.8-1-1.7-1.4-2.6L38,222.6z"/>
		<path class="st23" d="M82.7,225.8c0.3,0.3,0.5,0.7,0.7,1.1c0.2,0.3,0.3,0.7,0.4,1l-0.6,7.6h-0.5v-3.8l-0.5,4.5l-0.9,1.9
			c-0.9,0.2-1.8,0.2-2.7,0.2c-0.9,0-1.8-0.1-2.7-0.3c-0.1,0-0.2,0-0.3-0.1c-0.1-0.1-0.2-0.2-0.2-0.4c-0.3-1.3-1.1-2.4-0.7-4
			c0.1-0.4,0.2-0.8,0.5-1s0.9,0.1,1.7,0.3c0.7,0.2,1.5,0.2,2.2,0.1l1.6-0.4C82,230.6,82.7,228.3,82.7,225.8L82.7,225.8z"/>
		<rect x="28.6" y="208.9" class="st11" width="63.1" height="13.8"/>
		<rect x="29.8" y="209.8" class="st20" width="60.7" height="11.9"/>
		<text transform="matrix(1 0 0 1 40.99 219.06)" class="st11 st3 st13">HO</text>
		<text transform="matrix(1 0 0 1 49.8 219.06)" class="st11 st3 st13">L</text>
		<text transform="matrix(1 0 0 1 54.02 219.06)" class="st11 st3 st13">L</text>
		<text transform="matrix(1 0 0 1 58.16 219.06)" class="st11 st3 st13">A</text>
		<text transform="matrix(1 0 0 1 63.32 219.06)" class="st11 st3 st13">BA</text>
		<text transform="matrix(1 0 0 1 72.54 219.06)" class="st11 st3 st13">CK</text>
	</g>
	<g id="labelBeer5">
		<circle id="brand-5" class="st24" cx="59.3" cy="206.6" r="55"/>
		<path class="st25" d="M46.6,183c-10.6,0-19.3,8.6-19.3,19.3c0,10.6,8.6,19.3,19.3,19.3c10.6,0,19.3-8.6,19.3-19.3
			S57.2,183,46.6,183C46.6,183,46.6,183,46.6,183z M46.6,218.1c-8.7,0-15.8-7-15.9-15.8c0-8.7,7-15.8,15.8-15.9
			c8.7,0,15.8,7,15.9,15.8c0,0,0,0,0,0C62.3,211,55.3,218.1,46.6,218.1z"/>
		<path class="st26" d="M74.1,183c-5.2,0-10.1,2.1-13.7,5.8c0.8,0.8,1.5,1.7,2.2,2.7c6-6.4,16-6.8,22.4-0.8s6.8,16,0.8,22.4
			s-16,6.8-22.4,0.8c-5.4-5-6.6-13-3-19.4c-0.6-1.1-1.4-2.1-2.2-3c-6,8.8-3.7,20.8,5.1,26.8c8.8,6,20.8,3.7,26.8-5.1
			c6-8.8,3.7-20.8-5.1-26.8C81.7,184.2,78,183,74.1,183L74.1,183z"/>
		<path id="SVGCleanerId_0" class="st25" d="M58.1,213.1c-5.9,6.4-15.9,6.8-22.3,0.8S29,198,35,191.6c5.9-6.4,15.9-6.8,22.3-0.8
			c5.4,5,6.6,13,3,19.3c0.6,1.1,1.3,2.1,2.2,3c6-8.8,3.7-20.8-5.1-26.7c-8.8-6-20.8-3.7-26.7,5.1c-6,8.8-3.7,20.8,5.1,26.7
			c7.7,5.2,18,4.2,24.5-2.5C59.5,214.9,58.8,214,58.1,213.1z"/>
		<path id="SVGCleanerId_0-2" class="st25" d="M58.1,213.1c-5.9,6.4-15.9,6.8-22.3,0.8S29,198,35,191.6c5.9-6.4,15.9-6.8,22.3-0.8
			c5.4,5,6.6,13,3,19.3c0.6,1.1,1.3,2.1,2.2,3c6-8.8,3.7-20.8-5.1-26.7c-8.8-6-20.8-3.7-26.7,5.1c-6,8.8-3.7,20.8,5.1,26.7
			c7.7,5.2,18,4.2,24.5-2.5C59.5,214.9,58.8,214,58.1,213.1z"/>
		<path class="st27" d="M68.3,164.5c-2.2-2.2-5.8-2.2-8,0c0,0,0,0,0,0c-2.2-2.2-5.8-2.2-8,0s-2.2,5.8,0,8l7.2,7.2l0,0
			c0.2,0.2,0.5,0.3,0.7,0.3c0.3,0,0.5-0.1,0.7-0.3l0,0l7.3-7.2C70.5,170.3,70.5,166.8,68.3,164.5C68.3,164.6,68.3,164.6,68.3,164.5z
			"/>
		<text transform="matrix(1 0 0 1 24.35 236.27)" class="st3 st13">HOPPI</text>
		<text transform="matrix(1 0 0 1 44.04 236.27)" class="st3 st13 st28">L</text>
		<text transform="matrix(1 0 0 1 47.12 236.27)" class="st3 st13">Y EV</text>
		<text transform="matrix(1 0 0 1 63.31 236.27)" class="st3 st13">E</text>
		<text transform="matrix(1 0 0 1 67.61 236.27)" class="st3 st13">R AF</text>
		<text transform="matrix(1 0 0 1 83.88 236.27)" class="st3 st13">TE</text>
		<text transform="matrix(1 0 0 1 92.15 236.27)" class="st3 st13">R</text>
		<text transform="matrix(1 0 0 1 44.41 246.54)" class="st1 st29">belgian ipa</text>
	</g>
	<g id="labelBeer6">
		<circle id="bg" class="st30" cx="59.3" cy="206.6" r="55"/>
		<path class="st31" d="M83.8,185.1v-0.7l-5.3-6.3l-8.4-3.1l-8.4,3.1l-5.3,6.3v6.2H45.6v-3.9h0.1c1.8,0,3.3-1.5,3.3-3.3
			c0-0.2,0-0.4,0-0.6l-1.1-6.1c-0.3-1.8-2.1-3-3.9-2.6c-1.3,0.3-2.4,1.3-2.6,2.6l-1.1,6.1c-0.3,1.8,0.9,3.5,2.7,3.9
			c0.2,0,0.4,0.1,0.6,0.1h0.1v3.9h-6.8v-7c2.3-0.5,3.9-2.5,3.9-4.8V172c0-2.7-2.2-4.9-4.9-4.9c-2.7,0-4.9,2.2-4.9,4.9v6.9
			c0,2.3,1.6,4.3,3.9,4.8v7H31v35.2h58.7V188L83.8,185.1z M58.3,185.1l4.5-5.4l7.2-2.7l7.2,2.7l4.5,5.4v5.5H75v-5.9h-9.8v5.9h-6.9
			L58.3,185.1z M73,186.7v3.9h-2v-3.9H73z M69.1,186.7v3.9h-2v-3.9H69.1z M43.5,184.7c-0.8,0-1.4-0.6-1.4-1.4c0,0,0,0,0,0
			c0-0.1,0-0.2,0-0.2l1.1-6.1c0.1-0.7,0.9-1.2,1.6-1.1c0.5,0.1,1,0.5,1.1,1.1l1.1,6.1c0.1,0.7-0.4,1.5-1.1,1.6h-0.2h-0.1v-2h-2
			L43.5,184.7L43.5,184.7z M32.9,178.8V172c-0.1-1.6,1.1-3,2.8-3.1c1.6-0.1,3,1.1,3.1,2.8c0,0.1,0,0.2,0,0.3v6.9
			c0,1.2-0.8,2.3-2,2.8v-3.7h-2v3.7C33.7,181.2,32.9,180.1,32.9,178.8L32.9,178.8z M32.9,192.5h13.3l-13.3,13.3V192.5z M32.9,208.6
			L49,192.5h0.7l-16.8,26L32.9,208.6z M32.9,223.9v-1.7L52,192.5h1l-12,31.3H32.9z M43.1,223.9l12-31.3h1.1l-5.5,31.3H43.1z
			 M59.3,223.9h-6.7l5.5-31.3h1.1L59.3,223.9z M61.3,223.9v-31.3h1.1l5.5,31.3H61.3z M70,223.9l-5.6-31.3h1.1l12,31.3H70z
			 M87.7,223.9h-8.1l-12-31.3h1l19.1,29.6L87.7,223.9z M87.7,218.6l-16.8-26h0.7l16.1,16.1V218.6z M87.7,205.8l-13.3-13.3h13.3
			L87.7,205.8z M87.7,190.6h-3.9v-3.3l3.9,2V190.6z"/>
		<rect x="69.2" y="179.8" class="st31" width="2" height="2"/>
		<path class="st31" d="M55.9,167.1c-2.4,0-4.4,1.9-4.4,4.4s1.9,4.4,4.4,4.4c2.4,0,4.4-1.9,4.4-4.4
			C60.3,169.1,58.4,167.1,55.9,167.1C56,167.1,56,167.1,55.9,167.1z M55.9,174c-1.4,0-2.5-1.1-2.5-2.4c0-1.4,1.1-2.5,2.4-2.5
			s2.5,1.1,2.5,2.4c0,0,0,0,0,0C58.4,172.9,57.3,174,55.9,174z"/>
		<text transform="matrix(1 0 0 1 40.3 239.22)" class="st3 st13">M</text>
		<text transform="matrix(1 0 0 1 46.2 239.22)" class="st3 st13">OW</text>
		<text transform="matrix(1 0 0 1 56.95 239.22)" class="st3 st13">INTIME</text>
		<text transform="matrix(1 0 0 1 50.38 248.25)" class="st1 st29">pilsner</text>
	</g>
	<circle id="labelBeer7" class="st32" cx="59.3" cy="206.6" r="55"/>
	<circle id="labelBeer8" class="st33" cx="59.3" cy="206.6" r="55"/>
	<circle id="labelBeer9" class="st34" cx="59.3" cy="206.6" r="55"/>
	<circle id="labelBeer10" class="st35" cx="59.3" cy="206.6" r="55"/>
</g>
<g id="hand">
	<rect id="top" x="40.2" y="137.6" class="st36" width="38" height="16.7"/>
	<path id="long-tap" class="st36" d="M72.8,296.9H41.7c0.4-5.9,0.6-12.2,0.6-18.8c0-6-0.2-11.8-0.6-17.2h31.1
		c-0.4,5.7-0.6,11.8-0.6,18.3C72.2,285.4,72.4,291.3,72.8,296.9z"/>
	<circle id="circle" class="st37" cx="59.2" cy="206.7" r="59.2"/>
	<rect id="short" x="54.5" y="121.6" class="st38" width="9.3" height="16"/>
	<path id="tap" class="st38" d="M79.6,311.9H34.9c-0.1-4.4,0.4-8.9,1.5-13.2c0.2-0.8,0.4-1.5,0.6-2.2c13.2-2.4,26.7-2.3,39.9,0.1
		c0.3,0.7,0.6,1.5,0.9,2.2C79.3,303,79.9,307.4,79.6,311.9z"/>
	<circle id="brand" class="st39" cx="59.3" cy="206.6" r="55"/>
	<path id="handle" class="st40" d="M35.8,2.8l13.7,126.7l18.6-0.3L78.8,0.6C64.4-0.7,49.9,0.1,35.8,2.8z"/>
</g>
</svg>
