<svg id="Layer_1" data-name="Layer 1" xmlns="http://www.w3.org/2000/svg" viewBox="0 0 200.59 209.7"><title>peter</title><path d="M68.44-3.32,57,1.47C50.89,8.81,38,8.64,39,50c.32,12.75,18,62.25,18,75,3.75-1.25-8.32,9-.86,7.87,10.23-1.61,15.34-.87,28.19-2.65,16-2.21,17.74-4.82,18.57-5.8,4.52-5.36-1.55-15.23-3.21-20.71-2.24-7.43-.85-15.44-3.42-22.77-3.71-10.58-13.66-21.57-12.07-33a1.08,1.08,0,0,1,1.13-.84h.8a1.24,1.24,0,0,1,.8.28l.47.4a.91.91,0,0,1,.33.68v1.13a.89.89,0,0,1-.33.67.87.87,0,0,0,0,1.36l.33.28c1.48-.62,1.14-.14,1.14-1.92l.73.63a.87.87,0,0,1,.32.81A6.71,6.71,0,0,1,88,55.43a.87.87,0,0,0-.25.59v1.33a.83.83,0,0,0,.17.49c3.31,4.57,4.54,9.41,6.38,14.46a1.14,1.14,0,0,0,1.09.68h.3a1.06,1.06,0,0,0,1.13-1v-.85a.83.83,0,0,0,0-.22c-1.84-6.2-2.22-17.71.24-23.73,1.38-3.38,7.35-9.37,4.6-12.38a.93.93,0,0,1-.28-.62v-.88a1,1,0,0,1,.78-.91L107.36,31a1,1,0,0,0,.77-.91v-.48a1,1,0,0,0-.86-.93l-2.81-.6a1,1,0,0,1-.86-.93v-6a1.06,1.06,0,0,1,1.13-1h0a1.06,1.06,0,0,1,1.14,1V24A1.05,1.05,0,0,0,107,25h.26a1.12,1.12,0,0,0,1.1-.72c1.37-5.05-1.53-9-1-13.88.8-7.79,14.59-9.9,21.19-7.49,1.09-.46,1.19-.32,1.17-.92a1.05,1.05,0,0,1,1.13-1H141l-.8-.68C140,.1,144-1,143.7-1,118.69-12.69,74.4-10.38,68.44-3.32Z" transform="translate(0.39 9.19)" style="fill:#0d0e10"/><path d="M89.17,1c-3.43.26-6.8-.7-9.17,2L78,1c-6.21.77-16.5,1-18.16,9-1,5,2.49,10.34,1.16,16H59V21H57v8h3l1,1v2c-3.21.5-4.44,1.15-6,4h2c-5.35,12.34-9.39,17.54-5.39,31.34L49.7,53.91,47,51,43.7,49.75,45,58V52c-1.3.65-1,.15-1,2H42V52c1.3-.65,1-.15,1-2l-1-1H40l-1,1c1,12.77,8.07,23.22,11.53,35.17,2.23,7.69,1,16.06,3,23.83,2.53,9.9,7.92,19.51-1.55,27v2h2l-.25,4.28L53,142H51l-1.19.08a3.88,3.88,0,0,1-3,2.79L48,147l2,3,1-1v-2l2,1,1,3,1-1h2v2c2.29,2.4,3.73,4.75,7,4l1.86-5.9L63.47,149c-.3-2.39-.79-2,.53-4l-4-10,2,2c1.3-.65,0-.15,0-2h2v2c4.25,3.32,9.76,4.83,15,6,.21,1.91-.36,4,.36,5.12S82.11,149.4,84,150v-2c-1.81-2.7-2-3.9-1-7l-1-1H80c-16,.48-17.9-17.79-23-29l1-1,1,1c1.52,5.91,6.39,11,7,17h2c2.87,2.31,6.21,2.55,9.86,2.71C76.17,124.57,70.47,119,75,113l-1-1-1-1-2,2H69c0-1.85.3-1.35-1-2,.78-4.47.17-7-2-11l-1,1H63l-.48-1C61.09,93.09,59,87.16,59,80l1.52.75L62,84h2V82l.78-6-1.67-.45L58,78V76c2.18-1.54,3.36-2.31,3.79-5L59,71l-1,2h0c-1-5-3-8.72-3-14l3.57,1.52L60,60V58c-2.68-3.11-1.13-10.71-6-9V47c3.67-.21,3.39,2.26,6.92,3L64,51,61.43,61H64l1-1-1-1,1-1,1-1c2.4-.17,3.46-.2,5-2h2c3.57.85,6.8-.33,10-2l-1-1a46.09,46.09,0,0,0-11,1V50c-3.87-9.58-3.19-17.9-5-27h3c3.12-5.1,5.38-8.92,6-15L74,9c-1.3.65-1,.15-1,2H71c-2.16-.68-3.73-.39-6,0l1-2c2.83-.91,4.43-1.48,6-4l1.91.38c4.11,1,8.83,5.11,11.76,1,3.53,1,5-1.2,8.33-2.4V6c3.13,1.68,4.93,2.46,6,6h2c2.22-.18,2.19-.24,4,1,1.3-.65,1-.15,1-2h6l-1-1h-2V8L98.54,5.08C91.24,4.19,97,4.88,91,3l-.57-1.54Z" transform="translate(0.39 9.19)" style="fill:#fdc786"/><path d="M131,15l1,1c5.19,4.11,5,8.81,5,15h2c.75,3.17.14,5-1,8h-2c0-1.85,1.07-1.62-.23-2.27.64-2.94-.13-4.8-.77-7.73h-2c-.91,7.45,3.07,15.7-3,21v2l1,2,1.12.21L134,53l0,3.51,9,2,0,.49c-.52,3.38-2.08,4.42-4.15,7.1L138,66V64c1.32-9.38-20.93-3.64-25-1l-.41,2.7,1,1L116,66c2-.19,7.16,1,12.47,1.85,6.53,1.1,10.66,6,14.29,4.43,1.75,3.84-1.3,11.2.07,15.81L141,88l-1,1h-1V87h-3v2c.18,4.93-1.16,9.22-6,11v4l2.66,1,2.34,0v2l-5.25.33c-1.26,1.54.55,1.35,0,3.3l-1.7-.43c-4.81-2.77-10.55-4.82-13.09,1.8l5.76-6.73L116.85,107l3.2-6c-.67-5.81-16-2-21-1a14.21,14.21,0,0,1,1,6l-.38,1,1.38,4-1-1v-2l-1-1-1,1a16.07,16.07,0,0,1-6,5v-2c-2.38-3.25-3.88-5-8-4v2l1-1c1.55,3.7.75,6.17,0,10H83l-1-2-1,1v2l3,2,1-1,1,1v2l1-1v-7l1-1c8.08,2.81,17.45.33,26.09.61l.91,2.7,1-.31v-2h2v2c1.44,2.23,2,2.67,1,5v2c3.09,5.64-9.67,10.72-11,1l1.9.62,1.1.38,1-1v-2c-4.34-1-8.56-1-13-1v2c.51,3.17-.43,6.79,2,9v2c-.27,2,.19,3,1,5h2v-2l1-6,1,1,1,6,2-1,1-5,1,1v2h2l2-4h2l2,4,2-1a9.22,9.22,0,0,1,7-1v2c-3,1.75-5.65,7.65-7.19,10.75l1,1c18.68-13.31,22.64-35.27,22.93-56.27L145,91v4h2c.12-6.11-2.8-16.45,3-20,2.76-17.18,2.1-31.41-5.88-45C140.33,21.08,142.64,16.19,131,15Z" transform="translate(0.39 9.19)" style="fill:#fdc786"/><path d="M91,2.8,88,6l1,1,1-1c6.37.43,11.5,4.59,18,5l-1,1v2h2l1,1h-6v2c9.36-.4,27.47-3.3,34,6.23,2.48,3.62,1.67,8.82,3.59,12.77,2.41,5,4.34,8.36,4.4,14l1-1V42h2l3,10,1-1c0-7.07,1.12-12.52-2-19l1-1v2h2V31l-1-7h-2a51.55,51.55,0,0,0-3-16h-2l-2,1V6c-4.66-3.26-19.77-4.75-25.27-4.75Z" transform="translate(0.39 9.19)" style="fill:#2b2321"/><path d="M140.34-2.26,124.59,1c1,1.47,19.45-4.07,19.45-2.27l-2.72,1-13.89,1,17.81,9.52c.13,4.29.9,2.27,4.17,5.13l.74,3c-.44,2.47-1.68-1.62-1,.83l2.17,5.29h0l-1.54-.4.2,2.29c3.66,5.07-1.35,1.88-1.35,7.91l1.56,6.17c-1.18-3.09,2.1,3.33,2,0h-2c-3.82,9.1-.59,25.31-1.28,35.78,0,.16,0-.59,0-.44l-1.74,1.66c-.87,6.66-2.35,6.93-2.4,13.27l-.6,6.73v-5l-1,1c-1.65,6.91-.55,13.41-1.65,20-2.26,13.59-8.27,22.77-17.73,32.33l-1.82-.39,5.2-6.94v-2l-1-1h-5v2h2c-1.66,3.08-2.91,5.3-6,7v2c0,1.8,0,1.52,1,3l-1,1-1-1-1-5-1,1c-1.42,2.48-1.43,4.18-1,7h-2l-5,2v-3l-1-1-1,1v3h-2a13.1,13.1,0,0,0-7,0l-1-1,1-1-1-1c-1.63.54-1.45.36-2,2l-1-1,1-1v-2l-7-1c1.42-3.53,1.39-6.25,1-10l-1.9-1c-4.06,3.73-8.13,2.33-13.1,2v-2l-4-2,2-1c-1-2.49-1.47-3.15-4-4v-2c-1.05-5.34-5.33-11.17-8-16l-1,1,1,1c2.21,14,8.38,29.92,25,28v2c-7.53,10.66,16.37,13.26,22,13.47,11.54.42,26.06-11.95,31-21.47h2c.65,1.3.15,1,2,1v-2c.19-8.14,4.32-15.18,6-23,3.46-16.18,5.78-32.69,8.21-49,1.42-9.58,4.74-18,4.79-28C158.19,26.09,152.38-1.41,140.34-2.26Z" transform="translate(0.39 9.19)" style="fill:#010101"/><path d="M85,5V7c-4.69.46-8.46-1.22-13-2L70.71,6.65,66,9l-1,2h8l.43-1.74L74,9l.85.4-.42,2C71.89,16.2,71.12,20.4,66,23v2c1.25,10.23,1.32,18.41,5,28h2c5.08-1.65,17.56-.62,21.6,3.16S100.05,67.26,104,70v2c-2.51,6,1.3,11.14.56,17-.34,2.63-2.72,4.57-3.56,7H99l-1-1V91H96c-1.68,2.38-1.92,4.09-2,7h2l1,1-1,1H94c-3.36-4.74-1.65-7.67-1-13h2v2h2l5-1,.52-4.09C100.91,77.23,96.1,77.73,94,72h3c.38-1.74,1.38-4.1,1.15-5.42-.06-.35-1.05.88-1.15.42H95a6.76,6.76,0,0,1-4,1l-.7.86L91,70c-10.08,2.48-15.1,4.42-24-1V67h2c7.87,2.33,29.08,2.75,25-9H92c-7.06.14-14,1.28-21,0v2l-9,1V59c1.68-3.32,1.81-6.33,2-10H61c-2.28-2.37-3.79-2.58-7-2v2h2c1.29,3,1.51,6.85,4,9v2H58c-1.48-1-1.2-1-3-1v2c0,4.84,2.11,8.39,3,13l1-1V71h2v2l-3,3v2h2l2-2h2v2c-.77,2-.59,2.84,0,5l-1,1-1-1c-1-1.48-1-1.2-1-3H59v2c0,6.93.86,12.75,4,19h2c7.52-.13,13.63,19.47,15,26l3.26.89L84,127l-1-2,1-6H82c-1.23-4.35.83-14.42,7-11h2v-2l4,1v-2a6.75,6.75,0,0,1,5,0l1-1v-2l-2-1,1-1h2c2.9,4,10.3,3.53,11.26-2.25a33,33,0,0,0-.26-9.87c-1.82-9.29-6-29.45,6.13-33.2,3.39-1.06,8.29.31,11.87.32V53l-1-3,1-1c6.19-2,1.78-14.22,2-20h2l1,10h2a16.63,16.63,0,0,0,2-8h-2c-1.2-4-.17-9.22-2.74-12.74C128.88,9.53,109.35,10,100,12V9c-2.06-1.58-3.39-1.83-6-2V5L93,4C90.06,5.1,88.13,5.56,85,5Z" transform="translate(0.39 9.19)" style="fill:#fee1b9"/><path d="M71,55v2l-7,1v2l1,1h2a9.08,9.08,0,0,0,4-3h2c6.23,2.6,14.39,0,21,0v2c4.15,10-21.68,7.67-27,7v2c5.94,5.22,18.89,6.91,24-1h2l4-1,1,1a7.15,7.15,0,0,1-4,4v2l1,1c8.18-4.52,6.75-16.79-2.13-20.4C76.34,49.48,72.73,54.13,71,55Z" transform="translate(0.39 9.19)" style="fill:#080605"/><path d="M110,109h2c1,1.48,1,1.2,1,3h2c2-9.81,3.42-20.82,1-31l-.44.39c0-2.57-1.27-2.14-.56-1.39V78c-2.52-3.87-2.53-6.51-2-11h2c4.64,4.65,11.81,2.92,15,9h2l6-1,1.17-2.63L140,71V69h-2c-8.87,0-16.2-3.67-25-3V64c6.57-4.64,25.19-9.49,25,3l2-1c2.69-2.85,3-5.14,3-9h-3l-6-4c-4.9,1.53-13.51-.4-17.25,2.51-13.39,10.41-4,28.24-4,41.41C112.82,101.2,109.54,104.11,110,109Z" transform="translate(0.39 9.19)" style="fill:#0c0807"/><path d="M200,146.5c-7.22,2.13-60.59-13.08-60-11.5l-.77-1c-.65-1.3.13,0-1.72,0L134,137l2,2c1.3-.65,1-.15,1-2l-.43,2.32c-.31,7.18-4.22,11.84-4.31,18.63L135,157l2.06-.51L135,155c10.28-1.35,34.17,16.68,34.94,10.38L172.7,169c2,7.1,1.79-5.31,1.3,2l1,1c10.05,3.48,16.12,19.91,25.2,26.31L200,195" transform="translate(0.39 9.19)" style="fill:#2f3766"/><path d="M156,82l-1-1" transform="translate(0.39 9.19)" style="fill:#2f3766"/><path d="M159,93l1-1" transform="translate(0.39 9.19)" style="fill:#2f3766"/><path d="M142,138" transform="translate(0.39 9.19)" style="fill:#2f3766"/><path d="M188.64,148" transform="translate(0.39 9.19)" style="fill:#2f3766"/><path d="M200,149" transform="translate(0.39 9.19)" style="fill:#2f3766"/><path d="M200.49,148" transform="translate(0.39 9.19)" style="fill:#2f3766"/><path d="M100.51,65c-.35,4.8-1.82,7.07-5.51,10v2c6.19,1,6,5.67,7,11l-7,1V87H93v2l2,3,1-1h2v5h3c7.59-7.72,2.67-16,3-26l-1.17-1,.17-3Z" transform="translate(0.39 9.19)" style="fill:#fcedcc"/><path d="M113,67l-.15,1.41c-1.43,3.7.45,8.21,2.15,11.59h0l.27,1,.73,1c.52,4,1.23,8.62.93,12.61-.44,6-4.2,7.1-.93,13.39h2l12,3v-3l5-1v-2l-5-1v-4h3a17,17,0,0,0,3-13h2c1,1.48,1,1.2,1,3l2-1,2-1V86c-1.33-4.54,1.76-9.74.29-13.67-1.67-4.46-4.92.53-5.29,2.67l-8,1V73c-4.89-2.36-10.15-1.83-14-6Z" transform="translate(0.39 9.19)" style="fill:#fee1b9"/><path d="M83,75v2h2l5-2V73H88Z" transform="translate(0.39 9.19)" style="fill:#281d1c"/><path d="M125,73l-1,2v2h2l2-4Z" transform="translate(0.39 9.19)" style="fill:#1a1312"/><path d="M93,79l-1,1-1,5h2a14.52,14.52,0,0,0,2-6Z" transform="translate(0.39 9.19)" style="fill:#533a36"/><path d="M97,100V98H94V96l1-5-1-1C89.73,94.18,91,99,97,100Z" transform="translate(0.39 9.19)" style="fill:#080504"/><path d="M66,100v2c2.45,3.62,2.17,6.84,3,11h2l3-2v-2a28.13,28.13,0,0,1-5-9Z" transform="translate(0.39 9.19)" style="fill:#1e1614"/><path d="M95,107H93l-2-1-1,2v2h2v3h2a21.84,21.84,0,0,0,5-6l1,1v2l1,1c.63-3.49,0-5.1-2-8C96.51,104,95.85,104.47,95,107Z" transform="translate(0.39 9.19)" style="fill:#020101"/><path d="M85,108l-2,1c-1.74,3.3-1.82,5.37-1,9h2l1-1v-2C86.91,112.38,86.8,110.69,85,108Z" transform="translate(0.39 9.19)"/><path d="M73.41,112.46l-.82,2.93c-.25,6.41,1.67,9.45,4.73,15l-1.08.7-2-.08-4.17-.62-2.22,1.25-.9.06,1.44,2L68,135.15l3.76,3.75c4.84.59,9.12,3.84,12.5-.89l.74,1.15c.12,3.63.24,6.09-.73,9.6l4.17.51,2.83.49L90,152l1.81,1.74L93.89,152h0l.92.78-1,1,1,1,6.31.21,2.93-.05,2-3-.24,2.84L108,154l1.3-.65h2.29l4.14-2-.56-2,1.63,1.45,1.62-1.14.32-.71h2.07v-2.05L121,144l.86-1.26c2-2.22,6.28-5.31,7.35-8.75l-4.53-1.2c-1.71,1.19-1.35.63-3.1,1.93l-.76-.18c-1.69-.56-1.79.51-2-1.8l-3.46-1.38-1.16,1.79-.52,1.42L112.54,136v-1.46l-1-1L110,133l-1,5-.56.17-1.08-.55L106,133l-1-1c-.3,2.7-.65,3.92-1,6l-.9,2-.92-5.46-1-1L99.29,129c.73,3.65-3.12,4.94-4.54,7.55L94,137l.93-9.64H92.86l-1,1v2.06l1,2.05-1,1H88.71v-2l-3.1-1v-2.06l1-8.2-2.78-.33a20.42,20.42,0,0,0-.74,3.46l-.33.88h-1l-1.08-.32-.19-.3c-1.56-3.75-3.8-6.11-4.35-10.15Z" transform="translate(0.39 9.19)" style="fill:#fdc786"/><path d="M94,114v2c5.92,2.15,14.63,1,21,1v-2C109.33,112.28,100.34,114,94,114Z" transform="translate(0.39 9.19)" style="fill:#1a0f0f"/><path d="M87,115v2l4-1v-2H89Z" transform="translate(0.39 9.19)" style="fill:#17110f"/><path d="M66,118l1,1,3-1v-2l-1-1Z" transform="translate(0.39 9.19)" style="fill:#030303"/><path d="M116,115v2c-14.22,0-30.44-6.21-31,13l1.29.66c1,1.48,1.71.54,1.71,2.34l1.14.8,2.68-.29,1.12-1L92.26,129c-1-1.48,0,.7,0-1.09L93,127c.8,3.67.08,7.24,0,11l1-1,5-3c.33-4.18.74-7.83,0-12h2l11,1v2l-1,1c-1.48-1-1.2-1-3-1v2c2.58,8.31,15.69,1.33,11-3v-2c2.24-2.26.39-4.45-1-7Z" transform="translate(0.39 9.19)" style="fill:#fee1b9"/><path d="M101,130h2a8.12,8.12,0,0,0,2-5C102.16,126.13,101.51,127,101,130Z" transform="translate(0.39 9.19)" style="fill:#120d0b"/><path d="M57,129l-2,1c-9,8.36-29,7.91-41,10.76-3.56.85-9.54.76-12.4,3.23C-1.58,146.73,0,155.22,0,159v41H5v-3c4.25-4.9,7.22-10.84,11.82-15.53,3.48-3.55,8.73-2.81,9.61-8.08l.81.06L28,174l1-1,1-1c1.2-7.5,7.47-8.38,13.91-8.41,11.18-.05,17.28,8.14,28.09,11.74,5.67,1.88,11.74.86,17,3.67l1-1v-7H88c-14.28-.3-29.42-8-39.68-17.68-5.51-5.19.55-13.14,6.68-13.32v-2H52v-2a12.54,12.54,0,0,0,6-6Z" transform="translate(0.39 9.19)" style="fill:#364177"/><path d="M60,135v2a31,31,0,0,0,14,17l1-1C70.43,147,65.49,140.22,60,135Z" transform="translate(0.39 9.19)" style="fill:#0a0706"/><path d="M62,135v2c7.43,12,16.55,21.05,31,23l-1,1-1.21.38C79.19,158.63,73.39,151.59,64,145l-2,1v2l3,2v2l-1,4H62a20.39,20.39,0,0,1-5-6H55l-1,1v-2l-2-2H51l-1,3c6.4,13.67,28.21,19,42,19l.55-2.88c14-7.79,36.32,1.08,42.89-19.12,1-3.11.56-6.77.56-10h-2c-7.14,7.14-15,14.9-25,17.67-13.09,3.61-29-4.5-39.19-14.29-1.9-1.81-4.43-3.5-5.81-5.38Z" transform="translate(0.39 9.19)" style="fill:#fee1b9"/><path d="M136.25,137l-1,2c0,9.21-6.7,15.25-8,24l-2-.39c-4.88-.37-15.52-1.63-19,2.39h-2c-3.82-4.37-12.1-1.42-13,4h-2c-16-.33-34.89-9.06-42-24h2l1-3h2l1,1,1-1v-2h-3c-8.31,2-7.12,12.41-1.52,16.14C62.31,164.51,73.46,171,89.25,171v8c-5.76-3.07-12.77-2-19-4.37-7.24-2.72-12.93-9.84-20-12-9.28-2.81-20.16,1.9-22,11.35l-1-2h-2v3c-9.11,5.37-19.45,13.61-21,25h2c3-5.49,6.29-11.58,11-15.79,3.75-3.32,8.62-4.51,12-8.32,3.88-4.38,9-14.65,14-5.89l2-1c5.48-6.11,10.53,1.29,16,4.55a51.34,51.34,0,0,0,33,6.45v2l-1,4h-2v-3l-1-1-1,1c-1,6-11.69,14.46-17,17h4c1.31-.1,5.58.48,6.75,0,8.22-3.34,10.59-15.42,21.25-16,7.87-.4,17.22-.95,24.83,1.42,3.53,1.1,7.94,4.42,5.51,8.48-5,8.27-28.87,5.06-37.34,5.06l1,1h40v-2l5.22-28.48L140,168.6c-3.21-3.84-8.08-5.93-7.73-11.43C132.73,150.07,139.43,144.65,136.25,137Z" transform="translate(0.39 9.19)"/><path d="M70,140v2c3.2,2.57,6,4.91,10,6l-1-5-2.82-.53C74.2,140.59,72.69,140.53,70,140Z" transform="translate(0.39 9.19)" style="fill:#010000"/><path d="M133,144l-1,1c-5.54,4.11-11.79,8.54-16,14l1,1,1-1c7.15-1.7,12.71-7.62,16-14Z" transform="translate(0.39 9.19)" style="fill:#392c2a"/><path d="M173,148v3c-2.75,5.19-1.05,10.34-1,16-8.73-5-27-14.14-37-12l-5.79,6.89C140,163.42,173.11,165.63,174,178c9.14,1.88,18.54,14.84,24,22h2v-2c-4.8-8.39-17.12-23.77-26-27v-2c1.95-6.46,2-14.24,2-21Z" transform="translate(0.39 9.19)" style="fill:#060508"/><path d="M74.5,152.41l-1,1,1,1c5,4,13.42,8.25,19.89,6.63l-2.89-1.63A98.85,98.85,0,0,1,74.5,152.41Z" transform="translate(0.39 9.19)" style="fill:#6c5148"/><path d="M130,154l-1,1c-9.79,7.23-17.2,7-29,7l1.19,1.55c2,.51,1.52.18,3.06,1.45H107c5.12-3.88,14.76-2,21-2v-3C129.89,157.87,130.94,156.76,130,154Z" transform="translate(0.39 9.19)" style="fill:#3c302e"/><path d="M143,170v2c-1,9-4.73,18.43-4.75,28H141v-3h2c3.43,1.3,6.29,2.66,10,3v-2a86,86,0,0,1,2-16h2l1,1v2l-2,5h2l4-1,1,1-1,1-5,2v2c4.12,4.49,6.62,4.65,12,2v-2l-5-2v-2h2v-2l-1-1c-7.37-5.8-9.43-12.68-20-14v-2c6.57-.53,11.68,4.78,18,6v2c.93,6.38,6.6,10.56,8,17h2c5.23-1,10.94-2.24,14,3h5v-2c-3.16-3.59-5.72-7.1-9.51-10l.38-.55c5.08,3.94,9,10.76,15.13,12.57-4-7.63-13.91-22.08-22.85-23.1L174,176c.53-9.77-19.81-14.07-27-16.68-3-1.11-6.6-3.54-9.94-2.83C127.32,158.56,138.37,168.9,143,170Z" transform="translate(0.39 9.19)" style="fill:#fee1b9"/><path d="M43.75,170l-1-1,.25-1c-4.23-6.41-9.4,2.49-12.17,6-3.67,4.62-8.42,5.84-12.79,9.4-4.85,4-8,10.22-11,15.61l1,1H52c6.7,0,15.25,1.41,21.71-.48C81,197.41,89.91,188.39,90,181H88c-9.23,0-18.15-3.19-26-8.07-3.38-2.1-7.11-6.62-11-7.59C47.91,164.55,46.31,167.82,43.75,170Z" transform="translate(0.39 9.19)" style="fill:#d5d5d5"/><path d="M101,180h2c8.7,0,17.24,2.64,18-8l-1-1C110.69,171,101.11,168.17,101,180Z" transform="translate(0.39 9.19)" style="fill:#54474d"/><path d="M145,171v3a25,25,0,0,1,11,5.26c3.91,3.18,5.41,7.22,10,9.74v2h-2v2l2.38.95L169,197h-2l-6.84,1,1.53,2H187v-2c-4.76-3.25-10.62-1.68-16-1v-3c-2.74-5.49-7.57-9.73-8-16C163,178,150.53,171.69,145,171Z" transform="translate(0.39 9.19)" style="fill:#1b1513"/><path d="M120,178" transform="translate(0.39 9.19)" style="fill:#c3b3ab"/><path d="M118,172" transform="translate(0.39 9.19)" style="fill:#c3b3ab"/><path d="M47,176v2l3,2,1-1-2-3Z" transform="translate(0.39 9.19)" style="fill:#0a0a0a"/><path d="M78,180l1,1H90l-1-1Z" transform="translate(0.39 9.19)" style="fill:#797c96"/><path d="M89.45,180.45,90,183l1-.3.3,3.3H94l1-6H93Z" transform="translate(0.39 9.19)" style="fill:#4f545a"/><path d="M54,182v2c7,4.41,12.65,12.32,21,14v-2C67.1,192.66,61.91,185.29,54,182Z" transform="translate(0.39 9.19)" style="fill:#6d6b6f"/><path d="M155,182l-1,1-.39,7.77L156,191l2.42-7.67L157,182Z" transform="translate(0.39 9.19)" style="fill:#654c44"/><path d="M93,196H91v-5H89a24.36,24.36,0,0,0-7,8l1,1c16.67-.09,40.65-.82,37.05-.56,4.31-.14,18.27-2.87,16.29-9.31-2.63-8.59-33.2-8.82-39-4.27C94.52,188,94,192.79,93,196Z" transform="translate(0.39 9.19)" style="fill:#fee1b9"/><path d="M182,187l1,2a74.64,74.64,0,0,1,9,11h6l-4-2C190.74,193.3,187.56,188.91,182,187Z" transform="translate(0.39 9.19)" style="fill:#191513"/><path d="M89,190c.65,1.3.15,1,2,1v5h2a24.64,24.64,0,0,0,2-8Z" transform="translate(0.39 9.19)" style="fill:#563c36"/><path d="M155.47,190l1,1c1.8,1.34,3.81,1.54,7.06-.63L162,189Z" transform="translate(0.39 9.19)" style="fill:#6d5048"/><path d="M154,190l-1,2v8h9l-1-1c-1.83-2.69-2.5-3.82-2-7l-1-1h-2C155.35,189.7,155.85,190,154,190Z" transform="translate(0.39 9.19)" style="fill:#0a0606"/><path d="M141,197v3c2.61,1.1,9.16,0,12,0l-1.77-1.19C148.82,197.54,143.72,197.18,141,197Z" transform="translate(0.39 9.19)" style="fill:#070504"/><path d="M175,198v2h10l-1-1Z" transform="translate(0.39 9.19)" style="fill:#ba8f82"/><path d="M101.23,81.47" transform="translate(0.39 9.19)" style="fill:#ce9689"/></svg>